<svg width="1280" height="720" viewBox="0 0 1280 720" fill="none" xmlns="http://www.w3.org/2000/svg">
<g clip-path="url(#clip0_21_281)">
<rect width="1280" height="720" fill="white"/>
<rect width="1280" height="64" fill="white"/>
<path d="M1225.74 29.5863C1225.07 30.3561 1224.47 31.1813 1223.94 32.0529C1224.48 33.0991 1224.93 34.1901 1225.28 35.3135C1225.76 34.2138 1226.37 33.1739 1227.09 32.215C1227.03 32.1034 1226.28 30.4895 1225.74 29.5863Z" fill="#1D4FB5"/>
<path d="M1215.93 30.0385C1215.5 30.9224 1215.12 31.8302 1214.8 32.7577C1215.58 33.5828 1216.25 34.5088 1216.78 35.5109C1217.08 34.3876 1217.46 33.2883 1217.92 32.2221C1217.33 31.4329 1216.66 30.7018 1215.93 30.0385Z" fill="#1D4FB5"/>
<path d="M1218.71 25.568C1219.41 26.1503 1220.07 26.7781 1220.69 27.4474C1221.25 26.7017 1221.86 25.9895 1222.5 25.3143C1222.37 25.1969 1221.29 24.1022 1220.52 23.4644C1219.88 24.1337 1219.27 24.8359 1218.71 25.568Z" fill="#1D4FB5"/>
<path d="M1240.28 15.3903C1240.28 15.3903 1239.85 15.3739 1239.4 15.3739C1233.21 15.3566 1227.21 17.5599 1222.5 21.5839C1217.79 17.5599 1211.8 15.3566 1205.61 15.3739C1205.15 15.3739 1204.73 15.3903 1204.73 15.3903C1204.6 15.3966 1204.48 15.4507 1204.39 15.5415C1204.31 15.6323 1204.26 15.753 1204.26 15.879V42.3423C1204.26 42.4669 1204.31 42.5864 1204.39 42.6745C1204.48 42.7626 1204.6 42.8121 1204.73 42.8121H1240.28C1240.4 42.8121 1240.52 42.7626 1240.61 42.6745C1240.7 42.5864 1240.75 42.4669 1240.75 42.3423V15.879C1240.75 15.753 1240.7 15.6323 1240.61 15.5415C1240.52 15.4507 1240.41 15.3966 1240.28 15.3903ZM1206.96 18.1154C1211.93 18.3991 1216.69 20.2724 1220.52 23.4597C1219.3 24.7357 1218.21 26.1316 1217.27 27.6259C1214.37 25.1647 1210.76 23.6869 1206.96 23.4045V18.1154ZM1213.35 40.1106H1206.96V33.715C1208.55 33.9949 1210.01 34.7553 1211.15 35.8937C1212.3 37.0321 1213.06 38.4937 1213.35 40.0812C1213.35 40.0906 1213.35 40.1012 1213.35 40.1106ZM1214.08 35.1503C1213.23 34.0135 1212.16 33.0586 1210.94 32.3422C1209.72 31.6259 1208.36 31.1628 1206.96 30.9806V26.1166C1210.3 26.4088 1213.45 27.7862 1215.93 30.0385C1215.13 31.672 1214.51 33.3855 1214.08 35.1503ZM1216.09 40.1106C1216.08 40.0542 1216.07 39.9931 1216.06 39.9426C1216.23 37.2792 1216.86 34.665 1217.92 32.215C1219.65 34.5103 1220.7 37.2464 1220.95 40.1106H1216.09ZM1219.26 29.584C1220.17 28.0402 1221.26 26.6061 1222.5 25.3097C1223.74 26.6067 1224.83 28.0415 1225.74 29.5863C1224.36 31.174 1223.26 32.9909 1222.5 34.9553C1221.74 32.9912 1220.65 31.1744 1219.26 29.5863L1219.26 29.584ZM1228.92 40.1106H1224.05C1224.3 37.2464 1225.35 34.5103 1227.09 32.215C1228.14 34.665 1228.77 37.2792 1228.94 39.9426C1228.93 39.999 1228.92 40.0542 1228.92 40.1106ZM1238.05 40.1106H1231.66C1231.66 40.1012 1231.66 40.0918 1231.66 40.0812C1231.95 38.4937 1232.71 37.0321 1233.85 35.8937C1235 34.7553 1236.46 33.9949 1238.05 33.715L1238.05 40.1106ZM1238.05 30.9806C1236.65 31.1628 1235.29 31.6259 1234.07 32.3422C1232.85 33.0586 1231.78 34.0135 1230.93 35.1503C1230.5 33.3855 1229.87 31.672 1229.08 30.0385C1231.56 27.787 1234.71 26.4096 1238.05 26.1166L1238.05 30.9806ZM1238.05 23.4045C1234.25 23.6869 1230.64 25.1647 1227.74 27.6259C1226.8 26.1316 1225.71 24.7357 1224.49 23.4597C1228.32 20.2731 1233.07 18.3999 1238.05 18.1154L1238.05 23.4045Z" fill="#0072CF"/>
<path d="M1235.75 45.9247H1209.25C1208.99 45.9247 1208.78 46.1351 1208.78 46.3946V48.1564C1208.78 48.4159 1208.99 48.6263 1209.25 48.6263H1235.75C1236.01 48.6263 1236.22 48.4159 1236.22 48.1564V46.3946C1236.22 46.1351 1236.01 45.9247 1235.75 45.9247Z" fill="#0072CF"/>
<rect width="1280" height="64" transform="translate(0 656)" fill="#2171C1"/>
<path d="M1187.42 695.678C1187.05 695.678 1186.74 695.547 1186.48 695.286C1186.22 695.024 1186.09 694.711 1186.09 694.346C1186.09 693.981 1186.22 693.668 1186.48 693.407C1186.74 693.146 1187.05 693.015 1187.42 693.015C1187.78 693.015 1188.1 693.146 1188.36 693.407C1188.62 693.668 1188.75 693.981 1188.75 694.346C1188.75 694.588 1188.69 694.81 1188.57 695.012C1188.45 695.214 1188.29 695.377 1188.08 695.5C1187.89 695.619 1187.67 695.678 1187.42 695.678Z" fill="white"/>
<path d="M1179.13 695.796C1178.06 695.796 1177.14 695.544 1176.37 695.041C1175.61 694.538 1175.01 693.846 1174.6 692.963C1174.19 692.08 1173.98 691.072 1173.98 689.938C1173.98 688.784 1174.19 687.766 1174.61 686.883C1175.04 685.995 1175.64 685.302 1176.4 684.804C1177.17 684.301 1178.07 684.05 1179.1 684.05C1179.9 684.05 1180.62 684.198 1181.26 684.494C1181.9 684.79 1182.42 685.204 1182.83 685.736C1183.24 686.269 1183.5 686.89 1183.59 687.6H1181.85C1181.72 687.083 1181.42 686.624 1180.96 686.225C1180.51 685.82 1179.9 685.618 1179.13 685.618C1178.45 685.618 1177.85 685.796 1177.34 686.151C1176.83 686.501 1176.43 686.996 1176.15 687.637C1175.86 688.273 1175.72 689.021 1175.72 689.879C1175.72 690.756 1175.86 691.521 1176.14 692.172C1176.42 692.822 1176.81 693.328 1177.32 693.688C1177.83 694.048 1178.44 694.228 1179.13 694.228C1179.58 694.228 1179.99 694.149 1180.36 693.991C1180.73 693.833 1181.04 693.607 1181.3 693.311C1181.56 693.015 1181.74 692.66 1181.85 692.246H1183.59C1183.5 692.916 1183.25 693.52 1182.86 694.058C1182.48 694.59 1181.97 695.014 1181.33 695.33C1180.7 695.641 1179.96 695.796 1179.13 695.796Z" fill="white"/>
<path d="M1164.07 688.725V695.559H1162.33V684.198H1164.01V685.973H1164.16C1164.43 685.396 1164.83 684.933 1165.37 684.583C1165.92 684.227 1166.62 684.05 1167.47 684.05C1168.24 684.05 1168.92 684.208 1169.49 684.523C1170.07 684.834 1170.52 685.307 1170.84 685.944C1171.16 686.575 1171.32 687.374 1171.32 688.34V695.559H1169.58V688.458C1169.58 687.566 1169.34 686.871 1168.88 686.373C1168.42 685.87 1167.78 685.618 1166.97 685.618C1166.41 685.618 1165.92 685.739 1165.48 685.981C1165.04 686.222 1164.7 686.575 1164.45 687.038C1164.2 687.502 1164.07 688.064 1164.07 688.725Z" fill="white"/>
<path d="M1158.89 680.411V695.559H1157.05V680.411H1158.89Z" fill="white"/>
<path d="M1147.52 680.411V695.559H1145.68V680.411H1147.52Z" fill="white"/>
<path d="M1130.26 695.559V680.411H1132.1V687.157H1140.18V680.411H1142.01V695.559H1140.18V688.784H1132.1V695.559H1130.26Z" fill="white"/>
<path d="M1125.26 684.198C1125.18 683.448 1124.82 682.866 1124.18 682.452C1123.55 682.038 1122.78 681.831 1121.86 681.831C1121.19 681.831 1120.6 681.939 1120.1 682.156C1119.6 682.373 1119.21 682.671 1118.93 683.051C1118.66 683.431 1118.52 683.862 1118.52 684.346C1118.52 684.75 1118.62 685.098 1118.81 685.389C1119 685.675 1119.26 685.914 1119.56 686.106C1119.87 686.293 1120.19 686.449 1120.52 686.572C1120.86 686.69 1121.17 686.787 1121.45 686.86L1122.99 687.275C1123.38 687.378 1123.82 687.521 1124.3 687.704C1124.79 687.886 1125.26 688.135 1125.7 688.451C1126.15 688.761 1126.52 689.161 1126.81 689.649C1127.1 690.137 1127.25 690.736 1127.25 691.446C1127.25 692.265 1127.03 693.005 1126.6 693.665C1126.18 694.326 1125.56 694.851 1124.74 695.241C1123.93 695.63 1122.94 695.825 1121.77 695.825C1120.69 695.825 1119.75 695.65 1118.96 695.3C1118.17 694.95 1117.55 694.462 1117.09 693.836C1116.64 693.209 1116.39 692.482 1116.33 691.654H1118.22C1118.27 692.226 1118.46 692.699 1118.8 693.074C1119.14 693.444 1119.57 693.72 1120.09 693.902C1120.61 694.08 1121.17 694.168 1121.77 694.168C1122.47 694.168 1123.1 694.055 1123.66 693.828C1124.22 693.596 1124.66 693.276 1124.98 692.867C1125.31 692.452 1125.47 691.969 1125.47 691.417C1125.47 690.914 1125.33 690.505 1125.05 690.189C1124.77 689.873 1124.4 689.617 1123.94 689.42C1123.48 689.222 1122.99 689.05 1122.45 688.902L1120.59 688.369C1119.41 688.029 1118.47 687.543 1117.78 686.912C1117.09 686.281 1116.74 685.455 1116.74 684.434C1116.74 683.586 1116.97 682.847 1117.43 682.215C1117.9 681.579 1118.52 681.086 1119.3 680.736C1120.08 680.381 1120.95 680.203 1121.92 680.203C1122.9 680.203 1123.77 680.378 1124.53 680.729C1125.28 681.074 1125.89 681.547 1126.33 682.149C1126.78 682.75 1127.02 683.433 1127.04 684.198H1125.26Z" fill="white"/>
<path d="M1103.52 695.559H1101.6L1107.16 680.411H1109.06L1114.62 695.559H1112.7L1108.17 682.807H1108.05L1103.52 695.559ZM1104.24 689.642H1111.99V691.269H1104.24V689.642Z" fill="white"/>
<path d="M1087.49 695.559V680.411H1089.32V687.157H1097.4V680.411H1099.23V695.559H1097.4V688.784H1089.32V695.559H1087.49Z" fill="white"/>
<path d="M1075.04 695.559V680.411H1084.18V682.038H1076.87V687.157H1083.71V688.784H1076.87V693.932H1084.3V695.559H1075.04Z" fill="white"/>
<path d="M1061.45 695.559V680.411H1063.28V687.926H1063.46L1070.27 680.411H1072.66L1066.3 687.245L1072.66 695.559H1070.44L1065.18 688.518L1063.28 690.648V695.559H1061.45Z" fill="white"/>
<path d="M1048 695.559H1046.07L1051.63 680.411H1053.53L1059.09 695.559H1057.17L1052.64 682.807H1052.52L1048 695.559ZM1048.71 689.642H1056.46V691.269H1048.71V689.642Z" fill="white"/>
<path d="M1033.79 695.559V680.411H1035.62V687.926H1035.8L1042.6 680.411H1045L1038.64 687.245L1045 695.559H1042.78L1037.51 688.518L1035.62 690.648V695.559H1033.79Z" fill="white"/>
<path d="M1012.24 687.986C1012.24 687.177 1012.44 686.44 1012.83 685.774C1013.23 685.108 1013.76 684.578 1014.42 684.184C1015.09 683.789 1015.83 683.592 1016.63 683.592C1017.34 683.592 1017.98 683.742 1018.57 684.043C1019.17 684.344 1019.66 684.756 1020.05 685.278C1020.44 685.796 1020.68 686.383 1020.78 687.039H1018.99C1018.89 686.531 1018.61 686.117 1018.17 685.796C1017.72 685.471 1017.21 685.308 1016.63 685.308C1016.14 685.308 1015.69 685.429 1015.29 685.67C1014.88 685.912 1014.56 686.235 1014.32 686.639C1014.08 687.044 1013.96 687.492 1013.96 687.986C1013.96 688.479 1014.08 688.927 1014.32 689.332C1014.56 689.736 1014.88 690.059 1015.29 690.301C1015.69 690.542 1016.14 690.663 1016.63 690.663C1017.21 690.663 1017.69 690.503 1018.08 690.182C1018.48 689.857 1018.74 689.44 1018.84 688.932H1020.63C1020.54 689.588 1020.31 690.177 1019.94 690.7C1019.58 691.218 1019.11 691.627 1018.54 691.928C1017.97 692.229 1017.34 692.379 1016.63 692.379C1015.83 692.379 1015.09 692.182 1014.42 691.787C1013.76 691.393 1013.23 690.863 1012.83 690.197C1012.44 689.531 1012.24 688.794 1012.24 687.986ZM1016.56 695.796C1015.49 695.796 1014.48 695.594 1013.53 695.19C1012.59 694.786 1011.76 694.226 1011.04 693.511C1010.32 692.791 1009.76 691.96 1009.35 691.018C1008.94 690.076 1008.75 689.065 1008.75 687.986C1008.76 686.906 1008.96 685.895 1009.36 684.953C1009.77 684.011 1010.34 683.183 1011.05 682.468C1011.77 681.748 1012.59 681.186 1013.54 680.781C1014.48 680.377 1015.49 680.175 1016.56 680.175C1017.64 680.175 1018.65 680.377 1019.59 680.781C1020.54 681.186 1021.37 681.748 1022.08 682.468C1022.79 683.183 1023.35 684.011 1023.76 684.953C1024.16 685.895 1024.37 686.906 1024.37 687.986C1024.38 689.065 1024.18 690.076 1023.77 691.018C1023.37 691.96 1022.81 692.791 1022.09 693.511C1021.38 694.226 1020.55 694.786 1019.6 695.19C1018.65 695.594 1017.64 695.796 1016.56 695.796ZM1016.56 694.08C1017.4 694.08 1018.2 693.923 1018.94 693.607C1019.68 693.291 1020.32 692.855 1020.88 692.298C1021.44 691.741 1021.87 691.095 1022.19 690.36C1022.51 689.62 1022.66 688.831 1022.66 687.993C1022.65 687.15 1022.49 686.358 1022.18 685.619C1021.86 684.879 1021.42 684.231 1020.87 683.673C1020.31 683.116 1019.66 682.68 1018.93 682.364C1018.19 682.048 1017.4 681.891 1016.56 681.891C1015.72 681.891 1014.94 682.048 1014.2 682.364C1013.47 682.68 1012.82 683.119 1012.26 683.681C1011.71 684.238 1011.27 684.886 1010.95 685.626C1010.63 686.361 1010.47 687.15 1010.47 687.993C1010.46 688.826 1010.62 689.613 1010.93 690.353C1011.25 691.087 1011.68 691.733 1012.24 692.29C1012.8 692.848 1013.45 693.287 1014.19 693.607C1014.93 693.923 1015.72 694.08 1016.56 694.08Z" fill="white"/>
</g>
<defs>
<clipPath id="clip0_21_281">
<rect width="1280" height="720" fill="white"/>
</clipPath>
</defs>
</svg>
