<svg width="428" height="137" viewBox="0 0 428 137" fill="none" xmlns="http://www.w3.org/2000/svg">
<g clip-path="url(#clip0_51_1468)">
<path d="M60.7313 19.2687C60.7313 22.1889 61.8914 24.9895 63.9563 27.0544C66.0212 29.1193 68.8218 30.2793 71.742 30.2793C74.6622 30.2793 77.4627 29.1193 79.5276 27.0544C81.5925 24.9895 82.7526 22.1889 82.7526 19.2687C82.7526 16.3485 81.5925 13.5479 79.5276 11.483C77.4627 9.4181 74.6622 8.25806 71.742 8.25806C68.8218 8.25806 66.0212 9.4181 63.9563 11.483C61.8914 13.5479 60.7313 16.3485 60.7313 19.2687Z" stroke="black" stroke-width="3" stroke-linecap="round" stroke-linejoin="round"/>
<path d="M55.2261 57.8057V52.3004C55.2261 49.3802 56.3861 46.5796 58.451 44.5147C60.5159 42.4498 63.3165 41.2898 66.2367 41.2898H77.2473C80.1675 41.2898 82.9681 42.4498 85.033 44.5147C87.0979 46.5796 88.258 49.3802 88.258 52.3004V57.8057" stroke="black" stroke-width="3" stroke-linecap="round" stroke-linejoin="round"/>
<path d="M91.0107 8.61597C93.3792 9.22238 95.4784 10.5998 96.9775 12.5311C98.4766 14.4624 99.2903 16.8377 99.2903 19.2825C99.2903 21.7273 98.4766 24.1026 96.9775 26.0339C95.4784 27.9652 93.3792 29.3426 91.0107 29.9491" stroke="black" stroke-width="3" stroke-linecap="round" stroke-linejoin="round"/>
<path d="M104.774 57.8059V52.3006C104.76 49.8705 103.942 47.5132 102.449 45.5962C100.955 43.6793 98.869 42.3104 96.516 41.7029" stroke="black" stroke-width="3" stroke-linecap="round" stroke-linejoin="round"/>
</g>
<path d="M67.68 84.0797H72.112V84.8157H67.68V84.0797ZM67.68 85.8077H72.112V86.5597H67.68V85.8077ZM67.664 87.5677H72.384V88.4157H67.664V87.5677ZM69.456 82.7037H70.304V88.0957H69.456V82.7037ZM68.096 82.2717H72.16V83.1037H68.096V89.1677H67.184V83.0877L67.904 82.2717H68.096ZM69.984 80.8797L70.928 81.1677C70.608 81.8077 70.304 82.5117 70.016 82.9917L69.296 82.7197C69.536 82.2077 69.84 81.3917 69.984 80.8797ZM67.808 80.8317L68.72 81.0557C68.272 82.4797 67.552 83.9197 66.752 84.8637C66.608 84.7037 66.272 84.3677 66.064 84.2237C66.816 83.3597 67.44 82.1117 67.808 80.8317ZM64.928 75.3917H71.984V76.4157H64.928V75.3917ZM65.92 77.5037H71.904V80.8157H65.92V79.9357H70.832V78.3997H65.92V77.5037ZM65.408 77.5037H66.464V81.6317C66.464 83.7917 66.304 86.9757 65.344 89.1517C65.152 88.9597 64.704 88.6237 64.464 88.5117C65.328 86.4637 65.408 83.6477 65.408 81.6317V77.5037ZM72.592 75.3917H79.184V76.4317H72.592V75.3917ZM74.064 81.3117V82.8637H77.792V81.3117H74.064ZM74.064 83.7597V85.3277H77.792V83.7597H74.064ZM74.064 78.8637V80.3837H77.792V78.8637H74.064ZM73.056 77.9197H78.848V86.2717H73.056V77.9197ZM75.248 75.9037L76.512 76.0477C76.288 76.9597 76.08 77.9517 75.904 78.6237L74.912 78.4317C75.056 77.7117 75.2 76.6237 75.248 75.9037ZM74.544 86.6877L75.568 87.2637C74.848 88.0477 73.696 88.8957 72.736 89.3757C72.56 89.1677 72.192 88.8477 71.952 88.6397C72.912 88.1757 74.016 87.3597 74.544 86.6877ZM76.528 87.2797L77.408 86.7357C78.144 87.3117 79.072 88.1757 79.552 88.7677L78.624 89.3757C78.192 88.7997 77.28 87.9037 76.528 87.2797ZM86.016 77.4557L87.312 77.7117C86.208 79.2637 84.592 80.7837 82.24 81.9517C82.064 81.6637 81.696 81.2637 81.424 81.0877C83.648 80.0957 85.2 78.7037 86.016 77.4557ZM85.84 78.6557H91.408V79.6157H84.976L85.84 78.6557ZM91.072 78.6557H91.296L91.52 78.6077L92.32 79.1037C90.176 82.4637 85.456 84.4957 81.152 85.4077C81.04 85.1037 80.784 84.6237 80.56 84.3517C84.672 83.5997 89.248 81.6637 91.072 78.8477V78.6557ZM85.376 79.4077C87.248 81.8077 91.12 83.3597 95.408 83.9037C95.136 84.1757 94.816 84.6877 94.64 85.0397C90.336 84.3677 86.464 82.6557 84.32 79.8877L85.376 79.4077ZM83.584 84.4157H92.48V89.3117H91.248V85.4397H84.768V89.3277H83.584V84.4157ZM84.176 87.7757H91.856V88.7997H84.176V87.7757ZM87.344 74.6397H88.576V76.7197H87.344V74.6397ZM81.216 76.0797H94.752V79.1037H93.536V77.1837H82.4V79.1037H81.216V76.0797Z" fill="#1F2328"/>
<path d="M81.5043 98.0637L83.7457 98.0637L83.7457 108.981L81.5043 108.981L81.5043 98.0637ZM76.2542 98.0637L78.4957 98.0637L78.4957 108.981L76.2542 108.981L76.2542 98.0637Z" fill="#1F2328"/>
<path d="M13.0902 119.253C13.0902 119.765 13.5062 120.181 14.0182 120.181C14.5302 120.181 14.9462 119.765 14.9462 119.253C14.9462 118.741 14.5302 118.325 14.0182 118.325C13.5062 118.325 13.0902 118.741 13.0902 119.253ZM12.0982 119.253C12.0982 118.197 12.9622 117.333 14.0182 117.333C15.0742 117.333 15.9382 118.197 15.9382 119.253C15.9382 120.309 15.0742 121.173 14.0182 121.173C12.9622 121.173 12.0982 120.309 12.0982 119.253ZM14.0502 120.517C13.8902 120.821 13.7782 121.285 13.6982 121.621C13.3302 123.189 12.6262 125.685 11.2822 127.461C9.84219 129.381 7.71419 130.965 4.85019 131.877L3.10619 129.957C6.29019 129.221 8.09819 127.829 9.37819 126.213C10.4502 124.885 11.0582 123.061 11.2662 121.685C10.2902 121.685 5.01019 121.685 3.81019 121.685C3.07419 121.685 2.32219 121.733 1.90619 121.765V119.493C2.38619 119.557 3.28219 119.637 3.81019 119.637C5.01019 119.637 10.3222 119.637 11.2182 119.637C11.5382 119.637 12.0502 119.621 12.4662 119.509L14.0502 120.517ZM18.2582 119.637C18.8982 119.653 19.5062 119.669 19.9382 119.669C21.1062 119.669 27.6022 119.669 28.7542 119.669C29.1542 119.669 29.7462 119.669 30.3382 119.653C30.3062 120.133 30.3062 120.709 30.3062 121.205C30.3062 122.181 30.3062 128.069 30.3062 129.045C30.3062 129.669 30.3222 131.205 30.3382 131.269H28.1142C28.1142 131.205 28.1622 129.957 28.1622 129.077C28.1622 128.149 28.1622 121.717 28.1622 121.717H20.4182C20.4182 121.717 20.4182 128.133 20.4182 129.077C20.4182 129.845 20.4342 131.189 20.4342 131.269H18.2422C18.2422 131.189 18.2742 129.781 18.2742 129.013C18.2742 128.053 18.2742 122.133 18.2742 121.205C18.2742 120.741 18.2742 120.101 18.2582 119.637ZM28.9462 128.357V130.389H19.3302V128.357H28.9462ZM44.7062 117.845C45.1062 118.437 45.6662 119.445 45.9702 120.037L44.6902 120.581C44.3542 119.941 43.8582 118.981 43.4262 118.373L44.7062 117.845ZM46.5942 117.125C47.0102 117.717 47.6022 118.741 47.8902 119.301L46.6102 119.845C46.2742 119.173 45.7622 118.245 45.3302 117.637L46.5942 117.125ZM38.7062 123.877C40.6742 125.013 43.6502 127.061 45.1222 128.245L43.6022 130.053C42.1942 128.741 39.1702 126.517 37.2982 125.333L38.7062 123.877ZM46.2422 121.157C46.0662 121.461 45.8582 121.909 45.7142 122.309C45.2182 123.781 44.2422 125.829 42.8182 127.605C41.3142 129.477 39.2502 131.269 36.1942 132.421L34.3382 130.821C37.6822 129.781 39.6022 128.101 40.9622 126.501C42.0502 125.221 43.0422 123.397 43.3462 122.149H37.9222L38.6742 120.341H43.2182C43.7142 120.341 44.2582 120.261 44.6102 120.149L46.2422 121.157ZM40.9462 118.693C40.5622 119.253 40.1622 119.989 39.9702 120.325C38.8822 122.261 36.8342 124.709 34.5462 126.293L32.8182 124.965C35.6182 123.237 37.1062 121.029 37.9062 119.653C38.1462 119.253 38.4982 118.517 38.6422 117.973L40.9462 118.693ZM62.6262 121.045C62.4502 121.349 62.2262 121.781 62.0982 122.181C61.6662 123.621 60.7542 125.749 59.2982 127.525C57.7782 129.381 55.8582 130.853 52.8502 132.037L50.9622 130.357C54.2262 129.365 56.0022 127.973 57.4102 126.389C58.4982 125.141 59.4262 123.221 59.6822 122.037H54.2902L55.0262 120.213C55.7302 120.213 59.0902 120.213 59.5862 120.213C60.0822 120.213 60.6262 120.149 60.9782 120.021L62.6262 121.045ZM57.4102 118.501C57.0262 119.061 56.6102 119.797 56.4342 120.133C55.3462 122.069 53.4422 124.325 51.1382 125.893L49.3462 124.565C52.1462 122.853 53.5542 120.789 54.3382 119.413C54.5782 119.029 54.9142 118.293 55.0582 117.733L57.4102 118.501ZM69.2502 129.461C69.2502 128.229 69.2502 121.605 69.2502 120.261C69.2502 119.685 69.2022 118.901 69.0902 118.325H71.5862C71.5222 118.901 71.4422 119.589 71.4422 120.261C71.4422 122.021 71.4582 128.277 71.4582 129.461C71.4582 129.909 71.5222 131.029 71.6022 131.685H69.0902C69.2022 131.061 69.2502 130.085 69.2502 129.461ZM70.9782 122.469C73.1062 123.061 76.5622 124.325 78.1302 125.093L77.2342 127.317C75.4102 126.373 72.7222 125.349 70.9782 124.773V122.469ZM84.3542 124.517H92.1142V126.037H84.3542V124.517ZM84.1142 127.253H92.3702V128.821H84.1142V127.253ZM88.9142 124.997H90.5942V132.133H88.9142V124.997ZM85.7942 125.061H87.4262V128.133C87.4262 129.157 86.9942 131.269 85.3142 132.421C85.0582 132.085 84.4822 131.573 84.0822 131.317C85.4422 130.485 85.7942 128.933 85.7942 128.117V125.061ZM82.4502 120.197H86.4822V121.445H82.4502V120.197ZM89.8742 120.197H93.9222V121.445H89.8742V120.197ZM93.1702 118.005H95.0582V130.197C95.0582 131.157 94.8822 131.701 94.3062 132.021C93.7142 132.341 92.8822 132.389 91.6502 132.373C91.6022 131.861 91.3462 130.965 91.0902 130.469C91.7942 130.501 92.5942 130.501 92.8342 130.501C93.0902 130.501 93.1702 130.405 93.1702 130.165V118.005ZM82.6262 118.005H87.6982V123.701H82.6262V122.325H85.8902V119.381H82.6262V118.005ZM94.1462 118.005V119.381H90.5622V122.357H94.1462V123.733H88.7382V118.005H94.1462ZM81.4902 118.005H83.3782V132.421H81.4902V118.005ZM99.9062 122.821H108.61V124.629H99.9062V122.821ZM98.1782 118.005H102.706V119.669H98.1782V118.005ZM97.8262 126.453H110.578V128.213H97.8262V126.453ZM102.034 118.005H102.37L102.706 117.941L103.986 118.533C102.898 121.797 100.498 124.085 97.7622 125.381C97.5062 124.949 96.9782 124.293 96.5942 123.941C98.9782 122.949 101.202 120.773 102.034 118.341V118.005ZM101.266 123.733H103.17V126.501C103.17 128.773 102.594 131.157 98.6422 132.485C98.4022 132.053 97.8102 131.301 97.4102 130.965C100.818 129.893 101.266 128.117 101.266 126.469V123.733ZM105.986 117.413C107.01 120.165 109.106 122.549 111.922 123.669C111.474 124.053 110.882 124.821 110.578 125.333C107.602 123.925 105.522 121.237 104.274 117.909L105.986 117.413ZM97.6822 120.917L98.8982 119.909C99.5062 120.341 100.338 120.965 100.754 121.397L99.4902 122.501C99.1062 122.085 98.3062 121.397 97.6822 120.917ZM108.226 117.653L109.666 118.661C108.834 119.429 107.858 120.229 107.106 120.725L105.954 119.845C106.674 119.285 107.666 118.341 108.226 117.653ZM110.13 119.477L111.538 120.469C110.674 121.253 109.618 122.085 108.802 122.629L107.65 121.749C108.434 121.173 109.506 120.197 110.13 119.477ZM105.154 123.813H107.154V129.941C107.154 130.533 107.218 130.613 107.666 130.613C107.858 130.613 108.658 130.613 108.882 130.613C109.314 130.613 109.394 130.309 109.458 128.805C109.858 129.109 110.642 129.429 111.17 129.541C110.994 131.669 110.482 132.325 109.074 132.325C108.722 132.325 107.666 132.325 107.314 132.325C105.57 132.325 105.154 131.749 105.154 129.941V123.813ZM114.674 119.493C115.906 119.525 118.37 119.509 120.13 119.253C121.746 119.013 123.362 118.661 124.162 118.277L125.49 120.037C124.946 120.181 124.514 120.293 124.258 120.357C123.266 120.613 121.986 120.821 120.754 120.997C118.93 121.253 116.578 121.317 115.186 121.349L114.674 119.493ZM115.362 130.533C118.194 129.237 119.458 127.125 119.458 124.133C119.458 124.133 119.458 123.093 119.458 120.821L121.554 120.581C121.554 121.957 121.554 124.085 121.554 124.085C121.554 127.317 120.498 130.053 117.41 131.909L115.362 130.533ZM113.474 123.333C113.922 123.365 114.45 123.413 114.962 123.413C115.97 123.413 124.53 123.413 125.602 123.413C125.938 123.413 126.69 123.365 127.042 123.333V125.397C126.61 125.365 126.082 125.333 125.634 125.333C124.626 125.333 115.922 125.333 114.978 125.333C114.482 125.333 113.89 125.365 113.474 125.397V123.333ZM129.698 123.573C130.29 123.621 131.442 123.685 132.274 123.685C134.162 123.685 139.442 123.685 140.866 123.685C141.618 123.685 142.322 123.605 142.754 123.573V126.101C142.37 126.085 141.554 126.005 140.882 126.005C139.426 126.005 134.162 126.005 132.274 126.005C131.378 126.005 130.306 126.053 129.698 126.101V123.573ZM152.622 118.917C152.414 119.397 152.19 119.989 151.95 120.709C151.358 122.501 149.694 127.653 149.006 129.317L146.654 129.397C147.518 127.349 149.182 122.101 149.71 120.245C149.934 119.445 150.014 118.933 150.078 118.405L152.622 118.917ZM155.486 124.085C156.638 125.813 158.27 128.965 159.006 130.741L156.846 131.701C156.126 129.765 154.638 126.453 153.502 124.917L155.486 124.085ZM146.494 128.677C148.718 128.597 153.95 128.005 156.19 127.701L156.654 129.749C154.286 130.053 148.782 130.629 146.622 130.853C146.222 130.901 145.614 130.981 145.118 131.045L144.734 128.693C145.278 128.709 145.982 128.693 146.494 128.677Z" fill="#1F2328"/>
<g clip-path="url(#clip1_51_1468)">
<path d="M350.753 24.7739C350.753 24.0438 351.043 23.3437 351.559 22.8275C352.075 22.3113 352.775 22.0212 353.505 22.0212H370.021C370.751 22.0212 371.451 22.3113 371.968 22.8275C372.484 23.3437 372.774 24.0438 372.774 24.7739V52.3005C372.774 53.0305 372.484 53.7307 371.968 54.2469C371.451 54.7631 370.751 55.0531 370.021 55.0531H353.505C352.775 55.0531 352.075 54.7631 351.559 54.2469C351.043 53.7307 350.753 53.0305 350.753 52.3005V24.7739Z" stroke="black" stroke-width="3" stroke-linecap="round" stroke-linejoin="round"/>
<path d="M364.516 22.0211V13.7632C364.516 13.0331 364.226 12.333 363.709 11.8167C363.193 11.3005 362.493 11.0105 361.763 11.0105H325.978C325.248 11.0105 324.548 11.3005 324.032 11.8167C323.516 12.333 323.226 13.0331 323.226 13.7632V46.795C323.226 47.5251 323.516 48.2252 324.032 48.7415C324.548 49.2577 325.248 49.5477 325.978 49.5477H350.752" stroke="black" stroke-width="3" stroke-linecap="round" stroke-linejoin="round"/>
<path d="M359.011 24.7739H364.516" stroke="black" stroke-width="3" stroke-linecap="round" stroke-linejoin="round"/>
</g>
<path d="M320.88 76.5757C320.88 77.1677 321.344 77.6317 321.936 77.6317C322.512 77.6317 322.992 77.1677 322.992 76.5757C322.992 75.9997 322.512 75.5197 321.936 75.5197C321.344 75.5197 320.88 75.9997 320.88 76.5757ZM320.144 76.5757C320.144 75.5837 320.944 74.7837 321.936 74.7837C322.928 74.7837 323.728 75.5837 323.728 76.5757C323.728 77.5677 322.928 78.3677 321.936 78.3677C320.944 78.3677 320.144 77.5677 320.144 76.5757ZM321.536 77.6477C321.424 77.8717 321.36 78.1437 321.296 78.4477C320.944 80.1277 320.176 82.7197 318.896 84.3517C317.44 86.2397 315.536 87.7117 312.608 88.6397L311.52 87.4397C314.624 86.6557 316.416 85.2957 317.76 83.5837C318.896 82.1437 319.632 79.9037 319.856 78.3677C318.928 78.3677 312.592 78.3677 311.664 78.3677C311.024 78.3677 310.48 78.3997 310.08 78.4317V77.0077C310.512 77.0557 311.152 77.1197 311.68 77.1197C312.592 77.1197 318.976 77.1197 319.696 77.1197C319.952 77.1197 320.256 77.1037 320.56 77.0237L321.536 77.6477ZM326.336 77.1037C326.96 77.1357 327.376 77.1357 327.76 77.1357C328.608 77.1357 335.568 77.1357 336.352 77.1357C336.688 77.1357 337.264 77.1357 337.76 77.1197C337.728 77.5037 337.728 77.9517 337.728 78.3517C337.728 79.1037 337.728 85.6317 337.728 86.2397C337.728 86.7517 337.744 87.9997 337.76 88.1757H336.368C336.384 87.9997 336.4 87.0877 336.4 86.4157C336.4 85.8237 336.4 78.3997 336.4 78.3997H327.664C327.664 78.3997 327.664 85.7597 327.664 86.4157C327.664 86.9437 327.68 87.9677 327.68 88.1757H326.32C326.32 87.9677 326.352 86.7997 326.352 86.2397C326.352 85.5837 326.352 78.9757 326.352 78.3517C326.352 77.9837 326.352 77.5037 326.336 77.1037ZM336.928 86.0157V87.2637H327.024V86.0157H336.928ZM352.24 75.1677C352.64 75.7437 353.216 76.7197 353.536 77.3597L352.672 77.7437C352.352 77.1037 351.808 76.1437 351.376 75.5357L352.24 75.1677ZM353.984 74.5277C354.416 75.1197 355.024 76.1117 355.328 76.7037L354.464 77.0877C354.112 76.3997 353.6 75.4877 353.152 74.8957L353.984 74.5277ZM346.128 81.1197C348.176 82.3037 350.816 84.1437 352.384 85.4397L351.456 86.5437C349.968 85.1997 347.248 83.2317 345.264 81.9997L346.128 81.1197ZM353.44 78.1917C353.312 78.4157 353.168 78.7997 353.072 79.0557C352.592 80.6877 351.584 82.7997 350.176 84.5437C348.736 86.3197 346.64 88.0317 343.6 89.1517L342.464 88.1597C345.44 87.2477 347.616 85.5517 349.056 83.8397C350.304 82.3677 351.312 80.3357 351.68 78.8477H345.744L346.256 77.7117H351.344C351.776 77.7117 352.128 77.6477 352.384 77.5517L353.44 78.1917ZM348.048 75.8877C347.776 76.3037 347.504 76.8477 347.344 77.1357C346.384 78.8957 344.576 81.3277 342.032 83.0877L340.96 82.2557C343.696 80.5437 345.344 78.1437 346.08 76.6877C346.24 76.3997 346.512 75.8237 346.608 75.4237L348.048 75.8877ZM369.936 78.0637C369.808 78.2877 369.648 78.6557 369.568 78.9117C369.136 80.5277 368.16 82.6877 366.736 84.4317C365.28 86.2077 363.36 87.6637 360.368 88.7837L359.2 87.7277C362.144 86.8637 364.128 85.4237 365.6 83.7117C366.832 82.2557 367.824 80.1757 368.144 78.7197H362.224L362.736 77.5677C363.376 77.5677 367.328 77.5677 367.824 77.5677C368.256 77.5677 368.624 77.5197 368.88 77.4237L369.936 78.0637ZM364.576 75.6477C364.32 76.0637 364.032 76.6077 363.872 76.8957C362.928 78.6717 361.264 80.9597 358.688 82.6557L357.568 81.8397C360.336 80.1917 361.904 77.8557 362.608 76.4317C362.768 76.1437 363.008 75.5677 363.104 75.1517L364.576 75.6477ZM377.376 86.6557C377.376 85.7597 377.376 78.6877 377.376 77.3597C377.376 76.8957 377.344 76.1917 377.264 75.6797H378.832C378.768 76.1757 378.72 76.8637 378.72 77.3597C378.72 79.8397 378.736 85.9037 378.736 86.6557C378.736 87.1677 378.768 88.0317 378.832 88.5597H377.28C377.36 88.0477 377.376 87.2477 377.376 86.6557ZM378.432 79.8877C380.544 80.4957 383.776 81.7277 385.552 82.5917L384.992 83.9517C383.168 82.9757 380.176 81.8397 378.432 81.2957V79.8877Z" fill="#1F2328"/>
<path d="M349.504 98.0637L351.746 98.0637L351.746 108.981L349.504 108.981L349.504 98.0637ZM344.254 98.0637L346.496 98.0637L346.496 108.981L344.254 108.981L344.254 98.0637Z" fill="#1F2328"/>
<path d="M274.786 130.085H283.906V131.973H274.786V130.085ZM275.442 122.357H283.522V124.197H275.442V122.357ZM278.498 117.557H280.466V130.997H278.498V117.557ZM269.042 120.357H274.29V122.101H269.042V120.357ZM271.33 125.829L273.234 123.557V132.437H271.33V125.829ZM271.33 117.413H273.234V121.173H271.33V117.413ZM273.042 124.101C273.602 124.485 275.41 126.085 275.842 126.485L274.674 128.037C274.05 127.205 272.706 125.733 271.986 125.029L273.042 124.101ZM273.586 120.357H273.97L274.306 120.293L275.378 120.997C274.162 124.117 271.746 126.917 269.362 128.421C269.186 127.909 268.738 126.965 268.45 126.597C270.626 125.413 272.738 123.061 273.586 120.709V120.357ZM291.218 124.517L292.674 123.461C294.098 124.741 296.034 126.565 296.978 127.765L295.378 128.997C294.53 127.797 292.658 125.877 291.218 124.517ZM291.266 117.397H293.234V121.237C293.234 123.893 292.562 127.173 288.914 129.349C288.642 128.933 287.986 128.229 287.538 127.893C290.994 126.117 291.266 123.317 291.266 121.221V117.397ZM285.65 120.053H297.81V121.941H287.57V132.453H285.65V120.053ZM296.962 120.053H298.866V130.229C298.866 131.269 298.642 131.797 297.986 132.117C297.314 132.421 296.29 132.437 294.866 132.437C294.802 131.909 294.498 131.029 294.242 130.533C295.186 130.581 296.258 130.581 296.562 130.581C296.866 130.565 296.962 130.469 296.962 130.197V120.053ZM313.09 119.253C313.09 119.765 313.506 120.181 314.018 120.181C314.53 120.181 314.946 119.765 314.946 119.253C314.946 118.741 314.53 118.325 314.018 118.325C313.506 118.325 313.09 118.741 313.09 119.253ZM312.098 119.253C312.098 118.197 312.962 117.333 314.018 117.333C315.074 117.333 315.938 118.197 315.938 119.253C315.938 120.309 315.074 121.173 314.018 121.173C312.962 121.173 312.098 120.309 312.098 119.253ZM314.05 120.517C313.89 120.821 313.778 121.285 313.698 121.621C313.33 123.189 312.626 125.685 311.282 127.461C309.842 129.381 307.714 130.965 304.85 131.877L303.106 129.957C306.29 129.221 308.098 127.829 309.378 126.213C310.45 124.885 311.058 123.061 311.266 121.685C310.29 121.685 305.01 121.685 303.81 121.685C303.074 121.685 302.322 121.733 301.906 121.765V119.493C302.386 119.557 303.282 119.637 303.81 119.637C305.01 119.637 310.322 119.637 311.218 119.637C311.538 119.637 312.05 119.621 312.466 119.509L314.05 120.517ZM319.81 118.709C320.242 118.773 320.93 118.805 321.474 118.805C322.482 118.805 326.69 118.805 327.618 118.805C328.13 118.805 328.914 118.773 329.346 118.709V120.789C328.93 120.757 328.178 120.725 327.586 120.725C326.706 120.725 322.418 120.725 321.474 120.725C320.946 120.725 320.274 120.741 319.81 120.789V118.709ZM330.706 123.365C330.594 123.573 330.45 123.861 330.402 124.021C329.906 125.573 329.218 127.141 328.034 128.453C326.418 130.261 324.37 131.333 322.322 131.925L320.722 130.117C323.138 129.605 325.042 128.565 326.274 127.301C327.122 126.437 327.634 125.429 327.906 124.549C327.106 124.549 321.618 124.549 320.194 124.549C319.794 124.549 318.994 124.565 318.322 124.613V122.533C319.01 122.597 319.682 122.645 320.194 122.645C321.282 122.645 327.01 122.645 328.098 122.645C328.626 122.645 329.058 122.581 329.282 122.469L330.706 123.365ZM340.306 121.493C340.61 122.165 341.394 124.261 341.618 124.997L339.714 125.653C339.506 124.885 338.802 122.949 338.418 122.117L340.306 121.493ZM346.21 122.645C346.034 123.173 345.938 123.509 345.842 123.829C345.426 125.445 344.738 127.109 343.65 128.501C342.162 130.437 340.178 131.765 338.306 132.485L336.626 130.773C338.37 130.293 340.61 129.077 341.922 127.413C343.01 126.069 343.794 123.941 343.97 121.925L346.21 122.645ZM336.594 122.325C336.994 123.141 337.778 125.093 338.082 125.989L336.13 126.709C335.874 125.861 335.058 123.717 334.674 123.029L336.594 122.325ZM353.25 129.461C353.25 128.229 353.25 121.605 353.25 120.261C353.25 119.685 353.202 118.901 353.09 118.325H355.586C355.522 118.901 355.442 119.589 355.442 120.261C355.442 122.021 355.458 128.277 355.458 129.461C355.458 129.909 355.522 131.029 355.602 131.685H353.09C353.202 131.061 353.25 130.085 353.25 129.461ZM354.978 122.469C357.106 123.061 360.562 124.325 362.13 125.093L361.234 127.317C359.41 126.373 356.722 125.349 354.978 124.773V122.469ZM378.466 120.341C378.306 120.645 378.194 121.109 378.114 121.445C377.746 123.013 377.042 125.493 375.698 127.285C374.258 129.189 372.13 130.789 369.266 131.701L367.522 129.781C370.706 129.045 372.498 127.653 373.794 126.037C374.866 124.693 375.458 122.885 375.682 121.509C374.706 121.509 369.426 121.509 368.226 121.509C367.49 121.509 366.738 121.557 366.322 121.573V119.317C366.802 119.381 367.698 119.445 368.226 119.445C369.426 119.445 374.738 119.445 375.634 119.445C375.938 119.445 376.45 119.429 376.882 119.333L378.466 120.341ZM391.01 121.029C390.946 121.429 390.93 121.941 390.93 122.373C390.994 124.469 391.09 128.325 391.122 130.869C391.138 131.701 390.498 132.277 389.554 132.277C388.786 132.277 387.794 132.245 387.074 132.197L386.962 130.373C387.602 130.453 388.37 130.501 388.786 130.501C389.09 130.501 389.218 130.341 389.218 130.005C389.218 128.213 389.154 124.469 389.058 122.373C389.058 121.973 389.01 121.477 388.93 121.029H391.01ZM383.298 123.237C383.682 123.301 384.322 123.333 384.754 123.333C385.65 123.333 392.21 123.333 392.834 123.333C393.25 123.333 393.874 123.285 394.146 123.237V125.189C393.778 125.173 393.266 125.157 392.93 125.157C392.434 125.157 385.49 125.157 384.802 125.157C384.338 125.157 383.746 125.189 383.298 125.221V123.237ZM382.61 129.461C385.186 128.277 387.73 126.117 388.594 124.549L389.634 124.565L389.666 126.117C388.834 127.621 386.242 129.877 384.002 131.045L382.61 129.461ZM397.698 123.573C398.29 123.621 399.442 123.685 400.274 123.685C402.162 123.685 407.442 123.685 408.866 123.685C409.618 123.685 410.322 123.605 410.754 123.573V126.101C410.37 126.085 409.554 126.005 408.882 126.005C407.426 126.005 402.162 126.005 400.274 126.005C399.378 126.005 398.306 126.053 397.698 126.101V123.573ZM420.622 118.917C420.414 119.397 420.19 119.989 419.95 120.709C419.358 122.501 417.694 127.653 417.006 129.317L414.654 129.397C415.518 127.349 417.182 122.101 417.71 120.245C417.934 119.445 418.014 118.933 418.078 118.405L420.622 118.917ZM423.486 124.085C424.638 125.813 426.27 128.965 427.006 130.741L424.846 131.701C424.126 129.765 422.638 126.453 421.502 124.917L423.486 124.085ZM414.494 128.677C416.718 128.597 421.95 128.005 424.19 127.701L424.654 129.749C422.286 130.053 416.782 130.629 414.622 130.853C414.222 130.901 413.614 130.981 413.118 131.045L412.734 128.693C413.278 128.709 413.982 128.693 414.494 128.677Z" fill="#1F2328"/>
<path d="M116 52L131 60.6603V43.3397L116 52ZM164 50.5L129.5 50.5V53.5L164 53.5V50.5Z" fill="#B3B3B3"/>
<path d="M256 52L304 52" stroke="#B3B3B3" stroke-width="3"/>
<path d="M183.272 46.192H193.464V47.28H183.272V46.192ZM183.48 49.904H193.336V58.928H192.184V50.976H184.6V59.024H183.48V49.904ZM186.28 46.352H187.416V50.672H186.28V46.352ZM189.256 46.352H190.408V50.672H189.256V46.352ZM183.992 56.912H193V57.968H183.992V56.912ZM186.376 50.64H187.416V57.712H186.376V50.64ZM189.256 50.64H190.296V57.712H189.256V50.64ZM182.312 44.608L183.4 44.96C182.408 47.6 180.872 50.256 179.224 52.032C179.112 51.76 178.776 51.152 178.552 50.864C180.056 49.344 181.464 46.992 182.312 44.608ZM180.728 48.768L181.848 47.648L181.864 47.664V59.28H180.728V48.768ZM199.704 46.208H209.336V47.264H199.704V46.208ZM200.04 57.408H209.432V58.48H200.04V57.408ZM204.232 44.576L205.432 44.64C205.32 46.112 205.112 47.984 204.92 49.12H203.784C203.96 47.952 204.152 46.016 204.232 44.576ZM203.192 51.712V53.04H207.288V51.712H203.192ZM203.192 53.92V55.248H207.288V53.92H203.192ZM203.192 49.536V50.848H207.288V49.536H203.192ZM202.056 48.624H208.44V56.176H202.056V48.624ZM199.512 49.424H200.648V59.264H199.512V49.424ZM198.312 44.624L199.448 44.976C198.392 47.696 196.744 50.4 195.016 52.192C194.888 51.92 194.552 51.28 194.328 51.008C195.912 49.456 197.416 47.056 198.312 44.624ZM196.648 48.752L197.768 47.616L197.8 47.632V59.264H196.648V48.752ZM217.56 48.128V49.408H222.904V48.128H217.56ZM217.56 46V47.28H222.904V46H217.56ZM216.456 45.088H224.056V50.336H216.456V45.088ZM215.72 51.488H224.936V52.496H215.72V51.488ZM219.656 51.984H220.776V58.528L219.656 58.064V51.984ZM217.512 54.928C218.328 57.584 220.088 57.984 222.312 57.984C222.712 57.984 224.872 57.984 225.432 57.968C225.272 58.224 225.112 58.736 225.08 59.04H222.264C219.592 59.04 217.752 58.464 216.776 55.2L217.512 54.928ZM220.424 54.368H224.136V55.36H220.424V54.368ZM216.776 53.248L217.864 53.376C217.544 56.016 216.712 58 215.272 59.28C215.08 59.088 214.616 58.736 214.376 58.56C215.8 57.424 216.52 55.616 216.776 53.248ZM210.36 53.072C211.608 52.736 213.464 52.16 215.256 51.584L215.432 52.688C213.768 53.232 212.024 53.808 210.664 54.24L210.36 53.072ZM210.536 47.792H215.416V48.912H210.536V47.792ZM212.52 44.576H213.64V57.792C213.64 58.448 213.496 58.768 213.096 58.96C212.728 59.152 212.104 59.184 211.096 59.184C211.048 58.896 210.904 58.4 210.744 58.064C211.448 58.08 212.056 58.08 212.248 58.08C212.456 58.08 212.52 58.016 212.52 57.776V44.576ZM230.024 44.608L231.16 44.96C230.12 47.664 228.472 50.384 226.744 52.176C226.616 51.904 226.28 51.264 226.056 50.992C227.624 49.44 229.128 47.04 230.024 44.608ZM228.328 48.752L229.496 47.584L229.512 47.6V59.264H228.328V48.752ZM231.08 47.984H240.904V49.136H231.08V47.984ZM230.68 53.088H241.096V54.272H230.68V53.088ZM233.144 44.736H234.328V53.728H233.144V44.736ZM237.448 44.72H238.616V53.744H237.448V44.72ZM233.48 55.168L234.616 55.52C233.832 56.912 232.616 58.336 231.544 59.248C231.32 59.04 230.856 58.656 230.584 58.496C231.688 57.664 232.792 56.4 233.48 55.168ZM237.112 55.744L238.056 55.2C239.16 56.256 240.344 57.68 240.92 58.656L239.912 59.296C239.368 58.304 238.184 56.816 237.112 55.744Z" fill="black" fill-opacity="0.8"/>
<path d="M148 16L116 16" stroke="#B3B3B3" stroke-width="3"/>
<path d="M304 16L289 7.33975L289 24.6603L304 16ZM272 17.5L290.5 17.5L290.5 14.5L272 14.5L272 17.5Z" fill="#B3B3B3"/>
<path d="M168.96 11.376C168.848 11.6 168.784 11.856 168.72 12.176C168.368 13.856 167.6 16.432 166.32 18.08C164.864 19.952 162.96 21.44 160.032 22.352L158.944 21.152C162.048 20.384 163.84 19.024 165.184 17.312C166.32 15.856 167.056 13.632 167.28 12.096C166.352 12.096 160.016 12.096 159.088 12.096C158.448 12.096 157.904 12.128 157.504 12.144V10.72C157.936 10.784 158.576 10.832 159.104 10.832C160.016 10.832 166.4 10.832 167.12 10.832C167.36 10.832 167.68 10.816 167.984 10.752L168.96 11.376ZM172.632 17.888C174.744 17.376 177.096 16.256 178.408 15.456C179.912 14.544 181.384 13.216 182.216 12.208L183.208 13.168C182.28 14.16 180.616 15.552 178.952 16.56C177.608 17.36 175.384 18.416 173.256 19.072L172.632 17.888ZM178.264 16.192L179.592 15.856V21.856C179.592 22.336 179.608 23.008 179.672 23.248H178.184C178.216 23.008 178.264 22.336 178.264 21.856V16.192ZM188.136 15.072C188.632 15.12 189.464 15.168 190.376 15.168C191.544 15.168 197.96 15.168 199.144 15.168C199.944 15.168 200.504 15.104 200.872 15.072V16.64C200.536 16.624 199.864 16.576 199.16 16.576C197.944 16.576 191.56 16.576 190.376 16.576C189.496 16.576 188.648 16.608 188.136 16.64V15.072ZM212.84 10.496C213.24 11.072 213.928 12.144 214.296 12.912L213.384 13.328C212.984 12.48 212.472 11.6 211.944 10.88L212.84 10.496ZM214.76 9.696C215.192 10.256 215.896 11.312 216.264 12.064L215.368 12.512C214.952 11.664 214.424 10.816 213.896 10.112L214.76 9.696ZM207.224 20.8C207.224 19.92 207.224 12.848 207.224 11.504C207.224 11.04 207.176 10.336 207.096 9.84H208.664C208.616 10.32 208.552 11.024 208.552 11.504C208.552 14 208.568 20.048 208.568 20.8C208.568 21.312 208.6 22.176 208.664 22.704H207.112C207.192 22.192 207.224 21.408 207.224 20.8ZM208.264 14.032C210.392 14.64 213.608 15.872 215.384 16.752L214.824 18.096C213 17.12 210.008 15.984 208.264 15.44V14.032ZM230.408 9.536C230.808 10.112 231.384 11.088 231.72 11.728L230.84 12.112C230.536 11.472 229.992 10.512 229.56 9.904L230.408 9.536ZM232.168 8.896C232.584 9.488 233.208 10.48 233.496 11.072L232.648 11.456C232.296 10.768 231.768 9.856 231.32 9.264L232.168 8.896ZM221.64 17.2C222.344 15.536 223 13.104 223.224 11.264L224.648 11.552C224.536 11.904 224.424 12.384 224.344 12.72C224.136 13.712 223.576 16.08 222.904 17.728C222.312 19.184 221.432 20.832 220.536 22.128L219.176 21.552C220.184 20.208 221.096 18.528 221.64 17.2ZM229.528 16.592C228.888 14.944 227.896 12.72 227.208 11.52L228.504 11.088C229.128 12.256 230.152 14.464 230.84 16.144C231.48 17.728 232.328 20.176 232.76 21.632L231.336 22.08C230.936 20.464 230.184 18.288 229.528 16.592ZM241.72 12.8C241.992 13.44 242.776 15.552 242.968 16.24L241.784 16.672C241.608 15.936 240.872 13.904 240.536 13.2L241.72 12.8ZM247.512 13.696C247.4 14.016 247.32 14.272 247.256 14.48C246.84 16.24 246.136 17.968 245 19.408C243.512 21.28 241.56 22.528 239.784 23.2L238.728 22.128C240.568 21.584 242.616 20.368 243.928 18.736C245.064 17.344 245.88 15.296 246.136 13.248L247.512 13.696ZM237.992 13.6C238.312 14.272 239.16 16.368 239.448 17.216L238.248 17.664C237.992 16.832 237.128 14.608 236.808 14.048L237.992 13.6ZM263.752 12C263.624 12.224 263.464 12.592 263.384 12.848C262.952 14.464 261.976 16.624 260.552 18.368C259.096 20.144 257.176 21.6 254.184 22.72L253.016 21.664C255.96 20.8 257.944 19.36 259.416 17.648C260.648 16.192 261.64 14.112 261.96 12.656H256.04L256.552 11.504C257.192 11.504 261.144 11.504 261.64 11.504C262.072 11.504 262.44 11.456 262.696 11.36L263.752 12ZM258.392 9.584C258.136 10 257.848 10.544 257.688 10.832C256.744 12.608 255.08 14.896 252.504 16.592L251.384 15.776C254.152 14.128 255.72 11.792 256.424 10.368C256.584 10.08 256.824 9.504 256.92 9.088L258.392 9.584Z" fill="black" fill-opacity="0.8"/>
<defs>
<clipPath id="clip0_51_1468">
<rect width="66.0638" height="66.0638" fill="white" transform="translate(46.9681)"/>
</clipPath>
<clipPath id="clip1_51_1468">
<rect width="66.0638" height="66.0638" fill="white" transform="translate(314.968)"/>
</clipPath>
</defs>
</svg>
