<svg width="800" height="225" viewBox="0 0 800 225" fill="none" xmlns="http://www.w3.org/2000/svg">
<path d="M296.023 132.364V109.091H305.205C306.97 109.091 308.473 109.428 309.716 110.102C310.958 110.769 311.905 111.697 312.557 112.886C313.216 114.068 313.545 115.432 313.545 116.977C313.545 118.523 313.212 119.886 312.545 121.068C311.879 122.25 310.913 123.171 309.648 123.83C308.39 124.489 306.867 124.818 305.08 124.818H299.227V120.875H304.284C305.231 120.875 306.011 120.712 306.625 120.386C307.246 120.053 307.708 119.595 308.011 119.011C308.322 118.421 308.477 117.743 308.477 116.977C308.477 116.205 308.322 115.53 308.011 114.955C307.708 114.371 307.246 113.921 306.625 113.602C306.004 113.277 305.216 113.114 304.261 113.114H300.943V132.364H296.023ZM316.133 109.091H322.202L328.611 124.727H328.883L335.293 109.091H341.361V132.364H336.588V117.216H336.395L330.372 132.25H327.122L321.099 117.159H320.906V132.364H316.133V109.091ZM344.807 109.091H350.875L357.284 124.727H357.557L363.966 109.091H370.034V132.364H365.261V117.216H365.068L359.045 132.25H355.795L349.773 117.159H349.579V132.364H344.807V109.091Z" fill="#1E1E1E"/>
<path d="M17.024 10.6998C16.928 11.4678 16.832 12.8118 16.8 13.5798C16.448 26.2838 13.44 32.7798 6.368 37.8038L2.624 34.7958C3.968 34.0598 5.568 33.0038 6.848 31.6918C11.04 27.5318 12.512 22.0918 12.544 13.6438C12.544 12.9398 12.416 11.4678 12.288 10.6998H17.024ZM27.872 17.5798C27.776 18.0918 27.68 18.8918 27.68 19.2438C27.552 22.7318 27.136 31.6598 25.76 34.9238C25.088 36.5238 23.84 37.3878 21.664 37.3878C19.808 37.3878 17.92 37.2278 16.352 37.0998L15.84 32.8438C17.44 33.0998 19.072 33.2918 20.352 33.2918C21.376 33.2918 21.824 32.9398 22.144 32.1398C23.072 30.1238 23.52 23.7238 23.52 20.2678H7.904C6.816 20.2678 5.024 20.2998 3.68 20.4278V16.2038C5.024 16.3638 6.656 16.4278 7.872 16.4278H22.688C23.52 16.4278 24.352 16.3638 25.12 16.2038L27.872 17.5798ZM58.048 14.6998C57.792 15.0518 57.216 16.0118 56.928 16.6838C55.616 19.7238 53.248 24.0758 50.496 27.2758C46.912 31.4038 42.08 35.3718 37.12 37.7078L33.792 34.2518C38.976 32.3318 43.904 28.4278 46.912 25.0998C49.024 22.6998 50.976 19.5318 51.712 17.2598C50.368 17.2598 42.208 17.2598 40.832 17.2598C39.52 17.2598 37.76 17.4198 37.056 17.4838V12.9078C37.92 13.0358 39.904 13.1318 40.832 13.1318C42.528 13.1318 50.72 13.1318 52.128 13.1318C53.536 13.1318 54.784 12.9718 55.456 12.7478L58.048 14.6998ZM50.912 24.6198C54.208 27.3078 58.752 32.0758 60.832 34.6358L57.184 37.8038C54.816 34.5078 51.328 30.6998 47.904 27.5958L50.912 24.6198ZM76.48 21.3878C80.416 23.6598 86.336 27.7558 89.312 30.1238L86.24 33.7718C83.456 31.1478 77.376 26.6678 73.632 24.2998L76.48 21.3878ZM91.552 15.9478C91.168 16.5558 90.752 17.4518 90.464 18.2518C89.504 21.1958 87.552 25.2918 84.672 28.8438C81.664 32.5878 77.568 36.1718 71.456 38.4758L67.744 35.2758C74.432 33.1958 78.24 29.8358 80.992 26.6358C83.136 24.1078 85.12 20.4278 85.728 17.9318H74.912L76.384 14.3158H85.504C86.496 14.3158 87.552 14.1558 88.288 13.9318L91.552 15.9478ZM80.96 11.0198C80.192 12.1398 79.36 13.6118 78.976 14.2838C76.832 18.1558 72.736 23.0518 68.128 26.2198L64.704 23.5638C70.304 20.1078 73.248 15.7238 74.88 12.9398C75.36 12.1718 76.032 10.6998 76.32 9.57977L80.96 11.0198ZM124.64 16.2038C124.192 16.7158 123.808 17.1638 123.552 17.5478C121.056 21.6758 116.32 27.4358 111.36 31.0838L108.16 28.1398C112.384 25.1958 115.968 20.8438 117.632 17.8998C114.816 17.8998 103.168 17.8998 100.736 17.8998C99.424 17.8998 97.696 18.0598 97.024 18.1558V13.6438C97.888 13.8038 99.616 13.9638 100.736 13.9638C102.752 13.9638 115.04 13.9638 118.464 13.9638C119.712 13.9638 120.768 13.8358 121.472 13.6118L124.64 16.2038ZM107.776 31.5638C105.888 29.6758 102.624 26.7638 100.736 25.4198L104.096 22.6678C105.824 23.9798 109.024 26.5718 111.456 28.9078C113.568 30.9558 116.096 33.6118 117.632 35.4678L113.856 38.4758C112.544 36.6838 109.856 33.6758 107.776 31.5638ZM128.48 21.5478C129.664 21.6438 131.968 21.7718 133.632 21.7718C137.408 21.7718 147.968 21.7718 150.816 21.7718C152.32 21.7718 153.728 21.6118 154.592 21.5478V26.6038C153.824 26.5718 152.192 26.4118 150.848 26.4118C147.936 26.4118 137.408 26.4118 133.632 26.4118C131.84 26.4118 129.696 26.5078 128.48 26.6038V21.5478ZM23.936 70.2518C23.936 78.1558 22.016 82.9878 14.272 86.4118L10.848 83.1798C17.056 81.0358 19.744 78.2518 19.744 70.3798V61.8678C19.744 60.5878 19.68 59.5318 19.552 58.9238H24.128C24.064 59.5638 23.936 60.5878 23.936 61.8678V70.2518ZM12.352 59.1798C12.288 59.7878 12.16 60.8118 12.16 62.0918V73.5158C12.16 74.9558 12.256 76.2678 12.32 76.8758H7.84C7.904 76.2678 8 74.9558 8 73.5158V62.0598C8 61.1638 7.936 60.1718 7.808 59.1798H12.352ZM1.824 64.9398C2.4 65.0358 3.712 65.2598 5.28 65.2598H26.272C27.968 65.2598 28.928 65.1638 29.824 65.0358V69.2918C29.12 69.1958 27.968 69.1958 26.304 69.1958H5.28C3.68 69.1958 2.56 69.2598 1.824 69.2918V64.9398ZM60.16 64.4918C59.808 65.0998 59.36 65.9638 59.104 66.7638C58.24 69.6438 56.416 73.8998 53.504 77.4518C50.464 81.1638 46.624 84.1078 40.608 86.4758L36.832 83.1158C43.36 81.1318 46.912 78.3478 49.728 75.1798C51.904 72.6838 53.76 68.8438 54.272 66.4758H43.488L44.96 62.8278C46.368 62.8278 53.088 62.8278 54.08 62.8278C55.072 62.8278 56.16 62.6998 56.864 62.4438L60.16 64.4918ZM49.728 59.4038C48.96 60.5238 48.128 61.9958 47.776 62.6678C45.6 66.5398 41.792 71.0518 37.184 74.1878L33.6 71.5318C39.2 68.1078 42.016 63.9798 43.584 61.2278C44.064 60.4598 44.736 58.9878 45.024 57.8678L49.728 59.4038ZM71.808 80.1078C71.808 77.4838 71.808 66.6678 71.808 62.7958C71.808 61.7078 71.712 60.0758 71.552 59.1158H76.32C76.16 60.0758 76.032 61.7078 76.032 62.7958C76.032 66.6358 76.032 75.4358 76.032 78.9878C76.032 81.0038 76.608 81.6758 80.096 81.6758C83.456 81.6758 87.04 81.2598 90.208 80.6198L90.048 84.9718C87.424 85.3558 83.584 85.6438 80.128 85.6438C72.864 85.6438 71.808 83.9158 71.808 80.1078ZM91.936 66.0598C91.648 66.5078 91.2 67.2438 90.912 67.7878C89.504 70.4758 86.592 74.8598 84.288 77.1318L80.768 75.0518C82.88 73.1638 84.96 70.2198 85.856 68.5558C83.904 68.9398 69.12 71.8838 65.056 72.7798L64.288 68.5878C68.64 68.0758 83.68 65.1318 86.592 64.4278C87.488 64.2038 88.288 63.9798 88.864 63.6598L91.936 66.0598ZM120.832 62.6998C120.576 63.0518 120 64.0118 119.712 64.6838C118.4 67.7238 116.032 72.0758 113.28 75.2758C109.696 79.4038 104.864 83.3718 99.904 85.7078L96.576 82.2518C101.76 80.3318 106.688 76.4278 109.696 73.0998C111.808 70.6998 113.76 67.5318 114.496 65.2598C113.152 65.2598 104.992 65.2598 103.616 65.2598C102.304 65.2598 100.544 65.4198 99.84 65.4838V60.9078C100.704 61.0358 102.688 61.1318 103.616 61.1318C105.312 61.1318 113.504 61.1318 114.912 61.1318C116.32 61.1318 117.568 60.9718 118.24 60.7478L120.832 62.6998ZM113.696 72.6198C116.992 75.3078 121.536 80.0758 123.616 82.6358L119.968 85.8038C117.6 82.5078 114.112 78.6998 110.688 75.5958L113.696 72.6198Z" fill="#1E1E1E"/>
<path d="M40.024 128.108C40.024 125.484 40.024 114.668 40.024 110.796C40.024 109.708 39.928 108.076 39.768 107.116H44.536C44.376 108.076 44.248 109.708 44.248 110.796C44.248 114.636 44.248 123.436 44.248 126.988C44.248 129.004 44.824 129.676 48.312 129.676C51.672 129.676 55.256 129.26 58.424 128.62L58.264 132.972C55.64 133.356 51.8 133.644 48.344 133.644C41.08 133.644 40.024 131.916 40.024 128.108ZM60.152 114.06C59.864 114.508 59.416 115.244 59.128 115.788C57.72 118.476 54.808 122.86 52.504 125.132L48.984 123.052C51.096 121.164 53.176 118.22 54.072 116.556C52.12 116.94 37.336 119.884 33.272 120.78L32.504 116.588C36.856 116.076 51.896 113.132 54.808 112.428C55.704 112.204 56.504 111.98 57.08 111.66L60.152 114.06ZM65.304 117.548C66.488 117.644 68.792 117.772 70.456 117.772C74.232 117.772 84.792 117.772 87.64 117.772C89.144 117.772 90.552 117.612 91.416 117.548V122.604C90.648 122.572 89.016 122.412 87.672 122.412C84.76 122.412 74.232 122.412 70.456 122.412C68.664 122.412 66.52 122.508 65.304 122.604V117.548ZM109.848 131.66C110.008 131.052 110.104 130.188 110.104 129.324C110.104 127.628 110.104 113.26 110.104 110.668C110.104 109.228 109.88 107.98 109.88 107.916H114.616C114.616 107.98 114.392 109.26 114.392 110.7C114.392 113.26 114.392 125.452 114.392 127.404C117.016 126.284 120.152 123.756 122.328 120.652L124.76 124.204C122.104 127.66 117.528 131.116 113.912 132.94C113.24 133.292 112.856 133.644 112.536 133.868L109.848 131.66ZM95.032 131.212C97.88 129.228 99.608 126.284 100.472 123.532C101.4 120.812 101.432 114.732 101.432 110.892C101.432 109.58 101.304 108.748 101.112 107.948H105.816C105.816 108.076 105.592 109.516 105.592 110.828C105.592 114.636 105.496 121.388 104.664 124.62C103.672 128.204 101.688 131.372 98.936 133.804L95.032 131.212ZM151.832 110.7C151.576 111.052 151 112.012 150.712 112.684C149.4 115.724 147.032 120.076 144.28 123.276C140.696 127.404 135.864 131.372 130.904 133.708L127.576 130.252C132.76 128.332 137.688 124.428 140.696 121.1C142.808 118.7 144.76 115.532 145.496 113.26C144.152 113.26 135.992 113.26 134.616 113.26C133.304 113.26 131.544 113.42 130.84 113.484V108.908C131.704 109.036 133.688 109.132 134.616 109.132C136.312 109.132 144.504 109.132 145.912 109.132C147.32 109.132 148.568 108.972 149.24 108.748L151.832 110.7ZM144.696 120.62C147.992 123.308 152.536 128.076 154.616 130.636L150.968 133.804C148.6 130.508 145.112 126.7 141.688 123.596L144.696 120.62Z" fill="#1E1E1E"/>
<path d="M103.888 198.028H124.656V201.676H103.888V198.028ZM105.488 189.804H123.12V193.452H105.488V189.804ZM112.144 185.196H116.144V200.684H112.144V185.196ZM103.888 210.092C108.176 209.932 114.928 209.548 121.232 209.196V212.652C115.248 213.164 108.912 213.644 104.4 213.964L103.888 210.092ZM116.144 205.676L119.472 203.916C121.84 206.764 124.432 210.54 125.424 213.26L121.776 215.276C120.912 212.652 118.48 208.62 116.144 205.676ZM109.68 200.588L113.936 201.708C112.528 205.42 110.704 209.516 109.232 212.172L105.808 211.084C107.248 208.268 108.848 203.884 109.68 200.588ZM96.72 188.14L98.832 185.324C100.912 186.092 103.632 187.468 104.976 188.588L102.736 191.724C101.488 190.572 98.832 189.036 96.72 188.14ZM94.896 196.876L96.88 193.964C98.96 194.668 101.712 195.916 103.12 196.972L100.976 200.172C99.696 199.116 97.008 197.676 94.896 196.876ZM95.792 212.332C97.392 209.932 99.696 205.932 101.456 202.252L104.368 204.684C102.8 208.076 100.912 211.724 99.12 214.828L95.792 212.332ZM127.088 186.636H137.584V189.868H127.088V186.636ZM139.888 203.116H152.912V206.316H139.888V203.116ZM126.64 196.428H138.544V199.788H126.64V196.428ZM131.856 197.804H135.504V211.116C135.504 212.844 135.216 213.868 134.096 214.476C133.008 215.052 131.568 215.116 129.552 215.116C129.456 214.092 128.944 212.492 128.464 211.468C129.648 211.532 130.96 211.532 131.344 211.532C131.728 211.5 131.856 211.404 131.856 211.052V197.804ZM151.664 203.116H155.536C155.536 203.116 155.504 204.076 155.44 204.588C154.896 210.124 154.352 212.62 153.424 213.612C152.72 214.38 152.016 214.636 151.088 214.764C150.288 214.86 148.944 214.892 147.472 214.828C147.408 213.772 147.024 212.268 146.448 211.308C147.6 211.404 148.656 211.436 149.168 211.436C149.648 211.436 149.936 211.404 150.224 211.084C150.8 210.54 151.28 208.524 151.664 203.628V203.116ZM144.88 200.268H148.688C148.176 206.828 146.832 212.268 139.248 215.276C138.832 214.348 137.84 213.004 137.04 212.3C143.664 209.868 144.432 205.484 144.88 200.268ZM127.824 193.324L130.224 190.86C132.816 191.788 136.336 193.452 138.16 194.732L135.568 197.484C133.936 196.204 130.48 194.38 127.824 193.324ZM137.616 196.428H138.128L138.64 196.268L140.944 197.036C140.432 199.948 139.6 203.244 138.736 205.42L136.176 204.204C136.752 202.348 137.328 199.372 137.616 196.972V196.428ZM150.448 189.996L154.448 190.604C152.272 196.556 147.504 199.628 141.232 201.42C140.784 200.556 139.6 198.988 138.832 198.22C144.72 197.036 148.976 194.572 150.448 189.996ZM144.048 185.164L147.632 186.156C146.032 189.612 143.44 192.94 141.04 195.02C140.304 194.412 138.8 193.356 137.904 192.876C140.4 191.052 142.768 188.14 144.048 185.164ZM144.496 190.828C146.704 194.476 151.184 197.132 156.784 198.188C155.952 198.956 154.864 200.46 154.352 201.452C148.432 199.948 143.984 196.62 141.296 191.852L144.496 190.828ZM131.504 197.58L133.968 198.54C132.752 202.796 130.608 207.628 127.888 210.092C127.536 209.004 126.704 207.404 126.096 206.38C128.432 204.396 130.512 200.78 131.504 197.58ZM143.952 188.428H155.92V191.596H142.416L143.952 188.428ZM136.656 186.636H137.488L138.064 186.508L140.528 188.044C139.088 190.38 136.56 192.94 134.256 194.54C133.584 193.964 132.496 193.164 131.76 192.716C133.744 191.308 135.792 188.94 136.656 187.308V186.636Z" fill="#1E1E1E"/>
<path d="M290 121.864C290.828 121.864 291.5 121.192 291.5 120.364C291.5 119.535 290.828 118.864 290 118.864V121.864ZM177 41.7035C177 40.8751 175.985 40.2893 175.268 40.7035L163.732 47.3638C163.015 47.778 163.015 48.9496 163.732 49.3638L175.268 56.024C175.985 56.4382 177 55.8525 177 55.024V41.7035ZM290 118.864H250V121.864H290V118.864ZM227.5 96.3638V72.3638H224.5V96.3638H227.5ZM202 46.8638H175.5V49.8638H202V46.8638ZM227.5 72.3638C227.5 58.2805 216.083 46.8638 202 46.8638V49.8638C214.426 49.8638 224.5 59.9374 224.5 72.3638H227.5ZM250 118.864C237.574 118.864 227.5 108.79 227.5 96.3638H224.5C224.5 110.447 235.917 121.864 250 121.864V118.864Z" fill="#252525"/>
<path d="M290 121.864C290.828 121.864 291.5 121.192 291.5 120.364C291.5 119.535 290.828 118.864 290 118.864V121.864ZM177 113.704C177 112.875 175.985 112.289 175.268 112.704L163.732 119.364C163.015 119.778 163.015 120.95 163.732 121.364L175.268 128.024C175.985 128.438 177 127.852 177 127.024V113.704ZM290 118.864H175.5V121.864H290V118.864Z" fill="#252525"/>
<path d="M290 121.864C290.828 121.864 291.5 121.192 291.5 120.364C291.5 119.535 290.828 118.864 290 118.864V121.864ZM177 193.704C177 192.875 175.985 192.289 175.268 192.704L163.732 199.364C163.015 199.778 163.015 200.95 163.732 201.364L175.268 208.024C175.985 208.438 177 207.852 177 207.024V193.704ZM290 118.864H250V121.864H290V118.864ZM224.5 144.364V176.364H227.5V144.364H224.5ZM202 198.864H175.5V201.864H202V198.864ZM224.5 176.364C224.5 188.79 214.426 198.864 202 198.864V201.864C216.083 201.864 227.5 190.447 227.5 176.364H224.5ZM250 118.864C235.917 118.864 224.5 130.281 224.5 144.364H227.5C227.5 131.937 237.574 121.864 250 121.864V118.864Z" fill="#252525"/>
<path d="M398.452 107.488C399.476 107.616 400.788 107.712 401.876 107.712C403.892 107.712 412.852 107.712 414.74 107.712C415.796 107.712 417.076 107.616 418.164 107.488V111.616C417.076 111.552 415.828 111.488 414.74 111.488C412.852 111.488 403.892 111.488 401.876 111.488C400.788 111.488 399.412 111.552 398.452 111.616V107.488ZM394.708 115.648C395.668 115.776 396.788 115.84 397.78 115.84C399.796 115.84 416.852 115.84 418.74 115.84C419.412 115.84 420.82 115.808 421.684 115.648V119.808C420.852 119.776 419.636 119.744 418.74 119.744C416.852 119.744 399.796 119.744 397.78 119.744C396.852 119.744 395.604 119.776 394.708 119.84V115.648ZM411.092 117.888C411.092 122.08 410.356 125.28 408.98 127.936C407.892 130.176 405.396 132.64 402.58 134.112L398.804 131.392C401.076 130.496 403.348 128.672 404.596 126.784C406.196 124.352 406.644 121.344 406.644 117.92L411.092 117.888ZM439.54 113.024C440.148 114.368 441.716 118.56 442.164 120.032L438.356 121.344C437.94 119.808 436.532 115.936 435.764 114.272L439.54 113.024ZM451.348 115.328C450.996 116.384 450.804 117.056 450.612 117.696C449.78 120.928 448.404 124.256 446.228 127.04C443.252 130.912 439.284 133.568 435.54 135.008L432.18 131.584C435.668 130.624 440.148 128.192 442.772 124.864C444.948 122.176 446.516 117.92 446.868 113.888L451.348 115.328ZM432.116 114.688C432.916 116.32 434.484 120.224 435.092 122.016L431.188 123.456C430.676 121.76 429.044 117.472 428.276 116.096L432.116 114.688ZM483.572 112.128C483.22 112.736 482.772 113.6 482.516 114.4C481.652 117.28 479.828 121.536 476.916 125.088C473.876 128.8 470.036 131.744 464.02 134.112L460.244 130.752C466.772 128.768 470.324 125.984 473.14 122.816C475.316 120.32 477.172 116.48 477.684 114.112H466.9L468.372 110.464C469.78 110.464 476.5 110.464 477.492 110.464C478.484 110.464 479.572 110.336 480.276 110.08L483.572 112.128ZM473.14 107.04C472.372 108.16 471.54 109.632 471.188 110.304C469.012 114.176 465.204 118.688 460.596 121.824L457.012 119.168C462.612 115.744 465.428 111.616 466.996 108.864C467.476 108.096 468.148 106.624 468.436 105.504L473.14 107.04ZM511.86 107.168C511.796 108.064 511.764 109.088 511.764 110.4C511.764 112.032 511.764 115.136 511.764 116.704C511.764 123.616 510.42 126.56 508.02 129.184C505.908 131.52 502.612 133.056 500.276 133.824L496.916 130.272C500.116 129.536 502.676 128.32 504.628 126.24C506.804 123.84 507.252 121.44 507.252 116.448C507.252 114.848 507.252 111.776 507.252 110.4C507.252 109.088 507.156 108.064 507.028 107.168H511.86ZM497.044 107.456C496.98 108.192 496.916 108.896 496.916 109.888C496.916 111.296 496.916 118.912 496.916 120.704C496.916 121.504 496.98 122.752 497.044 123.488H492.372C492.436 122.912 492.532 121.664 492.532 120.672C492.532 118.848 492.532 111.296 492.532 109.888C492.532 109.312 492.5 108.192 492.404 107.456H497.044ZM520.5 117.184C521.684 117.28 523.988 117.408 525.652 117.408C529.428 117.408 539.988 117.408 542.836 117.408C544.34 117.408 545.748 117.248 546.612 117.184V122.24C545.844 122.208 544.212 122.048 542.868 122.048C539.956 122.048 529.428 122.048 525.652 122.048C523.86 122.048 521.716 122.144 520.5 122.24V117.184ZM570.772 108.192C571.668 109.536 572.98 111.584 573.684 113.056L570.932 114.272C569.972 112.256 569.268 110.976 568.084 109.344L570.772 108.192ZM574.964 106.464C575.924 107.744 577.268 109.728 577.972 111.168L575.284 112.512C574.26 110.464 573.492 109.28 572.308 107.712L574.964 106.464ZM558.036 129.408C558.036 126.976 558.036 113.728 558.036 111.008C558.036 109.856 557.908 108.288 557.684 107.168H562.708C562.58 108.288 562.42 109.696 562.42 111.008C562.42 114.56 562.42 127.04 562.42 129.408C562.42 130.336 562.58 132.576 562.708 133.856H557.716C557.908 132.608 558.036 130.688 558.036 129.408ZM561.46 115.424C565.748 116.608 572.628 119.136 575.796 120.704L573.972 125.12C570.356 123.232 564.948 121.184 561.46 120.032V115.424Z" fill="#1E1E1E"/>
<path d="M650.224 45.072H665.744V48.112H650.224V45.072ZM649.744 50.544H666.256V53.68H649.744V50.544ZM659.344 46.032H662.704V60.304H659.344V46.032ZM653.104 46.16H656.368V52.304C656.368 54.352 655.504 58.576 652.144 60.88C651.632 60.208 650.48 59.184 649.68 58.672C652.4 57.008 653.104 53.904 653.104 52.272V46.16ZM646.416 36.432H654.48V38.928H646.416V36.432ZM661.264 36.432H669.36V38.928H661.264V36.432ZM667.856 32.048H671.632V56.432C671.632 58.352 671.28 59.44 670.128 60.08C668.944 60.72 667.28 60.816 664.816 60.784C664.72 59.76 664.208 57.968 663.696 56.976C665.104 57.04 666.704 57.04 667.184 57.04C667.696 57.04 667.856 56.848 667.856 56.368V32.048ZM646.768 32.048H656.912V43.44H646.768V40.688H653.296V34.8H646.768V32.048ZM669.808 32.048V34.8H662.64V40.752H669.808V43.504H658.992V32.048H669.808ZM644.496 32.048H648.272V60.88H644.496V32.048ZM680.72 41.68H698.128V45.296H680.72V41.68ZM677.264 32.048H686.32V35.376H677.264V32.048ZM676.56 48.944H702.064V52.464H676.56V48.944ZM684.976 32.048H685.648L686.32 31.92L688.88 33.104C686.704 39.632 681.904 44.208 676.432 46.8C675.92 45.936 674.864 44.624 674.096 43.92C678.864 41.936 683.312 37.584 684.976 32.72V32.048ZM683.44 43.504H687.248V49.04C687.248 53.584 686.096 58.352 678.192 61.008C677.712 60.144 676.528 58.64 675.728 57.968C682.544 55.824 683.44 52.272 683.44 48.976V43.504ZM692.88 30.864C694.928 36.368 699.12 41.136 704.752 43.376C703.856 44.144 702.672 45.68 702.064 46.704C696.112 43.888 691.952 38.512 689.456 31.856L692.88 30.864ZM676.272 37.872L678.704 35.856C679.92 36.72 681.584 37.968 682.416 38.832L679.888 41.04C679.12 40.208 677.52 38.832 676.272 37.872ZM697.36 31.344L700.24 33.36C698.576 34.896 696.624 36.496 695.12 37.488L692.816 35.728C694.256 34.608 696.24 32.72 697.36 31.344ZM701.168 34.992L703.984 36.976C702.256 38.544 700.144 40.208 698.512 41.296L696.208 39.536C697.776 38.384 699.92 36.432 701.168 34.992ZM691.216 43.664H695.216V55.92C695.216 57.104 695.344 57.264 696.24 57.264C696.624 57.264 698.224 57.264 698.672 57.264C699.536 57.264 699.696 56.656 699.824 53.648C700.624 54.256 702.192 54.896 703.248 55.12C702.896 59.376 701.872 60.688 699.056 60.688C698.352 60.688 696.24 60.688 695.536 60.688C692.048 60.688 691.216 59.536 691.216 55.92V43.664Z" fill="#1E1E1E"/>
<path d="M652.336 184.124V188.444H663.6V184.124H652.336ZM648.624 180.476H667.536V192.092H648.624V180.476ZM644.24 194.78H656.464V209.052H652.624V198.428H647.856V209.244H644.24V194.78ZM659.184 194.78H671.856V209.084H667.984V198.428H662.864V209.244H659.184V194.78ZM645.84 203.964H654.224V207.644H645.84V203.964ZM660.944 203.964H669.904V207.644H660.944V203.964ZM686.288 179.228L688.624 181.468C685.904 182.3 682.16 182.78 679.024 183.004C678.928 182.364 678.544 181.308 678.192 180.668C681.072 180.38 684.368 179.836 686.288 179.228ZM700.176 179.228L702.512 181.5C699.568 182.332 695.536 182.812 692.144 183.036C692.016 182.364 691.632 181.34 691.312 180.7C694.448 180.412 698.064 179.868 700.176 179.228ZM677.136 179.9L681.232 180.924C681.2 181.212 681.008 181.34 680.464 181.468V183.004C680.464 185.532 679.856 189.404 676.912 192.124C676.4 191.356 675.184 190.172 674.416 189.724C676.784 187.58 677.136 184.956 677.136 182.844V179.9ZM690.384 179.932L694.48 180.892C694.448 181.18 694.256 181.34 693.712 181.404V183.036C693.712 185.34 693.008 188.668 689.616 190.908C689.168 190.108 688.048 188.86 687.28 188.348C689.936 186.684 690.384 184.7 690.384 182.876V179.932ZM678.64 183.964H689.264V186.78H678.64V183.964ZM691.824 183.964H703.792V186.78H691.824V183.964ZM682.864 184.924H686.256V190.108H682.864V184.924ZM696.304 184.924H699.728V190.14H696.304V184.924ZM682.544 196.572V197.948H696.496V196.572H682.544ZM682.544 200.124V201.532H696.496V200.124H682.544ZM682.544 193.02V194.396H696.496V193.02H682.544ZM678.832 190.716H700.368V203.836H678.832V190.716ZM691.184 205.5L694.384 203.676C697.744 204.892 701.712 206.492 703.984 207.612L699.504 209.34C697.712 208.252 694.416 206.716 691.184 205.5ZM684.08 203.58L687.6 205.148C684.976 206.844 680.816 208.444 677.552 209.372C676.88 208.604 675.568 207.196 674.704 206.556C678.096 205.916 681.904 204.796 684.08 203.58ZM720.784 190.14C723.024 190.14 724.848 191.964 724.848 194.204C724.848 196.476 723.024 198.3 720.784 198.3C718.512 198.3 716.688 196.476 716.688 194.204C716.688 191.964 718.512 190.14 720.784 190.14ZM754.8 190.524H758.672V209.244H754.8V190.524ZM746.384 194.524H766.96V198.012H746.384V194.524ZM759.408 196.06C761.168 199.548 764.56 203.1 767.888 205.02C767.024 205.756 765.808 207.132 765.168 208.092C761.808 205.692 758.512 201.372 756.528 197.116L759.408 196.06ZM754.288 195.772L757.296 196.828C755.216 201.34 751.664 205.596 747.888 207.996C747.28 207.068 746.064 205.692 745.232 204.956C748.88 203.068 752.432 199.42 754.288 195.772ZM752.144 183.964V188.252H761.552V183.964H752.144ZM748.496 180.604H765.392V191.644H748.496V180.604ZM744.304 179.26L747.888 180.412C745.744 185.852 742.32 191.58 738.768 195.196C738.448 194.3 737.392 192.188 736.752 191.26C739.728 188.38 742.608 183.836 744.304 179.26ZM741.232 188.124L744.848 184.476L744.88 184.508V209.148H741.232V188.124ZM769.232 191.26H797.872V195.004H769.232V191.26ZM786.064 187.324H790V204.796C790 206.972 789.52 208.028 788.048 208.604C786.576 209.212 784.4 209.276 781.392 209.276C781.232 208.156 780.592 206.46 780.048 205.372C782.128 205.468 784.496 205.468 785.168 205.468C785.84 205.468 786.064 205.276 786.064 204.732V187.324ZM772.752 197.724L775.792 195.772C777.744 197.66 779.952 200.284 780.88 202.172L777.584 204.38C776.752 202.524 774.64 199.74 772.752 197.724ZM781.424 179.196H785.52V185.02H781.424V179.196ZM769.776 182.3H797.2V189.916H793.072V185.948H773.68V189.916H769.776V182.3Z" fill="#1E1E1E"/>
<path d="M585 118.5C584.172 118.5 583.5 119.172 583.5 120C583.5 120.828 584.172 121.5 585 121.5V118.5ZM623 52.6603C623 53.4887 624.015 54.0745 624.732 53.6603L636.268 47C636.985 46.5858 636.985 45.4142 636.268 45L624.732 38.3397C624.015 37.9255 623 38.5113 623 39.3397V52.6603ZM585 121.5H587.5V118.5H585V121.5ZM613 96V70H610V96H613ZM613 70C613 57.5736 623.074 47.5 635.5 47.5V44.5C621.417 44.5 610 55.9167 610 70H613ZM587.5 121.5C601.583 121.5 613 110.083 613 96H610C610 108.426 599.926 118.5 587.5 118.5V121.5Z" fill="#252525"/>
<path d="M585 118.5C584.172 118.5 583.5 119.172 583.5 120C583.5 120.828 584.172 121.5 585 121.5V118.5ZM623 201.024C623 201.852 624.015 202.438 624.732 202.024L636.268 195.364C636.985 194.95 636.985 193.778 636.268 193.364L624.732 186.704C624.015 186.289 623 186.875 623 187.704V201.024ZM585 121.5H587.5V118.5H585V121.5ZM610 144V170.364H613V144H610ZM610 170.364C610 184.447 621.417 195.864 635.5 195.864V192.864C623.074 192.864 613 182.79 613 170.364H610ZM587.5 121.5C599.926 121.5 610 131.574 610 144H613C613 129.917 601.583 118.5 587.5 118.5V121.5Z" fill="#252525"/>
</svg>
