<svg width="844" height="443" viewBox="0 0 844 443" fill="none" xmlns="http://www.w3.org/2000/svg">
<rect x="520" y="75" width="324" height="345" rx="6" fill="#BDE3FF"/>
<g clip-path="url(#clip0_45_1278)">
<path d="M570 346.167C573.049 346.167 576.03 347.071 578.565 348.765C581.1 350.459 583.076 352.867 584.243 355.684C585.41 358.501 585.715 361.601 585.12 364.591C584.526 367.582 583.057 370.329 580.901 372.485C578.745 374.641 575.998 376.109 573.008 376.704C570.017 377.299 566.917 376.993 564.1 375.827C561.283 374.66 558.876 372.684 557.182 370.148C555.488 367.613 554.583 364.633 554.583 361.583L554.599 360.914C554.771 356.945 556.469 353.196 559.339 350.448C562.208 347.701 566.027 346.167 570 346.167Z" fill="black"/>
<path d="M576.167 383.167C580.255 383.167 584.177 384.791 587.068 387.682C589.959 390.573 591.583 394.495 591.583 398.583V401.667C591.583 403.302 590.934 404.871 589.777 406.027C588.621 407.184 587.052 407.833 585.417 407.833H554.583C552.948 407.833 551.379 407.184 550.223 406.027C549.066 404.871 548.417 403.302 548.417 401.667V398.583C548.417 394.495 550.041 390.573 552.932 387.682C555.823 384.791 559.745 383.167 563.833 383.167H576.167Z" fill="black"/>
</g>
<rect x="530" y="239.428" width="80.5792" height="50.2857" rx="20.1143" fill="#2171C1"/>
<rect x="610.579" y="164" width="80.5792" height="50.2857" rx="20.1143" fill="#2171C1"/>
<rect x="632" y="310.545" width="80.5792" height="50.2857" rx="20.1143" fill="#2171C1"/>
<rect x="657" y="241.545" width="80.5792" height="50.2857" rx="20.1143" fill="#2171C1"/>
<rect x="755" y="220.545" width="80.5792" height="50.2857" rx="20.1143" fill="#2171C1"/>
<path d="M604.844 288.663L637.735 311.596" stroke="#2171C1" stroke-width="3" stroke-miterlimit="0" stroke-linecap="round" stroke-linejoin="bevel"/>
<path d="M614.579 265.31L653.001 265.95" stroke="#2171C1" stroke-width="3" stroke-miterlimit="0" stroke-linecap="round" stroke-linejoin="bevel"/>
<path d="M599.164 237.543L621.995 216.171" stroke="#2171C1" stroke-width="3" stroke-miterlimit="0" stroke-linecap="round" stroke-linejoin="bevel"/>
<path d="M686.817 295.592L682.762 306.785" stroke="#2171C1" stroke-width="3" stroke-miterlimit="0" stroke-linecap="round" stroke-linejoin="bevel"/>
<path d="M705.998 311.024L761.581 270.353" stroke="#2171C1" stroke-width="3" stroke-miterlimit="0" stroke-linecap="round" stroke-linejoin="bevel"/>
<path d="M741.177 257.284L751.402 255.093" stroke="#2171C1" stroke-width="3" stroke-miterlimit="0" stroke-linecap="round" stroke-linejoin="bevel"/>
<path d="M667.974 217.718L680.184 238.113" stroke="#2171C1" stroke-width="3" stroke-miterlimit="0" stroke-linecap="round" stroke-linejoin="bevel"/>
<path d="M692.358 205.387L753.8 229.444" stroke="#2171C1" stroke-width="3" stroke-miterlimit="0" stroke-linecap="round" stroke-linejoin="bevel"/>
<path d="M626 370.34C626 369.511 624.985 368.925 624.268 369.34L612.732 376C612.015 376.414 612.015 377.586 612.732 378L624.268 384.66C624.985 385.074 626 384.489 626 383.66V370.34ZM673.79 364.831C673.79 364.003 673.118 363.331 672.29 363.331C671.461 363.331 670.79 364.003 670.79 364.831H673.79ZM672.29 364.831H673.79H672.29ZM624.5 378.5H660.121V375.5H624.5V378.5ZM660.121 378.5C667.67 378.5 673.79 372.38 673.79 364.831H670.79C670.79 370.723 666.013 375.5 660.121 375.5V378.5Z" fill="#5FA0E1"/>
<path d="M626 370.34C626 369.511 624.985 368.925 624.268 369.34L612.732 376C612.015 376.414 612.015 377.586 612.732 378L624.268 384.66C624.985 385.074 626 384.489 626 383.66V370.34ZM796.79 274.831C796.79 274.003 796.118 273.331 795.29 273.331C794.461 273.331 793.79 274.003 793.79 274.831H796.79ZM624.5 378.5H771.29V375.5H624.5V378.5ZM796.79 353V274.831H793.79V353H796.79ZM771.29 378.5C785.373 378.5 796.79 367.083 796.79 353H793.79C793.79 365.426 783.716 375.5 771.29 375.5V378.5Z" fill="#5FA0E1"/>
<g clip-path="url(#clip1_45_1278)">
<path d="M795 98.7122C798.049 98.7122 801.03 99.6163 803.565 101.31C806.1 103.004 808.076 105.412 809.243 108.229C810.41 111.046 810.715 114.146 810.12 117.136C809.526 120.127 808.057 122.874 805.901 125.03C803.745 127.186 800.998 128.654 798.008 129.249C795.017 129.844 791.917 129.539 789.1 128.372C786.283 127.205 783.876 125.229 782.182 122.694C780.488 120.159 779.583 117.178 779.583 114.129L779.599 113.46C779.771 109.491 781.469 105.741 784.339 102.994C787.208 100.246 791.027 98.7124 795 98.7122Z" fill="black"/>
<path d="M801.167 135.712C805.255 135.712 809.177 137.336 812.068 140.228C814.959 143.119 816.583 147.04 816.583 151.129V154.212C816.583 155.848 815.934 157.416 814.777 158.573C813.621 159.729 812.052 160.379 810.417 160.379H779.583C777.948 160.379 776.379 159.729 775.223 158.573C774.066 157.416 773.417 155.848 773.417 154.212V151.129C773.417 147.04 775.041 143.119 777.932 140.228C780.823 137.336 784.745 135.712 788.833 135.712H801.167Z" fill="black"/>
</g>
<path d="M739 136.206C739 137.034 740.015 137.62 740.732 137.206L752.268 130.545C752.985 130.131 752.985 128.96 752.268 128.545L740.732 121.885C740.015 121.471 739 122.057 739 122.885V136.206ZM649.369 160C649.369 160.828 650.04 161.5 650.869 161.5C651.697 161.5 652.369 160.828 652.369 160H649.369ZM740.5 128.045H674.869V131.045H740.5V128.045ZM649.369 153.545V160H652.369V153.545H649.369ZM674.869 128.045C660.785 128.045 649.369 139.462 649.369 153.545H652.369C652.369 141.119 662.442 131.045 674.869 131.045V128.045Z" fill="#5FA0E1"/>
<path d="M739 136.206C739 137.034 740.015 137.62 740.732 137.206L752.268 130.545C752.985 130.131 752.985 128.96 752.268 128.545L740.732 121.885C740.015 121.471 739 122.057 739 122.885V136.206ZM695.79 237.545C695.79 238.374 696.461 239.045 697.29 239.045C698.118 239.045 698.79 238.374 698.79 237.545H695.79ZM740.5 128.045H721.29V131.045H740.5V128.045ZM695.79 153.545V237.545H698.79V153.545H695.79ZM721.29 128.045C707.206 128.045 695.79 139.462 695.79 153.545H698.79C698.79 141.119 708.863 131.045 721.29 131.045V128.045Z" fill="#5FA0E1"/>
<path d="M801.95 185.545C802.778 185.545 803.364 184.531 802.95 183.813L796.29 172.277C795.875 171.56 794.704 171.56 794.29 172.277L787.629 183.813C787.215 184.531 787.801 185.545 788.629 185.545H801.95ZM793.79 216.545C793.79 217.374 794.461 218.045 795.29 218.045C796.118 218.045 796.79 217.374 796.79 216.545H793.79ZM793.79 184.045V216.545H796.79V184.045H793.79Z" fill="#5FA0E1"/>
<g clip-path="url(#clip2_45_1278)">
<path d="M570 96.1667C573.049 96.1667 576.03 97.0709 578.565 98.7649C581.1 100.459 583.076 102.867 584.243 105.684C585.41 108.501 585.715 111.601 585.12 114.591C584.526 117.582 583.057 120.329 580.901 122.485C578.745 124.641 575.998 126.109 573.008 126.704C570.017 127.299 566.917 126.993 564.1 125.827C561.283 124.66 558.876 122.684 557.182 120.148C555.488 117.613 554.583 114.633 554.583 111.583L554.599 110.914C554.771 106.945 556.469 103.196 559.339 100.448C562.208 97.7008 566.027 96.167 570 96.1667Z" fill="black"/>
<path d="M576.167 133.167C580.255 133.167 584.177 134.791 587.068 137.682C589.959 140.573 591.583 144.495 591.583 148.583V151.667C591.583 153.302 590.934 154.871 589.777 156.027C588.621 157.184 587.052 157.833 585.417 157.833H554.583C552.948 157.833 551.379 157.184 550.223 156.027C549.066 154.871 548.417 153.302 548.417 151.667V148.583C548.417 144.495 550.041 140.573 552.932 137.682C555.823 134.791 559.745 133.167 563.833 133.167H576.167Z" fill="black"/>
</g>
<path d="M576.66 183C577.489 183 578.074 181.985 577.66 181.268L571 169.732C570.586 169.015 569.414 169.015 569 169.732L562.34 181.268C561.926 181.985 562.511 183 563.34 183H576.66ZM568.5 235.429C568.5 236.257 569.172 236.929 570 236.929C570.828 236.929 571.5 236.257 571.5 235.429H568.5ZM568.5 181.5V235.429H571.5V181.5H568.5Z" fill="#5FA0E1"/>
<path d="M576.66 183C577.489 183 578.074 181.985 577.66 181.268L571 169.732C570.586 169.015 569.414 169.015 569 169.732L562.34 181.268C561.926 181.985 562.511 183 563.34 183H576.66ZM606.579 190.643C607.408 190.643 608.079 189.971 608.079 189.143C608.079 188.314 607.408 187.643 606.579 187.643V190.643ZM570 168H571.5H570ZM591.143 190.643H606.579V187.643H591.143V190.643ZM568.5 168C568.5 180.505 578.638 190.643 591.143 190.643V187.643C580.294 187.643 571.5 178.848 571.5 168H568.5Z" fill="#5FA0E1"/>
<path d="M563.629 321C562.801 321 562.215 322.015 562.629 322.732L569.29 334.268C569.704 334.985 570.875 334.985 571.29 334.268L577.95 322.732C578.364 322.015 577.778 321 576.95 321H563.629ZM571.79 293.714C571.79 292.886 571.118 292.214 570.29 292.214C569.461 292.214 568.79 292.886 568.79 293.714H571.79ZM571.79 322.5V293.714H568.79V322.5H571.79Z" fill="#5FA0E1"/>
<rect x="201" y="75" width="243" height="240" rx="6" fill="#F4F4F4"/>
<rect x="214" y="151" width="80.5792" height="50.2857" rx="20.1143" fill="#B3B3B3"/>
<rect x="351" y="151" width="80.5792" height="50.2857" rx="20.1143" fill="#B3B3B3"/>
<rect y="74.7273" width="128" height="240.273" rx="6" fill="#F4F4F4"/>
<g clip-path="url(#clip3_45_1278)">
<path d="M64 225.167C67.0492 225.167 70.0298 226.071 72.5651 227.765C75.1003 229.459 77.0763 231.867 78.2432 234.684C79.41 237.501 79.7153 240.601 79.1205 243.591C78.5256 246.582 77.0573 249.329 74.9013 251.485C72.7452 253.641 69.9982 255.109 67.0077 255.704C64.0171 256.299 60.9174 255.993 58.1003 254.827C55.2833 253.66 52.8756 251.684 51.1816 249.148C49.4875 246.613 48.5834 243.633 48.5834 240.583L48.5988 239.914C48.7712 235.945 50.4692 232.196 53.3386 229.448C56.208 226.701 60.0273 225.167 64 225.167Z" fill="black"/>
<path d="M70.1666 262.167C74.2554 262.167 78.1767 263.791 81.0679 266.682C83.959 269.573 85.5833 273.495 85.5833 277.583V280.667C85.5833 282.302 84.9336 283.871 83.7771 285.027C82.6206 286.184 81.0521 286.833 79.4166 286.833H48.5833C46.9478 286.833 45.3793 286.184 44.2228 285.027C43.0663 283.871 42.4166 282.302 42.4166 280.667V277.583C42.4166 273.495 44.0409 269.573 46.9321 266.682C49.8232 263.791 53.7445 262.167 57.8333 262.167H70.1666Z" fill="black"/>
</g>
<rect x="24" y="97" width="80.5792" height="50.2857" rx="20.1143" fill="#B3B3B3"/>
<path d="M57.6293 200C56.8009 200 56.2151 201.015 56.6293 201.732L63.2896 213.268C63.7038 213.985 64.8753 213.985 65.2896 213.268L71.9498 201.732C72.364 201.015 71.7782 200 70.9498 200H57.6293ZM65.7896 151.286C65.7896 150.457 65.118 149.786 64.2896 149.786C63.4611 149.786 62.7896 150.457 62.7896 151.286H65.7896ZM65.7896 201.5V151.286H62.7896V201.5H65.7896Z" fill="#5FA0E1"/>
<path d="M10.44 12.168H13.416V29.16H10.44V12.168ZM6.072 16.992V18.624H18V16.992H6.072ZM6.072 13.152V14.784H18V13.152H6.072ZM3.264 10.824H20.952V20.976H3.264V10.824ZM1.128 22.536H22.896V25.2H1.128V22.536ZM3.288 7.848L5.76 6.744C6.648 7.728 7.704 9.144 8.184 10.104L5.544 11.376C5.136 10.416 4.152 8.928 3.288 7.848ZM9.168 7.512L11.76 6.528C12.552 7.632 13.488 9.12 13.872 10.128L11.136 11.208C10.824 10.224 9.96 8.664 9.168 7.512ZM18.096 6.624L21.312 7.56C20.28 9.144 19.152 10.776 18.288 11.832L15.72 10.968C16.584 9.768 17.568 7.968 18.096 6.624ZM24.456 16.08H46.68V19.224H24.456V16.08ZM66.36 9.408C66.36 10.176 66.984 10.8 67.752 10.8C68.52 10.8 69.144 10.176 69.144 9.408C69.144 8.64 68.52 8.016 67.752 8.016C66.984 8.016 66.36 8.64 66.36 9.408ZM64.872 9.408C64.872 7.824 66.168 6.528 67.752 6.528C69.336 6.528 70.632 7.824 70.632 9.408C70.632 10.992 69.336 12.288 67.752 12.288C66.168 12.288 64.872 10.992 64.872 9.408ZM67.8 11.304C67.56 11.76 67.392 12.456 67.272 12.96C66.72 15.312 65.664 19.056 63.648 21.72C61.488 24.6 58.296 26.976 54 28.344L51.384 25.464C56.16 24.36 58.872 22.272 60.792 19.848C62.4 17.856 63.312 15.12 63.624 13.056C62.16 13.056 54.24 13.056 52.44 13.056C51.336 13.056 50.208 13.128 49.584 13.176V9.768C50.304 9.864 51.648 9.984 52.44 9.984C54.24 9.984 62.208 9.984 63.552 9.984C64.032 9.984 64.8 9.96 65.424 9.792L67.8 11.304ZM73.656 9.984C74.616 10.008 75.528 10.032 76.176 10.032C77.928 10.032 87.672 10.032 89.4 10.032C90 10.032 90.888 10.032 91.776 10.008C91.728 10.728 91.728 11.592 91.728 12.336C91.728 13.8 91.728 22.632 91.728 24.096C91.728 25.032 91.752 27.336 91.776 27.432H88.44C88.44 27.336 88.512 25.464 88.512 24.144C88.512 22.752 88.512 13.104 88.512 13.104H76.896C76.896 13.104 76.896 22.728 76.896 24.144C76.896 25.296 76.92 27.312 76.92 27.432H73.632C73.632 27.312 73.68 25.2 73.68 24.048C73.68 22.608 73.68 13.728 73.68 12.336C73.68 11.64 73.68 10.68 73.656 9.984ZM89.688 23.064V26.112H75.264V23.064H89.688ZM112.872 7.296C113.472 8.184 114.312 9.696 114.768 10.584L112.848 11.4C112.344 10.44 111.6 9 110.952 8.088L112.872 7.296ZM115.704 6.216C116.328 7.104 117.216 8.64 117.648 9.48L115.728 10.296C115.224 9.288 114.456 7.896 113.808 6.984L115.704 6.216ZM103.872 16.344C106.824 18.048 111.288 21.12 113.496 22.896L111.216 25.608C109.104 23.64 104.568 20.304 101.76 18.528L103.872 16.344ZM115.176 12.264C114.912 12.72 114.6 13.392 114.384 13.992C113.64 16.2 112.176 19.272 110.04 21.936C107.784 24.744 104.688 27.432 100.104 29.16L97.32 26.76C102.336 25.2 105.216 22.68 107.256 20.28C108.888 18.36 110.376 15.624 110.832 13.752H102.696L103.824 11.04H110.64C111.384 11.04 112.2 10.92 112.728 10.752L115.176 12.264ZM107.232 8.568C106.656 9.408 106.056 10.512 105.768 11.016C104.136 13.92 101.064 17.592 97.632 19.968L95.04 17.976C99.24 15.384 101.472 12.072 102.672 10.008C103.032 9.408 103.56 8.304 103.776 7.488L107.232 8.568ZM139.296 12.096C139.032 12.552 138.696 13.2 138.504 13.8C137.856 15.96 136.488 19.152 134.304 21.816C132.024 24.6 129.144 26.808 124.632 28.584L121.8 26.064C126.696 24.576 129.36 22.488 131.472 20.112C133.104 18.24 134.496 15.36 134.88 13.584H126.792L127.896 10.848C128.952 10.848 133.992 10.848 134.736 10.848C135.48 10.848 136.296 10.752 136.824 10.56L139.296 12.096ZM131.472 8.28C130.896 9.12 130.272 10.224 130.008 10.728C128.376 13.632 125.52 17.016 122.064 19.368L119.376 17.376C123.576 14.808 125.688 11.712 126.864 9.648C127.224 9.072 127.728 7.968 127.944 7.128L131.472 8.28ZM148.776 24.72C148.776 22.872 148.776 12.936 148.776 10.92C148.776 10.056 148.704 8.88 148.536 8.016H152.28C152.184 8.88 152.064 9.912 152.064 10.92C152.064 13.56 152.088 22.944 152.088 24.72C152.088 25.392 152.184 27.072 152.304 28.056H148.536C148.704 27.12 148.776 25.656 148.776 24.72ZM151.368 14.232C154.56 15.12 159.744 17.016 162.096 18.168L160.752 21.504C158.016 20.088 153.984 18.552 151.368 17.688V14.232ZM1.27841 51V39.3636H5.42614C6.33144 39.3636 7.08144 39.5284 7.67614 39.858C8.27083 40.1875 8.71591 40.6383 9.01136 41.2102C9.30682 41.7784 9.45455 42.4186 9.45455 43.1307C9.45455 43.8466 9.30492 44.4905 9.00568 45.0625C8.71023 45.6307 8.26326 46.0814 7.66477 46.4148C7.07008 46.7443 6.32197 46.9091 5.42045 46.9091H2.56818V45.4205H5.26136C5.83333 45.4205 6.29735 45.322 6.65341 45.125C7.00947 44.9242 7.27083 44.6515 7.4375 44.3068C7.60417 43.9621 7.6875 43.5701 7.6875 43.1307C7.6875 42.6913 7.60417 42.3011 7.4375 41.9602C7.27083 41.6193 7.00758 41.3523 6.64773 41.1591C6.29167 40.9659 5.82197 40.8693 5.23864 40.8693H3.03409V51H1.27841ZM11.3368 39.3636H13.4675L17.172 48.4091H17.3084L21.0129 39.3636H23.1436V51H21.4731V42.5795H21.3652L17.9334 50.983H16.547L13.1152 42.5739H13.0072V51H11.3368V39.3636ZM25.5202 51V39.3636H32.7361V40.875H27.2758V44.4205H32.219V45.9261H27.2758V51H25.5202ZM40.7208 40.2C42.4648 40.504 45.7128 40.44 47.2968 40.2V41.496C45.5848 41.688 42.4808 41.688 40.7368 41.496L40.7208 40.2ZM41.3448 46.728C41.2008 47.304 41.1208 47.752 41.1208 48.184C41.1208 48.92 41.6328 49.64 43.8248 49.64C45.2488 49.64 46.4968 49.512 47.7768 49.208L47.8088 50.552C46.8168 50.76 45.4728 50.888 43.8088 50.888C41.1368 50.888 39.9368 49.992 39.9368 48.488C39.9368 47.96 40.0168 47.384 40.1928 46.616L41.3448 46.728ZM37.6808 38.968C37.5848 39.24 37.4568 39.752 37.3928 40.04C37.0888 41.528 36.5928 44.376 36.5928 46.184C36.5928 46.952 36.6408 47.624 36.7368 48.408C37.0088 47.688 37.3768 46.728 37.6488 46.072L38.3208 46.6C37.9208 47.736 37.3288 49.416 37.1848 50.184C37.1368 50.408 37.1048 50.712 37.1048 50.904C37.1208 51.064 37.1368 51.288 37.1528 51.464L36.0168 51.544C35.6968 50.408 35.4248 48.568 35.4248 46.392C35.4248 44.04 35.9528 41.304 36.1448 39.976C36.1928 39.608 36.2408 39.208 36.2568 38.856L37.6808 38.968ZM50.8328 40.328H63.0088V41.512H52.0168V52.28H50.8328V40.328ZM62.5608 40.328H63.7608V50.696C63.7608 51.48 63.5848 51.88 63.0248 52.072C62.4488 52.264 61.4408 52.296 59.9848 52.296C59.9208 51.944 59.7448 51.384 59.5528 51.048C60.7208 51.096 61.8248 51.096 62.1608 51.08C62.4808 51.064 62.5608 50.984 62.5608 50.68V40.328ZM56.2728 37.528L57.7608 37.784C57.2648 38.92 56.6568 40.216 56.1768 41.064L55.0248 40.792C55.4728 39.896 56.0008 38.504 56.2728 37.528ZM54.1288 43.624H55.2328V50.072H54.1288V43.624ZM54.6408 43.624H60.4008V48.92H54.6408V47.848H59.2808V44.712H54.6408V43.624ZM77.2648 38.536C77.2168 38.792 77.2008 39.112 77.2008 39.48C77.1848 40.072 77.2488 42.776 77.2488 43.672C77.2488 47.336 77.2488 49.96 73.8568 51.944L72.6888 51.048C73.1848 50.84 73.8408 50.44 74.2408 50.04C75.9528 48.552 76.0328 46.728 76.0328 43.656C76.0328 42.632 75.9688 40.152 75.9208 39.48C75.8888 39.128 75.8248 38.776 75.7608 38.536H77.2648ZM71.4088 41.848C72.1128 41.96 73.1208 42.024 74.0008 42.024C75.9688 42.024 78.2408 41.896 79.8408 41.528V42.824C78.2888 43.08 76.0488 43.224 74.0168 43.224C73.2328 43.224 72.1128 43.176 71.4088 43.112V41.848ZM69.1688 38.776C69.0728 39.064 68.9608 39.512 68.8968 39.816C68.3848 42.136 67.8248 45.64 68.4488 48.264C68.6568 47.576 69.0088 46.6 69.2968 45.816L69.9848 46.232C69.6008 47.336 69.1208 48.968 68.9448 49.768C68.8968 49.992 68.8648 50.296 68.8808 50.488C68.8808 50.648 68.9128 50.856 68.9288 51.032L67.8248 51.16C67.5048 50.168 66.9928 48.088 66.9928 46.088C66.9928 43.48 67.4088 41.032 67.6008 39.688C67.6488 39.336 67.6648 38.904 67.6808 38.616L69.1688 38.776ZM81.7288 41H86.8488V42.136H81.7288V41ZM84.0008 37.56H85.1048V52.264H84.0008V37.56ZM83.9688 41.704L84.7208 41.96C84.2248 44.504 83.1528 47.656 82.0168 49.256C81.8728 48.936 81.5848 48.488 81.3928 48.216C82.4488 46.776 83.5208 43.992 83.9688 41.704ZM85.0248 43.24C85.4088 43.672 86.7688 45.64 87.0728 46.104L86.4008 47.048C86.0328 46.264 84.9288 44.376 84.5128 43.752L85.0248 43.24ZM88.4328 41.352H94.5288V42.376H88.4328V41.352ZM91.4408 38.648C90.5288 40.008 88.8328 41.512 87.0888 42.456C86.9608 42.152 86.6888 41.72 86.4808 41.464C88.2728 40.616 89.9848 39.048 90.8488 37.592H91.9528C93.0888 39.192 94.8808 40.632 96.5608 41.368C96.3368 41.64 96.0808 42.088 95.9208 42.408C94.2888 41.56 92.4648 40.072 91.4408 38.648ZM88.4488 44.808V47H94.4648V44.808H88.4488ZM87.3928 43.848H95.5688V47.992H87.3928V43.848ZM90.8648 41.96H91.9688V46.2C91.9688 48.504 91.2328 50.952 86.9448 52.36C86.8488 52.104 86.4968 51.656 86.2888 51.464C90.3528 50.168 90.8648 48.168 90.8648 46.168V41.96ZM92.1288 47.368C93.0568 49.768 94.4168 50.664 96.4648 51.352C96.1928 51.608 95.8888 52.008 95.7608 52.36C93.5368 51.512 92.0808 50.376 91.1048 47.592L92.1288 47.368ZM103.697 38.536H111.889V39.688H103.697V38.536ZM103.169 50.6H112.145V51.736H103.169V50.6ZM108.097 44.104H111.793V45.256H108.097V44.104ZM107.425 38.984H108.609V51.24H107.425V38.984ZM104.369 42.552H105.505V51.112H104.369V42.552ZM98.0967 42.504H102.609V43.448H98.0967V42.504ZM98.1927 38.136H102.593V39.096H98.1927V38.136ZM98.0967 44.68H102.609V45.64H98.0967V44.68ZM97.3447 40.28H103.169V41.272H97.3447V40.28ZM98.6727 46.872H102.673V51.544H98.6727V50.552H101.617V47.88H98.6727V46.872ZM98.0807 46.872H99.1207V52.28H98.0807V46.872ZM122.593 38.328C122.561 38.52 122.513 39.144 122.513 39.336C122.465 40.376 122.497 43.464 122.513 44.744L121.297 44.12C121.297 43.416 121.281 40.232 121.233 39.352C121.201 38.92 121.153 38.472 121.121 38.328H122.593ZM114.081 40.568C116.257 40.536 120.257 40.392 122.721 40.392C124.673 40.392 126.657 40.392 127.409 40.408L127.393 41.592C126.497 41.544 125.057 41.512 122.705 41.512C119.953 41.512 116.529 41.624 114.113 41.8L114.081 40.568ZM122.481 45.208C122.481 47.352 121.489 48.424 120.033 48.424C118.689 48.424 117.393 47.48 117.393 45.736C117.393 44.152 118.705 42.968 120.225 42.968C122.081 42.968 123.025 44.344 123.025 46.184C123.025 48.36 121.969 50.76 118.257 51.864L117.185 50.824C120.097 50.136 121.793 48.712 121.793 46.072C121.793 44.632 121.089 44.024 120.225 44.024C119.377 44.024 118.593 44.68 118.593 45.72C118.593 46.728 119.345 47.304 120.225 47.304C121.217 47.304 121.857 46.472 121.601 44.76L122.481 45.208ZM132.193 39.224C132.545 39.256 132.993 39.272 133.313 39.272C134.161 39.272 137.953 39.16 138.801 39.08C139.281 39.032 139.505 39 139.681 38.936L140.417 39.88C140.129 40.072 139.809 40.28 139.505 40.52C138.721 41.128 136.545 43 135.297 44.024C136.033 43.784 136.801 43.704 137.521 43.704C140.177 43.704 142.081 45.288 142.081 47.448C142.081 50.024 139.953 51.704 136.561 51.704C134.385 51.704 133.057 50.76 133.057 49.416C133.057 48.328 134.049 47.336 135.521 47.336C137.649 47.336 138.721 48.84 138.833 50.456L137.681 50.648C137.585 49.288 136.801 48.312 135.521 48.312C134.785 48.312 134.225 48.76 134.225 49.32C134.225 50.104 135.105 50.568 136.369 50.568C139.089 50.568 140.801 49.448 140.801 47.448C140.801 45.864 139.297 44.696 137.201 44.696C134.545 44.696 133.105 45.816 131.089 47.88L130.161 46.952C131.489 45.864 133.553 44.136 134.465 43.352C135.361 42.616 137.377 40.936 138.177 40.216C137.329 40.264 134.129 40.392 133.297 40.44C132.929 40.472 132.577 40.488 132.225 40.536L132.193 39.224Z" fill="#1F2328"/>
<path d="M223.848 11.88C223.512 12.264 223.224 12.6 223.032 12.888C221.16 15.984 217.608 20.304 213.888 23.04L211.488 20.832C214.656 18.624 217.344 15.36 218.592 13.152C216.48 13.152 207.744 13.152 205.92 13.152C204.936 13.152 203.64 13.272 203.136 13.344V9.96C203.784 10.08 205.08 10.2 205.92 10.2C207.432 10.2 216.648 10.2 219.216 10.2C220.152 10.2 220.944 10.104 221.472 9.936L223.848 11.88ZM211.2 23.4C209.784 21.984 207.336 19.8 205.92 18.792L208.44 16.728C209.736 17.712 212.136 19.656 213.96 21.408C215.544 22.944 217.44 24.936 218.592 26.328L215.76 28.584C214.776 27.24 212.76 24.984 211.2 23.4ZM236.592 26.472C236.712 26.016 236.784 25.368 236.784 24.72C236.784 23.448 236.784 12.672 236.784 10.728C236.784 9.648 236.616 8.712 236.616 8.664H240.168C240.168 8.712 240 9.672 240 10.752C240 12.672 240 21.816 240 23.28C241.968 22.44 244.32 20.544 245.952 18.216L247.776 20.88C245.784 23.472 242.352 26.064 239.64 27.432C239.136 27.696 238.848 27.96 238.608 28.128L236.592 26.472ZM225.48 26.136C227.616 24.648 228.912 22.44 229.56 20.376C230.256 18.336 230.28 13.776 230.28 10.896C230.28 9.912 230.184 9.288 230.04 8.688H233.568C233.568 8.784 233.4 9.864 233.4 10.848C233.4 13.704 233.328 18.768 232.704 21.192C231.96 23.88 230.472 26.256 228.408 28.08L225.48 26.136ZM251.736 9.768C253.584 9.816 257.28 9.792 259.92 9.408C262.344 9.048 264.768 8.52 265.968 7.944L267.96 10.584C267.144 10.8 266.496 10.968 266.112 11.064C264.624 11.448 262.704 11.76 260.856 12.024C258.12 12.408 254.592 12.504 252.504 12.552L251.736 9.768ZM252.768 26.328C257.016 24.384 258.912 21.216 258.912 16.728C258.912 16.728 258.912 15.168 258.912 11.76L262.056 11.4C262.056 13.464 262.056 16.656 262.056 16.656C262.056 21.504 260.472 25.608 255.84 28.392L252.768 26.328ZM249.936 15.528C250.608 15.576 251.4 15.648 252.168 15.648C253.68 15.648 266.52 15.648 268.128 15.648C268.632 15.648 269.76 15.576 270.288 15.528V18.624C269.64 18.576 268.848 18.528 268.176 18.528C266.664 18.528 253.608 18.528 252.192 18.528C251.448 18.528 250.56 18.576 249.936 18.624V15.528ZM290.904 9.408C290.904 10.176 291.528 10.8 292.296 10.8C293.064 10.8 293.688 10.176 293.688 9.408C293.688 8.64 293.064 8.016 292.296 8.016C291.528 8.016 290.904 8.64 290.904 9.408ZM289.416 9.408C289.416 7.824 290.712 6.528 292.296 6.528C293.88 6.528 295.176 7.824 295.176 9.408C295.176 10.992 293.88 12.288 292.296 12.288C290.712 12.288 289.416 10.992 289.416 9.408ZM292.344 11.304C292.104 11.76 291.936 12.456 291.816 12.96C291.264 15.312 290.208 19.056 288.192 21.72C286.032 24.6 282.84 26.976 278.544 28.344L275.928 25.464C280.704 24.36 283.416 22.272 285.336 19.848C286.944 17.856 287.856 15.12 288.168 13.056C286.704 13.056 278.784 13.056 276.984 13.056C275.88 13.056 274.752 13.128 274.128 13.176V9.768C274.848 9.864 276.192 9.984 276.984 9.984C278.784 9.984 286.752 9.984 288.096 9.984C288.576 9.984 289.344 9.96 289.968 9.792L292.344 11.304ZM298.2 9.984C299.16 10.008 300.072 10.032 300.72 10.032C302.472 10.032 312.216 10.032 313.944 10.032C314.544 10.032 315.432 10.032 316.32 10.008C316.272 10.728 316.272 11.592 316.272 12.336C316.272 13.8 316.272 22.632 316.272 24.096C316.272 25.032 316.296 27.336 316.32 27.432H312.984C312.984 27.336 313.056 25.464 313.056 24.144C313.056 22.752 313.056 13.104 313.056 13.104H301.44C301.44 13.104 301.44 22.728 301.44 24.144C301.44 25.296 301.464 27.312 301.464 27.432H298.176C298.176 27.312 298.224 25.2 298.224 24.048C298.224 22.608 298.224 13.728 298.224 12.336C298.224 11.64 298.224 10.68 298.2 9.984ZM314.232 23.064V26.112H299.808V23.064H314.232ZM337.416 7.296C338.016 8.184 338.856 9.696 339.312 10.584L337.392 11.4C336.888 10.44 336.144 9 335.496 8.088L337.416 7.296ZM340.248 6.216C340.872 7.104 341.76 8.64 342.192 9.48L340.272 10.296C339.768 9.288 339 7.896 338.352 6.984L340.248 6.216ZM328.416 16.344C331.368 18.048 335.832 21.12 338.04 22.896L335.76 25.608C333.648 23.64 329.112 20.304 326.304 18.528L328.416 16.344ZM339.72 12.264C339.456 12.72 339.144 13.392 338.928 13.992C338.184 16.2 336.72 19.272 334.584 21.936C332.328 24.744 329.232 27.432 324.648 29.16L321.864 26.76C326.88 25.2 329.76 22.68 331.8 20.28C333.432 18.36 334.92 15.624 335.376 13.752H327.24L328.368 11.04H335.184C335.928 11.04 336.744 10.92 337.272 10.752L339.72 12.264ZM331.776 8.568C331.2 9.408 330.6 10.512 330.312 11.016C328.68 13.92 325.608 17.592 322.176 19.968L319.584 17.976C323.784 15.384 326.016 12.072 327.216 10.008C327.576 9.408 328.104 8.304 328.32 7.488L331.776 8.568ZM363.84 12.096C363.576 12.552 363.24 13.2 363.048 13.8C362.4 15.96 361.032 19.152 358.848 21.816C356.568 24.6 353.688 26.808 349.176 28.584L346.344 26.064C351.24 24.576 353.904 22.488 356.016 20.112C357.648 18.24 359.04 15.36 359.424 13.584H351.336L352.44 10.848C353.496 10.848 358.536 10.848 359.28 10.848C360.024 10.848 360.84 10.752 361.368 10.56L363.84 12.096ZM356.016 8.28C355.44 9.12 354.816 10.224 354.552 10.728C352.92 13.632 350.064 17.016 346.608 19.368L343.92 17.376C348.12 14.808 350.232 11.712 351.408 9.648C351.768 9.072 352.272 7.968 352.488 7.128L356.016 8.28ZM373.32 24.72C373.32 22.872 373.32 12.936 373.32 10.92C373.32 10.056 373.248 8.88 373.08 8.016H376.824C376.728 8.88 376.608 9.912 376.608 10.92C376.608 13.56 376.632 22.944 376.632 24.72C376.632 25.392 376.728 27.072 376.848 28.056H373.08C373.248 27.12 373.32 25.656 373.32 24.72ZM375.912 14.232C379.104 15.12 384.288 17.016 386.64 18.168L385.296 21.504C382.56 20.088 378.528 18.552 375.912 17.688V14.232ZM204.68 47.016H209.112V47.752H204.68V47.016ZM204.68 48.744H209.112V49.496H204.68V48.744ZM204.664 50.504H209.384V51.352H204.664V50.504ZM206.456 45.64H207.304V51.032H206.456V45.64ZM205.096 45.208H209.16V46.04H205.096V52.104H204.184V46.024L204.904 45.208H205.096ZM206.984 43.816L207.928 44.104C207.608 44.744 207.304 45.448 207.016 45.928L206.296 45.656C206.536 45.144 206.84 44.328 206.984 43.816ZM204.808 43.768L205.72 43.992C205.272 45.416 204.552 46.856 203.752 47.8C203.608 47.64 203.272 47.304 203.064 47.16C203.816 46.296 204.44 45.048 204.808 43.768ZM201.928 38.328H208.984V39.352H201.928V38.328ZM202.92 40.44H208.904V43.752H202.92V42.872H207.832V41.336H202.92V40.44ZM202.408 40.44H203.464V44.568C203.464 46.728 203.304 49.912 202.344 52.088C202.152 51.896 201.704 51.56 201.464 51.448C202.328 49.4 202.408 46.584 202.408 44.568V40.44ZM209.592 38.328H216.184V39.368H209.592V38.328ZM211.064 44.248V45.8H214.792V44.248H211.064ZM211.064 46.696V48.264H214.792V46.696H211.064ZM211.064 41.8V43.32H214.792V41.8H211.064ZM210.056 40.856H215.848V49.208H210.056V40.856ZM212.248 38.84L213.512 38.984C213.288 39.896 213.08 40.888 212.904 41.56L211.912 41.368C212.056 40.648 212.2 39.56 212.248 38.84ZM211.544 49.624L212.568 50.2C211.848 50.984 210.696 51.832 209.736 52.312C209.56 52.104 209.192 51.784 208.952 51.576C209.912 51.112 211.016 50.296 211.544 49.624ZM213.528 50.216L214.408 49.672C215.144 50.248 216.072 51.112 216.552 51.704L215.624 52.312C215.192 51.736 214.28 50.84 213.528 50.216ZM222.84 40.392L224.136 40.648C223.032 42.2 221.416 43.72 219.064 44.888C218.888 44.6 218.52 44.2 218.248 44.024C220.472 43.032 222.024 41.64 222.84 40.392ZM222.664 41.592H228.232V42.552H221.8L222.664 41.592ZM227.896 41.592H228.12L228.344 41.544L229.144 42.04C227 45.4 222.28 47.432 217.976 48.344C217.864 48.04 217.608 47.56 217.384 47.288C221.496 46.536 226.072 44.6 227.896 41.784V41.592ZM222.2 42.344C224.072 44.744 227.944 46.296 232.232 46.84C231.96 47.112 231.64 47.624 231.464 47.976C227.16 47.304 223.288 45.592 221.144 42.824L222.2 42.344ZM220.408 47.352H229.304V52.248H228.072V48.376H221.592V52.264H220.408V47.352ZM221 50.712H228.68V51.736H221V50.712ZM224.168 37.576H225.4V39.656H224.168V37.576ZM218.04 39.016H231.576V42.04H230.36V40.12H219.224V42.04H218.04V39.016ZM241.656 40.088C241.448 41.752 241.128 43.624 240.632 45.336C239.656 48.616 238.376 50.312 236.904 50.312C235.464 50.312 234.04 48.68 234.04 46.024C234.04 42.552 237.128 39.528 241.048 39.528C244.792 39.528 247.176 42.168 247.176 45.416C247.176 48.76 244.968 51 241.16 51.496L240.424 50.312C240.936 50.264 241.416 50.2 241.8 50.12C243.848 49.656 245.864 48.12 245.864 45.352C245.864 42.792 244.088 40.68 241.016 40.68C237.496 40.68 235.304 43.576 235.304 45.928C235.304 47.944 236.216 48.84 236.936 48.84C237.688 48.84 238.552 47.752 239.368 45.048C239.832 43.528 240.168 41.72 240.328 40.056L241.656 40.088ZM254.968 45.816H263.608V46.904H254.968V45.816ZM260.232 46.44C261.064 47.992 262.632 49.704 264.008 50.536C263.736 50.76 263.352 51.16 263.16 51.464C261.8 50.44 260.232 48.52 259.352 46.776L260.232 46.44ZM256.648 41.832V43.496H261.992V41.832H256.648ZM256.648 39.224V40.856H261.992V39.224H256.648ZM255.56 38.232H263.128V44.488H255.56V38.232ZM258.408 46.36L259.32 46.696C258.44 48.648 256.824 50.584 255.24 51.56C255.064 51.288 254.696 50.872 254.44 50.648C255.992 49.816 257.592 48.072 258.408 46.36ZM258.76 38.744H259.816V44.008H259.88V52.28H258.712V44.008H258.76V38.744ZM249.8 42.408H254.344V43.368H249.8V42.408ZM249.864 38.136H254.28V39.096H249.864V38.136ZM249.8 44.552H254.344V45.512H249.8V44.552ZM249.08 40.232H254.76V41.224H249.08V40.232ZM250.328 46.712H254.344V51.384H250.328V50.376H253.304V47.704H250.328V46.712ZM249.784 46.712H250.808V52.12H249.784V46.712ZM267.048 41.16V42.376H270.168V41.16H267.048ZM267.048 39.112V40.312H270.168V39.112H267.048ZM265.976 38.248H271.288V43.272H265.976V38.248ZM265.016 44.456H272.232V45.384H265.016V44.456ZM272.136 38.36H279.432V39.256H272.136V38.36ZM268.216 44.744H269.24V50.84L268.216 50.2V44.744ZM268.76 47.112H271.96V48.024H268.76V47.112ZM275.304 38.584L276.44 38.808C276.136 39.624 275.816 40.536 275.528 41.128L274.632 40.92C274.888 40.264 275.16 39.272 275.304 38.584ZM273.848 43.432V44.632H277.672V43.432H273.848ZM273.848 45.464V46.696H277.672V45.464H273.848ZM273.848 41.384V42.568H277.672V41.384H273.848ZM272.76 40.504H278.792V47.576H272.76V40.504ZM274.088 47.864L275.112 48.168C274.408 49.064 273.24 49.976 272.248 50.52C272.072 50.344 271.672 49.96 271.448 49.784C272.44 49.32 273.48 48.6 274.088 47.864ZM266.136 46.264H267.144C267.048 48.568 266.728 50.968 265.592 52.328C265.432 52.088 265.08 51.736 264.824 51.56C265.8 50.392 266.056 48.232 266.136 46.264ZM266.888 47.832C268.024 50.584 270.52 50.936 274.12 50.936C274.84 50.936 278.808 50.936 279.752 50.904C279.576 51.16 279.384 51.624 279.32 51.944H274.12C270.04 51.944 267.464 51.416 266.136 48.104L266.888 47.832ZM276.328 48.296L277.144 47.832C278.072 48.392 279.128 49.288 279.656 49.896L278.776 50.456C278.264 49.816 277.192 48.888 276.328 48.296ZM287.48 38.36C287.336 38.984 287.16 39.864 286.744 40.936C286.344 41.912 285.752 42.984 285.112 43.816C285.736 43.448 286.648 43.224 287.352 43.224C288.584 43.224 289.544 43.96 289.544 45.256C289.544 46.088 289.576 47.928 289.592 48.92H288.36C288.424 48.072 288.44 46.424 288.424 45.592C288.408 44.664 287.768 44.232 286.936 44.232C285.912 44.232 284.904 44.744 284.168 45.4C283.704 45.848 283.256 46.424 282.728 47.08L281.624 46.264C283.928 44.056 285 42.2 285.544 40.84C285.896 39.96 286.12 39 286.168 38.248L287.48 38.36ZM281.992 40.088C282.856 40.2 283.96 40.248 284.696 40.248C286.856 40.248 289.624 40.12 291.88 39.72V40.904C289.64 41.24 286.664 41.384 284.632 41.384C283.944 41.384 282.888 41.352 281.992 41.288V40.088ZM294.216 43.944C293.816 44.072 293.24 44.296 292.808 44.456C291.672 44.904 290.152 45.512 288.6 46.312C287.016 47.144 285.896 48.008 285.896 49.112C285.896 50.36 287.128 50.552 288.776 50.552C290.024 50.552 291.752 50.408 293.16 50.152L293.112 51.448C291.896 51.592 290.12 51.72 288.728 51.72C286.456 51.72 284.616 51.224 284.616 49.288C284.616 47.336 286.6 46.136 288.504 45.16C290.024 44.376 291.32 43.88 292.376 43.384C292.856 43.16 293.256 42.984 293.704 42.76L294.216 43.944ZM299.96 41.096L300.76 40.392C301.96 40.952 303.432 41.848 304.152 42.52L303.304 43.304C302.616 42.632 301.16 41.688 299.96 41.096ZM307.352 38.92H307.592L307.8 38.856L308.584 39.336C306.504 43.064 301.768 45.304 297.544 46.232C297.432 45.928 297.192 45.432 296.968 45.176C301 44.424 305.608 42.264 307.352 39.112V38.92ZM302.008 38.92H307.656V39.928H302.008V38.92ZM303.192 37.544L304.536 37.832C303.064 39.528 300.888 41.112 297.912 42.296C297.736 42.008 297.368 41.608 297.096 41.4C299.976 40.392 302.088 38.888 303.192 37.544ZM302.008 46.968L302.888 46.28C304.152 46.936 305.688 47.944 306.456 48.712L305.512 49.48C304.792 48.728 303.272 47.656 302.008 46.968ZM309.688 44.52H309.928L310.152 44.456L310.936 44.888C308.92 49.56 303.928 51.56 298.696 52.328C298.616 51.992 298.376 51.496 298.184 51.224C303.128 50.632 307.96 48.728 309.688 44.696V44.52ZM304.488 44.52H310.008V45.544H304.488V44.52ZM305.784 43.016L307.112 43.32C305.496 45.208 302.968 46.952 299.464 48.184C299.32 47.912 298.968 47.48 298.712 47.256C302.104 46.2 304.536 44.536 305.784 43.016ZM317.448 44.68H321.832V45.672H317.448V44.68ZM317.448 47.464H321.88V48.456H317.448V47.464ZM314.152 50.328H325.448V51.448H314.152V50.328ZM313.416 41.784H326.104V52.296H324.888V42.904H314.584V52.296H313.416V41.784ZM316.888 42.488H317.976V50.84H316.888V42.488ZM321.368 42.488H322.472V50.792H321.368V42.488ZM318.968 39.16L320.36 39.48C320.024 40.552 319.688 41.784 319.368 42.584L318.28 42.28C318.536 41.416 318.856 40.088 318.968 39.16ZM312.696 38.632H326.872V39.784H312.696V38.632ZM329.688 40.136H334.552V50.6H329.688V49.512H333.432V41.208H329.688V40.136ZM328.968 40.136H330.088V51.88H328.968V40.136ZM329.608 44.584H334.024V45.656H329.608V44.584ZM331.416 37.528L332.712 37.768C332.392 38.76 331.992 39.864 331.672 40.584L330.712 40.344C330.984 39.576 331.288 38.36 331.416 37.528ZM336.824 40.088H341.736V41.208H336.824V40.088ZM341.32 40.088H342.44C342.44 40.088 342.44 40.536 342.44 40.712C342.184 48.056 341.96 50.536 341.32 51.32C340.968 51.784 340.6 51.928 340.04 51.976C339.496 52.04 338.552 52.008 337.656 51.96C337.624 51.608 337.48 51.112 337.256 50.792C338.296 50.872 339.256 50.888 339.624 50.888C339.944 50.888 340.136 50.84 340.312 50.632C340.84 50.056 341.096 47.4 341.32 40.344V40.088ZM337.16 37.496L338.312 37.768C337.72 40.152 336.776 42.504 335.672 44.024C335.464 43.832 334.968 43.496 334.68 43.336C335.768 41.928 336.648 39.72 337.16 37.496ZM336.424 44.248L337.352 43.704C338.264 44.84 339.368 46.392 339.88 47.336L338.856 47.976C338.376 47 337.304 45.416 336.424 44.248ZM350.696 40.2C352.44 40.504 355.688 40.44 357.272 40.2V41.496C355.56 41.688 352.456 41.688 350.712 41.496L350.696 40.2ZM351.32 46.728C351.176 47.304 351.096 47.752 351.096 48.184C351.096 48.92 351.608 49.64 353.8 49.64C355.224 49.64 356.472 49.512 357.752 49.208L357.784 50.552C356.792 50.76 355.448 50.888 353.784 50.888C351.112 50.888 349.912 49.992 349.912 48.488C349.912 47.96 349.992 47.384 350.168 46.616L351.32 46.728ZM347.656 38.968C347.56 39.24 347.432 39.752 347.368 40.04C347.064 41.528 346.568 44.376 346.568 46.184C346.568 46.952 346.616 47.624 346.712 48.408C346.984 47.688 347.352 46.728 347.624 46.072L348.296 46.6C347.896 47.736 347.304 49.416 347.16 50.184C347.112 50.408 347.08 50.712 347.08 50.904C347.096 51.064 347.112 51.288 347.128 51.464L345.992 51.544C345.672 50.408 345.4 48.568 345.4 46.392C345.4 44.04 345.928 41.304 346.12 39.976C346.168 39.608 346.216 39.208 346.232 38.856L347.656 38.968ZM361.448 41.624H366.072V42.568H361.448V41.624ZM361.448 44.344H366.072V45.256H361.448V44.344ZM361.448 47.128H366.072V48.072H361.448V47.128ZM368.264 45.144H374.36V46.184H368.264V45.144ZM362.28 39H364.936V39.944H362.28V39ZM367.24 38.376H373.496V39.4H367.24V38.376ZM367.048 48.136H374.632V49.208H367.048V48.136ZM370.424 43.496H371.576V52.216H370.424V43.496ZM363.432 42.088H364.296V47.528H363.432V42.088ZM373.112 38.376H374.2C374.2 38.376 374.2 38.68 374.184 38.824C374.072 41.496 373.912 42.536 373.576 42.904C373.352 43.176 373.112 43.272 372.696 43.304C372.376 43.336 371.704 43.336 371.032 43.304C371.016 42.984 370.904 42.568 370.76 42.296C371.4 42.36 371.976 42.36 372.2 42.36C372.424 42.376 372.568 42.344 372.664 42.216C372.872 41.976 373 41.048 373.112 38.536V38.376ZM368.328 43.64L369.368 43.848C369.048 45.336 368.488 46.792 367.816 47.752C367.608 47.608 367.128 47.368 366.872 47.24C367.56 46.344 368.056 45 368.328 43.64ZM362.248 37.56L363.352 37.8C362.76 39.96 361.784 42.024 360.648 43.384C360.456 43.192 359.992 42.824 359.736 42.664C360.872 41.432 361.768 39.528 362.248 37.56ZM360.984 41.624H361.976V45.88C361.976 47.832 361.784 50.536 360.648 52.312C360.472 52.152 360.024 51.88 359.784 51.768C360.872 50.072 360.984 47.688 360.984 45.88V41.624ZM365.752 41.624H366.76V50.968C366.76 51.56 366.632 51.896 366.216 52.072C365.816 52.248 365.16 52.264 364.056 52.264C364.008 51.992 363.832 51.528 363.688 51.24C364.504 51.272 365.224 51.272 365.448 51.256C365.656 51.24 365.752 51.176 365.752 50.968V41.624ZM369.512 38.712H370.616C370.344 40.92 369.656 42.744 367.416 43.752C367.272 43.496 366.984 43.112 366.744 42.936C368.712 42.104 369.288 40.52 369.512 38.712ZM364.648 39H364.888L365.048 38.936L365.752 39.4C365.416 40.392 364.808 41.576 364.328 42.328C364.136 42.168 363.784 41.96 363.56 41.864C363.96 41.144 364.408 39.992 364.648 39.192V39ZM380.856 40.136H389.096V45.448H387.912V41.272H380.856V40.136ZM379.96 44.888H390.424V46.04H379.96V44.888ZM384.008 37.592H385.208V43.064C385.208 46.536 384.712 50.008 380.184 52.312C379.976 52.072 379.528 51.656 379.224 51.464C383.56 49.32 384.008 46.216 384.008 43.048V37.592ZM385.784 45.432C386.504 48.216 388.072 50.344 390.552 51.288C390.28 51.528 389.896 51.992 389.72 52.328C387.112 51.176 385.512 48.872 384.68 45.704L385.784 45.432ZM376.504 38.568L377.176 37.704C378.184 38.136 379.448 38.856 380.056 39.416L379.368 40.392C378.76 39.816 377.528 39.048 376.504 38.568ZM375.656 42.92L376.312 42.024C377.336 42.408 378.632 43.096 379.272 43.624L378.584 44.616C377.96 44.072 376.696 43.352 375.656 42.92ZM376.104 51.288C376.904 50.056 378.024 47.928 378.856 46.104L379.784 46.84C379.016 48.536 378.008 50.552 377.144 52.056L376.104 51.288Z" fill="#1F2328"/>
<path d="M523.312 10.248C523.936 10.344 524.944 10.416 525.592 10.416H538.672C539.392 10.416 540.232 10.344 540.904 10.248V13.56C540.208 13.488 539.368 13.44 538.672 13.44H525.592C524.944 13.44 523.936 13.488 523.312 13.56V10.248ZM530.248 25.032V12.096H533.584V25.032H530.248ZM521.776 23.064C522.544 23.184 523.408 23.256 524.128 23.256H539.968C540.808 23.256 541.576 23.136 542.2 23.064V26.52C541.528 26.448 540.52 26.424 539.968 26.424H524.128C523.432 26.424 522.568 26.448 521.776 26.52V23.064ZM547.288 9.96C548.2 10.056 549.424 10.128 550.264 10.128H562.36C563.056 10.128 564.04 10.08 564.448 10.056C564.424 10.632 564.376 11.568 564.376 12.288V24.72C564.376 25.56 564.448 26.808 564.496 27.552H561.016C561.04 26.832 561.064 25.968 561.064 25.08V13.224H550.264C549.256 13.224 547.96 13.272 547.288 13.32V9.96ZM547 22.992C547.816 23.064 548.896 23.136 549.976 23.136H562.96V26.304H550.072C549.136 26.304 547.792 26.352 547 26.448V22.992ZM574.48 8.016C576.064 8.88 578.704 10.56 579.952 11.448L578.176 14.088C576.832 13.152 574.336 11.544 572.752 10.656L574.48 8.016ZM570.04 25.056C572.728 24.6 575.584 23.784 578.2 22.344C582.28 20.064 585.64 16.776 587.536 13.344L589.384 16.608C587.176 19.944 583.768 22.968 579.856 25.248C577.408 26.616 573.952 27.816 571.84 28.2L570.04 25.056ZM570.784 13.488C572.392 14.352 575.032 15.984 576.28 16.872L574.504 19.56C573.16 18.6 570.664 16.992 569.056 16.128L570.784 13.488ZM610.624 10.752C610.432 11.016 610 11.736 609.784 12.24C608.8 14.52 607.024 17.784 604.96 20.184C602.272 23.28 598.648 26.256 594.928 28.008L592.432 25.416C596.32 23.976 600.016 21.048 602.272 18.552C603.856 16.752 605.32 14.376 605.872 12.672C604.864 12.672 598.744 12.672 597.712 12.672C596.728 12.672 595.408 12.792 594.88 12.84V9.408C595.528 9.504 597.016 9.576 597.712 9.576C598.984 9.576 605.128 9.576 606.184 9.576C607.24 9.576 608.176 9.456 608.68 9.288L610.624 10.752ZM605.272 18.192C607.744 20.208 611.152 23.784 612.712 25.704L609.976 28.08C608.2 25.608 605.584 22.752 603.016 20.424L605.272 18.192ZM619 8.616C619.768 8.712 620.752 8.784 621.568 8.784C623.08 8.784 629.8 8.784 631.216 8.784C632.008 8.784 632.968 8.712 633.784 8.616V11.712C632.968 11.664 632.032 11.616 631.216 11.616C629.8 11.616 623.08 11.616 621.568 11.616C620.752 11.616 619.72 11.664 619 11.712V8.616ZM616.192 14.736C616.912 14.832 617.752 14.88 618.496 14.88C620.008 14.88 632.8 14.88 634.216 14.88C634.72 14.88 635.776 14.856 636.424 14.736V17.856C635.8 17.832 634.888 17.808 634.216 17.808C632.8 17.808 620.008 17.808 618.496 17.808C617.8 17.808 616.864 17.832 616.192 17.88V14.736ZM628.48 16.416C628.48 19.56 627.928 21.96 626.896 23.952C626.08 25.632 624.208 27.48 622.096 28.584L619.264 26.544C620.968 25.872 622.672 24.504 623.608 23.088C624.808 21.264 625.144 19.008 625.144 16.44L628.48 16.416ZM650.289 8.904C649.977 9.624 649.641 10.512 649.281 11.592C648.393 14.28 645.897 22.008 644.865 24.504L641.337 24.624C642.633 21.552 645.129 13.68 645.921 10.896C646.257 9.696 646.377 8.928 646.473 8.136L650.289 8.904ZM654.585 16.656C656.313 19.248 658.761 23.976 659.865 26.64L656.625 28.08C655.545 25.176 653.313 20.208 651.609 17.904L654.585 16.656ZM641.097 23.544C644.433 23.424 652.281 22.536 655.641 22.08L656.337 25.152C652.785 25.608 644.529 26.472 641.289 26.808C640.689 26.88 639.777 27 639.033 27.096L638.457 23.568C639.273 23.592 640.329 23.568 641.097 23.544ZM526.32 39.592H535.056V40.584H526.32V39.592ZM526.8 41.704H534.688V42.664H526.8V41.704ZM526 43.88H535.28V44.904H526V43.88ZM532.752 37.544L533.936 37.88C533.536 38.6 533.104 39.352 532.752 39.848L531.808 39.56C532.144 39 532.544 38.12 532.752 37.544ZM527.52 37.944L528.48 37.624C528.864 38.2 529.296 38.968 529.456 39.48L528.432 39.864C528.288 39.352 527.904 38.536 527.52 37.944ZM534.176 45.496L535.088 46.136C534.416 46.92 533.552 47.768 532.896 48.328L532.112 47.736C532.752 47.144 533.664 46.184 534.176 45.496ZM526.512 46.088L527.344 45.56C527.968 46.184 528.688 47.064 529.008 47.64L528.144 48.248C527.824 47.656 527.136 46.744 526.512 46.088ZM525.376 50.376C526.384 49.88 527.888 49.064 529.36 48.264L529.68 49.24C528.416 49.992 527.024 50.792 525.936 51.4L525.376 50.376ZM530.064 40.264H531.216V50.936C531.216 51.592 531.088 51.912 530.672 52.104C530.256 52.296 529.52 52.312 528.528 52.312C528.496 52.008 528.336 51.512 528.192 51.208C528.896 51.224 529.584 51.224 529.792 51.208C530 51.208 530.064 51.144 530.064 50.936V40.264ZM531.152 45.368C531.904 47.752 533.44 49.768 535.584 50.648C535.328 50.872 534.976 51.288 534.8 51.608C532.656 50.52 531.12 48.264 530.32 45.576L531.152 45.368ZM520.816 41.032H526.016V42.168H520.816V41.032ZM523.072 37.56H524.176V52.264H523.072V37.56ZM523.04 41.704L523.776 41.96C523.28 44.488 522.224 47.64 521.104 49.24C520.976 48.936 520.688 48.472 520.496 48.216C521.552 46.776 522.592 43.992 523.04 41.704ZM524.096 43.064C524.448 43.512 525.808 45.56 526.112 46.04L525.44 46.936C525.088 46.12 523.952 44.2 523.552 43.576L524.096 43.064ZM541.632 41.624H548.32V42.824H541.632V41.624ZM541.072 47.144L541.824 46.184C544.048 47.208 546.736 48.872 548.016 50.216L547.168 51.32C545.952 49.976 543.328 48.216 541.072 47.144ZM542.48 38.376L543.808 38.696C542.736 41.88 540.96 45.48 538.576 47.784C538.304 47.576 537.792 47.256 537.456 47.08C539.856 44.888 541.6 41.336 542.48 38.376ZM547.824 41.624H548.096L548.336 41.56L549.232 42.056C548.416 44.344 546.816 47.096 545.344 48.92C545.088 48.696 544.608 48.376 544.272 48.216C545.696 46.552 547.184 43.832 547.824 41.928V41.624ZM553.184 40.92C553.776 40.984 554.464 41.016 555.152 41.016C556.88 41.016 558.896 40.808 560.736 40.2L560.768 41.384C559.2 41.816 557.104 42.168 555.152 42.152C554.56 42.152 553.872 42.136 553.28 42.12L553.184 40.92ZM558.864 38.312C558.656 39.096 558.32 40.6 557.936 41.736C557.168 44.04 555.696 46.952 554.368 48.744L553.136 48.104C554.56 46.44 556.048 43.592 556.704 41.704C557.056 40.696 557.408 39.288 557.456 38.168L558.864 38.312ZM562.64 43.256C562.592 43.912 562.592 44.392 562.608 44.968C562.64 46.008 562.784 48.44 562.784 49.496C562.784 50.776 561.968 51.816 559.984 51.816C558.224 51.816 556.8 51.112 556.8 49.512C556.8 48.04 558.192 47.112 559.984 47.112C562.672 47.112 564.736 48.456 566.048 49.592L565.376 50.68C564.144 49.56 562.304 48.136 559.952 48.136C558.768 48.136 557.968 48.68 557.968 49.416C557.968 50.152 558.592 50.664 559.84 50.664C561.168 50.664 561.616 49.96 561.616 49.096C561.616 47.88 561.44 45.016 561.376 43.256H562.64ZM565.84 43.672C564.976 42.936 563.232 41.96 562.176 41.464L562.816 40.504C563.984 41 565.792 42.04 566.56 42.616L565.84 43.672ZM580.256 40.312C580.16 40.44 579.952 40.792 579.872 41C579.232 42.584 578.016 44.824 576.688 46.296C574.896 48.296 572.608 50.2 570.08 51.352L569.056 50.28C571.648 49.288 574 47.368 575.648 45.544C576.736 44.312 577.904 42.408 578.32 41.08C577.744 41.08 572.624 41.08 572.08 41.08C571.504 41.08 570.64 41.144 570.464 41.16V39.72C570.672 39.752 571.584 39.816 572.08 39.816C572.704 39.816 577.648 39.816 578.256 39.816C578.768 39.816 579.2 39.768 579.456 39.688L580.256 40.312ZM576.896 45.464C578.624 46.904 580.752 49.144 581.84 50.472L580.736 51.448C579.584 49.928 577.712 47.88 575.984 46.36L576.896 45.464ZM586.72 39.176C587.184 39.224 587.648 39.256 588.176 39.256C589.104 39.256 593.76 39.256 594.656 39.256C595.104 39.256 595.68 39.224 596.144 39.176V40.504C595.664 40.472 595.104 40.44 594.656 40.44C593.76 40.44 589.104 40.44 588.192 40.44C587.664 40.44 587.136 40.472 586.72 40.504V39.176ZM584.816 43.192C585.248 43.24 585.712 43.256 586.208 43.256C587.136 43.256 595.824 43.256 596.672 43.256C597.008 43.256 597.536 43.24 597.936 43.192V44.504C597.568 44.488 597.072 44.472 596.672 44.472C595.824 44.472 587.136 44.472 586.208 44.472C585.728 44.472 585.248 44.488 584.816 44.52V43.192ZM592.352 43.832C592.352 45.848 592.096 47.512 591.376 48.856C590.8 49.928 589.584 51.064 588.24 51.768L587.056 50.904C588.288 50.376 589.44 49.464 590.064 48.44C590.864 47.176 590.992 45.608 591.008 43.848L592.352 43.832ZM600.496 45.224C603.264 44.488 605.696 43.352 607.472 42.248C609.152 41.192 610.752 39.816 611.856 38.472L612.928 39.48C611.552 40.904 609.872 42.248 608 43.416C606.24 44.504 603.696 45.672 601.12 46.472L600.496 45.224ZM607.216 42.904L608.592 42.488V49.8C608.592 50.392 608.624 51.192 608.704 51.496H607.12C607.168 51.192 607.216 50.392 607.216 49.8V42.904ZM628.568 41C628.44 41.224 628.28 41.592 628.2 41.848C627.768 43.464 626.792 45.624 625.368 47.368C623.912 49.144 621.992 50.6 619 51.72L617.832 50.664C620.776 49.8 622.76 48.36 624.232 46.648C625.464 45.192 626.456 43.112 626.776 41.656H620.856L621.368 40.504C622.008 40.504 625.96 40.504 626.456 40.504C626.888 40.504 627.256 40.456 627.512 40.36L628.568 41ZM623.208 38.584C622.952 39 622.664 39.544 622.504 39.832C621.56 41.608 619.896 43.896 617.32 45.592L616.2 44.776C618.968 43.128 620.536 40.792 621.24 39.368C621.4 39.08 621.64 38.504 621.736 38.088L623.208 38.584ZM639.431 38.456C639.399 38.68 639.335 39.256 639.335 39.608C639.335 40.456 639.335 41.8 639.335 42.568C639.335 43.88 639.335 49.064 639.335 50.2C639.335 51.048 638.935 51.48 637.975 51.48C637.287 51.48 636.343 51.432 635.687 51.368L635.575 50.088C636.279 50.216 636.999 50.28 637.431 50.28C637.863 50.28 638.039 50.088 638.055 49.672C638.055 48.792 638.055 43.336 638.055 42.568C638.055 42.024 638.055 40.44 638.055 39.592C638.055 39.256 637.991 38.696 637.943 38.456H639.431ZM632.247 41.16C632.695 41.208 633.095 41.24 633.607 41.24C634.551 41.24 642.631 41.24 643.575 41.24C643.943 41.24 644.487 41.224 644.871 41.16V42.488C644.455 42.456 643.975 42.456 643.591 42.456C642.631 42.456 634.583 42.456 633.607 42.456C633.127 42.456 632.663 42.472 632.247 42.504V41.16ZM635.927 44.92C635.239 46.296 633.751 48.328 632.839 49.32L631.751 48.568C632.807 47.576 634.183 45.672 634.807 44.376L635.927 44.92ZM642.615 44.392C643.463 45.416 644.743 47.416 645.383 48.568L644.199 49.224C643.559 47.976 642.359 45.976 641.527 44.968L642.615 44.392ZM654.648 50.664C654.712 50.424 654.76 50.088 654.76 49.768C654.76 49.032 654.76 41.192 654.76 40.184C654.76 39.576 654.68 39.128 654.68 39H656.152C656.136 39.128 656.072 39.592 656.072 40.2C656.072 41.192 656.072 48.936 656.072 49.416C657.56 48.744 659.528 47.288 660.744 45.48L661.512 46.584C660.12 48.456 657.912 50.088 656.056 51.016C655.784 51.144 655.624 51.288 655.496 51.368L654.648 50.664ZM647.32 50.6C648.68 49.64 649.624 48.216 650.104 46.664C650.584 45.192 650.584 42.008 650.584 40.216C650.584 39.752 650.552 39.4 650.472 39.064H651.944C651.928 39.24 651.864 39.736 651.864 40.2C651.864 41.976 651.816 45.416 651.384 47.016C650.904 48.728 649.88 50.28 648.536 51.4L647.32 50.6ZM674.344 38.104C674.744 38.68 675.32 39.656 675.64 40.296L674.776 40.68C674.456 40.04 673.912 39.08 673.48 38.472L674.344 38.104ZM676.088 37.464C676.52 38.056 677.128 39.048 677.432 39.64L676.568 40.024C676.216 39.336 675.704 38.424 675.256 37.832L676.088 37.464ZM668.232 44.056C670.28 45.24 672.92 47.08 674.488 48.376L673.56 49.48C672.072 48.136 669.352 46.168 667.368 44.936L668.232 44.056ZM675.544 41.128C675.416 41.352 675.272 41.736 675.176 41.992C674.696 43.624 673.688 45.736 672.28 47.48C670.84 49.256 668.744 50.968 665.704 52.088L664.568 51.096C667.544 50.184 669.72 48.488 671.16 46.776C672.408 45.304 673.416 43.272 673.784 41.784H667.848L668.36 40.648H673.448C673.88 40.648 674.232 40.584 674.488 40.488L675.544 41.128ZM670.152 38.824C669.88 39.24 669.608 39.784 669.448 40.072C668.488 41.832 666.68 44.264 664.136 46.024L663.064 45.192C665.8 43.48 667.448 41.08 668.184 39.624C668.344 39.336 668.616 38.76 668.712 38.36L670.152 38.824ZM679.544 44.072C680.04 44.12 680.872 44.168 681.784 44.168C682.952 44.168 689.368 44.168 690.552 44.168C691.352 44.168 691.912 44.104 692.28 44.072V45.64C691.944 45.624 691.272 45.576 690.568 45.576C689.352 45.576 682.968 45.576 681.784 45.576C680.904 45.576 680.056 45.608 679.544 45.64V44.072ZM701.031 40.2C702.775 40.504 706.023 40.44 707.607 40.2V41.496C705.895 41.688 702.791 41.688 701.047 41.496L701.031 40.2ZM701.655 46.728C701.511 47.304 701.431 47.752 701.431 48.184C701.431 48.92 701.943 49.64 704.135 49.64C705.559 49.64 706.807 49.512 708.087 49.208L708.119 50.552C707.127 50.76 705.783 50.888 704.119 50.888C701.447 50.888 700.247 49.992 700.247 48.488C700.247 47.96 700.327 47.384 700.503 46.616L701.655 46.728ZM697.991 38.968C697.895 39.24 697.767 39.752 697.703 40.04C697.399 41.528 696.903 44.376 696.903 46.184C696.903 46.952 696.951 47.624 697.047 48.408C697.319 47.688 697.687 46.728 697.959 46.072L698.631 46.6C698.231 47.736 697.639 49.416 697.495 50.184C697.447 50.408 697.415 50.712 697.415 50.904C697.431 51.064 697.447 51.288 697.463 51.464L696.327 51.544C696.007 50.408 695.735 48.568 695.735 46.392C695.735 44.04 696.263 41.304 696.455 39.976C696.503 39.608 696.551 39.208 696.567 38.856L697.991 38.968ZM714.584 39.192H724.776V40.28H714.584V39.192ZM714.792 42.904H724.648V51.928H723.496V43.976H715.912V52.024H714.792V42.904ZM717.592 39.352H718.728V43.672H717.592V39.352ZM720.568 39.352H721.72V43.672H720.568V39.352ZM715.304 49.912H724.312V50.968H715.304V49.912ZM717.688 43.64H718.728V50.712H717.688V43.64ZM720.568 43.64H721.608V50.712H720.568V43.64ZM713.624 37.608L714.712 37.96C713.72 40.6 712.184 43.256 710.536 45.032C710.424 44.76 710.088 44.152 709.864 43.864C711.368 42.344 712.776 39.992 713.624 37.608ZM712.04 41.768L713.16 40.648L713.176 40.664V52.28H712.04V41.768ZM731.016 39.208H740.648V40.264H731.016V39.208ZM731.352 50.408H740.744V51.48H731.352V50.408ZM735.544 37.576L736.744 37.64C736.632 39.112 736.424 40.984 736.232 42.12H735.096C735.272 40.952 735.464 39.016 735.544 37.576ZM734.504 44.712V46.04H738.6V44.712H734.504ZM734.504 46.92V48.248H738.6V46.92H734.504ZM734.504 42.536V43.848H738.6V42.536H734.504ZM733.368 41.624H739.752V49.176H733.368V41.624ZM730.824 42.424H731.96V52.264H730.824V42.424ZM729.624 37.624L730.76 37.976C729.704 40.696 728.056 43.4 726.328 45.192C726.2 44.92 725.864 44.28 725.64 44.008C727.224 42.456 728.728 40.056 729.624 37.624ZM727.96 41.752L729.08 40.616L729.112 40.632V52.264H727.96V41.752ZM748.583 38.36C748.439 38.984 748.263 39.864 747.847 40.936C747.447 41.912 746.855 42.984 746.215 43.816C746.839 43.448 747.751 43.224 748.455 43.224C749.687 43.224 750.647 43.96 750.647 45.256C750.647 46.088 750.679 47.928 750.695 48.92H749.463C749.527 48.072 749.543 46.424 749.527 45.592C749.511 44.664 748.871 44.232 748.039 44.232C747.015 44.232 746.007 44.744 745.271 45.4C744.807 45.848 744.359 46.424 743.831 47.08L742.727 46.264C745.031 44.056 746.103 42.2 746.647 40.84C746.999 39.96 747.223 39 747.271 38.248L748.583 38.36ZM743.095 40.088C743.959 40.2 745.063 40.248 745.799 40.248C747.959 40.248 750.727 40.12 752.983 39.72V40.904C750.743 41.24 747.767 41.384 745.735 41.384C745.047 41.384 743.991 41.352 743.095 41.288V40.088ZM755.319 43.944C754.919 44.072 754.343 44.296 753.911 44.456C752.775 44.904 751.255 45.512 749.703 46.312C748.119 47.144 746.999 48.008 746.999 49.112C746.999 50.36 748.231 50.552 749.879 50.552C751.127 50.552 752.855 50.408 754.263 50.152L754.215 51.448C752.999 51.592 751.223 51.72 749.831 51.72C747.559 51.72 745.719 51.224 745.719 49.288C745.719 47.336 747.703 46.136 749.607 45.16C751.127 44.376 752.423 43.88 753.479 43.384C753.959 43.16 754.359 42.984 754.807 42.76L755.319 43.944ZM764.696 41.128V42.408H770.04V41.128H764.696ZM764.696 39V40.28H770.04V39H764.696ZM763.592 38.088H771.192V43.336H763.592V38.088ZM762.856 44.488H772.072V45.496H762.856V44.488ZM766.792 44.984H767.912V51.528L766.792 51.064V44.984ZM764.648 47.928C765.464 50.584 767.224 50.984 769.448 50.984C769.848 50.984 772.008 50.984 772.568 50.968C772.408 51.224 772.248 51.736 772.216 52.04H769.4C766.728 52.04 764.888 51.464 763.912 48.2L764.648 47.928ZM767.56 47.368H771.272V48.36H767.56V47.368ZM763.912 46.248L765 46.376C764.68 49.016 763.848 51 762.408 52.28C762.216 52.088 761.752 51.736 761.512 51.56C762.936 50.424 763.656 48.616 763.912 46.248ZM757.496 46.072C758.744 45.736 760.6 45.16 762.392 44.584L762.568 45.688C760.904 46.232 759.16 46.808 757.8 47.24L757.496 46.072ZM757.672 40.792H762.552V41.912H757.672V40.792ZM759.656 37.576H760.776V50.792C760.776 51.448 760.632 51.768 760.232 51.96C759.864 52.152 759.24 52.184 758.232 52.184C758.184 51.896 758.04 51.4 757.88 51.064C758.584 51.08 759.192 51.08 759.384 51.08C759.592 51.08 759.656 51.016 759.656 50.776V37.576ZM777.16 37.608L778.296 37.96C777.256 40.664 775.608 43.384 773.88 45.176C773.752 44.904 773.416 44.264 773.192 43.992C774.76 42.44 776.264 40.04 777.16 37.608ZM775.464 41.752L776.632 40.584L776.648 40.6V52.264H775.464V41.752ZM778.216 40.984H788.04V42.136H778.216V40.984ZM777.816 46.088H788.232V47.272H777.816V46.088ZM780.28 37.736H781.464V46.728H780.28V37.736ZM784.584 37.72H785.752V46.744H784.584V37.72ZM780.616 48.168L781.752 48.52C780.968 49.912 779.752 51.336 778.68 52.248C778.456 52.04 777.992 51.656 777.72 51.496C778.824 50.664 779.928 49.4 780.616 48.168ZM784.248 48.744L785.192 48.2C786.296 49.256 787.48 50.68 788.056 51.656L787.048 52.296C786.504 51.304 785.32 49.816 784.248 48.744ZM798.727 38.328C798.695 38.52 798.647 39.144 798.647 39.336C798.599 40.376 798.631 43.464 798.647 44.744L797.431 44.12C797.431 43.416 797.415 40.232 797.367 39.352C797.335 38.92 797.287 38.472 797.255 38.328H798.727ZM790.215 40.568C792.391 40.536 796.391 40.392 798.855 40.392C800.807 40.392 802.791 40.392 803.543 40.408L803.527 41.592C802.631 41.544 801.191 41.512 798.839 41.512C796.087 41.512 792.663 41.624 790.247 41.8L790.215 40.568ZM798.615 45.208C798.615 47.352 797.623 48.424 796.167 48.424C794.823 48.424 793.527 47.48 793.527 45.736C793.527 44.152 794.839 42.968 796.359 42.968C798.215 42.968 799.159 44.344 799.159 46.184C799.159 48.36 798.103 50.76 794.391 51.864L793.319 50.824C796.231 50.136 797.927 48.712 797.927 46.072C797.927 44.632 797.223 44.024 796.359 44.024C795.511 44.024 794.727 44.68 794.727 45.72C794.727 46.728 795.479 47.304 796.359 47.304C797.351 47.304 797.991 46.472 797.735 44.76L798.615 45.208ZM808.328 39.224C808.68 39.256 809.128 39.272 809.448 39.272C810.296 39.272 814.088 39.16 814.936 39.08C815.416 39.032 815.64 39 815.816 38.936L816.552 39.88C816.264 40.072 815.944 40.28 815.64 40.52C814.856 41.128 812.68 43 811.432 44.024C812.168 43.784 812.936 43.704 813.656 43.704C816.312 43.704 818.216 45.288 818.216 47.448C818.216 50.024 816.088 51.704 812.696 51.704C810.52 51.704 809.192 50.76 809.192 49.416C809.192 48.328 810.184 47.336 811.656 47.336C813.784 47.336 814.856 48.84 814.968 50.456L813.816 50.648C813.72 49.288 812.936 48.312 811.656 48.312C810.92 48.312 810.36 48.76 810.36 49.32C810.36 50.104 811.24 50.568 812.504 50.568C815.224 50.568 816.936 49.448 816.936 47.448C816.936 45.864 815.432 44.696 813.336 44.696C810.68 44.696 809.24 45.816 807.224 47.88L806.296 46.952C807.624 45.864 809.688 44.136 810.6 43.352C811.496 42.616 813.512 40.936 814.312 40.216C813.464 40.264 810.264 40.392 809.432 40.44C809.064 40.472 808.712 40.488 808.36 40.536L808.328 39.224Z" fill="#2171C1"/>
<rect x="283" y="97" width="80.5792" height="50.2857" rx="20.1143" fill="#B3B3B3"/>
<g clip-path="url(#clip4_45_1278)">
<path d="M323 225.167C326.049 225.167 329.03 226.071 331.565 227.765C334.1 229.459 336.076 231.867 337.243 234.684C338.41 237.501 338.715 240.601 338.12 243.591C337.526 246.582 336.057 249.329 333.901 251.485C331.745 253.641 328.998 255.109 326.008 255.704C323.017 256.299 319.917 255.993 317.1 254.827C314.283 253.66 311.876 251.684 310.182 249.148C308.488 246.613 307.583 243.633 307.583 240.583L307.599 239.914C307.771 235.945 309.469 232.196 312.339 229.448C315.208 226.701 319.027 225.167 323 225.167Z" fill="black"/>
<path d="M329.167 262.167C333.255 262.167 337.177 263.791 340.068 266.682C342.959 269.573 344.583 273.495 344.583 277.583V280.667C344.583 282.302 343.934 283.871 342.777 285.027C341.621 286.184 340.052 286.833 338.417 286.833H307.583C305.948 286.833 304.379 286.184 303.223 285.027C302.066 283.871 301.417 282.302 301.417 280.667V277.583C301.417 273.495 303.041 269.573 305.932 266.682C308.823 263.791 312.745 262.167 316.833 262.167H329.167Z" fill="black"/>
</g>
<path d="M316.34 200C315.511 200 314.926 201.015 315.34 201.732L322 213.268C322.414 213.985 323.586 213.985 324 213.268L330.66 201.732C331.074 201.015 330.489 200 329.66 200H316.34ZM324.5 151.286C324.5 150.457 323.828 149.786 323 149.786C322.172 149.786 321.5 150.457 321.5 151.286H324.5ZM324.5 201.5V151.286H321.5V201.5H324.5Z" fill="#5FA0E1"/>
<path d="M316.34 200C315.511 200 314.926 201.015 315.34 201.732L322 213.268C322.414 213.985 323.586 213.985 324 213.268L330.66 201.732C331.074 201.015 330.489 200 329.66 200H316.34ZM347 177.643C347.828 177.643 348.5 176.971 348.5 176.143C348.5 175.314 347.828 174.643 347 174.643V177.643ZM324.5 201.5V200.143H321.5V201.5H324.5ZM324.5 200.143C324.5 187.716 334.574 177.643 347 177.643V174.643C332.917 174.643 321.5 186.06 321.5 200.143H324.5Z" fill="#5FA0E1"/>
<path d="M316.34 200C315.511 200 314.925 201.015 315.34 201.732L322 213.268C322.414 213.985 323.586 213.985 324 213.268L330.66 201.732C331.074 201.015 330.489 200 329.66 200H316.34ZM298.579 174.643C297.751 174.643 297.079 175.314 297.079 176.143C297.079 176.971 297.751 177.643 298.579 177.643V174.643ZM324.5 201.5V200.143H321.5V201.5H324.5ZM299 174.643H298.579V177.643H299V174.643ZM324.5 200.143C324.5 186.06 313.083 174.643 299 174.643V177.643C311.426 177.643 321.5 187.716 321.5 200.143H324.5Z" fill="#5FA0E1"/>
<path fill-rule="evenodd" clip-rule="evenodd" d="M161.323 181.775C160.386 178.42 163.886 175.553 166.99 177.133L193.19 190.471C196.104 191.954 196.104 196.117 193.19 197.6L166.99 210.937C163.886 212.517 160.386 209.65 161.323 206.296L162.313 202.756C163.026 200.205 161.109 197.679 158.461 197.679H134.156C132.144 197.679 130.513 196.048 130.513 194.035C130.513 192.023 132.144 190.392 134.156 190.392H158.461C161.109 190.392 163.026 187.865 162.313 185.315L161.323 181.775Z" fill="#2171C1"/>
<path fill-rule="evenodd" clip-rule="evenodd" d="M477.811 181.775C476.873 178.42 480.374 175.553 483.478 177.133L509.677 190.471C512.591 191.954 512.591 196.117 509.677 197.6L483.478 210.937C480.374 212.517 476.873 209.65 477.811 206.296L478.8 202.756C479.513 200.205 477.596 197.679 474.948 197.679H450.643C448.631 197.679 447 196.048 447 194.035C447 192.023 448.631 190.392 450.643 190.392H474.948C477.596 190.392 479.513 187.865 478.8 185.315L477.811 181.775Z" fill="#2171C1"/>
<defs>
<clipPath id="clip0_45_1278">
<rect width="74" height="74" fill="white" transform="translate(533 340)"/>
</clipPath>
<clipPath id="clip1_45_1278">
<rect width="74" height="74" fill="white" transform="translate(758 92.5454)"/>
</clipPath>
<clipPath id="clip2_45_1278">
<rect width="74" height="74" fill="white" transform="translate(533 90)"/>
</clipPath>
<clipPath id="clip3_45_1278">
<rect width="74" height="74" fill="white" transform="translate(27 219)"/>
</clipPath>
<clipPath id="clip4_45_1278">
<rect width="74" height="74" fill="white" transform="translate(286 219)"/>
</clipPath>
</defs>
</svg>
