<svg width="1104" height="304" viewBox="0 0 1104 304" fill="none" xmlns="http://www.w3.org/2000/svg">
<rect x="560" y="80" width="544" height="224" rx="6" fill="#DCF1FF"/>
<rect y="80" width="544" height="224" rx="6" fill="#DCF1FF"/>
<rect x="16" y="96" width="160" height="128" rx="6" fill="#2171C1"/>
<rect x="32" y="160" width="128" height="48" rx="19.2" fill="#14AE5C"/>
<path d="M87.108 174.52H88.764C88.26 178.408 87.084 182.296 82.884 184.384C82.692 184 82.188 183.4 81.804 183.112C85.716 181.312 86.7 177.808 87.108 174.52ZM82.692 177.952L83.58 176.704C86.076 177.544 89.076 179.032 90.66 180.136L89.796 181.552C88.188 180.376 85.188 178.792 82.692 177.952ZM92.772 173.872H94.476C94.476 173.872 94.476 174.4 94.452 174.64C94.212 180.304 93.972 182.44 93.372 183.136C92.988 183.592 92.58 183.76 91.932 183.832C91.356 183.88 90.228 183.856 89.1 183.808C89.076 183.304 88.908 182.608 88.644 182.176C89.748 182.272 90.756 182.272 91.14 182.272C91.524 182.296 91.74 182.224 91.908 182.032C92.34 181.528 92.58 179.608 92.772 174.184V173.872ZM85.404 186.664H87.084V192.448C87.084 193.048 87.18 193.144 87.852 193.144C88.164 193.144 89.724 193.144 90.108 193.144C90.756 193.144 90.852 192.808 90.924 190.408C91.26 190.696 91.98 190.936 92.46 191.08C92.268 194.008 91.812 194.752 90.3 194.752C89.916 194.752 88.02 194.752 87.636 194.752C85.812 194.752 85.404 194.248 85.404 192.472V186.664ZM83.124 187.48L84.588 187.84C84.324 189.976 83.82 192.304 82.548 193.648L81.204 192.76C82.356 191.584 82.884 189.472 83.124 187.48ZM85.812 184.456L86.868 183.4C88.452 184.24 90.3 185.536 91.188 186.544L90.06 187.768C89.196 186.76 87.372 185.368 85.812 184.456ZM91.404 187.648L92.892 187.048C94.188 188.8 95.268 191.152 95.628 192.784L94.02 193.456C93.708 191.824 92.652 189.4 91.404 187.648ZM82.908 173.872H93.516V175.432H82.908V173.872ZM74.22 180.112H81.036V181.552H74.22V180.112ZM74.316 173.704H80.94V175.144H74.316V173.704ZM74.22 183.328H81.036V184.768H74.22V183.328ZM73.14 176.848H81.708V178.336H73.14V176.848ZM75.012 186.568H81.036V193.576H75.012V192.064H79.476V188.056H75.012V186.568ZM74.196 186.568H75.732V194.68H74.196V186.568ZM106.212 174.304H118.5V176.032H106.212V174.304ZM105.42 192.4H118.884V194.104H105.42V192.4ZM112.812 182.656H118.356V184.384H112.812V182.656ZM111.804 174.976H113.58V193.36H111.804V174.976ZM107.22 180.328H108.924V193.168H107.22V180.328ZM97.812 180.256H104.58V181.672H97.812V180.256ZM97.956 173.704H104.556V175.144H97.956V173.704ZM97.812 183.52H104.58V184.96H97.812V183.52ZM96.684 176.92H105.42V178.408H96.684V176.92ZM98.676 186.808H104.676V193.816H98.676V192.328H103.092V188.32H98.676V186.808ZM97.788 186.808H99.348V194.92H97.788V186.808Z" fill="white"/>
<path d="M48.0577 120.041C48.0577 120.929 48.7537 121.625 49.6417 121.625C50.5057 121.625 51.2257 120.929 51.2257 120.041C51.2257 119.177 50.5057 118.457 49.6417 118.457C48.7537 118.457 48.0577 119.177 48.0577 120.041ZM46.9537 120.041C46.9537 118.553 48.1537 117.353 49.6417 117.353C51.1297 117.353 52.3297 118.553 52.3297 120.041C52.3297 121.529 51.1297 122.729 49.6417 122.729C48.1537 122.729 46.9537 121.529 46.9537 120.041ZM49.0417 121.649C48.8737 121.985 48.7777 122.393 48.6817 122.849C48.1537 125.369 47.0017 129.257 45.0817 131.705C42.8977 134.537 40.0417 136.745 35.6497 138.137L34.0177 136.337C38.6737 135.161 41.3617 133.121 43.3777 130.553C45.0817 128.393 46.1857 125.033 46.5217 122.729C45.1297 122.729 35.6257 122.729 34.2337 122.729C33.2737 122.729 32.4577 122.777 31.8577 122.825V120.689C32.5057 120.761 33.4657 120.857 34.2577 120.857C35.6257 120.857 45.2017 120.857 46.2817 120.857C46.6657 120.857 47.1217 120.833 47.5777 120.713L49.0417 121.649ZM55.7857 120.833C56.7217 120.881 57.3457 120.881 57.9217 120.881C59.1937 120.881 69.6337 120.881 70.8097 120.881C71.3137 120.881 72.1777 120.881 72.9217 120.857C72.8737 121.433 72.8737 122.105 72.8737 122.705C72.8737 123.833 72.8737 133.625 72.8737 134.537C72.8737 135.305 72.8977 137.177 72.9217 137.441H70.8337C70.8577 137.177 70.8817 135.809 70.8817 134.801C70.8817 133.913 70.8817 122.777 70.8817 122.777H57.7777C57.7777 122.777 57.7777 133.817 57.7777 134.801C57.7777 135.593 57.8017 137.129 57.8017 137.441H55.7617C55.7617 137.129 55.8097 135.377 55.8097 134.537C55.8097 133.553 55.8097 123.641 55.8097 122.705C55.8097 122.153 55.8097 121.433 55.7857 120.833ZM71.6737 134.201V136.073H56.8177V134.201H71.6737ZM94.1857 117.929C94.7857 118.793 95.6497 120.257 96.1297 121.217L94.8337 121.793C94.3537 120.833 93.5377 119.393 92.8897 118.481L94.1857 117.929ZM96.8017 116.969C97.4497 117.857 98.3617 119.345 98.8177 120.233L97.5217 120.809C96.9937 119.777 96.2257 118.409 95.5537 117.521L96.8017 116.969ZM85.0177 126.857C88.0897 128.633 92.0497 131.393 94.4017 133.337L93.0097 134.993C90.7777 132.977 86.6977 130.025 83.7217 128.177L85.0177 126.857ZM95.9857 122.465C95.7937 122.801 95.5777 123.377 95.4337 123.761C94.7137 126.209 93.2017 129.377 91.0897 131.993C88.9297 134.657 85.7857 137.225 81.2257 138.905L79.5217 137.417C83.9857 136.049 87.2497 133.505 89.4097 130.937C91.2817 128.729 92.7937 125.681 93.3457 123.449H84.4417L85.2097 121.745H92.8417C93.4897 121.745 94.0177 121.649 94.4017 121.505L95.9857 122.465ZM87.8977 119.009C87.4897 119.633 87.0817 120.449 86.8417 120.881C85.4017 123.521 82.6897 127.169 78.8737 129.809L77.2657 128.561C81.3697 125.993 83.8417 122.393 84.9457 120.209C85.1857 119.777 85.5937 118.913 85.7377 118.313L87.8977 119.009ZM120.274 122.273C120.082 122.609 119.842 123.161 119.722 123.545C119.074 125.969 117.61 129.209 115.474 131.825C113.29 134.489 110.41 136.673 105.922 138.353L104.17 136.769C108.586 135.473 111.562 133.313 113.77 130.745C115.618 128.561 117.106 125.441 117.586 123.257H108.706L109.474 121.529C110.434 121.529 116.362 121.529 117.106 121.529C117.754 121.529 118.306 121.457 118.69 121.313L120.274 122.273ZM112.234 118.649C111.85 119.273 111.418 120.089 111.178 120.521C109.762 123.185 107.266 126.617 103.402 129.161L101.722 127.937C105.874 125.465 108.226 121.961 109.282 119.825C109.522 119.393 109.882 118.529 110.026 117.905L112.234 118.649ZM130.978 135.161C130.978 133.817 130.978 123.209 130.978 121.217C130.978 120.521 130.93 119.465 130.81 118.697H133.162C133.066 119.441 132.994 120.473 132.994 121.217C132.994 124.937 133.018 134.033 133.018 135.161C133.018 135.929 133.066 137.225 133.162 138.017H130.834C130.954 137.249 130.978 136.049 130.978 135.161ZM132.562 125.009C135.73 125.921 140.578 127.769 143.242 129.065L142.402 131.105C139.666 129.641 135.178 127.937 132.562 127.121V125.009ZM149.85 137.273H147.054L153.335 119.818H156.378L162.659 137.273H159.864L154.929 122.989H154.793L149.85 137.273ZM150.318 130.437H159.387V132.653H150.318V130.437Z" fill="white"/>
<rect x="192" y="96" width="160" height="192" rx="6" fill="#2171C1"/>
<rect x="208" y="160" width="128" height="48" rx="19.2" fill="#14AE5C"/>
<path d="M263.108 174.52H264.764C264.26 178.408 263.084 182.296 258.884 184.384C258.692 184 258.188 183.4 257.804 183.112C261.716 181.312 262.7 177.808 263.108 174.52ZM258.692 177.952L259.58 176.704C262.076 177.544 265.076 179.032 266.66 180.136L265.796 181.552C264.188 180.376 261.188 178.792 258.692 177.952ZM268.772 173.872H270.476C270.476 173.872 270.476 174.4 270.452 174.64C270.212 180.304 269.972 182.44 269.372 183.136C268.988 183.592 268.58 183.76 267.932 183.832C267.356 183.88 266.228 183.856 265.1 183.808C265.076 183.304 264.908 182.608 264.644 182.176C265.748 182.272 266.756 182.272 267.14 182.272C267.524 182.296 267.74 182.224 267.908 182.032C268.34 181.528 268.58 179.608 268.772 174.184V173.872ZM261.404 186.664H263.084V192.448C263.084 193.048 263.18 193.144 263.852 193.144C264.164 193.144 265.724 193.144 266.108 193.144C266.756 193.144 266.852 192.808 266.924 190.408C267.26 190.696 267.98 190.936 268.46 191.08C268.268 194.008 267.812 194.752 266.3 194.752C265.916 194.752 264.02 194.752 263.636 194.752C261.812 194.752 261.404 194.248 261.404 192.472V186.664ZM259.124 187.48L260.588 187.84C260.324 189.976 259.82 192.304 258.548 193.648L257.204 192.76C258.356 191.584 258.884 189.472 259.124 187.48ZM261.812 184.456L262.868 183.4C264.452 184.24 266.3 185.536 267.188 186.544L266.06 187.768C265.196 186.76 263.372 185.368 261.812 184.456ZM267.404 187.648L268.892 187.048C270.188 188.8 271.268 191.152 271.628 192.784L270.02 193.456C269.708 191.824 268.652 189.4 267.404 187.648ZM258.908 173.872H269.516V175.432H258.908V173.872ZM250.22 180.112H257.036V181.552H250.22V180.112ZM250.316 173.704H256.94V175.144H250.316V173.704ZM250.22 183.328H257.036V184.768H250.22V183.328ZM249.14 176.848H257.708V178.336H249.14V176.848ZM251.012 186.568H257.036V193.576H251.012V192.064H255.476V188.056H251.012V186.568ZM250.196 186.568H251.732V194.68H250.196V186.568ZM282.212 174.304H294.5V176.032H282.212V174.304ZM281.42 192.4H294.884V194.104H281.42V192.4ZM288.812 182.656H294.356V184.384H288.812V182.656ZM287.804 174.976H289.58V193.36H287.804V174.976ZM283.22 180.328H284.924V193.168H283.22V180.328ZM273.812 180.256H280.58V181.672H273.812V180.256ZM273.956 173.704H280.556V175.144H273.956V173.704ZM273.812 183.52H280.58V184.96H273.812V183.52ZM272.684 176.92H281.42V178.408H272.684V176.92ZM274.676 186.808H280.676V193.816H274.676V192.328H279.092V188.32H274.676V186.808ZM273.788 186.808H275.348V194.92H273.788V186.808Z" fill="white"/>
<path d="M224.608 120.041C224.608 120.929 225.304 121.625 226.192 121.625C227.056 121.625 227.776 120.929 227.776 120.041C227.776 119.177 227.056 118.457 226.192 118.457C225.304 118.457 224.608 119.177 224.608 120.041ZM223.504 120.041C223.504 118.553 224.704 117.353 226.192 117.353C227.68 117.353 228.88 118.553 228.88 120.041C228.88 121.529 227.68 122.729 226.192 122.729C224.704 122.729 223.504 121.529 223.504 120.041ZM225.592 121.649C225.424 121.985 225.328 122.393 225.232 122.849C224.704 125.369 223.552 129.257 221.632 131.705C219.448 134.537 216.592 136.745 212.2 138.137L210.568 136.337C215.224 135.161 217.912 133.121 219.928 130.553C221.632 128.393 222.736 125.033 223.072 122.729C221.68 122.729 212.176 122.729 210.784 122.729C209.824 122.729 209.008 122.777 208.408 122.825V120.689C209.056 120.761 210.016 120.857 210.808 120.857C212.176 120.857 221.752 120.857 222.832 120.857C223.216 120.857 223.672 120.833 224.128 120.713L225.592 121.649ZM232.336 120.833C233.272 120.881 233.896 120.881 234.472 120.881C235.744 120.881 246.184 120.881 247.36 120.881C247.864 120.881 248.728 120.881 249.472 120.857C249.424 121.433 249.424 122.105 249.424 122.705C249.424 123.833 249.424 133.625 249.424 134.537C249.424 135.305 249.448 137.177 249.472 137.441H247.384C247.408 137.177 247.432 135.809 247.432 134.801C247.432 133.913 247.432 122.777 247.432 122.777H234.328C234.328 122.777 234.328 133.817 234.328 134.801C234.328 135.593 234.352 137.129 234.352 137.441H232.312C232.312 137.129 232.36 135.377 232.36 134.537C232.36 133.553 232.36 123.641 232.36 122.705C232.36 122.153 232.36 121.433 232.336 120.833ZM248.224 134.201V136.073H233.368V134.201H248.224ZM270.736 117.929C271.336 118.793 272.2 120.257 272.68 121.217L271.384 121.793C270.904 120.833 270.088 119.393 269.44 118.481L270.736 117.929ZM273.352 116.969C274 117.857 274.912 119.345 275.368 120.233L274.072 120.809C273.544 119.777 272.776 118.409 272.104 117.521L273.352 116.969ZM261.568 126.857C264.64 128.633 268.6 131.393 270.952 133.337L269.56 134.993C267.328 132.977 263.248 130.025 260.272 128.177L261.568 126.857ZM272.536 122.465C272.344 122.801 272.128 123.377 271.984 123.761C271.264 126.209 269.752 129.377 267.64 131.993C265.48 134.657 262.336 137.225 257.776 138.905L256.072 137.417C260.536 136.049 263.8 133.505 265.96 130.937C267.832 128.729 269.344 125.681 269.896 123.449H260.992L261.76 121.745H269.392C270.04 121.745 270.568 121.649 270.952 121.505L272.536 122.465ZM264.448 119.009C264.04 119.633 263.632 120.449 263.392 120.881C261.952 123.521 259.24 127.169 255.424 129.809L253.816 128.561C257.92 125.993 260.392 122.393 261.496 120.209C261.736 119.777 262.144 118.913 262.288 118.313L264.448 119.009ZM296.824 122.273C296.632 122.609 296.392 123.161 296.272 123.545C295.624 125.969 294.16 129.209 292.024 131.825C289.84 134.489 286.96 136.673 282.472 138.353L280.72 136.769C285.136 135.473 288.112 133.313 290.32 130.745C292.168 128.561 293.656 125.441 294.136 123.257H285.256L286.024 121.529C286.984 121.529 292.912 121.529 293.656 121.529C294.304 121.529 294.856 121.457 295.24 121.313L296.824 122.273ZM288.784 118.649C288.4 119.273 287.968 120.089 287.728 120.521C286.312 123.185 283.816 126.617 279.952 129.161L278.272 127.937C282.424 125.465 284.776 121.961 285.832 119.825C286.072 119.393 286.432 118.529 286.576 117.905L288.784 118.649ZM307.528 135.161C307.528 133.817 307.528 123.209 307.528 121.217C307.528 120.521 307.48 119.465 307.36 118.697H309.712C309.616 119.441 309.544 120.473 309.544 121.217C309.544 124.937 309.568 134.033 309.568 135.161C309.568 135.929 309.616 137.225 309.712 138.017H307.384C307.504 137.249 307.528 136.049 307.528 135.161ZM309.112 125.009C312.28 125.921 317.128 127.769 319.792 129.065L318.952 131.105C316.216 129.641 311.728 127.937 309.112 127.121V125.009ZM324.926 137.273V119.818H331.318C332.557 119.818 333.582 120.023 334.395 120.432C335.207 120.835 335.815 121.384 336.219 122.077C336.622 122.764 336.824 123.54 336.824 124.403C336.824 125.131 336.69 125.744 336.423 126.244C336.156 126.739 335.798 127.136 335.349 127.437C334.906 127.733 334.418 127.949 333.883 128.085V128.256C334.463 128.284 335.028 128.472 335.579 128.818C336.136 129.159 336.597 129.645 336.96 130.276C337.324 130.906 337.506 131.673 337.506 132.577C337.506 133.469 337.295 134.27 336.875 134.98C336.46 135.685 335.818 136.244 334.949 136.659C334.079 137.068 332.969 137.273 331.616 137.273H324.926ZM327.56 135.014H331.361C332.622 135.014 333.525 134.77 334.071 134.281C334.616 133.793 334.889 133.182 334.889 132.449C334.889 131.898 334.75 131.392 334.472 130.932C334.193 130.472 333.795 130.105 333.278 129.832C332.767 129.56 332.159 129.423 331.454 129.423H327.56V135.014ZM327.56 127.369H331.088C331.679 127.369 332.21 127.256 332.682 127.028C333.159 126.801 333.537 126.483 333.815 126.074C334.099 125.659 334.241 125.17 334.241 124.608C334.241 123.886 333.989 123.281 333.483 122.793C332.977 122.304 332.202 122.06 331.156 122.06H327.56V127.369Z" fill="white"/>
<rect x="208" y="224" width="128" height="48" rx="19.2" fill="#FFCD29"/>
<path d="M256.916 240.704H269.276V248.672H267.5V242.408H256.916V240.704ZM255.572 247.832H271.268V249.56H255.572V247.832ZM261.644 236.888H263.444V245.096C263.444 250.304 262.7 255.512 255.908 258.968C255.596 258.608 254.924 257.984 254.468 257.696C260.972 254.48 261.644 249.824 261.644 245.072V236.888ZM264.308 248.648C265.388 252.824 267.74 256.016 271.46 257.432C271.052 257.792 270.476 258.488 270.212 258.992C266.3 257.264 263.9 253.808 262.652 249.056L264.308 248.648ZM250.388 238.352L251.396 237.056C252.908 237.704 254.804 238.784 255.716 239.624L254.684 241.088C253.772 240.224 251.924 239.072 250.388 238.352ZM249.116 244.88L250.1 243.536C251.636 244.112 253.58 245.144 254.54 245.936L253.508 247.424C252.572 246.608 250.676 245.528 249.116 244.88ZM249.788 257.432C250.988 255.584 252.668 252.392 253.916 249.656L255.308 250.76C254.156 253.304 252.644 256.328 251.348 258.584L249.788 257.432ZM279.476 239.36H294.596V240.968H279.476V239.36ZM282.524 248.96H291.668V250.52H282.524V248.96ZM282.428 252.824H291.692V254.384H282.428V252.824ZM286.076 236.864H287.924V240.128H286.076V236.864ZM290.78 247.568H292.556V258.92H290.78V247.568ZM290.3 240.224L292.004 240.704C289.772 244.76 284.972 246.8 279.668 247.928C279.5 247.52 279.068 246.752 278.756 246.368C283.892 245.528 288.452 243.728 290.3 240.224ZM273.932 238.352L274.94 237.056C276.452 237.704 278.348 238.784 279.26 239.624L278.228 241.088C277.316 240.224 275.468 239.072 273.932 238.352ZM272.66 244.88L273.644 243.536C275.18 244.112 277.124 245.144 278.084 245.936L277.052 247.424C276.116 246.608 274.22 245.528 272.66 244.88ZM273.38 257.432C274.604 255.584 276.356 252.392 277.652 249.656L279.02 250.76C277.844 253.304 276.26 256.352 274.94 258.584L273.38 257.432ZM281.54 247.544H283.268V250.688C283.268 253.28 282.836 256.76 279.836 259.16C279.5 258.848 278.828 258.392 278.396 258.152C281.18 255.992 281.54 252.896 281.54 250.664V247.544ZM283.268 240.152C286.004 243.872 289.94 245.168 295.052 246.104C294.644 246.512 294.236 247.16 294.044 247.712C288.812 246.584 284.732 245 281.804 240.776L283.268 240.152Z" fill="black" fill-opacity="0.8"/>
<rect x="368" y="96" width="160" height="192" rx="6" fill="#2171C1"/>
<rect x="384" y="160" width="128" height="48" rx="19.2" fill="#14AE5C"/>
<path d="M439.108 174.52H440.764C440.26 178.408 439.084 182.296 434.884 184.384C434.692 184 434.188 183.4 433.804 183.112C437.716 181.312 438.7 177.808 439.108 174.52ZM434.692 177.952L435.58 176.704C438.076 177.544 441.076 179.032 442.66 180.136L441.796 181.552C440.188 180.376 437.188 178.792 434.692 177.952ZM444.772 173.872H446.476C446.476 173.872 446.476 174.4 446.452 174.64C446.212 180.304 445.972 182.44 445.372 183.136C444.988 183.592 444.58 183.76 443.932 183.832C443.356 183.88 442.228 183.856 441.1 183.808C441.076 183.304 440.908 182.608 440.644 182.176C441.748 182.272 442.756 182.272 443.14 182.272C443.524 182.296 443.74 182.224 443.908 182.032C444.34 181.528 444.58 179.608 444.772 174.184V173.872ZM437.404 186.664H439.084V192.448C439.084 193.048 439.18 193.144 439.852 193.144C440.164 193.144 441.724 193.144 442.108 193.144C442.756 193.144 442.852 192.808 442.924 190.408C443.26 190.696 443.98 190.936 444.46 191.08C444.268 194.008 443.812 194.752 442.3 194.752C441.916 194.752 440.02 194.752 439.636 194.752C437.812 194.752 437.404 194.248 437.404 192.472V186.664ZM435.124 187.48L436.588 187.84C436.324 189.976 435.82 192.304 434.548 193.648L433.204 192.76C434.356 191.584 434.884 189.472 435.124 187.48ZM437.812 184.456L438.868 183.4C440.452 184.24 442.3 185.536 443.188 186.544L442.06 187.768C441.196 186.76 439.372 185.368 437.812 184.456ZM443.404 187.648L444.892 187.048C446.188 188.8 447.268 191.152 447.628 192.784L446.02 193.456C445.708 191.824 444.652 189.4 443.404 187.648ZM434.908 173.872H445.516V175.432H434.908V173.872ZM426.22 180.112H433.036V181.552H426.22V180.112ZM426.316 173.704H432.94V175.144H426.316V173.704ZM426.22 183.328H433.036V184.768H426.22V183.328ZM425.14 176.848H433.708V178.336H425.14V176.848ZM427.012 186.568H433.036V193.576H427.012V192.064H431.476V188.056H427.012V186.568ZM426.196 186.568H427.732V194.68H426.196V186.568ZM458.212 174.304H470.5V176.032H458.212V174.304ZM457.42 192.4H470.884V194.104H457.42V192.4ZM464.812 182.656H470.356V184.384H464.812V182.656ZM463.804 174.976H465.58V193.36H463.804V174.976ZM459.22 180.328H460.924V193.168H459.22V180.328ZM449.812 180.256H456.58V181.672H449.812V180.256ZM449.956 173.704H456.556V175.144H449.956V173.704ZM449.812 183.52H456.58V184.96H449.812V183.52ZM448.684 176.92H457.42V178.408H448.684V176.92ZM450.676 186.808H456.676V193.816H450.676V192.328H455.092V188.32H450.676V186.808ZM449.788 186.808H451.348V194.92H449.788V186.808Z" fill="white"/>
<path d="M399.636 120.041C399.636 120.929 400.332 121.625 401.22 121.625C402.084 121.625 402.804 120.929 402.804 120.041C402.804 119.177 402.084 118.457 401.22 118.457C400.332 118.457 399.636 119.177 399.636 120.041ZM398.532 120.041C398.532 118.553 399.732 117.353 401.22 117.353C402.708 117.353 403.908 118.553 403.908 120.041C403.908 121.529 402.708 122.729 401.22 122.729C399.732 122.729 398.532 121.529 398.532 120.041ZM400.62 121.649C400.452 121.985 400.356 122.393 400.26 122.849C399.732 125.369 398.58 129.257 396.66 131.705C394.476 134.537 391.62 136.745 387.228 138.137L385.596 136.337C390.252 135.161 392.94 133.121 394.956 130.553C396.66 128.393 397.764 125.033 398.1 122.729C396.708 122.729 387.204 122.729 385.812 122.729C384.852 122.729 384.036 122.777 383.436 122.825V120.689C384.084 120.761 385.044 120.857 385.836 120.857C387.204 120.857 396.78 120.857 397.86 120.857C398.244 120.857 398.7 120.833 399.156 120.713L400.62 121.649ZM407.364 120.833C408.3 120.881 408.924 120.881 409.5 120.881C410.772 120.881 421.212 120.881 422.388 120.881C422.892 120.881 423.756 120.881 424.5 120.857C424.452 121.433 424.452 122.105 424.452 122.705C424.452 123.833 424.452 133.625 424.452 134.537C424.452 135.305 424.476 137.177 424.5 137.441H422.412C422.436 137.177 422.46 135.809 422.46 134.801C422.46 133.913 422.46 122.777 422.46 122.777H409.356C409.356 122.777 409.356 133.817 409.356 134.801C409.356 135.593 409.38 137.129 409.38 137.441H407.34C407.34 137.129 407.388 135.377 407.388 134.537C407.388 133.553 407.388 123.641 407.388 122.705C407.388 122.153 407.388 121.433 407.364 120.833ZM423.252 134.201V136.073H408.396V134.201H423.252ZM445.764 117.929C446.364 118.793 447.228 120.257 447.708 121.217L446.412 121.793C445.932 120.833 445.116 119.393 444.468 118.481L445.764 117.929ZM448.38 116.969C449.028 117.857 449.94 119.345 450.396 120.233L449.1 120.809C448.572 119.777 447.804 118.409 447.132 117.521L448.38 116.969ZM436.596 126.857C439.668 128.633 443.628 131.393 445.98 133.337L444.588 134.993C442.356 132.977 438.276 130.025 435.3 128.177L436.596 126.857ZM447.564 122.465C447.372 122.801 447.156 123.377 447.012 123.761C446.292 126.209 444.78 129.377 442.668 131.993C440.508 134.657 437.364 137.225 432.804 138.905L431.1 137.417C435.564 136.049 438.828 133.505 440.988 130.937C442.86 128.729 444.372 125.681 444.924 123.449H436.02L436.788 121.745H444.42C445.068 121.745 445.596 121.649 445.98 121.505L447.564 122.465ZM439.476 119.009C439.068 119.633 438.66 120.449 438.42 120.881C436.98 123.521 434.268 127.169 430.452 129.809L428.844 128.561C432.948 125.993 435.42 122.393 436.524 120.209C436.764 119.777 437.172 118.913 437.316 118.313L439.476 119.009ZM471.852 122.273C471.66 122.609 471.42 123.161 471.3 123.545C470.652 125.969 469.188 129.209 467.052 131.825C464.868 134.489 461.988 136.673 457.5 138.353L455.748 136.769C460.164 135.473 463.14 133.313 465.348 130.745C467.196 128.561 468.684 125.441 469.164 123.257H460.284L461.052 121.529C462.012 121.529 467.94 121.529 468.684 121.529C469.332 121.529 469.884 121.457 470.268 121.313L471.852 122.273ZM463.812 118.649C463.428 119.273 462.996 120.089 462.756 120.521C461.34 123.185 458.844 126.617 454.98 129.161L453.3 127.937C457.452 125.465 459.804 121.961 460.86 119.825C461.1 119.393 461.46 118.529 461.604 117.905L463.812 118.649ZM482.556 135.161C482.556 133.817 482.556 123.209 482.556 121.217C482.556 120.521 482.508 119.465 482.388 118.697H484.74C484.644 119.441 484.572 120.473 484.572 121.217C484.572 124.937 484.596 134.033 484.596 135.161C484.596 135.929 484.644 137.225 484.74 138.017H482.412C482.532 137.249 482.556 136.049 482.556 135.161ZM484.14 125.009C487.308 125.921 492.156 127.769 494.82 129.065L493.98 131.105C491.244 129.641 486.756 127.937 484.14 127.121V125.009ZM514.451 125.494H511.791C511.689 124.926 511.499 124.426 511.22 123.994C510.942 123.562 510.601 123.196 510.198 122.895C509.794 122.594 509.343 122.366 508.843 122.213C508.348 122.06 507.823 121.983 507.266 121.983C506.26 121.983 505.36 122.236 504.564 122.741C503.774 123.247 503.149 123.989 502.689 124.966C502.235 125.943 502.007 127.136 502.007 128.545C502.007 129.966 502.235 131.165 502.689 132.142C503.149 133.119 503.777 133.858 504.573 134.358C505.368 134.858 506.263 135.108 507.257 135.108C507.809 135.108 508.331 135.034 508.826 134.886C509.326 134.733 509.777 134.509 510.181 134.213C510.584 133.918 510.925 133.557 511.203 133.131C511.487 132.699 511.684 132.205 511.791 131.648L514.451 131.656C514.309 132.514 514.033 133.304 513.624 134.026C513.22 134.741 512.701 135.361 512.064 135.884C511.434 136.401 510.712 136.801 509.899 137.085C509.087 137.369 508.201 137.511 507.24 137.511C505.729 137.511 504.382 137.153 503.201 136.437C502.019 135.716 501.087 134.685 500.405 133.344C499.729 132.003 499.391 130.403 499.391 128.545C499.391 126.682 499.732 125.082 500.414 123.747C501.095 122.406 502.027 121.378 503.209 120.662C504.391 119.94 505.735 119.58 507.24 119.58C508.166 119.58 509.03 119.713 509.831 119.98C510.638 120.241 511.362 120.628 512.005 121.139C512.647 121.645 513.178 122.264 513.598 122.997C514.019 123.724 514.303 124.557 514.451 125.494Z" fill="white"/>
<rect x="384" y="224" width="128" height="48" rx="19.2" fill="#FFCD29"/>
<path d="M432.916 240.704H445.276V248.672H443.5V242.408H432.916V240.704ZM431.572 247.832H447.268V249.56H431.572V247.832ZM437.644 236.888H439.444V245.096C439.444 250.304 438.7 255.512 431.908 258.968C431.596 258.608 430.924 257.984 430.468 257.696C436.972 254.48 437.644 249.824 437.644 245.072V236.888ZM440.308 248.648C441.388 252.824 443.74 256.016 447.46 257.432C447.052 257.792 446.476 258.488 446.212 258.992C442.3 257.264 439.9 253.808 438.652 249.056L440.308 248.648ZM426.388 238.352L427.396 237.056C428.908 237.704 430.804 238.784 431.716 239.624L430.684 241.088C429.772 240.224 427.924 239.072 426.388 238.352ZM425.116 244.88L426.1 243.536C427.636 244.112 429.58 245.144 430.54 245.936L429.508 247.424C428.572 246.608 426.676 245.528 425.116 244.88ZM425.788 257.432C426.988 255.584 428.668 252.392 429.916 249.656L431.308 250.76C430.156 253.304 428.644 256.328 427.348 258.584L425.788 257.432ZM455.476 239.36H470.596V240.968H455.476V239.36ZM458.524 248.96H467.668V250.52H458.524V248.96ZM458.428 252.824H467.692V254.384H458.428V252.824ZM462.076 236.864H463.924V240.128H462.076V236.864ZM466.78 247.568H468.556V258.92H466.78V247.568ZM466.3 240.224L468.004 240.704C465.772 244.76 460.972 246.8 455.668 247.928C455.5 247.52 455.068 246.752 454.756 246.368C459.892 245.528 464.452 243.728 466.3 240.224ZM449.932 238.352L450.94 237.056C452.452 237.704 454.348 238.784 455.26 239.624L454.228 241.088C453.316 240.224 451.468 239.072 449.932 238.352ZM448.66 244.88L449.644 243.536C451.18 244.112 453.124 245.144 454.084 245.936L453.052 247.424C452.116 246.608 450.22 245.528 448.66 244.88ZM449.38 257.432C450.604 255.584 452.356 252.392 453.652 249.656L455.02 250.76C453.844 253.304 452.26 256.352 450.94 258.584L449.38 257.432ZM457.54 247.544H459.268V250.688C459.268 253.28 458.836 256.76 455.836 259.16C455.5 258.848 454.828 258.392 454.396 258.152C457.18 255.992 457.54 252.896 457.54 250.664V247.544ZM459.268 240.152C462.004 243.872 465.94 245.168 471.052 246.104C470.644 246.512 470.236 247.16 470.044 247.712C464.812 246.584 460.732 245 457.804 240.776L459.268 240.152Z" fill="black" fill-opacity="0.8"/>
<rect x="576" y="96" width="160" height="64" rx="6" fill="#2171C1"/>
<rect x="592" y="224" width="128" height="48" rx="19.2" fill="#14AE5C"/>
<path d="M647.108 238.52H648.764C648.26 242.408 647.084 246.296 642.884 248.384C642.692 248 642.188 247.4 641.804 247.112C645.716 245.312 646.7 241.808 647.108 238.52ZM642.692 241.952L643.58 240.704C646.076 241.544 649.076 243.032 650.66 244.136L649.796 245.552C648.188 244.376 645.188 242.792 642.692 241.952ZM652.772 237.872H654.476C654.476 237.872 654.476 238.4 654.452 238.64C654.212 244.304 653.972 246.44 653.372 247.136C652.988 247.592 652.58 247.76 651.932 247.832C651.356 247.88 650.228 247.856 649.1 247.808C649.076 247.304 648.908 246.608 648.644 246.176C649.748 246.272 650.756 246.272 651.14 246.272C651.524 246.296 651.74 246.224 651.908 246.032C652.34 245.528 652.58 243.608 652.772 238.184V237.872ZM645.404 250.664H647.084V256.448C647.084 257.048 647.18 257.144 647.852 257.144C648.164 257.144 649.724 257.144 650.108 257.144C650.756 257.144 650.852 256.808 650.924 254.408C651.26 254.696 651.98 254.936 652.46 255.08C652.268 258.008 651.812 258.752 650.3 258.752C649.916 258.752 648.02 258.752 647.636 258.752C645.812 258.752 645.404 258.248 645.404 256.472V250.664ZM643.124 251.48L644.588 251.84C644.324 253.976 643.82 256.304 642.548 257.648L641.204 256.76C642.356 255.584 642.884 253.472 643.124 251.48ZM645.812 248.456L646.868 247.4C648.452 248.24 650.3 249.536 651.188 250.544L650.06 251.768C649.196 250.76 647.372 249.368 645.812 248.456ZM651.404 251.648L652.892 251.048C654.188 252.8 655.268 255.152 655.628 256.784L654.02 257.456C653.708 255.824 652.652 253.4 651.404 251.648ZM642.908 237.872H653.516V239.432H642.908V237.872ZM634.22 244.112H641.036V245.552H634.22V244.112ZM634.316 237.704H640.94V239.144H634.316V237.704ZM634.22 247.328H641.036V248.768H634.22V247.328ZM633.14 240.848H641.708V242.336H633.14V240.848ZM635.012 250.568H641.036V257.576H635.012V256.064H639.476V252.056H635.012V250.568ZM634.196 250.568H635.732V258.68H634.196V250.568ZM666.212 238.304H678.5V240.032H666.212V238.304ZM665.42 256.4H678.884V258.104H665.42V256.4ZM672.812 246.656H678.356V248.384H672.812V246.656ZM671.804 238.976H673.58V257.36H671.804V238.976ZM667.22 244.328H668.924V257.168H667.22V244.328ZM657.812 244.256H664.58V245.672H657.812V244.256ZM657.956 237.704H664.556V239.144H657.956V237.704ZM657.812 247.52H664.58V248.96H657.812V247.52ZM656.684 240.92H665.42V242.408H656.684V240.92ZM658.676 250.808H664.676V257.816H658.676V256.328H663.092V252.32H658.676V250.808ZM657.788 250.808H659.348V258.92H657.788V250.808Z" fill="white"/>
<path d="M608.058 120.041C608.058 120.929 608.754 121.625 609.642 121.625C610.506 121.625 611.226 120.929 611.226 120.041C611.226 119.177 610.506 118.457 609.642 118.457C608.754 118.457 608.058 119.177 608.058 120.041ZM606.954 120.041C606.954 118.553 608.154 117.353 609.642 117.353C611.13 117.353 612.33 118.553 612.33 120.041C612.33 121.529 611.13 122.729 609.642 122.729C608.154 122.729 606.954 121.529 606.954 120.041ZM609.042 121.649C608.874 121.985 608.778 122.393 608.682 122.849C608.154 125.369 607.002 129.257 605.082 131.705C602.898 134.537 600.042 136.745 595.65 138.137L594.018 136.337C598.674 135.161 601.362 133.121 603.378 130.553C605.082 128.393 606.186 125.033 606.522 122.729C605.13 122.729 595.626 122.729 594.234 122.729C593.274 122.729 592.458 122.777 591.858 122.825V120.689C592.506 120.761 593.466 120.857 594.258 120.857C595.626 120.857 605.202 120.857 606.282 120.857C606.666 120.857 607.122 120.833 607.578 120.713L609.042 121.649ZM615.786 120.833C616.722 120.881 617.346 120.881 617.922 120.881C619.194 120.881 629.634 120.881 630.81 120.881C631.314 120.881 632.178 120.881 632.922 120.857C632.874 121.433 632.874 122.105 632.874 122.705C632.874 123.833 632.874 133.625 632.874 134.537C632.874 135.305 632.898 137.177 632.922 137.441H630.834C630.858 137.177 630.882 135.809 630.882 134.801C630.882 133.913 630.882 122.777 630.882 122.777H617.778C617.778 122.777 617.778 133.817 617.778 134.801C617.778 135.593 617.802 137.129 617.802 137.441H615.762C615.762 137.129 615.81 135.377 615.81 134.537C615.81 133.553 615.81 123.641 615.81 122.705C615.81 122.153 615.81 121.433 615.786 120.833ZM631.674 134.201V136.073H616.818V134.201H631.674ZM654.186 117.929C654.786 118.793 655.65 120.257 656.13 121.217L654.834 121.793C654.354 120.833 653.538 119.393 652.89 118.481L654.186 117.929ZM656.802 116.969C657.45 117.857 658.362 119.345 658.818 120.233L657.522 120.809C656.994 119.777 656.226 118.409 655.554 117.521L656.802 116.969ZM645.018 126.857C648.09 128.633 652.05 131.393 654.402 133.337L653.01 134.993C650.778 132.977 646.698 130.025 643.722 128.177L645.018 126.857ZM655.986 122.465C655.794 122.801 655.578 123.377 655.434 123.761C654.714 126.209 653.202 129.377 651.09 131.993C648.93 134.657 645.786 137.225 641.226 138.905L639.522 137.417C643.986 136.049 647.25 133.505 649.41 130.937C651.282 128.729 652.794 125.681 653.346 123.449H644.442L645.21 121.745H652.842C653.49 121.745 654.018 121.649 654.402 121.505L655.986 122.465ZM647.898 119.009C647.49 119.633 647.082 120.449 646.842 120.881C645.402 123.521 642.69 127.169 638.874 129.809L637.266 128.561C641.37 125.993 643.842 122.393 644.946 120.209C645.186 119.777 645.594 118.913 645.738 118.313L647.898 119.009ZM680.274 122.273C680.082 122.609 679.842 123.161 679.722 123.545C679.074 125.969 677.61 129.209 675.474 131.825C673.29 134.489 670.41 136.673 665.922 138.353L664.17 136.769C668.586 135.473 671.562 133.313 673.77 130.745C675.618 128.561 677.106 125.441 677.586 123.257H668.706L669.474 121.529C670.434 121.529 676.362 121.529 677.106 121.529C677.754 121.529 678.306 121.457 678.69 121.313L680.274 122.273ZM672.234 118.649C671.85 119.273 671.418 120.089 671.178 120.521C669.762 123.185 667.266 126.617 663.402 129.161L661.722 127.937C665.874 125.465 668.226 121.961 669.282 119.825C669.522 119.393 669.882 118.529 670.026 117.905L672.234 118.649ZM690.978 135.161C690.978 133.817 690.978 123.209 690.978 121.217C690.978 120.521 690.93 119.465 690.81 118.697H693.162C693.066 119.441 692.994 120.473 692.994 121.217C692.994 124.937 693.018 134.033 693.018 135.161C693.018 135.929 693.066 137.225 693.162 138.017H690.834C690.954 137.249 690.978 136.049 690.978 135.161ZM692.562 125.009C695.73 125.921 700.578 127.769 703.242 129.065L702.402 131.105C699.666 129.641 695.178 127.937 692.562 127.121V125.009ZM709.85 137.273H707.054L713.335 119.818H716.378L722.659 137.273H719.864L714.929 122.989H714.793L709.85 137.273ZM710.318 130.437H719.387V132.653H710.318V130.437Z" fill="white"/>
<rect x="752" y="96" width="160" height="64" rx="6" fill="#2171C1"/>
<path d="M784.608 120.041C784.608 120.929 785.304 121.625 786.192 121.625C787.056 121.625 787.776 120.929 787.776 120.041C787.776 119.177 787.056 118.457 786.192 118.457C785.304 118.457 784.608 119.177 784.608 120.041ZM783.504 120.041C783.504 118.553 784.704 117.353 786.192 117.353C787.68 117.353 788.88 118.553 788.88 120.041C788.88 121.529 787.68 122.729 786.192 122.729C784.704 122.729 783.504 121.529 783.504 120.041ZM785.592 121.649C785.424 121.985 785.328 122.393 785.232 122.849C784.704 125.369 783.552 129.257 781.632 131.705C779.448 134.537 776.592 136.745 772.2 138.137L770.568 136.337C775.224 135.161 777.912 133.121 779.928 130.553C781.632 128.393 782.736 125.033 783.072 122.729C781.68 122.729 772.176 122.729 770.784 122.729C769.824 122.729 769.008 122.777 768.408 122.825V120.689C769.056 120.761 770.016 120.857 770.808 120.857C772.176 120.857 781.752 120.857 782.832 120.857C783.216 120.857 783.672 120.833 784.128 120.713L785.592 121.649ZM792.336 120.833C793.272 120.881 793.896 120.881 794.472 120.881C795.744 120.881 806.184 120.881 807.36 120.881C807.864 120.881 808.728 120.881 809.472 120.857C809.424 121.433 809.424 122.105 809.424 122.705C809.424 123.833 809.424 133.625 809.424 134.537C809.424 135.305 809.448 137.177 809.472 137.441H807.384C807.408 137.177 807.432 135.809 807.432 134.801C807.432 133.913 807.432 122.777 807.432 122.777H794.328C794.328 122.777 794.328 133.817 794.328 134.801C794.328 135.593 794.352 137.129 794.352 137.441H792.312C792.312 137.129 792.36 135.377 792.36 134.537C792.36 133.553 792.36 123.641 792.36 122.705C792.36 122.153 792.36 121.433 792.336 120.833ZM808.224 134.201V136.073H793.368V134.201H808.224ZM830.736 117.929C831.336 118.793 832.2 120.257 832.68 121.217L831.384 121.793C830.904 120.833 830.088 119.393 829.44 118.481L830.736 117.929ZM833.352 116.969C834 117.857 834.912 119.345 835.368 120.233L834.072 120.809C833.544 119.777 832.776 118.409 832.104 117.521L833.352 116.969ZM821.568 126.857C824.64 128.633 828.6 131.393 830.952 133.337L829.56 134.993C827.328 132.977 823.248 130.025 820.272 128.177L821.568 126.857ZM832.536 122.465C832.344 122.801 832.128 123.377 831.984 123.761C831.264 126.209 829.752 129.377 827.64 131.993C825.48 134.657 822.336 137.225 817.776 138.905L816.072 137.417C820.536 136.049 823.8 133.505 825.96 130.937C827.832 128.729 829.344 125.681 829.896 123.449H820.992L821.76 121.745H829.392C830.04 121.745 830.568 121.649 830.952 121.505L832.536 122.465ZM824.448 119.009C824.04 119.633 823.632 120.449 823.392 120.881C821.952 123.521 819.24 127.169 815.424 129.809L813.816 128.561C817.92 125.993 820.392 122.393 821.496 120.209C821.736 119.777 822.144 118.913 822.288 118.313L824.448 119.009ZM856.824 122.273C856.632 122.609 856.392 123.161 856.272 123.545C855.624 125.969 854.16 129.209 852.024 131.825C849.84 134.489 846.96 136.673 842.472 138.353L840.72 136.769C845.136 135.473 848.112 133.313 850.32 130.745C852.168 128.561 853.656 125.441 854.136 123.257H845.256L846.024 121.529C846.984 121.529 852.912 121.529 853.656 121.529C854.304 121.529 854.856 121.457 855.24 121.313L856.824 122.273ZM848.784 118.649C848.4 119.273 847.968 120.089 847.728 120.521C846.312 123.185 843.816 126.617 839.952 129.161L838.272 127.937C842.424 125.465 844.776 121.961 845.832 119.825C846.072 119.393 846.432 118.529 846.576 117.905L848.784 118.649ZM867.528 135.161C867.528 133.817 867.528 123.209 867.528 121.217C867.528 120.521 867.48 119.465 867.36 118.697H869.712C869.616 119.441 869.544 120.473 869.544 121.217C869.544 124.937 869.568 134.033 869.568 135.161C869.568 135.929 869.616 137.225 869.712 138.017H867.384C867.504 137.249 867.528 136.049 867.528 135.161ZM869.112 125.009C872.28 125.921 877.128 127.769 879.792 129.065L878.952 131.105C876.216 129.641 871.728 127.937 869.112 127.121V125.009ZM884.926 137.273V119.818H891.318C892.557 119.818 893.582 120.023 894.395 120.432C895.207 120.835 895.815 121.384 896.219 122.077C896.622 122.764 896.824 123.54 896.824 124.403C896.824 125.131 896.69 125.744 896.423 126.244C896.156 126.739 895.798 127.136 895.349 127.437C894.906 127.733 894.418 127.949 893.883 128.085V128.256C894.463 128.284 895.028 128.472 895.579 128.818C896.136 129.159 896.597 129.645 896.96 130.276C897.324 130.906 897.506 131.673 897.506 132.577C897.506 133.469 897.295 134.27 896.875 134.98C896.46 135.685 895.818 136.244 894.949 136.659C894.079 137.068 892.969 137.273 891.616 137.273H884.926ZM887.56 135.014H891.361C892.622 135.014 893.525 134.77 894.071 134.281C894.616 133.793 894.889 133.182 894.889 132.449C894.889 131.898 894.75 131.392 894.472 130.932C894.193 130.472 893.795 130.105 893.278 129.832C892.767 129.56 892.159 129.423 891.454 129.423H887.56V135.014ZM887.56 127.369H891.088C891.679 127.369 892.21 127.256 892.682 127.028C893.159 126.801 893.537 126.483 893.815 126.074C894.099 125.659 894.241 125.17 894.241 124.608C894.241 123.886 893.989 123.281 893.483 122.793C892.977 122.304 892.202 122.06 891.156 122.06H887.56V127.369Z" fill="white"/>
<rect x="928" y="96" width="160" height="64" rx="6" fill="#2171C1"/>
<path d="M959.636 120.041C959.636 120.929 960.332 121.625 961.22 121.625C962.084 121.625 962.804 120.929 962.804 120.041C962.804 119.177 962.084 118.457 961.22 118.457C960.332 118.457 959.636 119.177 959.636 120.041ZM958.532 120.041C958.532 118.553 959.732 117.353 961.22 117.353C962.708 117.353 963.908 118.553 963.908 120.041C963.908 121.529 962.708 122.729 961.22 122.729C959.732 122.729 958.532 121.529 958.532 120.041ZM960.62 121.649C960.452 121.985 960.356 122.393 960.26 122.849C959.732 125.369 958.58 129.257 956.66 131.705C954.476 134.537 951.62 136.745 947.228 138.137L945.596 136.337C950.252 135.161 952.94 133.121 954.956 130.553C956.66 128.393 957.764 125.033 958.1 122.729C956.708 122.729 947.204 122.729 945.812 122.729C944.852 122.729 944.036 122.777 943.436 122.825V120.689C944.084 120.761 945.044 120.857 945.836 120.857C947.204 120.857 956.78 120.857 957.86 120.857C958.244 120.857 958.7 120.833 959.156 120.713L960.62 121.649ZM967.364 120.833C968.3 120.881 968.924 120.881 969.5 120.881C970.772 120.881 981.212 120.881 982.388 120.881C982.892 120.881 983.756 120.881 984.5 120.857C984.452 121.433 984.452 122.105 984.452 122.705C984.452 123.833 984.452 133.625 984.452 134.537C984.452 135.305 984.476 137.177 984.5 137.441H982.412C982.436 137.177 982.46 135.809 982.46 134.801C982.46 133.913 982.46 122.777 982.46 122.777H969.356C969.356 122.777 969.356 133.817 969.356 134.801C969.356 135.593 969.38 137.129 969.38 137.441H967.34C967.34 137.129 967.388 135.377 967.388 134.537C967.388 133.553 967.388 123.641 967.388 122.705C967.388 122.153 967.388 121.433 967.364 120.833ZM983.252 134.201V136.073H968.396V134.201H983.252ZM1005.76 117.929C1006.36 118.793 1007.23 120.257 1007.71 121.217L1006.41 121.793C1005.93 120.833 1005.12 119.393 1004.47 118.481L1005.76 117.929ZM1008.38 116.969C1009.03 117.857 1009.94 119.345 1010.4 120.233L1009.1 120.809C1008.57 119.777 1007.8 118.409 1007.13 117.521L1008.38 116.969ZM996.596 126.857C999.668 128.633 1003.63 131.393 1005.98 133.337L1004.59 134.993C1002.36 132.977 998.276 130.025 995.3 128.177L996.596 126.857ZM1007.56 122.465C1007.37 122.801 1007.16 123.377 1007.01 123.761C1006.29 126.209 1004.78 129.377 1002.67 131.993C1000.51 134.657 997.364 137.225 992.804 138.905L991.1 137.417C995.564 136.049 998.828 133.505 1000.99 130.937C1002.86 128.729 1004.37 125.681 1004.92 123.449H996.02L996.788 121.745H1004.42C1005.07 121.745 1005.6 121.649 1005.98 121.505L1007.56 122.465ZM999.476 119.009C999.068 119.633 998.66 120.449 998.42 120.881C996.98 123.521 994.268 127.169 990.452 129.809L988.844 128.561C992.948 125.993 995.42 122.393 996.524 120.209C996.764 119.777 997.172 118.913 997.316 118.313L999.476 119.009ZM1031.85 122.273C1031.66 122.609 1031.42 123.161 1031.3 123.545C1030.65 125.969 1029.19 129.209 1027.05 131.825C1024.87 134.489 1021.99 136.673 1017.5 138.353L1015.75 136.769C1020.16 135.473 1023.14 133.313 1025.35 130.745C1027.2 128.561 1028.68 125.441 1029.16 123.257H1020.28L1021.05 121.529C1022.01 121.529 1027.94 121.529 1028.68 121.529C1029.33 121.529 1029.88 121.457 1030.27 121.313L1031.85 122.273ZM1023.81 118.649C1023.43 119.273 1023 120.089 1022.76 120.521C1021.34 123.185 1018.84 126.617 1014.98 129.161L1013.3 127.937C1017.45 125.465 1019.8 121.961 1020.86 119.825C1021.1 119.393 1021.46 118.529 1021.6 117.905L1023.81 118.649ZM1042.56 135.161C1042.56 133.817 1042.56 123.209 1042.56 121.217C1042.56 120.521 1042.51 119.465 1042.39 118.697H1044.74C1044.64 119.441 1044.57 120.473 1044.57 121.217C1044.57 124.937 1044.6 134.033 1044.6 135.161C1044.6 135.929 1044.64 137.225 1044.74 138.017H1042.41C1042.53 137.249 1042.56 136.049 1042.56 135.161ZM1044.14 125.009C1047.31 125.921 1052.16 127.769 1054.82 129.065L1053.98 131.105C1051.24 129.641 1046.76 127.937 1044.14 127.121V125.009ZM1074.45 125.494H1071.79C1071.69 124.926 1071.5 124.426 1071.22 123.994C1070.94 123.562 1070.6 123.196 1070.2 122.895C1069.79 122.594 1069.34 122.366 1068.84 122.213C1068.35 122.06 1067.82 121.983 1067.27 121.983C1066.26 121.983 1065.36 122.236 1064.56 122.741C1063.77 123.247 1063.15 123.989 1062.69 124.966C1062.23 125.943 1062.01 127.136 1062.01 128.545C1062.01 129.966 1062.23 131.165 1062.69 132.142C1063.15 133.119 1063.78 133.858 1064.57 134.358C1065.37 134.858 1066.26 135.108 1067.26 135.108C1067.81 135.108 1068.33 135.034 1068.83 134.886C1069.33 134.733 1069.78 134.509 1070.18 134.213C1070.58 133.918 1070.92 133.557 1071.2 133.131C1071.49 132.699 1071.68 132.205 1071.79 131.648L1074.45 131.656C1074.31 132.514 1074.03 133.304 1073.62 134.026C1073.22 134.741 1072.7 135.361 1072.06 135.884C1071.43 136.401 1070.71 136.801 1069.9 137.085C1069.09 137.369 1068.2 137.511 1067.24 137.511C1065.73 137.511 1064.38 137.153 1063.2 136.437C1062.02 135.716 1061.09 134.685 1060.41 133.344C1059.73 132.003 1059.39 130.403 1059.39 128.545C1059.39 126.682 1059.73 125.082 1060.41 123.747C1061.1 122.406 1062.03 121.378 1063.21 120.662C1064.39 119.94 1065.73 119.58 1067.24 119.58C1068.17 119.58 1069.03 119.713 1069.83 119.98C1070.64 120.241 1071.36 120.628 1072 121.139C1072.65 121.645 1073.18 122.264 1073.6 122.997C1074.02 123.724 1074.3 124.557 1074.45 125.494Z" fill="white"/>
<rect x="944" y="224" width="128" height="48" rx="19.2" fill="#FFCD29"/>
<path d="M992.916 240.704H1005.28V248.672H1003.5V242.408H992.916V240.704ZM991.572 247.832H1007.27V249.56H991.572V247.832ZM997.644 236.888H999.444V245.096C999.444 250.304 998.7 255.512 991.908 258.968C991.596 258.608 990.924 257.984 990.468 257.696C996.972 254.48 997.644 249.824 997.644 245.072V236.888ZM1000.31 248.648C1001.39 252.824 1003.74 256.016 1007.46 257.432C1007.05 257.792 1006.48 258.488 1006.21 258.992C1002.3 257.264 999.9 253.808 998.652 249.056L1000.31 248.648ZM986.388 238.352L987.396 237.056C988.908 237.704 990.804 238.784 991.716 239.624L990.684 241.088C989.772 240.224 987.924 239.072 986.388 238.352ZM985.116 244.88L986.1 243.536C987.636 244.112 989.58 245.144 990.54 245.936L989.508 247.424C988.572 246.608 986.676 245.528 985.116 244.88ZM985.788 257.432C986.988 255.584 988.668 252.392 989.916 249.656L991.308 250.76C990.156 253.304 988.644 256.328 987.348 258.584L985.788 257.432ZM1015.48 239.36H1030.6V240.968H1015.48V239.36ZM1018.52 248.96H1027.67V250.52H1018.52V248.96ZM1018.43 252.824H1027.69V254.384H1018.43V252.824ZM1022.08 236.864H1023.92V240.128H1022.08V236.864ZM1026.78 247.568H1028.56V258.92H1026.78V247.568ZM1026.3 240.224L1028 240.704C1025.77 244.76 1020.97 246.8 1015.67 247.928C1015.5 247.52 1015.07 246.752 1014.76 246.368C1019.89 245.528 1024.45 243.728 1026.3 240.224ZM1009.93 238.352L1010.94 237.056C1012.45 237.704 1014.35 238.784 1015.26 239.624L1014.23 241.088C1013.32 240.224 1011.47 239.072 1009.93 238.352ZM1008.66 244.88L1009.64 243.536C1011.18 244.112 1013.12 245.144 1014.08 245.936L1013.05 247.424C1012.12 246.608 1010.22 245.528 1008.66 244.88ZM1009.38 257.432C1010.6 255.584 1012.36 252.392 1013.65 249.656L1015.02 250.76C1013.84 253.304 1012.26 256.352 1010.94 258.584L1009.38 257.432ZM1017.54 247.544H1019.27V250.688C1019.27 253.28 1018.84 256.76 1015.84 259.16C1015.5 258.848 1014.83 258.392 1014.4 258.152C1017.18 255.992 1017.54 252.896 1017.54 250.664V247.544ZM1019.27 240.152C1022 243.872 1025.94 245.168 1031.05 246.104C1030.64 246.512 1030.24 247.16 1030.04 247.712C1024.81 246.584 1020.73 245 1017.8 240.776L1019.27 240.152Z" fill="black" fill-opacity="0.8"/>
<path d="M657.5 164C657.5 163.172 656.828 162.5 656 162.5C655.172 162.5 654.5 163.172 654.5 164H657.5ZM649.34 205C648.511 205 647.926 206.015 648.34 206.732L655 218.268C655.414 218.985 656.586 218.985 657 218.268L663.66 206.732C664.074 206.015 663.489 205 662.66 205H649.34ZM654.5 164V206.5H657.5V164H654.5Z" fill="#14AE5C"/>
<path d="M833.5 164C833.5 163.172 832.828 162.5 832 162.5C831.172 162.5 830.5 163.172 830.5 164H833.5ZM649.34 205C648.511 205 647.926 206.015 648.34 206.732L655 218.268C655.414 218.985 656.586 218.985 657 218.268L663.66 206.732C664.074 206.015 663.489 205 662.66 205H649.34ZM832 164H833.5H832ZM820 174.5H680V177.5H820V174.5ZM654.5 200V206.5H657.5V200H654.5ZM680 174.5C665.917 174.5 654.5 185.917 654.5 200H657.5C657.5 187.574 667.574 177.5 680 177.5V174.5ZM830.5 164C830.5 169.799 825.799 174.5 820 174.5V177.5C827.456 177.5 833.5 171.456 833.5 164H830.5Z" fill="#14AE5C"/>
<path d="M833.5 164C833.5 163.172 832.828 162.5 832 162.5C831.172 162.5 830.5 163.172 830.5 164H833.5ZM1001.34 205C1000.51 205 999.926 206.015 1000.34 206.732L1007 218.268C1007.41 218.985 1008.59 218.985 1009 218.268L1015.66 206.732C1016.07 206.015 1015.49 205 1014.66 205H1001.34ZM830.5 164V168H833.5V164H830.5ZM856 193.5H984V190.5H856V193.5ZM984 193.5C996.426 193.5 1006.5 203.574 1006.5 216H1009.5C1009.5 201.917 998.083 190.5 984 190.5V193.5ZM830.5 168C830.5 182.083 841.917 193.5 856 193.5V190.5C843.574 190.5 833.5 180.426 833.5 168H830.5Z" fill="#FFCD29"/>
<path d="M1009.5 164C1009.5 163.172 1008.83 162.5 1008 162.5C1007.17 162.5 1006.5 163.172 1006.5 164H1009.5ZM1001.34 205C1000.51 205 999.926 206.015 1000.34 206.732L1007 218.268C1007.41 218.985 1008.59 218.985 1009 218.268L1015.66 206.732C1016.07 206.015 1015.49 205 1014.66 205H1001.34ZM1006.5 164V206.5H1009.5V164H1006.5Z" fill="#FFCD29"/>
<path d="M1009.5 164C1009.5 163.172 1008.83 162.5 1008 162.5C1007.17 162.5 1006.5 163.172 1006.5 164H1009.5ZM649.34 205C648.511 205 647.926 206.015 648.34 206.732L655 218.268C655.414 218.985 656.586 218.985 657 218.268L663.66 206.732C664.074 206.015 663.489 205 662.66 205H649.34ZM1008 164H1009.5H1008ZM996 174.5H680V177.5H996V174.5ZM654.5 200V206.5H657.5V200H654.5ZM680 174.5C665.917 174.5 654.5 185.917 654.5 200H657.5C657.5 187.574 667.574 177.5 680 177.5V174.5ZM1006.5 164C1006.5 169.799 1001.8 174.5 996 174.5V177.5C1003.46 177.5 1009.5 171.456 1009.5 164H1006.5Z" fill="#14AE5C"/>
<path d="M848 20V48.4438C848 58.9731 856.536 67.5088 867.065 67.5088C867.065 67.5088 867.065 67.5098 867.065 67.5098V72.0489C867.065 74.6829 867.524 76.8695 868.201 78.2785C869.627 81.2458 873.208 77.5923 875.95 75.7696L888.373 67.5104C888.373 67.51 888.374 67.5088 888.374 67.5088H1084C1095.05 67.5088 1104 58.5545 1104 47.5088V20C1104 8.95431 1095.05 0 1084 0H868C856.954 0 848 8.95431 848 20Z" fill="#DCF1FF"/>
<path d="M909.874 25.5708H928.978V27.4428H909.874V25.5708ZM908.602 41.3148H930.178V43.1148H908.602V41.3148ZM918.298 26.5068H920.314V42.0588H918.298V26.5068ZM931.858 35.6748H943.642V37.1868H931.858V35.6748ZM932.002 27.2988H943.57V28.7628H932.002V27.2988ZM936.322 33.6108L938.002 33.9708C936.922 36.3228 935.41 39.2508 934.306 41.1468L932.722 40.5948C933.802 38.7708 935.314 35.8188 936.322 33.6108ZM939.922 36.5628L941.602 36.7788C940.786 41.4588 938.266 43.7628 932.722 44.9388C932.602 44.4588 932.242 43.8108 931.906 43.4508C936.922 42.6108 939.178 40.6428 939.922 36.5628ZM941.434 23.3388L942.97 24.0108C942.274 25.1148 941.482 26.3148 940.81 27.1308L939.61 26.5308C940.21 25.6668 941.002 24.2748 941.434 23.3388ZM936.97 22.8588H938.626V33.8988H936.97V22.8588ZM932.89 24.0108L934.258 23.4348C934.93 24.3948 935.578 25.6668 935.818 26.5308L934.402 27.1788C934.186 26.3148 933.562 24.9948 932.89 24.0108ZM936.994 27.9468L938.218 28.6668C937.042 30.6828 934.786 32.8188 932.722 33.9468C932.506 33.5388 932.074 32.9388 931.738 32.5788C933.73 31.7148 935.938 29.7948 936.994 27.9468ZM938.434 28.7868C939.298 29.2428 942.226 31.0908 942.922 31.5948L941.938 32.9148C941.074 32.0988 938.578 30.2268 937.57 29.5548L938.434 28.7868ZM945.394 27.2988H953.938V28.9788H945.394V27.2988ZM945.994 22.8588L947.818 23.1228C947.026 27.8268 945.61 32.1228 943.498 34.9308C943.21 34.5948 942.466 33.9948 942.034 33.7068C944.074 31.1628 945.322 27.1068 945.994 22.8588ZM950.722 28.2588L952.546 28.4508C951.394 36.7308 948.85 41.8908 942.802 45.0108C942.61 44.5788 942.082 43.7868 941.722 43.4028C947.434 40.7148 949.738 35.8668 950.722 28.2588ZM946.354 28.7868C947.41 35.3868 949.714 41.0508 954.178 43.4028C953.746 43.7628 953.17 44.4588 952.906 44.9388C948.202 42.1788 945.922 36.3228 944.722 29.0508L946.354 28.7868ZM934.162 40.2588L935.122 39.0348C938.002 40.1388 940.978 41.7228 942.706 43.0428L941.458 44.3388C939.802 42.9948 936.946 41.3868 934.162 40.2588ZM969.226 25.7148H970.978V38.9868H969.226V25.7148ZM974.626 23.3148H976.426V42.5388C976.426 43.7868 976.09 44.3388 975.346 44.6268C974.554 44.9388 973.21 44.9868 971.002 44.9628C970.882 44.4588 970.594 43.6668 970.306 43.1388C972.034 43.1868 973.522 43.1868 974.002 43.1628C974.458 43.1628 974.626 43.0188 974.626 42.5628V23.3148ZM957.25 37.5948H966.226V39.1788H957.25V37.5948ZM957.25 33.6108H966.226V35.1708H957.25V33.6108ZM960.634 22.8588H962.41V30.6348H960.634V22.8588ZM964.858 29.4828H966.61V42.6588C966.61 43.6428 966.394 44.1468 965.722 44.4348C965.05 44.7228 963.994 44.7468 962.194 44.7228C962.122 44.2668 961.906 43.5468 961.666 43.0668C962.914 43.1148 964.066 43.0908 964.402 43.0908C964.738 43.0668 964.858 42.9708 964.858 42.6348V29.4828ZM955.858 24.3468L957.37 23.7948C958.114 25.2348 958.882 27.1308 959.17 28.3548L957.586 28.9788C957.298 27.7308 956.578 25.7868 955.858 24.3468ZM965.89 23.6028L967.69 24.0828C966.994 25.7628 966.154 27.6828 965.434 28.9308L963.946 28.4748C964.618 27.1788 965.458 25.0668 965.89 23.6028ZM956.554 29.4828H965.77V31.1868H958.282V44.8188H956.554V29.4828ZM996.442 23.8908L997.426 22.9788C998.602 23.6748 999.994 24.7548 1000.67 25.5468L999.634 26.6028C998.986 25.8108 997.618 24.6588 996.442 23.8908ZM988.906 33.5388H993.634V40.0188H988.906V38.6028H992.338V34.9308H988.906V33.5388ZM998.77 30.4668L1000.35 30.7548C998.89 37.2108 996.106 41.8428 991.642 44.7948C991.378 44.4828 990.754 43.8828 990.418 43.5708C994.858 40.9548 997.474 36.4908 998.77 30.4668ZM985.378 26.6988H986.986V33.1788C986.986 36.6828 986.626 41.6508 984.37 45.0108C984.082 44.6988 983.386 44.2428 983.002 44.0508C985.162 40.8828 985.378 36.4428 985.378 33.1788V26.6988ZM986.362 26.6988H1000.74V28.3308H986.362V26.6988ZM987.994 30.2508H993.754V31.6428H987.994V30.2508ZM988.162 33.5388H989.458V41.4828H988.162V33.5388ZM980.05 24.3708L981.082 23.0988C982.474 23.6988 984.178 24.7068 985.042 25.4988L983.962 26.9388C983.146 26.1468 981.466 25.0668 980.05 24.3708ZM978.898 30.8748L979.906 29.5548C981.322 30.1068 983.05 31.0428 983.914 31.8108L982.882 33.2748C982.042 32.5068 980.314 31.4988 978.898 30.8748ZM979.282 43.5468C980.266 41.6268 981.682 38.3388 982.666 35.5308L984.106 36.4908C983.194 39.1068 981.946 42.2028 980.89 44.5068L979.282 43.5468ZM994.066 23.0988H995.722C995.914 33.5628 997.21 42.7308 999.154 42.8268C999.586 42.8508 999.898 41.5068 1000.09 39.1068C1000.38 39.4668 1001.1 39.8748 1001.41 40.0188C1000.93 43.9308 1000.04 44.9628 999.154 44.9628C995.53 44.8668 994.402 35.2428 994.066 23.0988ZM1004.97 43.1807C1004.51 43.1807 1004.11 43.016 1003.77 42.6864C1003.43 42.3512 1003.27 41.9478 1003.27 41.4762C1003.27 41.0103 1003.43 40.6125 1003.77 40.283C1004.11 39.9478 1004.51 39.7802 1004.97 39.7802C1005.44 39.7802 1005.84 39.9478 1006.17 40.283C1006.51 40.6125 1006.68 41.0103 1006.68 41.4762C1006.68 41.7887 1006.6 42.0756 1006.44 42.337C1006.28 42.5927 1006.08 42.7972 1005.82 42.9506C1005.57 43.104 1005.28 43.1807 1004.97 43.1807ZM1011.34 43.1807C1010.87 43.1807 1010.47 43.016 1010.14 42.6864C1009.8 42.3512 1009.63 41.9478 1009.63 41.4762C1009.63 41.0103 1009.8 40.6125 1010.14 40.283C1010.47 39.9478 1010.87 39.7802 1011.34 39.7802C1011.8 39.7802 1012.2 39.9478 1012.54 40.283C1012.88 40.6125 1013.04 41.0103 1013.04 41.4762C1013.04 41.7887 1012.96 42.0756 1012.8 42.337C1012.65 42.5927 1012.45 42.7972 1012.19 42.9506C1011.93 43.104 1011.65 43.1807 1011.34 43.1807ZM1017.71 43.1807C1017.25 43.1807 1016.85 43.016 1016.51 42.6864C1016.18 42.3512 1016.01 41.9478 1016.01 41.4762C1016.01 41.0103 1016.18 40.6125 1016.51 40.283C1016.85 39.9478 1017.25 39.7802 1017.71 39.7802C1018.18 39.7802 1018.58 39.9478 1018.92 40.283C1019.25 40.6125 1019.42 41.0103 1019.42 41.4762C1019.42 41.7887 1019.34 42.0756 1019.18 42.337C1019.03 42.5927 1018.82 42.7972 1018.57 42.9506C1018.31 43.104 1018.03 43.1807 1017.71 43.1807ZM1031.28 37.2348C1030.56 33.2268 1036.2 32.1708 1036.2 29.4348C1036.2 27.7788 1035.02 26.5788 1032.57 26.5788C1030.92 26.5788 1029.41 27.2988 1028.01 28.7388L1026.74 27.5628C1028.33 25.8828 1030.2 24.7548 1032.79 24.7548C1036.17 24.7548 1038.36 26.5068 1038.36 29.2668C1038.36 32.8908 1032.62 33.6348 1033.25 37.2348H1031.28ZM1032.31 43.1388C1031.45 43.1388 1030.77 42.5388 1030.77 41.5788C1030.77 40.6188 1031.47 39.9708 1032.31 39.9708C1033.15 39.9708 1033.85 40.6188 1033.85 41.5788C1033.85 42.5388 1033.15 43.1388 1032.31 43.1388Z" fill="black" fill-opacity="0.8"/>
<path d="M10.36 15.32H15.36V38.24H10.36V15.32ZM24.56 15.32H29.6V38.24H24.56V15.32ZM1.76 35.08H38.36V39.76H1.76V35.08ZM3.12 22.76H37.12V27.36H3.12V22.76ZM22.76 43.52L27.16 41.12C30.56 43.64 35.52 47.36 38.08 49.8L33.32 52.6C31.08 50.2 26.32 46.28 22.76 43.52ZM12.12 41.28L17.2 43.24C14.2 46.72 9.8 50.36 5.92 52.6C4.92 51.6 3.12 50.08 2 49.24C5.76 47.28 10.04 43.96 12.12 41.28ZM50.08 30.64V45.36H45.52V35.08H40.4V30.64H50.08ZM50.08 43.48C51.68 46.16 54.44 47.28 58.56 47.44C63.32 47.68 72.84 47.56 78.36 47.12C77.84 48.2 77.12 50.4 76.88 51.8C71.92 52.04 63.4 52.12 58.48 51.88C53.68 51.68 50.48 50.52 48.08 47.44C46.24 49 44.36 50.56 42.08 52.24L39.88 47.48C41.76 46.4 44 44.96 45.92 43.48H50.08ZM40.96 18.96L44.28 15.88C46.76 17.56 49.88 20.16 51.32 22.08L47.72 25.52C46.44 23.6 43.44 20.8 40.96 18.96ZM57.16 22.8L60.2 20.24C63.76 21.48 68.8 23.64 71.52 25.2L68.24 28.04C65.8 26.52 60.84 24.24 57.16 22.8ZM53.52 25.08H73.88V28.56H58.04V45.8H53.52V25.08ZM71.64 25.08H76.2V41.64C76.2 43.6 75.88 44.6 74.56 45.24C73.32 45.92 71.56 45.92 69.16 45.92C69 44.76 68.48 43.2 67.96 42.16C69.24 42.2 70.64 42.2 71.04 42.2C71.52 42.2 71.64 42.04 71.64 41.6V25.08ZM53.88 16.36H72.96V20H53.88V16.36ZM56.04 30.72H73.2V34.04H56.04V30.72ZM56.04 36.32H73.2V39.8H56.04V36.32ZM62.64 26.72H66.92V45.64H62.64V26.72ZM71.24 16.36H72.32L73.28 16.12L76.12 18.44C73.28 21.08 69.32 23.92 65.64 25.68C65.08 24.88 63.92 23.64 63.24 23C66.24 21.56 69.72 19.04 71.24 17.2V16.36ZM97.32 16.08H102.2V44.88C102.2 47.28 102.48 47.68 104.44 47.68C105.32 47.68 109.32 47.68 110.28 47.68C112.24 47.68 112.56 46.28 112.84 40.64C114 41.48 115.96 42.36 117.32 42.64C116.72 49.56 115.44 52.12 110.72 52.12C109.56 52.12 104.92 52.12 103.84 52.12C98.8 52.12 97.32 50.52 97.32 44.84V16.08ZM112.32 22.76L115.84 26.96C111.32 30.16 105.6 33.16 100.4 35.6C100.08 34.48 99.16 32.8 98.48 31.76C103.44 29.4 108.76 25.8 112.32 22.76ZM89.6 15.56L94.32 17.16C91.32 24.28 86.4 31.68 81.36 36.32C80.88 35.08 79.48 32.44 78.6 31.24C82.92 27.52 87.12 21.6 89.6 15.56ZM85.36 26.84L90.08 22.12L90.16 22.2V52.52H85.36V26.84ZM119.16 20.96H155.56V25.32H119.16V20.96ZM123.88 34.6H134.28V38.12H123.88V34.6ZM123.88 40.72H134.28V44.28H123.88V40.72ZM140.64 28.48H145.08V44.88H140.64V28.48ZM132.6 28.08H137.24V47.88C137.24 49.92 136.84 51.04 135.48 51.72C134.16 52.44 132.32 52.48 129.84 52.48C129.6 51.28 128.92 49.52 128.32 48.4C129.8 48.48 131.44 48.48 131.92 48.44C132.44 48.44 132.6 48.28 132.6 47.8V28.08ZM148.68 27.4H153.4V47.36C153.4 49.68 152.96 50.92 151.36 51.64C149.84 52.36 147.68 52.52 144.72 52.48C144.48 51.2 143.72 49.16 143.04 47.92C145.08 48.04 147.16 48.04 147.84 48C148.48 48 148.68 47.84 148.68 47.28V27.4ZM124.68 16.6L129.24 15C130.68 16.56 132.28 18.68 132.96 20.2L128.12 21.92C127.56 20.48 126.08 18.2 124.68 16.6ZM145.2 14.92L150.44 16.48C148.8 19.04 147.04 21.6 145.64 23.36L141.32 21.88C142.68 20 144.32 17.08 145.2 14.92ZM121.36 28.08H133.96V32.08H125.88V52.36H121.36V28.08Z" fill="#2171C1"/>
<path d="M570.36 15.32H575.36V38.24H570.36V15.32ZM584.56 15.32H589.6V38.24H584.56V15.32ZM561.76 35.08H598.36V39.76H561.76V35.08ZM563.12 22.76H597.12V27.36H563.12V22.76ZM582.76 43.52L587.16 41.12C590.56 43.64 595.52 47.36 598.08 49.8L593.32 52.6C591.08 50.2 586.32 46.28 582.76 43.52ZM572.12 41.28L577.2 43.24C574.2 46.72 569.8 50.36 565.92 52.6C564.92 51.6 563.12 50.08 562 49.24C565.76 47.28 570.04 43.96 572.12 41.28ZM610.08 30.64V45.36H605.52V35.08H600.4V30.64H610.08ZM610.08 43.48C611.68 46.16 614.44 47.28 618.56 47.44C623.32 47.68 632.84 47.56 638.36 47.12C637.84 48.2 637.12 50.4 636.88 51.8C631.92 52.04 623.4 52.12 618.48 51.88C613.68 51.68 610.48 50.52 608.08 47.44C606.24 49 604.36 50.56 602.08 52.24L599.88 47.48C601.76 46.4 604 44.96 605.92 43.48H610.08ZM600.96 18.96L604.28 15.88C606.76 17.56 609.88 20.16 611.32 22.08L607.72 25.52C606.44 23.6 603.44 20.8 600.96 18.96ZM617.16 22.8L620.2 20.24C623.76 21.48 628.8 23.64 631.52 25.2L628.24 28.04C625.8 26.52 620.84 24.24 617.16 22.8ZM613.52 25.08H633.88V28.56H618.04V45.8H613.52V25.08ZM631.64 25.08H636.2V41.64C636.2 43.6 635.88 44.6 634.56 45.24C633.32 45.92 631.56 45.92 629.16 45.92C629 44.76 628.48 43.2 627.96 42.16C629.24 42.2 630.64 42.2 631.04 42.2C631.52 42.2 631.64 42.04 631.64 41.6V25.08ZM613.88 16.36H632.96V20H613.88V16.36ZM616.04 30.72H633.2V34.04H616.04V30.72ZM616.04 36.32H633.2V39.8H616.04V36.32ZM622.64 26.72H626.92V45.64H622.64V26.72ZM631.24 16.36H632.32L633.28 16.12L636.12 18.44C633.28 21.08 629.32 23.92 625.64 25.68C625.08 24.88 623.92 23.64 623.24 23C626.24 21.56 629.72 19.04 631.24 17.2V16.36ZM657.32 16.08H662.2V44.88C662.2 47.28 662.48 47.68 664.44 47.68C665.32 47.68 669.32 47.68 670.28 47.68C672.24 47.68 672.56 46.28 672.84 40.64C674 41.48 675.96 42.36 677.32 42.64C676.72 49.56 675.44 52.12 670.72 52.12C669.56 52.12 664.92 52.12 663.84 52.12C658.8 52.12 657.32 50.52 657.32 44.84V16.08ZM672.32 22.76L675.84 26.96C671.32 30.16 665.6 33.16 660.4 35.6C660.08 34.48 659.16 32.8 658.48 31.76C663.44 29.4 668.76 25.8 672.32 22.76ZM649.6 15.56L654.32 17.16C651.32 24.28 646.4 31.68 641.36 36.32C640.88 35.08 639.48 32.44 638.6 31.24C642.92 27.52 647.12 21.6 649.6 15.56ZM645.36 26.84L650.08 22.12L650.16 22.2V52.52H645.36V26.84ZM699.24 31.64L703.56 33C700.92 37.76 696.52 42 692.12 44.64C691.48 43.72 689.96 41.88 689 41.04C693.16 38.96 697.12 35.52 699.24 31.64ZM699.76 14.88L703.92 17.04C701.8 19.56 699.36 22.24 697.44 24L694.16 22.12C696.04 20.2 698.44 17.16 699.76 14.88ZM707.24 17.84L711.52 20.2C707.24 24.72 701.6 29.84 697.12 33.08L693.96 31C698.4 27.6 703.92 22.16 707.24 17.84ZM690.36 22.36L693.24 19.24C696.16 21.08 699.92 23.8 701.64 25.88L698.6 29.32C696.96 27.28 693.36 24.32 690.36 22.36ZM706.8 26.8L710.52 24.8C712.88 27.4 715.56 31.04 716.64 33.56L712.6 35.84C711.64 33.4 709.16 29.56 706.8 26.8ZM689.56 29.64C695.36 29.6 704.36 29.48 712.8 29.32L712.64 33.16C704.52 33.44 695.92 33.72 689.92 33.88L689.56 29.64ZM697.88 38.24C701.12 43.64 707.88 47.28 716.64 48.64C715.64 49.64 714.4 51.48 713.8 52.72C704.6 50.88 698 46.48 694 39.48L697.88 38.24ZM698.88 35.84H709.64V39.44H695.68L698.88 35.84ZM708.08 35.84H709L709.76 35.68L712.76 37C709.2 46 701 50.6 691.28 52.8C690.88 51.6 689.84 49.72 689 48.76C697.8 47.24 705.44 43.16 708.08 36.52V35.84ZM686.92 23.64L691.16 25.2C688.56 30.08 684.4 35.2 680.48 38.44C680.04 37.4 678.76 35 677.96 33.96C681.36 31.48 684.84 27.6 686.92 23.64ZM686.2 15.04L690.44 16.72C687.96 20.2 684.2 24.08 680.84 26.56C680.24 25.6 679.08 23.92 678.32 23.04C681.2 21.04 684.56 17.68 686.2 15.04ZM683.64 32.28L687.72 28.2L688.12 28.4V52.68H683.64V32.28Z" fill="#2171C1"/>
</svg>
