<svg width="675" height="372" viewBox="0 0 675 372" fill="none" xmlns="http://www.w3.org/2000/svg">
<rect x="129" y="2" width="544" height="368" rx="6" stroke="#B3B3B3" stroke-width="4" stroke-miterlimit="0" stroke-linecap="round"/>
<g clip-path="url(#clip0_133_1415)">
<path d="M48.0002 102C51.9559 102 55.8227 103.173 59.1117 105.371C62.4006 107.568 64.9641 110.692 66.4778 114.346C67.9916 118.001 68.3877 122.022 67.616 125.902C66.8443 129.781 64.9394 133.345 62.1424 136.142C59.3453 138.939 55.7817 140.844 51.9021 141.616C48.0224 142.387 44.0011 141.991 40.3466 140.478C36.6921 138.964 33.5685 136.4 31.3709 133.111C29.1732 129.822 28.0002 125.956 28.0002 122L28.0202 121.132C28.2439 115.983 30.4467 111.119 34.1691 107.555C37.8916 103.99 42.8464 102 48.0002 102Z" fill="black"/>
<path d="M55.9998 150C61.3041 150 66.3912 152.107 70.1419 155.858C73.8926 159.609 75.9998 164.696 75.9998 170V174C75.9998 176.122 75.1569 178.157 73.6566 179.657C72.1563 181.157 70.1215 182 67.9998 182H27.9998C25.878 182 23.8432 181.157 22.3429 179.657C20.8426 178.157 19.9998 176.122 19.9998 174V170C19.9998 164.696 22.1069 159.609 25.8576 155.858C29.6083 152.107 34.6954 150 39.9998 150H55.9998Z" fill="black"/>
</g>
<path d="M18.3321 208.273V196.636H22.9912C23.8473 196.636 24.5613 196.763 25.1332 197.017C25.7052 197.271 26.1351 197.623 26.423 198.074C26.7109 198.521 26.8548 199.036 26.8548 199.619C26.8548 200.074 26.7639 200.473 26.5821 200.818C26.4003 201.159 26.1503 201.439 25.8321 201.659C25.5177 201.875 25.1579 202.028 24.7526 202.119V202.233C25.1957 202.252 25.6105 202.377 25.9969 202.608C26.387 202.839 26.7033 203.163 26.9457 203.58C27.1882 203.992 27.3094 204.485 27.3094 205.057C27.3094 205.674 27.156 206.225 26.8492 206.71C26.5461 207.191 26.0973 207.572 25.5026 207.852C24.9079 208.133 24.1749 208.273 23.3037 208.273H18.3321ZM20.7923 206.261H22.798C23.4836 206.261 23.9836 206.131 24.298 205.869C24.6124 205.604 24.7696 205.252 24.7696 204.812C24.7696 204.491 24.692 204.206 24.5367 203.96C24.3814 203.714 24.1598 203.521 23.8719 203.381C23.5878 203.241 23.2488 203.17 22.8548 203.17H20.7923V206.261ZM20.7923 201.506H22.6162C22.9533 201.506 23.2526 201.447 23.5139 201.33C23.7791 201.208 23.9874 201.038 24.1389 200.818C24.2942 200.598 24.3719 200.335 24.3719 200.028C24.3719 199.608 24.2223 199.269 23.923 199.011C23.6276 198.754 23.2071 198.625 22.6617 198.625H20.7923V201.506ZM31.1945 196.636V208.273H28.7342V196.636H31.1945ZM39.5992 195.809C39.9832 196.609 40.9592 199.073 41.2792 200.097L39.2632 200.801C38.9592 199.793 38.0632 197.457 37.5992 196.465L39.5992 195.809ZM46.8952 197.089C46.7192 197.489 46.5752 197.985 46.4792 198.337C46.0312 200.081 45.1192 202.625 43.8073 204.353C42.1272 206.577 39.7912 208.193 37.5192 209.057L35.7272 207.249C37.9032 206.625 40.3992 205.185 42.0472 203.121C43.2472 201.601 44.2392 198.865 44.5112 196.417L46.8952 197.089ZM35.1352 196.801C35.6312 197.825 36.6232 200.209 36.9912 201.281L34.9432 202.033C34.6072 201.009 33.5512 198.369 33.1032 197.521L35.1352 196.801ZM49.3112 200.865C49.9032 200.913 51.0552 200.977 51.8872 200.977C53.7752 200.977 59.0553 200.977 60.4792 200.977C61.2312 200.977 61.9353 200.897 62.3673 200.865V203.393C61.9832 203.377 61.1672 203.297 60.4952 203.297C59.0393 203.297 53.7752 203.297 51.8872 203.297C50.9912 203.297 49.9192 203.345 49.3112 203.393V200.865ZM71.7113 207.921C71.7913 207.617 71.8393 207.185 71.8393 206.753C71.8393 205.905 71.8393 198.721 71.8393 197.425C71.8393 196.705 71.7273 196.081 71.7273 196.049H74.0953C74.0953 196.081 73.9833 196.721 73.9833 197.441C73.9833 198.721 73.9833 204.817 73.9833 205.793C75.2953 205.233 76.8633 203.969 77.9513 202.417L79.1673 204.193C77.8393 205.921 75.5513 207.649 73.7433 208.561C73.4073 208.737 73.2153 208.913 73.0553 209.025L71.7113 207.921ZM64.3033 207.697C65.7273 206.705 66.5913 205.233 67.0233 203.857C67.4873 202.497 67.5033 199.457 67.5033 197.537C67.5033 196.881 67.4393 196.465 67.3433 196.065H69.6953C69.6953 196.129 69.5833 196.849 69.5833 197.505C69.5833 199.409 69.5353 202.785 69.1193 204.401C68.6233 206.193 67.6313 207.777 66.2553 208.993L64.3033 207.697ZM21.9342 219.617C22.9902 220.193 24.7502 221.313 25.5822 221.905L24.3982 223.665C23.5022 223.041 21.8382 221.969 20.7822 221.377L21.9342 219.617ZM18.9742 230.977C20.7662 230.673 22.6702 230.129 24.4142 229.169C27.1342 227.649 29.3742 225.457 30.6382 223.169L31.8702 225.345C30.3982 227.569 28.1262 229.585 25.5182 231.105C23.8862 232.017 21.5822 232.817 20.1742 233.073L18.9742 230.977ZM19.4702 223.265C20.5422 223.841 22.3022 224.929 23.1342 225.521L21.9502 227.313C21.0542 226.673 19.3902 225.601 18.3182 225.025L19.4702 223.265ZM46.1582 221.441C46.0302 221.617 45.7422 222.097 45.5982 222.433C44.9422 223.953 43.7582 226.129 42.3822 227.729C40.5902 229.793 38.1742 231.777 35.6942 232.945L34.0302 231.217C36.6222 230.257 39.0862 228.305 40.5902 226.641C41.6462 225.441 42.6222 223.857 42.9902 222.721C42.3182 222.721 38.2382 222.721 37.5502 222.721C36.8942 222.721 36.0142 222.801 35.6622 222.833V220.545C36.0942 220.609 37.0862 220.657 37.5502 220.657C38.3982 220.657 42.4942 220.657 43.1982 220.657C43.9022 220.657 44.5262 220.577 44.8622 220.465L46.1582 221.441ZM42.5902 226.401C44.2382 227.745 46.5102 230.129 47.5502 231.409L45.7262 232.993C44.5422 231.345 42.7982 229.441 41.0862 227.889L42.5902 226.401ZM51.8702 220.017C52.3822 220.081 53.0382 220.129 53.5822 220.129C54.5902 220.129 59.0702 220.129 60.0142 220.129C60.5422 220.129 61.1822 220.081 61.7262 220.017V222.081C61.1822 222.049 60.5582 222.017 60.0142 222.017C59.0702 222.017 54.5902 222.017 53.5822 222.017C53.0382 222.017 52.3502 222.049 51.8702 222.081V220.017ZM49.9982 224.097C50.4782 224.161 51.0382 224.193 51.5342 224.193C52.5422 224.193 61.0702 224.193 62.0142 224.193C62.3502 224.193 63.0542 224.177 63.4862 224.097V226.177C63.0702 226.161 62.4622 226.145 62.0142 226.145C61.0702 226.145 52.5422 226.145 51.5342 226.145C51.0702 226.145 50.4462 226.161 49.9982 226.193V224.097ZM58.1902 225.217C58.1902 227.313 57.8222 228.913 57.1342 230.241C56.5902 231.361 55.3422 232.593 53.9342 233.329L52.0462 231.969C53.1822 231.521 54.3182 230.609 54.9422 229.665C55.7422 228.449 55.9662 226.945 55.9662 225.233L58.1902 225.217ZM72.8578 220.209C72.6498 220.689 72.4258 221.281 72.1858 222.001C71.5938 223.793 69.9298 228.945 69.2418 230.609L66.8898 230.689C67.7538 228.641 69.4178 223.393 69.9458 221.537C70.1698 220.737 70.2498 220.225 70.3138 219.697L72.8578 220.209ZM75.7218 225.377C76.8738 227.105 78.5058 230.257 79.2418 232.033L77.0818 232.993C76.3618 231.057 74.8738 227.745 73.7378 226.209L75.7218 225.377ZM66.7298 229.969C68.9538 229.889 74.1858 229.297 76.4258 228.993L76.8898 231.041C74.5218 231.345 69.0178 231.921 66.8578 232.145C66.4578 232.193 65.8498 232.273 65.3538 232.337L64.9698 229.985C65.5138 230.001 66.2178 229.985 66.7298 229.969Z" fill="#1E1E1E"/>
<path d="M319.508 31.2066H326.684V33.7986H319.508V31.2066ZM319.508 37.2306H326.684V39.8226H319.508V37.2306ZM318.02 25.2786H328.316V44.9826H325.412V27.8706H320.804V44.9826H318.02V25.2786ZM315.812 43.3986H329.924V45.9906H315.812V43.3986ZM310.916 24.1026L313.46 24.9906C312.476 26.8626 311.348 28.9986 310.412 30.3186L308.468 29.5266C309.332 28.0866 310.364 25.7826 310.916 24.1026ZM313.796 26.9346L316.22 27.9426C314.444 30.7026 312.092 34.0386 310.244 36.0786L308.492 35.1906C310.34 33.0306 312.524 29.5026 313.796 26.9346ZM307.22 29.7906L308.564 27.7986C309.86 28.9026 311.348 30.4386 311.972 31.4946L310.508 33.7506C309.908 32.5986 308.444 30.9426 307.22 29.7906ZM313.196 32.7186L315.236 31.8306C316.196 33.4386 317.156 35.5266 317.468 36.9186L315.284 37.9266C314.996 36.5586 314.108 34.3746 313.196 32.7186ZM307.196 34.6626C309.428 34.5906 312.74 34.4466 315.956 34.2786V36.5586C312.932 36.7986 309.812 37.0146 307.436 37.1586L307.196 34.6626ZM313.628 38.7426L315.74 38.0466C316.364 39.4866 317.012 41.3586 317.3 42.5826L315.044 43.3986C314.828 42.1506 314.204 40.2066 313.628 38.7426ZM308.228 38.1906L310.604 38.5986C310.364 40.9026 309.836 43.3026 309.14 44.8386C308.636 44.5266 307.556 44.0226 306.956 43.7826C307.652 42.3666 308.036 40.2306 308.228 38.1906ZM311.012 35.9346H313.58V46.6386H311.012V35.9346ZM341.228 24.0546H343.844V27.5826H341.228V24.0546ZM339.356 28.8066L341.276 28.3746C341.66 29.3826 341.948 30.7266 341.996 31.5666L339.956 32.0706C339.956 31.1826 339.716 29.8386 339.356 28.8066ZM338.492 26.3826H346.58V28.5426H338.492V26.3826ZM338.084 31.7826H353.204V34.0386H338.084V31.7826ZM340.46 38.5506H344.948V40.4706H340.46V38.5506ZM340.268 35.1186H346.268V43.9266H340.268V41.9586H343.94V37.1106H340.268V35.1186ZM339.428 35.1186H341.612V45.1746H339.428V35.1186ZM343.772 28.2306L346.1 28.7346C345.644 29.9106 345.236 31.1826 344.852 32.0226L342.932 31.5426C343.22 30.6066 343.604 29.1906 343.772 28.2306ZM346.868 24.2226H349.316C349.244 34.8786 349.892 43.4946 351.308 43.5906C351.62 43.6146 351.86 42.5106 351.98 40.6386C352.364 41.1906 353.372 41.9346 353.756 42.1986C353.18 45.9426 352.076 46.8066 351.212 46.7826C347.54 46.6386 346.988 37.7586 346.868 24.2226ZM349.148 26.4546L351.236 25.6146C352.1 27.0066 353.012 28.8546 353.396 30.0786L351.188 31.0386C350.828 29.8146 349.964 27.8706 349.148 26.4546ZM350.948 34.9266L353.204 35.5506C351.74 40.3026 349.076 44.1666 345.164 46.6626C344.804 46.1346 343.964 45.2226 343.436 44.8146C347.108 42.6546 349.748 39.0546 350.948 34.9266ZM333.788 24.1026L336.212 24.8706C335.372 26.7186 334.436 28.8546 333.668 30.1986L331.796 29.4786C332.54 28.0386 333.356 25.7586 333.788 24.1026ZM336.284 27.0066L338.516 27.9666C336.98 30.6786 334.94 34.0146 333.284 36.0786L331.7 35.2386C333.26 33.0786 335.204 29.5746 336.284 27.0066ZM330.788 29.5986L331.964 27.5586C333.164 28.7106 334.58 30.2706 335.108 31.3506L333.812 33.6786C333.284 32.5026 331.94 30.7986 330.788 29.5986ZM335.468 32.6226L337.364 31.9026C338.228 33.5346 339.044 35.6226 339.26 37.0146L337.22 37.8546C337.028 36.4866 336.284 34.3026 335.468 32.6226ZM330.644 34.6146C332.54 34.5426 335.276 34.3986 338.06 34.2306L338.036 36.4626C335.516 36.7266 332.948 36.9426 330.884 37.1106L330.644 34.6146ZM336.092 38.6226L337.988 38.0226C338.492 39.4146 338.972 41.2146 339.188 42.3906L337.172 43.0866C337.028 41.8626 336.548 40.0146 336.092 38.6226ZM331.532 38.1906L333.692 38.5506C333.524 40.8066 333.116 43.1826 332.516 44.7186C332.084 44.4306 331.1 43.9986 330.572 43.7826C331.172 42.3666 331.412 40.2066 331.532 38.1906ZM333.836 35.8866H336.188V46.6146H333.836V35.8866ZM360.764 43.8786H372.476V45.9906H360.764V43.8786ZM364.196 29.1186H366.98V31.9986H364.196V29.1186ZM355.34 30.7746H376.22V35.5506H373.412V32.9346H358.052V35.5506H355.34V30.7746ZM360.668 33.9426H372.428V39.3186H360.668V37.2546H369.548V36.0066H360.668V33.9426ZM360.788 40.3986H374.252V46.6386H371.372V42.5106H360.788V40.3986ZM359.084 33.9426H361.82V46.6626H359.084V33.9426ZM357.764 25.7586H365.324V28.0146H357.764V25.7586ZM367.484 25.7586H376.796V28.0146H367.484V25.7586ZM357.86 23.8866L360.548 24.6066C359.612 26.7666 358.076 28.9506 356.66 30.3186C356.108 29.8866 354.956 29.1186 354.308 28.7826C355.748 27.5826 357.116 25.7106 357.86 23.8866ZM367.628 23.8866L370.364 24.5586C369.5 26.6226 368.012 28.6146 366.572 29.8626C365.996 29.4306 364.772 28.8066 364.052 28.4946C365.588 27.3906 366.932 25.6386 367.628 23.8866ZM358.652 27.5106L361.1 26.8626C361.7 27.6786 362.372 28.8306 362.66 29.5986L360.068 30.3426C359.852 29.5986 359.228 28.3746 358.652 27.5106ZM369.38 27.5826L371.9 26.9106C372.596 27.7026 373.436 28.8546 373.82 29.6226L371.156 30.3666C370.844 29.6466 370.052 28.4226 369.38 27.5826ZM389.54 31.8066V33.8706H396.812V31.8066H389.54ZM389.54 27.5346V29.5506H396.812V27.5346H389.54ZM386.948 25.0866H399.548V36.2946H386.948V25.0866ZM386.78 38.3586H399.812V40.9506H386.78V38.3586ZM385.1 43.2546H400.604V45.8466H385.1V43.2546ZM378.068 25.4466H386.036V28.1346H378.068V25.4466ZM378.308 32.3586H385.628V35.0226H378.308V32.3586ZM377.804 41.4786C379.868 40.9506 382.94 39.9906 385.82 39.0546L386.324 41.8146C383.636 42.7266 380.756 43.6626 378.452 44.4066L377.804 41.4786ZM380.732 26.5026H383.468V41.2626L380.732 41.6946V26.5026ZM392.012 26.1186H394.436V35.1666H394.7V44.4786H391.748V35.1666H392.012V26.1186ZM418.724 33.8706C418.724 39.7986 417.284 43.4226 411.476 45.9906L408.908 43.5666C413.564 41.9586 415.58 39.8706 415.58 33.9666V27.5826C415.58 26.6226 415.532 25.8306 415.436 25.3746H418.868C418.82 25.8546 418.724 26.6226 418.724 27.5826V33.8706ZM410.036 25.5666C409.988 26.0226 409.892 26.7906 409.892 27.7506V36.3186C409.892 37.3986 409.964 38.3826 410.012 38.8386H406.652C406.7 38.3826 406.772 37.3986 406.772 36.3186V27.7266C406.772 27.0546 406.724 26.3106 406.628 25.5666H410.036ZM402.14 29.8866C402.572 29.9586 403.556 30.1266 404.732 30.1266H420.476C421.748 30.1266 422.468 30.0546 423.14 29.9586V33.1506C422.612 33.0786 421.748 33.0786 420.5 33.0786H404.732C403.532 33.0786 402.692 33.1266 402.14 33.1506V29.8866ZM426.5 33.3426C427.388 33.4146 429.116 33.5106 430.364 33.5106C433.196 33.5106 441.116 33.5106 443.252 33.5106C444.38 33.5106 445.436 33.3906 446.084 33.3426V37.1346C445.508 37.1106 444.284 36.9906 443.276 36.9906C441.092 36.9906 433.196 36.9906 430.364 36.9906C429.02 36.9906 427.412 37.0626 426.5 37.1346V33.3426ZM465.572 25.0146C466.172 25.9026 467.012 27.4146 467.468 28.3026L465.548 29.1426C465.044 28.1586 464.324 26.7426 463.676 25.8066L465.572 25.0146ZM468.404 23.9346C469.028 24.8466 469.916 26.3586 470.348 27.1986L468.428 28.0386C467.948 27.0306 467.156 25.6386 466.508 24.7266L468.404 23.9346ZM455.204 26.0706C455.108 26.7906 455.036 27.8706 455.036 28.5666C455.036 30.0306 455.036 38.8626 455.036 40.6626C455.036 41.7186 455.516 41.9826 456.596 42.1746C457.316 42.2946 458.3 42.3186 459.356 42.3186C461.876 42.3186 465.74 42.0306 467.732 41.5026V45.0066C465.452 45.3426 461.828 45.4866 459.188 45.4866C457.628 45.4866 456.164 45.3906 455.132 45.2226C453.068 44.8386 451.844 43.7106 451.844 41.6226C451.844 38.8626 451.844 30.0546 451.844 28.5666C451.844 28.0146 451.772 26.7906 451.676 26.0706H455.204ZM453.62 33.4386C456.716 32.7666 460.82 31.4706 463.34 30.4386C464.18 30.0786 464.996 29.6946 465.956 29.1426L467.228 32.1666C466.316 32.5506 465.236 33.0066 464.444 33.3186C461.612 34.3986 456.908 35.8146 453.644 36.5826L453.62 33.4386ZM491.396 28.2066C491.204 28.4706 490.772 29.1906 490.556 29.6946C489.572 31.9746 487.796 35.2386 485.732 37.6386C483.044 40.7346 479.42 43.7106 475.7 45.4626L473.204 42.8706C477.092 41.4306 480.788 38.5026 483.044 36.0066C484.628 34.2066 486.092 31.8306 486.644 30.1266C485.636 30.1266 479.516 30.1266 478.484 30.1266C477.5 30.1266 476.18 30.2466 475.652 30.2946V26.8626C476.3 26.9586 477.788 27.0306 478.484 27.0306C479.756 27.0306 485.9 27.0306 486.956 27.0306C488.012 27.0306 488.948 26.9106 489.452 26.7426L491.396 28.2066ZM486.044 35.6466C488.516 37.6626 491.924 41.2386 493.484 43.1586L490.748 45.5346C488.972 43.0626 486.356 40.2066 483.788 37.8786L486.044 35.6466Z" fill="#1E1E1E"/>
<rect x="157" y="98" width="237.667" height="87.6202" rx="35.0481" fill="#2171C1"/>
<path d="M201.43 123.2C201.83 123.776 202.406 124.752 202.726 125.392L201.862 125.792C201.542 125.136 200.998 124.176 200.566 123.568L201.43 123.2ZM203.174 122.56C203.606 123.152 204.214 124.144 204.518 124.736L203.654 125.12C203.302 124.432 202.79 123.52 202.342 122.928L203.174 122.56ZM202.486 126.384C202.358 126.624 202.198 126.992 202.118 127.248C201.686 128.848 200.694 131.024 199.286 132.752C197.83 134.528 195.91 136 192.902 137.104L191.75 136.064C194.694 135.2 196.678 133.744 198.134 132.048C199.382 130.576 200.358 128.512 200.694 127.056H194.758L195.27 125.904C195.926 125.904 199.878 125.904 200.374 125.904C200.806 125.904 201.158 125.856 201.43 125.744L202.486 126.384ZM197.126 123.968C196.87 124.384 196.582 124.928 196.422 125.232C195.478 126.992 193.798 129.28 191.238 130.992L190.118 130.16C192.886 128.512 194.454 126.192 195.158 124.752C195.318 124.48 195.558 123.888 195.654 123.488L197.126 123.968ZM213.382 135.664C213.446 135.424 213.494 135.088 213.494 134.768C213.494 134.032 213.494 126.192 213.494 125.184C213.494 124.576 213.414 124.128 213.414 124H214.886C214.87 124.128 214.806 124.592 214.806 125.2C214.806 126.192 214.806 133.936 214.806 134.416C216.294 133.744 218.262 132.288 219.478 130.48L220.246 131.584C218.854 133.456 216.646 135.088 214.79 136.016C214.518 136.144 214.358 136.288 214.23 136.368L213.382 135.664ZM206.054 135.6C207.414 134.64 208.358 133.216 208.838 131.664C209.318 130.192 209.318 127.008 209.318 125.216C209.318 124.752 209.286 124.4 209.206 124.064H210.678C210.662 124.24 210.598 124.736 210.598 125.2C210.598 126.976 210.55 130.416 210.118 132.016C209.638 133.728 208.614 135.28 207.27 136.4L206.054 135.6ZM222.454 129.072C222.95 129.12 223.782 129.168 224.694 129.168C225.862 129.168 232.278 129.168 233.462 129.168C234.262 129.168 234.822 129.104 235.19 129.072V130.64C234.854 130.624 234.182 130.576 233.478 130.576C232.262 130.576 225.878 130.576 224.694 130.576C223.814 130.576 222.966 130.608 222.454 130.64V129.072ZM248.589 124.512C248.589 125.104 249.053 125.568 249.645 125.568C250.221 125.568 250.701 125.104 250.701 124.512C250.701 123.936 250.221 123.456 249.645 123.456C249.053 123.456 248.589 123.936 248.589 124.512ZM247.853 124.512C247.853 123.52 248.653 122.72 249.645 122.72C250.637 122.72 251.437 123.52 251.437 124.512C251.437 125.504 250.637 126.304 249.645 126.304C248.653 126.304 247.853 125.504 247.853 124.512ZM249.245 125.584C249.133 125.808 249.069 126.08 249.005 126.384C248.653 128.064 247.885 130.656 246.605 132.288C245.149 134.176 243.245 135.648 240.317 136.576L239.229 135.376C242.333 134.592 244.125 133.232 245.469 131.52C246.605 130.08 247.341 127.84 247.565 126.304C246.637 126.304 240.301 126.304 239.373 126.304C238.733 126.304 238.189 126.336 237.789 126.368V124.944C238.221 124.992 238.861 125.056 239.389 125.056C240.301 125.056 246.685 125.056 247.405 125.056C247.661 125.056 247.965 125.04 248.269 124.96L249.245 125.584ZM260.541 125.088C260.333 126.752 260.013 128.624 259.517 130.336C258.541 133.616 257.261 135.312 255.789 135.312C254.349 135.312 252.925 133.68 252.925 131.024C252.925 127.552 256.013 124.528 259.933 124.528C263.677 124.528 266.061 127.168 266.061 130.416C266.061 133.76 263.853 136 260.045 136.496L259.309 135.312C259.821 135.264 260.301 135.2 260.685 135.12C262.733 134.656 264.749 133.12 264.749 130.352C264.749 127.792 262.973 125.68 259.901 125.68C256.381 125.68 254.189 128.576 254.189 130.928C254.189 132.944 255.101 133.84 255.821 133.84C256.573 133.84 257.437 132.752 258.253 130.048C258.717 128.528 259.053 126.72 259.213 125.056L260.541 125.088ZM268.109 129.712H282.637V130.912H268.109V129.712ZM274.765 127.136H276.013V135.744C276.013 136.544 275.789 136.912 275.181 137.104C274.589 137.296 273.549 137.328 272.013 137.328C271.917 136.976 271.693 136.432 271.485 136.08C272.781 136.128 273.965 136.128 274.317 136.112C274.653 136.096 274.765 136.016 274.765 135.728V127.136ZM269.757 123.68H280.205V124.864H269.757V123.68ZM279.789 123.68H280.109L280.381 123.616L281.293 124.288C279.837 125.76 277.565 127.344 275.693 128.304C275.517 128.032 275.149 127.648 274.909 127.44C276.653 126.608 278.781 125.088 279.789 123.952V123.68ZM293.245 130.8H294.429V137.296H293.245V130.8ZM289.197 130.544C291.293 130.512 294.493 130.416 297.517 130.304L297.485 131.296C294.557 131.472 291.501 131.6 289.309 131.68L289.197 130.544ZM297.165 122.864L297.901 123.84C295.917 124.352 292.781 124.624 290.253 124.72C290.221 124.432 290.061 124 289.949 123.728C292.429 123.6 295.469 123.312 297.165 122.864ZM295.933 125.248L296.989 125.872C295.453 127.68 293.309 129.856 291.645 131.232L290.813 130.64C292.461 129.264 294.637 126.976 295.933 125.248ZM293.197 123.76L294.349 124.304C293.533 125.36 292.557 126.592 291.773 127.376L290.877 126.896C291.645 126.08 292.637 124.72 293.197 123.76ZM295.517 132.896L296.509 132.464C297.373 133.552 298.301 135.008 298.653 135.984L297.597 136.48C297.261 135.52 296.365 134.016 295.517 132.896ZM295.373 129.024L296.253 128.512C297.261 129.52 298.365 130.896 298.829 131.824L297.885 132.432C297.437 131.488 296.349 130.064 295.373 129.024ZM289.773 126.8L290.493 126.064C291.597 126.8 292.941 127.888 293.565 128.672L292.781 129.504C292.173 128.72 290.861 127.568 289.773 126.8ZM290.829 132.56L291.949 132.864C291.357 134.24 290.445 135.696 289.613 136.624C289.389 136.448 288.893 136.144 288.605 135.984C289.485 135.104 290.301 133.808 290.829 132.56ZM283.677 129.984C285.197 129.696 287.501 129.232 289.725 128.752L289.805 129.84C287.741 130.304 285.549 130.784 283.965 131.136L283.677 129.984ZM284.141 123.536H288.989V124.672H284.141V123.536ZM286.205 126.784H287.357V135.824C287.357 136.496 287.229 136.848 286.797 137.056C286.365 137.248 285.645 137.28 284.653 137.28C284.605 136.944 284.445 136.416 284.269 136.064C285.037 136.08 285.725 136.08 285.933 136.08C286.157 136.08 286.205 136.016 286.205 135.824V126.784ZM288.749 123.536H289.037L289.277 123.456L290.109 124.016C289.357 125.344 288.189 126.816 287.165 127.744C286.989 127.504 286.637 127.152 286.397 126.96C287.277 126.16 288.269 124.768 288.749 123.792V123.536ZM307.405 127.504H312.589V128.608H307.405V127.504ZM307.405 131.568H312.589V132.656H307.405V131.568ZM306.781 123.472H313.229V136.416H312.029V124.56H307.949V136.416H306.781V123.472ZM305.101 135.728H314.461V136.832H305.101V135.728ZM302.125 122.576L303.197 122.976C302.589 124.16 301.821 125.584 301.197 126.448L300.365 126.096C300.973 125.168 301.709 123.632 302.125 122.576ZM304.061 124.4L305.101 124.848C303.981 126.64 302.413 128.944 301.197 130.32L300.429 129.92C301.661 128.496 303.181 126.096 304.061 124.4ZM299.597 125.936L300.205 125.136C301.101 125.888 302.109 126.944 302.541 127.648L301.901 128.56C301.469 127.808 300.461 126.704 299.597 125.936ZM303.549 128.112L304.445 127.728C305.117 128.752 305.805 130.128 306.045 131.008L305.085 131.456C304.845 130.56 304.205 129.168 303.549 128.112ZM299.565 129.728C301.005 129.68 303.133 129.6 305.245 129.504V130.48C303.213 130.608 301.181 130.72 299.661 130.8L299.565 129.728ZM303.949 131.936L304.861 131.648C305.325 132.624 305.773 133.888 305.949 134.72L304.973 135.056C304.829 134.224 304.397 132.928 303.949 131.936ZM300.445 131.712L301.485 131.904C301.261 133.408 300.861 134.96 300.349 135.984C300.141 135.856 299.661 135.632 299.405 135.52C299.933 134.544 300.253 133.12 300.445 131.712ZM302.285 130.192H303.373V137.328H302.285V130.192ZM322.525 122.56H323.629V124.864H322.525V122.56ZM321.101 125.536L321.949 125.344C322.221 126.064 322.445 127.04 322.477 127.664L321.565 127.888C321.549 127.248 321.357 126.272 321.101 125.536ZM320.365 124.336H325.821V125.296H320.365V124.336ZM320.013 127.84H330.061V128.832H320.013V127.84ZM321.501 132.208H324.797V133.072H321.501V132.208ZM321.437 129.84H325.405V135.472H321.437V134.576H324.397V130.736H321.437V129.84ZM321.037 129.84H321.997V136.432H321.037V129.84ZM324.269 125.28L325.293 125.52C325.005 126.336 324.717 127.28 324.445 127.888L323.613 127.664C323.837 127.008 324.125 125.968 324.269 125.28ZM326.125 122.64H327.181C327.181 130.144 327.677 135.952 328.957 136.032C329.229 136.048 329.421 135.184 329.533 133.76C329.709 134 330.141 134.288 330.333 134.384C330.029 136.752 329.485 137.392 328.941 137.376C326.589 137.28 326.237 131.088 326.125 122.64ZM327.517 124.016L328.413 123.632C329.037 124.528 329.709 125.712 329.997 126.48L329.053 126.912C328.765 126.144 328.109 124.912 327.517 124.016ZM328.717 129.664L329.693 129.92C328.829 133.056 327.101 135.632 324.525 137.328C324.365 137.104 324.013 136.752 323.773 136.576C326.253 134.992 327.965 132.576 328.717 129.664ZM317.517 122.576L318.557 122.944C318.061 124.08 317.437 125.504 316.941 126.368L316.125 126.048C316.621 125.136 317.213 123.632 317.517 122.576ZM319.133 124.416L320.125 124.848C319.165 126.624 317.837 128.896 316.765 130.288L316.045 129.904C317.085 128.496 318.397 126.112 319.133 124.416ZM315.437 125.808L315.981 125.008C316.781 125.792 317.677 126.832 318.029 127.536L317.453 128.48C317.085 127.728 316.205 126.608 315.437 125.808ZM318.509 128.08L319.357 127.76C319.949 128.784 320.509 130.112 320.685 130.976L319.773 131.344C319.613 130.496 319.069 129.12 318.509 128.08ZM315.277 129.648C316.493 129.6 318.221 129.504 319.997 129.408L319.981 130.368C318.333 130.512 316.685 130.64 315.389 130.72L315.277 129.648ZM318.941 131.888L319.789 131.632C320.173 132.576 320.509 133.824 320.637 134.624L319.741 134.912C319.645 134.096 319.293 132.832 318.941 131.888ZM316.045 131.712L317.005 131.872C316.861 133.376 316.557 134.928 316.141 135.952C315.949 135.824 315.501 135.616 315.261 135.52C315.709 134.544 315.917 133.104 316.045 131.712ZM317.549 130.112H318.573V137.28H317.549V130.112ZM337.981 125.952H339.213V137.296H337.981V125.952ZM334.189 129.104V130.816H343.197V129.104H334.189ZM334.189 126.416V128.128H343.197V126.416H334.189ZM333.021 125.408H344.429V131.84H333.021V125.408ZM331.501 133.296H345.821V134.416H331.501V133.296ZM332.989 123.2L334.013 122.72C334.621 123.408 335.325 124.352 335.645 124.976L334.573 125.536C334.269 124.896 333.597 123.904 332.989 123.2ZM337.053 122.96L338.125 122.544C338.653 123.312 339.229 124.336 339.453 125.024L338.317 125.472C338.109 124.8 337.581 123.744 337.053 122.96ZM343.085 122.592L344.381 123.008C343.741 124.032 342.957 125.168 342.333 125.904L341.293 125.52C341.917 124.736 342.669 123.472 343.085 122.592ZM355.901 122.752H357.101V126.4H355.901V122.752ZM351.725 125.712H361.501V126.864H351.725V125.712ZM353.053 128.112L354.125 127.936C354.733 130.064 355.293 132.8 355.421 134.384L354.237 134.64C354.125 133.04 353.629 130.256 353.053 128.112ZM358.893 127.792L360.173 128.016C359.581 130.576 358.653 133.856 357.901 135.84L356.829 135.584C357.581 133.568 358.461 130.176 358.893 127.792ZM351.325 135.392H361.901V136.544H351.325V135.392ZM350.893 122.608L352.029 122.976C350.941 125.664 349.229 128.352 347.469 130.112C347.341 129.84 347.005 129.2 346.781 128.912C348.397 127.408 349.965 125.024 350.893 122.608ZM349.229 126.736L350.365 125.6L350.381 125.616V137.248H349.229V126.736ZM221.065 153.104H235.705V154.416H221.065V153.104ZM240.409 155.44V156.24H247.897V155.44H240.409ZM240.409 156.944V157.76H247.897V156.944H240.409ZM240.409 153.968V154.736H247.897V153.968H240.409ZM239.273 153.216H249.081V158.496H239.273V153.216ZM245.161 158.08H246.345V159.728C246.345 160.08 246.473 160.128 247.193 160.128C247.529 160.128 249.225 160.128 249.689 160.128C250.265 160.128 250.377 159.952 250.441 158.64C250.665 158.816 251.145 158.976 251.465 159.04C251.337 160.72 250.985 161.12 249.801 161.12C249.465 161.12 247.401 161.12 247.081 161.12C245.561 161.12 245.161 160.832 245.161 159.744V158.08ZM241.721 158.112H242.905C242.441 160.016 241.113 160.88 237.433 161.312C237.353 161.04 237.081 160.608 236.889 160.384C240.217 160.08 241.305 159.488 241.721 158.112ZM245.657 151.136H250.969V152.096H245.657V151.136ZM245.833 148.192H251.401V149.152H245.833V148.192ZM246.089 146.56L247.177 146.8C246.681 148.4 245.865 150 244.969 151.024C244.777 150.848 244.313 150.528 244.041 150.384C244.921 149.44 245.657 148 246.089 146.56ZM240.393 147.536H241.385V149.024H240.393V147.536ZM240.393 150.544H241.385V152.08H240.393V150.544ZM238.233 148.688H243.753V151.008H238.233V150.256H242.681V149.424H238.233V148.688ZM244.105 147.152V147.904H238.729V151.888H244.313V152.656H237.625V147.152H244.105ZM259.369 147.36C259.225 147.984 259.049 148.864 258.633 149.936C258.233 150.912 257.641 151.984 257.001 152.816C257.625 152.448 258.537 152.224 259.241 152.224C260.473 152.224 261.433 152.96 261.433 154.256C261.433 155.088 261.465 156.928 261.481 157.92H260.249C260.313 157.072 260.329 155.424 260.313 154.592C260.297 153.664 259.657 153.232 258.825 153.232C257.801 153.232 256.793 153.744 256.057 154.4C255.593 154.848 255.145 155.424 254.617 156.08L253.513 155.264C255.817 153.056 256.889 151.2 257.433 149.84C257.785 148.96 258.009 148 258.057 147.248L259.369 147.36ZM253.881 149.088C254.745 149.2 255.849 149.248 256.585 149.248C258.745 149.248 261.513 149.12 263.769 148.72V149.904C261.529 150.24 258.553 150.384 256.521 150.384C255.833 150.384 254.777 150.352 253.881 150.288V149.088ZM266.105 152.944C265.705 153.072 265.129 153.296 264.697 153.456C263.561 153.904 262.041 154.512 260.489 155.312C258.905 156.144 257.785 157.008 257.785 158.112C257.785 159.36 259.017 159.552 260.665 159.552C261.913 159.552 263.641 159.408 265.049 159.152L265.001 160.448C263.785 160.592 262.009 160.72 260.617 160.72C258.345 160.72 256.505 160.224 256.505 158.288C256.505 156.336 258.489 155.136 260.393 154.16C261.913 153.376 263.209 152.88 264.265 152.384C264.745 152.16 265.145 151.984 265.593 151.76L266.105 152.944ZM276.009 148.768H281.913V149.936H276.009V148.768ZM268.585 147.568H276.409V148.688H268.585V147.568ZM270.457 150.816H274.617V151.92H270.457V150.816ZM270.457 154.144H274.617V155.232H270.457V154.144ZM281.561 148.768H281.769L281.993 148.736L282.761 148.944C281.993 155.312 279.545 159.072 276.121 161.056C275.929 160.752 275.593 160.304 275.321 160.08C278.489 158.432 280.873 154.672 281.561 149.056V148.768ZM277.465 150C278.313 154.624 280.169 158.416 283.465 160.112C283.193 160.352 282.809 160.8 282.617 161.12C279.145 159.152 277.305 155.248 276.313 150.224L277.465 150ZM269.833 148H270.985V158.384H269.833V148ZM274.121 148H275.273V161.248H274.121V148ZM268.265 158.032C269.833 157.84 272.249 157.504 274.585 157.152L274.649 158.256C272.457 158.608 270.153 158.976 268.489 159.232L268.265 158.032ZM291.353 150.128V151.44H296.649V150.128H291.353ZM291.353 147.968V149.264H296.649V147.968H291.353ZM290.201 147.056H297.849V152.352H290.201V147.056ZM289.209 153.456H298.617V154.464H289.209V153.456ZM288.841 155.84H298.905V156.896H288.841V155.84ZM295.305 154.336H296.505V159.968C296.505 160.608 296.361 160.928 295.881 161.104C295.401 161.296 294.633 161.296 293.433 161.296C293.385 160.976 293.193 160.528 293.033 160.208C293.945 160.24 294.745 160.24 294.985 160.224C295.241 160.208 295.305 160.144 295.305 159.936V154.336ZM290.233 157.712L291.081 157.136C291.817 157.808 292.697 158.752 293.113 159.376L292.201 160.048C291.817 159.408 290.953 158.416 290.233 157.712ZM287.961 150.128L289.017 150.56C287.929 152.464 286.217 154.4 284.633 155.648C284.537 155.408 284.201 154.768 283.993 154.496C285.449 153.44 287.001 151.792 287.961 150.128ZM287.657 146.608L288.809 147.056C287.849 148.432 286.313 149.936 284.889 150.88C284.761 150.608 284.457 150.144 284.249 149.904C285.529 149.072 286.969 147.744 287.657 146.608ZM286.521 152.96L287.641 151.824L287.689 151.856V161.28H286.521V152.96ZM309.513 147.328C309.481 147.52 309.433 148.144 309.433 148.336C309.385 149.376 309.417 152.464 309.433 153.744L308.217 153.12C308.217 152.416 308.201 149.232 308.153 148.352C308.121 147.92 308.073 147.472 308.041 147.328H309.513ZM301.001 149.568C303.177 149.536 307.177 149.392 309.641 149.392C311.593 149.392 313.577 149.392 314.329 149.408L314.313 150.592C313.417 150.544 311.977 150.512 309.625 150.512C306.873 150.512 303.449 150.624 301.033 150.8L301.001 149.568ZM309.401 154.208C309.401 156.352 308.409 157.424 306.953 157.424C305.609 157.424 304.313 156.48 304.313 154.736C304.313 153.152 305.625 151.968 307.145 151.968C309.001 151.968 309.945 153.344 309.945 155.184C309.945 157.36 308.889 159.76 305.177 160.864L304.105 159.824C307.017 159.136 308.713 157.712 308.713 155.072C308.713 153.632 308.009 153.024 307.145 153.024C306.297 153.024 305.513 153.68 305.513 154.72C305.513 155.728 306.265 156.304 307.145 156.304C308.137 156.304 308.777 155.472 308.521 153.76L309.401 154.208ZM319.113 148.224C319.465 148.256 319.913 148.272 320.233 148.272C321.081 148.272 324.873 148.16 325.721 148.08C326.201 148.032 326.425 148 326.601 147.936L327.337 148.88C327.049 149.072 326.729 149.28 326.425 149.52C325.641 150.128 323.465 152 322.217 153.024C322.953 152.784 323.721 152.704 324.441 152.704C327.097 152.704 329.001 154.288 329.001 156.448C329.001 159.024 326.873 160.704 323.481 160.704C321.305 160.704 319.977 159.76 319.977 158.416C319.977 157.328 320.969 156.336 322.441 156.336C324.569 156.336 325.641 157.84 325.753 159.456L324.601 159.648C324.505 158.288 323.721 157.312 322.441 157.312C321.705 157.312 321.145 157.76 321.145 158.32C321.145 159.104 322.025 159.568 323.289 159.568C326.009 159.568 327.721 158.448 327.721 156.448C327.721 154.864 326.217 153.696 324.121 153.696C321.465 153.696 320.025 154.816 318.009 156.88L317.081 155.952C318.409 154.864 320.473 153.136 321.385 152.352C322.281 151.616 324.297 149.936 325.097 149.216C324.249 149.264 321.049 149.392 320.217 149.44C319.849 149.472 319.497 149.488 319.145 149.536L319.113 148.224Z" fill="white"/>
<path d="M100 141.81H153" stroke="#2171C1" stroke-width="3" stroke-miterlimit="0" stroke-linecap="round" stroke-linejoin="bevel"/>
<rect x="417" y="251" width="237.667" height="87.6202" rx="35.0481" fill="#2171C1"/>
<path d="M477.254 276.2C477.654 276.776 478.23 277.752 478.55 278.392L477.686 278.792C477.366 278.136 476.822 277.176 476.39 276.568L477.254 276.2ZM478.998 275.56C479.43 276.152 480.038 277.144 480.342 277.736L479.478 278.12C479.126 277.432 478.614 276.52 478.166 275.928L478.998 275.56ZM478.31 279.384C478.182 279.624 478.022 279.992 477.942 280.248C477.51 281.848 476.518 284.024 475.11 285.752C473.654 287.528 471.734 289 468.726 290.104L467.574 289.064C470.518 288.2 472.502 286.744 473.958 285.048C475.206 283.576 476.182 281.512 476.518 280.056H470.582L471.094 278.904C471.75 278.904 475.702 278.904 476.198 278.904C476.63 278.904 476.982 278.856 477.254 278.744L478.31 279.384ZM472.95 276.968C472.694 277.384 472.406 277.928 472.246 278.232C471.302 279.992 469.622 282.28 467.062 283.992L465.942 283.16C468.71 281.512 470.278 279.192 470.982 277.752C471.142 277.48 471.382 276.888 471.478 276.488L472.95 276.968ZM489.206 288.664C489.27 288.424 489.318 288.088 489.318 287.768C489.318 287.032 489.318 279.192 489.318 278.184C489.318 277.576 489.238 277.128 489.238 277H490.71C490.694 277.128 490.63 277.592 490.63 278.2C490.63 279.192 490.63 286.936 490.63 287.416C492.118 286.744 494.086 285.288 495.302 283.48L496.07 284.584C494.678 286.456 492.47 288.088 490.614 289.016C490.342 289.144 490.182 289.288 490.054 289.368L489.206 288.664ZM481.878 288.6C483.238 287.64 484.182 286.216 484.662 284.664C485.142 283.192 485.142 280.008 485.142 278.216C485.142 277.752 485.11 277.4 485.03 277.064H486.502C486.486 277.24 486.422 277.736 486.422 278.2C486.422 279.976 486.374 283.416 485.942 285.016C485.462 286.728 484.438 288.28 483.094 289.4L481.878 288.6ZM498.278 282.072C498.774 282.12 499.606 282.168 500.518 282.168C501.686 282.168 508.102 282.168 509.286 282.168C510.086 282.168 510.646 282.104 511.014 282.072V283.64C510.678 283.624 510.006 283.576 509.302 283.576C508.086 283.576 501.702 283.576 500.518 283.576C499.638 283.576 498.79 283.608 498.278 283.64V282.072ZM524.413 277.512C524.413 278.104 524.877 278.568 525.469 278.568C526.045 278.568 526.525 278.104 526.525 277.512C526.525 276.936 526.045 276.456 525.469 276.456C524.877 276.456 524.413 276.936 524.413 277.512ZM523.677 277.512C523.677 276.52 524.477 275.72 525.469 275.72C526.461 275.72 527.261 276.52 527.261 277.512C527.261 278.504 526.461 279.304 525.469 279.304C524.477 279.304 523.677 278.504 523.677 277.512ZM525.069 278.584C524.957 278.808 524.893 279.08 524.829 279.384C524.477 281.064 523.709 283.656 522.429 285.288C520.973 287.176 519.069 288.648 516.141 289.576L515.053 288.376C518.157 287.592 519.949 286.232 521.293 284.52C522.429 283.08 523.165 280.84 523.389 279.304C522.461 279.304 516.125 279.304 515.197 279.304C514.557 279.304 514.013 279.336 513.613 279.368V277.944C514.045 277.992 514.685 278.056 515.213 278.056C516.125 278.056 522.509 278.056 523.229 278.056C523.485 278.056 523.789 278.04 524.093 277.96L525.069 278.584ZM536.365 278.088C536.157 279.752 535.837 281.624 535.341 283.336C534.365 286.616 533.085 288.312 531.613 288.312C530.173 288.312 528.749 286.68 528.749 284.024C528.749 280.552 531.837 277.528 535.757 277.528C539.501 277.528 541.885 280.168 541.885 283.416C541.885 286.76 539.677 289 535.869 289.496L535.133 288.312C535.645 288.264 536.125 288.2 536.509 288.12C538.557 287.656 540.573 286.12 540.573 283.352C540.573 280.792 538.797 278.68 535.725 278.68C532.205 278.68 530.013 281.576 530.013 283.928C530.013 285.944 530.925 286.84 531.645 286.84C532.397 286.84 533.261 285.752 534.077 283.048C534.541 281.528 534.877 279.72 535.037 278.056L536.365 278.088ZM543.933 282.712H558.461V283.912H543.933V282.712ZM550.589 280.136H551.837V288.744C551.837 289.544 551.613 289.912 551.005 290.104C550.413 290.296 549.373 290.328 547.837 290.328C547.741 289.976 547.517 289.432 547.309 289.08C548.605 289.128 549.789 289.128 550.141 289.112C550.477 289.096 550.589 289.016 550.589 288.728V280.136ZM545.581 276.68H556.029V277.864H545.581V276.68ZM555.613 276.68H555.933L556.205 276.616L557.117 277.288C555.661 278.76 553.389 280.344 551.517 281.304C551.341 281.032 550.973 280.648 550.733 280.44C552.477 279.608 554.605 278.088 555.613 276.952V276.68ZM569.069 283.8H570.253V290.296H569.069V283.8ZM565.021 283.544C567.117 283.512 570.317 283.416 573.341 283.304L573.309 284.296C570.381 284.472 567.325 284.6 565.133 284.68L565.021 283.544ZM572.989 275.864L573.725 276.84C571.741 277.352 568.605 277.624 566.077 277.72C566.045 277.432 565.885 277 565.773 276.728C568.253 276.6 571.293 276.312 572.989 275.864ZM571.757 278.248L572.813 278.872C571.277 280.68 569.133 282.856 567.469 284.232L566.637 283.64C568.285 282.264 570.461 279.976 571.757 278.248ZM569.021 276.76L570.173 277.304C569.357 278.36 568.381 279.592 567.597 280.376L566.701 279.896C567.469 279.08 568.461 277.72 569.021 276.76ZM571.341 285.896L572.333 285.464C573.197 286.552 574.125 288.008 574.477 288.984L573.421 289.48C573.085 288.52 572.189 287.016 571.341 285.896ZM571.197 282.024L572.077 281.512C573.085 282.52 574.189 283.896 574.653 284.824L573.709 285.432C573.261 284.488 572.173 283.064 571.197 282.024ZM565.597 279.8L566.317 279.064C567.421 279.8 568.765 280.888 569.389 281.672L568.605 282.504C567.997 281.72 566.685 280.568 565.597 279.8ZM566.653 285.56L567.773 285.864C567.181 287.24 566.269 288.696 565.437 289.624C565.213 289.448 564.717 289.144 564.429 288.984C565.309 288.104 566.125 286.808 566.653 285.56ZM559.501 282.984C561.021 282.696 563.325 282.232 565.549 281.752L565.629 282.84C563.565 283.304 561.373 283.784 559.789 284.136L559.501 282.984ZM559.965 276.536H564.813V277.672H559.965V276.536ZM562.029 279.784H563.181V288.824C563.181 289.496 563.053 289.848 562.621 290.056C562.189 290.248 561.469 290.28 560.477 290.28C560.429 289.944 560.269 289.416 560.093 289.064C560.861 289.08 561.549 289.08 561.757 289.08C561.981 289.08 562.029 289.016 562.029 288.824V279.784ZM564.573 276.536H564.861L565.101 276.456L565.933 277.016C565.181 278.344 564.013 279.816 562.989 280.744C562.813 280.504 562.461 280.152 562.221 279.96C563.101 279.16 564.093 277.768 564.573 276.792V276.536ZM575.757 276.664H589.949V277.72H575.757V276.664ZM579.453 275.576H580.637V278.952H579.453V275.576ZM584.957 275.576H586.141V278.952H584.957V275.576ZM581.005 282.312V283.608H584.685V282.312H581.005ZM581.005 280.216V281.496H584.685V280.216H581.005ZM579.917 279.352H585.805V284.472H579.917V279.352ZM582.301 278.104L583.485 278.312C583.197 278.92 582.925 279.512 582.717 279.944L581.725 279.72C581.933 279.256 582.173 278.568 582.301 278.104ZM588.541 278.744L589.565 279.288C588.829 280.088 587.837 280.92 587.069 281.48L586.173 280.984C586.941 280.408 587.965 279.432 588.541 278.744ZM575.757 285.416H589.917V286.456H575.757V285.416ZM582.189 284.216H583.389V290.28H582.189V284.216ZM581.725 285.784L582.637 286.2C581.165 287.912 578.509 289.4 576.141 290.12C575.997 289.816 575.661 289.4 575.405 289.176C577.741 288.584 580.381 287.256 581.725 285.784ZM583.853 285.848C585.149 287.32 587.773 288.568 590.221 289.08C589.965 289.304 589.645 289.736 589.501 290.024C587.021 289.384 584.413 287.96 582.973 286.232L583.853 285.848ZM576.189 279.48L577.053 278.872C577.901 279.448 578.861 280.344 579.293 281L578.365 281.688C577.965 281.016 577.021 280.104 576.189 279.48ZM585.869 282.712L586.557 281.96C587.709 282.488 589.197 283.336 589.933 283.944L589.229 284.792C588.509 284.168 587.037 283.272 585.869 282.712ZM575.645 283.768C576.605 283.416 577.981 282.792 579.357 282.2L579.613 283.144C578.429 283.72 577.181 284.312 576.157 284.792L575.645 283.768ZM593.805 276.408H604.141V280.52H593.805V279.48H602.941V277.448H593.805V276.408ZM593.085 276.408H594.269V280.232C594.269 283 593.981 287.112 592.061 289.88C591.869 289.64 591.357 289.24 591.085 289.112C592.909 286.504 593.085 282.824 593.085 280.232V276.408ZM593.821 281.912H604.445V282.984H593.821V281.912ZM596.221 284.232H601.693V288.376H596.221V287.384H600.557V285.24H596.221V284.232ZM595.581 284.232H596.685V289.32H595.581V284.232ZM604.045 281.912H605.245C605.245 281.912 605.245 282.296 605.245 282.456C605.021 287.368 604.845 289.144 604.349 289.72C604.061 290.088 603.741 290.2 603.261 290.248C602.797 290.28 601.965 290.28 601.117 290.232C601.085 289.896 600.957 289.416 600.765 289.096C601.629 289.176 602.413 289.192 602.701 289.192C603.005 289.192 603.165 289.144 603.309 288.968C603.661 288.568 603.885 286.856 604.045 282.136V281.912ZM481.065 306.104H495.705V307.416H481.065V306.104ZM500.409 308.44V309.24H507.897V308.44H500.409ZM500.409 309.944V310.76H507.897V309.944H500.409ZM500.409 306.968V307.736H507.897V306.968H500.409ZM499.273 306.216H509.081V311.496H499.273V306.216ZM505.161 311.08H506.345V312.728C506.345 313.08 506.473 313.128 507.193 313.128C507.529 313.128 509.225 313.128 509.689 313.128C510.265 313.128 510.377 312.952 510.441 311.64C510.665 311.816 511.145 311.976 511.465 312.04C511.337 313.72 510.985 314.12 509.801 314.12C509.465 314.12 507.401 314.12 507.081 314.12C505.561 314.12 505.161 313.832 505.161 312.744V311.08ZM501.721 311.112H502.905C502.441 313.016 501.113 313.88 497.433 314.312C497.353 314.04 497.081 313.608 496.889 313.384C500.217 313.08 501.305 312.488 501.721 311.112ZM505.657 304.136H510.969V305.096H505.657V304.136ZM505.833 301.192H511.401V302.152H505.833V301.192ZM506.089 299.56L507.177 299.8C506.681 301.4 505.865 303 504.969 304.024C504.777 303.848 504.313 303.528 504.041 303.384C504.921 302.44 505.657 301 506.089 299.56ZM500.393 300.536H501.385V302.024H500.393V300.536ZM500.393 303.544H501.385V305.08H500.393V303.544ZM498.233 301.688H503.753V304.008H498.233V303.256H502.681V302.424H498.233V301.688ZM504.105 300.152V300.904H498.729V304.888H504.313V305.656H497.625V300.152H504.105ZM519.369 300.36C519.225 300.984 519.049 301.864 518.633 302.936C518.233 303.912 517.641 304.984 517.001 305.816C517.625 305.448 518.537 305.224 519.241 305.224C520.473 305.224 521.433 305.96 521.433 307.256C521.433 308.088 521.465 309.928 521.481 310.92H520.249C520.313 310.072 520.329 308.424 520.313 307.592C520.297 306.664 519.657 306.232 518.825 306.232C517.801 306.232 516.793 306.744 516.057 307.4C515.593 307.848 515.145 308.424 514.617 309.08L513.513 308.264C515.817 306.056 516.889 304.2 517.433 302.84C517.785 301.96 518.009 301 518.057 300.248L519.369 300.36ZM513.881 302.088C514.745 302.2 515.849 302.248 516.585 302.248C518.745 302.248 521.513 302.12 523.769 301.72V302.904C521.529 303.24 518.553 303.384 516.521 303.384C515.833 303.384 514.777 303.352 513.881 303.288V302.088ZM526.105 305.944C525.705 306.072 525.129 306.296 524.697 306.456C523.561 306.904 522.041 307.512 520.489 308.312C518.905 309.144 517.785 310.008 517.785 311.112C517.785 312.36 519.017 312.552 520.665 312.552C521.913 312.552 523.641 312.408 525.049 312.152L525.001 313.448C523.785 313.592 522.009 313.72 520.617 313.72C518.345 313.72 516.505 313.224 516.505 311.288C516.505 309.336 518.489 308.136 520.393 307.16C521.913 306.376 523.209 305.88 524.265 305.384C524.745 305.16 525.145 304.984 525.593 304.76L526.105 305.944ZM536.009 301.768H541.913V302.936H536.009V301.768ZM528.585 300.568H536.409V301.688H528.585V300.568ZM530.457 303.816H534.617V304.92H530.457V303.816ZM530.457 307.144H534.617V308.232H530.457V307.144ZM541.561 301.768H541.769L541.993 301.736L542.761 301.944C541.993 308.312 539.545 312.072 536.121 314.056C535.929 313.752 535.593 313.304 535.321 313.08C538.489 311.432 540.873 307.672 541.561 302.056V301.768ZM537.465 303C538.313 307.624 540.169 311.416 543.465 313.112C543.193 313.352 542.809 313.8 542.617 314.12C539.145 312.152 537.305 308.248 536.313 303.224L537.465 303ZM529.833 301H530.985V311.384H529.833V301ZM534.121 301H535.273V314.248H534.121V301ZM528.265 311.032C529.833 310.84 532.249 310.504 534.585 310.152L534.649 311.256C532.457 311.608 530.153 311.976 528.489 312.232L528.265 311.032ZM551.353 303.128V304.44H556.649V303.128H551.353ZM551.353 300.968V302.264H556.649V300.968H551.353ZM550.201 300.056H557.849V305.352H550.201V300.056ZM549.209 306.456H558.617V307.464H549.209V306.456ZM548.841 308.84H558.905V309.896H548.841V308.84ZM555.305 307.336H556.505V312.968C556.505 313.608 556.361 313.928 555.881 314.104C555.401 314.296 554.633 314.296 553.433 314.296C553.385 313.976 553.193 313.528 553.033 313.208C553.945 313.24 554.745 313.24 554.985 313.224C555.241 313.208 555.305 313.144 555.305 312.936V307.336ZM550.233 310.712L551.081 310.136C551.817 310.808 552.697 311.752 553.113 312.376L552.201 313.048C551.817 312.408 550.953 311.416 550.233 310.712ZM547.961 303.128L549.017 303.56C547.929 305.464 546.217 307.4 544.633 308.648C544.537 308.408 544.201 307.768 543.993 307.496C545.449 306.44 547.001 304.792 547.961 303.128ZM547.657 299.608L548.809 300.056C547.849 301.432 546.313 302.936 544.889 303.88C544.761 303.608 544.457 303.144 544.249 302.904C545.529 302.072 546.969 300.744 547.657 299.608ZM546.521 305.96L547.641 304.824L547.689 304.856V314.28H546.521V305.96ZM569.513 300.328C569.481 300.52 569.433 301.144 569.433 301.336C569.385 302.376 569.417 305.464 569.433 306.744L568.217 306.12C568.217 305.416 568.201 302.232 568.153 301.352C568.121 300.92 568.073 300.472 568.041 300.328H569.513ZM561.001 302.568C563.177 302.536 567.177 302.392 569.641 302.392C571.593 302.392 573.577 302.392 574.329 302.408L574.313 303.592C573.417 303.544 571.977 303.512 569.625 303.512C566.873 303.512 563.449 303.624 561.033 303.8L561.001 302.568ZM569.401 307.208C569.401 309.352 568.409 310.424 566.953 310.424C565.609 310.424 564.313 309.48 564.313 307.736C564.313 306.152 565.625 304.968 567.145 304.968C569.001 304.968 569.945 306.344 569.945 308.184C569.945 310.36 568.889 312.76 565.177 313.864L564.105 312.824C567.017 312.136 568.713 310.712 568.713 308.072C568.713 306.632 568.009 306.024 567.145 306.024C566.297 306.024 565.513 306.68 565.513 307.72C565.513 308.728 566.265 309.304 567.145 309.304C568.137 309.304 568.777 308.472 568.521 306.76L569.401 307.208ZM579.113 301.224C579.465 301.256 579.913 301.272 580.233 301.272C581.081 301.272 584.873 301.16 585.721 301.08C586.201 301.032 586.425 301 586.601 300.936L587.337 301.88C587.049 302.072 586.729 302.28 586.425 302.52C585.641 303.128 583.465 305 582.217 306.024C582.953 305.784 583.721 305.704 584.441 305.704C587.097 305.704 589.001 307.288 589.001 309.448C589.001 312.024 586.873 313.704 583.481 313.704C581.305 313.704 579.977 312.76 579.977 311.416C579.977 310.328 580.969 309.336 582.441 309.336C584.569 309.336 585.641 310.84 585.753 312.456L584.601 312.648C584.505 311.288 583.721 310.312 582.441 310.312C581.705 310.312 581.145 310.76 581.145 311.32C581.145 312.104 582.025 312.568 583.289 312.568C586.009 312.568 587.721 311.448 587.721 309.448C587.721 307.864 586.217 306.696 584.121 306.696C581.465 306.696 580.025 307.816 578.009 309.88L577.081 308.952C578.409 307.864 580.473 306.136 581.385 305.352C582.281 304.616 584.297 302.936 585.097 302.216C584.249 302.264 581.049 302.392 580.217 302.44C579.849 302.472 579.497 302.488 579.145 302.536L579.113 301.224Z" fill="white"/>
<rect x="157" y="251" width="237.667" height="87.6202" rx="35.0481" fill="#2171C1"/>
<path d="M201.906 276.2C202.306 276.776 202.882 277.752 203.202 278.392L202.338 278.792C202.018 278.136 201.474 277.176 201.042 276.568L201.906 276.2ZM203.65 275.56C204.082 276.152 204.69 277.144 204.994 277.736L204.13 278.12C203.778 277.432 203.266 276.52 202.818 275.928L203.65 275.56ZM202.962 279.384C202.834 279.624 202.674 279.992 202.594 280.248C202.162 281.848 201.17 284.024 199.762 285.752C198.306 287.528 196.386 289 193.378 290.104L192.226 289.064C195.17 288.2 197.154 286.744 198.61 285.048C199.858 283.576 200.834 281.512 201.17 280.056H195.234L195.746 278.904C196.402 278.904 200.354 278.904 200.85 278.904C201.282 278.904 201.634 278.856 201.906 278.744L202.962 279.384ZM197.602 276.968C197.346 277.384 197.058 277.928 196.898 278.232C195.954 279.992 194.274 282.28 191.714 283.992L190.594 283.16C193.362 281.512 194.93 279.192 195.634 277.752C195.794 277.48 196.034 276.888 196.13 276.488L197.602 276.968ZM213.858 288.664C213.922 288.424 213.97 288.088 213.97 287.768C213.97 287.032 213.97 279.192 213.97 278.184C213.97 277.576 213.89 277.128 213.89 277H215.362C215.346 277.128 215.282 277.592 215.282 278.2C215.282 279.192 215.282 286.936 215.282 287.416C216.77 286.744 218.738 285.288 219.954 283.48L220.722 284.584C219.33 286.456 217.122 288.088 215.266 289.016C214.994 289.144 214.834 289.288 214.706 289.368L213.858 288.664ZM206.53 288.6C207.89 287.64 208.834 286.216 209.314 284.664C209.794 283.192 209.794 280.008 209.794 278.216C209.794 277.752 209.762 277.4 209.682 277.064H211.154C211.138 277.24 211.074 277.736 211.074 278.2C211.074 279.976 211.026 283.416 210.594 285.016C210.114 286.728 209.09 288.28 207.746 289.4L206.53 288.6ZM222.93 282.072C223.426 282.12 224.258 282.168 225.17 282.168C226.338 282.168 232.754 282.168 233.938 282.168C234.738 282.168 235.298 282.104 235.666 282.072V283.64C235.33 283.624 234.658 283.576 233.954 283.576C232.738 283.576 226.354 283.576 225.17 283.576C224.29 283.576 223.442 283.608 222.93 283.64V282.072ZM249.065 277.512C249.065 278.104 249.529 278.568 250.121 278.568C250.697 278.568 251.177 278.104 251.177 277.512C251.177 276.936 250.697 276.456 250.121 276.456C249.529 276.456 249.065 276.936 249.065 277.512ZM248.329 277.512C248.329 276.52 249.129 275.72 250.121 275.72C251.113 275.72 251.913 276.52 251.913 277.512C251.913 278.504 251.113 279.304 250.121 279.304C249.129 279.304 248.329 278.504 248.329 277.512ZM249.721 278.584C249.609 278.808 249.545 279.08 249.481 279.384C249.129 281.064 248.361 283.656 247.081 285.288C245.625 287.176 243.721 288.648 240.793 289.576L239.705 288.376C242.809 287.592 244.601 286.232 245.945 284.52C247.081 283.08 247.817 280.84 248.041 279.304C247.113 279.304 240.777 279.304 239.849 279.304C239.209 279.304 238.665 279.336 238.265 279.368V277.944C238.697 277.992 239.337 278.056 239.865 278.056C240.777 278.056 247.161 278.056 247.881 278.056C248.137 278.056 248.441 278.04 248.745 277.96L249.721 278.584ZM261.017 278.088C260.809 279.752 260.489 281.624 259.993 283.336C259.017 286.616 257.737 288.312 256.265 288.312C254.825 288.312 253.401 286.68 253.401 284.024C253.401 280.552 256.489 277.528 260.409 277.528C264.153 277.528 266.537 280.168 266.537 283.416C266.537 286.76 264.329 289 260.521 289.496L259.785 288.312C260.297 288.264 260.777 288.2 261.161 288.12C263.209 287.656 265.225 286.12 265.225 283.352C265.225 280.792 263.449 278.68 260.377 278.68C256.857 278.68 254.665 281.576 254.665 283.928C254.665 285.944 255.577 286.84 256.297 286.84C257.049 286.84 257.913 285.752 258.729 283.048C259.193 281.528 259.529 279.72 259.689 278.056L261.017 278.088ZM268.585 282.712H283.113V283.912H268.585V282.712ZM275.241 280.136H276.489V288.744C276.489 289.544 276.265 289.912 275.657 290.104C275.065 290.296 274.025 290.328 272.489 290.328C272.393 289.976 272.169 289.432 271.961 289.08C273.257 289.128 274.441 289.128 274.793 289.112C275.129 289.096 275.241 289.016 275.241 288.728V280.136ZM270.233 276.68H280.681V277.864H270.233V276.68ZM280.265 276.68H280.585L280.857 276.616L281.769 277.288C280.313 278.76 278.041 280.344 276.169 281.304C275.993 281.032 275.625 280.648 275.385 280.44C277.129 279.608 279.257 278.088 280.265 276.952V276.68ZM293.721 283.8H294.905V290.296H293.721V283.8ZM289.673 283.544C291.769 283.512 294.969 283.416 297.993 283.304L297.961 284.296C295.033 284.472 291.977 284.6 289.785 284.68L289.673 283.544ZM297.641 275.864L298.377 276.84C296.393 277.352 293.257 277.624 290.729 277.72C290.697 277.432 290.537 277 290.425 276.728C292.905 276.6 295.945 276.312 297.641 275.864ZM296.409 278.248L297.465 278.872C295.929 280.68 293.785 282.856 292.121 284.232L291.289 283.64C292.937 282.264 295.113 279.976 296.409 278.248ZM293.673 276.76L294.825 277.304C294.009 278.36 293.033 279.592 292.249 280.376L291.353 279.896C292.121 279.08 293.113 277.72 293.673 276.76ZM295.993 285.896L296.985 285.464C297.849 286.552 298.777 288.008 299.129 288.984L298.073 289.48C297.737 288.52 296.841 287.016 295.993 285.896ZM295.849 282.024L296.729 281.512C297.737 282.52 298.841 283.896 299.305 284.824L298.361 285.432C297.913 284.488 296.825 283.064 295.849 282.024ZM290.249 279.8L290.969 279.064C292.073 279.8 293.417 280.888 294.041 281.672L293.257 282.504C292.649 281.72 291.337 280.568 290.249 279.8ZM291.305 285.56L292.425 285.864C291.833 287.24 290.921 288.696 290.089 289.624C289.865 289.448 289.369 289.144 289.081 288.984C289.961 288.104 290.777 286.808 291.305 285.56ZM284.153 282.984C285.673 282.696 287.977 282.232 290.201 281.752L290.281 282.84C288.217 283.304 286.025 283.784 284.441 284.136L284.153 282.984ZM284.617 276.536H289.465V277.672H284.617V276.536ZM286.681 279.784H287.833V288.824C287.833 289.496 287.705 289.848 287.273 290.056C286.841 290.248 286.121 290.28 285.129 290.28C285.081 289.944 284.921 289.416 284.745 289.064C285.513 289.08 286.201 289.08 286.409 289.08C286.633 289.08 286.681 289.016 286.681 288.824V279.784ZM289.225 276.536H289.513L289.753 276.456L290.585 277.016C289.833 278.344 288.665 279.816 287.641 280.744C287.465 280.504 287.113 280.152 286.873 279.96C287.753 279.16 288.745 277.768 289.225 276.792V276.536ZM311.721 276.2C312.121 276.776 312.697 277.752 313.017 278.392L312.153 278.792C311.833 278.136 311.289 277.176 310.857 276.568L311.721 276.2ZM313.465 275.56C313.897 276.152 314.505 277.144 314.809 277.736L313.945 278.12C313.593 277.432 313.081 276.52 312.633 275.928L313.465 275.56ZM312.777 279.384C312.649 279.624 312.489 279.992 312.409 280.248C311.977 281.848 310.985 284.024 309.577 285.752C308.121 287.528 306.201 289 303.193 290.104L302.041 289.064C304.985 288.2 306.969 286.744 308.425 285.048C309.673 283.576 310.649 281.512 310.985 280.056H305.049L305.561 278.904C306.217 278.904 310.169 278.904 310.665 278.904C311.097 278.904 311.449 278.856 311.721 278.744L312.777 279.384ZM307.417 276.968C307.161 277.384 306.873 277.928 306.713 278.232C305.769 279.992 304.089 282.28 301.529 283.992L300.409 283.16C303.177 281.512 304.745 279.192 305.449 277.752C305.609 277.48 305.849 276.888 305.945 276.488L307.417 276.968ZM323.673 288.664C323.737 288.424 323.785 288.088 323.785 287.768C323.785 287.032 323.785 279.192 323.785 278.184C323.785 277.576 323.705 277.128 323.705 277H325.177C325.161 277.128 325.097 277.592 325.097 278.2C325.097 279.192 325.097 286.936 325.097 287.416C326.585 286.744 328.553 285.288 329.769 283.48L330.537 284.584C329.145 286.456 326.937 288.088 325.081 289.016C324.809 289.144 324.649 289.288 324.521 289.368L323.673 288.664ZM316.345 288.6C317.705 287.64 318.649 286.216 319.129 284.664C319.609 283.192 319.609 280.008 319.609 278.216C319.609 277.752 319.577 277.4 319.497 277.064H320.969C320.953 277.24 320.889 277.736 320.889 278.2C320.889 279.976 320.841 283.416 320.409 285.016C319.929 286.728 318.905 288.28 317.561 289.4L316.345 288.6ZM332.745 282.072C333.241 282.12 334.073 282.168 334.985 282.168C336.153 282.168 342.569 282.168 343.753 282.168C344.553 282.168 345.113 282.104 345.481 282.072V283.64C345.145 283.624 344.473 283.576 343.769 283.576C342.553 283.576 336.169 283.576 334.985 283.576C334.105 283.576 333.257 283.608 332.745 283.64V282.072ZM358.88 277.512C358.88 278.104 359.344 278.568 359.936 278.568C360.512 278.568 360.992 278.104 360.992 277.512C360.992 276.936 360.512 276.456 359.936 276.456C359.344 276.456 358.88 276.936 358.88 277.512ZM358.144 277.512C358.144 276.52 358.944 275.72 359.936 275.72C360.928 275.72 361.728 276.52 361.728 277.512C361.728 278.504 360.928 279.304 359.936 279.304C358.944 279.304 358.144 278.504 358.144 277.512ZM359.536 278.584C359.424 278.808 359.36 279.08 359.296 279.384C358.944 281.064 358.176 283.656 356.896 285.288C355.44 287.176 353.536 288.648 350.608 289.576L349.52 288.376C352.624 287.592 354.416 286.232 355.76 284.52C356.896 283.08 357.632 280.84 357.856 279.304C356.928 279.304 350.592 279.304 349.664 279.304C349.024 279.304 348.48 279.336 348.08 279.368V277.944C348.512 277.992 349.152 278.056 349.68 278.056C350.592 278.056 356.976 278.056 357.696 278.056C357.952 278.056 358.256 278.04 358.56 277.96L359.536 278.584ZM221.065 306.104H235.705V307.416H221.065V306.104ZM240.409 308.44V309.24H247.897V308.44H240.409ZM240.409 309.944V310.76H247.897V309.944H240.409ZM240.409 306.968V307.736H247.897V306.968H240.409ZM239.273 306.216H249.081V311.496H239.273V306.216ZM245.161 311.08H246.345V312.728C246.345 313.08 246.473 313.128 247.193 313.128C247.529 313.128 249.225 313.128 249.689 313.128C250.265 313.128 250.377 312.952 250.441 311.64C250.665 311.816 251.145 311.976 251.465 312.04C251.337 313.72 250.985 314.12 249.801 314.12C249.465 314.12 247.401 314.12 247.081 314.12C245.561 314.12 245.161 313.832 245.161 312.744V311.08ZM241.721 311.112H242.905C242.441 313.016 241.113 313.88 237.433 314.312C237.353 314.04 237.081 313.608 236.889 313.384C240.217 313.08 241.305 312.488 241.721 311.112ZM245.657 304.136H250.969V305.096H245.657V304.136ZM245.833 301.192H251.401V302.152H245.833V301.192ZM246.089 299.56L247.177 299.8C246.681 301.4 245.865 303 244.969 304.024C244.777 303.848 244.313 303.528 244.041 303.384C244.921 302.44 245.657 301 246.089 299.56ZM240.393 300.536H241.385V302.024H240.393V300.536ZM240.393 303.544H241.385V305.08H240.393V303.544ZM238.233 301.688H243.753V304.008H238.233V303.256H242.681V302.424H238.233V301.688ZM244.105 300.152V300.904H238.729V304.888H244.313V305.656H237.625V300.152H244.105ZM259.369 300.36C259.225 300.984 259.049 301.864 258.633 302.936C258.233 303.912 257.641 304.984 257.001 305.816C257.625 305.448 258.537 305.224 259.241 305.224C260.473 305.224 261.433 305.96 261.433 307.256C261.433 308.088 261.465 309.928 261.481 310.92H260.249C260.313 310.072 260.329 308.424 260.313 307.592C260.297 306.664 259.657 306.232 258.825 306.232C257.801 306.232 256.793 306.744 256.057 307.4C255.593 307.848 255.145 308.424 254.617 309.08L253.513 308.264C255.817 306.056 256.889 304.2 257.433 302.84C257.785 301.96 258.009 301 258.057 300.248L259.369 300.36ZM253.881 302.088C254.745 302.2 255.849 302.248 256.585 302.248C258.745 302.248 261.513 302.12 263.769 301.72V302.904C261.529 303.24 258.553 303.384 256.521 303.384C255.833 303.384 254.777 303.352 253.881 303.288V302.088ZM266.105 305.944C265.705 306.072 265.129 306.296 264.697 306.456C263.561 306.904 262.041 307.512 260.489 308.312C258.905 309.144 257.785 310.008 257.785 311.112C257.785 312.36 259.017 312.552 260.665 312.552C261.913 312.552 263.641 312.408 265.049 312.152L265.001 313.448C263.785 313.592 262.009 313.72 260.617 313.72C258.345 313.72 256.505 313.224 256.505 311.288C256.505 309.336 258.489 308.136 260.393 307.16C261.913 306.376 263.209 305.88 264.265 305.384C264.745 305.16 265.145 304.984 265.593 304.76L266.105 305.944ZM276.009 301.768H281.913V302.936H276.009V301.768ZM268.585 300.568H276.409V301.688H268.585V300.568ZM270.457 303.816H274.617V304.92H270.457V303.816ZM270.457 307.144H274.617V308.232H270.457V307.144ZM281.561 301.768H281.769L281.993 301.736L282.761 301.944C281.993 308.312 279.545 312.072 276.121 314.056C275.929 313.752 275.593 313.304 275.321 313.08C278.489 311.432 280.873 307.672 281.561 302.056V301.768ZM277.465 303C278.313 307.624 280.169 311.416 283.465 313.112C283.193 313.352 282.809 313.8 282.617 314.12C279.145 312.152 277.305 308.248 276.313 303.224L277.465 303ZM269.833 301H270.985V311.384H269.833V301ZM274.121 301H275.273V314.248H274.121V301ZM268.265 311.032C269.833 310.84 272.249 310.504 274.585 310.152L274.649 311.256C272.457 311.608 270.153 311.976 268.489 312.232L268.265 311.032ZM291.353 303.128V304.44H296.649V303.128H291.353ZM291.353 300.968V302.264H296.649V300.968H291.353ZM290.201 300.056H297.849V305.352H290.201V300.056ZM289.209 306.456H298.617V307.464H289.209V306.456ZM288.841 308.84H298.905V309.896H288.841V308.84ZM295.305 307.336H296.505V312.968C296.505 313.608 296.361 313.928 295.881 314.104C295.401 314.296 294.633 314.296 293.433 314.296C293.385 313.976 293.193 313.528 293.033 313.208C293.945 313.24 294.745 313.24 294.985 313.224C295.241 313.208 295.305 313.144 295.305 312.936V307.336ZM290.233 310.712L291.081 310.136C291.817 310.808 292.697 311.752 293.113 312.376L292.201 313.048C291.817 312.408 290.953 311.416 290.233 310.712ZM287.961 303.128L289.017 303.56C287.929 305.464 286.217 307.4 284.633 308.648C284.537 308.408 284.201 307.768 283.993 307.496C285.449 306.44 287.001 304.792 287.961 303.128ZM287.657 299.608L288.809 300.056C287.849 301.432 286.313 302.936 284.889 303.88C284.761 303.608 284.457 303.144 284.249 302.904C285.529 302.072 286.969 300.744 287.657 299.608ZM286.521 305.96L287.641 304.824L287.689 304.856V314.28H286.521V305.96ZM309.513 300.328C309.481 300.52 309.433 301.144 309.433 301.336C309.385 302.376 309.417 305.464 309.433 306.744L308.217 306.12C308.217 305.416 308.201 302.232 308.153 301.352C308.121 300.92 308.073 300.472 308.041 300.328H309.513ZM301.001 302.568C303.177 302.536 307.177 302.392 309.641 302.392C311.593 302.392 313.577 302.392 314.329 302.408L314.313 303.592C313.417 303.544 311.977 303.512 309.625 303.512C306.873 303.512 303.449 303.624 301.033 303.8L301.001 302.568ZM309.401 307.208C309.401 309.352 308.409 310.424 306.953 310.424C305.609 310.424 304.313 309.48 304.313 307.736C304.313 306.152 305.625 304.968 307.145 304.968C309.001 304.968 309.945 306.344 309.945 308.184C309.945 310.36 308.889 312.76 305.177 313.864L304.105 312.824C307.017 312.136 308.713 310.712 308.713 308.072C308.713 306.632 308.009 306.024 307.145 306.024C306.297 306.024 305.513 306.68 305.513 307.72C305.513 308.728 306.265 309.304 307.145 309.304C308.137 309.304 308.777 308.472 308.521 306.76L309.401 307.208ZM319.113 301.224C319.465 301.256 319.913 301.272 320.233 301.272C321.081 301.272 324.873 301.16 325.721 301.08C326.201 301.032 326.425 301 326.601 300.936L327.337 301.88C327.049 302.072 326.729 302.28 326.425 302.52C325.641 303.128 323.465 305 322.217 306.024C322.953 305.784 323.721 305.704 324.441 305.704C327.097 305.704 329.001 307.288 329.001 309.448C329.001 312.024 326.873 313.704 323.481 313.704C321.305 313.704 319.977 312.76 319.977 311.416C319.977 310.328 320.969 309.336 322.441 309.336C324.569 309.336 325.641 310.84 325.753 312.456L324.601 312.648C324.505 311.288 323.721 310.312 322.441 310.312C321.705 310.312 321.145 310.76 321.145 311.32C321.145 312.104 322.025 312.568 323.289 312.568C326.009 312.568 327.721 311.448 327.721 309.448C327.721 307.864 326.217 306.696 324.121 306.696C321.465 306.696 320.025 307.816 318.009 309.88L317.081 308.952C318.409 307.864 320.473 306.136 321.385 305.352C322.281 304.616 324.297 302.936 325.097 302.216C324.249 302.264 321.049 302.392 320.217 302.44C319.849 302.472 319.497 302.488 319.145 302.536L319.113 301.224Z" fill="white"/>
<path d="M274.333 247C274.333 247.828 275.005 248.5 275.833 248.5C276.662 248.5 277.333 247.828 277.333 247H274.333ZM282.494 204.62C283.322 204.62 283.908 203.606 283.494 202.888L276.833 191.352C276.419 190.635 275.247 190.635 274.833 191.352L268.173 202.888C267.759 203.606 268.345 204.62 269.173 204.62H282.494ZM277.333 247V203.12H274.333V247H277.333Z" fill="#2171C1"/>
<path d="M534.333 247C534.333 247.828 535.005 248.5 535.833 248.5C536.662 248.5 537.333 247.828 537.333 247H534.333ZM429.833 224.5C429.005 224.5 428.333 225.172 428.333 226C428.333 226.828 429.005 227.5 429.833 227.5V224.5ZM381.833 227.5C382.662 227.5 383.333 226.828 383.333 226C383.333 225.172 382.662 224.5 381.833 224.5V227.5ZM282.494 204.62C283.322 204.62 283.908 203.606 283.494 202.888L276.833 191.352C276.419 190.635 275.247 190.635 274.833 191.352L268.173 202.888C267.759 203.606 268.345 204.62 269.173 204.62H282.494ZM535.833 247H537.333H535.833ZM514.833 224.5H429.833V227.5H514.833V224.5ZM381.833 224.5H299.833V227.5H381.833V224.5ZM299.833 224.5C287.407 224.5 277.333 214.426 277.333 202H274.333C274.333 216.083 285.75 227.5 299.833 227.5V224.5ZM537.333 247C537.333 234.574 527.26 224.5 514.833 224.5V227.5C525.603 227.5 534.333 236.23 534.333 247H537.333Z" fill="#2171C1"/>
<path d="M397.633 224.544L398.513 223.84C399.681 224.704 400.961 225.952 401.505 226.896L400.561 227.68C400.033 226.752 398.785 225.456 397.633 224.544ZM401.761 219.44H402.929V230.912C402.929 231.408 402.961 231.712 403.041 231.776C403.121 231.84 403.233 231.856 403.345 231.856C403.489 231.856 403.729 231.856 403.889 231.856C404.033 231.856 404.193 231.84 404.273 231.776C404.353 231.696 404.417 231.52 404.433 231.184C404.465 230.8 404.497 229.968 404.497 228.896C404.769 229.136 405.153 229.36 405.489 229.456C405.473 230.352 405.425 231.456 405.345 231.856C405.249 232.304 405.105 232.576 404.865 232.736C404.625 232.912 404.321 232.96 403.969 232.96C403.745 232.96 403.281 232.96 403.073 232.96C402.769 232.96 402.401 232.864 402.129 232.656C401.873 232.432 401.761 232.128 401.761 230.8V219.44ZM396.465 219.44H397.617V224.576C397.617 227.248 397.249 230.944 394.689 233.328C394.513 233.088 394.049 232.704 393.777 232.56C396.209 230.32 396.465 227.088 396.465 224.576V219.44ZM397.089 219.44H402.513V220.592H397.089V219.44ZM391.409 219.568L392.065 218.688C393.137 219.088 394.465 219.808 395.137 220.368L394.417 221.36C393.793 220.784 392.481 220.016 391.409 219.568ZM390.529 223.936L391.169 223.008C392.241 223.376 393.617 224 394.305 224.528L393.649 225.536C392.977 225.008 391.633 224.336 390.529 223.936ZM390.977 232.288C391.825 231.056 393.057 228.944 393.953 227.104L394.849 227.888C394.033 229.584 392.929 231.584 392.001 233.072L390.977 232.288ZM413.521 218.96H414.737V230.832C414.737 231.728 414.897 231.92 415.793 231.92C416.225 231.92 418.401 231.92 418.945 231.92C419.825 231.92 419.953 231.328 420.065 228.992C420.369 229.216 420.865 229.44 421.217 229.52C421.025 232.144 420.673 233.056 419.009 233.056C418.593 233.056 416.081 233.056 415.713 233.056C414.033 233.056 413.521 232.576 413.521 230.816V218.96ZM419.521 221.616L420.401 222.64C418.785 223.968 416.433 225.264 414.321 226.368C414.241 226.096 414.001 225.68 413.825 225.424C415.873 224.352 418.161 222.864 419.521 221.616ZM410.737 218.816L411.905 219.2C410.705 222.016 408.785 224.752 406.801 226.528C406.673 226.24 406.305 225.616 406.065 225.328C407.921 223.776 409.681 221.344 410.737 218.816ZM408.913 222.992L410.081 221.824L410.097 221.84V233.264H408.913V222.992Z" fill="black" fill-opacity="0.8"/>
<defs>
<clipPath id="clip0_133_1415">
<rect width="96" height="96" fill="white" transform="translate(0 94)"/>
</clipPath>
</defs>
</svg>
