<svg width="780" height="460" viewBox="0 0 780 460" fill="none" xmlns="http://www.w3.org/2000/svg">
<path d="M8.608 9.168H13.392V10.896H8.608V9.168ZM8.608 13.184H13.392V14.912H8.608V13.184ZM7.616 5.216H14.48V18.352H12.544V6.944H9.472V18.352H7.616V5.216ZM6.144 17.296H15.552V19.024H6.144V17.296ZM2.88 4.432L4.576 5.024C3.92 6.272 3.168 7.696 2.544 8.576L1.248 8.048C1.824 7.088 2.512 5.552 2.88 4.432ZM4.8 6.32L6.416 6.992C5.232 8.832 3.664 11.056 2.432 12.416L1.264 11.824C2.496 10.384 3.952 8.032 4.8 6.32ZM0.416 8.224L1.312 6.896C2.176 7.632 3.168 8.656 3.584 9.36L2.608 10.864C2.208 10.096 1.232 8.992 0.416 8.224ZM4.4 10.176L5.76 9.584C6.4 10.656 7.04 12.048 7.248 12.976L5.792 13.648C5.6 12.736 5.008 11.28 4.4 10.176ZM0.4 11.472C1.888 11.424 4.096 11.328 6.24 11.216V12.736C4.224 12.896 2.144 13.04 0.56 13.136L0.4 11.472ZM4.688 14.192L6.096 13.728C6.512 14.688 6.944 15.936 7.136 16.752L5.632 17.296C5.488 16.464 5.072 15.168 4.688 14.192ZM1.088 13.824L2.672 14.096C2.512 15.632 2.16 17.232 1.696 18.256C1.36 18.048 0.64 17.712 0.24 17.552C0.704 16.608 0.96 15.184 1.088 13.824ZM2.944 12.32H4.656V19.456H2.944V12.32ZM23.216 4.4H24.96V6.752H23.216V4.4ZM21.968 7.568L23.248 7.28C23.504 7.952 23.696 8.848 23.728 9.408L22.368 9.744C22.368 9.152 22.208 8.256 21.968 7.568ZM21.392 5.952H26.784V7.392H21.392V5.952ZM21.12 9.552H31.2V11.056H21.12V9.552ZM22.704 14.064H25.696V15.344H22.704V14.064ZM22.576 11.776H26.576V17.648H22.576V16.336H25.024V13.104H22.576V11.776ZM22.016 11.776H23.472V18.48H22.016V11.776ZM24.912 7.184L26.464 7.52C26.16 8.304 25.888 9.152 25.632 9.712L24.352 9.392C24.544 8.768 24.8 7.824 24.912 7.184ZM26.976 4.512H28.608C28.56 11.616 28.992 17.36 29.936 17.424C30.144 17.44 30.304 16.704 30.384 15.456C30.64 15.824 31.312 16.32 31.568 16.496C31.184 18.992 30.448 19.568 29.872 19.552C27.424 19.456 27.056 13.536 26.976 4.512ZM28.496 6L29.888 5.44C30.464 6.368 31.072 7.6 31.328 8.416L29.856 9.056C29.616 8.24 29.04 6.944 28.496 6ZM29.696 11.648L31.2 12.064C30.224 15.232 28.448 17.808 25.84 19.472C25.6 19.12 25.04 18.512 24.688 18.24C27.136 16.8 28.896 14.4 29.696 11.648ZM18.256 4.432L19.872 4.944C19.312 6.176 18.688 7.6 18.176 8.496L16.928 8.016C17.424 7.056 17.968 5.536 18.256 4.432ZM19.92 6.368L21.408 7.008C20.384 8.816 19.024 11.04 17.92 12.416L16.864 11.856C17.904 10.416 19.2 8.08 19.92 6.368ZM16.256 8.096L17.04 6.736C17.84 7.504 18.784 8.544 19.136 9.264L18.272 10.816C17.92 10.032 17.024 8.896 16.256 8.096ZM19.376 10.112L20.64 9.632C21.216 10.72 21.76 12.112 21.904 13.04L20.544 13.6C20.416 12.688 19.92 11.232 19.376 10.112ZM16.16 11.44C17.424 11.392 19.248 11.296 21.104 11.184L21.088 12.672C19.408 12.848 17.696 12.992 16.32 13.104L16.16 11.44ZM19.792 14.112L21.056 13.712C21.392 14.64 21.712 15.84 21.856 16.624L20.512 17.088C20.416 16.272 20.096 15.04 19.792 14.112ZM16.752 13.824L18.192 14.064C18.08 15.568 17.808 17.152 17.408 18.176C17.12 17.984 16.464 17.696 16.112 17.552C16.512 16.608 16.672 15.168 16.752 13.824ZM18.288 12.288H19.856V19.44H18.288V12.288ZM44.112 4.896C44.512 5.488 45.072 6.496 45.376 7.088L44.096 7.648C43.76 6.992 43.264 6.032 42.832 5.424L44.112 4.896ZM46 4.176C46.416 4.784 47.008 5.792 47.296 6.352L46.016 6.896C45.68 6.24 45.168 5.296 44.736 4.704L46 4.176ZM45.536 8.416C45.36 8.736 45.136 9.168 45.008 9.568C44.576 10.992 43.664 13.136 42.224 14.912C40.704 16.768 38.768 18.24 35.76 19.424L33.872 17.744C37.152 16.752 38.928 15.36 40.32 13.776C41.408 12.528 42.336 10.608 42.592 9.424H37.2L37.936 7.6C38.656 7.6 42 7.6 42.512 7.6C43.008 7.6 43.536 7.536 43.904 7.408L45.536 8.416ZM40.32 5.888C39.952 6.448 39.536 7.184 39.344 7.52C38.272 9.456 36.352 11.712 34.064 13.28L32.256 11.952C35.072 10.24 36.464 8.176 37.264 6.8C37.504 6.416 37.84 5.664 37.984 5.12L40.32 5.888ZM55.504 17.648C55.584 17.344 55.632 16.912 55.632 16.48C55.632 15.632 55.632 8.448 55.632 7.152C55.632 6.432 55.52 5.808 55.52 5.776H57.888C57.888 5.808 57.776 6.448 57.776 7.168C57.776 8.448 57.776 14.544 57.776 15.52C59.088 14.96 60.656 13.696 61.744 12.144L62.96 13.92C61.632 15.648 59.344 17.376 57.536 18.288C57.2 18.464 57.008 18.64 56.848 18.752L55.504 17.648ZM48.096 17.424C49.52 16.432 50.384 14.96 50.816 13.584C51.28 12.224 51.296 9.184 51.296 7.264C51.296 6.608 51.232 6.192 51.136 5.792H53.488C53.488 5.856 53.376 6.576 53.376 7.232C53.376 9.136 53.328 12.512 52.912 14.128C52.416 15.92 51.424 17.504 50.048 18.72L48.096 17.424ZM64.752 10.592C65.344 10.64 66.496 10.704 67.328 10.704C69.216 10.704 74.496 10.704 75.92 10.704C76.672 10.704 77.376 10.624 77.808 10.592V13.12C77.424 13.104 76.608 13.024 75.936 13.024C74.48 13.024 69.216 13.024 67.328 13.024C66.432 13.024 65.36 13.072 64.752 13.12V10.592ZM91.0149 6.272C91.0149 6.784 91.4309 7.2 91.9429 7.2C92.4549 7.2 92.8709 6.784 92.8709 6.272C92.8709 5.76 92.4549 5.344 91.9429 5.344C91.4309 5.344 91.0149 5.76 91.0149 6.272ZM90.0229 6.272C90.0229 5.216 90.8869 4.352 91.9429 4.352C92.9989 4.352 93.8629 5.216 93.8629 6.272C93.8629 7.328 92.9989 8.192 91.9429 8.192C90.8869 8.192 90.0229 7.328 90.0229 6.272ZM91.9749 7.536C91.8149 7.84 91.7029 8.304 91.6229 8.64C91.2549 10.208 90.5509 12.704 89.2069 14.48C87.7669 16.4 85.6389 17.984 82.7749 18.896L81.0309 16.976C84.2149 16.24 86.0229 14.848 87.3029 13.232C88.3749 11.904 88.9829 10.08 89.1909 8.704C88.2149 8.704 82.9349 8.704 81.7349 8.704C80.9989 8.704 80.2469 8.752 79.8309 8.784V6.512C80.3109 6.576 81.2069 6.656 81.7349 6.656C82.9349 6.656 88.2469 6.656 89.1429 6.656C89.4629 6.656 89.9749 6.64 90.3909 6.528L91.9749 7.536ZM97.1109 17.376C97.2869 16.976 97.3189 16.704 97.3189 16.336C97.3189 15.12 97.3189 9.44 97.3189 7.648C97.3189 7.056 97.2229 6.288 97.1269 5.84H99.6389C99.5589 6.448 99.4949 7.04 99.4949 7.648C99.4949 9.424 99.4949 14.752 99.4949 15.968C102.103 15.232 105.671 13.184 107.719 10.672L108.855 12.496C106.663 15.104 103.335 17.024 99.5589 18.256C99.3509 18.32 98.9989 18.432 98.6149 18.688L97.1109 17.376ZM121.143 6.912C121.607 7.584 122.295 8.736 122.663 9.472L121.223 10.096C120.759 9.088 120.343 8.32 119.751 7.488L121.143 6.912ZM123.287 6.032C123.767 6.672 124.487 7.808 124.855 8.528L123.447 9.2C122.935 8.192 122.503 7.472 121.911 6.672L123.287 6.032ZM110.375 13.456C110.839 13.056 111.191 12.72 111.687 12.224C112.407 11.504 113.655 9.936 114.759 8.624C115.719 7.488 116.663 7.312 117.895 8.48C118.983 9.504 120.199 10.768 121.159 11.808C122.231 12.96 123.879 14.72 125.111 16.032L123.335 17.936C122.263 16.608 120.919 14.944 119.975 13.84C119.031 12.736 117.623 11.184 117.047 10.592C116.519 10.08 116.183 10.112 115.735 10.688C115.095 11.504 113.975 13.072 113.319 13.952C112.951 14.448 112.583 15.024 112.295 15.44L110.375 13.456ZM133.671 17.648C133.751 17.344 133.799 16.912 133.799 16.48C133.799 15.632 133.799 8.448 133.799 7.152C133.799 6.432 133.687 5.808 133.687 5.776H136.055C136.055 5.808 135.943 6.448 135.943 7.168C135.943 8.448 135.943 14.544 135.943 15.52C137.255 14.96 138.823 13.696 139.911 12.144L141.127 13.92C139.799 15.648 137.511 17.376 135.703 18.288C135.367 18.464 135.175 18.64 135.015 18.752L133.671 17.648ZM126.263 17.424C127.687 16.432 128.551 14.96 128.983 13.584C129.447 12.224 129.463 9.184 129.463 7.264C129.463 6.608 129.399 6.192 129.303 5.792H131.655C131.655 5.856 131.543 6.576 131.543 7.232C131.543 9.136 131.495 12.512 131.079 14.128C130.583 15.92 129.591 17.504 128.215 18.72L126.263 17.424ZM147.559 17.072H154.727V18.816H147.559V17.072ZM146.759 5.984H152.423V7.68H146.759V5.984ZM147.175 4.32L149.335 4.752C147.975 7.088 146.055 9.232 143.175 10.96C142.903 10.48 142.263 9.776 141.831 9.44C144.471 8.048 146.247 6.096 147.175 4.32ZM151.815 5.984H152.183L152.503 5.888L153.831 6.592C151.959 11.568 147.687 14.832 142.919 16.432C142.679 15.904 142.199 15.12 141.799 14.72C146.215 13.44 150.343 10.336 151.815 6.304V5.984ZM144.663 9.504L146.087 8.256C147.191 9.04 148.647 10.176 149.351 11.008L147.799 12.4C147.191 11.568 145.767 10.336 144.663 9.504ZM153.831 12.192H155.831V19.456H153.831V12.192ZM148.375 12.192H154.791V13.936H148.375V19.424H146.455V13.616L147.911 12.192H148.375Z" fill="#757575"/>
<circle cx="16" cy="45" r="16" fill="#FFCD29"/>
<path d="M17.7528 40.2394V51.8757H15.9915V42.0007H15.9233L13.1392 43.8189V42.1371L16.0426 40.2394H17.7528Z" fill="black" fill-opacity="0.8"/>
<path d="M44.328 37.56H45.544V50.936C45.544 51.688 45.336 51.976 44.84 52.152C44.328 52.312 43.496 52.328 42.152 52.328C42.088 52.04 41.896 51.592 41.736 51.32C42.696 51.352 43.656 51.336 43.944 51.336C44.232 51.32 44.328 51.224 44.328 50.936V37.56ZM38.072 38.84H51.96V39.832H38.072V38.84ZM40.888 41.624V42.776H49.144V41.624H40.888ZM39.752 40.792H50.36V43.624H39.752V40.792ZM39.288 44.744H50.6V50.568H49.4V45.64H39.288V44.744ZM37.768 46.744H52.264V47.704H37.768V46.744ZM39.128 48.92H50.024V49.848H39.128V48.92ZM53.832 47.448H67.848V48.456H53.832V47.448ZM53.896 40.424H67.784V41.448H53.896V40.424ZM54.536 43.16H67.208V44.152H54.536V43.16ZM55.352 45.32H66.424V46.248H55.352V45.32ZM60.2 43.624H61.384V52.296H60.2V43.624ZM58.728 37.56H59.864V40.904H58.728V37.56ZM61.752 37.56H62.904V40.856H61.752V37.56ZM59.816 47.848L60.776 48.296C59.288 49.96 56.584 51.352 54.2 52.024C54.024 51.72 53.672 51.256 53.416 51C55.784 50.472 58.456 49.24 59.816 47.848ZM61.768 47.816C63.128 49.256 65.816 50.488 68.248 51C67.976 51.256 67.608 51.736 67.432 52.072C65 51.4 62.328 49.944 60.824 48.216L61.768 47.816ZM65.464 37.752L66.696 38.088C66.232 38.968 65.656 39.912 65.208 40.536L64.232 40.216C64.664 39.544 65.192 38.488 65.464 37.752ZM63.32 41.144L64.568 41.448C64.168 42.168 63.752 42.904 63.4 43.416L62.392 43.112C62.712 42.552 63.128 41.72 63.32 41.144ZM55.192 38.088L56.216 37.72C56.76 38.44 57.352 39.448 57.576 40.104L56.504 40.504C56.28 39.864 55.704 38.84 55.192 38.088ZM57.272 41.56L58.408 41.336C58.776 41.864 59.144 42.584 59.288 43.064L58.104 43.32C57.976 42.84 57.624 42.088 57.272 41.56ZM70.2 50.536C72.984 50.472 77.448 50.312 81.608 50.12L81.56 51.224C77.528 51.432 73.192 51.624 70.36 51.72L70.2 50.536ZM70.056 45.592H83.32V46.728H70.056V45.592ZM72.792 42.536H80.44V43.656H72.792V42.536ZM74.44 46.312L75.784 46.696C75.048 48.232 74.12 50.104 73.336 51.304L72.264 50.952C73.016 49.704 73.96 47.72 74.44 46.312ZM78.248 48.008L79.272 47.464C80.744 48.728 82.312 50.456 83.064 51.672L81.976 52.328C81.256 51.128 79.672 49.288 78.248 48.008ZM76.584 38.744C75.272 40.696 72.648 42.888 69.928 44.248C69.784 43.96 69.48 43.528 69.224 43.272C71.976 41.96 74.648 39.64 75.896 37.592H77.128C78.824 39.96 81.624 42.056 84.168 43.096C83.88 43.384 83.592 43.816 83.384 44.168C80.888 42.968 78.072 40.824 76.584 38.744ZM90.952 50.648H99.992V51.832H90.952V50.648ZM91.576 42.808H99.656V43.96H91.576V42.808ZM95.016 37.688H96.232V51.224H95.016V37.688ZM85.352 40.568H90.664V41.672H85.352V40.568ZM87.88 45.368L89.064 43.944V52.296H87.88V45.368ZM87.88 37.576H89.064V41.112H87.88V37.576ZM88.968 44.264C89.512 44.648 91.368 46.28 91.832 46.68L91.096 47.656C90.504 46.968 88.936 45.448 88.28 44.872L88.968 44.264ZM90.216 40.568H90.456L90.68 40.52L91.368 40.968C90.152 43.912 87.704 46.568 85.416 48.04C85.288 47.736 85 47.176 84.792 46.968C86.968 45.688 89.256 43.256 90.216 40.824V40.568Z" fill="#1E1E1E"/>
<circle cx="137" cy="45" r="16" fill="#FFCD29"/>
<path d="M133.213 51.8757V50.603L137.151 46.5235C137.571 46.0803 137.918 45.692 138.19 45.3587C138.467 45.0216 138.673 44.7015 138.81 44.3985C138.946 44.0954 139.014 43.7735 139.014 43.4326C139.014 43.0462 138.923 42.7129 138.741 42.4326C138.56 42.1485 138.312 41.9307 137.997 41.7791C137.683 41.6238 137.329 41.5462 136.935 41.5462C136.518 41.5462 136.154 41.6314 135.844 41.8019C135.533 41.9723 135.295 42.2129 135.128 42.5235C134.961 42.8341 134.878 43.1977 134.878 43.6144H133.202C133.202 42.906 133.365 42.2867 133.69 41.7564C134.016 41.2261 134.463 40.8151 135.031 40.5235C135.599 40.228 136.245 40.0803 136.969 40.0803C137.7 40.0803 138.344 40.2261 138.901 40.5178C139.461 40.8057 139.899 41.1996 140.213 41.6996C140.527 42.1958 140.685 42.7564 140.685 43.3814C140.685 43.8132 140.603 44.2356 140.44 44.6485C140.281 45.0613 140.003 45.5216 139.605 46.0291C139.207 46.5329 138.654 47.1447 137.946 47.8644L135.634 50.2848V50.3701H140.872V51.8757H133.213Z" fill="black" fill-opacity="0.8"/>
<path d="M162.64 44.792C164.384 48.344 168.128 50.488 173.376 51.192C173.104 51.464 172.784 51.992 172.608 52.328C167.264 51.512 163.536 49.208 161.536 45.192L162.64 44.792ZM159.952 43.672H170.384V44.84H159.952V43.672ZM159.216 40.008H172.72V41.208H159.216V40.008ZM165.344 37.576H166.576V44.216H165.344V37.576ZM170 43.672H170.272L170.512 43.624L171.328 44.12C169.344 49.048 164.592 51.32 159.28 52.28C159.168 51.976 158.848 51.416 158.624 51.144C163.824 50.328 168.336 48.296 170 43.912V43.672ZM180.304 50.648H189.344V51.832H180.304V50.648ZM180.928 42.808H189.008V43.96H180.928V42.808ZM184.368 37.688H185.584V51.224H184.368V37.688ZM174.704 40.568H180.016V41.672H174.704V40.568ZM177.232 45.368L178.416 43.944V52.296H177.232V45.368ZM177.232 37.576H178.416V41.112H177.232V37.576ZM178.32 44.264C178.864 44.648 180.72 46.28 181.184 46.68L180.448 47.656C179.856 46.968 178.288 45.448 177.632 44.872L178.32 44.264ZM179.568 40.568H179.808L180.032 40.52L180.72 40.968C179.504 43.912 177.056 46.568 174.768 48.04C174.64 47.736 174.352 47.176 174.144 46.968C176.32 45.688 178.608 43.256 179.568 40.824V40.568Z" fill="#1E1E1E"/>
<circle cx="226" cy="45" r="16" fill="#FFCD29"/>
<path d="M226.014 52.0348C225.234 52.0348 224.537 51.9004 223.923 51.6314C223.313 51.3625 222.83 50.9894 222.474 50.5121C222.122 50.031 221.933 49.4742 221.906 48.8416H223.69C223.713 49.1863 223.829 49.4856 224.037 49.7394C224.249 49.9894 224.526 50.1826 224.866 50.3189C225.207 50.4553 225.586 50.5235 226.003 50.5235C226.461 50.5235 226.866 50.4439 227.219 50.2848C227.575 50.1257 227.853 49.9041 228.054 49.6201C228.255 49.3322 228.355 49.0007 228.355 48.6257C228.355 48.2356 228.255 47.8928 228.054 47.5973C227.857 47.2981 227.567 47.0632 227.185 46.8928C226.806 46.7223 226.348 46.6371 225.81 46.6371H224.827V45.2053H225.81C226.241 45.2053 226.62 45.1276 226.946 44.9723C227.276 44.817 227.533 44.6011 227.719 44.3246C227.904 44.0443 227.997 43.7166 227.997 43.3416C227.997 42.9818 227.916 42.6693 227.753 42.4041C227.594 42.1352 227.366 41.925 227.071 41.7735C226.779 41.6219 226.435 41.5462 226.037 41.5462C225.658 41.5462 225.304 41.6163 224.974 41.7564C224.649 41.8928 224.384 42.0897 224.179 42.3473C223.974 42.6011 223.865 42.906 223.849 43.2621H222.151C222.17 42.6333 222.355 42.0803 222.707 41.603C223.063 41.1257 223.533 40.7526 224.116 40.4837C224.7 40.2147 225.348 40.0803 226.06 40.0803C226.806 40.0803 227.45 40.2261 227.991 40.5178C228.537 40.8057 228.957 41.1901 229.253 41.6712C229.552 42.1522 229.7 42.6788 229.696 43.2507C229.7 43.9022 229.518 44.4553 229.151 44.9098C228.787 45.3644 228.302 45.6693 227.696 45.8246V45.9155C228.469 46.0329 229.067 46.3397 229.491 46.836C229.92 47.3322 230.132 47.9477 230.128 48.6826C230.132 49.3227 229.954 49.8966 229.594 50.4041C229.238 50.9117 228.751 51.3113 228.134 51.603C227.516 51.8909 226.81 52.0348 226.014 52.0348Z" fill="black" fill-opacity="0.8"/>
<path d="M249.32 40.312C249.736 40.36 250.328 40.392 250.664 40.392H259.448C259.944 40.392 260.44 40.36 260.824 40.312V41.704C260.424 41.672 259.912 41.64 259.448 41.64H250.664C250.344 41.64 249.72 41.672 249.32 41.704V40.312ZM254.264 49.704V41.112H255.624V49.704H254.264ZM248.344 48.92C248.808 48.984 249.304 49.016 249.752 49.016H260.328C260.808 49.016 261.24 48.952 261.64 48.92V50.36C261.224 50.312 260.632 50.312 260.328 50.312H249.752C249.32 50.312 248.824 50.328 248.344 50.36V48.92ZM275.224 38.872C275.192 39.256 275.176 39.72 275.176 40.264C275.176 40.888 275.176 42.248 275.176 42.84C275.176 46.696 274.664 47.96 273.496 49.32C272.472 50.568 270.872 51.272 269.704 51.672L268.648 50.568C270.12 50.184 271.48 49.56 272.472 48.424C273.608 47.112 273.816 45.8 273.816 42.792C273.816 42.168 273.816 40.824 273.816 40.264C273.816 39.72 273.768 39.256 273.72 38.872H275.224ZM267.8 39C267.768 39.304 267.752 39.768 267.752 40.136C267.752 40.616 267.752 44.808 267.752 45.48C267.752 45.896 267.768 46.424 267.8 46.712H266.344C266.376 46.456 266.408 45.944 266.408 45.48C266.408 44.792 266.408 40.616 266.408 40.136C266.408 39.864 266.392 39.304 266.344 39H267.8ZM293.544 40.2C293.416 40.344 293.224 40.584 293.112 40.76C292.472 41.848 290.952 43.912 289.128 45.176L288.056 44.328C289.544 43.48 291.048 41.752 291.56 40.76C290.44 40.76 283.208 40.76 282.44 40.76C281.848 40.76 281.256 40.792 280.632 40.84V39.4C281.192 39.48 281.848 39.544 282.44 39.544C283.208 39.544 290.68 39.544 291.64 39.544C291.944 39.544 292.52 39.496 292.744 39.432L293.544 40.2ZM287.144 42.296C287.144 46.632 286.76 49.56 282.68 51.608L281.512 50.648C281.944 50.504 282.504 50.232 282.952 49.928C285.416 48.408 285.768 46.136 285.768 43.464C285.768 43.08 285.768 42.728 285.704 42.296H287.144Z" fill="#1E1E1E"/>
<circle cx="331" cy="45" r="16" fill="#FFCD29"/>
<path d="M326.641 49.603V48.1826L331.669 40.2394H332.788V42.3303H332.078L328.482 48.0235V48.1144H335.374V49.603H326.641ZM332.158 51.8757V49.1712L332.169 48.5235V40.2394H333.834V51.8757H332.158Z" fill="black" fill-opacity="0.8"/>
<path d="M356.96 43.304V45.16H363.152V43.304H356.96ZM355.84 42.376H364.32V46.088H355.84V42.376ZM359.216 45.64L360.56 45.768C360.272 46.568 359.936 47.4 359.664 47.976L358.624 47.784C358.848 47.176 359.104 46.264 359.216 45.64ZM354.704 47.368H365.6V52.28H364.4V48.44H355.856V52.296H354.704V47.368ZM355.312 50.632H364.928V51.688H355.312V50.632ZM353.472 40.104H366.72V43.256H365.552V41.144H354.576V43.256H353.472V40.104ZM364.512 37.704L365.76 38.136C365.104 39.016 364.336 39.992 363.712 40.632L362.752 40.216C363.344 39.544 364.096 38.472 364.512 37.704ZM354.416 38.232L355.44 37.784C356.016 38.424 356.672 39.304 356.944 39.896L355.872 40.392C355.6 39.8 354.992 38.888 354.416 38.232ZM358.416 37.912L359.456 37.544C359.952 38.216 360.512 39.176 360.72 39.8L359.632 40.216C359.424 39.592 358.896 38.616 358.416 37.912ZM368.832 47.448H382.848V48.456H368.832V47.448ZM368.896 40.424H382.784V41.448H368.896V40.424ZM369.536 43.16H382.208V44.152H369.536V43.16ZM370.352 45.32H381.424V46.248H370.352V45.32ZM375.2 43.624H376.384V52.296H375.2V43.624ZM373.728 37.56H374.864V40.904H373.728V37.56ZM376.752 37.56H377.904V40.856H376.752V37.56ZM374.816 47.848L375.776 48.296C374.288 49.96 371.584 51.352 369.2 52.024C369.024 51.72 368.672 51.256 368.416 51C370.784 50.472 373.456 49.24 374.816 47.848ZM376.768 47.816C378.128 49.256 380.816 50.488 383.248 51C382.976 51.256 382.608 51.736 382.432 52.072C380 51.4 377.328 49.944 375.824 48.216L376.768 47.816ZM380.464 37.752L381.696 38.088C381.232 38.968 380.656 39.912 380.208 40.536L379.232 40.216C379.664 39.544 380.192 38.488 380.464 37.752ZM378.32 41.144L379.568 41.448C379.168 42.168 378.752 42.904 378.4 43.416L377.392 43.112C377.712 42.552 378.128 41.72 378.32 41.144ZM370.192 38.088L371.216 37.72C371.76 38.44 372.352 39.448 372.576 40.104L371.504 40.504C371.28 39.864 370.704 38.84 370.192 38.088ZM372.272 41.56L373.408 41.336C373.776 41.864 374.144 42.584 374.288 43.064L373.104 43.32C372.976 42.84 372.624 42.088 372.272 41.56ZM384.624 38.456H391.52V39.56H384.624V38.456ZM392.656 43.016H399.088V44.168H392.656V43.016ZM396.128 43.768H397.312V52.296H396.128V43.768ZM392.192 39.144L393.696 39.544C393.68 39.656 393.6 39.72 393.376 39.752V43.416C393.376 46.008 393.04 49.672 390.64 52.248C390.464 51.992 390.032 51.592 389.744 51.448C391.968 49.08 392.192 45.864 392.192 43.416V39.144ZM385.216 41.224H386.352V45.544C386.352 47.592 386.16 50.424 384.928 52.312C384.736 52.088 384.24 51.72 383.984 51.576C385.104 49.848 385.216 47.384 385.216 45.544V41.224ZM397.712 37.752L398.768 38.664C397.184 39.432 394.864 40.088 392.864 40.552C392.8 40.28 392.608 39.848 392.448 39.576C394.352 39.128 396.512 38.44 397.712 37.752ZM385.872 41.224H391.12V46.216H385.872V45.128H389.952V42.328H385.872V41.224Z" fill="#1E1E1E"/>
<rect y="137.818" width="128" height="32" rx="3" fill="#0D99FF"/>
<path d="M34.44 158.778H46.136V159.994H34.44V158.778ZM34.472 153.066H46.136V154.266H34.472V153.066ZM33.8 147.482H46.76V160.97H45.528V148.65H34.984V160.97H33.8V147.482ZM39.56 148.042H40.776V159.386H39.56V148.042ZM49.624 149.242H62.52V156.778H61.272V150.426H50.824V156.858H49.624V149.242ZM50.264 154.682H61.992V155.85H50.264V154.682ZM55.416 146.378H56.664V161.082H55.416V146.378ZM64.84 147.482H79.032V148.538H64.84V147.482ZM68.536 146.394H69.72V149.77H68.536V146.394ZM74.04 146.394H75.224V149.77H74.04V146.394ZM70.088 153.13V154.426H73.768V153.13H70.088ZM70.088 151.034V152.314H73.768V151.034H70.088ZM69 150.17H74.888V155.29H69V150.17ZM71.384 148.922L72.568 149.13C72.28 149.738 72.008 150.33 71.8 150.762L70.808 150.538C71.016 150.074 71.256 149.386 71.384 148.922ZM77.624 149.562L78.648 150.106C77.912 150.906 76.92 151.738 76.152 152.298L75.256 151.802C76.024 151.226 77.048 150.25 77.624 149.562ZM64.84 156.234H79V157.274H64.84V156.234ZM71.272 155.034H72.472V161.098H71.272V155.034ZM70.808 156.602L71.72 157.018C70.248 158.73 67.592 160.218 65.224 160.938C65.08 160.634 64.744 160.218 64.488 159.994C66.824 159.402 69.464 158.074 70.808 156.602ZM72.936 156.666C74.232 158.138 76.856 159.386 79.304 159.898C79.048 160.122 78.728 160.554 78.584 160.842C76.104 160.202 73.496 158.778 72.056 157.05L72.936 156.666ZM65.272 150.298L66.136 149.69C66.984 150.266 67.944 151.162 68.376 151.818L67.448 152.506C67.048 151.834 66.104 150.922 65.272 150.298ZM74.952 153.53L75.64 152.778C76.792 153.306 78.28 154.154 79.016 154.762L78.312 155.61C77.592 154.986 76.12 154.09 74.952 153.53ZM64.728 154.586C65.688 154.234 67.064 153.61 68.44 153.018L68.696 153.962C67.512 154.538 66.264 155.13 65.24 155.61L64.728 154.586ZM82.888 147.226H93.224V151.338H82.888V150.298H92.024V148.266H82.888V147.226ZM82.168 147.226H83.352V151.05C83.352 153.818 83.064 157.93 81.144 160.698C80.952 160.458 80.44 160.058 80.168 159.93C81.992 157.322 82.168 153.642 82.168 151.05V147.226ZM82.904 152.73H93.528V153.802H82.904V152.73ZM85.304 155.05H90.776V159.194H85.304V158.202H89.64V156.058H85.304V155.05ZM84.664 155.05H85.768V160.138H84.664V155.05ZM93.128 152.73H94.328C94.328 152.73 94.328 153.114 94.328 153.274C94.104 158.186 93.928 159.962 93.432 160.538C93.144 160.906 92.824 161.018 92.344 161.066C91.88 161.098 91.048 161.098 90.2 161.05C90.168 160.714 90.04 160.234 89.848 159.914C90.712 159.994 91.496 160.01 91.784 160.01C92.088 160.01 92.248 159.962 92.392 159.786C92.744 159.386 92.968 157.674 93.128 152.954V152.73Z" fill="white"/>
<circle cx="124" cy="139.818" r="16" fill="#FFCD29"/>
<path d="M125.753 135.057V146.694H123.991V136.819H123.923L121.139 138.637V136.955L124.043 135.057H125.753Z" fill="black" fill-opacity="0.8"/>
<rect y="212.818" width="128" height="32" rx="3" fill="#0D99FF"/>
<path d="M25.392 222.914H39.376V224.034H25.392V222.914ZM31.68 221.394H32.928V236.098H31.68V221.394ZM31.312 230.562L32.32 231.01C30.816 233.026 28.176 234.898 25.84 235.858C25.648 235.554 25.28 235.09 24.992 234.85C27.328 234.034 29.952 232.322 31.312 230.562ZM33.328 230.578C34.704 232.338 37.376 234.05 39.744 234.85C39.456 235.09 39.088 235.554 38.896 235.89C36.528 234.946 33.856 233.026 32.352 231.026L33.328 230.578ZM27.968 228.77V230.306H36.864V228.77H27.968ZM27.968 226.338V227.858H36.864V226.338H27.968ZM26.8 225.394H38.08V231.266H26.8V225.394ZM42.992 222.466H53.472V235.858H52.208V223.682H44.224V235.922H42.992V222.466ZM43.808 228.018H52.736V229.202H43.808V228.018ZM43.792 233.682H52.768V234.882H43.792V233.682ZM57.024 224.754H70.992V225.97H57.024V224.754ZM60.224 231.89H67.68V233.106H60.224V231.89ZM63.344 221.394H64.608V236.098H63.344V221.394ZM62.976 225.154L64.048 225.522C62.624 228.914 60.112 231.97 57.344 233.586C57.152 233.282 56.752 232.834 56.48 232.594C59.152 231.202 61.696 228.226 62.976 225.154ZM65.008 225.202C66.272 228.242 68.784 231.154 71.552 232.482C71.248 232.738 70.832 233.218 70.64 233.554C67.808 231.986 65.344 228.93 63.936 225.57L65.008 225.202ZM76.464 228.61C78.208 232.162 81.952 234.306 87.2 235.01C86.928 235.282 86.608 235.81 86.432 236.146C81.088 235.33 77.36 233.026 75.36 229.01L76.464 228.61ZM73.776 227.49H84.208V228.658H73.776V227.49ZM73.04 223.826H86.544V225.026H73.04V223.826ZM79.168 221.394H80.4V228.034H79.168V221.394ZM83.824 227.49H84.096L84.336 227.442L85.152 227.938C83.168 232.866 78.416 235.138 73.104 236.098C72.992 235.794 72.672 235.234 72.448 234.962C77.648 234.146 82.16 232.114 83.824 227.73V227.49ZM94.128 234.466H103.168V235.65H94.128V234.466ZM94.752 226.626H102.832V227.778H94.752V226.626ZM98.192 221.506H99.408V235.042H98.192V221.506ZM88.528 224.386H93.84V225.49H88.528V224.386ZM91.056 229.186L92.24 227.762V236.114H91.056V229.186ZM91.056 221.394H92.24V224.93H91.056V221.394ZM92.144 228.082C92.688 228.466 94.544 230.098 95.008 230.498L94.272 231.474C93.68 230.786 92.112 229.266 91.456 228.69L92.144 228.082ZM93.392 224.386H93.632L93.856 224.338L94.544 224.786C93.328 227.73 90.88 230.386 88.592 231.858C88.464 231.554 88.176 230.994 87.968 230.786C90.144 229.506 92.432 227.074 93.392 224.642V224.386Z" fill="white"/>
<circle cx="124" cy="214.818" r="16" fill="#FFCD29"/>
<path d="M120.213 221.694V220.421L124.151 216.342C124.571 215.898 124.918 215.51 125.19 215.177C125.467 214.84 125.673 214.52 125.81 214.217C125.946 213.914 126.014 213.592 126.014 213.251C126.014 212.864 125.923 212.531 125.741 212.251C125.56 211.967 125.312 211.749 124.997 211.597C124.683 211.442 124.329 211.364 123.935 211.364C123.518 211.364 123.154 211.45 122.844 211.62C122.533 211.79 122.295 212.031 122.128 212.342C121.961 212.652 121.878 213.016 121.878 213.432H120.202C120.202 212.724 120.365 212.105 120.69 211.575C121.016 211.044 121.463 210.633 122.031 210.342C122.599 210.046 123.245 209.898 123.969 209.898C124.7 209.898 125.344 210.044 125.901 210.336C126.461 210.624 126.899 211.018 127.213 211.518C127.527 212.014 127.685 212.575 127.685 213.2C127.685 213.631 127.603 214.054 127.44 214.467C127.281 214.879 127.003 215.34 126.605 215.847C126.207 216.351 125.654 216.963 124.946 217.682L122.634 220.103V220.188H127.872V221.694H120.213Z" fill="black" fill-opacity="0.8"/>
<rect x="160" y="287.818" width="128" height="32" rx="3" fill="#0D99FF"/>
<path d="M191.536 304.794H195.552V308.57H191.536V307.674H194.512V305.69H191.536V304.794ZM191.056 304.794H192.096V309.482H191.056V304.794ZM190.48 297.85H199.472V298.89H190.48V297.85ZM189.68 302.586H199.76V303.658H189.68V302.586ZM197.264 303.258H198.432V309.77C198.432 310.442 198.288 310.746 197.792 310.922C197.312 311.098 196.512 311.114 195.232 311.114C195.184 310.81 194.992 310.362 194.832 310.042C195.808 310.074 196.672 310.074 196.944 310.058C197.184 310.042 197.264 309.978 197.264 309.754V303.258ZM194.496 296.41H195.648C195.504 300.042 194.816 301.594 190.816 302.378C190.72 302.106 190.448 301.674 190.224 301.434C193.84 300.794 194.384 299.594 194.496 296.41ZM194.272 300.042L194.992 299.21C196.432 299.866 198.448 300.874 199.504 301.498L198.752 302.442C197.744 301.818 195.76 300.746 194.272 300.042ZM185.184 300.202H189.952V301.338H185.184V300.202ZM187.088 296.49H188.224V306.922H187.088V296.49ZM184.88 307.258C186.208 306.794 188.192 306.026 190.112 305.258L190.352 306.378C188.608 307.114 186.752 307.882 185.312 308.474L184.88 307.258ZM201.792 297.434H214.576V298.618H201.792V297.434ZM201.008 309.29H215.36V310.458H201.008V309.29ZM207.424 297.882H208.72V310.042H207.424V297.882ZM210.16 305.594L211.024 304.922C212.032 305.834 213.344 307.082 214.016 307.834L213.12 308.618C212.464 307.85 211.168 306.538 210.16 305.594ZM202.48 303.002H213.952V304.17H202.48V303.002ZM218.32 299.13C218.736 299.178 219.328 299.21 219.664 299.21H228.448C228.944 299.21 229.44 299.178 229.824 299.13V300.522C229.424 300.49 228.912 300.458 228.448 300.458H219.664C219.344 300.458 218.72 300.49 218.32 300.522V299.13ZM223.264 308.522V299.93H224.624V308.522H223.264ZM217.344 307.738C217.808 307.802 218.304 307.834 218.752 307.834H229.328C229.808 307.834 230.24 307.77 230.64 307.738V309.178C230.224 309.13 229.632 309.13 229.328 309.13H218.752C218.32 309.13 217.824 309.146 217.344 309.178V307.738ZM244.224 297.69C244.192 298.074 244.176 298.538 244.176 299.082C244.176 299.706 244.176 301.066 244.176 301.658C244.176 305.514 243.664 306.778 242.496 308.138C241.472 309.386 239.872 310.09 238.704 310.49L237.648 309.386C239.12 309.002 240.48 308.378 241.472 307.242C242.608 305.93 242.816 304.618 242.816 301.61C242.816 300.986 242.816 299.642 242.816 299.082C242.816 298.538 242.768 298.074 242.72 297.69H244.224ZM236.8 297.818C236.768 298.122 236.752 298.586 236.752 298.954C236.752 299.434 236.752 303.626 236.752 304.298C236.752 304.714 236.768 305.242 236.8 305.53H235.344C235.376 305.274 235.408 304.762 235.408 304.298C235.408 303.61 235.408 299.434 235.408 298.954C235.408 298.682 235.392 298.122 235.344 297.818H236.8ZM262.544 299.018C262.416 299.162 262.224 299.402 262.112 299.578C261.472 300.666 259.952 302.73 258.128 303.994L257.056 303.146C258.544 302.298 260.048 300.57 260.56 299.578C259.44 299.578 252.208 299.578 251.44 299.578C250.848 299.578 250.256 299.61 249.632 299.658V298.218C250.192 298.298 250.848 298.362 251.44 298.362C252.208 298.362 259.68 298.362 260.64 298.362C260.944 298.362 261.52 298.314 261.744 298.25L262.544 299.018ZM256.144 301.114C256.144 305.45 255.76 308.378 251.68 310.426L250.512 309.466C250.944 309.322 251.504 309.05 251.952 308.746C254.416 307.226 254.768 304.954 254.768 302.282C254.768 301.898 254.768 301.546 254.704 301.114H256.144Z" fill="white"/>
<circle cx="284" cy="289.818" r="16" fill="#FFCD29"/>
<path d="M284.014 296.853C283.234 296.853 282.537 296.718 281.923 296.45C281.313 296.181 280.83 295.807 280.474 295.33C280.122 294.849 279.933 294.292 279.906 293.66H281.69C281.713 294.004 281.829 294.304 282.037 294.557C282.249 294.807 282.526 295.001 282.866 295.137C283.207 295.273 283.586 295.342 284.003 295.342C284.461 295.342 284.866 295.262 285.219 295.103C285.575 294.944 285.853 294.722 286.054 294.438C286.255 294.15 286.355 293.819 286.355 293.444C286.355 293.054 286.255 292.711 286.054 292.415C285.857 292.116 285.567 291.881 285.185 291.711C284.806 291.54 284.348 291.455 283.81 291.455H282.827V290.023H283.81C284.241 290.023 284.62 289.946 284.946 289.79C285.276 289.635 285.533 289.419 285.719 289.143C285.904 288.862 285.997 288.535 285.997 288.16C285.997 287.8 285.916 287.487 285.753 287.222C285.594 286.953 285.366 286.743 285.071 286.592C284.779 286.44 284.435 286.364 284.037 286.364C283.658 286.364 283.304 286.434 282.974 286.575C282.649 286.711 282.384 286.908 282.179 287.165C281.974 287.419 281.865 287.724 281.849 288.08H280.151C280.17 287.451 280.355 286.898 280.707 286.421C281.063 285.944 281.533 285.571 282.116 285.302C282.7 285.033 283.348 284.898 284.06 284.898C284.806 284.898 285.45 285.044 285.991 285.336C286.537 285.624 286.957 286.008 287.253 286.489C287.552 286.97 287.7 287.497 287.696 288.069C287.7 288.72 287.518 289.273 287.151 289.728C286.787 290.182 286.302 290.487 285.696 290.643V290.734C286.469 290.851 287.067 291.158 287.491 291.654C287.92 292.15 288.132 292.766 288.128 293.501C288.132 294.141 287.954 294.715 287.594 295.222C287.238 295.73 286.751 296.129 286.134 296.421C285.516 296.709 284.81 296.853 284.014 296.853Z" fill="black" fill-opacity="0.8"/>
<rect x="160" y="362.818" width="128" height="32" rx="3" fill="#0D99FF"/>
<path d="M199.622 377.122V378.978H205.814V377.122H199.622ZM198.502 376.194H206.982V379.906H198.502V376.194ZM201.878 379.458L203.222 379.586C202.934 380.386 202.598 381.218 202.326 381.794L201.286 381.602C201.51 380.994 201.766 380.082 201.878 379.458ZM197.366 381.186H208.262V386.098H207.062V382.258H198.518V386.114H197.366V381.186ZM197.974 384.45H207.59V385.506H197.974V384.45ZM196.134 373.922H209.382V377.074H208.214V374.962H197.238V377.074H196.134V373.922ZM207.174 371.522L208.422 371.954C207.766 372.834 206.998 373.81 206.374 374.45L205.414 374.034C206.006 373.362 206.758 372.29 207.174 371.522ZM197.078 372.05L198.102 371.602C198.678 372.242 199.334 373.122 199.606 373.714L198.534 374.21C198.262 373.618 197.654 372.706 197.078 372.05ZM201.078 371.73L202.118 371.362C202.614 372.034 203.174 372.994 203.382 373.618L202.294 374.034C202.086 373.41 201.558 372.434 201.078 371.73ZM211.494 381.266H225.51V382.274H211.494V381.266ZM211.558 374.242H225.446V375.266H211.558V374.242ZM212.198 376.978H224.87V377.97H212.198V376.978ZM213.014 379.138H224.086V380.066H213.014V379.138ZM217.862 377.442H219.046V386.114H217.862V377.442ZM216.39 371.378H217.526V374.722H216.39V371.378ZM219.414 371.378H220.566V374.674H219.414V371.378ZM217.478 381.666L218.438 382.114C216.95 383.778 214.246 385.17 211.862 385.842C211.686 385.538 211.334 385.074 211.078 384.818C213.446 384.29 216.118 383.058 217.478 381.666ZM219.43 381.634C220.79 383.074 223.478 384.306 225.91 384.818C225.638 385.074 225.27 385.554 225.094 385.89C222.662 385.218 219.99 383.762 218.486 382.034L219.43 381.634ZM223.126 371.57L224.358 371.906C223.894 372.786 223.318 373.73 222.87 374.354L221.894 374.034C222.326 373.362 222.854 372.306 223.126 371.57ZM220.982 374.962L222.23 375.266C221.83 375.986 221.414 376.722 221.062 377.234L220.054 376.93C220.374 376.37 220.79 375.538 220.982 374.962ZM212.854 371.906L213.878 371.538C214.422 372.258 215.014 373.266 215.238 373.922L214.166 374.322C213.942 373.682 213.366 372.658 212.854 371.906ZM214.934 375.378L216.07 375.154C216.438 375.682 216.806 376.402 216.95 376.882L215.766 377.138C215.638 376.658 215.286 375.906 214.934 375.378ZM227.286 372.274H234.182V373.378H227.286V372.274ZM235.318 376.834H241.75V377.986H235.318V376.834ZM238.79 377.586H239.974V386.114H238.79V377.586ZM234.854 372.962L236.358 373.362C236.342 373.474 236.262 373.538 236.038 373.57V377.234C236.038 379.826 235.702 383.49 233.302 386.066C233.126 385.81 232.694 385.41 232.406 385.266C234.63 382.898 234.854 379.682 234.854 377.234V372.962ZM227.878 375.042H229.014V379.362C229.014 381.41 228.822 384.242 227.59 386.13C227.398 385.906 226.902 385.538 226.646 385.394C227.766 383.666 227.878 381.202 227.878 379.362V375.042ZM240.374 371.57L241.43 372.482C239.846 373.25 237.526 373.906 235.526 374.37C235.462 374.098 235.27 373.666 235.11 373.394C237.014 372.946 239.174 372.258 240.374 371.57ZM228.534 375.042H233.782V380.034H228.534V378.946H232.614V376.146H228.534V375.042ZM244.396 384.818H242.532L246.72 373.182H248.748L252.936 384.818H251.072L247.782 375.295H247.691L244.396 384.818ZM244.708 380.261H250.754V381.739H244.708V380.261Z" fill="white"/>
<circle cx="284" cy="364.818" r="16" fill="#FFCD29"/>
<path d="M279.641 369.421V368.001L284.669 360.057H285.788V362.148H285.078L281.482 367.842V367.932H288.374V369.421H279.641ZM285.158 371.694V368.989L285.169 368.342V360.057H286.834V371.694H285.158Z" fill="black" fill-opacity="0.8"/>
<rect x="320" y="362.818" width="128" height="32" rx="3" fill="#0D99FF"/>
<path d="M359.99 377.122V378.978H366.182V377.122H359.99ZM358.87 376.194H367.35V379.906H358.87V376.194ZM362.246 379.458L363.59 379.586C363.302 380.386 362.966 381.218 362.694 381.794L361.654 381.602C361.878 380.994 362.134 380.082 362.246 379.458ZM357.734 381.186H368.63V386.098H367.43V382.258H358.886V386.114H357.734V381.186ZM358.342 384.45H367.958V385.506H358.342V384.45ZM356.502 373.922H369.75V377.074H368.582V374.962H357.606V377.074H356.502V373.922ZM367.542 371.522L368.79 371.954C368.134 372.834 367.366 373.81 366.742 374.45L365.782 374.034C366.374 373.362 367.126 372.29 367.542 371.522ZM357.446 372.05L358.47 371.602C359.046 372.242 359.702 373.122 359.974 373.714L358.902 374.21C358.63 373.618 358.022 372.706 357.446 372.05ZM361.446 371.73L362.486 371.362C362.982 372.034 363.542 372.994 363.75 373.618L362.662 374.034C362.454 373.41 361.926 372.434 361.446 371.73ZM371.862 381.266H385.878V382.274H371.862V381.266ZM371.926 374.242H385.814V375.266H371.926V374.242ZM372.566 376.978H385.238V377.97H372.566V376.978ZM373.382 379.138H384.454V380.066H373.382V379.138ZM378.23 377.442H379.414V386.114H378.23V377.442ZM376.758 371.378H377.894V374.722H376.758V371.378ZM379.782 371.378H380.934V374.674H379.782V371.378ZM377.846 381.666L378.806 382.114C377.318 383.778 374.614 385.17 372.23 385.842C372.054 385.538 371.702 385.074 371.446 384.818C373.814 384.29 376.486 383.058 377.846 381.666ZM379.798 381.634C381.158 383.074 383.846 384.306 386.278 384.818C386.006 385.074 385.638 385.554 385.462 385.89C383.03 385.218 380.358 383.762 378.854 382.034L379.798 381.634ZM383.494 371.57L384.726 371.906C384.262 372.786 383.686 373.73 383.238 374.354L382.262 374.034C382.694 373.362 383.222 372.306 383.494 371.57ZM381.35 374.962L382.598 375.266C382.198 375.986 381.782 376.722 381.43 377.234L380.422 376.93C380.742 376.37 381.158 375.538 381.35 374.962ZM373.222 371.906L374.246 371.538C374.79 372.258 375.382 373.266 375.606 373.922L374.534 374.322C374.31 373.682 373.734 372.658 373.222 371.906ZM375.302 375.378L376.438 375.154C376.806 375.682 377.174 376.402 377.318 376.882L376.134 377.138C376.006 376.658 375.654 375.906 375.302 375.378ZM387.654 372.274H394.55V373.378H387.654V372.274ZM395.686 376.834H402.118V377.986H395.686V376.834ZM399.158 377.586H400.342V386.114H399.158V377.586ZM395.222 372.962L396.726 373.362C396.71 373.474 396.63 373.538 396.406 373.57V377.234C396.406 379.826 396.07 383.49 393.67 386.066C393.494 385.81 393.062 385.41 392.774 385.266C394.998 382.898 395.222 379.682 395.222 377.234V372.962ZM388.246 375.042H389.382V379.362C389.382 381.41 389.19 384.242 387.958 386.13C387.766 385.906 387.27 385.538 387.014 385.394C388.134 383.666 388.246 381.202 388.246 379.362V375.042ZM400.742 371.57L401.798 372.482C400.214 373.25 397.894 373.906 395.894 374.37C395.83 374.098 395.638 373.666 395.478 373.394C397.382 372.946 399.542 372.258 400.742 371.57ZM388.902 375.042H394.15V380.034H388.902V378.946H392.982V376.146H388.902V375.042ZM403.78 384.818V373.182H408.041C408.867 373.182 409.551 373.318 410.093 373.591C410.634 373.86 411.04 374.225 411.308 374.687C411.577 375.146 411.712 375.663 411.712 376.239C411.712 376.723 411.623 377.133 411.445 377.466C411.267 377.795 411.028 378.061 410.729 378.261C410.433 378.458 410.108 378.602 409.752 378.693V378.807C410.138 378.826 410.515 378.951 410.882 379.182C411.254 379.409 411.56 379.733 411.803 380.153C412.045 380.574 412.166 381.085 412.166 381.687C412.166 382.282 412.026 382.816 411.746 383.29C411.469 383.759 411.041 384.133 410.462 384.409C409.882 384.682 409.142 384.818 408.24 384.818H403.78ZM405.536 383.312H408.07C408.911 383.312 409.513 383.15 409.877 382.824C410.24 382.498 410.422 382.091 410.422 381.602C410.422 381.235 410.329 380.898 410.144 380.591C409.958 380.284 409.693 380.04 409.348 379.858C409.007 379.676 408.602 379.585 408.132 379.585H405.536V383.312ZM405.536 378.216H407.888C408.282 378.216 408.636 378.14 408.95 377.989C409.269 377.837 409.521 377.625 409.706 377.352C409.896 377.076 409.99 376.75 409.99 376.375C409.99 375.894 409.822 375.49 409.485 375.165C409.147 374.839 408.63 374.676 407.933 374.676H405.536V378.216Z" fill="white"/>
<circle cx="444" cy="364.818" r="16" fill="#FFCD29"/>
<path d="M439.641 369.421V368.001L444.669 360.057H445.788V362.148H445.078L441.482 367.842V367.932H448.374V369.421H439.641ZM445.158 371.694V368.989L445.169 368.342V360.057H446.834V371.694H445.158Z" fill="black" fill-opacity="0.8"/>
<path d="M65.5 248.818C65.5 247.99 64.8284 247.318 64 247.318C63.1716 247.318 62.5 247.99 62.5 248.818H65.5ZM222.939 284.879C223.525 285.465 224.475 285.465 225.061 284.879L234.607 275.333C235.192 274.747 235.192 273.797 234.607 273.212C234.021 272.626 233.071 272.626 232.485 273.212L224 281.697L215.515 273.212C214.929 272.626 213.979 272.626 213.393 273.212C212.808 273.797 212.808 274.747 213.393 275.333L222.939 284.879ZM224 283.818H225.5H224ZM64 248.818H65.5H64ZM81.5 267.818H206.5V264.818H81.5V267.818ZM206.5 267.818C215.337 267.818 222.5 274.982 222.5 283.818H225.5C225.5 273.325 216.993 264.818 206.5 264.818V267.818ZM62.5 248.818C62.5 259.312 71.0066 267.818 81.5 267.818V264.818C72.6634 264.818 65.5 257.655 65.5 248.818H62.5Z" fill="#B3B3B3"/>
<path d="M65.5 173.818C65.5 172.99 64.8284 172.318 64 172.318C63.1716 172.318 62.5 172.99 62.5 173.818H65.5ZM62.9393 209.879C63.5251 210.465 64.4749 210.465 65.0607 209.879L74.6066 200.333C75.1924 199.747 75.1924 198.797 74.6066 198.212C74.0208 197.626 73.0711 197.626 72.4853 198.212L64 206.697L55.5147 198.212C54.9289 197.626 53.9792 197.626 53.3934 198.212C52.8076 198.797 52.8076 199.747 53.3934 200.333L62.9393 209.879ZM62.5 173.818V208.818H65.5V173.818H62.5Z" fill="#B3B3B3"/>
<path d="M225.5 323.818C225.5 322.99 224.828 322.318 224 322.318C223.172 322.318 222.5 322.99 222.5 323.818H225.5ZM222.939 359.879C223.525 360.465 224.475 360.465 225.061 359.879L234.607 350.333C235.192 349.747 235.192 348.797 234.607 348.212C234.021 347.626 233.071 347.626 232.485 348.212L224 356.697L215.515 348.212C214.929 347.626 213.979 347.626 213.393 348.212C212.808 348.797 212.808 349.747 213.393 350.333L222.939 359.879ZM222.5 323.818V358.818H225.5V323.818H222.5Z" fill="#B3B3B3"/>
<path d="M225.5 323.818C225.5 322.99 224.828 322.318 224 322.318C223.172 322.318 222.5 322.99 222.5 323.818H225.5ZM382.939 359.879C383.525 360.465 384.475 360.465 385.061 359.879L394.607 350.333C395.192 349.747 395.192 348.797 394.607 348.212C394.021 347.626 393.071 347.626 392.485 348.212L384 356.697L375.515 348.212C374.929 347.626 373.979 347.626 373.393 348.212C372.808 348.797 372.808 349.747 373.393 350.333L382.939 359.879ZM384 358.818H385.5H384ZM224 323.818H225.5H224ZM241.5 342.818H366.5V339.818H241.5V342.818ZM366.5 342.818C375.337 342.818 382.5 349.982 382.5 358.818H385.5C385.5 348.325 376.993 339.818 366.5 339.818V342.818ZM222.5 323.818C222.5 334.312 231.007 342.818 241.5 342.818V339.818C232.663 339.818 225.5 332.655 225.5 323.818H222.5Z" fill="#B3B3B3"/>
<rect x="480" y="287.818" width="128" height="32" rx="3" fill="#0D99FF"/>
<path d="M497.464 300.442H502.168V301.642H497.464V300.442ZM505.48 296.682H506.712V308.57C506.712 309.402 506.856 309.562 507.544 309.562C507.896 309.562 509.496 309.562 509.912 309.562C510.648 309.562 510.76 308.874 510.872 306.218C511.176 306.458 511.688 306.698 512.024 306.778C511.88 309.706 511.56 310.746 509.992 310.746C509.656 310.746 507.736 310.746 507.416 310.746C505.928 310.746 505.48 310.266 505.48 308.538V296.682ZM501.576 296.682H502.808V310.97H501.576V296.682ZM510.696 299.146L511.576 300.186C510.104 301.322 508.056 302.538 506.248 303.53C506.152 303.258 505.912 302.842 505.736 302.586C507.512 301.61 509.496 300.25 510.696 299.146ZM496.968 307.866C498.264 307.434 500.264 306.666 502.168 305.914L502.392 307.002C500.712 307.738 498.904 308.49 497.528 309.066L496.968 307.866ZM518.984 298.378H527.496V299.466H518.984V298.378ZM519.368 300.922H525.784V301.978H519.368V300.922ZM516.824 304.234H527.8V305.338H516.824V304.234ZM518.488 307.786H527.688V308.826H518.488V307.786ZM519.336 296.378L520.52 296.634C519.88 298.714 518.84 300.73 517.704 302.01C517.48 301.818 516.968 301.466 516.664 301.322C517.832 300.138 518.792 298.266 519.336 296.378ZM518.872 300.922H519.992C519.672 303.674 519.16 307.418 518.776 309.562L517.624 309.466C518.056 307.306 518.6 303.594 518.872 300.922ZM522.056 301.354H523.112C522.92 303.578 522.632 306.586 522.376 308.298H521.32C521.592 306.538 521.912 303.514 522.056 301.354ZM525.416 300.922H526.536C526.536 300.922 526.536 301.338 526.52 301.498C526.28 307.722 526.024 309.834 525.48 310.49C525.176 310.89 524.856 311.018 524.376 311.05C523.896 311.098 523.128 311.082 522.328 311.05C522.312 310.73 522.2 310.298 522.024 310.026C522.84 310.09 523.576 310.09 523.896 310.09C524.184 310.09 524.344 310.058 524.488 309.866C524.936 309.37 525.192 307.178 525.416 301.162V300.922ZM513.656 297.418L514.344 296.554C515.304 297.002 516.472 297.722 517.032 298.282L516.312 299.242C515.752 298.666 514.616 297.898 513.656 297.418ZM512.888 301.69L513.56 300.81C514.52 301.21 515.704 301.898 516.28 302.426L515.576 303.386C515.016 302.842 513.864 302.138 512.888 301.69ZM513.256 310.218C513.976 308.97 515.016 306.842 515.752 305.018L516.712 305.69C516.024 307.386 515.096 309.418 514.328 310.906L513.256 310.218ZM533.064 298.426H543.24V299.434H533.064V298.426ZM537.432 298.874L538.776 298.986C538.52 299.802 538.216 300.682 537.976 301.258L536.984 301.066C537.144 300.442 537.352 299.498 537.432 298.874ZM540.216 296.378L541.432 296.682C540.984 297.418 540.504 298.202 540.088 298.73L539.08 298.458C539.464 297.882 539.96 296.986 540.216 296.378ZM534.76 296.794L535.704 296.426C536.2 296.954 536.696 297.706 536.872 298.234L535.896 298.666C535.72 298.138 535.24 297.354 534.76 296.794ZM532.264 302.698V308.362H531.096V303.818H528.856V302.698H532.264ZM532.264 307.834C533.016 309.018 534.44 309.562 536.28 309.642C538.024 309.706 541.624 309.658 543.512 309.53C543.384 309.818 543.176 310.394 543.128 310.762C541.368 310.826 538.056 310.858 536.28 310.794C534.2 310.714 532.76 310.154 531.736 308.89C530.968 309.578 530.152 310.266 529.288 310.97L528.648 309.738C529.416 309.226 530.36 308.522 531.176 307.834H532.264ZM529.032 297.498L529.912 296.778C530.968 297.45 532.168 298.49 532.728 299.274L531.784 300.058C531.272 299.29 530.072 298.202 529.032 297.498ZM535.464 303.834V305.162H540.792V303.834H535.464ZM535.464 306.042V307.386H540.792V306.042H535.464ZM535.464 301.626V302.954H540.792V301.626H535.464ZM534.328 300.698H541.976V308.314H534.328V300.698ZM546.232 299.13C546.648 299.178 547.24 299.21 547.576 299.21H556.36C556.856 299.21 557.352 299.178 557.736 299.13V300.522C557.336 300.49 556.824 300.458 556.36 300.458H547.576C547.256 300.458 546.632 300.49 546.232 300.522V299.13ZM551.176 308.522V299.93H552.536V308.522H551.176ZM545.256 307.738C545.72 307.802 546.216 307.834 546.664 307.834H557.24C557.72 307.834 558.152 307.77 558.552 307.738V309.178C558.136 309.13 557.544 309.13 557.24 309.13H546.664C546.232 309.13 545.736 309.146 545.256 309.178V307.738ZM572.136 297.69C572.104 298.074 572.088 298.538 572.088 299.082C572.088 299.706 572.088 301.066 572.088 301.658C572.088 305.514 571.576 306.778 570.408 308.138C569.384 309.386 567.784 310.09 566.616 310.49L565.56 309.386C567.032 309.002 568.392 308.378 569.384 307.242C570.52 305.93 570.728 304.618 570.728 301.61C570.728 300.986 570.728 299.642 570.728 299.082C570.728 298.538 570.68 298.074 570.632 297.69H572.136ZM564.712 297.818C564.68 298.122 564.664 298.586 564.664 298.954C564.664 299.434 564.664 303.626 564.664 304.298C564.664 304.714 564.68 305.242 564.712 305.53H563.256C563.288 305.274 563.32 304.762 563.32 304.298C563.32 303.61 563.32 299.434 563.32 298.954C563.32 298.682 563.304 298.122 563.256 297.818H564.712ZM590.456 299.018C590.328 299.162 590.136 299.402 590.024 299.578C589.384 300.666 587.864 302.73 586.04 303.994L584.968 303.146C586.456 302.298 587.96 300.57 588.472 299.578C587.352 299.578 580.12 299.578 579.352 299.578C578.76 299.578 578.168 299.61 577.544 299.658V298.218C578.104 298.298 578.76 298.362 579.352 298.362C580.12 298.362 587.592 298.362 588.552 298.362C588.856 298.362 589.432 298.314 589.656 298.25L590.456 299.018ZM584.056 301.114C584.056 305.45 583.672 308.378 579.592 310.426L578.424 309.466C578.856 309.322 579.416 309.05 579.864 308.746C582.328 307.226 582.68 304.954 582.68 302.282C582.68 301.898 582.68 301.546 582.616 301.114H584.056Z" fill="white"/>
<circle cx="604" cy="289.818" r="16" fill="#FFCD29"/>
<path d="M604.014 296.853C603.234 296.853 602.537 296.718 601.923 296.45C601.313 296.181 600.83 295.807 600.474 295.33C600.122 294.849 599.933 294.292 599.906 293.66H601.69C601.713 294.004 601.829 294.304 602.037 294.557C602.249 294.807 602.526 295.001 602.866 295.137C603.207 295.273 603.586 295.342 604.003 295.342C604.461 295.342 604.866 295.262 605.219 295.103C605.575 294.944 605.853 294.722 606.054 294.438C606.255 294.15 606.355 293.819 606.355 293.444C606.355 293.054 606.255 292.711 606.054 292.415C605.857 292.116 605.567 291.881 605.185 291.711C604.806 291.54 604.348 291.455 603.81 291.455H602.827V290.023H603.81C604.241 290.023 604.62 289.946 604.946 289.79C605.276 289.635 605.533 289.419 605.719 289.143C605.904 288.862 605.997 288.535 605.997 288.16C605.997 287.8 605.916 287.487 605.753 287.222C605.594 286.953 605.366 286.743 605.071 286.592C604.779 286.44 604.435 286.364 604.037 286.364C603.658 286.364 603.304 286.434 602.974 286.575C602.649 286.711 602.384 286.908 602.179 287.165C601.974 287.419 601.865 287.724 601.849 288.08H600.151C600.17 287.451 600.355 286.898 600.707 286.421C601.063 285.944 601.533 285.571 602.116 285.302C602.7 285.033 603.348 284.898 604.06 284.898C604.806 284.898 605.45 285.044 605.991 285.336C606.537 285.624 606.957 286.008 607.253 286.489C607.552 286.97 607.7 287.497 607.696 288.069C607.7 288.72 607.518 289.273 607.151 289.728C606.787 290.182 606.302 290.487 605.696 290.643V290.734C606.469 290.851 607.067 291.158 607.491 291.654C607.92 292.15 608.132 292.766 608.128 293.501C608.132 294.141 607.954 294.715 607.594 295.222C607.238 295.73 606.751 296.129 606.134 296.421C605.516 296.709 604.81 296.853 604.014 296.853Z" fill="black" fill-opacity="0.8"/>
<path d="M65.5 248.818C65.5 247.99 64.8284 247.318 64 247.318C63.1716 247.318 62.5 247.99 62.5 248.818H65.5ZM542.939 284.879C543.525 285.465 544.475 285.465 545.061 284.879L554.607 275.333C555.192 274.747 555.192 273.797 554.607 273.212C554.021 272.626 553.071 272.626 552.485 273.212L544 281.697L535.515 273.212C534.929 272.626 533.979 272.626 533.393 273.212C532.808 273.797 532.808 274.747 533.393 275.333L542.939 284.879ZM544 283.818H545.5H544ZM64 248.818H65.5H64ZM81.5 267.818H526.5V264.818H81.5V267.818ZM526.5 267.818C535.337 267.818 542.5 274.982 542.5 283.818H545.5C545.5 273.325 536.993 264.818 526.5 264.818V267.818ZM62.5 248.818C62.5 259.312 71.0066 267.818 81.5 267.818V264.818C72.6634 264.818 65.5 257.655 65.5 248.818H62.5Z" fill="#B3B3B3"/>
<rect x="640" y="212.818" width="128" height="32" rx="3" fill="#0D99FF"/>
<path d="M666.768 233.922H678.096V235.042H666.768V233.922ZM665.984 225.906H678.784V235.986H677.568V227.026H667.152V236.034H665.984V225.906ZM673.344 226.418H674.512V229.81C674.512 230.162 674.576 230.21 674.976 230.21C675.152 230.21 676.032 230.21 676.256 230.21C676.608 230.21 676.688 230.066 676.72 228.994C676.944 229.17 677.424 229.346 677.744 229.426C677.616 230.914 677.296 231.282 676.4 231.282C676.144 231.282 675.056 231.282 674.816 231.282C673.632 231.282 673.344 230.962 673.344 229.81V226.418ZM665.296 222.434H679.36V223.602H665.296V222.434ZM669.824 223.218H670.992V226.546H669.824V223.218ZM673.36 223.218H674.56V226.546H673.36V223.218ZM669.872 226.226H670.992V227.794C670.992 229.298 670.464 231.074 668.128 232.242C667.968 232.002 667.52 231.602 667.28 231.442C669.472 230.386 669.872 228.978 669.872 227.762V226.226ZM682.992 222.466H693.472V235.858H692.208V223.682H684.224V235.922H682.992V222.466ZM683.808 228.018H692.736V229.202H683.808V228.018ZM683.792 233.682H692.768V234.882H683.792V233.682ZM697.024 224.754H710.992V225.97H697.024V224.754ZM700.224 231.89H707.68V233.106H700.224V231.89ZM703.344 221.394H704.608V236.098H703.344V221.394ZM702.976 225.154L704.048 225.522C702.624 228.914 700.112 231.97 697.344 233.586C697.152 233.282 696.752 232.834 696.48 232.594C699.152 231.202 701.696 228.226 702.976 225.154ZM705.008 225.202C706.272 228.242 708.784 231.154 711.552 232.482C711.248 232.738 710.832 233.218 710.64 233.554C707.808 231.986 705.344 228.93 703.936 225.57L705.008 225.202ZM716.464 228.61C718.208 232.162 721.952 234.306 727.2 235.01C726.928 235.282 726.608 235.81 726.432 236.146C721.088 235.33 717.36 233.026 715.36 229.01L716.464 228.61ZM713.776 227.49H724.208V228.658H713.776V227.49ZM713.04 223.826H726.544V225.026H713.04V223.826ZM719.168 221.394H720.4V228.034H719.168V221.394ZM723.824 227.49H724.096L724.336 227.442L725.152 227.938C723.168 232.866 718.416 235.138 713.104 236.098C712.992 235.794 712.672 235.234 712.448 234.962C717.648 234.146 722.16 232.114 723.824 227.73V227.49ZM734.128 234.466H743.168V235.65H734.128V234.466ZM734.752 226.626H742.832V227.778H734.752V226.626ZM738.192 221.506H739.408V235.042H738.192V221.506ZM728.528 224.386H733.84V225.49H728.528V224.386ZM731.056 229.186L732.24 227.762V236.114H731.056V229.186ZM731.056 221.394H732.24V224.93H731.056V221.394ZM732.144 228.082C732.688 228.466 734.544 230.098 735.008 230.498L734.272 231.474C733.68 230.786 732.112 229.266 731.456 228.69L732.144 228.082ZM733.392 224.386H733.632L733.856 224.338L734.544 224.786C733.328 227.73 730.88 230.386 728.592 231.858C728.464 231.554 728.176 230.994 727.968 230.786C730.144 229.506 732.432 227.074 733.392 224.642V224.386Z" fill="white"/>
<circle cx="764" cy="214.818" r="16" fill="#FFCD29"/>
<path d="M760.213 221.694V220.421L764.151 216.342C764.571 215.898 764.918 215.51 765.19 215.177C765.467 214.84 765.673 214.52 765.81 214.217C765.946 213.914 766.014 213.592 766.014 213.251C766.014 212.864 765.923 212.531 765.741 212.251C765.56 211.967 765.312 211.749 764.997 211.597C764.683 211.442 764.329 211.364 763.935 211.364C763.518 211.364 763.154 211.45 762.844 211.62C762.533 211.79 762.295 212.031 762.128 212.342C761.961 212.652 761.878 213.016 761.878 213.432H760.202C760.202 212.724 760.365 212.105 760.69 211.575C761.016 211.044 761.463 210.633 762.031 210.342C762.599 210.046 763.245 209.898 763.969 209.898C764.7 209.898 765.344 210.044 765.901 210.336C766.461 210.624 766.899 211.018 767.213 211.518C767.527 212.014 767.685 212.575 767.685 213.2C767.685 213.631 767.603 214.054 767.44 214.467C767.281 214.879 767.003 215.34 766.605 215.847C766.207 216.351 765.654 216.963 764.946 217.682L762.634 220.103V220.188H767.872V221.694H760.213Z" fill="black" fill-opacity="0.8"/>
<path d="M65.5 173.818C65.5 172.99 64.8284 172.318 64 172.318C63.1716 172.318 62.5 172.99 62.5 173.818H65.5ZM702.939 209.879C703.525 210.465 704.475 210.465 705.061 209.879L714.607 200.333C715.192 199.747 715.192 198.797 714.607 198.212C714.021 197.626 713.071 197.626 712.485 198.212L704 206.697L695.515 198.212C694.929 197.626 693.979 197.626 693.393 198.212C692.808 198.797 692.808 199.747 693.393 200.333L702.939 209.879ZM704 208.818H705.5H704ZM64 173.818H65.5H64ZM81.5 192.818H686.5V189.818H81.5V192.818ZM686.5 192.818C695.337 192.818 702.5 199.982 702.5 208.818H705.5C705.5 198.325 696.993 189.818 686.5 189.818V192.818ZM62.5 173.818C62.5 184.312 71.0066 192.818 81.5 192.818V189.818C72.6634 189.818 65.5 182.655 65.5 173.818H62.5Z" fill="#B3B3B3"/>
<rect x="160" y="427.818" width="128" height="32" rx="12.8" fill="#14AE5C"/>
<path d="M180.008 438.666C179.928 439.034 179.88 439.802 179.864 440.218C179.848 441.21 179.864 442.682 179.976 443.994C180.248 446.666 181.016 448.442 182.168 448.442C182.984 448.442 183.736 446.794 184.152 445.194L185.16 446.33C184.184 449.034 183.224 449.962 182.136 449.962C180.616 449.962 179.176 448.458 178.728 444.314C178.584 442.938 178.552 440.986 178.552 440.058C178.552 439.69 178.552 439.002 178.456 438.634L180.008 438.666ZM188.328 439.098C189.768 440.954 190.92 444.362 191.16 447.066L189.864 447.578C189.592 444.698 188.616 441.402 187.096 439.53L188.328 439.098ZM199.032 437.29C198.904 437.722 198.824 438.218 198.728 438.634C198.504 439.914 197.864 443.002 197.32 444.49C198.712 443.514 200.152 443.114 201.816 443.114C204.36 443.114 205.848 444.41 205.848 446.282C205.848 449.626 202.44 450.858 197.576 450.346L197.24 449.066C200.952 449.578 204.536 448.954 204.536 446.314C204.536 445.13 203.56 444.202 201.688 444.202C199.784 444.202 198.008 444.858 196.952 446.122C196.76 446.362 196.616 446.586 196.456 446.858L195.272 446.442C196.488 444.058 197.336 440.09 197.528 438.554C197.592 438.042 197.624 437.658 197.592 437.226L199.032 437.29ZM194.056 439.338C194.904 439.482 196.12 439.594 197.08 439.594C199.128 439.594 202.28 439.354 204.792 438.794L204.824 440.026C202.552 440.426 199.288 440.746 197.096 440.746C196.008 440.746 194.984 440.666 194.072 440.586L194.056 439.338ZM216.68 439.898C216.616 440.138 216.568 440.762 216.568 441.194C216.568 441.722 216.568 442.986 216.568 443.85C216.568 445.21 216.76 447.786 216.76 448.874C216.76 449.914 216.104 450.842 214.36 450.842C212.472 450.842 211.144 450.122 211.144 448.698C211.144 447.37 212.344 446.506 214.552 446.506C217.224 446.506 219.48 447.93 220.76 449.082L220.072 450.202C218.792 448.89 216.696 447.514 214.424 447.514C213.144 447.514 212.264 447.914 212.264 448.65C212.264 449.274 212.984 449.754 214.216 449.754C215.096 449.754 215.544 449.258 215.544 448.49C215.544 447.418 215.4 445.146 215.4 443.77C215.4 443.098 215.4 441.754 215.4 441.21C215.4 440.746 215.352 440.122 215.288 439.898H216.68ZM215.992 442.346C216.856 442.346 219.176 442.25 220.552 442.09L220.584 443.21C219.224 443.338 216.888 443.434 216.008 443.434L215.992 442.346ZM235.416 444.506C235.416 443.146 234.328 442.202 232.68 442.202C230.84 442.202 229.256 442.73 228.328 443.002C227.832 443.146 227.352 443.322 226.968 443.482L226.568 442.01C227.016 441.978 227.544 441.866 228.04 441.77C229.16 441.514 230.968 441.002 232.824 441.002C235.096 441.002 236.776 442.266 236.776 444.554C236.776 448.026 233.672 449.962 229.528 450.602L228.792 449.386C232.68 448.89 235.416 447.37 235.416 444.506ZM228.696 437.29C230.472 437.69 233.944 438.026 235.496 438.042L235.304 439.274C233.528 439.146 230.312 438.826 228.504 438.506L228.696 437.29ZM240.664 437.482H254.856V438.538H240.664V437.482ZM244.36 436.394H245.544V439.77H244.36V436.394ZM249.864 436.394H251.048V439.77H249.864V436.394ZM245.912 443.13V444.426H249.592V443.13H245.912ZM245.912 441.034V442.314H249.592V441.034H245.912ZM244.824 440.17H250.712V445.29H244.824V440.17ZM247.208 438.922L248.392 439.13C248.104 439.738 247.832 440.33 247.624 440.762L246.632 440.538C246.84 440.074 247.08 439.386 247.208 438.922ZM253.448 439.562L254.472 440.106C253.736 440.906 252.744 441.738 251.976 442.298L251.08 441.802C251.848 441.226 252.872 440.25 253.448 439.562ZM240.664 446.234H254.824V447.274H240.664V446.234ZM247.096 445.034H248.296V451.098H247.096V445.034ZM246.632 446.602L247.544 447.018C246.072 448.73 243.416 450.218 241.048 450.938C240.904 450.634 240.568 450.218 240.312 449.994C242.648 449.402 245.288 448.074 246.632 446.602ZM248.76 446.666C250.056 448.138 252.68 449.386 255.128 449.898C254.872 450.122 254.552 450.554 254.408 450.842C251.928 450.202 249.32 448.778 247.88 447.05L248.76 446.666ZM241.096 440.298L241.96 439.69C242.808 440.266 243.768 441.162 244.2 441.818L243.272 442.506C242.872 441.834 241.928 440.922 241.096 440.298ZM250.776 443.53L251.464 442.778C252.616 443.306 254.104 444.154 254.84 444.762L254.136 445.61C253.416 444.986 251.944 444.09 250.776 443.53ZM240.552 444.586C241.512 444.234 242.888 443.61 244.264 443.018L244.52 443.962C243.336 444.538 242.088 445.13 241.064 445.61L240.552 444.586ZM258.712 437.226H269.048V441.338H258.712V440.298H267.848V438.266H258.712V437.226ZM257.992 437.226H259.176V441.05C259.176 443.818 258.888 447.93 256.968 450.698C256.776 450.458 256.264 450.058 255.992 449.93C257.816 447.322 257.992 443.642 257.992 441.05V437.226ZM258.728 442.73H269.352V443.802H258.728V442.73ZM261.128 445.05H266.6V449.194H261.128V448.202H265.464V446.058H261.128V445.05ZM260.488 445.05H261.592V450.138H260.488V445.05ZM268.952 442.73H270.152C270.152 442.73 270.152 443.114 270.152 443.274C269.928 448.186 269.752 449.962 269.256 450.538C268.968 450.906 268.648 451.018 268.168 451.066C267.704 451.098 266.872 451.098 266.024 451.05C265.992 450.714 265.864 450.234 265.672 449.914C266.536 449.994 267.32 450.01 267.608 450.01C267.912 450.01 268.072 449.962 268.216 449.786C268.568 449.386 268.792 447.674 268.952 442.954V442.73Z" fill="white"/>
<rect x="320" y="427.818" width="128" height="32" rx="12.8" fill="#14AE5C"/>
<path d="M356.528 437.354C356.48 437.61 356.464 437.93 356.464 438.298C356.448 438.89 356.512 441.594 356.512 442.49C356.512 446.154 356.512 448.778 353.12 450.762L351.952 449.866C352.448 449.658 353.104 449.258 353.504 448.858C355.216 447.37 355.296 445.546 355.296 442.474C355.296 441.45 355.232 438.97 355.184 438.298C355.152 437.946 355.088 437.594 355.024 437.354H356.528ZM350.672 440.666C351.376 440.778 352.384 440.842 353.264 440.842C355.232 440.842 357.504 440.714 359.104 440.346V441.642C357.552 441.898 355.312 442.042 353.28 442.042C352.496 442.042 351.376 441.994 350.672 441.93V440.666ZM348.432 437.594C348.336 437.882 348.224 438.33 348.16 438.634C347.648 440.954 347.088 444.458 347.712 447.082C347.92 446.394 348.272 445.418 348.56 444.634L349.248 445.05C348.864 446.154 348.384 447.786 348.208 448.586C348.16 448.81 348.128 449.114 348.144 449.306C348.144 449.466 348.176 449.674 348.192 449.85L347.088 449.978C346.768 448.986 346.256 446.906 346.256 444.906C346.256 442.298 346.672 439.85 346.864 438.506C346.912 438.154 346.928 437.722 346.944 437.434L348.432 437.594ZM369.04 439.674C368.432 439.05 367.376 438.074 366.704 437.562L367.616 436.906C368.144 437.322 369.36 438.33 369.952 438.954L369.04 439.674ZM363.952 438.282C364.08 438.554 364.352 439.066 364.512 439.37C365.136 440.49 365.904 442.106 366.56 443.562C367.424 445.562 368.448 448.522 368.992 450.298L367.616 450.666C367.12 448.762 366.352 446.202 365.44 444.106C364.688 442.426 363.968 440.874 363.424 439.962C363.232 439.642 362.912 439.13 362.656 438.81L363.952 438.282ZM361.12 442.954C361.584 442.842 362.144 442.65 362.432 442.522C364.656 441.674 368.544 439.498 371.2 439.498C373.424 439.498 374.768 440.746 374.768 442.49C374.768 444.346 373.6 445.738 371.104 445.738C370.208 445.738 369.296 445.514 368.704 445.29L368.736 444.026C369.36 444.314 370.16 444.554 371.008 444.554C372.768 444.554 373.488 443.578 373.488 442.442C373.488 441.498 372.736 440.618 371.168 440.618C368.496 440.618 363.76 443.386 361.744 444.266L361.12 442.954ZM378.864 438.858C381.088 439.13 383.184 439.162 384.816 439.002C386.128 438.89 387.44 438.618 388.592 438.234L388.768 439.402C387.728 439.706 386.368 439.978 385.088 440.09C383.472 440.25 381.232 440.25 378.944 440.026L378.864 438.858ZM378.544 442.138C381.28 442.426 384 442.378 385.872 442.154C387.392 441.994 388.688 441.674 389.536 441.418L389.744 442.602C388.864 442.842 387.648 443.082 386.304 443.242C384.336 443.498 381.376 443.546 378.624 443.338L378.544 442.138ZM384.016 438.65C383.888 438.186 383.744 437.69 383.568 437.226L384.928 437.05C385.088 438.394 385.584 440.01 385.984 441.146C386.416 442.394 387.12 443.93 387.952 445.162C388.128 445.418 388.32 445.642 388.56 445.85L387.888 446.826C386.992 446.602 385.504 446.442 384.4 446.33L384.496 445.354C385.36 445.434 386.4 445.546 386.896 445.61C386.016 444.234 385.344 442.698 384.88 441.402C384.48 440.298 384.24 439.45 384.016 438.65ZM380.88 445.594C380.496 446.138 380.208 446.682 380.208 447.402C380.208 448.714 381.376 449.386 383.888 449.386C385.376 449.386 386.544 449.274 387.712 449.05L387.648 450.314C386.528 450.506 385.28 450.602 383.904 450.602C380.784 450.602 379.024 449.674 378.992 447.61C378.992 446.698 379.264 446.026 379.632 445.322L380.88 445.594ZM392.752 437.482H406.944V438.538H392.752V437.482ZM396.448 436.394H397.632V439.77H396.448V436.394ZM401.952 436.394H403.136V439.77H401.952V436.394ZM398 443.13V444.426H401.68V443.13H398ZM398 441.034V442.314H401.68V441.034H398ZM396.912 440.17H402.8V445.29H396.912V440.17ZM399.296 438.922L400.48 439.13C400.192 439.738 399.92 440.33 399.712 440.762L398.72 440.538C398.928 440.074 399.168 439.386 399.296 438.922ZM405.536 439.562L406.56 440.106C405.824 440.906 404.832 441.738 404.064 442.298L403.168 441.802C403.936 441.226 404.96 440.25 405.536 439.562ZM392.752 446.234H406.912V447.274H392.752V446.234ZM399.184 445.034H400.384V451.098H399.184V445.034ZM398.72 446.602L399.632 447.018C398.16 448.73 395.504 450.218 393.136 450.938C392.992 450.634 392.656 450.218 392.4 449.994C394.736 449.402 397.376 448.074 398.72 446.602ZM400.848 446.666C402.144 448.138 404.768 449.386 407.216 449.898C406.96 450.122 406.64 450.554 406.496 450.842C404.016 450.202 401.408 448.778 399.968 447.05L400.848 446.666ZM393.184 440.298L394.048 439.69C394.896 440.266 395.856 441.162 396.288 441.818L395.36 442.506C394.96 441.834 394.016 440.922 393.184 440.298ZM402.864 443.53L403.552 442.778C404.704 443.306 406.192 444.154 406.928 444.762L406.224 445.61C405.504 444.986 404.032 444.09 402.864 443.53ZM392.64 444.586C393.6 444.234 394.976 443.61 396.352 443.018L396.608 443.962C395.424 444.538 394.176 445.13 393.152 445.61L392.64 444.586ZM410.8 437.226H421.136V441.338H410.8V440.298H419.936V438.266H410.8V437.226ZM410.08 437.226H411.264V441.05C411.264 443.818 410.976 447.93 409.056 450.698C408.864 450.458 408.352 450.058 408.08 449.93C409.904 447.322 410.08 443.642 410.08 441.05V437.226ZM410.816 442.73H421.44V443.802H410.816V442.73ZM413.216 445.05H418.688V449.194H413.216V448.202H417.552V446.058H413.216V445.05ZM412.576 445.05H413.68V450.138H412.576V445.05ZM421.04 442.73H422.24C422.24 442.73 422.24 443.114 422.24 443.274C422.016 448.186 421.84 449.962 421.344 450.538C421.056 450.906 420.736 451.018 420.256 451.066C419.792 451.098 418.96 451.098 418.112 451.05C418.08 450.714 417.952 450.234 417.76 449.914C418.624 449.994 419.408 450.01 419.696 450.01C420 450.01 420.16 449.962 420.304 449.786C420.656 449.386 420.88 447.674 421.04 442.954V442.73Z" fill="white"/>
<path d="M225.5 398.818C225.5 397.99 224.828 397.318 224 397.318C223.172 397.318 222.5 397.99 222.5 398.818H225.5ZM222.939 424.879C223.525 425.465 224.475 425.465 225.061 424.879L234.607 415.333C235.192 414.747 235.192 413.797 234.607 413.212C234.021 412.626 233.071 412.626 232.485 413.212L224 421.697L215.515 413.212C214.929 412.626 213.979 412.626 213.393 413.212C212.808 413.797 212.808 414.747 213.393 415.333L222.939 424.879ZM222.5 398.818V423.818H225.5V398.818H222.5Z" fill="#B3B3B3"/>
<path d="M385.5 398.818C385.5 397.99 384.828 397.318 384 397.318C383.172 397.318 382.5 397.99 382.5 398.818H385.5ZM382.939 424.879C383.525 425.465 384.475 425.465 385.061 424.879L394.607 415.333C395.192 414.747 395.192 413.797 394.607 413.212C394.021 412.626 393.071 412.626 392.485 413.212L384 421.697L375.515 413.212C374.929 412.626 373.979 412.626 373.393 413.212C372.808 413.797 372.808 414.747 373.393 415.333L382.939 424.879ZM382.5 398.818V423.818H385.5V398.818H382.5Z" fill="#B3B3B3"/>
<rect y="427.818" width="128" height="32" rx="12.8" fill="#14AE5C"/>
<path d="M27.9462 438.026C27.5942 438.282 27.0982 438.714 26.8422 438.938C25.7382 439.898 23.4342 441.706 22.2502 442.698C21.2902 443.53 21.2742 443.77 22.3142 444.634C23.7702 445.834 26.6022 448.106 28.2982 449.818L27.1622 450.858C26.8262 450.474 26.4422 450.09 26.0582 449.69C24.9222 448.538 22.5062 446.458 21.0022 445.226C19.4982 443.962 19.6742 443.274 21.1142 442.058C22.3302 441.05 24.7622 439.13 25.8342 438.042C26.1542 437.722 26.5702 437.258 26.7462 436.97L27.9462 438.026ZM42.5382 437.146C42.5062 437.338 42.4582 437.962 42.4582 438.154C42.4102 439.194 42.4422 442.282 42.4582 443.562L41.2422 442.938C41.2422 442.234 41.2262 439.05 41.1782 438.17C41.1462 437.738 41.0982 437.29 41.0662 437.146H42.5382ZM34.0262 439.386C36.2022 439.354 40.2022 439.21 42.6662 439.21C44.6182 439.21 46.6022 439.21 47.3542 439.226L47.3382 440.41C46.4422 440.362 45.0022 440.33 42.6502 440.33C39.8982 440.33 36.4742 440.442 34.0582 440.618L34.0262 439.386ZM42.4262 444.026C42.4262 446.17 41.4342 447.242 39.9782 447.242C38.6342 447.242 37.3382 446.298 37.3382 444.554C37.3382 442.97 38.6502 441.786 40.1702 441.786C42.0262 441.786 42.9702 443.162 42.9702 445.002C42.9702 447.178 41.9142 449.578 38.2022 450.682L37.1302 449.642C40.0422 448.954 41.7382 447.53 41.7382 444.89C41.7382 443.45 41.0342 442.842 40.1702 442.842C39.3222 442.842 38.5382 443.498 38.5382 444.538C38.5382 445.546 39.2902 446.122 40.1702 446.122C41.1622 446.122 41.8022 445.29 41.5462 443.578L42.4262 444.026ZM57.3382 438.906C57.1302 440.57 56.8102 442.442 56.3142 444.154C55.3382 447.434 54.0582 449.13 52.5862 449.13C51.1462 449.13 49.7222 447.498 49.7222 444.842C49.7222 441.37 52.8102 438.346 56.7302 438.346C60.4742 438.346 62.8582 440.986 62.8582 444.234C62.8582 447.578 60.6502 449.818 56.8422 450.314L56.1062 449.13C56.6182 449.082 57.0982 449.018 57.4822 448.938C59.5302 448.474 61.5462 446.938 61.5462 444.17C61.5462 441.61 59.7702 439.498 56.6982 439.498C53.1782 439.498 50.9862 442.394 50.9862 444.746C50.9862 446.762 51.8982 447.658 52.6182 447.658C53.3702 447.658 54.2342 446.57 55.0502 443.866C55.5142 442.346 55.8502 440.538 56.0102 438.874L57.3382 438.906ZM66.5338 438.858C68.7578 439.13 70.8538 439.162 72.4858 439.002C73.7978 438.89 75.1098 438.618 76.2618 438.234L76.4378 439.402C75.3978 439.706 74.0378 439.978 72.7578 440.09C71.1418 440.25 68.9018 440.25 66.6138 440.026L66.5338 438.858ZM66.2138 442.138C68.9498 442.426 71.6698 442.378 73.5418 442.154C75.0618 441.994 76.3578 441.674 77.2058 441.418L77.4138 442.602C76.5338 442.842 75.3178 443.082 73.9738 443.242C72.0058 443.498 69.0458 443.546 66.2938 443.338L66.2138 442.138ZM71.6858 438.65C71.5578 438.186 71.4138 437.69 71.2378 437.226L72.5978 437.05C72.7578 438.394 73.2538 440.01 73.6538 441.146C74.0858 442.394 74.7898 443.93 75.6218 445.162C75.7978 445.418 75.9898 445.642 76.2298 445.85L75.5578 446.826C74.6618 446.602 73.1738 446.442 72.0698 446.33L72.1658 445.354C73.0298 445.434 74.0698 445.546 74.5658 445.61C73.6858 444.234 73.0138 442.698 72.5498 441.402C72.1498 440.298 71.9098 439.45 71.6858 438.65ZM68.5498 445.594C68.1658 446.138 67.8778 446.682 67.8778 447.402C67.8778 448.714 69.0458 449.386 71.5578 449.386C73.0458 449.386 74.2138 449.274 75.3818 449.05L75.3178 450.314C74.1978 450.506 72.9498 450.602 71.5738 450.602C68.4538 450.602 66.6938 449.674 66.6618 447.61C66.6618 446.698 66.9338 446.026 67.3018 445.322L68.5498 445.594ZM80.4218 437.482H94.6138V438.538H80.4218V437.482ZM84.1178 436.394H85.3018V439.77H84.1178V436.394ZM89.6218 436.394H90.8058V439.77H89.6218V436.394ZM85.6698 443.13V444.426H89.3498V443.13H85.6698ZM85.6698 441.034V442.314H89.3498V441.034H85.6698ZM84.5818 440.17H90.4698V445.29H84.5818V440.17ZM86.9658 438.922L88.1498 439.13C87.8618 439.738 87.5898 440.33 87.3818 440.762L86.3898 440.538C86.5978 440.074 86.8378 439.386 86.9658 438.922ZM93.2058 439.562L94.2298 440.106C93.4938 440.906 92.5018 441.738 91.7338 442.298L90.8378 441.802C91.6058 441.226 92.6298 440.25 93.2058 439.562ZM80.4218 446.234H94.5818V447.274H80.4218V446.234ZM86.8538 445.034H88.0538V451.098H86.8538V445.034ZM86.3898 446.602L87.3018 447.018C85.8298 448.73 83.1738 450.218 80.8058 450.938C80.6618 450.634 80.3258 450.218 80.0698 449.994C82.4058 449.402 85.0458 448.074 86.3898 446.602ZM88.5178 446.666C89.8138 448.138 92.4378 449.386 94.8858 449.898C94.6298 450.122 94.3098 450.554 94.1658 450.842C91.6858 450.202 89.0778 448.778 87.6378 447.05L88.5178 446.666ZM80.8538 440.298L81.7178 439.69C82.5658 440.266 83.5258 441.162 83.9578 441.818L83.0298 442.506C82.6298 441.834 81.6858 440.922 80.8538 440.298ZM90.5338 443.53L91.2218 442.778C92.3738 443.306 93.8618 444.154 94.5978 444.762L93.8938 445.61C93.1738 444.986 91.7018 444.09 90.5338 443.53ZM80.3098 444.586C81.2698 444.234 82.6458 443.61 84.0218 443.018L84.2778 443.962C83.0938 444.538 81.8458 445.13 80.8218 445.61L80.3098 444.586ZM98.4698 437.226H108.806V441.338H98.4698V440.298H107.606V438.266H98.4698V437.226ZM97.7498 437.226H98.9338V441.05C98.9338 443.818 98.6458 447.93 96.7258 450.698C96.5338 450.458 96.0218 450.058 95.7498 449.93C97.5738 447.322 97.7498 443.642 97.7498 441.05V437.226ZM98.4858 442.73H109.11V443.802H98.4858V442.73ZM100.886 445.05H106.358V449.194H100.886V448.202H105.222V446.058H100.886V445.05ZM100.246 445.05H101.35V450.138H100.246V445.05ZM108.71 442.73H109.91C109.91 442.73 109.91 443.114 109.91 443.274C109.686 448.186 109.51 449.962 109.014 450.538C108.726 450.906 108.406 451.018 107.926 451.066C107.462 451.098 106.63 451.098 105.782 451.05C105.75 450.714 105.622 450.234 105.43 449.914C106.294 449.994 107.078 450.01 107.366 450.01C107.67 450.01 107.83 449.962 107.974 449.786C108.326 449.386 108.55 447.674 108.71 442.954V442.73Z" fill="white"/>
<path d="M65.5 248.818C65.5 247.99 64.8284 247.318 64 247.318C63.1716 247.318 62.5 247.99 62.5 248.818H65.5ZM62.9393 424.879C63.5251 425.465 64.4749 425.465 65.0607 424.879L74.6066 415.333C75.1924 414.747 75.1924 413.797 74.6066 413.212C74.0208 412.626 73.0711 412.626 72.4853 413.212L64 421.697L55.5147 413.212C54.9289 412.626 53.9792 412.626 53.3934 413.212C52.8076 413.797 52.8076 414.747 53.3934 415.333L62.9393 424.879ZM62.5 248.818V423.818H65.5V248.818H62.5Z" fill="#B3B3B3"/>
<rect x="640" y="427.818" width="128" height="32" rx="12.8" fill="#14AE5C"/>
<path d="M672.72 438.49C672.624 438.138 672.48 437.658 672.32 437.226L673.696 437.066C673.84 437.994 674.256 439.37 674.624 440.41C675.12 441.786 675.936 443.274 676.624 444.202C676.832 444.522 677.072 444.794 677.312 445.05L676.672 445.962C675.904 445.77 673.952 445.594 672.8 445.514L672.896 444.458C673.792 444.538 674.976 444.634 675.552 444.698C674.88 443.674 674 442.09 673.472 440.634C673.12 439.722 672.896 438.986 672.72 438.49ZM666.864 439.738C669.536 440.042 672.064 440.058 673.888 439.866C675.152 439.722 676.736 439.434 677.984 439.002L678.128 440.266C676.992 440.586 675.472 440.842 674.304 440.986C672.272 441.226 669.728 441.242 666.896 441.002L666.864 439.738ZM669.344 444.826C668.864 445.61 668.576 446.298 668.576 447.05C668.576 448.586 669.968 449.242 672.352 449.274C673.968 449.274 675.36 449.114 676.464 448.874L676.416 450.154C675.408 450.33 674.064 450.506 672.272 450.49C669.232 450.474 667.312 449.386 667.312 447.21C667.312 446.314 667.632 445.482 668.096 444.538L669.344 444.826ZM691.44 438.026C691.088 438.282 690.592 438.714 690.336 438.938C689.232 439.898 686.928 441.706 685.744 442.698C684.784 443.53 684.768 443.77 685.808 444.634C687.264 445.834 690.096 448.106 691.792 449.818L690.656 450.858C690.32 450.474 689.936 450.09 689.552 449.69C688.416 448.538 686 446.458 684.496 445.226C682.992 443.962 683.168 443.274 684.608 442.058C685.824 441.05 688.256 439.13 689.328 438.042C689.648 437.722 690.064 437.258 690.24 436.97L691.44 438.026ZM701.344 437.274C702.72 437.722 706.128 438.378 707.552 438.522L707.248 439.738C705.712 439.53 702.256 438.826 701.024 438.506L701.344 437.274ZM700.992 440.202C700.784 441.29 700.496 443.658 700.336 444.698C701.872 443.354 703.632 442.73 705.552 442.73C708 442.73 709.632 444.202 709.632 446.09C709.632 448.938 707.088 450.874 701.152 450.378L700.768 449.082C705.824 449.69 708.288 448.234 708.288 446.042C708.288 444.778 707.088 443.866 705.456 443.866C703.36 443.866 701.632 444.65 700.512 446.01C700.272 446.282 700.128 446.538 700.032 446.794L698.832 446.506C699.152 445.05 699.552 441.69 699.648 440.026L700.992 440.202ZM712.752 437.482H726.944V438.538H712.752V437.482ZM716.448 436.394H717.632V439.77H716.448V436.394ZM721.952 436.394H723.136V439.77H721.952V436.394ZM718 443.13V444.426H721.68V443.13H718ZM718 441.034V442.314H721.68V441.034H718ZM716.912 440.17H722.8V445.29H716.912V440.17ZM719.296 438.922L720.48 439.13C720.192 439.738 719.92 440.33 719.712 440.762L718.72 440.538C718.928 440.074 719.168 439.386 719.296 438.922ZM725.536 439.562L726.56 440.106C725.824 440.906 724.832 441.738 724.064 442.298L723.168 441.802C723.936 441.226 724.96 440.25 725.536 439.562ZM712.752 446.234H726.912V447.274H712.752V446.234ZM719.184 445.034H720.384V451.098H719.184V445.034ZM718.72 446.602L719.632 447.018C718.16 448.73 715.504 450.218 713.136 450.938C712.992 450.634 712.656 450.218 712.4 449.994C714.736 449.402 717.376 448.074 718.72 446.602ZM720.848 446.666C722.144 448.138 724.768 449.386 727.216 449.898C726.96 450.122 726.64 450.554 726.496 450.842C724.016 450.202 721.408 448.778 719.968 447.05L720.848 446.666ZM713.184 440.298L714.048 439.69C714.896 440.266 715.856 441.162 716.288 441.818L715.36 442.506C714.96 441.834 714.016 440.922 713.184 440.298ZM722.864 443.53L723.552 442.778C724.704 443.306 726.192 444.154 726.928 444.762L726.224 445.61C725.504 444.986 724.032 444.09 722.864 443.53ZM712.64 444.586C713.6 444.234 714.976 443.61 716.352 443.018L716.608 443.962C715.424 444.538 714.176 445.13 713.152 445.61L712.64 444.586ZM730.8 437.226H741.136V441.338H730.8V440.298H739.936V438.266H730.8V437.226ZM730.08 437.226H731.264V441.05C731.264 443.818 730.976 447.93 729.056 450.698C728.864 450.458 728.352 450.058 728.08 449.93C729.904 447.322 730.08 443.642 730.08 441.05V437.226ZM730.816 442.73H741.44V443.802H730.816V442.73ZM733.216 445.05H738.688V449.194H733.216V448.202H737.552V446.058H733.216V445.05ZM732.576 445.05H733.68V450.138H732.576V445.05ZM741.04 442.73H742.24C742.24 442.73 742.24 443.114 742.24 443.274C742.016 448.186 741.84 449.962 741.344 450.538C741.056 450.906 740.736 451.018 740.256 451.066C739.792 451.098 738.96 451.098 738.112 451.05C738.08 450.714 737.952 450.234 737.76 449.914C738.624 449.994 739.408 450.01 739.696 450.01C740 450.01 740.16 449.962 740.304 449.786C740.656 449.386 740.88 447.674 741.04 442.954V442.73Z" fill="white"/>
<path d="M8.608 107.168H13.392V108.896H8.608V107.168ZM8.608 111.184H13.392V112.912H8.608V111.184ZM7.616 103.216H14.48V116.352H12.544V104.944H9.472V116.352H7.616V103.216ZM6.144 115.296H15.552V117.024H6.144V115.296ZM2.88 102.432L4.576 103.024C3.92 104.272 3.168 105.696 2.544 106.576L1.248 106.048C1.824 105.088 2.512 103.552 2.88 102.432ZM4.8 104.32L6.416 104.992C5.232 106.832 3.664 109.056 2.432 110.416L1.264 109.824C2.496 108.384 3.952 106.032 4.8 104.32ZM0.416 106.224L1.312 104.896C2.176 105.632 3.168 106.656 3.584 107.36L2.608 108.864C2.208 108.096 1.232 106.992 0.416 106.224ZM4.4 108.176L5.76 107.584C6.4 108.656 7.04 110.048 7.248 110.976L5.792 111.648C5.6 110.736 5.008 109.28 4.4 108.176ZM0.4 109.472C1.888 109.424 4.096 109.328 6.24 109.216V110.736C4.224 110.896 2.144 111.04 0.56 111.136L0.4 109.472ZM4.688 112.192L6.096 111.728C6.512 112.688 6.944 113.936 7.136 114.752L5.632 115.296C5.488 114.464 5.072 113.168 4.688 112.192ZM1.088 111.824L2.672 112.096C2.512 113.632 2.16 115.232 1.696 116.256C1.36 116.048 0.64 115.712 0.24 115.552C0.704 114.608 0.96 113.184 1.088 111.824ZM2.944 110.32H4.656V117.456H2.944V110.32ZM23.216 102.4H24.96V104.752H23.216V102.4ZM21.968 105.568L23.248 105.28C23.504 105.952 23.696 106.848 23.728 107.408L22.368 107.744C22.368 107.152 22.208 106.256 21.968 105.568ZM21.392 103.952H26.784V105.392H21.392V103.952ZM21.12 107.552H31.2V109.056H21.12V107.552ZM22.704 112.064H25.696V113.344H22.704V112.064ZM22.576 109.776H26.576V115.648H22.576V114.336H25.024V111.104H22.576V109.776ZM22.016 109.776H23.472V116.48H22.016V109.776ZM24.912 105.184L26.464 105.52C26.16 106.304 25.888 107.152 25.632 107.712L24.352 107.392C24.544 106.768 24.8 105.824 24.912 105.184ZM26.976 102.512H28.608C28.56 109.616 28.992 115.36 29.936 115.424C30.144 115.44 30.304 114.704 30.384 113.456C30.64 113.824 31.312 114.32 31.568 114.496C31.184 116.992 30.448 117.568 29.872 117.552C27.424 117.456 27.056 111.536 26.976 102.512ZM28.496 104L29.888 103.44C30.464 104.368 31.072 105.6 31.328 106.416L29.856 107.056C29.616 106.24 29.04 104.944 28.496 104ZM29.696 109.648L31.2 110.064C30.224 113.232 28.448 115.808 25.84 117.472C25.6 117.12 25.04 116.512 24.688 116.24C27.136 114.8 28.896 112.4 29.696 109.648ZM18.256 102.432L19.872 102.944C19.312 104.176 18.688 105.6 18.176 106.496L16.928 106.016C17.424 105.056 17.968 103.536 18.256 102.432ZM19.92 104.368L21.408 105.008C20.384 106.816 19.024 109.04 17.92 110.416L16.864 109.856C17.904 108.416 19.2 106.08 19.92 104.368ZM16.256 106.096L17.04 104.736C17.84 105.504 18.784 106.544 19.136 107.264L18.272 108.816C17.92 108.032 17.024 106.896 16.256 106.096ZM19.376 108.112L20.64 107.632C21.216 108.72 21.76 110.112 21.904 111.04L20.544 111.6C20.416 110.688 19.92 109.232 19.376 108.112ZM16.16 109.44C17.424 109.392 19.248 109.296 21.104 109.184L21.088 110.672C19.408 110.848 17.696 110.992 16.32 111.104L16.16 109.44ZM19.792 112.112L21.056 111.712C21.392 112.64 21.712 113.84 21.856 114.624L20.512 115.088C20.416 114.272 20.096 113.04 19.792 112.112ZM16.752 111.824L18.192 112.064C18.08 113.568 17.808 115.152 17.408 116.176C17.12 115.984 16.464 115.696 16.112 115.552C16.512 114.608 16.672 113.168 16.752 111.824ZM18.288 110.288H19.856V117.44H18.288V110.288ZM35.568 113.088L37.568 113.84C36.576 115.088 35.024 116.416 33.776 117.232C33.376 116.848 32.544 116.208 32.032 115.904C33.344 115.232 34.752 114.128 35.568 113.088ZM41.536 114.096L43.152 113.008C44.416 113.824 46.128 115.072 46.976 115.952L45.232 117.184C44.496 116.32 42.848 114.992 41.536 114.096ZM33.552 107.504L34.88 106.272C36.208 107.024 37.984 108.224 38.848 109.12L37.408 110.512C36.624 109.616 34.928 108.336 33.552 107.504ZM41.872 109.488L43.44 108.496C44.752 109.584 46.432 111.168 47.232 112.272L45.504 113.408C44.8 112.32 43.184 110.656 41.872 109.488ZM38.576 111.664H40.624V117.44H38.576V111.664ZM32.368 110.784C35.616 110.752 40.736 110.64 45.344 110.544L45.248 112.272C40.704 112.48 35.824 112.624 32.56 112.704L32.368 110.784ZM41.92 105.216L43.792 106.208C41.712 108.336 38.944 110.608 36.784 112.048L35.264 111.056C37.456 109.6 40.224 107.184 41.92 105.216ZM37.872 104.112L39.76 105.024C38.752 106.192 37.52 107.44 36.576 108.224L35.008 107.376C35.952 106.544 37.168 105.184 37.872 104.112ZM44.56 102.56L45.92 104.192C42.368 104.912 37.472 105.232 33.312 105.28C33.264 104.784 33.04 104 32.864 103.552C36.992 103.472 41.696 103.152 44.56 102.56ZM57.216 102.416H59.168V105.056H57.216V102.416ZM56.272 105.392L58.272 105.936C57.744 107.136 57.152 108.448 56.672 109.28L55.088 108.768C55.52 107.856 56.032 106.432 56.272 105.392ZM59.184 106.944L60.656 106.176C61.568 107.28 62.64 108.8 63.088 109.824L61.488 110.704C61.088 109.696 60.096 108.112 59.184 106.944ZM53.936 104.288H62.752V106H53.936V104.288ZM54.032 108.352C55.872 108.256 58.656 108.064 61.264 107.856V109.504C58.768 109.728 56.112 109.936 54.192 110.08L54.032 108.352ZM58.672 110.528H60.464V115.136C60.464 115.6 60.496 115.648 60.72 115.648C60.816 115.648 61.152 115.648 61.264 115.648C61.504 115.648 61.552 115.392 61.6 113.664C61.952 113.968 62.72 114.256 63.2 114.384C63.04 116.704 62.608 117.344 61.456 117.344C61.184 117.344 60.656 117.344 60.384 117.344C58.976 117.344 58.672 116.784 58.672 115.136V110.528ZM50.352 102.432L52.016 103.056C51.36 104.272 50.624 105.696 50 106.592L48.72 106.032C49.296 105.088 49.984 103.552 50.352 102.432ZM52.192 104.32L53.744 105.024C52.592 106.864 51.024 109.088 49.808 110.48L48.704 109.856C49.888 108.4 51.36 106.048 52.192 104.32ZM47.888 106.224L48.8 104.912C49.648 105.648 50.64 106.656 51.056 107.392L50.064 108.88C49.68 108.112 48.704 106.992 47.888 106.224ZM51.712 108.144L52.976 107.616C53.6 108.688 54.208 110.096 54.4 111.024L53.04 111.632C52.864 110.704 52.32 109.248 51.712 108.144ZM47.872 109.472C49.344 109.424 51.504 109.344 53.616 109.248L53.6 110.768C51.632 110.912 49.584 111.04 48.032 111.152L47.872 109.472ZM52.064 112.128L53.408 111.696C53.808 112.608 54.224 113.808 54.4 114.608L52.992 115.104C52.832 114.304 52.416 113.072 52.064 112.128ZM48.56 111.824L50.144 112.096C49.984 113.632 49.632 115.232 49.168 116.256C48.832 116.048 48.112 115.712 47.712 115.552C48.176 114.608 48.432 113.184 48.56 111.824ZM50.352 110.32H52.032V117.456H50.352V110.32ZM55.712 110.528H57.536C57.408 113.936 56.976 116.208 54.064 117.488C53.856 117.04 53.376 116.384 52.976 116.048C55.408 115.04 55.616 113.312 55.712 110.528ZM72.1981 116L74.1072 104.364H75.9254L74.0163 116H72.1981ZM66.9879 113.114L67.289 111.295H76.3799L76.0788 113.114H66.9879ZM68.1072 116L70.0163 104.364H71.8345L69.9254 116H68.1072ZM67.6527 109.068L67.9595 107.25H77.0504L76.7436 109.068H67.6527ZM83.0434 104.364V116H80.5832V106.699H80.515L77.8503 108.369V106.188L80.7309 104.364H83.0434Z" fill="#757575"/>
<rect x="640" y="362.818" width="128" height="32" rx="3" fill="#0D99FF"/>
<path d="M679.341 377.122V378.978H685.533V377.122H679.341ZM678.221 376.194H686.701V379.906H678.221V376.194ZM681.597 379.458L682.941 379.586C682.653 380.386 682.317 381.218 682.045 381.794L681.005 381.602C681.229 380.994 681.485 380.082 681.597 379.458ZM677.085 381.186H687.981V386.098H686.781V382.258H678.237V386.114H677.085V381.186ZM677.693 384.45H687.309V385.506H677.693V384.45ZM675.853 373.922H689.101V377.074H687.933V374.962H676.957V377.074H675.853V373.922ZM686.893 371.522L688.141 371.954C687.485 372.834 686.717 373.81 686.093 374.45L685.133 374.034C685.725 373.362 686.477 372.29 686.893 371.522ZM676.797 372.05L677.821 371.602C678.397 372.242 679.053 373.122 679.325 373.714L678.253 374.21C677.981 373.618 677.373 372.706 676.797 372.05ZM680.797 371.73L681.837 371.362C682.333 372.034 682.893 372.994 683.101 373.618L682.013 374.034C681.805 373.41 681.277 372.434 680.797 371.73ZM691.213 381.266H705.229V382.274H691.213V381.266ZM691.277 374.242H705.165V375.266H691.277V374.242ZM691.917 376.978H704.589V377.97H691.917V376.978ZM692.733 379.138H703.805V380.066H692.733V379.138ZM697.581 377.442H698.765V386.114H697.581V377.442ZM696.109 371.378H697.245V374.722H696.109V371.378ZM699.133 371.378H700.285V374.674H699.133V371.378ZM697.197 381.666L698.157 382.114C696.669 383.778 693.965 385.17 691.581 385.842C691.405 385.538 691.053 385.074 690.797 384.818C693.165 384.29 695.837 383.058 697.197 381.666ZM699.149 381.634C700.509 383.074 703.197 384.306 705.629 384.818C705.357 385.074 704.989 385.554 704.813 385.89C702.381 385.218 699.709 383.762 698.205 382.034L699.149 381.634ZM702.845 371.57L704.077 371.906C703.613 372.786 703.037 373.73 702.589 374.354L701.613 374.034C702.045 373.362 702.573 372.306 702.845 371.57ZM700.701 374.962L701.949 375.266C701.549 375.986 701.133 376.722 700.781 377.234L699.773 376.93C700.093 376.37 700.509 375.538 700.701 374.962ZM692.573 371.906L693.597 371.538C694.141 372.258 694.733 373.266 694.957 373.922L693.885 374.322C693.661 373.682 693.085 372.658 692.573 371.906ZM694.653 375.378L695.789 375.154C696.157 375.682 696.525 376.402 696.669 376.882L695.485 377.138C695.357 376.658 695.005 375.906 694.653 375.378ZM707.005 372.274H713.901V373.378H707.005V372.274ZM715.037 376.834H721.469V377.986H715.037V376.834ZM718.509 377.586H719.693V386.114H718.509V377.586ZM714.573 372.962L716.077 373.362C716.061 373.474 715.981 373.538 715.757 373.57V377.234C715.757 379.826 715.421 383.49 713.021 386.066C712.845 385.81 712.413 385.41 712.125 385.266C714.349 382.898 714.573 379.682 714.573 377.234V372.962ZM707.597 375.042H708.733V379.362C708.733 381.41 708.541 384.242 707.309 386.13C707.117 385.906 706.621 385.538 706.365 385.394C707.485 383.666 707.597 381.202 707.597 379.362V375.042ZM720.093 371.57L721.149 372.482C719.565 373.25 717.245 373.906 715.245 374.37C715.181 374.098 714.989 373.666 714.829 373.394C716.733 372.946 718.893 372.258 720.093 371.57ZM708.253 375.042H713.501V380.034H708.253V378.946H712.333V376.146H708.253V375.042ZM732.796 376.966H731.024C730.955 376.587 730.829 376.254 730.643 375.966C730.457 375.678 730.23 375.434 729.961 375.233C729.692 375.032 729.391 374.881 729.058 374.778C728.728 374.676 728.378 374.625 728.007 374.625C727.336 374.625 726.736 374.793 726.205 375.131C725.679 375.468 725.262 375.962 724.955 376.614C724.652 377.265 724.501 378.061 724.501 379C724.501 379.947 724.652 380.746 724.955 381.398C725.262 382.049 725.681 382.542 726.211 382.875C726.741 383.208 727.338 383.375 728.001 383.375C728.368 383.375 728.717 383.326 729.046 383.227C729.38 383.125 729.681 382.975 729.95 382.778C730.219 382.581 730.446 382.341 730.632 382.057C730.821 381.769 730.952 381.439 731.024 381.068L732.796 381.074C732.702 381.646 732.518 382.172 732.245 382.653C731.976 383.131 731.63 383.543 731.205 383.892C730.785 384.237 730.304 384.504 729.762 384.693C729.221 384.883 728.63 384.977 727.99 384.977C726.982 384.977 726.084 384.739 725.296 384.261C724.508 383.78 723.887 383.093 723.433 382.199C722.982 381.305 722.757 380.239 722.757 379C722.757 377.758 722.984 376.691 723.438 375.801C723.893 374.907 724.514 374.222 725.302 373.744C726.09 373.263 726.986 373.023 727.99 373.023C728.607 373.023 729.183 373.112 729.717 373.29C730.255 373.464 730.738 373.722 731.166 374.062C731.594 374.4 731.948 374.812 732.228 375.301C732.508 375.786 732.698 376.341 732.796 376.966Z" fill="white"/>
<circle cx="764" cy="364.818" r="16" fill="#FFCD29"/>
<path d="M759.641 369.421V368.001L764.669 360.057H765.788V362.148H765.078L761.482 367.842V367.932H768.374V369.421H759.641ZM765.158 371.694V368.989L765.169 368.342V360.057H766.834V371.694H765.158Z" fill="black" fill-opacity="0.8"/>
<path d="M705.5 248.818C705.5 247.99 704.828 247.318 704 247.318C703.172 247.318 702.5 247.99 702.5 248.818H705.5ZM702.939 359.879C703.525 360.465 704.475 360.465 705.061 359.879L714.607 350.333C715.192 349.747 715.192 348.797 714.607 348.212C714.021 347.626 713.071 347.626 712.485 348.212L704 356.697L695.515 348.212C694.929 347.626 693.979 347.626 693.393 348.212C692.808 348.797 692.808 349.747 693.393 350.333L702.939 359.879ZM702.5 248.818V358.818H705.5V248.818H702.5Z" fill="#B3B3B3"/>
<path d="M705.5 398.818C705.5 397.99 704.828 397.318 704 397.318C703.172 397.318 702.5 397.99 702.5 398.818H705.5ZM702.939 424.879C703.525 425.465 704.475 425.465 705.061 424.879L714.607 415.333C715.192 414.747 715.192 413.797 714.607 413.212C714.021 412.626 713.071 412.626 712.485 413.212L704 421.697L695.515 413.212C694.929 412.626 693.979 412.626 693.393 413.212C692.808 413.797 692.808 414.747 693.393 415.333L702.939 424.879ZM702.5 398.818V423.818H705.5V398.818H702.5Z" fill="#B3B3B3"/>
</svg>
