<svg width="480" height="365" viewBox="0 0 480 365" fill="none" xmlns="http://www.w3.org/2000/svg">
<rect x="192" width="288" height="205" rx="6" fill="#DCF1FF"/>
<rect x="224" y="222" width="256" height="143" rx="6" fill="#DCF1FF"/>
<rect width="208" height="327" rx="6" fill="#DCF1FF"/>
<rect x="240.258" y="46" width="224" height="143" rx="6" stroke="#2171C1" stroke-width="4" stroke-miterlimit="0" stroke-linecap="round" stroke-dasharray="16 10"/>
<rect x="16" y="46" width="176" height="258" rx="6" stroke="#2171C1" stroke-width="4" stroke-miterlimit="0" stroke-linecap="round"/>
<rect x="48" y="86" width="111.742" height="36" rx="3" fill="#2171C1"/>
<path d="M84.3669 109.824H92.8309V110.752H84.3669V109.824ZM87.4229 99.808H88.5909V101.584H87.4229V99.808ZM81.3429 101.056H94.8629V104.064H93.6789V102.016H82.4949V104.064H81.3429V101.056ZM84.3029 103.008H92.5109V106.224H84.3029V105.296H91.3269V103.92H84.3029V103.008ZM84.3509 107.328H93.5349V111.264H92.3509V108.272H84.3509V107.328ZM83.6629 103.008H84.8149V111.296H83.6629V103.008ZM82.6549 97.792H87.8229V98.784H82.6549V97.792ZM88.8949 97.792H95.3589V98.784H88.8949V97.792ZM82.9589 96.496L84.0949 96.784C83.5029 98.192 82.5589 99.584 81.6309 100.496C81.4069 100.32 80.9269 99.984 80.6389 99.84C81.5989 99.008 82.4629 97.744 82.9589 96.496ZM89.2629 96.496L90.3989 96.768C89.8229 98.16 88.8149 99.456 87.8069 100.288C87.5669 100.112 87.0709 99.824 86.7669 99.68C87.8229 98.912 88.7509 97.728 89.2629 96.496ZM83.5509 98.544L84.5909 98.272C84.9589 98.832 85.3749 99.616 85.5349 100.112L84.4469 100.432C84.3029 99.936 83.9189 99.136 83.5509 98.544ZM90.3349 98.56L91.3909 98.24C91.8869 98.8 92.4629 99.584 92.7029 100.112L91.6149 100.464C91.3909 99.952 90.8469 99.136 90.3349 98.56ZM103.471 101.376V103.44H109.423V101.376H103.471ZM103.471 98.352V100.384H109.423V98.352H103.471ZM102.383 97.312H110.575V104.48H102.383V97.312ZM102.175 106.352H110.799V107.456H102.175V106.352ZM100.943 109.664H111.327V110.752H100.943V109.664ZM96.5909 97.648H101.583V98.784H96.5909V97.648ZM96.7669 102.272H101.359V103.408H96.7669V102.272ZM96.4309 108.4C97.7269 108.048 99.6469 107.424 101.503 106.8L101.711 107.952C99.9669 108.544 98.1429 109.152 96.7189 109.632L96.4309 108.4ZM98.5909 98.096H99.7429V108.016L98.5909 108.24V98.096ZM105.919 97.808H106.975V103.968H107.055V110.16H105.839V103.968H105.919V97.808ZM118.703 105.904H121.951V106.768H118.703V105.904ZM117.807 98.16H122.847V99.104H117.807V98.16ZM117.343 101.664H127.071V102.656H117.343V101.664ZM118.911 103.616H122.495V109.104H118.911V108.208H121.519V104.512H118.911V103.616ZM118.207 103.616H119.167V110.112H118.207V103.616ZM119.743 96.592H120.799V98.832H119.743V96.592ZM125.615 103.472L126.623 103.68C125.727 107.056 124.047 109.632 121.695 111.28C121.551 111.088 121.183 110.672 120.943 110.48C123.279 109.024 124.831 106.576 125.615 103.472ZM118.287 99.392L119.119 99.2C119.423 99.904 119.631 100.832 119.663 101.456L118.783 101.664C118.767 101.056 118.559 100.112 118.287 99.392ZM124.559 97.6L125.391 97.168C126.095 97.952 126.783 99.04 127.087 99.776L126.207 100.256C125.919 99.52 125.231 98.4 124.559 97.6ZM121.343 99.168L122.319 99.392C122.063 100.16 121.807 101.056 121.583 101.632L120.783 101.44C120.991 100.8 121.247 99.824 121.343 99.168ZM112.495 97.264H117.839V98.336H112.495V97.264ZM113.743 100.624H116.623V101.632H113.743V100.624ZM113.743 103.92H116.623V104.944H113.743V103.92ZM113.247 97.808H114.255V108.048H113.247V97.808ZM116.015 97.792H117.055V111.296H116.015V97.792ZM112.223 107.888C113.327 107.696 114.927 107.376 116.559 107.04L116.639 108.096C115.135 108.416 113.631 108.752 112.431 109.008L112.223 107.888ZM123.215 96.592H124.303C124.303 103.728 124.815 109.824 125.855 109.872C126.095 109.872 126.287 108.976 126.383 107.472C126.575 107.712 127.007 108 127.199 108.096C126.895 110.608 126.319 111.264 125.807 111.248C123.711 111.216 123.343 104.832 123.215 96.592Z" fill="white"/>
<rect x="48" y="196" width="111.742" height="36" rx="3" fill="#2171C1"/>
<path d="M66.4309 207.152H70.1429V208.272H66.4309V207.152ZM66.4309 210.896H70.1749V212.016H66.4309V210.896ZM72.6709 212.64H78.4789V213.76H72.6709V212.64ZM66.3989 214.736H70.1429V215.872H66.3989V214.736ZM65.9349 207.152H67.0389V212.912C67.0389 215.408 66.8789 218.944 65.7429 221.312C65.5189 221.12 65.0389 220.848 64.7509 220.736C65.8549 218.48 65.9349 215.264 65.9349 212.912V207.152ZM69.4709 207.152H70.5909V219.856C70.5909 220.496 70.4469 220.864 70.0469 221.072C69.6309 221.264 68.9909 221.296 67.9029 221.28C67.8549 220.992 67.7109 220.448 67.5509 220.144C68.3029 220.16 68.9749 220.16 69.1669 220.144C69.3909 220.128 69.4709 220.064 69.4709 219.84V207.152ZM77.6469 207.2H78.7989V210.304C78.7989 210.896 78.6709 211.216 78.1589 211.392C77.6629 211.568 76.8629 211.568 75.6469 211.568C75.5829 211.232 75.4069 210.832 75.2629 210.544C76.2229 210.56 77.0709 210.56 77.3269 210.544C77.5829 210.544 77.6469 210.48 77.6469 210.288V207.2ZM78.1589 212.64H78.3669L78.5589 212.608L79.2629 212.848C78.4629 216.944 76.4149 219.712 73.9189 221.2C73.7749 220.928 73.4549 220.512 73.2149 220.304C75.4869 219.104 77.4709 216.368 78.1589 212.864V212.64ZM74.4629 213.328C75.3749 216.432 77.2309 219.168 79.7429 220.384C79.4709 220.608 79.1349 221.024 78.9589 221.296C76.3669 219.888 74.5109 216.992 73.5029 213.584L74.4629 213.328ZM71.9989 207.2H77.9669V208.32H73.1349V221.28H71.9989V207.2ZM80.9749 207.664H95.1669V208.72H80.9749V207.664ZM84.6709 206.576H85.8549V209.952H84.6709V206.576ZM90.1749 206.576H91.3589V209.952H90.1749V206.576ZM86.2229 213.312V214.608H89.9029V213.312H86.2229ZM86.2229 211.216V212.496H89.9029V211.216H86.2229ZM85.1349 210.352H91.0229V215.472H85.1349V210.352ZM87.5189 209.104L88.7029 209.312C88.4149 209.92 88.1429 210.512 87.9349 210.944L86.9429 210.72C87.1509 210.256 87.3909 209.568 87.5189 209.104ZM93.7589 209.744L94.7829 210.288C94.0469 211.088 93.0549 211.92 92.2869 212.48L91.3909 211.984C92.1589 211.408 93.1829 210.432 93.7589 209.744ZM80.9749 216.416H95.1349V217.456H80.9749V216.416ZM87.4069 215.216H88.6069V221.28H87.4069V215.216ZM86.9429 216.784L87.8549 217.2C86.3829 218.912 83.7269 220.4 81.3589 221.12C81.2149 220.816 80.8789 220.4 80.6229 220.176C82.9589 219.584 85.5989 218.256 86.9429 216.784ZM89.0709 216.848C90.3669 218.32 92.9909 219.568 95.4389 220.08C95.1829 220.304 94.8629 220.736 94.7189 221.024C92.2389 220.384 89.6309 218.96 88.1909 217.232L89.0709 216.848ZM81.4069 210.48L82.2709 209.872C83.1189 210.448 84.0789 211.344 84.5109 212L83.5829 212.688C83.1829 212.016 82.2389 211.104 81.4069 210.48ZM91.0869 213.712L91.7749 212.96C92.9269 213.488 94.4149 214.336 95.1509 214.944L94.4469 215.792C93.7269 215.168 92.2549 214.272 91.0869 213.712ZM80.8629 214.768C81.8229 214.416 83.1989 213.792 84.5749 213.2L84.8309 214.144C83.6469 214.72 82.3989 215.312 81.3749 215.792L80.8629 214.768ZM102.911 206.624H104.095V211.184C104.095 211.728 104.287 211.824 105.327 211.824C105.823 211.824 108.287 211.824 108.927 211.824C109.823 211.824 109.951 211.536 110.063 209.808C110.319 210 110.831 210.176 111.151 210.256C110.975 212.384 110.591 212.912 109.007 212.912C108.591 212.912 105.663 212.912 105.263 212.912C103.423 212.912 102.911 212.56 102.911 211.168V206.624ZM109.247 207.52L110.175 208.4C108.463 209.088 105.935 209.68 103.775 210.08C103.711 209.808 103.535 209.408 103.391 209.168C105.471 208.768 107.903 208.128 109.247 207.52ZM102.911 214.256H110.463V221.2H109.263V215.28H104.047V221.28H102.911V214.256ZM103.503 216.88H109.695V217.856H103.503V216.88ZM103.471 219.536H109.727V220.528H103.471V219.536ZM96.3669 215.056C97.7749 214.688 99.9189 214.08 101.951 213.472L102.111 214.576C100.223 215.168 98.2229 215.776 96.7029 216.208L96.3669 215.056ZM96.5589 209.792H101.871V210.928H96.5589V209.792ZM98.7989 206.576H99.9829V219.872C99.9829 220.544 99.8389 220.88 99.4069 221.056C98.9909 221.248 98.3349 221.28 97.2629 221.264C97.2309 220.976 97.0549 220.48 96.9109 220.176C97.6309 220.192 98.3029 220.192 98.4949 220.176C98.7189 220.176 98.7989 220.112 98.7989 219.872V206.576ZM112.431 217.072H126.959V218.048H112.431V217.072ZM116.431 208.032H126.879V208.912H116.431V208.032ZM122.287 215.968H123.455V220C123.455 220.64 123.311 220.944 122.815 221.12C122.303 221.28 121.487 221.296 120.159 221.28C120.111 220.976 119.919 220.56 119.775 220.256C120.783 220.288 121.695 220.272 121.951 220.256C122.223 220.256 122.287 220.192 122.287 219.984V215.968ZM115.183 218.736L115.983 218.048C116.847 218.544 117.887 219.328 118.399 219.888L117.519 220.656C117.055 220.08 116.031 219.264 115.183 218.736ZM112.975 207.536L113.775 206.88C114.591 207.44 115.551 208.256 115.967 208.88L115.135 209.616C114.719 209.008 113.775 208.128 112.975 207.536ZM118.399 206.816L119.391 206.576C119.775 207.024 120.175 207.664 120.335 208.112L119.295 208.4C119.135 207.952 118.767 207.296 118.399 206.816ZM118.847 211.696V212.416H124.383V211.696H118.847ZM118.847 213.056V213.776H124.383V213.056H118.847ZM118.847 210.368V211.056H124.383V210.368H118.847ZM117.727 209.712H125.551V214.448H117.727V209.712ZM115.727 210.736V214.192H114.623V211.712H112.495V210.736H115.727ZM120.959 208.336L122.143 208.464C121.935 209.072 121.727 209.648 121.551 210.064L120.607 209.904C120.735 209.44 120.895 208.768 120.959 208.336ZM123.887 206.544L125.023 206.8C124.639 207.376 124.223 207.92 123.871 208.336L122.943 208.096C123.247 207.632 123.679 206.976 123.887 206.544ZM115.727 213.776C116.351 214.704 117.535 215.12 119.007 215.168C120.863 215.232 125.023 215.184 127.071 215.072C126.959 215.296 126.799 215.744 126.751 216.048C124.815 216.128 120.911 216.144 119.039 216.08C117.343 216.032 116.143 215.616 115.311 214.624C114.527 215.168 113.727 215.696 112.879 216.256L112.399 215.248C113.151 214.864 114.079 214.32 114.895 213.776H115.727ZM130.191 207.328H142.623V208.432H130.191V207.328ZM130.399 219.808H142.687V220.896H130.399V219.808ZM136.719 216.864H141.167V217.92H136.719V216.864ZM131.167 210.4H136.159V211.344H131.167V210.4ZM129.471 207.328H130.607V212.08C130.607 214.736 130.415 218.608 129.055 221.248C128.847 221.072 128.351 220.784 128.047 220.672C129.343 218.144 129.471 214.608 129.471 212.064V207.328ZM133.279 208.832H134.303V215.488H133.279V208.832ZM136.047 215.216H137.215V220.48H136.047V215.216ZM132.479 216.4H133.615V220.384H132.479V216.4ZM133.231 210.864L133.935 211.12C133.391 212.64 132.335 214.288 131.327 215.12C131.151 214.896 130.847 214.56 130.623 214.384C131.615 213.68 132.687 212.208 133.231 210.864ZM136.607 210.4H142.367V211.344H136.607V210.4ZM138.751 208.832H139.775V215.488H138.751V208.832ZM138.559 210.88L139.279 211.12C138.671 212.608 137.567 214.176 136.511 214.976C136.335 214.752 136.031 214.416 135.823 214.224C136.863 213.568 137.983 212.16 138.559 210.88ZM134.223 211.696C134.591 211.92 135.839 212.864 136.143 213.12L135.503 213.92C135.135 213.488 134.063 212.512 133.631 212.144L134.223 211.696ZM139.999 210.912C140.543 212.24 141.647 213.568 142.831 214.176C142.591 214.368 142.287 214.736 142.111 214.992C140.911 214.224 139.807 212.688 139.247 211.152L139.999 210.912Z" fill="white"/>
<rect x="48" y="251" width="111.742" height="36" rx="3" fill="#2171C1"/>
<path d="M65.1509 262.664H79.3429V263.72H65.1509V262.664ZM68.8469 261.576H70.0309V264.952H68.8469V261.576ZM74.3509 261.576H75.5349V264.952H74.3509V261.576ZM70.3989 268.312V269.608H74.0789V268.312H70.3989ZM70.3989 266.216V267.496H74.0789V266.216H70.3989ZM69.3109 265.352H75.1989V270.472H69.3109V265.352ZM71.6949 264.104L72.8789 264.312C72.5909 264.92 72.3189 265.512 72.1109 265.944L71.1189 265.72C71.3269 265.256 71.5669 264.568 71.6949 264.104ZM77.9349 264.744L78.9589 265.288C78.2229 266.088 77.2309 266.92 76.4629 267.48L75.5669 266.984C76.3349 266.408 77.3589 265.432 77.9349 264.744ZM65.1509 271.416H79.3109V272.456H65.1509V271.416ZM71.5829 270.216H72.7829V276.28H71.5829V270.216ZM71.1189 271.784L72.0309 272.2C70.5589 273.912 67.9029 275.4 65.5349 276.12C65.3909 275.816 65.0549 275.4 64.7989 275.176C67.1349 274.584 69.7749 273.256 71.1189 271.784ZM73.2469 271.848C74.5429 273.32 77.1669 274.568 79.6149 275.08C79.3589 275.304 79.0389 275.736 78.8949 276.024C76.4149 275.384 73.8069 273.96 72.3669 272.232L73.2469 271.848ZM65.5829 265.48L66.4469 264.872C67.2949 265.448 68.2549 266.344 68.6869 267L67.7589 267.688C67.3589 267.016 66.4149 266.104 65.5829 265.48ZM75.2629 268.712L75.9509 267.96C77.1029 268.488 78.5909 269.336 79.3269 269.944L78.6229 270.792C77.9029 270.168 76.4309 269.272 75.2629 268.712ZM65.0389 269.768C65.9989 269.416 67.3749 268.792 68.7509 268.2L69.0069 269.144C67.8229 269.72 66.5749 270.312 65.5509 270.792L65.0389 269.768ZM82.7189 262.328H95.1509V263.432H82.7189V262.328ZM82.9269 274.808H95.2149V275.896H82.9269V274.808ZM89.2469 271.864H93.6949V272.92H89.2469V271.864ZM83.6949 265.4H88.6869V266.344H83.6949V265.4ZM81.9989 262.328H83.1349V267.08C83.1349 269.736 82.9429 273.608 81.5829 276.248C81.3749 276.072 80.8789 275.784 80.5749 275.672C81.8709 273.144 81.9989 269.608 81.9989 267.064V262.328ZM85.8069 263.832H86.8309V270.488H85.8069V263.832ZM88.5749 270.216H89.7429V275.48H88.5749V270.216ZM85.0069 271.4H86.1429V275.384H85.0069V271.4ZM85.7589 265.864L86.4629 266.12C85.9189 267.64 84.8629 269.288 83.8549 270.12C83.6789 269.896 83.3749 269.56 83.1509 269.384C84.1429 268.68 85.2149 267.208 85.7589 265.864ZM89.1349 265.4H94.8949V266.344H89.1349V265.4ZM91.2789 263.832H92.3029V270.488H91.2789V263.832ZM91.0869 265.88L91.8069 266.12C91.1989 267.608 90.0949 269.176 89.0389 269.976C88.8629 269.752 88.5589 269.416 88.3509 269.224C89.3909 268.568 90.5109 267.16 91.0869 265.88ZM86.7509 266.696C87.1189 266.92 88.3669 267.864 88.6709 268.12L88.0309 268.92C87.6629 268.488 86.5909 267.512 86.1589 267.144L86.7509 266.696ZM92.5269 265.912C93.0709 267.24 94.1749 268.568 95.3589 269.176C95.1189 269.368 94.8149 269.736 94.6389 269.992C93.4389 269.224 92.3349 267.688 91.7749 266.152L92.5269 265.912ZM104.287 267.688H109.807V268.824H104.287V267.688ZM103.759 267.688H104.959V274.216C104.959 274.84 105.135 274.968 106.015 274.968C106.431 274.968 108.511 274.968 109.055 274.968C109.919 274.968 110.047 274.552 110.143 272.328C110.431 272.536 110.943 272.744 111.279 272.824C111.103 275.4 110.735 276.12 109.135 276.12C108.735 276.12 106.287 276.12 105.919 276.12C104.255 276.12 103.759 275.736 103.759 274.2V267.688ZM103.583 262.472H110.431V269.72H109.215V263.608H103.583V262.472ZM97.2309 266.408H102.223V267.368H97.2309V266.408ZM97.3269 262.136H102.287V263.096H97.3269V262.136ZM97.2309 268.552H102.223V269.512H97.2309V268.552ZM96.4789 264.232H102.847V265.224H96.4789V264.232ZM97.7909 270.712H102.175V275.384H97.7909V274.376H101.103V271.704H97.7909V270.712ZM97.2149 270.712H98.2869V276.12H97.2149V270.712ZM115.327 262.536H119.855V263.752H115.327V262.536ZM119.247 262.536H120.479C120.479 265.4 120.831 271.48 127.151 275.224C126.879 275.432 126.399 275.944 126.175 276.232C119.775 272.36 119.247 265.544 119.247 262.536ZM118.799 265.672L120.159 265.928C119.007 270.808 116.895 274.184 113.359 276.264C113.135 276.008 112.591 275.512 112.271 275.288C115.823 273.432 117.823 270.2 118.799 265.672ZM130.191 262.328H142.623V263.432H130.191V262.328ZM130.399 274.808H142.687V275.896H130.399V274.808ZM136.719 271.864H141.167V272.92H136.719V271.864ZM131.167 265.4H136.159V266.344H131.167V265.4ZM129.471 262.328H130.607V267.08C130.607 269.736 130.415 273.608 129.055 276.248C128.847 276.072 128.351 275.784 128.047 275.672C129.343 273.144 129.471 269.608 129.471 267.064V262.328ZM133.279 263.832H134.303V270.488H133.279V263.832ZM136.047 270.216H137.215V275.48H136.047V270.216ZM132.479 271.4H133.615V275.384H132.479V271.4ZM133.231 265.864L133.935 266.12C133.391 267.64 132.335 269.288 131.327 270.12C131.151 269.896 130.847 269.56 130.623 269.384C131.615 268.68 132.687 267.208 133.231 265.864ZM136.607 265.4H142.367V266.344H136.607V265.4ZM138.751 263.832H139.775V270.488H138.751V263.832ZM138.559 265.88L139.279 266.12C138.671 267.608 137.567 269.176 136.511 269.976C136.335 269.752 136.031 269.416 135.823 269.224C136.863 268.568 137.983 267.16 138.559 265.88ZM134.223 266.696C134.591 266.92 135.839 267.864 136.143 268.12L135.503 268.92C135.135 268.488 134.063 267.512 133.631 267.144L134.223 266.696ZM139.999 265.912C140.543 267.24 141.647 268.568 142.831 269.176C142.591 269.368 142.287 269.736 142.111 269.992C140.911 269.224 139.807 267.688 139.247 266.152L139.999 265.912Z" fill="white"/>
<rect x="48" y="141" width="111.742" height="36" rx="3" fill="#2171C1"/>
<path d="M80.9749 152.664H95.1669V153.72H80.9749V152.664ZM84.6709 151.576H85.8549V154.952H84.6709V151.576ZM90.1749 151.576H91.3589V154.952H90.1749V151.576ZM86.2229 158.312V159.608H89.9029V158.312H86.2229ZM86.2229 156.216V157.496H89.9029V156.216H86.2229ZM85.1349 155.352H91.0229V160.472H85.1349V155.352ZM87.5189 154.104L88.7029 154.312C88.4149 154.92 88.1429 155.512 87.9349 155.944L86.9429 155.72C87.1509 155.256 87.3909 154.568 87.5189 154.104ZM93.7589 154.744L94.7829 155.288C94.0469 156.088 93.0549 156.92 92.2869 157.48L91.3909 156.984C92.1589 156.408 93.1829 155.432 93.7589 154.744ZM80.9749 161.416H95.1349V162.456H80.9749V161.416ZM87.4069 160.216H88.6069V166.28H87.4069V160.216ZM86.9429 161.784L87.8549 162.2C86.3829 163.912 83.7269 165.4 81.3589 166.12C81.2149 165.816 80.8789 165.4 80.6229 165.176C82.9589 164.584 85.5989 163.256 86.9429 161.784ZM89.0709 161.848C90.3669 163.32 92.9909 164.568 95.4389 165.08C95.1829 165.304 94.8629 165.736 94.7189 166.024C92.2389 165.384 89.6309 163.96 88.1909 162.232L89.0709 161.848ZM81.4069 155.48L82.2709 154.872C83.1189 155.448 84.0789 156.344 84.5109 157L83.5829 157.688C83.1829 157.016 82.2389 156.104 81.4069 155.48ZM91.0869 158.712L91.7749 157.96C92.9269 158.488 94.4149 159.336 95.1509 159.944L94.4469 160.792C93.7269 160.168 92.2549 159.272 91.0869 158.712ZM80.8629 159.768C81.8229 159.416 83.1989 158.792 84.5749 158.2L84.8309 159.144C83.6469 159.72 82.3989 160.312 81.3749 160.792L80.8629 159.768ZM106.095 153.112H107.231V161.992H106.095V153.112ZM109.391 151.864H110.575V164.728C110.575 165.512 110.367 165.864 109.887 166.056C109.391 166.264 108.575 166.296 107.215 166.28C107.167 165.96 106.975 165.432 106.815 165.08C107.807 165.128 108.735 165.112 109.007 165.096C109.295 165.096 109.391 165 109.391 164.728V151.864ZM96.6389 153.064H105.487V154.12H96.6389V153.064ZM98.4949 159.512H103.695V160.488H98.4949V159.512ZM98.4949 161.864H103.695V162.872H98.4949V161.864ZM100.399 151.672H101.567V153.672H100.399V151.672ZM103.231 158.44H104.383V166.248H103.231V158.44ZM103.247 153.656L104.367 153.976C102.959 156.488 100.015 157.88 96.8469 158.696C96.7349 158.44 96.4149 157.944 96.1909 157.688C99.2789 157.048 102.063 155.816 103.247 153.656ZM98.8309 153.624C100.623 156.056 102.991 156.872 105.663 157.48C105.391 157.736 105.103 158.168 104.991 158.52C102.255 157.8 99.7749 156.808 97.8389 153.992L98.8309 153.624ZM98.0149 158.44H99.1669V161.016C99.1669 162.696 98.9269 164.872 97.3429 166.392C97.1189 166.184 96.6869 165.896 96.3989 165.752C97.8389 164.36 98.0149 162.456 98.0149 160.984V158.44ZM113.455 153.976H117.791V158.424H113.455V157.368H116.703V155.016H113.455V153.976ZM113.471 159.896H117.935V164.712H113.471V163.688H116.863V160.936H113.471V159.896ZM112.975 153.976H114.063V165.8H112.975V153.976ZM118.415 152.408H126.975V153.512H118.415V152.408ZM115.007 151.56L116.319 151.752C115.967 152.696 115.535 153.8 115.151 154.504L114.207 154.296C114.495 153.528 114.847 152.36 115.007 151.56ZM122.111 152.872H123.247V166.264H122.111V152.872ZM119.023 155.48H125.951V156.568H120.127V163.88H119.023V155.48ZM125.375 155.48H126.511V162.616C126.511 163.16 126.415 163.48 126.031 163.672C125.663 163.864 125.103 163.864 124.239 163.864C124.207 163.56 124.047 163.112 123.887 162.808C124.495 162.824 125.007 162.824 125.151 162.824C125.327 162.824 125.375 162.76 125.375 162.6V155.48Z" fill="white"/>
<rect x="255.258" y="86" width="82.9092" height="36" rx="3" fill="#2171C1"/>
<path d="M281.777 97.456H288.673V98.56H281.777V97.456ZM289.809 102.016H296.241V103.168H289.809V102.016ZM293.281 102.768H294.465V111.296H293.281V102.768ZM289.345 98.144L290.849 98.544C290.833 98.656 290.753 98.72 290.529 98.752V102.416C290.529 105.008 290.193 108.672 287.793 111.248C287.617 110.992 287.185 110.592 286.897 110.448C289.121 108.08 289.345 104.864 289.345 102.416V98.144ZM282.369 100.224H283.505V104.544C283.505 106.592 283.313 109.424 282.081 111.312C281.889 111.088 281.393 110.72 281.137 110.576C282.257 108.848 282.369 106.384 282.369 104.544V100.224ZM294.865 96.752L295.921 97.664C294.337 98.432 292.017 99.088 290.017 99.552C289.953 99.28 289.761 98.848 289.601 98.576C291.505 98.128 293.665 97.44 294.865 96.752ZM283.025 100.224H288.273V105.216H283.025V104.128H287.105V101.328H283.025V100.224ZM298.849 97.264H300.033V101.952C300.033 104.656 299.809 108.576 298.177 111.184C297.969 111.008 297.441 110.688 297.137 110.592C298.721 108.064 298.849 104.512 298.849 101.952V97.264ZM299.569 97.264H310.785V100.608H299.569V99.648H309.601V98.224H299.569V97.264ZM305.201 101.664H306.305V109.312H305.201V101.664ZM302.369 103.92V105.056H309.217V103.92H302.369ZM301.281 103.152H310.337V105.824H301.281V103.152ZM300.641 106.752H310.577V107.616H301.745V111.296H300.641V106.752ZM309.937 106.752H311.041V110.208C311.041 110.72 310.945 110.976 310.561 111.12C310.161 111.264 309.521 111.264 308.513 111.264C308.449 111.008 308.305 110.672 308.193 110.416C308.897 110.448 309.489 110.448 309.697 110.432C309.889 110.416 309.937 110.368 309.937 110.208V106.752ZM302.385 108.96C303.921 108.928 306.209 108.848 308.497 108.752L308.481 109.584C306.289 109.696 304.065 109.808 302.465 109.888L302.385 108.96ZM309.377 100.992L310.113 101.728C307.841 102.176 304.193 102.384 301.201 102.416C301.185 102.176 301.057 101.824 300.961 101.616C303.873 101.568 307.457 101.36 309.377 100.992ZM307.297 108.08L308.017 107.856C308.545 108.56 309.169 109.504 309.457 110.064L308.705 110.352C308.417 109.76 307.825 108.8 307.297 108.08Z" fill="white"/>
<path d="M258.474 58.9259C258.986 58.9899 259.642 59.0379 260.186 59.0379C261.194 59.0379 265.674 59.0379 266.618 59.0379C267.146 59.0379 267.786 58.9899 268.33 58.9259V60.9899C267.786 60.9579 267.162 60.9259 266.618 60.9259C265.674 60.9259 261.194 60.9259 260.186 60.9259C259.642 60.9259 258.954 60.9579 258.474 60.9899V58.9259ZM256.602 63.0059C257.082 63.0699 257.642 63.1019 258.138 63.1019C259.146 63.1019 267.674 63.1019 268.618 63.1019C268.954 63.1019 269.658 63.0859 270.09 63.0059V65.0859C269.674 65.0699 269.066 65.0539 268.618 65.0539C267.674 65.0539 259.146 65.0539 258.138 65.0539C257.674 65.0539 257.05 65.0699 256.602 65.1019V63.0059ZM264.794 64.1259C264.794 66.2219 264.426 67.8219 263.738 69.1499C263.194 70.2699 261.946 71.5019 260.538 72.2379L258.65 70.8779C259.786 70.4299 260.922 69.5179 261.546 68.5739C262.346 67.3579 262.57 65.8539 262.57 64.1419L264.794 64.1259ZM278.41 60.3979C278.41 59.8699 278.346 59.0379 278.202 58.5259H280.73C280.65 59.0379 280.602 59.9179 280.602 60.4139C280.602 61.3099 280.602 62.5099 280.602 63.5819C280.602 67.0539 279.706 69.9019 276.042 72.0939L274.042 70.6219C277.418 69.0699 278.41 66.5579 278.41 63.5819C278.41 62.5099 278.41 61.2939 278.41 60.3979ZM272.458 62.0459C272.954 62.1099 273.61 62.1579 274.25 62.1579C275.162 62.1579 283.226 62.1579 284.202 62.1579C284.938 62.1579 285.626 62.1099 285.962 62.0619V64.2539C285.626 64.2219 284.826 64.1899 284.186 64.1899C283.226 64.1899 275.162 64.1899 274.298 64.1899C273.61 64.1899 272.97 64.2219 272.458 64.2699V62.0459ZM290.762 59.0219C291.866 59.7739 293.946 61.4379 294.89 62.4139L293.258 64.0779C292.426 63.1819 290.41 61.4379 289.242 60.6379L290.762 59.0219ZM288.746 69.6779C291.258 69.3259 293.322 68.5099 294.874 67.5979C297.61 65.9659 299.69 63.5339 300.714 61.3739L301.946 63.6139C300.746 65.7899 298.618 67.9979 296.042 69.5499C294.41 70.5259 292.346 71.4059 290.106 71.7899L288.746 69.6779ZM307.738 69.6619C307.738 68.4299 307.738 61.8059 307.738 60.4619C307.738 59.8859 307.69 59.1019 307.578 58.5259H310.074C310.01 59.1019 309.93 59.7899 309.93 60.4619C309.93 62.2219 309.946 68.4779 309.946 69.6619C309.946 70.1099 310.01 71.2299 310.09 71.8859H307.578C307.69 71.2619 307.738 70.2859 307.738 69.6619ZM309.466 62.6699C311.594 63.2619 315.05 64.5259 316.618 65.2939L315.722 67.5179C313.898 66.5739 311.21 65.5499 309.466 64.9739V62.6699ZM330.522 64.1259C330.522 68.0779 329.562 70.4939 325.69 72.2059L323.978 70.5899C327.082 69.5179 328.426 68.1259 328.426 64.1899V59.9339C328.426 59.2939 328.394 58.7659 328.33 58.4619H330.618C330.586 58.7819 330.522 59.2939 330.522 59.9339V64.1259ZM324.73 58.5899C324.698 58.8939 324.634 59.4059 324.634 60.0459V65.7579C324.634 66.4779 324.682 67.1339 324.714 67.4379H322.474C322.506 67.1339 322.554 66.4779 322.554 65.7579V60.0299C322.554 59.5819 322.522 59.0859 322.458 58.5899H324.73ZM319.466 61.4699C319.754 61.5179 320.41 61.6299 321.194 61.6299H331.69C332.538 61.6299 333.018 61.5819 333.466 61.5179V63.6459C333.114 63.5979 332.538 63.5979 331.706 63.5979H321.194C320.394 63.5979 319.834 63.6299 319.466 63.6459V61.4699ZM346.522 57.7099C346.922 58.3179 347.45 59.2299 347.738 59.8219L346.41 60.3819C346.09 59.7099 345.61 58.8939 345.194 58.2539L346.522 57.7099ZM348.746 57.2939C349.162 57.8859 349.722 58.8459 350.026 59.4219L348.698 59.9819C348.362 59.3259 347.866 58.4299 347.418 57.8379L348.746 57.2939ZM348.17 60.7179C348.026 61.0219 347.898 61.4859 347.818 61.8219C347.45 63.3899 346.746 65.8859 345.418 67.6619C343.962 69.5819 341.834 71.1659 338.986 72.0779L337.242 70.1579C340.41 69.4219 342.218 68.0299 343.498 66.4139C344.57 65.0859 345.178 63.2619 345.386 61.8859C344.426 61.8859 339.13 61.8859 337.93 61.8859C337.21 61.8859 336.442 61.9339 336.026 61.9659V59.6939C336.506 59.7579 337.402 59.8379 337.93 59.8379C339.13 59.8379 344.442 59.8379 345.338 59.8379C345.658 59.8379 346.17 59.8219 346.586 59.7099L348.17 60.7179ZM361.098 59.2779C361.546 59.9499 362.202 60.9739 362.554 61.7099L361.178 62.3179C360.698 61.3099 360.346 60.6699 359.754 59.8539L361.098 59.2779ZM363.194 58.4139C363.674 59.0539 364.346 60.0459 364.698 60.7659L363.354 61.4379C362.842 60.4139 362.458 59.8219 361.866 59.0379L363.194 58.4139ZM354.73 69.8859C354.73 68.6699 354.73 62.0459 354.73 60.6859C354.73 60.1099 354.666 59.3259 354.554 58.7659H357.066C357.002 59.3259 356.922 60.0299 356.922 60.6859C356.922 62.4619 356.922 68.7019 356.922 69.8859C356.922 70.3499 357.002 71.4699 357.066 72.1099H354.57C354.666 71.4859 354.73 70.5259 354.73 69.8859ZM356.442 62.8939C358.586 63.4859 362.026 64.7499 363.61 65.5339L362.698 67.7419C360.89 66.7979 358.186 65.7739 356.442 65.1979V62.8939ZM379.514 59.4219C379.29 59.7899 378.986 60.4939 378.842 60.8779C378.234 62.4619 377.258 64.5739 375.93 66.3019C374.442 68.2219 372.474 70.2859 369.37 71.9979L367.594 70.3659C370.506 68.9739 372.506 67.1979 374.202 64.9899C375.466 63.3259 376.186 61.6779 376.746 60.0779C376.89 59.6619 377.05 59.0059 377.13 58.6059L379.514 59.4219ZM370.714 60.9739C372.298 61.9659 374.49 63.4859 375.834 64.5419C377.546 65.8699 379.226 67.3739 380.522 68.7499L378.874 70.5899C377.482 68.9579 376.074 67.6459 374.378 66.2379C373.226 65.2779 371.354 63.8379 369.338 62.6059L370.714 60.9739ZM382.842 64.9739C385.706 64.2379 388.042 63.1979 389.834 62.0939C391.466 61.0859 393.29 59.4859 394.33 58.2219L396.058 59.8539C394.602 61.3259 392.65 62.8299 390.762 63.9659C388.954 65.0379 386.362 66.2379 383.834 66.9899L382.842 64.9739ZM389.498 63.1339L391.77 62.5899V69.8059C391.77 70.5099 391.802 71.5019 391.914 71.9019H389.37C389.434 71.5179 389.498 70.5099 389.498 69.8059V63.1339ZM401.53 59.0219C402.634 59.7739 404.714 61.4379 405.658 62.4139L404.026 64.0779C403.194 63.1819 401.178 61.4379 400.01 60.6379L401.53 59.0219ZM399.514 69.6779C402.026 69.3259 404.09 68.5099 405.642 67.5979C408.378 65.9659 410.458 63.5339 411.482 61.3739L412.714 63.6139C411.514 65.7899 409.386 67.9979 406.81 69.5499C405.178 70.5259 403.114 71.4059 400.874 71.7899L399.514 69.6779Z" fill="#2171C1"/>
<path d="M28.768 68.4379H43.232V69.9739H28.768V68.4379ZM31.84 62.4859H41.536V63.7339H31.84V62.4859ZM31.84 64.4059H41.552V65.6539H31.84V64.4059ZM31.456 60.3259H42.336V61.8299H31.456V60.3259ZM35.44 61.2699H37.28V66.8859H35.44V61.2699ZM34.992 67.4139H36.912V73.6059H34.992V67.4139ZM34.848 69.0779L36.288 69.7819C34.64 71.4139 31.888 72.8219 29.456 73.5259C29.184 73.0459 28.64 72.3419 28.224 71.9419C30.656 71.4299 33.424 70.3099 34.848 69.0779ZM37.12 69.0299C38.496 70.2459 41.2 71.3659 43.6 71.8939C43.2 72.2779 42.672 72.9819 42.4 73.4459C39.984 72.7579 37.296 71.3499 35.664 69.7499L37.12 69.0299ZM36.24 58.5979L38.4 58.8539C37.888 59.8139 37.312 60.7099 36.864 61.3339L35.168 60.9979C35.568 60.3099 36.016 59.3179 36.24 58.5979ZM32.144 58.5659L34.112 58.9499C33.04 60.8219 31.632 62.6619 29.664 64.2459C29.36 63.8139 28.736 63.2219 28.304 62.9499C30.096 61.6539 31.408 59.9739 32.144 58.5659ZM30.592 61.3019H32.416V66.3419H42.8V67.7979H30.592V61.3019ZM50.8 63.9739H59.472V65.8779H50.8V63.9739ZM54.176 58.6619H56.128V73.6219H54.176V58.6619ZM45.072 63.5099H50.24V64.9499H45.072V63.5099ZM45.168 59.0939H50.272V60.5499H45.168V59.0939ZM45.072 65.6859H50.24V67.1419H45.072V65.6859ZM44.288 61.2539H50.88V62.7739H44.288V61.2539ZM45.952 67.9099H50.192V72.7739H45.952V71.2539H48.512V69.4299H45.952V67.9099ZM45.024 67.9099H46.688V73.4139H45.024V67.9099ZM62.144 60.8219C62.752 60.8859 63.568 60.9339 64.128 60.9339H72.192C72.656 60.9339 73.312 60.9019 73.584 60.8859C73.568 61.2699 73.536 61.8939 73.536 62.3739V70.6619C73.536 71.2219 73.584 72.0539 73.616 72.5499H71.296C71.312 72.0699 71.328 71.4939 71.328 70.9019V62.9979H64.128C63.456 62.9979 62.592 63.0299 62.144 63.0619V60.8219ZM61.952 69.5099C62.496 69.5579 63.216 69.6059 63.936 69.6059H72.592V71.7179H64C63.376 71.7179 62.48 71.7499 61.952 71.8139V69.5099ZM90.736 61.3659C90.576 61.5739 90.272 61.9579 90.128 62.1819C89.376 63.4299 87.856 65.4619 86.272 66.5819L84.608 65.2539C85.904 64.4699 87.152 63.0619 87.568 62.2779C86.592 62.2779 80.224 62.2779 79.216 62.2779C78.56 62.2779 78.016 62.3099 77.264 62.3899V60.1499C77.888 60.2459 78.56 60.3259 79.216 60.3259C80.224 60.3259 87.008 60.3259 87.84 60.3259C88.288 60.3259 89.168 60.2619 89.472 60.1819L90.736 61.3659ZM84.224 63.5099C84.224 67.4779 84.128 70.7419 79.776 73.0939L77.904 71.5739C78.432 71.3979 79.008 71.1259 79.6 70.6779C81.616 69.2699 82 67.5899 82 64.9659C82 64.4539 81.984 64.0379 81.904 63.5099H84.224ZM102.192 60.2779C102.64 60.9499 103.296 61.9739 103.648 62.7099L102.272 63.3179C101.792 62.3099 101.44 61.6699 100.848 60.8539L102.192 60.2779ZM104.288 59.4139C104.768 60.0539 105.44 61.0459 105.792 61.7659L104.448 62.4379C103.936 61.4139 103.552 60.8219 102.96 60.0379L104.288 59.4139ZM95.824 70.8859C95.824 69.6699 95.824 63.0459 95.824 61.6859C95.824 61.1099 95.76 60.3259 95.648 59.7659H98.16C98.096 60.3259 98.016 61.0299 98.016 61.6859C98.016 63.4619 98.016 69.7019 98.016 70.8859C98.016 71.3499 98.096 72.4699 98.16 73.1099H95.664C95.76 72.4859 95.824 71.5259 95.824 70.8859ZM97.536 63.8939C99.68 64.4859 103.12 65.7499 104.704 66.5339L103.792 68.7419C101.984 67.7979 99.28 66.7739 97.536 66.1979V63.8939ZM120.608 60.4219C120.384 60.7899 120.08 61.4939 119.936 61.8779C119.328 63.4619 118.352 65.5739 117.024 67.3019C115.536 69.2219 113.568 71.2859 110.464 72.9979L108.688 71.3659C111.6 69.9739 113.6 68.1979 115.296 65.9899C116.56 64.3259 117.28 62.6779 117.84 61.0779C117.984 60.6619 118.144 60.0059 118.224 59.6059L120.608 60.4219ZM111.808 61.9739C113.392 62.9659 115.584 64.4859 116.928 65.5419C118.64 66.8699 120.32 68.3739 121.616 69.7499L119.968 71.5899C118.576 69.9579 117.168 68.6459 115.472 67.2379C114.32 66.2779 112.448 64.8379 110.432 63.6059L111.808 61.9739ZM123.936 65.9739C126.8 65.2379 129.136 64.1979 130.928 63.0939C132.56 62.0859 134.384 60.4859 135.424 59.2219L137.152 60.8539C135.696 62.3259 133.744 63.8299 131.856 64.9659C130.048 66.0379 127.456 67.2379 124.928 67.9899L123.936 65.9739ZM130.592 64.1339L132.864 63.5899V70.8059C132.864 71.5099 132.896 72.5019 133.008 72.9019H130.464C130.528 72.5179 130.592 71.5099 130.592 70.8059V64.1339ZM142.624 60.0219C143.728 60.7739 145.808 62.4379 146.752 63.4139L145.12 65.0779C144.288 64.1819 142.272 62.4379 141.104 61.6379L142.624 60.0219ZM140.608 70.6779C143.12 70.3259 145.184 69.5099 146.736 68.5979C149.472 66.9659 151.552 64.5339 152.576 62.3739L153.808 64.6139C152.608 66.7899 150.48 68.9979 147.904 70.5499C146.272 71.5259 144.208 72.4059 141.968 72.7899L140.608 70.6779Z" fill="#2171C1"/>
<rect x="365.167" y="86" width="82.9092" height="36" rx="3" fill="#2171C1"/>
<path d="M391.638 97.664H405.83V98.72H391.638V97.664ZM395.334 96.576H396.518V99.952H395.334V96.576ZM400.838 96.576H402.022V99.952H400.838V96.576ZM396.886 103.312V104.608H400.566V103.312H396.886ZM396.886 101.216V102.496H400.566V101.216H396.886ZM395.798 100.352H401.686V105.472H395.798V100.352ZM398.182 99.104L399.366 99.312C399.078 99.92 398.806 100.512 398.598 100.944L397.606 100.72C397.814 100.256 398.054 99.568 398.182 99.104ZM404.422 99.744L405.446 100.288C404.71 101.088 403.718 101.92 402.95 102.48L402.054 101.984C402.822 101.408 403.846 100.432 404.422 99.744ZM391.638 106.416H405.798V107.456H391.638V106.416ZM398.07 105.216H399.27V111.28H398.07V105.216ZM397.606 106.784L398.518 107.2C397.046 108.912 394.39 110.4 392.022 111.12C391.878 110.816 391.542 110.4 391.286 110.176C393.622 109.584 396.262 108.256 397.606 106.784ZM399.734 106.848C401.03 108.32 403.654 109.568 406.102 110.08C405.846 110.304 405.526 110.736 405.382 111.024C402.902 110.384 400.294 108.96 398.854 107.232L399.734 106.848ZM392.07 100.48L392.934 99.872C393.782 100.448 394.742 101.344 395.174 102L394.246 102.688C393.846 102.016 392.902 101.104 392.07 100.48ZM401.75 103.712L402.438 102.96C403.59 103.488 405.078 104.336 405.814 104.944L405.11 105.792C404.39 105.168 402.918 104.272 401.75 103.712ZM391.526 104.768C392.486 104.416 393.862 103.792 395.238 103.2L395.494 104.144C394.31 104.72 393.062 105.312 392.038 105.792L391.526 104.768ZM409.686 97.408H420.022V101.52H409.686V100.48H418.822V98.448H409.686V97.408ZM408.966 97.408H410.15V101.232C410.15 104 409.862 108.112 407.942 110.88C407.75 110.64 407.238 110.24 406.966 110.112C408.79 107.504 408.966 103.824 408.966 101.232V97.408ZM409.702 102.912H420.326V103.984H409.702V102.912ZM412.102 105.232H417.574V109.376H412.102V108.384H416.438V106.24H412.102V105.232ZM411.462 105.232H412.566V110.32H411.462V105.232ZM419.926 102.912H421.126C421.126 102.912 421.126 103.296 421.126 103.456C420.902 108.368 420.726 110.144 420.23 110.72C419.942 111.088 419.622 111.2 419.142 111.248C418.678 111.28 417.846 111.28 416.998 111.232C416.966 110.896 416.838 110.416 416.646 110.096C417.51 110.176 418.294 110.192 418.582 110.192C418.886 110.192 419.046 110.144 419.19 109.968C419.542 109.568 419.766 107.856 419.926 103.136V102.912Z" fill="white"/>
<rect x="255.258" y="141" width="82.9092" height="36" rx="3" fill="#2171C1"/>
<path d="M275.225 154.04C275.849 154.072 276.265 154.072 276.649 154.072C277.497 154.072 284.457 154.072 285.241 154.072C285.577 154.072 286.153 154.072 286.649 154.056C286.617 154.44 286.617 154.888 286.617 155.288C286.617 156.04 286.617 162.568 286.617 163.176C286.617 163.688 286.633 164.936 286.649 165.112H285.257C285.273 164.936 285.289 164.024 285.289 163.352C285.289 162.76 285.289 155.336 285.289 155.336H276.553C276.553 155.336 276.553 162.696 276.553 163.352C276.553 163.88 276.569 164.904 276.569 165.112H275.209C275.209 164.904 275.241 163.736 275.241 163.176C275.241 162.52 275.241 155.912 275.241 155.288C275.241 154.92 275.241 154.44 275.225 154.04ZM285.817 162.952V164.2H275.913V162.952H285.817ZM290.329 158.072C290.825 158.12 291.657 158.168 292.569 158.168C293.737 158.168 300.153 158.168 301.337 158.168C302.137 158.168 302.697 158.104 303.065 158.072V159.64C302.729 159.624 302.057 159.576 301.353 159.576C300.137 159.576 293.753 159.576 292.569 159.576C291.689 159.576 290.841 159.608 290.329 159.64V158.072ZM312.905 164.664C312.969 164.424 313.017 164.088 313.017 163.768C313.017 163.032 313.017 155.192 313.017 154.184C313.017 153.576 312.937 153.128 312.937 153H314.409C314.393 153.128 314.329 153.592 314.329 154.2C314.329 155.192 314.329 162.936 314.329 163.416C315.817 162.744 317.785 161.288 319.001 159.48L319.769 160.584C318.377 162.456 316.169 164.088 314.313 165.016C314.041 165.144 313.881 165.288 313.753 165.368L312.905 164.664ZM305.577 164.6C306.937 163.64 307.881 162.216 308.361 160.664C308.841 159.192 308.841 156.008 308.841 154.216C308.841 153.752 308.809 153.4 308.729 153.064H310.201C310.185 153.24 310.121 153.736 310.121 154.2C310.121 155.976 310.073 159.416 309.641 161.016C309.161 162.728 308.137 164.28 306.793 165.4L305.577 164.6Z" fill="white"/>
<path d="M44 270.5C44.8284 270.5 45.5 269.828 45.5 269C45.5 268.172 44.8284 267.5 44 267.5V270.5ZM55.6603 160C56.246 159.414 56.246 158.586 55.6603 158L49 151.34C48.4142 150.754 47.5858 150.754 47 151.34L39.3397 159L47 166.66C47.5858 167.246 48.4142 167.246 49 166.66L55.6603 160ZM33.5 257V175H30.5V257H33.5ZM33.5 175C33.5 166.992 39.9919 160.5 48 160.5V157.5C38.335 157.5 30.5 165.335 30.5 175H33.5ZM44 267.5C38.201 267.5 33.5 262.799 33.5 257H30.5C30.5 264.456 36.5442 270.5 44 270.5V267.5Z" fill="#B3B3B3"/>
<path d="M44 215.5C44.8284 215.5 45.5 214.828 45.5 214C45.5 213.172 44.8284 212.5 44 212.5V215.5ZM55.6603 160C56.246 159.414 56.246 158.586 55.6603 158L49 151.34C48.4142 150.754 47.5858 150.754 47 151.34L39.3397 159L47 166.66C47.5858 167.246 48.4142 167.246 49 166.66L55.6603 160ZM33.5 202V175H30.5V202H33.5ZM33.5 175C33.5 166.992 39.9919 160.5 48 160.5V157.5C38.335 157.5 30.5 165.335 30.5 175H33.5ZM44 212.5C38.201 212.5 33.5 207.799 33.5 202H30.5C30.5 209.456 36.5442 215.5 44 215.5V212.5Z" fill="#B3B3B3"/>
<path d="M342.167 102.5C341.339 102.5 340.667 103.172 340.667 104C340.667 104.828 341.339 105.5 342.167 105.5V102.5ZM372.828 105C373.414 104.414 373.414 103.586 372.828 103L366.167 96.3397C365.582 95.754 364.753 95.754 364.167 96.3397L356.507 104L364.167 111.66C364.753 112.246 365.582 112.246 366.167 111.66L372.828 105ZM342.167 105.5H365.167V102.5H342.167V105.5Z" fill="#B3B3B3"/>
<path d="M251.258 105.5C252.087 105.5 252.758 104.828 252.758 104C252.758 103.172 252.087 102.5 251.258 102.5V105.5ZM152.081 103C151.496 103.586 151.496 104.414 152.081 105L158.742 111.66C159.327 112.246 160.156 112.246 160.742 111.66L168.402 104L160.742 96.3397C160.156 95.754 159.327 95.754 158.742 96.3397L152.081 103ZM251.258 102.5H159.742V105.5H251.258V102.5Z" fill="#B3B3B3"/>
<path d="M251.258 105.5C252.087 105.5 252.758 104.828 252.758 104C252.758 103.172 252.087 102.5 251.258 102.5V105.5ZM152.081 158C151.496 158.586 151.496 159.414 152.081 160L158.742 166.66C159.327 167.246 160.156 167.246 160.742 166.66L168.402 159L160.742 151.34C160.156 150.754 159.327 150.754 158.742 151.34L152.081 158ZM251.258 102.5H231.5V105.5H251.258V102.5ZM206 128V135H209V128H206ZM183.5 157.5H159.742V160.5H183.5V157.5ZM206 135C206 147.426 195.926 157.5 183.5 157.5V160.5C197.583 160.5 209 149.083 209 135H206ZM231.5 102.5C217.417 102.5 206 113.917 206 128H209C209 115.574 219.074 105.5 231.5 105.5V102.5Z" fill="#B3B3B3"/>
<path d="M298.213 126C298.213 125.172 297.541 124.5 296.713 124.5C295.884 124.5 295.213 125.172 295.213 126H298.213ZM295.713 148.66C296.299 149.246 297.127 149.246 297.713 148.66L304.373 142C304.959 141.414 304.959 140.586 304.373 140L296.713 132.34L289.053 140C288.467 140.586 288.467 141.414 289.053 142L295.713 148.66ZM295.213 126V141H298.213V126H295.213Z" fill="#B3B3B3"/>
<path d="M17.0114 27.1819V15.5455H21.6705C22.5265 15.5455 23.2405 15.6724 23.8125 15.9262C24.3845 16.18 24.8144 16.5323 25.1023 16.983C25.3902 17.43 25.5341 17.9451 25.5341 18.5285C25.5341 18.983 25.4432 19.3826 25.2614 19.7273C25.0795 20.0682 24.8295 20.3486 24.5114 20.5682C24.197 20.7842 23.8371 20.9376 23.4318 21.0285V21.1421C23.875 21.1611 24.2898 21.2861 24.6761 21.5171C25.0663 21.7482 25.3826 22.072 25.625 22.4887C25.8674 22.9016 25.9886 23.394 25.9886 23.966C25.9886 24.5834 25.8352 25.1345 25.5284 25.6194C25.2254 26.1004 24.7765 26.4811 24.1818 26.7614C23.5871 27.0417 22.8542 27.1819 21.983 27.1819H17.0114ZM19.4716 25.1705H21.4773C22.1629 25.1705 22.6629 25.0398 22.9773 24.7785C23.2917 24.5133 23.4489 24.1611 23.4489 23.7217C23.4489 23.3997 23.3712 23.1156 23.2159 22.8694C23.0606 22.6232 22.839 22.43 22.5511 22.2898C22.267 22.1497 21.928 22.0796 21.5341 22.0796H19.4716V25.1705ZM19.4716 20.4148H21.2955C21.6326 20.4148 21.9318 20.3561 22.1932 20.2387C22.4583 20.1175 22.6667 19.947 22.8182 19.7273C22.9735 19.5076 23.0511 19.2444 23.0511 18.9376C23.0511 18.5171 22.9015 18.1781 22.6023 17.9205C22.3068 17.6629 21.8864 17.5342 21.3409 17.5342H19.4716V20.4148ZM29.8737 15.5455V27.1819H27.4135V15.5455H29.8737ZM38.2785 14.7179C38.6625 15.5179 39.6385 17.9819 39.9585 19.0059L37.9425 19.7099C37.6385 18.7019 36.7425 16.3659 36.2785 15.3739L38.2785 14.7179ZM45.5745 15.9979C45.3985 16.3979 45.2545 16.8939 45.1585 17.2459C44.7105 18.9899 43.7985 21.5339 42.4865 23.2619C40.8065 25.4859 38.4705 27.1019 36.1985 27.9659L34.4065 26.1579C36.5825 25.5339 39.0785 24.0939 40.7265 22.0299C41.9265 20.5099 42.9185 17.7739 43.1905 15.3259L45.5745 15.9979ZM33.8145 15.7099C34.3105 16.7339 35.3025 19.1179 35.6705 20.1899L33.6225 20.9419C33.2865 19.9179 32.2305 17.2779 31.7825 16.4299L33.8145 15.7099ZM47.9905 19.7739C48.5825 19.8219 49.7345 19.8859 50.5665 19.8859C52.4545 19.8859 57.7345 19.8859 59.1585 19.8859C59.9105 19.8859 60.6145 19.8059 61.0465 19.7739V22.3019C60.6625 22.2859 59.8465 22.2059 59.1745 22.2059C57.7185 22.2059 52.4545 22.2059 50.5665 22.2059C49.6705 22.2059 48.5985 22.2539 47.9905 22.3019V19.7739ZM70.3905 26.8299C70.4705 26.5259 70.5185 26.0939 70.5185 25.6619C70.5185 24.8139 70.5185 17.6299 70.5185 16.3339C70.5185 15.6139 70.4065 14.9899 70.4065 14.9579H72.7745C72.7745 14.9899 72.6625 15.6299 72.6625 16.3499C72.6625 17.6299 72.6625 23.7259 72.6625 24.7019C73.9745 24.1419 75.5425 22.8779 76.6305 21.3259L77.8465 23.1019C76.5185 24.8299 74.2305 26.5579 72.4225 27.4699C72.0865 27.6459 71.8945 27.8219 71.7345 27.9339L70.3905 26.8299ZM62.9825 26.6059C64.4065 25.6139 65.2705 24.1419 65.7025 22.7659C66.1665 21.4059 66.1825 18.3659 66.1825 16.4459C66.1825 15.7899 66.1185 15.3739 66.0225 14.9739H68.3745C68.3745 15.0379 68.2625 15.7579 68.2625 16.4139C68.2625 18.3179 68.2145 21.6939 67.7985 23.3099C67.3025 25.1019 66.3105 26.6859 64.9345 27.9019L62.9825 26.6059ZM89.0785 15.2779C89.5265 15.9499 90.1825 16.9739 90.5345 17.7099L89.1585 18.3179C88.6785 17.3099 88.3265 16.6699 87.7345 15.8539L89.0785 15.2779ZM91.1745 14.4139C91.6545 15.0539 92.3265 16.0459 92.6785 16.7659L91.3345 17.4379C90.8225 16.4139 90.4385 15.8219 89.8465 15.0379L91.1745 14.4139ZM82.7105 25.8859C82.7105 24.6699 82.7105 18.0459 82.7105 16.6859C82.7105 16.1099 82.6465 15.3259 82.5345 14.7659H85.0465C84.9825 15.3259 84.9025 16.0299 84.9025 16.6859C84.9025 18.4619 84.9025 24.7019 84.9025 25.8859C84.9025 26.3499 84.9825 27.4699 85.0465 28.1099H82.5505C82.6465 27.4859 82.7105 26.5259 82.7105 25.8859ZM84.4225 18.8939C86.5665 19.4859 90.0065 20.7499 91.5905 21.5339L90.6785 23.7419C88.8705 22.7979 86.1665 21.7739 84.4225 21.1979V18.8939ZM107.495 15.4219C107.271 15.7899 106.967 16.4939 106.823 16.8779C106.215 18.4619 105.239 20.5739 103.911 22.3019C102.423 24.2219 100.455 26.2859 97.3505 27.9979L95.5745 26.3659C98.4865 24.9739 100.487 23.1979 102.183 20.9899C103.447 19.3259 104.167 17.6779 104.727 16.0779C104.871 15.6619 105.031 15.0059 105.111 14.6059L107.495 15.4219ZM98.6945 16.9739C100.279 17.9659 102.471 19.4859 103.815 20.5419C105.527 21.8699 107.207 23.3739 108.503 24.7499L106.855 26.5899C105.463 24.9579 104.055 23.6459 102.359 22.2379C101.207 21.2779 99.3345 19.8379 97.3185 18.6059L98.6945 16.9739ZM110.822 20.9739C113.686 20.2379 116.022 19.1979 117.814 18.0939C119.446 17.0859 121.27 15.4859 122.31 14.2219L124.038 15.8539C122.582 17.3259 120.63 18.8299 118.742 19.9659C116.934 21.0379 114.342 22.2379 111.814 22.9899L110.822 20.9739ZM117.478 19.1339L119.75 18.5899V25.8059C119.75 26.5099 119.782 27.5019 119.894 27.9019H117.35C117.414 27.5179 117.478 26.5099 117.478 25.8059V19.1339ZM129.511 15.0219C130.615 15.7739 132.695 17.4379 133.639 18.4139L132.007 20.0779C131.175 19.1819 129.159 17.4379 127.991 16.6379L129.511 15.0219ZM127.495 25.6779C130.007 25.3259 132.071 24.5099 133.623 23.5979C136.359 21.9659 138.439 19.5339 139.463 17.3739L140.695 19.6139C139.495 21.7899 137.367 23.9979 134.791 25.5499C133.159 26.5259 131.095 27.4059 128.855 27.7899L127.495 25.6779Z" fill="#2171C1"/>
<rect x="240" y="259" width="224" height="83" rx="6" stroke="#2171C1" stroke-width="4" stroke-miterlimit="0" stroke-linecap="round"/>
<rect x="255" y="289" width="82.9092" height="36" rx="3" fill="#2171C1"/>
<path d="M285.455 306.296H295.743V307.432H285.455V306.296ZM286.271 302.184H294.991V303.336H286.271V302.184ZM289.935 299.576H291.167V307.112H289.935V299.576ZM285.471 312.328C287.647 312.232 291.135 312.04 294.447 311.848V312.936C291.263 313.176 287.919 313.4 285.647 313.544L285.471 312.328ZM291.919 309.592L292.943 309.064C294.159 310.488 295.487 312.392 296.015 313.688L294.895 314.312C294.399 313.048 293.119 311.048 291.919 309.592ZM288.863 307.048L290.159 307.416C289.455 309.272 288.495 311.56 287.695 313.016L286.639 312.648C287.423 311.16 288.367 308.76 288.863 307.048ZM281.999 300.568L282.671 299.672C283.759 300.072 285.135 300.76 285.823 301.32L285.135 302.328C284.463 301.752 283.119 301 281.999 300.568ZM281.151 304.984L281.775 304.056C282.863 304.408 284.271 305.032 284.991 305.544L284.335 306.552C283.647 306.04 282.271 305.368 281.151 304.984ZM281.711 313.304C282.527 312.072 283.727 309.96 284.607 308.152L285.503 308.904C284.703 310.6 283.647 312.6 282.751 314.088L281.711 313.304ZM303.535 300.056H304.863C304.735 302.568 304.495 310.552 297.871 314.152C297.663 313.848 297.263 313.48 296.895 313.208C303.423 309.88 303.423 302.184 303.535 300.056ZM304.815 300.376C304.863 301.624 305.327 310.12 311.919 313.144C311.567 313.416 311.199 313.816 311.007 314.152C304.223 310.904 303.775 301.96 303.663 300.488L304.815 300.376Z" fill="white"/>
<rect x="365.258" y="289" width="82.9092" height="36" rx="3" fill="#2171C1"/>
<path d="M387.693 300.2C388.093 300.776 388.669 301.752 388.989 302.392L388.125 302.792C387.805 302.136 387.261 301.176 386.829 300.568L387.693 300.2ZM389.437 299.56C389.869 300.152 390.477 301.144 390.781 301.736L389.917 302.12C389.565 301.432 389.053 300.52 388.605 299.928L389.437 299.56ZM388.749 303.384C388.621 303.624 388.461 303.992 388.381 304.248C387.949 305.848 386.957 308.024 385.549 309.752C384.093 311.528 382.173 313 379.165 314.104L378.013 313.064C380.957 312.2 382.941 310.744 384.397 309.048C385.645 307.576 386.621 305.512 386.957 304.056H381.021L381.533 302.904C382.189 302.904 386.141 302.904 386.637 302.904C387.069 302.904 387.421 302.856 387.693 302.744L388.749 303.384ZM383.389 300.968C383.133 301.384 382.845 301.928 382.685 302.232C381.741 303.992 380.061 306.28 377.501 307.992L376.381 307.16C379.149 305.512 380.717 303.192 381.421 301.752C381.581 301.48 381.821 300.888 381.917 300.488L383.389 300.968ZM399.645 312.664C399.709 312.424 399.757 312.088 399.757 311.768C399.757 311.032 399.757 303.192 399.757 302.184C399.757 301.576 399.677 301.128 399.677 301H401.149C401.133 301.128 401.069 301.592 401.069 302.2C401.069 303.192 401.069 310.936 401.069 311.416C402.557 310.744 404.525 309.288 405.741 307.48L406.509 308.584C405.117 310.456 402.909 312.088 401.053 313.016C400.781 313.144 400.621 313.288 400.493 313.368L399.645 312.664ZM392.317 312.6C393.677 311.64 394.621 310.216 395.101 308.664C395.581 307.192 395.581 304.008 395.581 302.216C395.581 301.752 395.549 301.4 395.469 301.064H396.941C396.925 301.24 396.861 301.736 396.861 302.2C396.861 303.976 396.813 307.416 396.381 309.016C395.901 310.728 394.877 312.28 393.533 313.4L392.317 312.6ZM408.717 306.072C409.213 306.12 410.045 306.168 410.957 306.168C412.125 306.168 418.541 306.168 419.725 306.168C420.525 306.168 421.085 306.104 421.453 306.072V307.64C421.117 307.624 420.445 307.576 419.741 307.576C418.525 307.576 412.141 307.576 410.957 307.576C410.077 307.576 409.229 307.608 408.717 307.64V306.072ZM434.852 301.512C434.852 302.104 435.316 302.568 435.908 302.568C436.484 302.568 436.964 302.104 436.964 301.512C436.964 300.936 436.484 300.456 435.908 300.456C435.316 300.456 434.852 300.936 434.852 301.512ZM434.116 301.512C434.116 300.52 434.916 299.72 435.908 299.72C436.9 299.72 437.7 300.52 437.7 301.512C437.7 302.504 436.9 303.304 435.908 303.304C434.916 303.304 434.116 302.504 434.116 301.512ZM435.508 302.584C435.396 302.808 435.332 303.08 435.268 303.384C434.916 305.064 434.148 307.656 432.868 309.288C431.412 311.176 429.508 312.648 426.58 313.576L425.492 312.376C428.596 311.592 430.388 310.232 431.732 308.52C432.868 307.08 433.604 304.84 433.828 303.304C432.9 303.304 426.564 303.304 425.636 303.304C424.996 303.304 424.452 303.336 424.052 303.368V301.944C424.484 301.992 425.124 302.056 425.652 302.056C426.564 302.056 432.948 302.056 433.668 302.056C433.924 302.056 434.228 302.04 434.532 301.96L435.508 302.584Z" fill="white"/>
<path d="M408.213 126C408.213 125.172 407.541 124.5 406.713 124.5C405.884 124.5 405.213 125.172 405.213 126H408.213ZM405.713 296.66C406.299 297.246 407.127 297.246 407.713 296.66L414.373 290C414.959 289.414 414.959 288.586 414.373 288L406.713 280.34L399.053 288C398.467 288.586 398.467 289.414 399.053 290L405.713 296.66ZM405.213 126V289H408.213V126H405.213Z" fill="#B3B3B3"/>
<path d="M342.167 102.5C341.339 102.5 340.667 103.172 340.667 104C340.667 104.828 341.339 105.5 342.167 105.5V102.5ZM405.713 296.66C406.299 297.246 407.127 297.246 407.713 296.66L414.373 290C414.959 289.414 414.959 288.586 414.373 288L406.713 280.34L399.053 288C398.467 288.586 398.467 289.414 399.053 290L405.713 296.66ZM342.167 105.5H344V102.5H342.167V105.5ZM366.5 128V221.644H369.5V128H366.5ZM405.213 260.356V289H408.213V260.356H405.213ZM387.356 242.5C397.218 242.5 405.213 250.495 405.213 260.356H408.213C408.213 248.838 398.875 239.5 387.356 239.5V242.5ZM366.5 221.644C366.5 233.162 375.838 242.5 387.356 242.5V239.5C377.495 239.5 369.5 231.505 369.5 221.644H366.5ZM344 105.5C356.426 105.5 366.5 115.574 366.5 128H369.5C369.5 113.917 358.083 102.5 344 102.5V105.5Z" fill="#B3B3B3"/>
<path d="M361.258 308.5C362.087 308.5 362.758 307.828 362.758 307C362.758 306.172 362.087 305.5 361.258 305.5V308.5ZM330.249 306C329.663 306.586 329.663 307.414 330.249 308L336.909 314.66C337.495 315.246 338.323 315.246 338.909 314.66L346.569 307L338.909 299.34C338.323 298.754 337.495 298.754 336.909 299.34L330.249 306ZM361.258 305.5H337.909V308.5H361.258V305.5Z" fill="#B3B3B3"/>
<path d="M263.608 274.35H268.392V276.078H263.608V274.35ZM263.608 278.366H268.392V280.094H263.608V278.366ZM262.616 270.398H269.48V283.534H267.544V272.126H264.472V283.534H262.616V270.398ZM261.144 282.478H270.552V284.206H261.144V282.478ZM257.88 269.614L259.576 270.206C258.92 271.454 258.168 272.878 257.544 273.758L256.248 273.23C256.824 272.27 257.512 270.734 257.88 269.614ZM259.8 271.502L261.416 272.174C260.232 274.014 258.664 276.238 257.432 277.598L256.264 277.006C257.496 275.566 258.952 273.214 259.8 271.502ZM255.416 273.406L256.312 272.078C257.176 272.814 258.168 273.838 258.584 274.542L257.608 276.046C257.208 275.278 256.232 274.174 255.416 273.406ZM259.4 275.358L260.76 274.766C261.4 275.838 262.04 277.23 262.248 278.158L260.792 278.83C260.6 277.918 260.008 276.462 259.4 275.358ZM255.4 276.654C256.888 276.606 259.096 276.51 261.24 276.398V277.918C259.224 278.078 257.144 278.222 255.56 278.318L255.4 276.654ZM259.688 279.374L261.096 278.91C261.512 279.87 261.944 281.118 262.136 281.934L260.632 282.478C260.488 281.646 260.072 280.35 259.688 279.374ZM256.088 279.006L257.672 279.278C257.512 280.814 257.16 282.414 256.696 283.438C256.36 283.23 255.64 282.894 255.24 282.734C255.704 281.79 255.96 280.366 256.088 279.006ZM257.944 277.502H259.656V284.638H257.944V277.502ZM278.216 269.582H279.96V271.934H278.216V269.582ZM276.968 272.75L278.248 272.462C278.504 273.134 278.696 274.03 278.728 274.59L277.368 274.926C277.368 274.334 277.208 273.438 276.968 272.75ZM276.392 271.134H281.784V272.574H276.392V271.134ZM276.12 274.734H286.2V276.238H276.12V274.734ZM277.704 279.246H280.696V280.526H277.704V279.246ZM277.576 276.958H281.576V282.83H277.576V281.518H280.024V278.286H277.576V276.958ZM277.016 276.958H278.472V283.662H277.016V276.958ZM279.912 272.366L281.464 272.702C281.16 273.486 280.888 274.334 280.632 274.894L279.352 274.574C279.544 273.95 279.8 273.006 279.912 272.366ZM281.976 269.694H283.608C283.56 276.798 283.992 282.542 284.936 282.606C285.144 282.622 285.304 281.886 285.384 280.638C285.64 281.006 286.312 281.502 286.568 281.678C286.184 284.174 285.448 284.75 284.872 284.734C282.424 284.638 282.056 278.718 281.976 269.694ZM283.496 271.182L284.888 270.622C285.464 271.55 286.072 272.782 286.328 273.598L284.856 274.238C284.616 273.422 284.04 272.126 283.496 271.182ZM284.696 276.83L286.2 277.246C285.224 280.414 283.448 282.99 280.84 284.654C280.6 284.302 280.04 283.694 279.688 283.422C282.136 281.982 283.896 279.582 284.696 276.83ZM273.256 269.614L274.872 270.126C274.312 271.358 273.688 272.782 273.176 273.678L271.928 273.198C272.424 272.238 272.968 270.718 273.256 269.614ZM274.92 271.55L276.408 272.19C275.384 273.998 274.024 276.222 272.92 277.598L271.864 277.038C272.904 275.598 274.2 273.262 274.92 271.55ZM271.256 273.278L272.04 271.918C272.84 272.686 273.784 273.726 274.136 274.446L273.272 275.998C272.92 275.214 272.024 274.078 271.256 273.278ZM274.376 275.294L275.64 274.814C276.216 275.902 276.76 277.294 276.904 278.222L275.544 278.782C275.416 277.87 274.92 276.414 274.376 275.294ZM271.16 276.622C272.424 276.574 274.248 276.478 276.104 276.366L276.088 277.854C274.408 278.03 272.696 278.174 271.32 278.286L271.16 276.622ZM274.792 279.294L276.056 278.894C276.392 279.822 276.712 281.022 276.856 281.806L275.512 282.27C275.416 281.454 275.096 280.222 274.792 279.294ZM271.752 279.006L273.192 279.246C273.08 280.75 272.808 282.334 272.408 283.358C272.12 283.166 271.464 282.878 271.112 282.734C271.512 281.79 271.672 280.35 271.752 279.006ZM273.288 277.47H274.856V284.622H273.288V277.47ZM291.368 282.798H299.176V284.206H291.368V282.798ZM293.656 272.958H295.512V274.878H293.656V272.958ZM287.752 274.062H301.672V277.246H299.8V275.502H289.56V277.246H287.752V274.062ZM291.304 276.174H299.144V279.758H291.304V278.382H297.224V277.55H291.304V276.174ZM291.384 280.478H300.36V284.638H298.44V281.886H291.384V280.478ZM290.248 276.174H292.072V284.654H290.248V276.174ZM289.368 270.718H294.408V272.222H289.368V270.718ZM295.848 270.718H302.056V272.222H295.848V270.718ZM289.432 269.47L291.224 269.95C290.6 271.39 289.576 272.846 288.632 273.758C288.264 273.47 287.496 272.958 287.064 272.734C288.024 271.934 288.936 270.686 289.432 269.47ZM295.944 269.47L297.768 269.918C297.192 271.294 296.2 272.622 295.24 273.454C294.856 273.166 294.04 272.75 293.56 272.542C294.584 271.806 295.48 270.638 295.944 269.47ZM289.96 271.886L291.592 271.454C291.992 271.998 292.44 272.766 292.632 273.278L290.904 273.774C290.76 273.278 290.344 272.462 289.96 271.886ZM297.112 271.934L298.792 271.486C299.256 272.014 299.816 272.782 300.072 273.294L298.296 273.79C298.088 273.31 297.56 272.494 297.112 271.934ZM310.68 274.75V276.126H315.528V274.75H310.68ZM310.68 271.902V273.246H315.528V271.902H310.68ZM308.952 270.27H317.352V277.742H308.952V270.27ZM308.84 279.118H317.528V280.846H308.84V279.118ZM307.72 282.382H318.056V284.11H307.72V282.382ZM303.032 270.51H308.344V272.302H303.032V270.51ZM303.192 275.118H308.072V276.894H303.192V275.118ZM302.856 281.198C304.232 280.846 306.28 280.206 308.2 279.582L308.536 281.422C306.744 282.03 304.824 282.654 303.288 283.15L302.856 281.198ZM304.808 271.214H306.632V281.054L304.808 281.342V271.214ZM312.328 270.958H313.944V276.99H314.12V283.198H312.152V276.99H312.328V270.958ZM320.792 271.822C321.4 271.886 322.216 271.934 322.776 271.934H330.84C331.304 271.934 331.96 271.902 332.232 271.886C332.216 272.27 332.184 272.894 332.184 273.374V281.662C332.184 282.222 332.232 283.054 332.264 283.55H329.944C329.96 283.07 329.976 282.494 329.976 281.902V273.998H322.776C322.104 273.998 321.24 274.03 320.792 274.062V271.822ZM320.6 280.51C321.144 280.558 321.864 280.606 322.584 280.606H331.24V282.718H322.648C322.024 282.718 321.128 282.75 320.6 282.814V280.51ZM349.384 272.366C349.224 272.574 348.92 272.958 348.776 273.182C348.024 274.43 346.504 276.462 344.92 277.582L343.256 276.254C344.552 275.47 345.8 274.062 346.216 273.278C345.24 273.278 338.872 273.278 337.864 273.278C337.208 273.278 336.664 273.31 335.912 273.39V271.15C336.536 271.246 337.208 271.326 337.864 271.326C338.872 271.326 345.656 271.326 346.488 271.326C346.936 271.326 347.816 271.262 348.12 271.182L349.384 272.366ZM342.872 274.51C342.872 278.478 342.776 281.742 338.424 284.094L336.552 282.574C337.08 282.398 337.656 282.126 338.248 281.678C340.264 280.27 340.648 278.59 340.648 275.966C340.648 275.454 340.632 275.038 340.552 274.51H342.872ZM360.84 271.278C361.288 271.95 361.944 272.974 362.296 273.71L360.92 274.318C360.44 273.31 360.088 272.67 359.496 271.854L360.84 271.278ZM362.936 270.414C363.416 271.054 364.088 272.046 364.44 272.766L363.096 273.438C362.584 272.414 362.2 271.822 361.608 271.038L362.936 270.414ZM354.472 281.886C354.472 280.67 354.472 274.046 354.472 272.686C354.472 272.11 354.408 271.326 354.296 270.766H356.808C356.744 271.326 356.664 272.03 356.664 272.686C356.664 274.462 356.664 280.702 356.664 281.886C356.664 282.35 356.744 283.47 356.808 284.11H354.312C354.408 283.486 354.472 282.526 354.472 281.886ZM356.184 274.894C358.328 275.486 361.768 276.75 363.352 277.534L362.44 279.742C360.632 278.798 357.928 277.774 356.184 277.198V274.894ZM379.256 271.422C379.032 271.79 378.728 272.494 378.584 272.878C377.976 274.462 377 276.574 375.672 278.302C374.184 280.222 372.216 282.286 369.112 283.998L367.336 282.366C370.248 280.974 372.248 279.198 373.944 276.99C375.208 275.326 375.928 273.678 376.488 272.078C376.632 271.662 376.792 271.006 376.872 270.606L379.256 271.422ZM370.456 272.974C372.04 273.966 374.232 275.486 375.576 276.542C377.288 277.87 378.968 279.374 380.264 280.75L378.616 282.59C377.224 280.958 375.816 279.646 374.12 278.238C372.968 277.278 371.096 275.838 369.08 274.606L370.456 272.974ZM382.584 276.974C385.448 276.238 387.784 275.198 389.576 274.094C391.208 273.086 393.032 271.486 394.072 270.222L395.8 271.854C394.344 273.326 392.392 274.83 390.504 275.966C388.696 277.038 386.104 278.238 383.576 278.99L382.584 276.974ZM389.24 275.134L391.512 274.59V281.806C391.512 282.51 391.544 283.502 391.656 283.902H389.112C389.176 283.518 389.24 282.51 389.24 281.806V275.134ZM401.272 271.022C402.376 271.774 404.456 273.438 405.4 274.414L403.768 276.078C402.936 275.182 400.92 273.438 399.752 272.638L401.272 271.022ZM399.256 281.678C401.768 281.326 403.832 280.51 405.384 279.598C408.12 277.966 410.2 275.534 411.224 273.374L412.456 275.614C411.256 277.79 409.128 279.998 406.552 281.55C404.92 282.526 402.856 283.406 400.616 283.79L399.256 281.678Z" fill="#2171C1"/>
<path d="M248.608 236.35H253.392V238.078H248.608V236.35ZM248.608 240.366H253.392V242.094H248.608V240.366ZM247.616 232.398H254.48V245.534H252.544V234.126H249.472V245.534H247.616V232.398ZM246.144 244.478H255.552V246.206H246.144V244.478ZM242.88 231.614L244.576 232.206C243.92 233.454 243.168 234.878 242.544 235.758L241.248 235.23C241.824 234.27 242.512 232.734 242.88 231.614ZM244.8 233.502L246.416 234.174C245.232 236.014 243.664 238.238 242.432 239.598L241.264 239.006C242.496 237.566 243.952 235.214 244.8 233.502ZM240.416 235.406L241.312 234.078C242.176 234.814 243.168 235.838 243.584 236.542L242.608 238.046C242.208 237.278 241.232 236.174 240.416 235.406ZM244.4 237.358L245.76 236.766C246.4 237.838 247.04 239.23 247.248 240.158L245.792 240.83C245.6 239.918 245.008 238.462 244.4 237.358ZM240.4 238.654C241.888 238.606 244.096 238.51 246.24 238.398V239.918C244.224 240.078 242.144 240.222 240.56 240.318L240.4 238.654ZM244.688 241.374L246.096 240.91C246.512 241.87 246.944 243.118 247.136 243.934L245.632 244.478C245.488 243.646 245.072 242.35 244.688 241.374ZM241.088 241.006L242.672 241.278C242.512 242.814 242.16 244.414 241.696 245.438C241.36 245.23 240.64 244.894 240.24 244.734C240.704 243.79 240.96 242.366 241.088 241.006ZM242.944 239.502H244.656V246.638H242.944V239.502ZM263.216 231.582H264.96V233.934H263.216V231.582ZM261.968 234.75L263.248 234.462C263.504 235.134 263.696 236.03 263.728 236.59L262.368 236.926C262.368 236.334 262.208 235.438 261.968 234.75ZM261.392 233.134H266.784V234.574H261.392V233.134ZM261.12 236.734H271.2V238.238H261.12V236.734ZM262.704 241.246H265.696V242.526H262.704V241.246ZM262.576 238.958H266.576V244.83H262.576V243.518H265.024V240.286H262.576V238.958ZM262.016 238.958H263.472V245.662H262.016V238.958ZM264.912 234.366L266.464 234.702C266.16 235.486 265.888 236.334 265.632 236.894L264.352 236.574C264.544 235.95 264.8 235.006 264.912 234.366ZM266.976 231.694H268.608C268.56 238.798 268.992 244.542 269.936 244.606C270.144 244.622 270.304 243.886 270.384 242.638C270.64 243.006 271.312 243.502 271.568 243.678C271.184 246.174 270.448 246.75 269.872 246.734C267.424 246.638 267.056 240.718 266.976 231.694ZM268.496 233.182L269.888 232.622C270.464 233.55 271.072 234.782 271.328 235.598L269.856 236.238C269.616 235.422 269.04 234.126 268.496 233.182ZM269.696 238.83L271.2 239.246C270.224 242.414 268.448 244.99 265.84 246.654C265.6 246.302 265.04 245.694 264.688 245.422C267.136 243.982 268.896 241.582 269.696 238.83ZM258.256 231.614L259.872 232.126C259.312 233.358 258.688 234.782 258.176 235.678L256.928 235.198C257.424 234.238 257.968 232.718 258.256 231.614ZM259.92 233.55L261.408 234.19C260.384 235.998 259.024 238.222 257.92 239.598L256.864 239.038C257.904 237.598 259.2 235.262 259.92 233.55ZM256.256 235.278L257.04 233.918C257.84 234.686 258.784 235.726 259.136 236.446L258.272 237.998C257.92 237.214 257.024 236.078 256.256 235.278ZM259.376 237.294L260.64 236.814C261.216 237.902 261.76 239.294 261.904 240.222L260.544 240.782C260.416 239.87 259.92 238.414 259.376 237.294ZM256.16 238.622C257.424 238.574 259.248 238.478 261.104 238.366L261.088 239.854C259.408 240.03 257.696 240.174 256.32 240.286L256.16 238.622ZM259.792 241.294L261.056 240.894C261.392 241.822 261.712 243.022 261.856 243.806L260.512 244.27C260.416 243.454 260.096 242.222 259.792 241.294ZM256.752 241.006L258.192 241.246C258.08 242.75 257.808 244.334 257.408 245.358C257.12 245.166 256.464 244.878 256.112 244.734C256.512 243.79 256.672 242.35 256.752 241.006ZM258.288 239.47H259.856V246.622H258.288V239.47ZM276.368 244.798H284.176V246.206H276.368V244.798ZM278.656 234.958H280.512V236.878H278.656V234.958ZM272.752 236.062H286.672V239.246H284.8V237.502H274.56V239.246H272.752V236.062ZM276.304 238.174H284.144V241.758H276.304V240.382H282.224V239.55H276.304V238.174ZM276.384 242.478H285.36V246.638H283.44V243.886H276.384V242.478ZM275.248 238.174H277.072V246.654H275.248V238.174ZM274.368 232.718H279.408V234.222H274.368V232.718ZM280.848 232.718H287.056V234.222H280.848V232.718ZM274.432 231.47L276.224 231.95C275.6 233.39 274.576 234.846 273.632 235.758C273.264 235.47 272.496 234.958 272.064 234.734C273.024 233.934 273.936 232.686 274.432 231.47ZM280.944 231.47L282.768 231.918C282.192 233.294 281.2 234.622 280.24 235.454C279.856 235.166 279.04 234.75 278.56 234.542C279.584 233.806 280.48 232.638 280.944 231.47ZM274.96 233.886L276.592 233.454C276.992 233.998 277.44 234.766 277.632 235.278L275.904 235.774C275.76 235.278 275.344 234.462 274.96 233.886ZM282.112 233.934L283.792 233.486C284.256 234.014 284.816 234.782 285.072 235.294L283.296 235.79C283.088 235.31 282.56 234.494 282.112 233.934ZM295.68 236.75V238.126H300.528V236.75H295.68ZM295.68 233.902V235.246H300.528V233.902H295.68ZM293.952 232.27H302.352V239.742H293.952V232.27ZM293.84 241.118H302.528V242.846H293.84V241.118ZM292.72 244.382H303.056V246.11H292.72V244.382ZM288.032 232.51H293.344V234.302H288.032V232.51ZM288.192 237.118H293.072V238.894H288.192V237.118ZM287.856 243.198C289.232 242.846 291.28 242.206 293.2 241.582L293.536 243.422C291.744 244.03 289.824 244.654 288.288 245.15L287.856 243.198ZM289.808 233.214H291.632V243.054L289.808 243.342V233.214ZM297.328 232.958H298.944V238.99H299.12V245.198H297.152V238.99H297.328V232.958ZM314.192 233.278C314.64 233.95 315.296 234.974 315.648 235.71L314.272 236.318C313.792 235.31 313.44 234.67 312.848 233.854L314.192 233.278ZM316.288 232.414C316.768 233.054 317.44 234.046 317.792 234.766L316.448 235.438C315.936 234.414 315.552 233.822 314.96 233.038L316.288 232.414ZM307.824 243.886C307.824 242.67 307.824 236.046 307.824 234.686C307.824 234.11 307.76 233.326 307.648 232.766H310.16C310.096 233.326 310.016 234.03 310.016 234.686C310.016 236.462 310.016 242.702 310.016 243.886C310.016 244.35 310.096 245.47 310.16 246.11H307.664C307.76 245.486 307.824 244.526 307.824 243.886ZM309.536 236.894C311.68 237.486 315.12 238.75 316.704 239.534L315.792 241.742C313.984 240.798 311.28 239.774 309.536 239.198V236.894ZM332.608 233.422C332.384 233.79 332.08 234.494 331.936 234.878C331.328 236.462 330.352 238.574 329.024 240.302C327.536 242.222 325.568 244.286 322.464 245.998L320.688 244.366C323.6 242.974 325.6 241.198 327.296 238.99C328.56 237.326 329.28 235.678 329.84 234.078C329.984 233.662 330.144 233.006 330.224 232.606L332.608 233.422ZM323.808 234.974C325.392 235.966 327.584 237.486 328.928 238.542C330.64 239.87 332.32 241.374 333.616 242.75L331.968 244.59C330.576 242.958 329.168 241.646 327.472 240.238C326.32 239.278 324.448 237.838 322.432 236.606L323.808 234.974ZM335.936 238.974C338.8 238.238 341.136 237.198 342.928 236.094C344.56 235.086 346.384 233.486 347.424 232.222L349.152 233.854C347.696 235.326 345.744 236.83 343.856 237.966C342.048 239.038 339.456 240.238 336.928 240.99L335.936 238.974ZM342.592 237.134L344.864 236.59V243.806C344.864 244.51 344.896 245.502 345.008 245.902H342.464C342.528 245.518 342.592 244.51 342.592 243.806V237.134ZM354.624 233.022C355.728 233.774 357.808 235.438 358.752 236.414L357.12 238.078C356.288 237.182 354.272 235.438 353.104 234.638L354.624 233.022ZM352.608 243.678C355.12 243.326 357.184 242.51 358.736 241.598C361.472 239.966 363.552 237.534 364.576 235.374L365.808 237.614C364.608 239.79 362.48 241.998 359.904 243.55C358.272 244.526 356.208 245.406 353.968 245.79L352.608 243.678Z" fill="#2171C1"/>
</svg>
