<svg width="480" height="327" viewBox="0 0 480 327" fill="none" xmlns="http://www.w3.org/2000/svg">
<rect x="224" width="256" height="327" rx="6" fill="#DCF1FF"/>
<path d="M252.3 18.3499H257.084V20.0779H252.3V18.3499ZM252.3 22.3659H257.084V24.0939H252.3V22.3659ZM251.308 14.3979H258.172V27.5339H256.236V16.1259H253.164V27.5339H251.308V14.3979ZM249.836 26.4779H259.244V28.2059H249.836V26.4779ZM246.572 13.6139L248.268 14.2059C247.612 15.4539 246.86 16.8779 246.236 17.7579L244.94 17.2299C245.516 16.2699 246.204 14.7339 246.572 13.6139ZM248.492 15.5019L250.108 16.1739C248.924 18.0139 247.356 20.2379 246.124 21.5979L244.956 21.0059C246.188 19.5659 247.644 17.2139 248.492 15.5019ZM244.108 17.4059L245.004 16.0779C245.868 16.8139 246.86 17.8379 247.276 18.5419L246.3 20.0459C245.9 19.2779 244.924 18.1739 244.108 17.4059ZM248.092 19.3579L249.452 18.7659C250.092 19.8379 250.732 21.2299 250.94 22.1579L249.484 22.8299C249.292 21.9179 248.7 20.4619 248.092 19.3579ZM244.092 20.6539C245.58 20.6059 247.788 20.5099 249.932 20.3979V21.9179C247.916 22.0779 245.836 22.2219 244.252 22.3179L244.092 20.6539ZM248.38 23.3739L249.788 22.9099C250.204 23.8699 250.636 25.1179 250.828 25.9339L249.324 26.4779C249.18 25.6459 248.764 24.3499 248.38 23.3739ZM244.78 23.0059L246.364 23.2779C246.204 24.8139 245.852 26.4139 245.388 27.4379C245.052 27.2299 244.332 26.8939 243.932 26.7339C244.396 25.7899 244.652 24.3659 244.78 23.0059ZM246.636 21.5019H248.348V28.6379H246.636V21.5019ZM266.908 13.5819H268.652V15.9339H266.908V13.5819ZM265.66 16.7499L266.94 16.4619C267.196 17.1339 267.388 18.0299 267.42 18.5899L266.06 18.9259C266.06 18.3339 265.9 17.4379 265.66 16.7499ZM265.084 15.1339H270.476V16.5739H265.084V15.1339ZM264.812 18.7339H274.892V20.2379H264.812V18.7339ZM266.396 23.2459H269.388V24.5259H266.396V23.2459ZM266.268 20.9579H270.268V26.8299H266.268V25.5179H268.716V22.2859H266.268V20.9579ZM265.708 20.9579H267.164V27.6619H265.708V20.9579ZM268.604 16.3659L270.156 16.7019C269.852 17.4859 269.58 18.3339 269.324 18.8939L268.044 18.5739C268.236 17.9499 268.492 17.0059 268.604 16.3659ZM270.668 13.6939H272.3C272.252 20.7979 272.684 26.5419 273.628 26.6059C273.836 26.6219 273.996 25.8859 274.076 24.6379C274.332 25.0059 275.004 25.5019 275.26 25.6779C274.876 28.1739 274.14 28.7499 273.564 28.7339C271.116 28.6379 270.748 22.7179 270.668 13.6939ZM272.188 15.1819L273.58 14.6219C274.156 15.5499 274.764 16.7819 275.02 17.5979L273.548 18.2379C273.308 17.4219 272.732 16.1259 272.188 15.1819ZM273.388 20.8299L274.892 21.2459C273.916 24.4139 272.14 26.9899 269.532 28.6539C269.292 28.3019 268.732 27.6939 268.38 27.4219C270.828 25.9819 272.588 23.5819 273.388 20.8299ZM261.948 13.6139L263.564 14.1259C263.004 15.3579 262.38 16.7819 261.868 17.6779L260.62 17.1979C261.116 16.2379 261.66 14.7179 261.948 13.6139ZM263.612 15.5499L265.1 16.1899C264.076 17.9979 262.716 20.2219 261.612 21.5979L260.556 21.0379C261.596 19.5979 262.892 17.2619 263.612 15.5499ZM259.948 17.2779L260.732 15.9179C261.532 16.6859 262.476 17.7259 262.828 18.4459L261.964 19.9979C261.612 19.2139 260.716 18.0779 259.948 17.2779ZM263.068 19.2939L264.332 18.8139C264.908 19.9019 265.452 21.2939 265.596 22.2219L264.236 22.7819C264.108 21.8699 263.612 20.4139 263.068 19.2939ZM259.852 20.6219C261.116 20.5739 262.94 20.4779 264.796 20.3659L264.78 21.8539C263.1 22.0299 261.388 22.1739 260.012 22.2859L259.852 20.6219ZM263.484 23.2939L264.748 22.8939C265.084 23.8219 265.404 25.0219 265.548 25.8059L264.204 26.2699C264.108 25.4539 263.788 24.2219 263.484 23.2939ZM260.444 23.0059L261.884 23.2459C261.772 24.7499 261.5 26.3339 261.1 27.3579C260.812 27.1659 260.156 26.8779 259.804 26.7339C260.204 25.7899 260.364 24.3499 260.444 23.0059ZM261.98 21.4699H263.548V28.6219H261.98V21.4699ZM280.06 26.7979H287.868V28.2059H280.06V26.7979ZM282.348 16.9579H284.204V18.8779H282.348V16.9579ZM276.444 18.0619H290.364V21.2459H288.492V19.5019H278.252V21.2459H276.444V18.0619ZM279.996 20.1739H287.836V23.7579H279.996V22.3819H285.916V21.5499H279.996V20.1739ZM280.076 24.4779H289.052V28.6379H287.132V25.8859H280.076V24.4779ZM278.94 20.1739H280.764V28.6539H278.94V20.1739ZM278.06 14.7179H283.1V16.2219H278.06V14.7179ZM284.54 14.7179H290.748V16.2219H284.54V14.7179ZM278.124 13.4699L279.916 13.9499C279.292 15.3899 278.268 16.8459 277.324 17.7579C276.956 17.4699 276.188 16.9579 275.756 16.7339C276.716 15.9339 277.628 14.6859 278.124 13.4699ZM284.636 13.4699L286.46 13.9179C285.884 15.2939 284.892 16.6219 283.932 17.4539C283.548 17.1659 282.732 16.7499 282.252 16.5419C283.276 15.8059 284.172 14.6379 284.636 13.4699ZM278.652 15.8859L280.284 15.4539C280.684 15.9979 281.132 16.7659 281.324 17.2779L279.596 17.7739C279.452 17.2779 279.036 16.4619 278.652 15.8859ZM285.804 15.9339L287.484 15.4859C287.948 16.0139 288.508 16.7819 288.764 17.2939L286.988 17.7899C286.78 17.3099 286.252 16.4939 285.804 15.9339ZM299.372 18.7499V20.1259H304.22V18.7499H299.372ZM299.372 15.9019V17.2459H304.22V15.9019H299.372ZM297.644 14.2699H306.044V21.7419H297.644V14.2699ZM297.532 23.1179H306.22V24.8459H297.532V23.1179ZM296.412 26.3819H306.748V28.1099H296.412V26.3819ZM291.724 14.5099H297.036V16.3019H291.724V14.5099ZM291.884 19.1179H296.764V20.8939H291.884V19.1179ZM291.548 25.1979C292.924 24.8459 294.972 24.2059 296.892 23.5819L297.228 25.4219C295.436 26.0299 293.516 26.6539 291.98 27.1499L291.548 25.1979ZM293.5 15.2139H295.324V25.0539L293.5 25.3419V15.2139ZM301.02 14.9579H302.636V20.9899H302.812V27.1979H300.844V20.9899H301.02V14.9579ZM317.884 15.2779C318.332 15.9499 318.988 16.9739 319.34 17.7099L317.964 18.3179C317.484 17.3099 317.132 16.6699 316.54 15.8539L317.884 15.2779ZM319.98 14.4139C320.46 15.0539 321.132 16.0459 321.484 16.7659L320.14 17.4379C319.628 16.4139 319.244 15.8219 318.652 15.0379L319.98 14.4139ZM311.516 25.8859C311.516 24.6699 311.516 18.0459 311.516 16.6859C311.516 16.1099 311.452 15.3259 311.34 14.7659H313.852C313.788 15.3259 313.708 16.0299 313.708 16.6859C313.708 18.4619 313.708 24.7019 313.708 25.8859C313.708 26.3499 313.788 27.4699 313.852 28.1099H311.356C311.452 27.4859 311.516 26.5259 311.516 25.8859ZM313.228 18.8939C315.372 19.4859 318.812 20.7499 320.396 21.5339L319.484 23.7419C317.676 22.7979 314.972 21.7739 313.228 21.1979V18.8939ZM336.3 15.4219C336.076 15.7899 335.772 16.4939 335.628 16.8779C335.02 18.4619 334.044 20.5739 332.716 22.3019C331.228 24.2219 329.26 26.2859 326.156 27.9979L324.38 26.3659C327.292 24.9739 329.292 23.1979 330.988 20.9899C332.252 19.3259 332.972 17.6779 333.532 16.0779C333.676 15.6619 333.836 15.0059 333.916 14.6059L336.3 15.4219ZM327.5 16.9739C329.084 17.9659 331.276 19.4859 332.62 20.5419C334.332 21.8699 336.012 23.3739 337.308 24.7499L335.66 26.5899C334.268 24.9579 332.86 23.6459 331.164 22.2379C330.012 21.2779 328.14 19.8379 326.124 18.6059L327.5 16.9739ZM339.628 20.9739C342.492 20.2379 344.828 19.1979 346.62 18.0939C348.252 17.0859 350.076 15.4859 351.116 14.2219L352.844 15.8539C351.388 17.3259 349.436 18.8299 347.548 19.9659C345.74 21.0379 343.148 22.2379 340.62 22.9899L339.628 20.9739ZM346.284 19.1339L348.556 18.5899V25.8059C348.556 26.5099 348.588 27.5019 348.7 27.9019H346.156C346.22 27.5179 346.284 26.5099 346.284 25.8059V19.1339ZM358.316 15.0219C359.42 15.7739 361.5 17.4379 362.444 18.4139L360.812 20.0779C359.98 19.1819 357.964 17.4379 356.796 16.6379L358.316 15.0219ZM356.3 25.6779C358.812 25.3259 360.876 24.5099 362.428 23.5979C365.164 21.9659 367.244 19.5339 368.268 17.3739L369.5 19.6139C368.3 21.7899 366.172 23.9979 363.596 25.5499C361.964 26.5259 359.9 27.4059 357.66 27.7899L356.3 25.6779Z" fill="#2171C1"/>
<rect width="208" height="327" rx="6" fill="#DCF1FF"/>
<rect x="240.258" y="46" width="224" height="258" rx="6" stroke="#2171C1" stroke-width="4" stroke-miterlimit="0" stroke-linecap="round"/>
<rect x="16" y="46" width="176" height="258" rx="6" stroke="#2171C1" stroke-width="4" stroke-miterlimit="0" stroke-linecap="round"/>
<rect x="48" y="86" width="111.742" height="36" rx="3" fill="#2171C1"/>
<path d="M84.3669 109.824H92.8309V110.752H84.3669V109.824ZM87.4229 99.808H88.5909V101.584H87.4229V99.808ZM81.3429 101.056H94.8629V104.064H93.6789V102.016H82.4949V104.064H81.3429V101.056ZM84.3029 103.008H92.5109V106.224H84.3029V105.296H91.3269V103.92H84.3029V103.008ZM84.3509 107.328H93.5349V111.264H92.3509V108.272H84.3509V107.328ZM83.6629 103.008H84.8149V111.296H83.6629V103.008ZM82.6549 97.792H87.8229V98.784H82.6549V97.792ZM88.8949 97.792H95.3589V98.784H88.8949V97.792ZM82.9589 96.496L84.0949 96.784C83.5029 98.192 82.5589 99.584 81.6309 100.496C81.4069 100.32 80.9269 99.984 80.6389 99.84C81.5989 99.008 82.4629 97.744 82.9589 96.496ZM89.2629 96.496L90.3989 96.768C89.8229 98.16 88.8149 99.456 87.8069 100.288C87.5669 100.112 87.0709 99.824 86.7669 99.68C87.8229 98.912 88.7509 97.728 89.2629 96.496ZM83.5509 98.544L84.5909 98.272C84.9589 98.832 85.3749 99.616 85.5349 100.112L84.4469 100.432C84.3029 99.936 83.9189 99.136 83.5509 98.544ZM90.3349 98.56L91.3909 98.24C91.8869 98.8 92.4629 99.584 92.7029 100.112L91.6149 100.464C91.3909 99.952 90.8469 99.136 90.3349 98.56ZM103.471 101.376V103.44H109.423V101.376H103.471ZM103.471 98.352V100.384H109.423V98.352H103.471ZM102.383 97.312H110.575V104.48H102.383V97.312ZM102.175 106.352H110.799V107.456H102.175V106.352ZM100.943 109.664H111.327V110.752H100.943V109.664ZM96.5909 97.648H101.583V98.784H96.5909V97.648ZM96.7669 102.272H101.359V103.408H96.7669V102.272ZM96.4309 108.4C97.7269 108.048 99.6469 107.424 101.503 106.8L101.711 107.952C99.9669 108.544 98.1429 109.152 96.7189 109.632L96.4309 108.4ZM98.5909 98.096H99.7429V108.016L98.5909 108.24V98.096ZM105.919 97.808H106.975V103.968H107.055V110.16H105.839V103.968H105.919V97.808ZM118.703 105.904H121.951V106.768H118.703V105.904ZM117.807 98.16H122.847V99.104H117.807V98.16ZM117.343 101.664H127.071V102.656H117.343V101.664ZM118.911 103.616H122.495V109.104H118.911V108.208H121.519V104.512H118.911V103.616ZM118.207 103.616H119.167V110.112H118.207V103.616ZM119.743 96.592H120.799V98.832H119.743V96.592ZM125.615 103.472L126.623 103.68C125.727 107.056 124.047 109.632 121.695 111.28C121.551 111.088 121.183 110.672 120.943 110.48C123.279 109.024 124.831 106.576 125.615 103.472ZM118.287 99.392L119.119 99.2C119.423 99.904 119.631 100.832 119.663 101.456L118.783 101.664C118.767 101.056 118.559 100.112 118.287 99.392ZM124.559 97.6L125.391 97.168C126.095 97.952 126.783 99.04 127.087 99.776L126.207 100.256C125.919 99.52 125.231 98.4 124.559 97.6ZM121.343 99.168L122.319 99.392C122.063 100.16 121.807 101.056 121.583 101.632L120.783 101.44C120.991 100.8 121.247 99.824 121.343 99.168ZM112.495 97.264H117.839V98.336H112.495V97.264ZM113.743 100.624H116.623V101.632H113.743V100.624ZM113.743 103.92H116.623V104.944H113.743V103.92ZM113.247 97.808H114.255V108.048H113.247V97.808ZM116.015 97.792H117.055V111.296H116.015V97.792ZM112.223 107.888C113.327 107.696 114.927 107.376 116.559 107.04L116.639 108.096C115.135 108.416 113.631 108.752 112.431 109.008L112.223 107.888ZM123.215 96.592H124.303C124.303 103.728 124.815 109.824 125.855 109.872C126.095 109.872 126.287 108.976 126.383 107.472C126.575 107.712 127.007 108 127.199 108.096C126.895 110.608 126.319 111.264 125.807 111.248C123.711 111.216 123.343 104.832 123.215 96.592Z" fill="white"/>
<rect x="48" y="196" width="111.742" height="36" rx="3" fill="#2171C1"/>
<path d="M66.4309 207.152H70.1429V208.272H66.4309V207.152ZM66.4309 210.896H70.1749V212.016H66.4309V210.896ZM72.6709 212.64H78.4789V213.76H72.6709V212.64ZM66.3989 214.736H70.1429V215.872H66.3989V214.736ZM65.9349 207.152H67.0389V212.912C67.0389 215.408 66.8789 218.944 65.7429 221.312C65.5189 221.12 65.0389 220.848 64.7509 220.736C65.8549 218.48 65.9349 215.264 65.9349 212.912V207.152ZM69.4709 207.152H70.5909V219.856C70.5909 220.496 70.4469 220.864 70.0469 221.072C69.6309 221.264 68.9909 221.296 67.9029 221.28C67.8549 220.992 67.7109 220.448 67.5509 220.144C68.3029 220.16 68.9749 220.16 69.1669 220.144C69.3909 220.128 69.4709 220.064 69.4709 219.84V207.152ZM77.6469 207.2H78.7989V210.304C78.7989 210.896 78.6709 211.216 78.1589 211.392C77.6629 211.568 76.8629 211.568 75.6469 211.568C75.5829 211.232 75.4069 210.832 75.2629 210.544C76.2229 210.56 77.0709 210.56 77.3269 210.544C77.5829 210.544 77.6469 210.48 77.6469 210.288V207.2ZM78.1589 212.64H78.3669L78.5589 212.608L79.2629 212.848C78.4629 216.944 76.4149 219.712 73.9189 221.2C73.7749 220.928 73.4549 220.512 73.2149 220.304C75.4869 219.104 77.4709 216.368 78.1589 212.864V212.64ZM74.4629 213.328C75.3749 216.432 77.2309 219.168 79.7429 220.384C79.4709 220.608 79.1349 221.024 78.9589 221.296C76.3669 219.888 74.5109 216.992 73.5029 213.584L74.4629 213.328ZM71.9989 207.2H77.9669V208.32H73.1349V221.28H71.9989V207.2ZM80.9749 207.664H95.1669V208.72H80.9749V207.664ZM84.6709 206.576H85.8549V209.952H84.6709V206.576ZM90.1749 206.576H91.3589V209.952H90.1749V206.576ZM86.2229 213.312V214.608H89.9029V213.312H86.2229ZM86.2229 211.216V212.496H89.9029V211.216H86.2229ZM85.1349 210.352H91.0229V215.472H85.1349V210.352ZM87.5189 209.104L88.7029 209.312C88.4149 209.92 88.1429 210.512 87.9349 210.944L86.9429 210.72C87.1509 210.256 87.3909 209.568 87.5189 209.104ZM93.7589 209.744L94.7829 210.288C94.0469 211.088 93.0549 211.92 92.2869 212.48L91.3909 211.984C92.1589 211.408 93.1829 210.432 93.7589 209.744ZM80.9749 216.416H95.1349V217.456H80.9749V216.416ZM87.4069 215.216H88.6069V221.28H87.4069V215.216ZM86.9429 216.784L87.8549 217.2C86.3829 218.912 83.7269 220.4 81.3589 221.12C81.2149 220.816 80.8789 220.4 80.6229 220.176C82.9589 219.584 85.5989 218.256 86.9429 216.784ZM89.0709 216.848C90.3669 218.32 92.9909 219.568 95.4389 220.08C95.1829 220.304 94.8629 220.736 94.7189 221.024C92.2389 220.384 89.6309 218.96 88.1909 217.232L89.0709 216.848ZM81.4069 210.48L82.2709 209.872C83.1189 210.448 84.0789 211.344 84.5109 212L83.5829 212.688C83.1829 212.016 82.2389 211.104 81.4069 210.48ZM91.0869 213.712L91.7749 212.96C92.9269 213.488 94.4149 214.336 95.1509 214.944L94.4469 215.792C93.7269 215.168 92.2549 214.272 91.0869 213.712ZM80.8629 214.768C81.8229 214.416 83.1989 213.792 84.5749 213.2L84.8309 214.144C83.6469 214.72 82.3989 215.312 81.3749 215.792L80.8629 214.768ZM102.911 206.624H104.095V211.184C104.095 211.728 104.287 211.824 105.327 211.824C105.823 211.824 108.287 211.824 108.927 211.824C109.823 211.824 109.951 211.536 110.063 209.808C110.319 210 110.831 210.176 111.151 210.256C110.975 212.384 110.591 212.912 109.007 212.912C108.591 212.912 105.663 212.912 105.263 212.912C103.423 212.912 102.911 212.56 102.911 211.168V206.624ZM109.247 207.52L110.175 208.4C108.463 209.088 105.935 209.68 103.775 210.08C103.711 209.808 103.535 209.408 103.391 209.168C105.471 208.768 107.903 208.128 109.247 207.52ZM102.911 214.256H110.463V221.2H109.263V215.28H104.047V221.28H102.911V214.256ZM103.503 216.88H109.695V217.856H103.503V216.88ZM103.471 219.536H109.727V220.528H103.471V219.536ZM96.3669 215.056C97.7749 214.688 99.9189 214.08 101.951 213.472L102.111 214.576C100.223 215.168 98.2229 215.776 96.7029 216.208L96.3669 215.056ZM96.5589 209.792H101.871V210.928H96.5589V209.792ZM98.7989 206.576H99.9829V219.872C99.9829 220.544 99.8389 220.88 99.4069 221.056C98.9909 221.248 98.3349 221.28 97.2629 221.264C97.2309 220.976 97.0549 220.48 96.9109 220.176C97.6309 220.192 98.3029 220.192 98.4949 220.176C98.7189 220.176 98.7989 220.112 98.7989 219.872V206.576ZM112.431 217.072H126.959V218.048H112.431V217.072ZM116.431 208.032H126.879V208.912H116.431V208.032ZM122.287 215.968H123.455V220C123.455 220.64 123.311 220.944 122.815 221.12C122.303 221.28 121.487 221.296 120.159 221.28C120.111 220.976 119.919 220.56 119.775 220.256C120.783 220.288 121.695 220.272 121.951 220.256C122.223 220.256 122.287 220.192 122.287 219.984V215.968ZM115.183 218.736L115.983 218.048C116.847 218.544 117.887 219.328 118.399 219.888L117.519 220.656C117.055 220.08 116.031 219.264 115.183 218.736ZM112.975 207.536L113.775 206.88C114.591 207.44 115.551 208.256 115.967 208.88L115.135 209.616C114.719 209.008 113.775 208.128 112.975 207.536ZM118.399 206.816L119.391 206.576C119.775 207.024 120.175 207.664 120.335 208.112L119.295 208.4C119.135 207.952 118.767 207.296 118.399 206.816ZM118.847 211.696V212.416H124.383V211.696H118.847ZM118.847 213.056V213.776H124.383V213.056H118.847ZM118.847 210.368V211.056H124.383V210.368H118.847ZM117.727 209.712H125.551V214.448H117.727V209.712ZM115.727 210.736V214.192H114.623V211.712H112.495V210.736H115.727ZM120.959 208.336L122.143 208.464C121.935 209.072 121.727 209.648 121.551 210.064L120.607 209.904C120.735 209.44 120.895 208.768 120.959 208.336ZM123.887 206.544L125.023 206.8C124.639 207.376 124.223 207.92 123.871 208.336L122.943 208.096C123.247 207.632 123.679 206.976 123.887 206.544ZM115.727 213.776C116.351 214.704 117.535 215.12 119.007 215.168C120.863 215.232 125.023 215.184 127.071 215.072C126.959 215.296 126.799 215.744 126.751 216.048C124.815 216.128 120.911 216.144 119.039 216.08C117.343 216.032 116.143 215.616 115.311 214.624C114.527 215.168 113.727 215.696 112.879 216.256L112.399 215.248C113.151 214.864 114.079 214.32 114.895 213.776H115.727ZM130.191 207.328H142.623V208.432H130.191V207.328ZM130.399 219.808H142.687V220.896H130.399V219.808ZM136.719 216.864H141.167V217.92H136.719V216.864ZM131.167 210.4H136.159V211.344H131.167V210.4ZM129.471 207.328H130.607V212.08C130.607 214.736 130.415 218.608 129.055 221.248C128.847 221.072 128.351 220.784 128.047 220.672C129.343 218.144 129.471 214.608 129.471 212.064V207.328ZM133.279 208.832H134.303V215.488H133.279V208.832ZM136.047 215.216H137.215V220.48H136.047V215.216ZM132.479 216.4H133.615V220.384H132.479V216.4ZM133.231 210.864L133.935 211.12C133.391 212.64 132.335 214.288 131.327 215.12C131.151 214.896 130.847 214.56 130.623 214.384C131.615 213.68 132.687 212.208 133.231 210.864ZM136.607 210.4H142.367V211.344H136.607V210.4ZM138.751 208.832H139.775V215.488H138.751V208.832ZM138.559 210.88L139.279 211.12C138.671 212.608 137.567 214.176 136.511 214.976C136.335 214.752 136.031 214.416 135.823 214.224C136.863 213.568 137.983 212.16 138.559 210.88ZM134.223 211.696C134.591 211.92 135.839 212.864 136.143 213.12L135.503 213.92C135.135 213.488 134.063 212.512 133.631 212.144L134.223 211.696ZM139.999 210.912C140.543 212.24 141.647 213.568 142.831 214.176C142.591 214.368 142.287 214.736 142.111 214.992C140.911 214.224 139.807 212.688 139.247 211.152L139.999 210.912Z" fill="white"/>
<rect x="48" y="251" width="111.742" height="36" rx="3" fill="#2171C1"/>
<path d="M65.1509 262.664H79.3429V263.72H65.1509V262.664ZM68.8469 261.576H70.0309V264.952H68.8469V261.576ZM74.3509 261.576H75.5349V264.952H74.3509V261.576ZM70.3989 268.312V269.608H74.0789V268.312H70.3989ZM70.3989 266.216V267.496H74.0789V266.216H70.3989ZM69.3109 265.352H75.1989V270.472H69.3109V265.352ZM71.6949 264.104L72.8789 264.312C72.5909 264.92 72.3189 265.512 72.1109 265.944L71.1189 265.72C71.3269 265.256 71.5669 264.568 71.6949 264.104ZM77.9349 264.744L78.9589 265.288C78.2229 266.088 77.2309 266.92 76.4629 267.48L75.5669 266.984C76.3349 266.408 77.3589 265.432 77.9349 264.744ZM65.1509 271.416H79.3109V272.456H65.1509V271.416ZM71.5829 270.216H72.7829V276.28H71.5829V270.216ZM71.1189 271.784L72.0309 272.2C70.5589 273.912 67.9029 275.4 65.5349 276.12C65.3909 275.816 65.0549 275.4 64.7989 275.176C67.1349 274.584 69.7749 273.256 71.1189 271.784ZM73.2469 271.848C74.5429 273.32 77.1669 274.568 79.6149 275.08C79.3589 275.304 79.0389 275.736 78.8949 276.024C76.4149 275.384 73.8069 273.96 72.3669 272.232L73.2469 271.848ZM65.5829 265.48L66.4469 264.872C67.2949 265.448 68.2549 266.344 68.6869 267L67.7589 267.688C67.3589 267.016 66.4149 266.104 65.5829 265.48ZM75.2629 268.712L75.9509 267.96C77.1029 268.488 78.5909 269.336 79.3269 269.944L78.6229 270.792C77.9029 270.168 76.4309 269.272 75.2629 268.712ZM65.0389 269.768C65.9989 269.416 67.3749 268.792 68.7509 268.2L69.0069 269.144C67.8229 269.72 66.5749 270.312 65.5509 270.792L65.0389 269.768ZM82.7189 262.328H95.1509V263.432H82.7189V262.328ZM82.9269 274.808H95.2149V275.896H82.9269V274.808ZM89.2469 271.864H93.6949V272.92H89.2469V271.864ZM83.6949 265.4H88.6869V266.344H83.6949V265.4ZM81.9989 262.328H83.1349V267.08C83.1349 269.736 82.9429 273.608 81.5829 276.248C81.3749 276.072 80.8789 275.784 80.5749 275.672C81.8709 273.144 81.9989 269.608 81.9989 267.064V262.328ZM85.8069 263.832H86.8309V270.488H85.8069V263.832ZM88.5749 270.216H89.7429V275.48H88.5749V270.216ZM85.0069 271.4H86.1429V275.384H85.0069V271.4ZM85.7589 265.864L86.4629 266.12C85.9189 267.64 84.8629 269.288 83.8549 270.12C83.6789 269.896 83.3749 269.56 83.1509 269.384C84.1429 268.68 85.2149 267.208 85.7589 265.864ZM89.1349 265.4H94.8949V266.344H89.1349V265.4ZM91.2789 263.832H92.3029V270.488H91.2789V263.832ZM91.0869 265.88L91.8069 266.12C91.1989 267.608 90.0949 269.176 89.0389 269.976C88.8629 269.752 88.5589 269.416 88.3509 269.224C89.3909 268.568 90.5109 267.16 91.0869 265.88ZM86.7509 266.696C87.1189 266.92 88.3669 267.864 88.6709 268.12L88.0309 268.92C87.6629 268.488 86.5909 267.512 86.1589 267.144L86.7509 266.696ZM92.5269 265.912C93.0709 267.24 94.1749 268.568 95.3589 269.176C95.1189 269.368 94.8149 269.736 94.6389 269.992C93.4389 269.224 92.3349 267.688 91.7749 266.152L92.5269 265.912ZM104.287 267.688H109.807V268.824H104.287V267.688ZM103.759 267.688H104.959V274.216C104.959 274.84 105.135 274.968 106.015 274.968C106.431 274.968 108.511 274.968 109.055 274.968C109.919 274.968 110.047 274.552 110.143 272.328C110.431 272.536 110.943 272.744 111.279 272.824C111.103 275.4 110.735 276.12 109.135 276.12C108.735 276.12 106.287 276.12 105.919 276.12C104.255 276.12 103.759 275.736 103.759 274.2V267.688ZM103.583 262.472H110.431V269.72H109.215V263.608H103.583V262.472ZM97.2309 266.408H102.223V267.368H97.2309V266.408ZM97.3269 262.136H102.287V263.096H97.3269V262.136ZM97.2309 268.552H102.223V269.512H97.2309V268.552ZM96.4789 264.232H102.847V265.224H96.4789V264.232ZM97.7909 270.712H102.175V275.384H97.7909V274.376H101.103V271.704H97.7909V270.712ZM97.2149 270.712H98.2869V276.12H97.2149V270.712ZM115.327 262.536H119.855V263.752H115.327V262.536ZM119.247 262.536H120.479C120.479 265.4 120.831 271.48 127.151 275.224C126.879 275.432 126.399 275.944 126.175 276.232C119.775 272.36 119.247 265.544 119.247 262.536ZM118.799 265.672L120.159 265.928C119.007 270.808 116.895 274.184 113.359 276.264C113.135 276.008 112.591 275.512 112.271 275.288C115.823 273.432 117.823 270.2 118.799 265.672ZM130.191 262.328H142.623V263.432H130.191V262.328ZM130.399 274.808H142.687V275.896H130.399V274.808ZM136.719 271.864H141.167V272.92H136.719V271.864ZM131.167 265.4H136.159V266.344H131.167V265.4ZM129.471 262.328H130.607V267.08C130.607 269.736 130.415 273.608 129.055 276.248C128.847 276.072 128.351 275.784 128.047 275.672C129.343 273.144 129.471 269.608 129.471 267.064V262.328ZM133.279 263.832H134.303V270.488H133.279V263.832ZM136.047 270.216H137.215V275.48H136.047V270.216ZM132.479 271.4H133.615V275.384H132.479V271.4ZM133.231 265.864L133.935 266.12C133.391 267.64 132.335 269.288 131.327 270.12C131.151 269.896 130.847 269.56 130.623 269.384C131.615 268.68 132.687 267.208 133.231 265.864ZM136.607 265.4H142.367V266.344H136.607V265.4ZM138.751 263.832H139.775V270.488H138.751V263.832ZM138.559 265.88L139.279 266.12C138.671 267.608 137.567 269.176 136.511 269.976C136.335 269.752 136.031 269.416 135.823 269.224C136.863 268.568 137.983 267.16 138.559 265.88ZM134.223 266.696C134.591 266.92 135.839 267.864 136.143 268.12L135.503 268.92C135.135 268.488 134.063 267.512 133.631 267.144L134.223 266.696ZM139.999 265.912C140.543 267.24 141.647 268.568 142.831 269.176C142.591 269.368 142.287 269.736 142.111 269.992C140.911 269.224 139.807 267.688 139.247 266.152L139.999 265.912Z" fill="white"/>
<rect x="48" y="141" width="111.742" height="36" rx="3" fill="#2171C1"/>
<path d="M80.9749 152.664H95.1669V153.72H80.9749V152.664ZM84.6709 151.576H85.8549V154.952H84.6709V151.576ZM90.1749 151.576H91.3589V154.952H90.1749V151.576ZM86.2229 158.312V159.608H89.9029V158.312H86.2229ZM86.2229 156.216V157.496H89.9029V156.216H86.2229ZM85.1349 155.352H91.0229V160.472H85.1349V155.352ZM87.5189 154.104L88.7029 154.312C88.4149 154.92 88.1429 155.512 87.9349 155.944L86.9429 155.72C87.1509 155.256 87.3909 154.568 87.5189 154.104ZM93.7589 154.744L94.7829 155.288C94.0469 156.088 93.0549 156.92 92.2869 157.48L91.3909 156.984C92.1589 156.408 93.1829 155.432 93.7589 154.744ZM80.9749 161.416H95.1349V162.456H80.9749V161.416ZM87.4069 160.216H88.6069V166.28H87.4069V160.216ZM86.9429 161.784L87.8549 162.2C86.3829 163.912 83.7269 165.4 81.3589 166.12C81.2149 165.816 80.8789 165.4 80.6229 165.176C82.9589 164.584 85.5989 163.256 86.9429 161.784ZM89.0709 161.848C90.3669 163.32 92.9909 164.568 95.4389 165.08C95.1829 165.304 94.8629 165.736 94.7189 166.024C92.2389 165.384 89.6309 163.96 88.1909 162.232L89.0709 161.848ZM81.4069 155.48L82.2709 154.872C83.1189 155.448 84.0789 156.344 84.5109 157L83.5829 157.688C83.1829 157.016 82.2389 156.104 81.4069 155.48ZM91.0869 158.712L91.7749 157.96C92.9269 158.488 94.4149 159.336 95.1509 159.944L94.4469 160.792C93.7269 160.168 92.2549 159.272 91.0869 158.712ZM80.8629 159.768C81.8229 159.416 83.1989 158.792 84.5749 158.2L84.8309 159.144C83.6469 159.72 82.3989 160.312 81.3749 160.792L80.8629 159.768ZM106.095 153.112H107.231V161.992H106.095V153.112ZM109.391 151.864H110.575V164.728C110.575 165.512 110.367 165.864 109.887 166.056C109.391 166.264 108.575 166.296 107.215 166.28C107.167 165.96 106.975 165.432 106.815 165.08C107.807 165.128 108.735 165.112 109.007 165.096C109.295 165.096 109.391 165 109.391 164.728V151.864ZM96.6389 153.064H105.487V154.12H96.6389V153.064ZM98.4949 159.512H103.695V160.488H98.4949V159.512ZM98.4949 161.864H103.695V162.872H98.4949V161.864ZM100.399 151.672H101.567V153.672H100.399V151.672ZM103.231 158.44H104.383V166.248H103.231V158.44ZM103.247 153.656L104.367 153.976C102.959 156.488 100.015 157.88 96.8469 158.696C96.7349 158.44 96.4149 157.944 96.1909 157.688C99.2789 157.048 102.063 155.816 103.247 153.656ZM98.8309 153.624C100.623 156.056 102.991 156.872 105.663 157.48C105.391 157.736 105.103 158.168 104.991 158.52C102.255 157.8 99.7749 156.808 97.8389 153.992L98.8309 153.624ZM98.0149 158.44H99.1669V161.016C99.1669 162.696 98.9269 164.872 97.3429 166.392C97.1189 166.184 96.6869 165.896 96.3989 165.752C97.8389 164.36 98.0149 162.456 98.0149 160.984V158.44ZM113.455 153.976H117.791V158.424H113.455V157.368H116.703V155.016H113.455V153.976ZM113.471 159.896H117.935V164.712H113.471V163.688H116.863V160.936H113.471V159.896ZM112.975 153.976H114.063V165.8H112.975V153.976ZM118.415 152.408H126.975V153.512H118.415V152.408ZM115.007 151.56L116.319 151.752C115.967 152.696 115.535 153.8 115.151 154.504L114.207 154.296C114.495 153.528 114.847 152.36 115.007 151.56ZM122.111 152.872H123.247V166.264H122.111V152.872ZM119.023 155.48H125.951V156.568H120.127V163.88H119.023V155.48ZM125.375 155.48H126.511V162.616C126.511 163.16 126.415 163.48 126.031 163.672C125.663 163.864 125.103 163.864 124.239 163.864C124.207 163.56 124.047 163.112 123.887 162.808C124.495 162.824 125.007 162.824 125.151 162.824C125.327 162.824 125.375 162.76 125.375 162.6V155.48Z" fill="white"/>
<rect x="255.258" y="86" width="82.9092" height="36" rx="3" fill="#2171C1"/>
<path d="M281.777 97.456H288.673V98.56H281.777V97.456ZM289.809 102.016H296.241V103.168H289.809V102.016ZM293.281 102.768H294.465V111.296H293.281V102.768ZM289.345 98.144L290.849 98.544C290.833 98.656 290.753 98.72 290.529 98.752V102.416C290.529 105.008 290.193 108.672 287.793 111.248C287.617 110.992 287.185 110.592 286.897 110.448C289.121 108.08 289.345 104.864 289.345 102.416V98.144ZM282.369 100.224H283.505V104.544C283.505 106.592 283.313 109.424 282.081 111.312C281.889 111.088 281.393 110.72 281.137 110.576C282.257 108.848 282.369 106.384 282.369 104.544V100.224ZM294.865 96.752L295.921 97.664C294.337 98.432 292.017 99.088 290.017 99.552C289.953 99.28 289.761 98.848 289.601 98.576C291.505 98.128 293.665 97.44 294.865 96.752ZM283.025 100.224H288.273V105.216H283.025V104.128H287.105V101.328H283.025V100.224ZM298.849 97.264H300.033V101.952C300.033 104.656 299.809 108.576 298.177 111.184C297.969 111.008 297.441 110.688 297.137 110.592C298.721 108.064 298.849 104.512 298.849 101.952V97.264ZM299.569 97.264H310.785V100.608H299.569V99.648H309.601V98.224H299.569V97.264ZM305.201 101.664H306.305V109.312H305.201V101.664ZM302.369 103.92V105.056H309.217V103.92H302.369ZM301.281 103.152H310.337V105.824H301.281V103.152ZM300.641 106.752H310.577V107.616H301.745V111.296H300.641V106.752ZM309.937 106.752H311.041V110.208C311.041 110.72 310.945 110.976 310.561 111.12C310.161 111.264 309.521 111.264 308.513 111.264C308.449 111.008 308.305 110.672 308.193 110.416C308.897 110.448 309.489 110.448 309.697 110.432C309.889 110.416 309.937 110.368 309.937 110.208V106.752ZM302.385 108.96C303.921 108.928 306.209 108.848 308.497 108.752L308.481 109.584C306.289 109.696 304.065 109.808 302.465 109.888L302.385 108.96ZM309.377 100.992L310.113 101.728C307.841 102.176 304.193 102.384 301.201 102.416C301.185 102.176 301.057 101.824 300.961 101.616C303.873 101.568 307.457 101.36 309.377 100.992ZM307.297 108.08L308.017 107.856C308.545 108.56 309.169 109.504 309.457 110.064L308.705 110.352C308.417 109.76 307.825 108.8 307.297 108.08Z" fill="white"/>
<path d="M263.866 62.3499H268.65V64.0779H263.866V62.3499ZM263.866 66.3659H268.65V68.0939H263.866V66.3659ZM262.874 58.3979H269.738V71.5339H267.802V60.1259H264.73V71.5339H262.874V58.3979ZM261.402 70.4779H270.81V72.2059H261.402V70.4779ZM258.138 57.6139L259.834 58.2059C259.178 59.4539 258.426 60.8779 257.802 61.7579L256.506 61.2299C257.082 60.2699 257.77 58.7339 258.138 57.6139ZM260.058 59.5019L261.674 60.1739C260.49 62.0139 258.922 64.2379 257.69 65.5979L256.522 65.0059C257.754 63.5659 259.21 61.2139 260.058 59.5019ZM255.674 61.4059L256.57 60.0779C257.434 60.8139 258.426 61.8379 258.842 62.5419L257.866 64.0459C257.466 63.2779 256.49 62.1739 255.674 61.4059ZM259.658 63.3579L261.018 62.7659C261.658 63.8379 262.298 65.2299 262.506 66.1579L261.05 66.8299C260.858 65.9179 260.266 64.4619 259.658 63.3579ZM255.658 64.6539C257.146 64.6059 259.354 64.5099 261.498 64.3979V65.9179C259.482 66.0779 257.402 66.2219 255.818 66.3179L255.658 64.6539ZM259.946 67.3739L261.354 66.9099C261.77 67.8699 262.202 69.1179 262.394 69.9339L260.89 70.4779C260.746 69.6459 260.33 68.3499 259.946 67.3739ZM256.346 67.0059L257.93 67.2779C257.77 68.8139 257.418 70.4139 256.954 71.4379C256.618 71.2299 255.898 70.8939 255.498 70.7339C255.962 69.7899 256.218 68.3659 256.346 67.0059ZM258.202 65.5019H259.914V72.6379H258.202V65.5019ZM278.474 57.5819H280.218V59.9339H278.474V57.5819ZM277.226 60.7499L278.506 60.4619C278.762 61.1339 278.954 62.0299 278.986 62.5899L277.626 62.9259C277.626 62.3339 277.466 61.4379 277.226 60.7499ZM276.65 59.1339H282.042V60.5739H276.65V59.1339ZM276.378 62.7339H286.458V64.2379H276.378V62.7339ZM277.962 67.2459H280.954V68.5259H277.962V67.2459ZM277.834 64.9579H281.834V70.8299H277.834V69.5179H280.282V66.2859H277.834V64.9579ZM277.274 64.9579H278.73V71.6619H277.274V64.9579ZM280.17 60.3659L281.722 60.7019C281.418 61.4859 281.146 62.3339 280.89 62.8939L279.61 62.5739C279.802 61.9499 280.058 61.0059 280.17 60.3659ZM282.234 57.6939H283.866C283.818 64.7979 284.25 70.5419 285.194 70.6059C285.402 70.6219 285.562 69.8859 285.642 68.6379C285.898 69.0059 286.57 69.5019 286.826 69.6779C286.442 72.1739 285.706 72.7499 285.13 72.7339C282.682 72.6379 282.314 66.7179 282.234 57.6939ZM283.754 59.1819L285.146 58.6219C285.722 59.5499 286.33 60.7819 286.586 61.5979L285.114 62.2379C284.874 61.4219 284.298 60.1259 283.754 59.1819ZM284.954 64.8299L286.458 65.2459C285.482 68.4139 283.706 70.9899 281.098 72.6539C280.858 72.3019 280.298 71.6939 279.946 71.4219C282.394 69.9819 284.154 67.5819 284.954 64.8299ZM273.514 57.6139L275.13 58.1259C274.57 59.3579 273.946 60.7819 273.434 61.6779L272.186 61.1979C272.682 60.2379 273.226 58.7179 273.514 57.6139ZM275.178 59.5499L276.666 60.1899C275.642 61.9979 274.282 64.2219 273.178 65.5979L272.122 65.0379C273.162 63.5979 274.458 61.2619 275.178 59.5499ZM271.514 61.2779L272.298 59.9179C273.098 60.6859 274.042 61.7259 274.394 62.4459L273.53 63.9979C273.178 63.2139 272.282 62.0779 271.514 61.2779ZM274.634 63.2939L275.898 62.8139C276.474 63.9019 277.018 65.2939 277.162 66.2219L275.802 66.7819C275.674 65.8699 275.178 64.4139 274.634 63.2939ZM271.418 64.6219C272.682 64.5739 274.506 64.4779 276.362 64.3659L276.346 65.8539C274.666 66.0299 272.954 66.1739 271.578 66.2859L271.418 64.6219ZM275.05 67.2939L276.314 66.8939C276.65 67.8219 276.97 69.0219 277.114 69.8059L275.77 70.2699C275.674 69.4539 275.354 68.2219 275.05 67.2939ZM272.01 67.0059L273.45 67.2459C273.338 68.7499 273.066 70.3339 272.666 71.3579C272.378 71.1659 271.722 70.8779 271.37 70.7339C271.77 69.7899 271.93 68.3499 272.01 67.0059ZM273.546 65.4699H275.114V72.6219H273.546V65.4699ZM291.626 70.7979H299.434V72.2059H291.626V70.7979ZM293.914 60.9579H295.77V62.8779H293.914V60.9579ZM288.01 62.0619H301.93V65.2459H300.058V63.5019H289.818V65.2459H288.01V62.0619ZM291.562 64.1739H299.402V67.7579H291.562V66.3819H297.482V65.5499H291.562V64.1739ZM291.642 68.4779H300.618V72.6379H298.698V69.8859H291.642V68.4779ZM290.506 64.1739H292.33V72.6539H290.506V64.1739ZM289.626 58.7179H294.666V60.2219H289.626V58.7179ZM296.106 58.7179H302.314V60.2219H296.106V58.7179ZM289.69 57.4699L291.482 57.9499C290.858 59.3899 289.834 60.8459 288.89 61.7579C288.522 61.4699 287.754 60.9579 287.322 60.7339C288.282 59.9339 289.194 58.6859 289.69 57.4699ZM296.202 57.4699L298.026 57.9179C297.45 59.2939 296.458 60.6219 295.498 61.4539C295.114 61.1659 294.298 60.7499 293.818 60.5419C294.842 59.8059 295.738 58.6379 296.202 57.4699ZM290.218 59.8859L291.85 59.4539C292.25 59.9979 292.698 60.7659 292.89 61.2779L291.162 61.7739C291.018 61.2779 290.602 60.4619 290.218 59.8859ZM297.37 59.9339L299.05 59.4859C299.514 60.0139 300.074 60.7819 300.33 61.2939L298.554 61.7899C298.346 61.3099 297.818 60.4939 297.37 59.9339ZM310.938 62.7499V64.1259H315.786V62.7499H310.938ZM310.938 59.9019V61.2459H315.786V59.9019H310.938ZM309.21 58.2699H317.61V65.7419H309.21V58.2699ZM309.098 67.1179H317.786V68.8459H309.098V67.1179ZM307.978 70.3819H318.314V72.1099H307.978V70.3819ZM303.29 58.5099H308.602V60.3019H303.29V58.5099ZM303.45 63.1179H308.33V64.8939H303.45V63.1179ZM303.114 69.1979C304.49 68.8459 306.538 68.2059 308.458 67.5819L308.794 69.4219C307.002 70.0299 305.082 70.6539 303.546 71.1499L303.114 69.1979ZM305.066 59.2139H306.89V69.0539L305.066 69.3419V59.2139ZM312.586 58.9579H314.202V64.9899H314.378V71.1979H312.41V64.9899H312.586V58.9579ZM321.05 59.8219C321.658 59.8859 322.474 59.9339 323.034 59.9339H331.098C331.562 59.9339 332.218 59.9019 332.49 59.8859C332.474 60.2699 332.442 60.8939 332.442 61.3739V69.6619C332.442 70.2219 332.49 71.0539 332.522 71.5499H330.202C330.218 71.0699 330.234 70.4939 330.234 69.9019V61.9979H323.034C322.362 61.9979 321.498 62.0299 321.05 62.0619V59.8219ZM320.858 68.5099C321.402 68.5579 322.122 68.6059 322.842 68.6059H331.498V70.7179H322.906C322.282 70.7179 321.386 70.7499 320.858 70.8139V68.5099ZM349.642 60.3659C349.482 60.5739 349.178 60.9579 349.034 61.1819C348.282 62.4299 346.762 64.4619 345.178 65.5819L343.514 64.2539C344.81 63.4699 346.058 62.0619 346.474 61.2779C345.498 61.2779 339.13 61.2779 338.122 61.2779C337.466 61.2779 336.922 61.3099 336.17 61.3899V59.1499C336.794 59.2459 337.466 59.3259 338.122 59.3259C339.13 59.3259 345.914 59.3259 346.746 59.3259C347.194 59.3259 348.074 59.2619 348.378 59.1819L349.642 60.3659ZM343.13 62.5099C343.13 66.4779 343.034 69.7419 338.682 72.0939L336.81 70.5739C337.338 70.3979 337.914 70.1259 338.506 69.6779C340.522 68.2699 340.906 66.5899 340.906 63.9659C340.906 63.4539 340.89 63.0379 340.81 62.5099H343.13ZM361.098 59.2779C361.546 59.9499 362.202 60.9739 362.554 61.7099L361.178 62.3179C360.698 61.3099 360.346 60.6699 359.754 59.8539L361.098 59.2779ZM363.194 58.4139C363.674 59.0539 364.346 60.0459 364.698 60.7659L363.354 61.4379C362.842 60.4139 362.458 59.8219 361.866 59.0379L363.194 58.4139ZM354.73 69.8859C354.73 68.6699 354.73 62.0459 354.73 60.6859C354.73 60.1099 354.666 59.3259 354.554 58.7659H357.066C357.002 59.3259 356.922 60.0299 356.922 60.6859C356.922 62.4619 356.922 68.7019 356.922 69.8859C356.922 70.3499 357.002 71.4699 357.066 72.1099H354.57C354.666 71.4859 354.73 70.5259 354.73 69.8859ZM356.442 62.8939C358.586 63.4859 362.026 64.7499 363.61 65.5339L362.698 67.7419C360.89 66.7979 358.186 65.7739 356.442 65.1979V62.8939ZM379.514 59.4219C379.29 59.7899 378.986 60.4939 378.842 60.8779C378.234 62.4619 377.258 64.5739 375.93 66.3019C374.442 68.2219 372.474 70.2859 369.37 71.9979L367.594 70.3659C370.506 68.9739 372.506 67.1979 374.202 64.9899C375.466 63.3259 376.186 61.6779 376.746 60.0779C376.89 59.6619 377.05 59.0059 377.13 58.6059L379.514 59.4219ZM370.714 60.9739C372.298 61.9659 374.49 63.4859 375.834 64.5419C377.546 65.8699 379.226 67.3739 380.522 68.7499L378.874 70.5899C377.482 68.9579 376.074 67.6459 374.378 66.2379C373.226 65.2779 371.354 63.8379 369.338 62.6059L370.714 60.9739ZM382.842 64.9739C385.706 64.2379 388.042 63.1979 389.834 62.0939C391.466 61.0859 393.29 59.4859 394.33 58.2219L396.058 59.8539C394.602 61.3259 392.65 62.8299 390.762 63.9659C388.954 65.0379 386.362 66.2379 383.834 66.9899L382.842 64.9739ZM389.498 63.1339L391.77 62.5899V69.8059C391.77 70.5099 391.802 71.5019 391.914 71.9019H389.37C389.434 71.5179 389.498 70.5099 389.498 69.8059V63.1339ZM401.53 59.0219C402.634 59.7739 404.714 61.4379 405.658 62.4139L404.026 64.0779C403.194 63.1819 401.178 61.4379 400.01 60.6379L401.53 59.0219ZM399.514 69.6779C402.026 69.3259 404.09 68.5099 405.642 67.5979C408.378 65.9659 410.458 63.5339 411.482 61.3739L412.714 63.6139C411.514 65.7899 409.386 67.9979 406.81 69.5499C405.178 70.5259 403.114 71.4059 400.874 71.7899L399.514 69.6779Z" fill="#2171C1"/>
<path d="M28.768 68.4379H43.232V69.9739H28.768V68.4379ZM31.84 62.4859H41.536V63.7339H31.84V62.4859ZM31.84 64.4059H41.552V65.6539H31.84V64.4059ZM31.456 60.3259H42.336V61.8299H31.456V60.3259ZM35.44 61.2699H37.28V66.8859H35.44V61.2699ZM34.992 67.4139H36.912V73.6059H34.992V67.4139ZM34.848 69.0779L36.288 69.7819C34.64 71.4139 31.888 72.8219 29.456 73.5259C29.184 73.0459 28.64 72.3419 28.224 71.9419C30.656 71.4299 33.424 70.3099 34.848 69.0779ZM37.12 69.0299C38.496 70.2459 41.2 71.3659 43.6 71.8939C43.2 72.2779 42.672 72.9819 42.4 73.4459C39.984 72.7579 37.296 71.3499 35.664 69.7499L37.12 69.0299ZM36.24 58.5979L38.4 58.8539C37.888 59.8139 37.312 60.7099 36.864 61.3339L35.168 60.9979C35.568 60.3099 36.016 59.3179 36.24 58.5979ZM32.144 58.5659L34.112 58.9499C33.04 60.8219 31.632 62.6619 29.664 64.2459C29.36 63.8139 28.736 63.2219 28.304 62.9499C30.096 61.6539 31.408 59.9739 32.144 58.5659ZM30.592 61.3019H32.416V66.3419H42.8V67.7979H30.592V61.3019ZM50.8 63.9739H59.472V65.8779H50.8V63.9739ZM54.176 58.6619H56.128V73.6219H54.176V58.6619ZM45.072 63.5099H50.24V64.9499H45.072V63.5099ZM45.168 59.0939H50.272V60.5499H45.168V59.0939ZM45.072 65.6859H50.24V67.1419H45.072V65.6859ZM44.288 61.2539H50.88V62.7739H44.288V61.2539ZM45.952 67.9099H50.192V72.7739H45.952V71.2539H48.512V69.4299H45.952V67.9099ZM45.024 67.9099H46.688V73.4139H45.024V67.9099ZM62.144 60.8219C62.752 60.8859 63.568 60.9339 64.128 60.9339H72.192C72.656 60.9339 73.312 60.9019 73.584 60.8859C73.568 61.2699 73.536 61.8939 73.536 62.3739V70.6619C73.536 71.2219 73.584 72.0539 73.616 72.5499H71.296C71.312 72.0699 71.328 71.4939 71.328 70.9019V62.9979H64.128C63.456 62.9979 62.592 63.0299 62.144 63.0619V60.8219ZM61.952 69.5099C62.496 69.5579 63.216 69.6059 63.936 69.6059H72.592V71.7179H64C63.376 71.7179 62.48 71.7499 61.952 71.8139V69.5099ZM90.736 61.3659C90.576 61.5739 90.272 61.9579 90.128 62.1819C89.376 63.4299 87.856 65.4619 86.272 66.5819L84.608 65.2539C85.904 64.4699 87.152 63.0619 87.568 62.2779C86.592 62.2779 80.224 62.2779 79.216 62.2779C78.56 62.2779 78.016 62.3099 77.264 62.3899V60.1499C77.888 60.2459 78.56 60.3259 79.216 60.3259C80.224 60.3259 87.008 60.3259 87.84 60.3259C88.288 60.3259 89.168 60.2619 89.472 60.1819L90.736 61.3659ZM84.224 63.5099C84.224 67.4779 84.128 70.7419 79.776 73.0939L77.904 71.5739C78.432 71.3979 79.008 71.1259 79.6 70.6779C81.616 69.2699 82 67.5899 82 64.9659C82 64.4539 81.984 64.0379 81.904 63.5099H84.224ZM102.192 60.2779C102.64 60.9499 103.296 61.9739 103.648 62.7099L102.272 63.3179C101.792 62.3099 101.44 61.6699 100.848 60.8539L102.192 60.2779ZM104.288 59.4139C104.768 60.0539 105.44 61.0459 105.792 61.7659L104.448 62.4379C103.936 61.4139 103.552 60.8219 102.96 60.0379L104.288 59.4139ZM95.824 70.8859C95.824 69.6699 95.824 63.0459 95.824 61.6859C95.824 61.1099 95.76 60.3259 95.648 59.7659H98.16C98.096 60.3259 98.016 61.0299 98.016 61.6859C98.016 63.4619 98.016 69.7019 98.016 70.8859C98.016 71.3499 98.096 72.4699 98.16 73.1099H95.664C95.76 72.4859 95.824 71.5259 95.824 70.8859ZM97.536 63.8939C99.68 64.4859 103.12 65.7499 104.704 66.5339L103.792 68.7419C101.984 67.7979 99.28 66.7739 97.536 66.1979V63.8939ZM120.608 60.4219C120.384 60.7899 120.08 61.4939 119.936 61.8779C119.328 63.4619 118.352 65.5739 117.024 67.3019C115.536 69.2219 113.568 71.2859 110.464 72.9979L108.688 71.3659C111.6 69.9739 113.6 68.1979 115.296 65.9899C116.56 64.3259 117.28 62.6779 117.84 61.0779C117.984 60.6619 118.144 60.0059 118.224 59.6059L120.608 60.4219ZM111.808 61.9739C113.392 62.9659 115.584 64.4859 116.928 65.5419C118.64 66.8699 120.32 68.3739 121.616 69.7499L119.968 71.5899C118.576 69.9579 117.168 68.6459 115.472 67.2379C114.32 66.2779 112.448 64.8379 110.432 63.6059L111.808 61.9739ZM123.936 65.9739C126.8 65.2379 129.136 64.1979 130.928 63.0939C132.56 62.0859 134.384 60.4859 135.424 59.2219L137.152 60.8539C135.696 62.3259 133.744 63.8299 131.856 64.9659C130.048 66.0379 127.456 67.2379 124.928 67.9899L123.936 65.9739ZM130.592 64.1339L132.864 63.5899V70.8059C132.864 71.5099 132.896 72.5019 133.008 72.9019H130.464C130.528 72.5179 130.592 71.5099 130.592 70.8059V64.1339ZM142.624 60.0219C143.728 60.7739 145.808 62.4379 146.752 63.4139L145.12 65.0779C144.288 64.1819 142.272 62.4379 141.104 61.6379L142.624 60.0219ZM140.608 70.6779C143.12 70.3259 145.184 69.5099 146.736 68.5979C149.472 66.9659 151.552 64.5339 152.576 62.3739L153.808 64.6139C152.608 66.7899 150.48 68.9979 147.904 70.5499C146.272 71.5259 144.208 72.4059 141.968 72.7899L140.608 70.6779Z" fill="#2171C1"/>
<rect x="365.167" y="86" width="82.9092" height="36" rx="3" fill="#2171C1"/>
<path d="M391.638 97.664H405.83V98.72H391.638V97.664ZM395.334 96.576H396.518V99.952H395.334V96.576ZM400.838 96.576H402.022V99.952H400.838V96.576ZM396.886 103.312V104.608H400.566V103.312H396.886ZM396.886 101.216V102.496H400.566V101.216H396.886ZM395.798 100.352H401.686V105.472H395.798V100.352ZM398.182 99.104L399.366 99.312C399.078 99.92 398.806 100.512 398.598 100.944L397.606 100.72C397.814 100.256 398.054 99.568 398.182 99.104ZM404.422 99.744L405.446 100.288C404.71 101.088 403.718 101.92 402.95 102.48L402.054 101.984C402.822 101.408 403.846 100.432 404.422 99.744ZM391.638 106.416H405.798V107.456H391.638V106.416ZM398.07 105.216H399.27V111.28H398.07V105.216ZM397.606 106.784L398.518 107.2C397.046 108.912 394.39 110.4 392.022 111.12C391.878 110.816 391.542 110.4 391.286 110.176C393.622 109.584 396.262 108.256 397.606 106.784ZM399.734 106.848C401.03 108.32 403.654 109.568 406.102 110.08C405.846 110.304 405.526 110.736 405.382 111.024C402.902 110.384 400.294 108.96 398.854 107.232L399.734 106.848ZM392.07 100.48L392.934 99.872C393.782 100.448 394.742 101.344 395.174 102L394.246 102.688C393.846 102.016 392.902 101.104 392.07 100.48ZM401.75 103.712L402.438 102.96C403.59 103.488 405.078 104.336 405.814 104.944L405.11 105.792C404.39 105.168 402.918 104.272 401.75 103.712ZM391.526 104.768C392.486 104.416 393.862 103.792 395.238 103.2L395.494 104.144C394.31 104.72 393.062 105.312 392.038 105.792L391.526 104.768ZM409.686 97.408H420.022V101.52H409.686V100.48H418.822V98.448H409.686V97.408ZM408.966 97.408H410.15V101.232C410.15 104 409.862 108.112 407.942 110.88C407.75 110.64 407.238 110.24 406.966 110.112C408.79 107.504 408.966 103.824 408.966 101.232V97.408ZM409.702 102.912H420.326V103.984H409.702V102.912ZM412.102 105.232H417.574V109.376H412.102V108.384H416.438V106.24H412.102V105.232ZM411.462 105.232H412.566V110.32H411.462V105.232ZM419.926 102.912H421.126C421.126 102.912 421.126 103.296 421.126 103.456C420.902 108.368 420.726 110.144 420.23 110.72C419.942 111.088 419.622 111.2 419.142 111.248C418.678 111.28 417.846 111.28 416.998 111.232C416.966 110.896 416.838 110.416 416.646 110.096C417.51 110.176 418.294 110.192 418.582 110.192C418.886 110.192 419.046 110.144 419.19 109.968C419.542 109.568 419.766 107.856 419.926 103.136V102.912Z" fill="white"/>
<rect x="255.258" y="144" width="82.9092" height="36" rx="3" fill="#2171C1"/>
<path d="M275.225 157.04C275.849 157.072 276.265 157.072 276.649 157.072C277.497 157.072 284.457 157.072 285.241 157.072C285.577 157.072 286.153 157.072 286.649 157.056C286.617 157.44 286.617 157.888 286.617 158.288C286.617 159.04 286.617 165.568 286.617 166.176C286.617 166.688 286.633 167.936 286.649 168.112H285.257C285.273 167.936 285.289 167.024 285.289 166.352C285.289 165.76 285.289 158.336 285.289 158.336H276.553C276.553 158.336 276.553 165.696 276.553 166.352C276.553 166.88 276.569 167.904 276.569 168.112H275.209C275.209 167.904 275.241 166.736 275.241 166.176C275.241 165.52 275.241 158.912 275.241 158.288C275.241 157.92 275.241 157.44 275.225 157.04ZM285.817 165.952V167.2H275.913V165.952H285.817ZM290.329 161.072C290.825 161.12 291.657 161.168 292.569 161.168C293.737 161.168 300.153 161.168 301.337 161.168C302.137 161.168 302.697 161.104 303.065 161.072V162.64C302.729 162.624 302.057 162.576 301.353 162.576C300.137 162.576 293.753 162.576 292.569 162.576C291.689 162.576 290.841 162.608 290.329 162.64V161.072ZM312.905 167.664C312.969 167.424 313.017 167.088 313.017 166.768C313.017 166.032 313.017 158.192 313.017 157.184C313.017 156.576 312.937 156.128 312.937 156H314.409C314.393 156.128 314.329 156.592 314.329 157.2C314.329 158.192 314.329 165.936 314.329 166.416C315.817 165.744 317.785 164.288 319.001 162.48L319.769 163.584C318.377 165.456 316.169 167.088 314.313 168.016C314.041 168.144 313.881 168.288 313.753 168.368L312.905 167.664ZM305.577 167.6C306.937 166.64 307.881 165.216 308.361 163.664C308.841 162.192 308.841 159.008 308.841 157.216C308.841 156.752 308.809 156.4 308.729 156.064H310.201C310.185 156.24 310.121 156.736 310.121 157.2C310.121 158.976 310.073 162.416 309.641 164.016C309.161 165.728 308.137 167.28 306.793 168.4L305.577 167.6Z" fill="white"/>
<path d="M44 270.5C44.8284 270.5 45.5 269.828 45.5 269C45.5 268.172 44.8284 267.5 44 267.5V270.5ZM55.6603 160C56.246 159.414 56.246 158.586 55.6603 158L49 151.34C48.4142 150.754 47.5858 150.754 47 151.34L39.3397 159L47 166.66C47.5858 167.246 48.4142 167.246 49 166.66L55.6603 160ZM33.5 257V175H30.5V257H33.5ZM33.5 175C33.5 166.992 39.9919 160.5 48 160.5V157.5C38.335 157.5 30.5 165.335 30.5 175H33.5ZM44 267.5C38.201 267.5 33.5 262.799 33.5 257H30.5C30.5 264.456 36.5442 270.5 44 270.5V267.5Z" fill="#B3B3B3"/>
<path d="M44 215.5C44.8284 215.5 45.5 214.828 45.5 214C45.5 213.172 44.8284 212.5 44 212.5V215.5ZM55.6603 160C56.246 159.414 56.246 158.586 55.6603 158L49 151.34C48.4142 150.754 47.5858 150.754 47 151.34L39.3397 159L47 166.66C47.5858 167.246 48.4142 167.246 49 166.66L55.6603 160ZM33.5 202V175H30.5V202H33.5ZM33.5 175C33.5 166.992 39.9919 160.5 48 160.5V157.5C38.335 157.5 30.5 165.335 30.5 175H33.5ZM44 212.5C38.201 212.5 33.5 207.799 33.5 202H30.5C30.5 209.456 36.5442 215.5 44 215.5V212.5Z" fill="#B3B3B3"/>
<path d="M342.167 102.5C341.339 102.5 340.667 103.172 340.667 104C340.667 104.828 341.339 105.5 342.167 105.5V102.5ZM372.828 105C373.414 104.414 373.414 103.586 372.828 103L366.167 96.3397C365.582 95.754 364.753 95.754 364.167 96.3397L356.507 104L364.167 111.66C364.753 112.246 365.582 112.246 366.167 111.66L372.828 105ZM342.167 105.5H365.167V102.5H342.167V105.5Z" fill="#B3B3B3"/>
<path d="M251.258 105.5C252.087 105.5 252.758 104.828 252.758 104C252.758 103.172 252.087 102.5 251.258 102.5V105.5ZM152.081 103C151.496 103.586 151.496 104.414 152.081 105L158.742 111.66C159.327 112.246 160.156 112.246 160.742 111.66L168.402 104L160.742 96.3397C160.156 95.754 159.327 95.754 158.742 96.3397L152.081 103ZM251.258 102.5H159.742V105.5H251.258V102.5Z" fill="#B3B3B3"/>
<path d="M251.258 105.5C252.087 105.5 252.758 104.828 252.758 104C252.758 103.172 252.087 102.5 251.258 102.5V105.5ZM152.081 158C151.496 158.586 151.496 159.414 152.081 160L158.742 166.66C159.327 167.246 160.156 167.246 160.742 166.66L168.402 159L160.742 151.34C160.156 150.754 159.327 150.754 158.742 151.34L152.081 158ZM251.258 102.5H231.5V105.5H251.258V102.5ZM206 128V135H209V128H206ZM183.5 157.5H159.742V160.5H183.5V157.5ZM206 135C206 147.426 195.926 157.5 183.5 157.5V160.5C197.583 160.5 209 149.083 209 135H206ZM231.5 102.5C217.417 102.5 206 113.917 206 128H209C209 115.574 219.074 105.5 231.5 105.5V102.5Z" fill="#B3B3B3"/>
<path d="M298.213 126C298.213 125.172 297.541 124.5 296.713 124.5C295.884 124.5 295.213 125.172 295.213 126H298.213ZM295.713 151.66C296.299 152.246 297.127 152.246 297.713 151.66L304.373 145C304.959 144.414 304.959 143.586 304.373 143L296.713 135.34L289.053 143C288.467 143.586 288.467 144.414 289.053 145L295.713 151.66ZM295.213 126V144H298.213V126H295.213Z" fill="#B3B3B3"/>
<rect x="365.258" y="251" width="82.9092" height="36" rx="3" fill="#2171C1"/>
<path d="M395.713 268.296H406.001V269.432H395.713V268.296ZM396.529 264.184H405.249V265.336H396.529V264.184ZM400.193 261.576H401.425V269.112H400.193V261.576ZM395.729 274.328C397.905 274.232 401.393 274.04 404.705 273.848V274.936C401.521 275.176 398.177 275.4 395.905 275.544L395.729 274.328ZM402.177 271.592L403.201 271.064C404.417 272.488 405.745 274.392 406.273 275.688L405.153 276.312C404.657 275.048 403.377 273.048 402.177 271.592ZM399.121 269.048L400.417 269.416C399.713 271.272 398.753 273.56 397.953 275.016L396.897 274.648C397.681 273.16 398.625 270.76 399.121 269.048ZM392.257 262.568L392.929 261.672C394.017 262.072 395.393 262.76 396.081 263.32L395.393 264.328C394.721 263.752 393.377 263 392.257 262.568ZM391.409 266.984L392.033 266.056C393.121 266.408 394.529 267.032 395.249 267.544L394.593 268.552C393.905 268.04 392.529 267.368 391.409 266.984ZM391.969 275.304C392.785 274.072 393.985 271.96 394.865 270.152L395.761 270.904C394.961 272.6 393.905 274.6 393.009 276.088L391.969 275.304ZM413.793 262.056H415.121C414.993 264.568 414.753 272.552 408.129 276.152C407.921 275.848 407.521 275.48 407.153 275.208C413.681 271.88 413.681 264.184 413.793 262.056ZM415.073 262.376C415.121 263.624 415.585 272.12 422.177 275.144C421.825 275.416 421.457 275.816 421.265 276.152C414.481 272.904 414.033 263.96 413.921 262.488L415.073 262.376Z" fill="white"/>
<rect x="365.258" y="144" width="82.9092" height="36" rx="3" fill="#2171C1"/>
<path d="M385.209 157.312C385.625 157.36 386.217 157.392 386.553 157.392H395.337C395.833 157.392 396.329 157.36 396.713 157.312V158.704C396.313 158.672 395.801 158.64 395.337 158.64H386.553C386.233 158.64 385.609 158.672 385.209 158.704V157.312ZM390.153 166.704V158.112H391.513V166.704H390.153ZM384.233 165.92C384.697 165.984 385.193 166.016 385.641 166.016H396.217C396.697 166.016 397.129 165.952 397.529 165.92V167.36C397.113 167.312 396.521 167.312 396.217 167.312H385.641C385.209 167.312 384.713 167.328 384.233 167.36V165.92ZM411.113 155.872C411.081 156.256 411.065 156.72 411.065 157.264C411.065 157.888 411.065 159.248 411.065 159.84C411.065 163.696 410.553 164.96 409.385 166.32C408.361 167.568 406.761 168.272 405.593 168.672L404.537 167.568C406.009 167.184 407.369 166.56 408.361 165.424C409.497 164.112 409.705 162.8 409.705 159.792C409.705 159.168 409.705 157.824 409.705 157.264C409.705 156.72 409.657 156.256 409.609 155.872H411.113ZM403.689 156C403.657 156.304 403.641 156.768 403.641 157.136C403.641 157.616 403.641 161.808 403.641 162.48C403.641 162.896 403.657 163.424 403.689 163.712H402.233C402.265 163.456 402.297 162.944 402.297 162.48C402.297 161.792 402.297 157.616 402.297 157.136C402.297 156.864 402.281 156.304 402.233 156H403.689ZM429.433 157.2C429.305 157.344 429.113 157.584 429.001 157.76C428.361 158.848 426.841 160.912 425.017 162.176L423.945 161.328C425.433 160.48 426.937 158.752 427.449 157.76C426.329 157.76 419.097 157.76 418.329 157.76C417.737 157.76 417.145 157.792 416.521 157.84V156.4C417.081 156.48 417.737 156.544 418.329 156.544C419.097 156.544 426.569 156.544 427.529 156.544C427.833 156.544 428.409 156.496 428.633 156.432L429.433 157.2ZM423.033 159.296C423.033 163.632 422.649 166.56 418.569 168.608L417.401 167.648C417.833 167.504 418.393 167.232 418.841 166.928C421.305 165.408 421.657 163.136 421.657 160.464C421.657 160.08 421.657 159.728 421.593 159.296H423.033Z" fill="white"/>
<path d="M408.213 126C408.213 125.172 407.541 124.5 406.713 124.5C405.884 124.5 405.213 125.172 405.213 126H408.213ZM405.713 151.66C406.299 152.246 407.127 152.246 407.713 151.66L414.373 145C414.959 144.414 414.959 143.586 414.373 143L406.713 135.34L399.053 143C398.467 143.586 398.467 144.414 399.053 145L405.713 151.66ZM405.213 126V144H408.213V126H405.213Z" fill="#B3B3B3"/>
<path d="M342.167 102.5C341.339 102.5 340.667 103.172 340.667 104C340.667 104.828 341.339 105.5 342.167 105.5V102.5ZM372.919 163C373.504 162.414 373.504 161.586 372.919 161L366.258 154.34C365.673 153.754 364.844 153.754 364.258 154.34L356.598 162L364.258 169.66C364.844 170.246 365.673 170.246 366.258 169.66L372.919 163ZM350.213 113.545V148.455H353.213V113.545H350.213ZM350.213 148.455C350.213 156.764 356.949 163.5 365.258 163.5V160.5C358.606 160.5 353.213 155.107 353.213 148.455H350.213ZM342.167 105.5C346.611 105.5 350.213 109.102 350.213 113.545H353.213C353.213 107.445 348.268 102.5 342.167 102.5V105.5Z" fill="#B3B3B3"/>
<path d="M342.167 102.5C341.339 102.5 340.667 103.172 340.667 104C340.667 104.828 341.339 105.5 342.167 105.5V102.5ZM372.919 270C373.504 269.414 373.504 268.586 372.919 268L366.258 261.34C365.673 260.754 364.844 260.754 364.258 261.34L356.598 269L364.258 276.66C364.844 277.246 365.673 277.246 366.258 276.66L372.919 270ZM350.213 113.545V255.455H353.213V113.545H350.213ZM350.213 255.455C350.213 263.764 356.949 270.5 365.258 270.5V267.5C358.606 267.5 353.213 262.107 353.213 255.455H350.213ZM342.167 105.5C346.611 105.5 350.213 109.102 350.213 113.545H353.213C353.213 107.445 348.268 102.5 342.167 102.5V105.5Z" fill="#B3B3B3"/>
<rect x="365.258" y="196" width="82.9092" height="36" rx="3" fill="#2171C1"/>
<path d="M395.441 213.792C397.185 217.344 400.929 219.488 406.177 220.192C405.905 220.464 405.585 220.992 405.409 221.328C400.065 220.512 396.337 218.208 394.337 214.192L395.441 213.792ZM392.753 212.672H403.185V213.84H392.753V212.672ZM392.017 209.008H405.521V210.208H392.017V209.008ZM398.145 206.576H399.377V213.216H398.145V206.576ZM402.801 212.672H403.073L403.313 212.624L404.129 213.12C402.145 218.048 397.393 220.32 392.081 221.28C391.969 220.976 391.649 220.416 391.425 220.144C396.625 219.328 401.137 217.296 402.801 212.912V212.672ZM413.105 219.648H422.145V220.832H413.105V219.648ZM413.729 211.808H421.809V212.96H413.729V211.808ZM417.169 206.688H418.385V220.224H417.169V206.688ZM407.505 209.568H412.817V210.672H407.505V209.568ZM410.033 214.368L411.217 212.944V221.296H410.033V214.368ZM410.033 206.576H411.217V210.112H410.033V206.576ZM411.121 213.264C411.665 213.648 413.521 215.28 413.985 215.68L413.249 216.656C412.657 215.968 411.089 214.448 410.433 213.872L411.121 213.264ZM412.369 209.568H412.609L412.833 209.52L413.521 209.968C412.305 212.912 409.857 215.568 407.569 217.04C407.441 216.736 407.153 216.176 406.945 215.968C409.121 214.688 411.409 212.256 412.369 209.824V209.568Z" fill="white"/>
<path d="M408.213 184C408.213 183.172 407.541 182.5 406.713 182.5C405.884 182.5 405.213 183.172 405.213 184H408.213ZM405.713 203.66C406.299 204.246 407.127 204.246 407.713 203.66L414.373 197C414.959 196.414 414.959 195.586 414.373 195L406.713 187.34L399.053 195C398.467 195.586 398.467 196.414 399.053 197L405.713 203.66ZM405.213 184V196H408.213V184H405.213Z" fill="#B3B3B3"/>
<path d="M408.213 236C408.213 235.172 407.541 234.5 406.713 234.5C405.884 234.5 405.213 235.172 405.213 236H408.213ZM405.713 258.66C406.299 259.246 407.127 259.246 407.713 258.66L414.373 252C414.959 251.414 414.959 250.586 414.373 250L406.713 242.34L399.053 250C398.467 250.586 398.467 251.414 399.053 252L405.713 258.66ZM405.213 236V251H408.213V236H405.213Z" fill="#B3B3B3"/>
<path d="M342.167 102.5C341.339 102.5 340.667 103.172 340.667 104C340.667 104.828 341.339 105.5 342.167 105.5V102.5ZM372.919 215C373.504 214.414 373.504 213.586 372.919 213L366.258 206.34C365.673 205.754 364.844 205.754 364.258 206.34L356.598 214L364.258 221.66C364.844 222.246 365.673 222.246 366.258 221.66L372.919 215ZM350.213 113.545V200.455H353.213V113.545H350.213ZM350.213 200.455C350.213 208.764 356.949 215.5 365.258 215.5V212.5C358.606 212.5 353.213 207.107 353.213 200.455H350.213ZM342.167 105.5C346.611 105.5 350.213 109.102 350.213 113.545H353.213C353.213 107.445 348.268 102.5 342.167 102.5V105.5Z" fill="#B3B3B3"/>
<path d="M17.0114 27.1819V15.5455H21.6705C22.5265 15.5455 23.2405 15.6724 23.8125 15.9262C24.3845 16.18 24.8144 16.5323 25.1023 16.983C25.3902 17.43 25.5341 17.9451 25.5341 18.5285C25.5341 18.983 25.4432 19.3826 25.2614 19.7273C25.0795 20.0682 24.8295 20.3486 24.5114 20.5682C24.197 20.7842 23.8371 20.9376 23.4318 21.0285V21.1421C23.875 21.1611 24.2898 21.2861 24.6761 21.5171C25.0663 21.7482 25.3826 22.072 25.625 22.4887C25.8674 22.9016 25.9886 23.394 25.9886 23.966C25.9886 24.5834 25.8352 25.1345 25.5284 25.6194C25.2254 26.1004 24.7765 26.4811 24.1818 26.7614C23.5871 27.0417 22.8542 27.1819 21.983 27.1819H17.0114ZM19.4716 25.1705H21.4773C22.1629 25.1705 22.6629 25.0398 22.9773 24.7785C23.2917 24.5133 23.4489 24.1611 23.4489 23.7217C23.4489 23.3997 23.3712 23.1156 23.2159 22.8694C23.0606 22.6232 22.839 22.43 22.5511 22.2898C22.267 22.1497 21.928 22.0796 21.5341 22.0796H19.4716V25.1705ZM19.4716 20.4148H21.2955C21.6326 20.4148 21.9318 20.3561 22.1932 20.2387C22.4583 20.1175 22.6667 19.947 22.8182 19.7273C22.9735 19.5076 23.0511 19.2444 23.0511 18.9376C23.0511 18.5171 22.9015 18.1781 22.6023 17.9205C22.3068 17.6629 21.8864 17.5342 21.3409 17.5342H19.4716V20.4148ZM29.8737 15.5455V27.1819H27.4135V15.5455H29.8737ZM38.2785 14.7179C38.6625 15.5179 39.6385 17.9819 39.9585 19.0059L37.9425 19.7099C37.6385 18.7019 36.7425 16.3659 36.2785 15.3739L38.2785 14.7179ZM45.5745 15.9979C45.3985 16.3979 45.2545 16.8939 45.1585 17.2459C44.7105 18.9899 43.7985 21.5339 42.4865 23.2619C40.8065 25.4859 38.4705 27.1019 36.1985 27.9659L34.4065 26.1579C36.5825 25.5339 39.0785 24.0939 40.7265 22.0299C41.9265 20.5099 42.9185 17.7739 43.1905 15.3259L45.5745 15.9979ZM33.8145 15.7099C34.3105 16.7339 35.3025 19.1179 35.6705 20.1899L33.6225 20.9419C33.2865 19.9179 32.2305 17.2779 31.7825 16.4299L33.8145 15.7099ZM47.9905 19.7739C48.5825 19.8219 49.7345 19.8859 50.5665 19.8859C52.4545 19.8859 57.7345 19.8859 59.1585 19.8859C59.9105 19.8859 60.6145 19.8059 61.0465 19.7739V22.3019C60.6625 22.2859 59.8465 22.2059 59.1745 22.2059C57.7185 22.2059 52.4545 22.2059 50.5665 22.2059C49.6705 22.2059 48.5985 22.2539 47.9905 22.3019V19.7739ZM70.3905 26.8299C70.4705 26.5259 70.5185 26.0939 70.5185 25.6619C70.5185 24.8139 70.5185 17.6299 70.5185 16.3339C70.5185 15.6139 70.4065 14.9899 70.4065 14.9579H72.7745C72.7745 14.9899 72.6625 15.6299 72.6625 16.3499C72.6625 17.6299 72.6625 23.7259 72.6625 24.7019C73.9745 24.1419 75.5425 22.8779 76.6305 21.3259L77.8465 23.1019C76.5185 24.8299 74.2305 26.5579 72.4225 27.4699C72.0865 27.6459 71.8945 27.8219 71.7345 27.9339L70.3905 26.8299ZM62.9825 26.6059C64.4065 25.6139 65.2705 24.1419 65.7025 22.7659C66.1665 21.4059 66.1825 18.3659 66.1825 16.4459C66.1825 15.7899 66.1185 15.3739 66.0225 14.9739H68.3745C68.3745 15.0379 68.2625 15.7579 68.2625 16.4139C68.2625 18.3179 68.2145 21.6939 67.7985 23.3099C67.3025 25.1019 66.3105 26.6859 64.9345 27.9019L62.9825 26.6059ZM89.0785 15.2779C89.5265 15.9499 90.1825 16.9739 90.5345 17.7099L89.1585 18.3179C88.6785 17.3099 88.3265 16.6699 87.7345 15.8539L89.0785 15.2779ZM91.1745 14.4139C91.6545 15.0539 92.3265 16.0459 92.6785 16.7659L91.3345 17.4379C90.8225 16.4139 90.4385 15.8219 89.8465 15.0379L91.1745 14.4139ZM82.7105 25.8859C82.7105 24.6699 82.7105 18.0459 82.7105 16.6859C82.7105 16.1099 82.6465 15.3259 82.5345 14.7659H85.0465C84.9825 15.3259 84.9025 16.0299 84.9025 16.6859C84.9025 18.4619 84.9025 24.7019 84.9025 25.8859C84.9025 26.3499 84.9825 27.4699 85.0465 28.1099H82.5505C82.6465 27.4859 82.7105 26.5259 82.7105 25.8859ZM84.4225 18.8939C86.5665 19.4859 90.0065 20.7499 91.5905 21.5339L90.6785 23.7419C88.8705 22.7979 86.1665 21.7739 84.4225 21.1979V18.8939ZM107.495 15.4219C107.271 15.7899 106.967 16.4939 106.823 16.8779C106.215 18.4619 105.239 20.5739 103.911 22.3019C102.423 24.2219 100.455 26.2859 97.3505 27.9979L95.5745 26.3659C98.4865 24.9739 100.487 23.1979 102.183 20.9899C103.447 19.3259 104.167 17.6779 104.727 16.0779C104.871 15.6619 105.031 15.0059 105.111 14.6059L107.495 15.4219ZM98.6945 16.9739C100.279 17.9659 102.471 19.4859 103.815 20.5419C105.527 21.8699 107.207 23.3739 108.503 24.7499L106.855 26.5899C105.463 24.9579 104.055 23.6459 102.359 22.2379C101.207 21.2779 99.3345 19.8379 97.3185 18.6059L98.6945 16.9739ZM110.822 20.9739C113.686 20.2379 116.022 19.1979 117.814 18.0939C119.446 17.0859 121.27 15.4859 122.31 14.2219L124.038 15.8539C122.582 17.3259 120.63 18.8299 118.742 19.9659C116.934 21.0379 114.342 22.2379 111.814 22.9899L110.822 20.9739ZM117.478 19.1339L119.75 18.5899V25.8059C119.75 26.5099 119.782 27.5019 119.894 27.9019H117.35C117.414 27.5179 117.478 26.5099 117.478 25.8059V19.1339ZM129.511 15.0219C130.615 15.7739 132.695 17.4379 133.639 18.4139L132.007 20.0779C131.175 19.1819 129.159 17.4379 127.991 16.6379L129.511 15.0219ZM127.495 25.6779C130.007 25.3259 132.071 24.5099 133.623 23.5979C136.359 21.9659 138.439 19.5339 139.463 17.3739L140.695 19.6139C139.495 21.7899 137.367 23.9979 134.791 25.5499C133.159 26.5259 131.095 27.4059 128.855 27.7899L127.495 25.6779Z" fill="#2171C1"/>
</svg>
