<svg width="769" height="421" viewBox="0 0 769 421" fill="none" xmlns="http://www.w3.org/2000/svg">
<circle cx="153.5" cy="219.5" r="152.5" fill="#BDE3FF"/>
<path d="M76.28 222.72H113V226.6H76.28V222.72ZM77.04 202.44H112.04V206.6H77.04V202.44ZM89.6 218.88L94.32 220.08C91.76 224.32 88.36 229.36 85.92 232.56L81.28 231.16C83.76 227.96 87.28 222.8 89.6 218.88ZM101.2 224.16L105.84 225.36C101.88 234.8 93.64 237.52 78.8 238.68C78.48 237.28 77.76 235.6 77 234.56C90.48 234 98 231.84 101.2 224.16ZM84.04 231.48L86.48 228.04C95.68 229.92 105.64 232.68 111.64 234.88L108.76 238.76C102.96 236.4 93.6 233.52 84.04 231.48ZM87.56 204.08H92.08V217.76H87.56V204.08ZM96.64 204.08H101.16V217.76H96.64V204.08ZM83.36 212.64V216.4H105.96V212.64H83.36ZM78.88 208.88H110.76V220.16H78.88V208.88ZM116.16 207.08H151.72V211.76H116.16V207.08ZM135.88 211.2C138.8 219.96 144.76 227.88 152.96 231.56C151.8 232.56 150.24 234.48 149.44 235.88C140.96 231.4 135.44 222.6 132.08 212.28L135.88 211.2ZM146.24 212.48L150.48 215.48C147.76 218.52 144.36 221.92 141.72 224.08L138.24 221.44C140.8 219.2 144.24 215.48 146.24 212.48ZM138.8 203.88L141.64 200.84C144.04 201.96 147.4 203.72 149.12 205L146.08 208.4C144.56 207.04 141.28 205.12 138.8 203.88ZM117.72 215.6L121.4 213.08C123.64 215.08 126.44 217.96 127.64 220.04L123.72 222.88C122.64 220.84 119.96 217.76 117.72 215.6ZM131.28 201.08H136.24V232.72C136.24 235.52 135.64 236.88 134 237.68C132.32 238.52 129.72 238.64 126.16 238.64C125.92 237.24 125.2 235 124.48 233.56C126.92 233.68 129.44 233.68 130.24 233.68C131 233.64 131.28 233.44 131.28 232.68V201.08ZM114.88 230.44C118.24 228.8 123.44 225.92 128.24 223.12L129.84 227.48C125.84 230.08 121.4 232.8 117.88 234.84L114.88 230.44ZM160.88 215.72H182.52V220.4H160.88V215.72ZM180.96 215.72H186C186 215.72 185.96 217.2 185.92 217.8C185.48 229.96 185 234.72 183.6 236.36C182.6 237.72 181.48 238.08 179.96 238.32C178.56 238.52 176.24 238.48 173.88 238.4C173.8 237 173.16 234.92 172.28 233.56C174.52 233.76 176.6 233.8 177.6 233.8C178.32 233.8 178.76 233.68 179.2 233.24C180.16 232.2 180.6 227.72 180.96 216.6V215.72ZM165.4 201.56L170.6 203.08C167.6 210.04 162.72 216.48 157.68 220.44C156.76 219.4 154.68 217.48 153.52 216.56C158.56 213.24 163 207.64 165.4 201.56ZM180.64 201.48C183.16 206.56 188.2 212.4 192.6 215.76C191.28 216.8 189.44 218.76 188.52 220.12C184 215.96 179.08 209.48 175.92 203.36L180.64 201.48ZM168.04 217.08H173.24C172.48 226.08 170.76 234.44 158.84 238.88C158.24 237.56 156.84 235.52 155.72 234.48C166.44 230.96 167.4 224.2 168.04 217.08ZM213.84 214.56H231.24V219.08H213.84V214.56ZM211.4 203.84L217.12 205.44C217.08 205.8 216.8 206.04 216.08 206.16V215.56C216.08 221.96 215.36 231.92 210.16 238.56C209.48 237.52 207.64 235.96 206.48 235.4C210.96 229.52 211.4 221.44 211.4 215.48V203.84ZM225.92 201.44L229.96 205.2C225.36 207.16 219.24 208.56 213.96 209.4C213.72 208.28 213 206.48 212.4 205.48C217.32 204.52 222.64 203.04 225.92 201.44ZM221.28 215.96H226.04V238.56H221.28V215.96ZM194.12 209.28H209.08V213.84H194.12V209.28ZM199.64 201.04H204.24V238.6H199.64V201.04ZM199.4 212.36L202.24 213.36C200.96 219.8 198.44 227.56 195.36 231.68C194.92 230.36 193.8 228.4 193.08 227.2C195.84 223.72 198.36 217.48 199.4 212.36ZM203.88 215.88C204.92 217 208.72 221.92 209.52 223.08L206.84 226.88C205.76 224.48 203.04 220.04 201.68 218.04L203.88 215.88Z" fill="black" fill-opacity="0.8"/>
<path d="M295.488 18.044C295.264 18.352 294.76 19.192 294.508 19.78C293.36 22.44 291.288 26.248 288.88 29.048C285.744 32.66 281.516 36.132 277.176 38.176L274.264 35.152C278.8 33.472 283.112 30.056 285.744 27.144C287.592 25.044 289.3 22.272 289.944 20.284C288.768 20.284 281.628 20.284 280.424 20.284C279.276 20.284 277.736 20.424 277.12 20.48V16.476C277.876 16.588 279.612 16.672 280.424 16.672C281.908 16.672 289.076 16.672 290.308 16.672C291.54 16.672 292.632 16.532 293.22 16.336L295.488 18.044ZM289.244 26.724C292.128 29.076 296.104 33.248 297.924 35.488L294.732 38.26C292.66 35.376 289.608 32.044 286.612 29.328L289.244 26.724ZM304 17.12C305.064 17.232 306.492 17.316 307.472 17.316H321.584C322.396 17.316 323.544 17.26 324.02 17.232C323.992 17.904 323.936 18.996 323.936 19.836V34.34C323.936 35.32 324.02 36.776 324.076 37.644H320.016C320.044 36.804 320.072 35.796 320.072 34.76V20.928H307.472C306.296 20.928 304.784 20.984 304 21.04V17.12ZM303.664 32.324C304.616 32.408 305.876 32.492 307.136 32.492H322.284V36.188H307.248C306.156 36.188 304.588 36.244 303.664 36.356V32.324ZM329.648 24.036C330.684 24.12 332.7 24.232 334.156 24.232C337.46 24.232 346.7 24.232 349.192 24.232C350.508 24.232 351.74 24.092 352.496 24.036V28.46C351.824 28.432 350.396 28.292 349.22 28.292C346.672 28.292 337.46 28.292 334.156 28.292C332.588 28.292 330.712 28.376 329.648 28.46V24.036ZM375.384 16.476C375.384 17.372 376.112 18.1 377.008 18.1C377.904 18.1 378.632 17.372 378.632 16.476C378.632 15.58 377.904 14.852 377.008 14.852C376.112 14.852 375.384 15.58 375.384 16.476ZM373.648 16.476C373.648 14.628 375.16 13.116 377.008 13.116C378.856 13.116 380.368 14.628 380.368 16.476C380.368 18.324 378.856 19.836 377.008 19.836C375.16 19.836 373.648 18.324 373.648 16.476ZM377.064 18.688C376.784 19.22 376.588 20.032 376.448 20.62C375.804 23.364 374.572 27.732 372.22 30.84C369.7 34.2 365.976 36.972 360.964 38.568L357.912 35.208C363.484 33.92 366.648 31.484 368.888 28.656C370.764 26.332 371.828 23.14 372.192 20.732C370.484 20.732 361.244 20.732 359.144 20.732C357.856 20.732 356.54 20.816 355.812 20.872V16.896C356.652 17.008 358.22 17.148 359.144 17.148C361.244 17.148 370.54 17.148 372.108 17.148C372.668 17.148 373.564 17.12 374.292 16.924L377.064 18.688ZM390.588 17.54H405.372V27.116H402.096V20.676H390.588V17.54ZM389.188 25.772H407.5V28.936H389.188V25.772ZM395.264 13.228H398.624V23.028C398.624 29.132 397.84 35.544 390.532 39.604C389.916 38.904 388.6 37.756 387.732 37.224C394.564 33.64 395.264 28.32 395.264 23V13.228ZM400.136 27.536C401.34 31.624 403.888 35.04 407.78 36.636C406.996 37.308 405.932 38.652 405.428 39.576C401.116 37.476 398.54 33.5 397.028 28.292L400.136 27.536ZM382.748 15.832L384.568 13.368C386.304 14.04 388.572 15.188 389.692 16.14L387.76 18.884C386.724 17.904 384.512 16.616 382.748 15.832ZM381.124 23.448L382.944 20.928C384.68 21.544 387.004 22.664 388.152 23.588L386.22 26.388C385.156 25.436 382.916 24.204 381.124 23.448ZM381.936 37.028C383.336 34.9 385.324 31.344 386.864 28.068L389.44 30.168C388.068 33.136 386.416 36.384 384.848 39.156L381.936 37.028ZM414.08 21.684H429.564V24.876H414.08V21.684ZM421.808 28.404H431.272V31.54H421.808V28.404ZM420.044 23.532H423.572V37.056L420.044 36.636V23.532ZM413.352 26.444L416.88 26.808C416.152 32.492 414.416 36.944 411.224 39.688C410.664 39.1 409.236 37.896 408.452 37.392C411.476 35.152 412.876 31.26 413.352 26.444ZM416.068 29.944C417.86 35.096 421.78 35.88 426.764 35.88C428.248 35.88 432.924 35.88 434.8 35.824C434.324 36.608 433.764 38.232 433.624 39.24H426.568C420.1 39.24 415.732 37.924 413.324 30.868L416.068 29.944ZM419.988 13.256H423.572V18.38H419.988V13.256ZM409.796 16.084H433.876V23.112H430.404V19.276H413.1V23.112H409.796V16.084Z" fill="black" fill-opacity="0.8"/>
<path d="M269.261 391.38C268.981 391.912 268.785 392.724 268.645 393.312C268.001 396.056 266.769 400.396 264.417 403.532C261.897 406.864 258.173 409.664 253.161 411.26L250.109 407.9C255.681 406.612 258.817 404.176 261.085 401.348C262.961 398.996 263.997 395.832 264.389 393.424C262.681 393.424 253.441 393.424 251.341 393.424C250.053 393.424 248.737 393.508 248.009 393.536V389.588C248.849 389.7 250.417 389.812 251.341 389.812C253.441 389.812 262.737 389.812 264.305 389.812C264.837 389.812 265.733 389.784 266.489 389.616L269.261 391.38ZM274.259 402.048C277.927 401.236 282.071 399.36 284.283 398.016C287.027 396.364 289.827 393.872 291.283 392.052L294.055 394.768C292.375 396.588 288.987 399.22 285.935 401.012C283.415 402.496 279.103 404.372 275.911 405.324L274.259 402.048ZM283.975 400.228L287.783 399.5V409.44C287.783 410.448 287.811 411.932 287.979 412.492H283.807C283.891 411.932 283.975 410.448 283.975 409.44V400.228ZM301.307 397.036C302.343 397.12 304.359 397.232 305.815 397.232C309.119 397.232 318.359 397.232 320.851 397.232C322.167 397.232 323.399 397.092 324.155 397.036V401.46C323.483 401.432 322.055 401.292 320.879 401.292C318.331 401.292 309.119 401.292 305.815 401.292C304.247 401.292 302.371 401.376 301.307 401.46V397.036ZM345.295 389.168C346.079 390.344 347.227 392.136 347.843 393.424L345.435 394.488C344.595 392.724 343.979 391.604 342.943 390.176L345.295 389.168ZM348.963 387.656C349.803 388.776 350.979 390.512 351.595 391.772L349.243 392.948C348.347 391.156 347.675 390.12 346.639 388.748L348.963 387.656ZM334.151 407.732C334.151 405.604 334.151 394.012 334.151 391.632C334.151 390.624 334.039 389.252 333.843 388.272H338.239C338.127 389.252 337.987 390.484 337.987 391.632C337.987 394.74 337.987 405.66 337.987 407.732C337.987 408.544 338.127 410.504 338.239 411.624H333.871C334.039 410.532 334.151 408.852 334.151 407.732ZM337.147 395.496C340.899 396.532 346.919 398.744 349.691 400.116L348.095 403.98C344.931 402.328 340.199 400.536 337.147 399.528V395.496ZM375.507 387.684C376.207 388.692 377.215 390.484 377.747 391.52L375.479 392.472C374.919 391.324 374.051 389.672 373.295 388.58L375.507 387.684ZM378.839 386.424C379.567 387.46 380.603 389.252 381.079 390.232L378.867 391.184C378.279 390.008 377.383 388.384 376.599 387.32L378.839 386.424ZM359.071 401.292C360.303 398.184 361.367 394.236 361.731 390.652L365.791 391.52C365.567 392.304 365.231 393.676 365.119 394.32C364.727 396.28 363.719 400.116 362.739 402.72C361.731 405.436 360.079 408.628 358.623 410.728L354.703 409.076C356.439 406.78 358.091 403.784 359.071 401.292ZM372.875 400.732C371.811 397.792 370.019 393.648 368.815 391.52L372.539 390.316C373.715 392.472 375.619 396.784 376.683 399.472C377.691 402.02 379.175 406.472 379.931 409.244L375.787 410.588C375.031 407.284 373.995 403.756 372.875 400.732ZM395.275 393.396C395.807 394.572 397.179 398.24 397.571 399.528L394.239 400.676C393.875 399.332 392.643 395.944 391.971 394.488L395.275 393.396ZM405.607 395.412C405.299 396.336 405.131 396.924 404.963 397.484C404.235 400.312 403.031 403.224 401.127 405.66C398.523 409.048 395.051 411.372 391.775 412.632L388.835 409.636C391.887 408.796 395.807 406.668 398.103 403.756C400.007 401.404 401.379 397.68 401.687 394.152L405.607 395.412ZM388.779 394.852C389.479 396.28 390.851 399.696 391.383 401.264L387.967 402.524C387.519 401.04 386.091 397.288 385.419 396.084L388.779 394.852ZM433.803 392.612C433.495 393.144 433.103 393.9 432.879 394.6C432.123 397.12 430.527 400.844 427.979 403.952C425.319 407.2 421.959 409.776 416.695 411.848L413.391 408.908C419.103 407.172 422.211 404.736 424.675 401.964C426.579 399.78 428.203 396.42 428.651 394.348H419.215L420.503 391.156C421.735 391.156 427.615 391.156 428.483 391.156C429.351 391.156 430.303 391.044 430.919 390.82L433.803 392.612ZM424.675 388.16C424.003 389.14 423.275 390.428 422.967 391.016C421.063 394.404 417.731 398.352 413.699 401.096L410.563 398.772C415.463 395.776 417.927 392.164 419.299 389.756C419.719 389.084 420.307 387.796 420.559 386.816L424.675 388.16Z" fill="black" fill-opacity="0.8"/>
<path d="M202 359L247.387 367.565L232.111 323.976L202 359ZM200.667 79.7713C330.606 125.708 330.692 309.661 200.677 355.225L203.323 362.775C340.516 314.695 340.345 120.666 203.333 72.2287L200.667 79.7713Z" fill="#5FA0E1"/>
<path d="M105 76L59.6131 67.4349L74.8889 111.024L105 76ZM106.333 355.229C-23.6063 309.292 -23.6921 125.339 106.323 79.7749L103.677 72.2251C-33.5162 120.305 -33.3448 314.334 103.667 362.771L106.333 355.229Z" fill="#5FA0E1"/>
<circle cx="154" cy="332" r="60" fill="#2171C1"/>
<path d="M131.334 301.148C132.062 301.204 132.902 301.232 133.854 301.232C135.842 301.232 145.11 301.232 147.154 301.232C148.078 301.232 148.834 301.204 149.45 301.148V303.36C148.778 303.332 148.134 303.304 147.154 303.304C145.11 303.304 135.31 303.304 133.854 303.304C132.902 303.304 132.062 303.332 131.334 303.36V301.148ZM139.902 310.136C139.902 312.208 139.902 315.96 139.902 316.94C139.902 318.34 140.854 319.208 143.458 319.208C146.09 319.208 148.386 319.096 150.794 318.816L150.654 321.168C148.498 321.308 145.782 321.42 143.122 321.42C138.894 321.42 137.55 319.936 137.55 317.668C137.55 315.624 137.55 312.264 137.55 310.052C137.55 308.904 137.55 303.808 137.55 302.66H139.902C139.902 303.78 139.902 309.352 139.902 310.136ZM129.486 309.072C130.242 309.156 131.362 309.212 132.118 309.212C134.134 309.212 147.574 309.212 149.31 309.212C149.898 309.212 151.018 309.156 151.662 309.1V311.396C151.018 311.34 149.982 311.34 149.366 311.34C147.546 311.34 134.134 311.34 132.118 311.34C131.39 311.34 130.242 311.368 129.486 311.424V309.072ZM159.418 300.56C160.202 300.644 161.042 300.7 161.938 300.7C163.562 300.7 170.086 300.7 171.654 300.7C172.438 300.7 173.446 300.644 174.258 300.56V302.884C173.418 302.828 172.438 302.772 171.654 302.772C170.086 302.772 163.562 302.772 161.994 302.772C161.042 302.772 160.146 302.828 159.418 302.884V300.56ZM156.086 307.588C156.842 307.672 157.654 307.728 158.522 307.728C160.146 307.728 175.35 307.728 176.834 307.728C177.422 307.728 178.346 307.672 179.046 307.588V309.912C178.43 309.856 177.534 309.828 176.834 309.828C175.35 309.828 160.146 309.828 158.522 309.828C157.682 309.828 156.842 309.856 156.086 309.912V307.588ZM169.274 308.708C169.274 312.236 168.826 315.148 167.594 317.5C166.558 319.376 164.458 321.392 162.078 322.596L160.006 321.084C162.162 320.16 164.178 318.564 165.298 316.772C166.698 314.56 166.894 311.816 166.922 308.736L169.274 308.708ZM175.714 298.264C176.414 299.272 177.422 300.98 177.982 302.1L176.47 302.772C175.938 301.652 174.986 299.972 174.23 298.908L175.714 298.264ZM178.766 297.144C179.522 298.18 180.586 299.916 181.118 300.952L179.634 301.624C179.018 300.42 178.094 298.824 177.31 297.788L178.766 297.144ZM134.232 341.776C134.176 342.448 134.148 343.26 134.148 344.212C134.148 345.304 134.148 347.684 134.148 348.72C134.148 355.468 133.252 357.68 131.208 360.06C129.416 362.244 126.616 363.476 124.572 364.176L122.724 362.244C125.3 361.572 127.68 360.48 129.416 358.492C131.404 356.196 131.768 353.9 131.768 348.636C131.768 347.544 131.768 345.192 131.768 344.212C131.768 343.26 131.684 342.448 131.6 341.776H134.232ZM121.24 342C121.184 342.532 121.156 343.344 121.156 343.988C121.156 344.828 121.156 352.164 121.156 353.34C121.156 354.068 121.184 354.992 121.24 355.496H118.692C118.748 355.048 118.804 354.152 118.804 353.34C118.804 352.136 118.804 344.828 118.804 343.988C118.804 343.512 118.776 342.532 118.692 342H121.24ZM146.356 342.504C148.316 343.82 151.928 346.732 153.468 348.272L151.732 350.064C150.304 348.608 146.832 345.584 144.732 344.212L146.356 342.504ZM143.948 361.264C148.82 360.536 152.46 358.828 155.12 357.176C159.46 354.46 162.848 350.316 164.472 346.844L165.816 349.252C163.912 352.724 160.664 356.532 156.436 359.192C153.608 360.956 150.08 362.692 145.404 363.56L143.948 361.264ZM188.888 340.6C189.588 341.608 190.596 343.316 191.156 344.436L189.644 345.136C189.084 343.988 188.132 342.308 187.376 341.244L188.888 340.6ZM191.94 339.48C192.696 340.516 193.76 342.252 194.292 343.288L192.78 343.96C192.164 342.756 191.268 341.16 190.484 340.124L191.94 339.48ZM190.736 346.172C190.512 346.592 190.232 347.236 190.092 347.684C189.336 350.484 187.6 354.292 185.136 357.316C182.588 360.424 179.228 363 173.964 364.932L171.948 363.112C177.1 361.6 180.572 359.052 183.12 356.084C185.304 353.508 187.012 349.896 187.6 347.348H177.212L178.108 345.332C179.256 345.332 186.172 345.332 187.04 345.332C187.796 345.332 188.412 345.248 188.888 345.052L190.736 346.172ZM181.356 341.944C180.908 342.672 180.404 343.624 180.124 344.156C178.472 347.236 175.532 351.24 171.052 354.236L169.092 352.78C173.936 349.896 176.68 345.836 177.912 343.316C178.192 342.84 178.612 341.804 178.78 341.104L181.356 341.944Z" fill="white"/>
<circle cx="588.5" cy="211.5" r="152.5" fill="#BDE3FF"/>
<path d="M529.977 169.96C529.577 170.48 528.817 171.44 528.457 172C526.577 175.12 522.777 180.2 518.817 183L514.657 179.68C517.897 177.72 521.017 174.2 522.057 172.24C519.617 172.24 503.697 172.24 501.177 172.24C499.537 172.24 498.177 172.32 496.297 172.52V166.92C497.857 167.16 499.537 167.36 501.177 167.36C503.697 167.36 520.657 167.36 522.737 167.36C523.857 167.36 526.057 167.2 526.817 167L529.977 169.96ZM513.697 175.32C513.697 185.24 513.457 193.4 502.577 199.28L497.897 195.48C499.217 195.04 500.657 194.36 502.137 193.24C507.177 189.72 508.137 185.52 508.137 178.96C508.137 177.68 508.097 176.64 507.897 175.32H513.697ZM558.615 166.32C559.735 168 561.375 170.64 562.255 172.48L558.815 174C557.615 171.48 556.735 169.76 555.255 167.68L558.615 166.32ZM564.135 164.36C565.375 165.96 566.935 168.6 567.895 170.36L564.455 171.88C563.175 169.36 562.215 167.8 560.735 165.8L564.135 164.36ZM541.255 165.52C543.895 166.96 548.295 169.8 550.375 171.24L547.375 175.68C545.175 174.12 540.975 171.4 538.335 169.92L541.255 165.52ZM533.855 193.92C538.295 193.16 543.095 191.84 547.455 189.44C554.255 185.64 559.815 180.16 563.015 174.44L566.095 179.88C562.375 185.4 556.735 190.48 550.175 194.24C546.135 196.56 540.375 198.56 536.855 199.2L533.855 193.92ZM535.095 174.64C537.775 176.08 542.175 178.84 544.215 180.28L541.295 184.76C539.015 183.2 534.895 180.48 532.175 179.08L535.095 174.64ZM582.703 171.6C582.823 172.56 583.103 173.6 583.343 174.64C584.703 179.44 588.463 193.2 589.463 196.52C589.663 197.24 590.223 199 590.503 199.8L585.103 201.16C584.943 200.08 584.703 198.76 584.383 197.64C583.383 194.16 579.743 179.88 578.463 175.72C578.183 174.72 577.743 173.72 577.303 172.88L582.703 171.6ZM601.903 177.8C600.183 181.28 596.183 187.32 593.383 190.28L588.943 188.08C591.023 186.24 593.783 182.88 594.863 180.92C592.783 181.28 576.503 184.68 573.223 185.4L571.983 180.64C573.223 180.52 574.343 180.4 575.663 180.16C577.823 179.84 593.823 176.8 596.663 176.16C597.343 176 598.143 175.76 598.663 175.52L601.903 177.8ZM608.423 181.48C615.583 179.64 621.423 177.04 625.903 174.28C629.983 171.76 634.543 167.76 637.143 164.6L641.463 168.68C637.823 172.36 632.943 176.12 628.223 178.96C623.703 181.64 617.223 184.64 610.903 186.52L608.423 181.48ZM625.063 176.88L630.743 175.52V193.56C630.743 195.32 630.823 197.8 631.103 198.8H624.743C624.903 197.84 625.063 195.32 625.063 193.56V176.88ZM665.263 196.12C665.463 195.36 665.583 194.28 665.583 193.2C665.583 191.08 665.583 173.12 665.583 169.88C665.583 168.08 665.303 166.52 665.303 166.44H671.223C671.223 166.52 670.943 168.12 670.943 169.92C670.943 173.12 670.943 188.36 670.943 190.8C674.223 189.4 678.143 186.24 680.863 182.36L683.903 186.8C680.583 191.12 674.863 195.44 670.343 197.72C669.503 198.16 669.023 198.6 668.623 198.88L665.263 196.12ZM646.743 195.56C650.303 193.08 652.463 189.4 653.543 185.96C654.703 182.56 654.743 174.96 654.743 170.16C654.743 168.52 654.583 167.48 654.343 166.48H660.223C660.223 166.64 659.943 168.44 659.943 170.08C659.943 174.84 659.823 183.28 658.783 187.32C657.543 191.8 655.063 195.76 651.623 198.8L646.743 195.56ZM559.16 240.84H578.56V244.64H559.16V240.84ZM558.56 247.68H579.2V251.6H558.56V247.68ZM570.56 242.04H574.76V259.88H570.56V242.04ZM562.76 242.2H566.84V249.88C566.84 252.44 565.76 257.72 561.56 260.6C560.92 259.76 559.48 258.48 558.48 257.84C561.88 255.76 562.76 251.88 562.76 249.84V242.2ZM554.4 230.04H564.48V233.16H554.4V230.04ZM572.96 230.04H583.08V233.16H572.96V230.04ZM581.2 224.56H585.92V255.04C585.92 257.44 585.48 258.8 584.04 259.6C582.56 260.4 580.48 260.52 577.4 260.48C577.28 259.2 576.64 256.96 576 255.72C577.76 255.8 579.76 255.8 580.36 255.8C581 255.8 581.2 255.56 581.2 254.96V224.56ZM554.84 224.56H567.52V238.8H554.84V235.36H563V228H554.84V224.56ZM583.64 224.56V228H574.68V235.44H583.64V238.88H570.12V224.56H583.64ZM552 224.56H556.72V260.6H552V224.56ZM597.28 236.6H619.04V241.12H597.28V236.6ZM592.96 224.56H604.28V228.72H592.96V224.56ZM592.08 245.68H623.96V250.08H592.08V245.68ZM602.6 224.56H603.44L604.28 224.4L607.48 225.88C604.76 234.04 598.76 239.76 591.92 243C591.28 241.92 589.96 240.28 589 239.4C594.96 236.92 600.52 231.48 602.6 225.4V224.56ZM600.68 238.88H605.44V245.8C605.44 251.48 604 257.44 594.12 260.76C593.52 259.68 592.04 257.8 591.04 256.96C599.56 254.28 600.68 249.84 600.68 245.72V238.88ZM612.48 223.08C615.04 229.96 620.28 235.92 627.32 238.72C626.2 239.68 624.72 241.6 623.96 242.88C616.52 239.36 611.32 232.64 608.2 224.32L612.48 223.08ZM591.72 231.84L594.76 229.32C596.28 230.4 598.36 231.96 599.4 233.04L596.24 235.8C595.28 234.76 593.28 233.04 591.72 231.84ZM618.08 223.68L621.68 226.2C619.6 228.12 617.16 230.12 615.28 231.36L612.4 229.16C614.2 227.76 616.68 225.4 618.08 223.68ZM622.84 228.24L626.36 230.72C624.2 232.68 621.56 234.76 619.52 236.12L616.64 233.92C618.6 232.48 621.28 230.04 622.84 228.24ZM610.4 239.08H615.4V254.4C615.4 255.88 615.56 256.08 616.68 256.08C617.16 256.08 619.16 256.08 619.72 256.08C620.8 256.08 621 255.32 621.16 251.56C622.16 252.32 624.12 253.12 625.44 253.4C625 258.72 623.72 260.36 620.2 260.36C619.32 260.36 616.68 260.36 615.8 260.36C611.44 260.36 610.4 258.92 610.4 254.4V239.08Z" fill="black" fill-opacity="0.8"/>
<path d="M657 76L632.367 36.9287L610.847 77.7968L657 76ZM522.798 79.5729L525.235 78.3466L521.638 71.2008L519.202 72.4271L522.798 79.5729ZM525.235 78.3466C566.185 57.7342 614.571 58.1785 655.136 79.5393L658.864 72.4607C616.012 49.8955 564.897 49.4262 521.638 71.2008L525.235 78.3466Z" fill="#5FA0E1"/>
<path d="M454 144L414.929 168.633L455.797 190.153L454 144ZM457.573 278.202L456.347 275.765L449.201 279.362L450.427 281.798L457.573 278.202ZM456.347 275.765C435.734 234.815 436.178 186.429 457.539 145.864L450.461 142.136C427.895 184.988 427.426 236.103 449.201 279.362L456.347 275.765Z" fill="#5FA0E1"/>
<path d="M521 346L545.633 385.071L567.153 344.203L521 346ZM655.202 342.427L652.765 343.653L656.362 350.799L658.798 349.573L655.202 342.427ZM652.765 343.653C611.815 364.266 563.429 363.822 522.864 342.461L519.136 349.539C561.988 372.105 613.103 372.574 656.362 350.799L652.765 343.653Z" fill="#5FA0E1"/>
<circle cx="474" cy="327" r="60" fill="#2171C1"/>
<path d="M470.066 318.38L472.082 318.828C471.382 321.208 470.542 324.12 469.814 325.912L468.162 325.464C468.862 323.588 469.674 320.508 470.066 318.38ZM459.23 318.996L460.938 318.576C461.694 320.788 462.366 323.644 462.534 325.492L460.686 325.968C460.546 324.064 459.93 321.208 459.23 318.996ZM458.558 315.076H472.642V317.036H458.558V315.076ZM457.466 327.144H473.202V329.16H457.466V327.144ZM464.41 315.748H466.454V339.24H464.41V315.748ZM448.646 321.964H456.99V323.644H448.646V321.964ZM448.786 314.488H456.934V316.168H448.786V314.488ZM448.646 325.716H456.99V327.396H448.646V325.716ZM447.33 318.156H457.97V319.892H447.33V318.156ZM449.654 329.496H456.99V337.672H449.654V335.908H455.142V331.232H449.654V329.496ZM448.618 329.496H450.438V338.96H448.618V329.496ZM482.498 316.336H500.334V318.24H482.498V316.336ZM482.862 322.832H500.11V338.624H498.094V324.708H484.822V338.792H482.862V322.832ZM487.762 316.616H489.75V324.176H487.762V316.616ZM492.97 316.616H494.986V324.176H492.97V316.616ZM483.758 335.096H499.522V336.944H483.758V335.096ZM487.93 324.12H489.75V336.496H487.93V324.12ZM492.97 324.12H494.79V336.496H492.97V324.12ZM480.818 313.564L482.722 314.18C480.986 318.8 478.298 323.448 475.414 326.556C475.218 326.08 474.63 325.016 474.238 324.512C476.87 321.852 479.334 317.736 480.818 313.564ZM478.046 320.844L480.006 318.884L480.034 318.912V339.24H478.046V320.844Z" fill="white"/>
<circle cx="474" cy="97" r="60" fill="#2171C1"/>
<path d="M458.418 93.084H473.454V95.156H458.418V93.084ZM464.998 83.564H467.126V109.24H464.998V83.564ZM448.646 91.964H457.382V93.644H448.646V91.964ZM448.814 84.488H457.41V86.168H448.814V84.488ZM448.646 95.716H457.382V97.396H448.646V95.716ZM447.33 88.156H458.474V89.892H447.33V88.156ZM449.626 99.496H457.298V107.672H449.626V105.908H455.422V101.232H449.626V99.496ZM448.618 99.496H450.494V108.96H448.618V99.496ZM477.346 105.488H498.094V107.504H477.346V105.488ZM475.33 85.328H500.11V87.316H475.33V85.328ZM476.198 90.116H478.242V109.24H476.198V90.116ZM497.254 90.116H499.326V109.156H497.254V90.116ZM486.558 85.944H488.686V91.348H486.558V85.944ZM486.698 91.18H488.546V102.268H486.698V91.18ZM482.694 97.564V101.232H492.578V97.564H482.694ZM482.694 92.216V95.856H492.578V92.216H482.694ZM480.902 90.424H494.426V103.024H480.902V90.424Z" fill="white"/>
<path d="M720 280L759.071 255.367L718.203 233.847L720 280ZM716.427 145.798L717.653 148.235L724.799 144.638L723.573 142.202L716.427 145.798ZM717.653 148.235C738.266 189.185 737.822 237.571 716.461 278.136L723.539 281.864C746.105 239.012 746.574 187.897 724.799 144.638L717.653 148.235Z" fill="#5FA0E1"/>
<circle cx="704" cy="327" r="60" fill="#2171C1"/>
<path d="M697.966 294.776C697.91 295.448 697.882 296.26 697.882 297.212C697.882 298.304 697.882 300.684 697.882 301.72C697.882 308.468 696.986 310.68 694.942 313.06C693.15 315.244 690.35 316.476 688.306 317.176L686.458 315.244C689.034 314.572 691.414 313.48 693.15 311.492C695.138 309.196 695.502 306.9 695.502 301.636C695.502 300.544 695.502 298.192 695.502 297.212C695.502 296.26 695.418 295.448 695.334 294.776H697.966ZM684.974 295C684.918 295.532 684.89 296.344 684.89 296.988C684.89 297.828 684.89 305.164 684.89 306.34C684.89 307.068 684.918 307.992 684.974 308.496H682.426C682.482 308.048 682.538 307.152 682.538 306.34C682.538 305.136 682.538 297.828 682.538 296.988C682.538 296.512 682.51 295.532 682.426 295H684.974ZM725.434 294.776C725.378 295.448 725.35 296.26 725.35 297.212C725.35 298.304 725.35 300.684 725.35 301.72C725.35 308.468 724.454 310.68 722.41 313.06C720.618 315.244 717.818 316.476 715.774 317.176L713.926 315.244C716.502 314.572 718.882 313.48 720.618 311.492C722.606 309.196 722.97 306.9 722.97 301.636C722.97 300.544 722.97 298.192 722.97 297.212C722.97 296.26 722.886 295.448 722.802 294.776H725.434ZM712.442 295C712.386 295.532 712.358 296.344 712.358 296.988C712.358 297.828 712.358 305.164 712.358 306.34C712.358 307.068 712.386 307.992 712.442 308.496H709.894C709.95 308.048 710.006 307.152 710.006 306.34C710.006 305.136 710.006 297.828 710.006 296.988C710.006 296.512 709.978 295.532 709.894 295H712.442ZM679.791 345.876C680.659 345.96 682.115 346.044 683.711 346.044C685.755 346.044 696.983 346.044 699.055 346.044C700.455 346.044 701.435 345.932 702.079 345.876V348.62C701.491 348.592 700.315 348.508 699.083 348.508C696.955 348.508 685.783 348.508 683.711 348.508C682.171 348.508 680.687 348.564 679.791 348.62V345.876ZM725.409 339.296C725.241 339.52 724.877 340.136 724.737 340.5C723.617 343.272 721.489 347.192 719.165 349.768C716.029 353.268 712.025 356.6 707.601 358.616L705.809 356.74C710.345 355.004 714.461 351.644 717.345 348.452C719.249 346.296 721.293 342.964 722.021 340.64C721.013 340.64 712.053 340.64 711.101 340.64C710.093 340.64 708.581 340.752 708.273 340.78V338.26C708.637 338.316 710.233 338.428 711.101 338.428C712.193 338.428 720.845 338.428 721.909 338.428C722.805 338.428 723.561 338.344 724.009 338.204L725.409 339.296ZM719.529 348.312C722.553 350.832 726.277 354.752 728.181 357.076L726.249 358.784C724.233 356.124 720.957 352.54 717.933 349.88L719.529 348.312Z" fill="white"/>
<circle cx="154" cy="92" r="60" fill="#2171C1"/>
<path d="M150.066 83.38L152.082 83.828C151.382 86.208 150.542 89.12 149.814 90.912L148.162 90.464C148.862 88.588 149.674 85.508 150.066 83.38ZM139.23 83.996L140.938 83.576C141.694 85.788 142.366 88.644 142.534 90.492L140.686 90.968C140.546 89.064 139.93 86.208 139.23 83.996ZM138.558 80.076H152.642V82.036H138.558V80.076ZM137.466 92.144H153.202V94.16H137.466V92.144ZM144.41 80.748H146.454V104.24H144.41V80.748ZM128.646 86.964H136.99V88.644H128.646V86.964ZM128.786 79.488H136.934V81.168H128.786V79.488ZM128.646 90.716H136.99V92.396H128.646V90.716ZM127.33 83.156H137.97V84.892H127.33V83.156ZM129.654 94.496H136.99V102.672H129.654V100.908H135.142V96.232H129.654V94.496ZM128.618 94.496H130.438V103.96H128.618V94.496ZM162.498 81.336H180.334V83.24H162.498V81.336ZM162.862 87.832H180.11V103.624H178.094V89.708H164.822V103.792H162.862V87.832ZM167.762 81.616H169.75V89.176H167.762V81.616ZM172.97 81.616H174.986V89.176H172.97V81.616ZM163.758 100.096H179.522V101.944H163.758V100.096ZM167.93 89.12H169.75V101.496H167.93V89.12ZM172.97 89.12H174.79V101.496H172.97V89.12ZM160.818 78.564L162.722 79.18C160.986 83.8 158.298 88.448 155.414 91.556C155.218 91.08 154.63 90.016 154.238 89.512C156.87 86.852 159.334 82.736 160.818 78.564ZM158.046 85.844L160.006 83.884L160.034 83.912V104.24H158.046V85.844Z" fill="white"/>
<path d="M265 358L305 381.094V334.906L265 358ZM385 354H301V362H385V354Z" fill="#5FA0E1"/>
<path d="M414 64L374 40.906V87.094L414 64ZM378 60L294 60V68L378 68V60Z" fill="#5FA0E1"/>
<circle cx="704" cy="97" r="60" fill="#2171C1"/>
<path d="M683.294 95.884H697.182V97.62H683.294V95.884ZM682.762 100.672H697.77V102.464H682.762V100.672ZM692.086 96.444H693.99V108.736H692.086V96.444ZM686.346 96.528H688.166V101.624C688.166 103.332 687.494 107 684.33 109.128C684.05 108.736 683.406 108.148 682.93 107.868C685.758 106.132 686.346 103.164 686.346 101.624V96.528ZM679.822 88.576H687.69V90.088H679.822V88.576ZM692.73 88.576H700.654V90.088H692.73V88.576ZM699.842 84.684H701.914V106.524C701.914 107.784 701.634 108.456 700.794 108.82C699.954 109.184 698.554 109.212 696.426 109.212C696.342 108.652 696.062 107.672 695.754 107.084C697.294 107.14 698.806 107.14 699.254 107.112C699.702 107.112 699.842 106.944 699.842 106.524V84.684ZM679.99 84.684H688.978V94.12H679.99V92.524H686.99V86.308H679.99V84.684ZM700.85 84.684V86.308H693.458V92.552H700.85V94.148H691.442V84.684H700.85ZM678.73 84.684H680.802V109.268H678.73V84.684ZM710.034 93.448H725.434V95.436H710.034V93.448ZM707.234 84.684H715.578V86.56H707.234V84.684ZM706.506 99.636H728.85V101.568H706.506V99.636ZM714.85 84.684H715.242L715.634 84.6L717.034 85.272C714.99 90.816 710.398 94.792 705.834 96.836C705.554 96.36 704.938 95.632 704.518 95.24C708.718 93.532 713.142 89.668 714.85 85.104V84.684ZM713.03 94.4H715.102V99.188C715.102 103.08 714.206 106.972 707.29 109.38C707.01 108.904 706.366 108.12 705.918 107.728C712.274 105.6 713.03 102.324 713.03 99.16V94.4ZM719.946 83.592C721.906 88.66 725.938 93.084 730.922 95.016C730.446 95.464 729.802 96.276 729.466 96.808C724.37 94.54 720.31 89.808 718.098 84.124L719.946 83.592ZM706.842 88.66L708.186 87.512C709.502 88.436 711.154 89.78 711.966 90.648L710.566 91.908C709.782 91.04 708.158 89.64 706.842 88.66ZM725.154 83.788L726.778 84.908C725.35 86.336 723.474 87.904 722.046 88.884L720.758 87.876C722.158 86.84 724.09 85.076 725.154 83.788ZM728.486 87.008L730.054 88.128C728.514 89.584 726.498 91.18 724.93 92.244L723.642 91.236C725.182 90.172 727.282 88.324 728.486 87.008ZM720.002 94.456H722.158V106.076C722.158 106.972 722.326 107.14 723.306 107.14C723.726 107.14 725.938 107.14 726.498 107.14C727.394 107.14 727.534 106.58 727.646 103.584C728.122 103.948 728.962 104.312 729.55 104.424C729.354 108.036 728.766 109.044 726.694 109.044C726.162 109.044 723.502 109.044 722.998 109.044C720.618 109.044 720.002 108.4 720.002 106.076V94.456Z" fill="white"/>
</svg>
