<svg width="448" height="277" viewBox="0 0 448 277" fill="none" xmlns="http://www.w3.org/2000/svg">
<rect x="155" width="293" height="138" rx="6" fill="#BDE3FF"/>
<rect x="258" y="91" width="87" height="36" rx="3" fill="#FFA629"/>
<path d="M278.164 106.504H283.348V107.608H278.164V106.504ZM278.164 110.568H283.348V111.656H278.164V110.568ZM277.54 102.472H283.988V115.416H282.788V103.56H278.708V115.416H277.54V102.472ZM275.86 114.728H285.22V115.832H275.86V114.728ZM272.884 101.576L273.956 101.976C273.348 103.16 272.58 104.584 271.956 105.448L271.124 105.096C271.732 104.168 272.468 102.632 272.884 101.576ZM274.82 103.4L275.86 103.848C274.74 105.64 273.172 107.944 271.956 109.32L271.188 108.92C272.42 107.496 273.94 105.096 274.82 103.4ZM270.356 104.936L270.964 104.136C271.86 104.888 272.868 105.944 273.3 106.648L272.66 107.56C272.228 106.808 271.22 105.704 270.356 104.936ZM274.308 107.112L275.204 106.728C275.876 107.752 276.564 109.128 276.804 110.008L275.844 110.456C275.604 109.56 274.964 108.168 274.308 107.112ZM270.324 108.728C271.764 108.68 273.892 108.6 276.004 108.504V109.48C273.972 109.608 271.94 109.72 270.42 109.8L270.324 108.728ZM274.708 110.936L275.62 110.648C276.084 111.624 276.532 112.888 276.708 113.72L275.732 114.056C275.588 113.224 275.156 111.928 274.708 110.936ZM271.204 110.712L272.244 110.904C272.02 112.408 271.62 113.96 271.108 114.984C270.9 114.856 270.42 114.632 270.164 114.52C270.692 113.544 271.012 112.12 271.204 110.712ZM273.044 109.192H274.132V116.328H273.044V109.192ZM293.284 101.56H294.388V103.864H293.284V101.56ZM291.86 104.536L292.708 104.344C292.98 105.064 293.204 106.04 293.236 106.664L292.324 106.888C292.308 106.248 292.116 105.272 291.86 104.536ZM291.124 103.336H296.58V104.296H291.124V103.336ZM290.772 106.84H300.82V107.832H290.772V106.84ZM292.26 111.208H295.556V112.072H292.26V111.208ZM292.196 108.84H296.164V114.472H292.196V113.576H295.156V109.736H292.196V108.84ZM291.796 108.84H292.756V115.432H291.796V108.84ZM295.028 104.28L296.052 104.52C295.764 105.336 295.476 106.28 295.204 106.888L294.372 106.664C294.596 106.008 294.884 104.968 295.028 104.28ZM296.884 101.64H297.94C297.94 109.144 298.436 114.952 299.716 115.032C299.988 115.048 300.18 114.184 300.292 112.76C300.468 113 300.9 113.288 301.092 113.384C300.788 115.752 300.244 116.392 299.7 116.376C297.348 116.28 296.996 110.088 296.884 101.64ZM298.276 103.016L299.172 102.632C299.796 103.528 300.468 104.712 300.756 105.48L299.812 105.912C299.524 105.144 298.868 103.912 298.276 103.016ZM299.476 108.664L300.452 108.92C299.588 112.056 297.86 114.632 295.284 116.328C295.124 116.104 294.772 115.752 294.532 115.576C297.012 113.992 298.724 111.576 299.476 108.664ZM288.276 101.576L289.316 101.944C288.82 103.08 288.196 104.504 287.7 105.368L286.884 105.048C287.38 104.136 287.972 102.632 288.276 101.576ZM289.892 103.416L290.884 103.848C289.924 105.624 288.596 107.896 287.524 109.288L286.804 108.904C287.844 107.496 289.156 105.112 289.892 103.416ZM286.196 104.808L286.74 104.008C287.54 104.792 288.436 105.832 288.788 106.536L288.212 107.48C287.844 106.728 286.964 105.608 286.196 104.808ZM289.268 107.08L290.116 106.76C290.708 107.784 291.268 109.112 291.444 109.976L290.532 110.344C290.372 109.496 289.828 108.12 289.268 107.08ZM286.036 108.648C287.252 108.6 288.98 108.504 290.756 108.408L290.74 109.368C289.092 109.512 287.444 109.64 286.148 109.72L286.036 108.648ZM289.7 110.888L290.548 110.632C290.932 111.576 291.268 112.824 291.396 113.624L290.5 113.912C290.404 113.096 290.052 111.832 289.7 110.888ZM286.804 110.712L287.764 110.872C287.62 112.376 287.316 113.928 286.9 114.952C286.708 114.824 286.26 114.616 286.02 114.52C286.468 113.544 286.676 112.104 286.804 110.712ZM288.308 109.112H289.332V116.28H288.308V109.112ZM305.732 114.824H314.196V115.752H305.732V114.824ZM308.788 104.808H309.956V106.584H308.788V104.808ZM302.708 106.056H316.228V109.064H315.044V107.016H303.86V109.064H302.708V106.056ZM305.668 108.008H313.876V111.224H305.668V110.296H312.692V108.92H305.668V108.008ZM305.716 112.328H314.9V116.264H313.716V113.272H305.716V112.328ZM305.028 108.008H306.18V116.296H305.028V108.008ZM304.02 102.792H309.188V103.784H304.02V102.792ZM310.26 102.792H316.724V103.784H310.26V102.792ZM304.324 101.496L305.46 101.784C304.868 103.192 303.924 104.584 302.996 105.496C302.772 105.32 302.292 104.984 302.004 104.84C302.964 104.008 303.828 102.744 304.324 101.496ZM310.628 101.496L311.764 101.768C311.188 103.16 310.18 104.456 309.172 105.288C308.932 105.112 308.436 104.824 308.132 104.68C309.188 103.912 310.116 102.728 310.628 101.496ZM304.916 103.544L305.956 103.272C306.324 103.832 306.74 104.616 306.9 105.112L305.812 105.432C305.668 104.936 305.284 104.136 304.916 103.544ZM311.7 103.56L312.756 103.24C313.252 103.8 313.828 104.584 314.068 105.112L312.98 105.464C312.756 104.952 312.212 104.136 311.7 103.56ZM324.836 106.376V108.44H330.788V106.376H324.836ZM324.836 103.352V105.384H330.788V103.352H324.836ZM323.748 102.312H331.94V109.48H323.748V102.312ZM323.54 111.352H332.164V112.456H323.54V111.352ZM322.308 114.664H332.692V115.752H322.308V114.664ZM317.956 102.648H322.948V103.784H317.956V102.648ZM318.132 107.272H322.724V108.408H318.132V107.272ZM317.796 113.4C319.092 113.048 321.012 112.424 322.868 111.8L323.076 112.952C321.332 113.544 319.508 114.152 318.084 114.632L317.796 113.4ZM319.956 103.096H321.108V113.016L319.956 113.24V103.096ZM327.284 102.808H328.34V108.968H328.42V115.16H327.204V108.968H327.284V102.808Z" fill="black" fill-opacity="0.8"/>
<rect x="165" y="91" width="86" height="36" rx="3" fill="#FFA629"/>
<path d="M202.008 102.68H203.112C202.776 105.272 201.992 107.864 199.192 109.256C199.064 109 198.728 108.6 198.472 108.408C201.08 107.208 201.736 104.872 202.008 102.68ZM199.064 104.968L199.656 104.136C201.32 104.696 203.32 105.688 204.376 106.424L203.8 107.368C202.728 106.584 200.728 105.528 199.064 104.968ZM205.784 102.248H206.92C206.92 102.248 206.92 102.6 206.904 102.76C206.744 106.536 206.584 107.96 206.184 108.424C205.928 108.728 205.656 108.84 205.224 108.888C204.84 108.92 204.088 108.904 203.336 108.872C203.32 108.536 203.208 108.072 203.032 107.784C203.768 107.848 204.44 107.848 204.696 107.848C204.952 107.864 205.096 107.816 205.208 107.688C205.496 107.352 205.656 106.072 205.784 102.456V102.248ZM200.872 110.776H201.992V114.632C201.992 115.032 202.056 115.096 202.504 115.096C202.712 115.096 203.752 115.096 204.008 115.096C204.44 115.096 204.504 114.872 204.552 113.272C204.776 113.464 205.256 113.624 205.576 113.72C205.448 115.672 205.144 116.168 204.136 116.168C203.88 116.168 202.616 116.168 202.36 116.168C201.144 116.168 200.872 115.832 200.872 114.648V110.776ZM199.352 111.32L200.328 111.56C200.152 112.984 199.816 114.536 198.968 115.432L198.072 114.84C198.84 114.056 199.192 112.648 199.352 111.32ZM201.144 109.304L201.848 108.6C202.904 109.16 204.136 110.024 204.728 110.696L203.976 111.512C203.4 110.84 202.184 109.912 201.144 109.304ZM204.872 111.432L205.864 111.032C206.728 112.2 207.448 113.768 207.688 114.856L206.616 115.304C206.408 114.216 205.704 112.6 204.872 111.432ZM199.208 102.248H206.28V103.288H199.208V102.248ZM193.416 106.408H197.96V107.368H193.416V106.408ZM193.48 102.136H197.896V103.096H193.48V102.136ZM193.416 108.552H197.96V109.512H193.416V108.552ZM192.696 104.232H198.408V105.224H192.696V104.232ZM193.944 110.712H197.96V115.384H193.944V114.376H196.92V111.704H193.944V110.712ZM193.4 110.712H194.424V116.12H193.4V110.712ZM219.848 103.064H221.096V114.568C221.096 115.432 220.888 115.848 220.264 116.04C219.624 116.248 218.504 116.264 216.92 116.264C216.84 115.912 216.6 115.32 216.408 114.968C217.704 115.032 219 115.016 219.384 115C219.736 114.984 219.848 114.872 219.848 114.536V103.064ZM210.44 106.264H211.608V113.512H210.44V106.264ZM210.936 106.264H217V112.232H210.936V111.08H215.8V107.4H210.936V106.264ZM208.792 102.696H223.064V103.912H208.792V102.696Z" fill="black" fill-opacity="0.8"/>
<path d="M182.796 12.2647H204.3V14.6887H182.796V12.2647ZM187.86 10.8967H190.716V16.2487H187.86V10.8967ZM196.236 10.8967H199.116V16.2487H196.236V10.8967ZM191.436 21.6247V22.8487H195.54V21.6247H191.436ZM191.436 18.6487V19.8727H195.54V18.6487H191.436ZM188.892 16.8007H198.204V24.7207H188.892V16.8007ZM192.204 15.0487L195.036 15.4567C194.532 16.4647 194.076 17.3527 193.74 18.0247L191.34 17.5687C191.652 16.8247 192.012 15.7927 192.204 15.0487ZM201.348 15.9127L203.82 17.0887C202.86 18.3367 201.66 19.5607 200.724 20.3767L198.492 19.2967C199.428 18.4087 200.652 16.9687 201.348 15.9127ZM182.796 25.7767H204.204V28.2007H182.796V25.7767ZM192.036 24.3367H194.892V33.4087H192.036V24.3367ZM191.244 26.7127L193.428 27.6727C191.268 30.1927 187.596 32.2807 183.948 33.2887C183.588 32.5927 182.796 31.5847 182.22 31.0327C185.724 30.2887 189.372 28.6567 191.244 26.7127ZM195.588 26.8807C197.412 28.8007 201.084 30.2887 204.756 30.9127C204.18 31.4407 203.436 32.4967 203.076 33.1687C199.284 32.2807 195.66 30.3127 193.5 27.6967L195.588 26.8807ZM183.156 17.4247L185.244 15.9847C186.348 16.8727 187.644 18.1927 188.196 19.1527L185.964 20.7367C185.484 19.7767 184.236 18.3847 183.156 17.4247ZM197.844 22.2247L199.476 20.4487C200.964 21.2647 203.148 22.5127 204.204 23.3527L202.5 25.3207C201.492 24.4567 199.38 23.1127 197.844 22.2247ZM182.676 22.8727C184.092 22.3687 186.132 21.4807 188.196 20.6407L188.796 22.8967C187.116 23.7367 185.316 24.5767 183.828 25.2967L182.676 22.8727ZM219.684 14.8327C219.348 17.2807 218.868 20.0887 218.028 22.9207C216.588 27.7687 214.524 30.7447 211.908 30.7447C209.22 30.7447 207.012 27.7927 207.012 23.7367C207.012 18.2167 211.836 13.4647 218.052 13.4647C223.98 13.4647 227.748 17.5927 227.748 22.8487C227.748 27.8887 224.652 31.4647 218.604 32.4007L216.78 29.5687C217.716 29.4487 218.388 29.3287 219.036 29.1847C222.084 28.4407 224.484 26.2567 224.484 22.7287C224.484 18.9607 222.132 16.2727 217.98 16.2727C212.892 16.2727 210.108 20.4247 210.108 23.4487C210.108 25.8727 211.068 27.0487 211.98 27.0487C213.012 27.0487 213.924 25.5127 214.932 22.2727C215.628 20.0167 216.156 17.2567 216.396 14.7367L219.684 14.8327ZM230.82 14.2327H252.228V16.9927H230.82V14.2327ZM238.644 22.0087H251.22V24.6727H238.644V22.0087ZM237.708 30.1687H252.132V32.8327H237.708V30.1687ZM243.54 18.0247H246.444V31.5847H243.54V18.0247ZM238.38 10.8727L241.38 11.5927C239.604 17.3767 236.58 23.2087 231.444 26.7127C231.156 25.8967 230.484 24.6247 230.052 23.9287C234.396 21.0967 237.132 15.7207 238.38 10.8727ZM233.58 20.9287H236.484V33.3847H233.58V20.9287ZM259.764 16.6087H275.796V18.7687H259.764V16.6087ZM258.756 28.5367H276.612V30.8647H258.756V28.5367ZM266.052 15.2407H268.788V33.4807H266.052V15.2407ZM262.956 24.4327V25.6327H272.052V24.4327H262.956ZM262.956 21.6247V22.7767H272.052V21.6247H262.956ZM260.46 19.8487H274.692V27.3847H260.46V19.8487ZM264.756 10.8967H267.756V14.2807H264.756V10.8967ZM257.46 12.7687H276.42V15.2647H257.46V12.7687ZM256.116 12.7687H258.852V20.5927C258.852 24.4087 258.492 29.9527 256.284 33.4087C255.804 32.9047 254.604 32.0647 253.98 31.7767C255.948 28.6087 256.116 24.0007 256.116 20.5927V12.7687ZM284.58 30.6967H296.292V32.8087H284.58V30.6967ZM288.012 15.9367H290.796V18.8167H288.012V15.9367ZM279.156 17.5927H300.036V22.3687H297.228V19.7527H281.868V22.3687H279.156V17.5927ZM284.484 20.7607H296.244V26.1367H284.484V24.0727H293.364V22.8247H284.484V20.7607ZM284.604 27.2167H298.068V33.4567H295.188V29.3287H284.604V27.2167ZM282.9 20.7607H285.636V33.4807H282.9V20.7607ZM281.58 12.5767H289.14V14.8327H281.58V12.5767ZM291.3 12.5767H300.612V14.8327H291.3V12.5767ZM281.676 10.7047L284.364 11.4247C283.428 13.5847 281.892 15.7687 280.476 17.1367C279.924 16.7047 278.772 15.9367 278.124 15.6007C279.564 14.4007 280.932 12.5287 281.676 10.7047ZM291.444 10.7047L294.18 11.3767C293.316 13.4407 291.828 15.4327 290.388 16.6807C289.812 16.2487 288.588 15.6247 287.868 15.3127C289.404 14.2087 290.748 12.4567 291.444 10.7047ZM282.468 14.3287L284.916 13.6807C285.516 14.4967 286.188 15.6487 286.476 16.4167L283.884 17.1607C283.668 16.4167 283.044 15.1927 282.468 14.3287ZM293.196 14.4007L295.716 13.7287C296.412 14.5207 297.252 15.6727 297.636 16.4407L294.972 17.1847C294.66 16.4647 293.868 15.2407 293.196 14.4007ZM313.812 18.6247V20.6887H321.084V18.6247H313.812ZM313.812 14.3527V16.3687H321.084V14.3527H313.812ZM311.22 11.9047H323.82V23.1127H311.22V11.9047ZM311.052 25.1767H324.084V27.7687H311.052V25.1767ZM309.372 30.0727H324.876V32.6647H309.372V30.0727ZM302.34 12.2647H310.308V14.9527H302.34V12.2647ZM302.58 19.1767H309.9V21.8407H302.58V19.1767ZM302.076 28.2967C304.14 27.7687 307.212 26.8087 310.092 25.8727L310.596 28.6327C307.908 29.5447 305.028 30.4807 302.724 31.2247L302.076 28.2967ZM305.004 13.3207H307.74V28.0807L305.004 28.5127V13.3207ZM316.284 12.9367H318.708V21.9847H318.972V31.2967H316.02V21.9847H316.284V12.9367ZM343.452 20.6887C343.452 26.6167 342.012 30.2407 336.204 32.8087L333.636 30.3847C338.292 28.7767 340.308 26.6887 340.308 20.7847V14.4007C340.308 13.4407 340.26 12.6487 340.164 12.1927H343.596C343.548 12.6727 343.452 13.4407 343.452 14.4007V20.6887ZM334.764 12.3847C334.716 12.8407 334.62 13.6087 334.62 14.5687V23.1367C334.62 24.2167 334.692 25.2007 334.74 25.6567H331.38C331.428 25.2007 331.5 24.2167 331.5 23.1367V14.5447C331.5 13.8727 331.452 13.1287 331.356 12.3847H334.764ZM326.868 16.7047C327.3 16.7767 328.284 16.9447 329.46 16.9447H345.204C346.476 16.9447 347.196 16.8727 347.868 16.7767V19.9687C347.34 19.8967 346.476 19.8967 345.228 19.8967H329.46C328.26 19.8967 327.42 19.9447 326.868 19.9687V16.7047ZM351.684 20.1607C352.572 20.2327 354.3 20.3287 355.548 20.3287C358.38 20.3287 366.3 20.3287 368.436 20.3287C369.564 20.3287 370.62 20.2087 371.268 20.1607V23.9527C370.692 23.9287 369.468 23.8087 368.46 23.8087C366.276 23.8087 358.38 23.8087 355.548 23.8087C354.204 23.8087 352.596 23.8807 351.684 23.9527V20.1607ZM391.212 11.8327C391.812 12.7207 392.652 14.2327 393.108 15.1207L391.188 15.9607C390.684 14.9767 389.964 13.5607 389.316 12.6247L391.212 11.8327ZM394.044 10.7527C394.668 11.6647 395.556 13.1767 395.988 14.0167L394.068 14.8567C393.588 13.8487 392.796 12.4567 392.148 11.5447L394.044 10.7527ZM380.844 12.8887C380.748 13.6087 380.676 14.6887 380.676 15.3847C380.676 16.8487 380.676 25.6807 380.676 27.4807C380.676 28.5367 381.156 28.8007 382.236 28.9927C382.956 29.1127 383.94 29.1367 384.996 29.1367C387.516 29.1367 391.38 28.8487 393.372 28.3207V31.8247C391.092 32.1607 387.468 32.3047 384.828 32.3047C383.268 32.3047 381.804 32.2087 380.772 32.0407C378.708 31.6567 377.484 30.5287 377.484 28.4407C377.484 25.6807 377.484 16.8727 377.484 15.3847C377.484 14.8327 377.412 13.6087 377.316 12.8887H380.844ZM379.26 20.2567C382.356 19.5847 386.46 18.2887 388.98 17.2567C389.82 16.8967 390.636 16.5127 391.596 15.9607L392.868 18.9847C391.956 19.3687 390.876 19.8247 390.084 20.1367C387.252 21.2167 382.548 22.6327 379.284 23.4007L379.26 20.2567ZM417.492 15.0247C417.3 15.2887 416.868 16.0087 416.652 16.5127C415.668 18.7927 413.892 22.0567 411.828 24.4567C409.14 27.5527 405.516 30.5287 401.796 32.2807L399.3 29.6887C403.188 28.2487 406.884 25.3207 409.14 22.8247C410.724 21.0247 412.188 18.6487 412.74 16.9447C411.732 16.9447 405.612 16.9447 404.58 16.9447C403.596 16.9447 402.276 17.0647 401.748 17.1127V13.6807C402.396 13.7767 403.884 13.8487 404.58 13.8487C405.852 13.8487 411.996 13.8487 413.052 13.8487C414.108 13.8487 415.044 13.7287 415.548 13.5607L417.492 15.0247ZM412.14 22.4647C414.612 24.4807 418.02 28.0567 419.58 29.9767L416.844 32.3527C415.068 29.8807 412.452 27.0247 409.884 24.6967L412.14 22.4647Z" fill="#1E1E1E"/>
<rect x="165" y="43" width="86.4" height="36" rx="3" fill="#2171C1"/>
<path d="M193.28 56.04H207.296V57.208H193.28V56.04ZM198.24 61.112H206.672V62.232H198.24V61.112ZM197.616 66.776H207.296V67.912H197.616V66.776ZM201.856 58.024H203.056V67.384H201.856V58.024ZM198.544 53.56L199.776 53.864C198.656 57.528 196.704 61.256 193.52 63.544C193.392 63.224 193.088 62.712 192.896 62.44C195.776 60.408 197.648 56.856 198.544 53.56ZM195.376 60.152H196.576V68.232H195.376V60.152ZM212.032 57.352H222.88V58.296H212.032V57.352ZM211.328 65.368H223.392V66.376H211.328V65.368ZM216.672 56.184H217.824V68.296H216.672V56.184ZM213.696 62.184V63.416H220.928V62.184H213.696ZM213.696 60.2V61.4H220.928V60.2H213.696ZM212.64 59.368H222.048V64.232H212.64V59.368ZM215.952 53.576H217.184V55.608H215.952V53.576ZM210.56 54.984H223.28V56.04H210.56V54.984ZM210 54.984H211.136V59.992C211.136 62.456 210.928 65.976 209.568 68.312C209.36 68.088 208.864 67.752 208.608 67.64C209.872 65.416 210 62.296 210 59.992V54.984Z" fill="white"/>
<rect x="349.8" y="43" width="86.4" height="36" rx="3" fill="#2171C1"/>
<path d="M380.688 59.256H389.488V60.392H380.688V59.256ZM379.088 54.248H383.856V55.32H379.088V54.248ZM378.672 62.792H391.44V63.896H378.672V62.792ZM383.44 54.248H383.664L383.888 54.2L384.688 54.584C383.52 57.752 380.896 60.024 378.288 61.192C378.128 60.92 377.776 60.504 377.536 60.28C379.936 59.304 382.464 57.096 383.44 54.488V54.248ZM382.4 59.8H383.584V62.536C383.584 64.76 383.072 66.984 379.12 68.36C378.96 68.088 378.592 67.64 378.336 67.416C381.968 66.2 382.4 64.328 382.4 62.52V59.8ZM386.352 53.624C387.472 56.52 389.776 59.048 392.624 60.152C392.352 60.408 391.984 60.872 391.792 61.176C388.88 59.88 386.56 57.176 385.296 53.928L386.352 53.624ZM378.864 56.52L379.632 55.864C380.384 56.392 381.328 57.16 381.792 57.656L380.992 58.376C380.544 57.88 379.616 57.08 378.864 56.52ZM389.328 53.736L390.256 54.376C389.44 55.192 388.368 56.088 387.552 56.648L386.816 56.072C387.616 55.48 388.72 54.472 389.328 53.736ZM391.232 55.576L392.128 56.216C391.248 57.048 390.096 57.96 389.2 58.568L388.464 57.992C389.344 57.384 390.544 56.328 391.232 55.576ZM386.384 59.832H387.616V66.472C387.616 66.984 387.712 67.08 388.272 67.08C388.512 67.08 389.776 67.08 390.096 67.08C390.608 67.08 390.688 66.76 390.752 65.048C391.024 65.256 391.504 65.464 391.84 65.528C391.728 67.592 391.392 68.168 390.208 68.168C389.904 68.168 388.384 68.168 388.096 68.168C386.736 68.168 386.384 67.8 386.384 66.472V59.832ZM400.352 54.424L401.136 53.528C402.448 54.2 404.08 55.256 404.864 56.04L404.016 57.048C403.28 56.248 401.68 55.128 400.352 54.424ZM398.896 61.608H407.36V62.76H398.896V61.608ZM397.76 66.648H408.288V67.8H397.76V66.648ZM398.304 57.016H407.952V58.168H398.304V57.016ZM402.416 57.432H403.648V67.176H402.416V57.432ZM394.448 54.568L395.104 53.688C396.16 54.088 397.504 54.808 398.16 55.368L397.456 56.376C396.816 55.784 395.52 55.032 394.448 54.568ZM393.52 58.936L394.144 58.024C395.216 58.376 396.592 59 397.28 59.512L396.64 60.536C395.968 60.008 394.608 59.336 393.52 58.936ZM394.112 67.256C394.976 66.04 396.24 63.928 397.168 62.104L398.032 62.888C397.184 64.584 396.064 66.584 395.12 68.072L394.112 67.256Z" fill="white"/>
<rect x="257.4" y="43" width="86.4" height="36" rx="3" fill="#2171C1"/>
<path d="M271.008 54.216H282.704V55.176H271.008V54.216ZM269.888 61.304H283.872V62.28H269.888V61.304ZM271.952 57.864H275.408V58.68H271.952V57.864ZM271.616 59.544H275.408V60.36H271.616V59.544ZM278.224 59.544H282.144V60.36H278.224V59.544ZM278.224 57.864H281.76V58.68H278.224V57.864ZM276.224 54.584H277.392V60.776H276.224V54.584ZM274.64 64.056H275.76V68.168H274.64V64.056ZM278.192 64.056H279.296V68.168H278.192V64.056ZM270.08 56.104H283.664V59.176H282.528V56.984H271.168V59.176H270.08V56.104ZM271.136 63.432H282.112V64.424H272.272V68.264H271.136V63.432ZM281.808 63.432H282.96V67.096C282.96 67.64 282.88 67.928 282.464 68.104C282.064 68.296 281.472 68.28 280.592 68.28C280.544 67.992 280.368 67.576 280.224 67.288C280.864 67.304 281.408 67.304 281.584 67.288C281.76 67.272 281.808 67.224 281.808 67.08V63.432ZM276.24 61.672L277.552 61.72C277.264 62.584 276.928 63.464 276.656 64.056L275.6 63.944C275.84 63.288 276.128 62.328 276.24 61.672ZM285.408 62.312H299.968V63.32H285.408V62.312ZM285.792 54.264H299.568V55.32H285.792V54.264ZM290.96 60.632L292.128 60.952C291.088 62.616 289.616 64.712 288.592 66.024L287.456 65.64C288.48 64.344 289.968 62.2 290.96 60.632ZM295.76 62.664L296.912 63C295.504 66.52 292.096 67.832 286.096 68.28C286.016 67.928 285.824 67.496 285.632 67.224C291.344 66.92 294.48 65.784 295.76 62.664ZM288.32 65.48L288.928 64.6C292.88 65.304 296.992 66.376 299.472 67.352L298.752 68.328C296.304 67.32 292.384 66.232 288.32 65.48ZM290.16 54.664H291.296V60.248H290.16V54.664ZM293.888 54.664H295.024V60.248H293.888V54.664ZM287.712 57.672V59.848H297.696V57.672H287.712ZM286.592 56.696H298.896V60.84H286.592V56.696ZM307.984 60.424H309.232V66.792C309.232 67.512 309.04 67.864 308.464 68.04C307.888 68.216 306.96 68.232 305.552 68.232C305.472 67.896 305.264 67.4 305.088 67.064C306.208 67.112 307.296 67.096 307.616 67.08C307.904 67.064 307.984 67 307.984 66.76V60.424ZM302.864 54.44H312.96V55.544H302.864V54.44ZM312.512 54.44H312.832L313.104 54.36L313.968 55.032C312.64 56.376 310.656 57.832 309.008 58.744C308.848 58.488 308.48 58.12 308.256 57.928C309.744 57.144 311.616 55.736 312.512 54.696V54.44ZM301.36 59.544H314.752V60.696H301.36V59.544ZM305.056 57.4L305.68 56.52C307.536 57.272 310.16 58.424 311.536 59.128L310.88 60.152C309.568 59.432 306.96 58.216 305.056 57.4ZM314.336 59.544H314.576L314.8 59.464L315.76 59.896C314.896 61.304 313.872 62.856 312.896 63.816L311.888 63.224C312.704 62.36 313.696 60.968 314.336 59.768V59.544ZM322.368 58.312V60.312H324.912V58.312H322.368ZM322.368 61.304V63.304H324.912V61.304H322.368ZM322.368 55.352V57.32H324.912V55.352H322.368ZM321.328 54.28H326V64.376H321.328V54.28ZM324.16 65.16L325.072 64.648C325.728 65.416 326.544 66.472 326.912 67.128L325.952 67.72C325.6 67.048 324.816 65.944 324.16 65.16ZM322 64.712L323.104 65C322.56 66.248 321.648 67.528 320.8 68.344C320.576 68.152 320.112 67.832 319.84 67.672C320.688 66.92 321.52 65.8 322 64.712ZM329.984 53.576H331.104V66.776C331.104 67.528 330.912 67.864 330.464 68.056C330 68.264 329.248 68.28 327.936 68.28C327.872 67.976 327.728 67.464 327.568 67.144C328.512 67.176 329.36 67.16 329.616 67.144C329.888 67.144 329.984 67.064 329.984 66.792V53.576ZM327.2 55.224H328.256V64.376H327.2V55.224ZM317.632 54.6L318.32 53.736C319.216 54.152 320.32 54.84 320.864 55.352L320.144 56.328C319.632 55.784 318.528 55.048 317.632 54.6ZM316.928 58.904L317.6 58.024C318.544 58.392 319.696 59.016 320.256 59.512L319.568 60.488C319.008 59.992 317.872 59.32 316.928 58.904ZM317.264 67.448C317.92 66.216 318.832 64.12 319.488 62.328L320.448 62.968C319.84 64.632 319.04 66.6 318.336 68.088L317.264 67.448Z" fill="white"/>
<rect x="155" y="142" width="293" height="135" rx="6" fill="#BDE3FF"/>
<path d="M207.499 159.265H229.003V161.689H207.499V159.265ZM212.563 157.897H215.419V163.249H212.563V157.897ZM220.939 157.897H223.819V163.249H220.939V157.897ZM216.139 168.625V169.849H220.243V168.625H216.139ZM216.139 165.649V166.873H220.243V165.649H216.139ZM213.595 163.801H222.907V171.721H213.595V163.801ZM216.907 162.049L219.739 162.457C219.235 163.465 218.779 164.353 218.443 165.025L216.043 164.569C216.355 163.825 216.715 162.793 216.907 162.049ZM226.051 162.913L228.523 164.089C227.563 165.337 226.363 166.561 225.427 167.377L223.195 166.297C224.131 165.409 225.355 163.969 226.051 162.913ZM207.499 172.777H228.907V175.201H207.499V172.777ZM216.739 171.337H219.595V180.409H216.739V171.337ZM215.947 173.713L218.131 174.673C215.971 177.193 212.299 179.281 208.651 180.289C208.291 179.593 207.499 178.585 206.923 178.033C210.427 177.289 214.075 175.657 215.947 173.713ZM220.291 173.881C222.115 175.801 225.787 177.289 229.459 177.913C228.883 178.441 228.139 179.497 227.779 180.169C223.987 179.281 220.363 177.313 218.203 174.697L220.291 173.881ZM207.859 164.425L209.947 162.985C211.051 163.873 212.347 165.193 212.899 166.153L210.667 167.737C210.187 166.777 208.939 165.385 207.859 164.425ZM222.547 169.225L224.179 167.449C225.667 168.265 227.851 169.513 228.907 170.353L227.203 172.321C226.195 171.457 224.083 170.113 222.547 169.225ZM207.379 169.873C208.795 169.369 210.835 168.481 212.899 167.641L213.499 169.897C211.819 170.737 210.019 171.577 208.531 172.297L207.379 169.873ZM235.267 159.001H250.723V165.913H235.267V163.489H247.819V161.425H235.267V159.001ZM233.563 159.001H236.395V164.905C236.395 169.129 235.915 175.705 232.987 179.809C232.531 179.281 231.307 178.297 230.683 177.985C233.323 174.241 233.563 168.721 233.563 164.905V159.001ZM235.339 167.449H250.507V169.969H235.339V167.449ZM238.963 171.361H246.955V178.057H238.963V175.777H244.267V173.641H238.963V171.361ZM237.451 171.361H240.091V179.497H237.451V171.361ZM249.571 167.449H252.475C252.475 167.449 252.475 168.265 252.451 168.625C252.187 175.609 251.947 178.345 251.227 179.257C250.699 179.953 250.147 180.193 249.379 180.313C248.683 180.409 247.579 180.433 246.379 180.385C246.331 179.569 246.019 178.417 245.587 177.697C246.571 177.769 247.435 177.793 247.867 177.793C248.251 177.793 248.467 177.721 248.683 177.433C249.139 176.881 249.403 174.481 249.571 167.953V167.449ZM256.267 161.929H274.339V164.737H259.123V180.409H256.267V161.929ZM273.307 161.929H276.211V177.097C276.211 178.657 275.875 179.473 274.867 179.929C273.835 180.385 272.299 180.457 270.139 180.457C270.019 179.641 269.587 178.297 269.179 177.529C270.595 177.625 272.227 177.625 272.707 177.601C273.163 177.601 273.307 177.481 273.307 177.049V161.929ZM264.163 157.897L267.859 158.425C267.019 160.345 265.987 162.313 265.219 163.633L262.435 163.009C263.107 161.545 263.827 159.457 264.163 157.897ZM261.475 167.065H264.091V176.977H261.475V167.065ZM262.603 167.065H270.907V175.297H262.603V172.777H268.243V169.585H262.603V167.065ZM296.875 159.193C296.779 159.721 296.755 160.297 296.755 160.849C296.707 161.953 296.755 166.489 296.755 167.905C296.755 173.545 296.323 177.049 291.547 180.073L288.763 177.913C289.699 177.505 290.899 176.737 291.571 175.993C293.395 174.073 293.803 171.913 293.803 167.881C293.803 166.081 293.755 162.193 293.635 160.849C293.587 160.273 293.467 159.577 293.371 159.193H296.875ZM287.395 163.897C288.571 164.065 289.747 164.137 291.043 164.137C294.139 164.137 297.979 163.921 300.331 163.489V166.609C298.051 166.873 294.355 167.065 291.115 167.065C290.059 167.065 288.595 166.993 287.395 166.921V163.897ZM284.923 159.601C284.731 160.201 284.491 161.065 284.371 161.569C283.771 164.233 282.907 169.273 283.555 172.249C283.867 171.505 284.323 170.329 284.707 169.465L286.219 170.425C285.499 172.489 284.875 174.889 284.587 176.257C284.491 176.641 284.419 177.169 284.443 177.433C284.443 177.697 284.467 178.105 284.491 178.441L281.803 178.705C281.275 177.241 280.435 173.905 280.435 170.929C280.435 166.993 280.915 163.297 281.227 161.329C281.323 160.681 281.347 159.865 281.371 159.265L284.923 159.601ZM303.72 178.273V160.818H310.709C311.993 160.818 313.064 161.009 313.922 161.389C314.78 161.77 315.425 162.298 315.857 162.974C316.288 163.645 316.504 164.418 316.504 165.293C316.504 165.974 316.368 166.574 316.095 167.091C315.822 167.602 315.447 168.023 314.97 168.352C314.499 168.676 313.959 168.906 313.351 169.043V169.213C314.016 169.241 314.638 169.429 315.217 169.776C315.803 170.122 316.277 170.608 316.641 171.233C317.004 171.852 317.186 172.591 317.186 173.449C317.186 174.375 316.956 175.202 316.496 175.929C316.041 176.651 315.368 177.222 314.476 177.642C313.584 178.062 312.484 178.273 311.178 178.273H303.72ZM307.411 175.256H310.419C311.447 175.256 312.197 175.06 312.669 174.668C313.141 174.27 313.376 173.741 313.376 173.082C313.376 172.599 313.26 172.173 313.027 171.804C312.794 171.435 312.462 171.145 312.03 170.935C311.604 170.724 311.095 170.619 310.504 170.619H307.411V175.256ZM307.411 168.122H310.146C310.652 168.122 311.101 168.034 311.493 167.858C311.891 167.676 312.203 167.42 312.43 167.091C312.663 166.761 312.78 166.366 312.78 165.906C312.78 165.276 312.555 164.767 312.107 164.381C311.663 163.994 311.033 163.801 310.214 163.801H307.411V168.122ZM323.278 160.818V178.273H319.587V160.818H323.278ZM336.149 159.577C336.725 160.777 338.189 164.473 338.669 166.009L335.645 167.065C335.189 165.553 333.845 162.049 333.149 160.561L336.149 159.577ZM347.093 161.497C346.829 162.097 346.613 162.841 346.469 163.369C345.797 165.985 344.429 169.801 342.461 172.393C339.941 175.729 336.437 178.153 333.029 179.449L330.341 176.737C333.605 175.801 337.349 173.641 339.821 170.545C341.621 168.265 343.109 164.161 343.517 160.489L347.093 161.497ZM329.453 161.065C330.197 162.601 331.685 166.177 332.237 167.785L329.165 168.913C328.661 167.377 327.077 163.417 326.405 162.145L329.453 161.065ZM350.981 167.161C351.869 167.233 353.597 167.329 354.845 167.329C357.677 167.329 365.597 167.329 367.733 167.329C368.861 167.329 369.917 167.209 370.565 167.161V170.953C369.989 170.929 368.765 170.809 367.757 170.809C365.573 170.809 357.677 170.809 354.845 170.809C353.501 170.809 351.893 170.881 350.981 170.953V167.161ZM384.845 177.745C384.965 177.289 385.037 176.641 385.037 175.993C385.037 174.721 385.037 163.945 385.037 162.001C385.037 160.921 384.869 159.985 384.869 159.937H388.421C388.421 159.985 388.253 160.945 388.253 162.025C388.253 163.945 388.253 173.089 388.253 174.553C390.221 173.713 392.573 171.817 394.205 169.489L396.029 172.153C394.037 174.745 390.605 177.337 387.893 178.705C387.389 178.969 387.101 179.233 386.861 179.401L384.845 177.745ZM373.733 177.409C375.869 175.921 377.165 173.713 377.813 171.649C378.509 169.609 378.533 165.049 378.533 162.169C378.533 161.185 378.437 160.561 378.293 159.961H381.821C381.821 160.057 381.653 161.137 381.653 162.121C381.653 164.977 381.581 170.041 380.957 172.465C380.213 175.153 378.725 177.529 376.661 179.353L373.733 177.409Z" fill="#1E1E1E"/>
<rect x="165" y="189" width="135" height="36" rx="3" fill="#2171C1"/>
<path d="M183.684 200.392H190.772V201.448H183.684V200.392ZM184.292 209.016H191.716V210.104H184.292V209.016ZM183.252 212.728H192.42V213.816H183.252V212.728ZM190.436 200.392H190.676L190.9 200.344L191.716 200.712C190.42 204.392 187.412 206.456 184.02 207.544C183.876 207.24 183.572 206.792 183.332 206.552C186.468 205.672 189.348 203.672 190.436 200.6V200.392ZM185.764 201.336C186.9 203.928 189.364 205.8 192.612 206.52C192.356 206.744 192.036 207.208 191.86 207.512C188.516 206.632 186.02 204.632 184.692 201.688L185.764 201.336ZM187.364 206.712H188.532V213.416H187.364V206.712ZM180.148 199.576L181.204 199.992C180.596 201.16 179.844 202.584 179.22 203.464L178.388 203.08C178.996 202.168 179.732 200.632 180.148 199.576ZM181.94 201.4L182.948 201.848C181.86 203.688 180.324 206.008 179.14 207.416L178.404 207C179.588 205.56 181.092 203.128 181.94 201.4ZM177.62 202.936L178.228 202.152C179.124 202.904 180.132 203.944 180.564 204.664L179.924 205.576C179.492 204.824 178.484 203.704 177.62 202.936ZM181.38 205.112L182.212 204.776C182.868 205.8 183.508 207.176 183.732 208.056L182.836 208.472C182.612 207.576 182.02 206.168 181.38 205.112ZM177.572 206.744C178.964 206.696 180.964 206.616 182.996 206.504L182.98 207.496C181.06 207.624 179.124 207.736 177.668 207.832L177.572 206.744ZM181.796 208.888L182.66 208.616C183.108 209.512 183.54 210.728 183.7 211.528L182.772 211.848C182.628 211.048 182.196 209.816 181.796 208.888ZM178.468 208.712L179.508 208.904C179.284 210.408 178.884 211.96 178.372 212.984C178.164 212.856 177.684 212.632 177.428 212.52C177.956 211.544 178.276 210.12 178.468 208.712ZM180.196 207.192H181.268V214.328H180.196V207.192ZM197.812 205.304V207.16H204.004V205.304H197.812ZM196.692 204.376H205.172V208.088H196.692V204.376ZM200.068 207.64L201.412 207.768C201.124 208.568 200.788 209.4 200.516 209.976L199.476 209.784C199.7 209.176 199.956 208.264 200.068 207.64ZM195.556 209.368H206.452V214.28H205.252V210.44H196.708V214.296H195.556V209.368ZM196.164 212.632H205.78V213.688H196.164V212.632ZM194.324 202.104H207.572V205.256H206.404V203.144H195.428V205.256H194.324V202.104ZM205.364 199.704L206.612 200.136C205.956 201.016 205.188 201.992 204.564 202.632L203.604 202.216C204.196 201.544 204.948 200.472 205.364 199.704ZM195.268 200.232L196.292 199.784C196.868 200.424 197.524 201.304 197.796 201.896L196.724 202.392C196.452 201.8 195.844 200.888 195.268 200.232ZM199.268 199.912L200.308 199.544C200.804 200.216 201.364 201.176 201.572 201.8L200.484 202.216C200.276 201.592 199.748 200.616 199.268 199.912ZM215.716 199.624H216.9V204.184C216.9 204.728 217.092 204.824 218.132 204.824C218.628 204.824 221.092 204.824 221.732 204.824C222.628 204.824 222.756 204.536 222.868 202.808C223.124 203 223.636 203.176 223.956 203.256C223.78 205.384 223.396 205.912 221.812 205.912C221.396 205.912 218.468 205.912 218.068 205.912C216.228 205.912 215.716 205.56 215.716 204.168V199.624ZM222.052 200.52L222.98 201.4C221.268 202.088 218.74 202.68 216.58 203.08C216.516 202.808 216.34 202.408 216.196 202.168C218.276 201.768 220.708 201.128 222.052 200.52ZM215.716 207.256H223.268V214.2H222.068V208.28H216.852V214.28H215.716V207.256ZM216.308 209.88H222.5V210.856H216.308V209.88ZM216.276 212.536H222.532V213.528H216.276V212.536ZM209.172 208.056C210.58 207.688 212.724 207.08 214.756 206.472L214.916 207.576C213.028 208.168 211.028 208.776 209.508 209.208L209.172 208.056ZM209.364 202.792H214.676V203.928H209.364V202.792ZM211.604 199.576H212.788V212.872C212.788 213.544 212.644 213.88 212.212 214.056C211.796 214.248 211.14 214.28 210.068 214.264C210.036 213.976 209.86 213.48 209.716 213.176C210.436 213.192 211.108 213.192 211.3 213.176C211.524 213.176 211.604 213.112 211.604 212.872V199.576ZM231.508 207.192H239.044V208.104H231.508V207.192ZM230.58 200.28H239.86V201.272H230.58V200.28ZM230.5 209.272H239.86V210.264H230.5V209.272ZM236.852 211.24L237.716 210.664C238.532 211.4 239.508 212.424 239.972 213.096L239.076 213.752C238.628 213.08 237.668 212.008 236.852 211.24ZM232.116 203.32V205.304H238.388V203.32H232.116ZM231.092 202.392H239.444V206.232H231.092V202.392ZM234.58 209.72H235.7V213.096C235.7 213.656 235.62 213.96 235.188 214.12C234.772 214.296 234.132 214.296 233.14 214.296C233.076 213.992 232.916 213.592 232.772 213.304C233.54 213.32 234.148 213.32 234.324 213.304C234.532 213.304 234.58 213.24 234.58 213.08V209.72ZM232.356 210.616L233.284 211.144C232.644 212.088 231.636 213.064 230.676 213.736C230.484 213.512 230.164 213.208 229.908 213.016C230.852 212.408 231.828 211.432 232.356 210.616ZM233.46 200.824H234.436V202.952H233.46V200.824ZM233.556 202.808H234.436V205.848H233.556V202.808ZM235.924 200.824H236.9V202.952H235.924V200.824ZM235.924 202.808H236.804V205.848H235.924V202.808ZM225.316 203.032H230.468V204.168H225.316V203.032ZM227.572 199.56H228.676V214.264H227.572V199.56ZM227.54 203.704L228.276 203.96C227.78 206.488 226.724 209.64 225.604 211.24C225.476 210.936 225.188 210.472 224.996 210.216C226.052 208.776 227.092 205.992 227.54 203.704ZM228.596 205.16C228.964 205.608 230.308 207.624 230.596 208.088L229.924 208.984C229.572 208.184 228.468 206.312 228.052 205.672L228.596 205.16ZM252.26 201.064H253.508V212.568C253.508 213.432 253.3 213.848 252.676 214.04C252.036 214.248 250.916 214.264 249.332 214.264C249.252 213.912 249.012 213.32 248.82 212.968C250.116 213.032 251.412 213.016 251.796 213C252.148 212.984 252.26 212.872 252.26 212.536V201.064ZM242.852 204.264H244.02V211.512H242.852V204.264ZM243.348 204.264H249.412V210.232H243.348V209.08H248.212V205.4H243.348V204.264ZM241.204 200.696H255.476V201.912H241.204V200.696ZM267.428 209.048H268.532V212.696C268.532 213.08 268.596 213.144 268.964 213.144C269.124 213.144 269.956 213.144 270.164 213.144C270.532 213.144 270.596 212.92 270.644 211.224C270.868 211.416 271.332 211.576 271.636 211.656C271.524 213.672 271.22 214.168 270.308 214.168C270.068 214.168 269.028 214.168 268.804 214.168C267.684 214.168 267.428 213.832 267.428 212.696V209.048ZM264.82 204.008V205.704H269.268V204.008H264.82ZM264.82 206.648V208.36H269.268V206.648H264.82ZM264.82 201.384V203.048H269.268V201.384H264.82ZM263.7 200.392H270.42V209.352H263.7V200.392ZM265.012 209.016H266.18C265.908 211.512 265.172 213.288 262.516 214.296C262.388 214.024 262.052 213.592 261.812 213.368C264.196 212.568 264.788 211.064 265.012 209.016ZM257.028 202.568H262.02V203.672H257.028V202.568ZM259.364 207.352L260.532 205.944V214.28H259.364V207.352ZM259.364 199.576H260.532V203.112H259.364V199.576ZM260.532 206.104C261.044 206.52 262.788 208.152 263.204 208.568L262.468 209.576C261.924 208.856 260.468 207.32 259.828 206.744L260.532 206.104ZM261.62 202.568H261.86L262.068 202.52L262.74 202.968C261.604 205.896 259.252 208.568 257.06 210.04C256.948 209.736 256.644 209.176 256.452 208.968C258.516 207.688 260.692 205.256 261.62 202.824V202.568ZM279.748 199.96H280.964V211.832C280.964 212.728 281.124 212.92 282.02 212.92C282.452 212.92 284.628 212.92 285.172 212.92C286.052 212.92 286.18 212.328 286.292 209.992C286.596 210.216 287.092 210.44 287.444 210.52C287.252 213.144 286.9 214.056 285.236 214.056C284.82 214.056 282.308 214.056 281.94 214.056C280.26 214.056 279.748 213.576 279.748 211.816V199.96ZM285.748 202.616L286.628 203.64C285.012 204.968 282.66 206.264 280.548 207.368C280.468 207.096 280.228 206.68 280.052 206.424C282.1 205.352 284.388 203.864 285.748 202.616ZM276.964 199.816L278.132 200.2C276.932 203.016 275.012 205.752 273.028 207.528C272.9 207.24 272.532 206.616 272.292 206.328C274.148 204.776 275.908 202.344 276.964 199.816ZM275.14 203.992L276.308 202.824L276.324 202.84V214.264H275.14V203.992Z" fill="white"/>
<rect x="18" y="203" width="119" height="36" rx="3" fill="#FFA629"/>
<path d="M41.46 219.656C41.46 223.912 40.532 226.104 36.884 227.752L35.812 226.728C38.724 225.624 40.164 224.248 40.164 219.752V215.864C40.164 215.24 40.116 214.712 40.084 214.568H41.54C41.524 214.728 41.46 215.24 41.46 215.864V219.656ZM35.684 214.664C35.668 214.808 35.62 215.272 35.62 215.816V221.688C35.62 222.28 35.668 222.984 35.684 223.128H34.26C34.276 222.984 34.34 222.296 34.34 221.688V215.816C34.34 215.48 34.308 215.032 34.26 214.664H35.684ZM31.012 217.768C31.156 217.784 31.94 217.88 32.612 217.88H43.204C43.924 217.88 44.452 217.816 44.676 217.784V219.144C44.5 219.128 43.924 219.096 43.22 219.096H32.612C31.908 219.096 31.188 219.144 31.012 219.144V217.768ZM57.844 213.704C58.228 214.264 58.804 215.208 59.124 215.816L58.228 216.216C57.908 215.56 57.364 214.648 56.964 214.072L57.844 213.704ZM59.908 213.304C60.292 213.848 60.884 214.792 61.22 215.416L60.324 215.8C59.972 215.144 59.46 214.216 59.028 213.672L59.908 213.304ZM59.284 216.584C59.188 216.808 59.108 217.08 59.044 217.384C58.708 219.064 57.924 221.656 56.66 223.288C55.204 225.176 53.3 226.648 50.372 227.576L49.284 226.376C52.372 225.592 54.18 224.232 55.508 222.52C56.644 221.08 57.396 218.84 57.604 217.304C56.692 217.304 50.34 217.304 49.428 217.304C48.788 217.304 48.244 217.336 47.828 217.368V215.944C48.276 215.992 48.9 216.056 49.428 216.056C50.34 216.056 56.724 216.056 57.46 216.056C57.7 216.056 58.02 216.04 58.308 215.96L59.284 216.584ZM72.084 215.496C72.484 216.072 73.172 217.144 73.54 217.912L72.628 218.328C72.228 217.48 71.716 216.6 71.188 215.88L72.084 215.496ZM74.004 214.696C74.436 215.256 75.14 216.312 75.508 217.064L74.612 217.512C74.196 216.664 73.668 215.816 73.14 215.112L74.004 214.696ZM66.468 225.8C66.468 224.92 66.468 217.848 66.468 216.504C66.468 216.04 66.42 215.336 66.34 214.84H67.908C67.86 215.32 67.796 216.024 67.796 216.504C67.796 219 67.812 225.048 67.812 225.8C67.812 226.312 67.844 227.176 67.908 227.704H66.356C66.436 227.192 66.468 226.408 66.468 225.8ZM67.508 219.032C69.636 219.64 72.852 220.872 74.628 221.752L74.068 223.096C72.244 222.12 69.252 220.984 67.508 220.44V219.032ZM90.356 215.352C90.196 215.656 89.972 216.2 89.844 216.536C89.236 218.12 88.276 220.2 86.964 221.864C85.428 223.816 83.348 225.928 80.324 227.496L79.236 226.504C82.212 225.08 84.26 223.176 85.908 221.08C87.22 219.384 88.02 217.608 88.564 216.04C88.676 215.72 88.82 215.192 88.9 214.856L90.356 215.352ZM81.908 217.24C83.492 218.248 85.716 219.848 86.932 220.824C88.532 222.136 90.116 223.528 91.38 224.904L90.372 226.008C89.044 224.472 87.652 223.208 86.052 221.864C84.9 220.904 82.82 219.32 81.06 218.248L81.908 217.24ZM94.612 221.224C97.38 220.488 99.812 219.352 101.588 218.248C103.268 217.192 104.868 215.816 105.972 214.472L107.044 215.48C105.668 216.904 103.988 218.248 102.116 219.416C100.356 220.504 97.812 221.672 95.236 222.472L94.612 221.224ZM101.332 218.904L102.708 218.488V225.8C102.708 226.392 102.74 227.192 102.82 227.496H101.236C101.284 227.192 101.332 226.392 101.332 225.8V218.904ZM112.692 215.288C113.812 216.04 115.876 217.704 116.756 218.584L115.764 219.608C114.948 218.776 112.964 217.048 111.764 216.264L112.692 215.288ZM111.316 226.008C114.1 225.592 116.18 224.616 117.7 223.672C120.18 222.12 122.116 219.752 123.044 217.768L123.812 219.144C122.724 221.128 120.868 223.304 118.452 224.824C116.836 225.832 114.82 226.824 112.148 227.32L111.316 226.008Z" fill="black" fill-opacity="0.8"/>
<rect x="18" y="241" width="119" height="36" rx="3" fill="#2171C1"/>
<path d="M32.676 254.04C33.22 254.088 33.908 254.136 34.436 254.136H42.308C42.708 254.136 43.172 254.12 43.492 254.104C43.476 254.456 43.46 254.968 43.46 255.336V263.608C43.46 264.184 43.508 264.904 43.524 265.144H42.084C42.084 264.904 42.116 264.312 42.116 263.736V255.4H34.436C33.844 255.4 33.06 255.432 32.676 255.464V254.04ZM32.484 262.872C32.884 262.904 33.588 262.952 34.244 262.952H42.836V264.264H34.292C33.636 264.264 32.916 264.28 32.484 264.328V262.872ZM60.66 254.2C60.532 254.344 60.34 254.584 60.228 254.76C59.588 255.848 58.068 257.912 56.244 259.176L55.172 258.328C56.66 257.48 58.164 255.752 58.676 254.76C57.556 254.76 50.324 254.76 49.556 254.76C48.964 254.76 48.372 254.792 47.748 254.84V253.4C48.308 253.48 48.964 253.544 49.556 253.544C50.324 253.544 57.796 253.544 58.756 253.544C59.06 253.544 59.636 253.496 59.86 253.432L60.66 254.2ZM54.26 256.296C54.26 260.632 53.876 263.56 49.796 265.608L48.628 264.648C49.06 264.504 49.62 264.232 50.068 263.928C52.532 262.408 52.884 260.136 52.884 257.464C52.884 257.08 52.884 256.728 52.82 256.296H54.26ZM72.084 253.496C72.484 254.072 73.172 255.144 73.54 255.912L72.628 256.328C72.228 255.48 71.716 254.6 71.188 253.88L72.084 253.496ZM74.004 252.696C74.436 253.256 75.14 254.312 75.508 255.064L74.612 255.512C74.196 254.664 73.668 253.816 73.14 253.112L74.004 252.696ZM66.468 263.8C66.468 262.92 66.468 255.848 66.468 254.504C66.468 254.04 66.42 253.336 66.34 252.84H67.908C67.86 253.32 67.796 254.024 67.796 254.504C67.796 257 67.812 263.048 67.812 263.8C67.812 264.312 67.844 265.176 67.908 265.704H66.356C66.436 265.192 66.468 264.408 66.468 263.8ZM67.508 257.032C69.636 257.64 72.852 258.872 74.628 259.752L74.068 261.096C72.244 260.12 69.252 258.984 67.508 258.44V257.032ZM90.356 253.352C90.196 253.656 89.972 254.2 89.844 254.536C89.236 256.12 88.276 258.2 86.964 259.864C85.428 261.816 83.348 263.928 80.324 265.496L79.236 264.504C82.212 263.08 84.26 261.176 85.908 259.08C87.22 257.384 88.02 255.608 88.564 254.04C88.676 253.72 88.82 253.192 88.9 252.856L90.356 253.352ZM81.908 255.24C83.492 256.248 85.716 257.848 86.932 258.824C88.532 260.136 90.116 261.528 91.38 262.904L90.372 264.008C89.044 262.472 87.652 261.208 86.052 259.864C84.9 258.904 82.82 257.32 81.06 256.248L81.908 255.24ZM94.612 259.224C97.38 258.488 99.812 257.352 101.588 256.248C103.268 255.192 104.868 253.816 105.972 252.472L107.044 253.48C105.668 254.904 103.988 256.248 102.116 257.416C100.356 258.504 97.812 259.672 95.236 260.472L94.612 259.224ZM101.332 256.904L102.708 256.488V263.8C102.708 264.392 102.74 265.192 102.82 265.496H101.236C101.284 265.192 101.332 264.392 101.332 263.8V256.904ZM112.692 253.288C113.812 254.04 115.876 255.704 116.756 256.584L115.764 257.608C114.948 256.776 112.964 255.048 111.764 254.264L112.692 253.288ZM111.316 264.008C114.1 263.592 116.18 262.616 117.7 261.672C120.18 260.12 122.116 257.752 123.044 255.768L123.812 257.144C122.724 259.128 120.868 261.304 118.452 262.824C116.836 263.832 114.82 264.824 112.148 265.32L111.316 264.008Z" fill="white"/>
<g clip-path="url(#clip0_136_1650)">
<path d="M35.5001 39.8333C38.3844 39.8333 41.2039 40.6885 43.6021 42.291C46.0004 43.8934 47.8695 46.171 48.9733 48.8358C50.0771 51.5005 50.3659 54.4328 49.8032 57.2617C49.2405 60.0905 47.8516 62.689 45.8121 64.7286C43.7725 66.7681 41.174 68.157 38.3451 68.7197C35.5163 69.2824 32.584 68.9936 29.9193 67.8898C27.2545 66.7861 24.9769 64.9169 23.3745 62.5187C21.772 60.1204 20.9167 57.3009 20.9167 54.4166L20.9313 53.7837C21.0944 50.0292 22.7006 46.4826 25.4149 43.8835C28.1292 41.2844 31.7421 39.8335 35.5001 39.8333Z" fill="black"/>
<path d="M41.3333 74.8333C45.201 74.8333 48.9103 76.3697 51.6452 79.1046C54.3801 81.8395 55.9166 85.5488 55.9166 89.4166V92.3333C55.9166 93.8803 55.302 95.3641 54.208 96.458C53.1141 97.552 51.6303 98.1666 50.0833 98.1666H20.9166C19.3695 98.1666 17.8858 97.552 16.7918 96.458C15.6978 95.3641 15.0833 93.8803 15.0833 92.3333V89.4166C15.0833 85.5488 16.6197 81.8395 19.3546 79.1046C22.0895 76.3697 25.7988 74.8333 29.6666 74.8333H41.3333Z" fill="black"/>
</g>
<path d="M22.768 122.411H27.2V123.147H22.768V122.411ZM22.768 124.139H27.2V124.891H22.768V124.139ZM22.752 125.899H27.472V126.747H22.752V125.899ZM24.544 121.035H25.392V126.427H24.544V121.035ZM23.184 120.603H27.248V121.435H23.184V127.499H22.272V121.419L22.992 120.603H23.184ZM25.072 119.211L26.016 119.499C25.696 120.139 25.392 120.843 25.104 121.323L24.384 121.051C24.624 120.539 24.928 119.723 25.072 119.211ZM22.896 119.163L23.808 119.387C23.36 120.811 22.64 122.251 21.84 123.195C21.696 123.035 21.36 122.699 21.152 122.555C21.904 121.691 22.528 120.443 22.896 119.163ZM20.016 113.723H27.072V114.747H20.016V113.723ZM21.008 115.835H26.992V119.147H21.008V118.267H25.92V116.731H21.008V115.835ZM20.496 115.835H21.552V119.963C21.552 122.123 21.392 125.307 20.432 127.483C20.24 127.291 19.792 126.955 19.552 126.843C20.416 124.795 20.496 121.979 20.496 119.963V115.835ZM27.68 113.723H34.272V114.763H27.68V113.723ZM29.152 119.643V121.195H32.88V119.643H29.152ZM29.152 122.091V123.659H32.88V122.091H29.152ZM29.152 117.195V118.715H32.88V117.195H29.152ZM28.144 116.251H33.936V124.603H28.144V116.251ZM30.336 114.235L31.6 114.379C31.376 115.291 31.168 116.283 30.992 116.955L30 116.763C30.144 116.043 30.288 114.955 30.336 114.235ZM29.632 125.019L30.656 125.595C29.936 126.379 28.784 127.227 27.824 127.707C27.648 127.499 27.28 127.179 27.04 126.971C28 126.507 29.104 125.691 29.632 125.019ZM31.616 125.611L32.496 125.067C33.232 125.643 34.16 126.507 34.64 127.099L33.712 127.707C33.28 127.131 32.368 126.235 31.616 125.611ZM40.928 115.787L42.224 116.043C41.12 117.595 39.504 119.115 37.152 120.283C36.976 119.995 36.608 119.595 36.336 119.419C38.56 118.427 40.112 117.035 40.928 115.787ZM40.752 116.987H46.32V117.947H39.888L40.752 116.987ZM45.984 116.987H46.208L46.432 116.939L47.232 117.435C45.088 120.795 40.368 122.827 36.064 123.739C35.952 123.435 35.696 122.955 35.472 122.683C39.584 121.931 44.16 119.995 45.984 117.179V116.987ZM40.288 117.739C42.16 120.139 46.032 121.691 50.32 122.235C50.048 122.507 49.728 123.019 49.552 123.371C45.248 122.699 41.376 120.987 39.232 118.219L40.288 117.739ZM38.496 122.747H47.392V127.643H46.16V123.771H39.68V127.659H38.496V122.747ZM39.088 126.107H46.768V127.131H39.088V126.107ZM42.256 112.971H43.488V115.051H42.256V112.971ZM36.128 114.411H49.664V117.435H48.448V115.515H37.312V117.435H36.128V114.411Z" fill="black" fill-opacity="0.8"/>
<path d="M74.5 67.5C73.6716 67.5 73 68.1716 73 69C73 69.8284 73.6716 70.5 74.5 70.5V67.5ZM161.66 193.273C162.489 193.273 163.074 192.258 162.66 191.541L156 180.005C155.586 179.287 154.414 179.287 154 180.005L147.34 191.541C146.926 192.258 147.511 193.273 148.34 193.273H161.66ZM155 178.273H156.5H155ZM74.5 70.5H85V67.5H74.5V70.5ZM107.5 93V159.273H110.5V93H107.5ZM132 183.773H151V180.773H132V183.773ZM151 183.773C154.038 183.773 156.5 181.31 156.5 178.273H153.5C153.5 179.653 152.381 180.773 151 180.773V183.773ZM107.5 159.273C107.5 172.804 118.469 183.773 132 183.773V180.773C120.126 180.773 110.5 171.147 110.5 159.273H107.5ZM85 70.5C97.4264 70.5 107.5 80.5736 107.5 93H110.5C110.5 78.9167 99.0833 67.5 85 67.5V70.5Z" fill="#B3B3B3"/>
<path d="M74.5 67.5C73.6716 67.5 73 68.1716 73 69C73 69.8284 73.6716 70.5 74.5 70.5V67.5ZM136 75.6603C136 76.4887 137.015 77.0745 137.732 76.6603L149.268 70C149.985 69.5858 149.985 68.4142 149.268 68L137.732 61.3397C137.015 60.9255 136 61.5113 136 62.3397V75.6603ZM74.5 70.5H137.5V67.5H74.5V70.5Z" fill="#B3B3B3"/>
<rect x="258" y="231" width="87" height="36" rx="3" fill="#FFA629"/>
<path d="M278.164 246.504H283.348V247.608H278.164V246.504ZM278.164 250.568H283.348V251.656H278.164V250.568ZM277.54 242.472H283.988V255.416H282.788V243.56H278.708V255.416H277.54V242.472ZM275.86 254.728H285.22V255.832H275.86V254.728ZM272.884 241.576L273.956 241.976C273.348 243.16 272.58 244.584 271.956 245.448L271.124 245.096C271.732 244.168 272.468 242.632 272.884 241.576ZM274.82 243.4L275.86 243.848C274.74 245.64 273.172 247.944 271.956 249.32L271.188 248.92C272.42 247.496 273.94 245.096 274.82 243.4ZM270.356 244.936L270.964 244.136C271.86 244.888 272.868 245.944 273.3 246.648L272.66 247.56C272.228 246.808 271.22 245.704 270.356 244.936ZM274.308 247.112L275.204 246.728C275.876 247.752 276.564 249.128 276.804 250.008L275.844 250.456C275.604 249.56 274.964 248.168 274.308 247.112ZM270.324 248.728C271.764 248.68 273.892 248.6 276.004 248.504V249.48C273.972 249.608 271.94 249.72 270.42 249.8L270.324 248.728ZM274.708 250.936L275.62 250.648C276.084 251.624 276.532 252.888 276.708 253.72L275.732 254.056C275.588 253.224 275.156 251.928 274.708 250.936ZM271.204 250.712L272.244 250.904C272.02 252.408 271.62 253.96 271.108 254.984C270.9 254.856 270.42 254.632 270.164 254.52C270.692 253.544 271.012 252.12 271.204 250.712ZM273.044 249.192H274.132V256.328H273.044V249.192ZM293.284 241.56H294.388V243.864H293.284V241.56ZM291.86 244.536L292.708 244.344C292.98 245.064 293.204 246.04 293.236 246.664L292.324 246.888C292.308 246.248 292.116 245.272 291.86 244.536ZM291.124 243.336H296.58V244.296H291.124V243.336ZM290.772 246.84H300.82V247.832H290.772V246.84ZM292.26 251.208H295.556V252.072H292.26V251.208ZM292.196 248.84H296.164V254.472H292.196V253.576H295.156V249.736H292.196V248.84ZM291.796 248.84H292.756V255.432H291.796V248.84ZM295.028 244.28L296.052 244.52C295.764 245.336 295.476 246.28 295.204 246.888L294.372 246.664C294.596 246.008 294.884 244.968 295.028 244.28ZM296.884 241.64H297.94C297.94 249.144 298.436 254.952 299.716 255.032C299.988 255.048 300.18 254.184 300.292 252.76C300.468 253 300.9 253.288 301.092 253.384C300.788 255.752 300.244 256.392 299.7 256.376C297.348 256.28 296.996 250.088 296.884 241.64ZM298.276 243.016L299.172 242.632C299.796 243.528 300.468 244.712 300.756 245.48L299.812 245.912C299.524 245.144 298.868 243.912 298.276 243.016ZM299.476 248.664L300.452 248.92C299.588 252.056 297.86 254.632 295.284 256.328C295.124 256.104 294.772 255.752 294.532 255.576C297.012 253.992 298.724 251.576 299.476 248.664ZM288.276 241.576L289.316 241.944C288.82 243.08 288.196 244.504 287.7 245.368L286.884 245.048C287.38 244.136 287.972 242.632 288.276 241.576ZM289.892 243.416L290.884 243.848C289.924 245.624 288.596 247.896 287.524 249.288L286.804 248.904C287.844 247.496 289.156 245.112 289.892 243.416ZM286.196 244.808L286.74 244.008C287.54 244.792 288.436 245.832 288.788 246.536L288.212 247.48C287.844 246.728 286.964 245.608 286.196 244.808ZM289.268 247.08L290.116 246.76C290.708 247.784 291.268 249.112 291.444 249.976L290.532 250.344C290.372 249.496 289.828 248.12 289.268 247.08ZM286.036 248.648C287.252 248.6 288.98 248.504 290.756 248.408L290.74 249.368C289.092 249.512 287.444 249.64 286.148 249.72L286.036 248.648ZM289.7 250.888L290.548 250.632C290.932 251.576 291.268 252.824 291.396 253.624L290.5 253.912C290.404 253.096 290.052 251.832 289.7 250.888ZM286.804 250.712L287.764 250.872C287.62 252.376 287.316 253.928 286.9 254.952C286.708 254.824 286.26 254.616 286.02 254.52C286.468 253.544 286.676 252.104 286.804 250.712ZM288.308 249.112H289.332V256.28H288.308V249.112ZM305.732 254.824H314.196V255.752H305.732V254.824ZM308.788 244.808H309.956V246.584H308.788V244.808ZM302.708 246.056H316.228V249.064H315.044V247.016H303.86V249.064H302.708V246.056ZM305.668 248.008H313.876V251.224H305.668V250.296H312.692V248.92H305.668V248.008ZM305.716 252.328H314.9V256.264H313.716V253.272H305.716V252.328ZM305.028 248.008H306.18V256.296H305.028V248.008ZM304.02 242.792H309.188V243.784H304.02V242.792ZM310.26 242.792H316.724V243.784H310.26V242.792ZM304.324 241.496L305.46 241.784C304.868 243.192 303.924 244.584 302.996 245.496C302.772 245.32 302.292 244.984 302.004 244.84C302.964 244.008 303.828 242.744 304.324 241.496ZM310.628 241.496L311.764 241.768C311.188 243.16 310.18 244.456 309.172 245.288C308.932 245.112 308.436 244.824 308.132 244.68C309.188 243.912 310.116 242.728 310.628 241.496ZM304.916 243.544L305.956 243.272C306.324 243.832 306.74 244.616 306.9 245.112L305.812 245.432C305.668 244.936 305.284 244.136 304.916 243.544ZM311.7 243.56L312.756 243.24C313.252 243.8 313.828 244.584 314.068 245.112L312.98 245.464C312.756 244.952 312.212 244.136 311.7 243.56ZM324.836 246.376V248.44H330.788V246.376H324.836ZM324.836 243.352V245.384H330.788V243.352H324.836ZM323.748 242.312H331.94V249.48H323.748V242.312ZM323.54 251.352H332.164V252.456H323.54V251.352ZM322.308 254.664H332.692V255.752H322.308V254.664ZM317.956 242.648H322.948V243.784H317.956V242.648ZM318.132 247.272H322.724V248.408H318.132V247.272ZM317.796 253.4C319.092 253.048 321.012 252.424 322.868 251.8L323.076 252.952C321.332 253.544 319.508 254.152 318.084 254.632L317.796 253.4ZM319.956 243.096H321.108V253.016L319.956 253.24V243.096ZM327.284 242.808H328.34V248.968H328.42V255.16H327.204V248.968H327.284V242.808Z" fill="black" fill-opacity="0.8"/>
<rect x="165" y="231" width="86" height="36" rx="3" fill="#FFA629"/>
<path d="M202.008 242.68H203.112C202.776 245.272 201.992 247.864 199.192 249.256C199.064 249 198.728 248.6 198.472 248.408C201.08 247.208 201.736 244.872 202.008 242.68ZM199.064 244.968L199.656 244.136C201.32 244.696 203.32 245.688 204.376 246.424L203.8 247.368C202.728 246.584 200.728 245.528 199.064 244.968ZM205.784 242.248H206.92C206.92 242.248 206.92 242.6 206.904 242.76C206.744 246.536 206.584 247.96 206.184 248.424C205.928 248.728 205.656 248.84 205.224 248.888C204.84 248.92 204.088 248.904 203.336 248.872C203.32 248.536 203.208 248.072 203.032 247.784C203.768 247.848 204.44 247.848 204.696 247.848C204.952 247.864 205.096 247.816 205.208 247.688C205.496 247.352 205.656 246.072 205.784 242.456V242.248ZM200.872 250.776H201.992V254.632C201.992 255.032 202.056 255.096 202.504 255.096C202.712 255.096 203.752 255.096 204.008 255.096C204.44 255.096 204.504 254.872 204.552 253.272C204.776 253.464 205.256 253.624 205.576 253.72C205.448 255.672 205.144 256.168 204.136 256.168C203.88 256.168 202.616 256.168 202.36 256.168C201.144 256.168 200.872 255.832 200.872 254.648V250.776ZM199.352 251.32L200.328 251.56C200.152 252.984 199.816 254.536 198.968 255.432L198.072 254.84C198.84 254.056 199.192 252.648 199.352 251.32ZM201.144 249.304L201.848 248.6C202.904 249.16 204.136 250.024 204.728 250.696L203.976 251.512C203.4 250.84 202.184 249.912 201.144 249.304ZM204.872 251.432L205.864 251.032C206.728 252.2 207.448 253.768 207.688 254.856L206.616 255.304C206.408 254.216 205.704 252.6 204.872 251.432ZM199.208 242.248H206.28V243.288H199.208V242.248ZM193.416 246.408H197.96V247.368H193.416V246.408ZM193.48 242.136H197.896V243.096H193.48V242.136ZM193.416 248.552H197.96V249.512H193.416V248.552ZM192.696 244.232H198.408V245.224H192.696V244.232ZM193.944 250.712H197.96V255.384H193.944V254.376H196.92V251.704H193.944V250.712ZM193.4 250.712H194.424V256.12H193.4V250.712ZM219.848 243.064H221.096V254.568C221.096 255.432 220.888 255.848 220.264 256.04C219.624 256.248 218.504 256.264 216.92 256.264C216.84 255.912 216.6 255.32 216.408 254.968C217.704 255.032 219 255.016 219.384 255C219.736 254.984 219.848 254.872 219.848 254.536V243.064ZM210.44 246.264H211.608V253.512H210.44V246.264ZM210.936 246.264H217V252.232H210.936V251.08H215.8V247.4H210.936V246.264ZM208.792 242.696H223.064V243.912H208.792V242.696Z" fill="black" fill-opacity="0.8"/>
<defs>
<clipPath id="clip0_136_1650">
<rect width="70" height="70" fill="white" transform="translate(0.5 34)"/>
</clipPath>
</defs>
</svg>
