<svg xmlns="http://www.w3.org/2000/svg" viewBox="0 0 280 280">
  <!-- Central system -->
  <rect x="100" y="104" width="80" height="64" rx="12" fill="#fff" stroke="#E8614D" stroke-width="2.5" />
  <line x1="116" y1="130" x2="164" y2="130" stroke="#E8614D" stroke-width="3" stroke-linecap="round" opacity="0.6" />
  <line x1="120" y1="144" x2="160" y2="144" stroke="#E8614D" stroke-width="2.5" stroke-linecap="round" opacity="0.35" />

  <!-- Actor: top-left (human) -->
  <circle cx="44" cy="44" r="9" fill="none" stroke="#64748b" stroke-width="2" />
  <line x1="44" y1="53" x2="44" y2="72" stroke="#64748b" stroke-width="2" />
  <line x1="32" y1="62" x2="56" y2="62" stroke="#64748b" stroke-width="2" />
  <line x1="44" y1="72" x2="34" y2="84" stroke="#64748b" stroke-width="2" />
  <line x1="44" y1="72" x2="54" y2="84" stroke="#64748b" stroke-width="2" />
  <!-- Speech bubble -->
  <rect x="62" y="14" width="58" height="28" rx="6" fill="#f1f5f9" stroke="#cbd5e1" stroke-width="1" />
  <polygon points="68,42 74,48 80,42" fill="#f1f5f9" stroke="#cbd5e1" stroke-width="1" />
  <line x1="69" y1="41.5" x2="79" y2="41.5" stroke="#f1f5f9" stroke-width="2" />
  <line x1="72" y1="25" x2="108" y2="25" stroke="#94a3b8" stroke-width="2" stroke-linecap="round" opacity="0.6" />
  <line x1="72" y1="34" x2="98" y2="34" stroke="#cbd5e1" stroke-width="2" stroke-linecap="round" />
  <!-- Connection to system -->
  <line x1="56" y1="80" x2="104" y2="112" stroke="#cbd5e1" stroke-width="1.5" />

  <!-- Actor: top-right (human) -->
  <circle cx="236" cy="44" r="9" fill="none" stroke="#64748b" stroke-width="2" />
  <line x1="236" y1="53" x2="236" y2="72" stroke="#64748b" stroke-width="2" />
  <line x1="224" y1="62" x2="248" y2="62" stroke="#64748b" stroke-width="2" />
  <line x1="236" y1="72" x2="226" y2="84" stroke="#64748b" stroke-width="2" />
  <line x1="236" y1="72" x2="246" y2="84" stroke="#64748b" stroke-width="2" />
  <!-- Speech bubble -->
  <rect x="160" y="14" width="58" height="28" rx="6" fill="#f1f5f9" stroke="#cbd5e1" stroke-width="1" />
  <polygon points="200,42 206,48 212,42" fill="#f1f5f9" stroke="#cbd5e1" stroke-width="1" />
  <line x1="201" y1="41.5" x2="211" y2="41.5" stroke="#f1f5f9" stroke-width="2" />
  <line x1="170" y1="25" x2="206" y2="25" stroke="#94a3b8" stroke-width="2" stroke-linecap="round" opacity="0.6" />
  <line x1="170" y1="34" x2="200" y2="34" stroke="#cbd5e1" stroke-width="2" stroke-linecap="round" />
  <!-- Connection to system -->
  <line x1="224" y1="80" x2="176" y2="112" stroke="#cbd5e1" stroke-width="1.5" />

  <!-- External system: bottom-left -->
  <rect x="10" y="216" width="72" height="44" rx="8" fill="#f1f5f9" stroke="#94a3b8" stroke-width="1.5" />
  <line x1="22" y1="233" x2="60" y2="233" stroke="#94a3b8" stroke-width="2.5" stroke-linecap="round" opacity="0.5" />
  <line x1="22" y1="246" x2="50" y2="246" stroke="#cbd5e1" stroke-width="2" stroke-linecap="round" />
  <!-- Speech bubble -->
  <rect x="84" y="210" width="54" height="28" rx="6" fill="#f1f5f9" stroke="#cbd5e1" stroke-width="1" />
  <polygon points="84,220 78,224 84,228" fill="#f1f5f9" stroke="#cbd5e1" stroke-width="1" />
  <line x1="83.5" y1="221" x2="83.5" y2="227" stroke="#f1f5f9" stroke-width="2" />
  <line x1="94" y1="220" x2="126" y2="220" stroke="#94a3b8" stroke-width="2" stroke-linecap="round" opacity="0.6" />
  <line x1="94" y1="230" x2="120" y2="230" stroke="#cbd5e1" stroke-width="2" stroke-linecap="round" />
  <!-- Connection to system -->
  <line x1="56" y1="216" x2="116" y2="168" stroke="#cbd5e1" stroke-width="1.5" />

  <!-- External system: bottom-right -->
  <rect x="198" y="216" width="72" height="44" rx="8" fill="#f1f5f9" stroke="#94a3b8" stroke-width="1.5" />
  <line x1="210" y1="233" x2="252" y2="233" stroke="#94a3b8" stroke-width="2.5" stroke-linecap="round" opacity="0.5" />
  <line x1="210" y1="246" x2="242" y2="246" stroke="#cbd5e1" stroke-width="2" stroke-linecap="round" />
  <!-- Speech bubble -->
  <rect x="142" y="210" width="54" height="28" rx="6" fill="#f1f5f9" stroke="#cbd5e1" stroke-width="1" />
  <polygon points="196,220 202,224 196,228" fill="#f1f5f9" stroke="#cbd5e1" stroke-width="1" />
  <line x1="196.5" y1="221" x2="196.5" y2="227" stroke="#f1f5f9" stroke-width="2" />
  <line x1="152" y1="220" x2="184" y2="220" stroke="#94a3b8" stroke-width="2" stroke-linecap="round" opacity="0.6" />
  <line x1="152" y1="230" x2="178" y2="230" stroke="#cbd5e1" stroke-width="2" stroke-linecap="round" />
  <!-- Connection to system -->
  <line x1="224" y1="216" x2="164" y2="168" stroke="#cbd5e1" stroke-width="1.5" />
</svg>