<svg version="1.1" viewBox="0.0 0.0 764.0 371.0" fill="none" stroke="none" stroke-linecap="square" stroke-miterlimit="10" width="764" height="371" xmlns:xlink="http://www.w3.org/1999/xlink" xmlns="http://www.w3.org/2000/svg"><path fill="#ffffff" d="M0 0L764.0 0L764.0 371.0L0 371.0L0 0Z" fill-rule="nonzero"/><path fill="#ff6d01" d="M266.23145 65.20892C297.33688 35.272934 338.82928 18.55 382.0 18.55L382.0 185.5Z" fill-rule="nonzero"/><path fill="#34a853" d="M215.17252 179.10536C216.82607 135.96631 235.126 95.144905 266.23145 65.20892L382.0 185.5Z" fill-rule="nonzero"/><path fill="#fbbc04" d="M257.36295 296.5761C228.64035 264.3469 213.51895 222.2444 215.17252 179.10536L382.0 185.5Z" fill-rule="nonzero"/><path fill="#ea4335" d="M275.77933 314.3001C269.19662 308.8714 263.0398 302.94604 257.36295 296.5761L382.0 185.5Z" fill-rule="nonzero"/><path fill="#4285f4" d="M382.0 18.55C455.58636 18.55 520.49506 66.729706 541.7998 137.1645C563.1046 207.5993 535.78076 283.67706 474.53073 324.46173C413.28073 365.24643 332.5504 361.1189 275.77933 314.3001L382.0 185.5Z" fill-rule="nonzero"/><path fill="#1a1a1a" d="M22.76875 32.3L19.8625 32.3L19.8625 30.51875L24.64375 30.51875L24.64375 38.1125Q26.425 40.3625 30.55 40.3625L41.51875 40.3625L41.14375 42.14375L30.64375 42.14375Q25.76875 42.14375 23.9875 39.6125Q22.3 41.3 20.89375 42.14375L19.675 40.08125Q21.925 39.2375 22.76875 38.3L22.76875 32.3ZM22.8625 26.8625Q21.925 25.08125 20.425 23.4875L22.01875 22.26875Q23.89375 23.95625 24.64375 25.45625L22.8625 26.8625ZM27.3625 27.6125L32.51875 27.6125L32.51875 26.20625L28.675 26.20625L28.675 24.70625L32.51875 24.70625L32.51875 23.20625L27.45625 23.20625L27.45625 26.1125L25.58125 26.1125L25.58125 21.70625L40.76875 21.70625L40.76875 26.1125L38.89375 26.1125L38.89375 23.20625L34.1125 23.20625L34.1125 24.70625L37.675 24.70625L37.675 26.20625L34.1125 26.20625L34.1125 27.6125L39.3625 27.6125L39.3625 34.925L34.1125 34.925L34.1125 36.2375L40.8625 36.2375L40.8625 37.7375L34.1125 37.7375L34.1125 39.51875L32.51875 39.51875L32.51875 37.7375L25.95625 37.7375L25.95625 36.2375L32.51875 36.2375L32.51875 34.925L29.89375 34.925L27.3625 34.925L27.3625 27.6125ZM37.4875 33.425L37.4875 32.01875L34.1125 32.01875L34.1125 33.425L37.4875 33.425ZM29.2375 30.51875L32.51875 30.51875L32.51875 29.1125L29.2375 29.1125L29.2375 30.51875ZM32.51875 33.425L32.51875 32.01875L29.2375 32.01875L29.2375 33.425L32.51875 33.425ZM34.1125 30.51875L37.4875 30.51875L37.4875 29.1125L34.1125 29.1125L34.1125 30.51875ZM61.95625 34.7375L55.8625 34.7375L55.8625 41.8625L53.9875 41.8625L53.9875 34.7375L48.3625 34.7375Q48.175 39.6125 45.45625 42.51875L43.95625 41.01875Q46.4875 38.20625 46.4875 34.45625L46.4875 22.45625L63.83125 22.45625L63.83125 40.3625Q63.83125 41.8625 62.33125 41.8625L59.70625 41.8625L59.2375 39.8L61.58125 39.8Q61.95625 39.8 61.95625 39.425L61.95625 34.7375ZM48.3625 29.4875L48.3625 32.95625L53.9875 32.95625L53.9875 29.4875L48.3625 29.4875ZM48.3625 24.2375L48.3625 27.70625L53.9875 27.70625L53.9875 24.2375L48.3625 24.2375ZM55.8625 29.4875L55.8625 32.95625L61.95625 32.95625L61.95625 29.4875L55.8625 29.4875ZM55.8625 24.2375L55.8625 27.70625L61.95625 27.70625L61.95625 24.2375L55.8625 24.2375ZM69.55 23.675Q77.6125 23.58125 84.83125 21.8L86.05 23.3Q86.70625 24.14375 85.58125 23.8625Q82.58125 24.51875 79.58125 24.8L79.58125 28.175L86.9875 28.175L86.9875 29.95625L79.58125 29.95625L79.58125 33.14375L88.95625 33.14375L88.95625 34.925L79.58125 34.925L79.58125 40.55Q79.58125 42.2375 77.9875 42.2375L75.55 42.2375L75.08125 40.175L77.425 40.175Q77.70625 40.175 77.70625 39.89375L77.70625 34.925L68.14375 34.925L68.14375 33.14375L77.70625 33.14375L77.70625 29.95625L70.1125 29.95625L70.1125 28.175L77.70625 28.175L77.70625 25.08125Q73.76875 25.45625 70.01875 25.45625L69.55 23.675ZM94.76875 36.6125Q94.76875 39.89375 92.9875 42.2375L91.76875 40.64375Q93.175 39.05 93.175 35.76875L93.175 22.26875L94.675 22.26875Q95.425 22.3625 94.76875 22.83125L94.76875 36.6125ZM101.425 41.01875Q103.39375 40.175 105.3625 38.3L106.58125 39.70625Q106.8625 40.08125 106.20625 39.9875Q104.51875 41.675 102.08125 42.89375L101.33125 41.20625L99.83125 41.20625L99.83125 22.26875L101.33125 22.26875Q102.08125 22.3625 101.425 22.83125L101.425 41.01875ZM110.33125 34.55L104.89375 34.55L104.89375 36.6125L110.33125 36.6125L110.33125 34.55ZM110.33125 31.08125L104.89375 31.08125L104.89375 33.05L110.33125 33.05L110.33125 31.08125ZM110.33125 29.58125L110.33125 27.70625L104.89375 27.70625L104.89375 29.58125L110.33125 29.58125ZM102.45625 24.05L102.45625 22.26875L112.76875 22.26875L112.76875 24.05L108.45625 24.05L107.70625 26.20625L111.925 26.20625L111.925 38.1125L103.3 38.1125L103.3 26.20625L106.1125 26.20625L106.4875 24.05L102.45625 24.05ZM109.675 38.20625Q111.3625 39.9875 113.425 41.01875L112.4875 42.8Q110.14375 41.58125 108.3625 39.51875L109.675 38.20625ZM96.45625 40.26875L96.45625 23.58125L97.95625 23.58125Q98.70625 23.675 98.05 24.14375L98.05 40.26875L96.45625 40.26875Z" fill-rule="nonzero"/><path fill="#9e9e9e" d="M27.4875 71.55L25.378124 71.55L25.378124 58.112503Q24.628124 58.831253 23.378124 59.565628Q22.14375 60.284378 21.159374 60.643753L21.159374 58.612503Q22.940624 57.784378 24.253124 56.596878Q25.58125 55.409378 26.128124 54.300003L27.4875 54.300003L27.4875 71.55ZM43.628124 69.51875L43.628124 71.55L32.284374 71.55Q32.253124 70.78438 32.51875 70.08125Q32.95625 68.925 33.909374 67.8Q34.8625 66.675 36.675 65.19063Q39.471874 62.893753 40.45625 61.565628Q41.440624 60.221878 41.440624 59.018753Q41.440624 57.768753 40.534374 56.909378Q39.64375 56.050003 38.20625 56.050003Q36.690624 56.050003 35.76875 56.971878Q34.8625 57.878128 34.846874 59.487503L32.675 59.268753Q32.89375 56.846878 34.346874 55.581253Q35.8 54.300003 38.253124 54.300003Q40.721874 54.300003 42.159374 55.675003Q43.6125 57.034378 43.6125 59.065628Q43.6125 60.096878 43.190624 61.096878Q42.76875 62.096878 41.784374 63.206253Q40.815624 64.3 38.534374 66.22188Q36.64375 67.81563 36.096874 68.37813Q35.565624 68.94063 35.20625 69.51875L43.628124 69.51875ZM46.7375 71.55L46.7375 69.14375L49.128124 69.14375L49.128124 71.55L46.7375 71.55ZM63.628124 69.51875L63.628124 71.55L52.284374 71.55Q52.253124 70.78438 52.51875 70.08125Q52.95625 68.925 53.909374 67.8Q54.8625 66.675 56.675 65.19063Q59.471874 62.893753 60.45625 61.565628Q61.440624 60.221878 61.440624 59.018753Q61.440624 57.768753 60.534374 56.909378Q59.64375 56.050003 58.20625 56.050003Q56.690624 56.050003 55.76875 56.971878Q54.8625 57.878128 54.846874 59.487503L52.675 59.268753Q52.89375 56.846878 54.346874 55.581253Q55.8 54.300003 58.253124 54.300003Q60.721874 54.300003 62.159374 55.675003Q63.6125 57.034378 63.6125 59.065628Q63.6125 60.096878 63.190624 61.096878Q62.76875 62.096878 61.784374 63.206253Q60.815624 64.3 58.534374 66.22188Q56.64375 67.81563 56.096874 68.37813Q55.565624 68.94063 55.20625 69.51875L63.628124 69.51875ZM65.94063 58.487503Q65.94063 56.659378 66.8625 55.378128Q67.8 54.081253 69.55 54.081253Q71.175 54.081253 72.2375 55.237503Q73.3 56.378128 73.3 58.628128Q73.3 60.800003 72.22188 61.987503Q71.14375 63.159378 69.58125 63.159378Q68.01875 63.159378 66.97188 62.003128Q65.94063 60.831253 65.94063 58.487503ZM69.6125 55.534378Q68.83125 55.534378 68.3 56.221878Q67.78438 56.893753 67.78438 58.706253Q67.78438 60.362503 68.31563 61.034378Q68.84688 61.706253 69.6125 61.706253Q70.40938 61.706253 70.925 61.034378Q71.45625 60.346878 71.45625 58.534378Q71.45625 56.878128 70.925 56.206253Q70.39375 55.534378 69.6125 55.534378ZM69.62813 72.19063L79.01875 54.081253L80.7375 54.081253L71.37813 72.19063L69.62813 72.19063ZM77.05 67.51875Q77.05 65.65938 77.97188 64.37813Q78.90938 63.096878 80.675 63.096878Q82.3 63.096878 83.34688 64.25313Q84.40938 65.40938 84.40938 67.64375Q84.40938 69.83125 83.33125 71.01875Q82.26875 72.19063 80.69063 72.19063Q79.12813 72.19063 78.08125 71.01875Q77.05 69.84688 77.05 67.51875ZM80.7375 64.55Q79.94063 64.55 79.40938 65.2375Q78.89375 65.90938 78.89375 67.72188Q78.89375 69.3625 79.425 70.05Q79.95625 70.72188 80.72188 70.72188Q81.53438 70.72188 82.05 70.05Q82.58125 69.3625 82.58125 67.56563Q82.58125 65.89375 82.05 65.22188Q81.51875 64.55 80.7375 64.55Z" fill-rule="nonzero"/><path stroke="#757575" stroke-width="1.0" stroke-linecap="butt" d="M18.55 48.05L209.05 48.05L322.71167 38.395794" fill-rule="nonzero"/><path fill="#9e9e9e" d="M324.71167 38.395794C324.71167 37.29122 323.81625 36.395794 322.71167 36.395794C321.60712 36.395794 320.71167 37.29122 320.71167 38.395794C320.71167 39.500362 321.60712 40.395794 322.71167 40.395794C323.81625 40.395794 324.71167 39.500362 324.71167 38.395794" fill-rule="nonzero"/><path fill="#1a1a1a" d="M31.76875 94.27694L40.58125 94.27694L40.58125 113.40194Q40.58125 114.90194 39.08125 114.90194L36.83125 114.90194L36.55 113.12069L38.33125 113.12069Q38.70625 113.12069 38.70625 112.74569L38.70625 102.05819L35.2375 102.05819L31.76875 102.05819L31.76875 94.27694ZM23.9875 108.80819L23.9875 107.30819L27.7375 107.30819L27.7375 105.05819L24.64375 105.05819L24.64375 103.55819L36.45625 103.55819L36.45625 105.05819L34.01875 105.05819L34.01875 107.30819L37.20625 107.30819L37.20625 108.80819L34.01875 108.80819L34.01875 114.43319L32.14375 114.43319L32.14375 108.80819L29.6125 108.80819Q29.8 112.93319 25.39375 114.90194L24.45625 113.12069Q27.7375 111.90194 27.7375 108.80819L23.9875 108.80819ZM27.3625 95.77694L22.675 95.77694L22.675 97.46444L27.3625 97.46444L27.3625 95.77694ZM29.2375 102.05819L22.675 102.05819L22.675 115.18319L20.8 115.18319L20.8 94.27694L29.2375 94.27694L29.2375 102.05819ZM32.14375 107.30819L32.14375 105.05819L29.6125 105.05819L29.6125 107.30819L32.14375 107.30819ZM38.70625 97.46444L38.70625 95.77694L33.64375 95.77694L33.64375 97.46444L38.70625 97.46444ZM33.64375 100.55819L38.70625 100.55819L38.70625 98.96444L33.64375 98.96444L33.64375 100.55819ZM22.675 100.55819L27.3625 100.55819L27.3625 98.96444L22.675 98.96444L22.675 100.55819ZM49.58125 102.52694Q47.6125 104.02694 44.6125 105.05819L43.675 103.18319Q46.675 102.24569 48.925 100.55819L46.1125 98.58944L47.425 97.08944L50.51875 99.24569Q51.45625 98.58944 52.95625 96.43319L47.89375 96.43319L47.89375 94.65194L53.9875 94.65194L54.3625 94.27694L55.76875 95.30819Q56.14375 95.68319 55.4875 95.77694Q56.6125 97.08944 57.3625 97.83944L60.175 95.02694L61.76875 96.24569Q61.8625 96.71444 61.3 96.52694L58.4875 98.87069Q58.8625 99.33944 59.70625 99.80819L62.6125 96.90194L64.20625 98.21444Q64.3 98.68319 63.7375 98.49569L60.925 100.74569Q62.425 101.68319 65.33125 102.62069L64.39375 104.58944Q61.76875 103.74569 59.6125 102.15194L59.6125 103.55819L57.83125 103.55819L57.83125 106.08944L63.55 106.08944L63.55 107.87069L57.83125 107.87069L57.83125 111.99569Q57.83125 112.74569 58.4875 112.74569L61.20625 112.74569Q62.2375 112.74569 62.425 111.90194L62.89375 110.12069L64.8625 110.77694Q64.3 114.52694 62.2375 114.52694L57.45625 114.52694Q55.95625 114.52694 55.95625 112.93319L55.95625 107.87069L52.95625 107.87069Q52.95625 114.05819 44.89375 115.18319L44.33125 113.21444Q51.08125 112.18319 51.08125 107.87069L45.7375 107.87069L45.7375 106.08944L51.175 106.08944L51.175 103.55819L49.58125 103.55819L49.58125 102.52694ZM54.55 97.27694Q53.05 99.99569 50.6125 101.77694L59.05 101.77694Q56.2375 99.90194 54.55 97.27694ZM55.95625 106.08944L55.95625 103.55819L53.05 103.55819L53.05 106.08944L55.95625 106.08944Z" fill-rule="nonzero"/><path fill="#9e9e9e" d="M27.4875 144.1207L25.378124 144.1207L25.378124 130.6832Q24.628124 131.40195 23.378124 132.13632Q22.14375 132.85507 21.159374 133.21445L21.159374 131.1832Q22.940624 130.35507 24.253124 129.16757Q25.58125 127.98007 26.128124 126.8707L27.4875 126.8707L27.4875 144.1207ZM43.628124 142.08945L43.628124 144.1207L32.284374 144.1207Q32.253124 143.35507 32.51875 142.65195Q32.95625 141.4957 33.909374 140.3707Q34.8625 139.2457 36.675 137.76132Q39.471874 135.46445 40.45625 134.13632Q41.440624 132.79257 41.440624 131.58945Q41.440624 130.33945 40.534374 129.48007Q39.64375 128.6207 38.20625 128.6207Q36.690624 128.6207 35.76875 129.54257Q34.8625 130.44882 34.846874 132.0582L32.675 131.83945Q32.89375 129.41757 34.346874 128.15195Q35.8 126.8707 38.253124 126.8707Q40.721874 126.8707 42.159374 128.2457Q43.6125 129.60507 43.6125 131.63632Q43.6125 132.66757 43.190624 133.66757Q42.76875 134.66757 41.784374 135.77695Q40.815624 136.8707 38.534374 138.79257Q36.64375 140.38632 36.096874 140.94882Q35.565624 141.51132 35.20625 142.08945L43.628124 142.08945ZM46.7375 144.1207L46.7375 141.71445L49.128124 141.71445L49.128124 144.1207L46.7375 144.1207ZM63.628124 142.08945L63.628124 144.1207L52.284374 144.1207Q52.253124 143.35507 52.51875 142.65195Q52.95625 141.4957 53.909374 140.3707Q54.8625 139.2457 56.675 137.76132Q59.471874 135.46445 60.45625 134.13632Q61.440624 132.79257 61.440624 131.58945Q61.440624 130.33945 60.534374 129.48007Q59.64375 128.6207 58.20625 128.6207Q56.690624 128.6207 55.76875 129.54257Q54.8625 130.44882 54.846874 132.0582L52.675 131.83945Q52.89375 129.41757 54.346874 128.15195Q55.8 126.8707 58.253124 126.8707Q60.721874 126.8707 62.159374 128.2457Q63.6125 129.60507 63.6125 131.63632Q63.6125 132.66757 63.190624 133.66757Q62.76875 134.66757 61.784374 135.77695Q60.815624 136.8707 58.534374 138.79257Q56.64375 140.38632 56.096874 140.94882Q55.565624 141.51132 55.20625 142.08945L63.628124 142.08945ZM65.94063 131.0582Q65.94063 129.23007 66.8625 127.94882Q67.8 126.65195 69.55 126.65195Q71.175 126.65195 72.2375 127.8082Q73.3 128.94882 73.3 131.19882Q73.3 133.3707 72.22188 134.5582Q71.14375 135.73007 69.58125 135.73007Q68.01875 135.73007 66.97188 134.57382Q65.94063 133.40195 65.94063 131.0582ZM69.6125 128.10507Q68.83125 128.10507 68.3 128.79257Q67.78438 129.46445 67.78438 131.27695Q67.78438 132.9332 68.31563 133.60507Q68.84688 134.27695 69.6125 134.27695Q70.40938 134.27695 70.925 133.60507Q71.45625 132.91757 71.45625 131.10507Q71.45625 129.44882 70.925 128.77695Q70.39375 128.10507 69.6125 128.10507ZM69.62813 144.76132L79.01875 126.65195L80.7375 126.65195L71.37813 144.76132L69.62813 144.76132ZM77.05 140.08945Q77.05 138.23007 77.97188 136.94882Q78.90938 135.66757 80.675 135.66757Q82.3 135.66757 83.34688 136.82382Q84.40938 137.98007 84.40938 140.21445Q84.40938 142.40195 83.33125 143.58945Q82.26875 144.76132 80.69063 144.76132Q79.12813 144.76132 78.08125 143.58945Q77.05 142.41757 77.05 140.08945ZM80.7375 137.1207Q79.94063 137.1207 79.40938 137.8082Q78.89375 138.48007 78.89375 140.29257Q78.89375 141.9332 79.425 142.6207Q79.95625 143.29257 80.72188 143.29257Q81.53438 143.29257 82.05 142.6207Q82.58125 141.9332 82.58125 140.13632Q82.58125 138.46445 82.05 137.79257Q81.51875 137.1207 80.7375 137.1207Z" fill-rule="nonzero"/><path stroke="#757575" stroke-width="1.0" stroke-linecap="butt" d="M18.55 120.62069L209.05 120.62069L237.27464 120.62069" fill-rule="nonzero"/><path fill="#9e9e9e" d="M239.27464 120.62069C239.27464 119.51612 238.37921 118.62069 237.27464 118.62069C236.17007 118.62069 235.27464 119.51612 235.27464 120.62069C235.27464 121.72526 236.17007 122.62069 237.27464 122.62069C238.37921 122.62069 239.27464 121.72526 239.27464 120.62069" fill-rule="nonzero"/><path fill="#1a1a1a" d="M25.8625 224.76657Q24.83125 223.64157 24.45625 223.26657L24.45625 233.76657L22.8625 233.76657L22.8625 223.54782Q22.01875 226.17282 20.51875 227.95407L19.39375 226.17282Q21.55 223.07907 22.76875 218.57907L20.14375 218.57907L20.14375 216.79782L22.8625 216.79782L22.8625 212.29782L24.3625 212.29782Q25.1125 212.39157 24.45625 212.86032L24.45625 216.79782L26.6125 216.79782L26.6125 218.57907L24.45625 218.57907L24.45625 221.20407Q26.14375 222.14157 26.89375 223.07907L25.8625 224.76657ZM34.4875 219.79782Q34.4875 222.04782 34.675 224.01657L37.20625 224.01657Q37.01875 223.26657 36.55 222.61032L38.33125 222.14157Q38.9875 223.07907 39.26875 224.01657L41.2375 224.01657L41.2375 225.51657L34.76875 225.51657Q35.05 227.39157 35.70625 228.79782Q36.925 227.67282 37.95625 225.89157L39.55 226.73532Q40.1125 227.11032 39.26875 227.29782Q38.05 229.17282 36.925 230.20407Q38.2375 231.51657 39.08125 231.51657Q39.64375 231.51657 39.925 229.54782L41.51875 230.48532Q41.2375 232.73532 40.20625 233.39157Q38.6125 234.42282 35.51875 231.32907Q33.55 232.82907 30.83125 233.67282L29.9875 231.89157Q32.425 231.23532 34.39375 229.82907Q33.3625 227.76657 33.175 225.51657L29.70625 225.51657L29.70625 226.92282Q31.39375 227.48532 32.89375 228.61032L31.76875 230.29782Q31.01875 229.64157 29.70625 228.70407Q29.2375 231.89157 26.70625 233.76657L25.20625 232.26657Q27.925 230.67282 27.83125 227.11032L27.83125 225.51657L26.8 225.51657L26.8 224.01657L33.08125 224.01657Q32.9875 223.07907 32.9875 222.42282L31.675 222.89157L31.4875 221.95407L27.64375 222.51657Q27.45625 223.17282 27.26875 222.79782L26.70625 221.01657L27.64375 221.01657L28.76875 219.04782L26.8 217.64157L27.55 216.42282L27.83125 216.61032L29.6125 212.76657L31.01875 213.70407Q31.39375 214.07907 30.83125 214.07907L28.8625 217.26657L29.51875 217.73532L31.01875 215.20407L32.2375 216.04782Q32.6125 216.42282 32.05 216.42282L29.14375 220.92282L31.1125 220.73532L30.55 219.23532L31.675 218.76657Q32.425 219.89157 32.89375 221.76657L32.89375 212.48532L34.39375 212.48532Q35.14375 212.57907 34.4875 213.04782L34.4875 219.79782ZM39.64375 221.29782L35.8 222.04782Q35.6125 222.70407 35.425 222.32907L34.8625 220.64157L35.70625 220.54782L36.83125 218.86032L34.58125 217.17282L35.33125 216.04782L35.70625 216.32907L37.58125 212.76657L38.89375 213.61032Q39.26875 213.98532 38.70625 213.98532L36.83125 216.89157L37.675 217.45407L39.175 215.11032L40.39375 215.76657Q40.76875 216.14157 40.20625 216.14157L37.20625 220.45407L39.26875 220.17282L38.70625 218.86032L39.925 218.57907Q40.8625 219.98532 41.33125 221.86032L39.925 222.32907L39.64375 221.29782ZM52.4875 214.17282Q54.26875 216.14157 55.675 218.48532L53.89375 219.51657L53.14375 218.39157L44.8 219.23532Q44.70625 219.89157 44.33125 219.51657L43.76875 217.26657L46.3 217.26657L48.175 212.20407L50.51875 212.76657Q50.89375 213.14157 50.2375 213.23532L47.9875 217.17282L52.39375 216.89157L50.9875 215.01657L52.4875 214.17282ZM47.51875 221.95407L47.51875 223.54782L51.925 223.54782L51.925 221.95407L47.51875 221.95407ZM47.51875 225.32907L47.51875 226.92282L51.925 226.92282L51.925 225.32907L47.51875 225.32907ZM53.8 220.17282L53.8 231.98532Q53.8 233.48532 52.3 233.48532L50.70625 233.48532L50.425 231.70407L51.64375 231.70407Q51.925 231.70407 51.925 231.42282L51.925 228.70407L47.51875 228.70407L47.51875 233.57907L45.64375 233.57907L45.64375 220.17282L53.8 220.17282ZM57.925 223.82907Q58.675 223.92282 58.01875 224.39157L58.01875 226.82907L63.3625 224.86032L64.3 226.45407Q64.39375 227.11032 63.7375 226.73532L58.01875 228.23532L58.01875 230.86032Q58.01875 231.51657 58.58125 231.51657L62.33125 231.51657Q62.9875 231.51657 63.08125 230.86032L63.3625 229.26657L65.33125 229.64157L64.95625 231.79782Q64.675 233.29782 63.3625 233.29782L57.83125 233.29782Q56.14375 233.29782 56.14375 231.70407L56.14375 223.82907L57.925 223.82907ZM63.925 216.42282Q64.01875 217.07907 63.3625 216.70407L58.01875 218.20407L58.01875 220.45407Q58.01875 221.11032 58.58125 221.11032L62.33125 221.11032Q62.89375 221.11032 62.9875 220.36032L63.175 218.67282L65.14375 219.04782L64.95625 221.11032Q64.76875 222.89157 63.175 222.89157L57.83125 222.89157Q56.14375 222.89157 56.14375 221.29782L56.14375 212.95407L57.925 212.95407Q58.675 213.04782 58.01875 213.51657L58.01875 216.79782L62.8 214.73532L63.925 216.42282Z" fill-rule="nonzero"/><path fill="#9e9e9e" d="M27.4875 262.61032L25.378124 262.61032L25.378124 249.17282Q24.628124 249.89157 23.378124 250.62595Q22.14375 251.3447 21.159374 251.70407L21.159374 249.67282Q22.940624 248.8447 24.253124 247.6572Q25.58125 246.4697 26.128124 245.36032L27.4875 245.36032L27.4875 262.61032ZM43.628124 260.57907L43.628124 262.61032L32.284374 262.61032Q32.253124 261.8447 32.51875 261.14157Q32.95625 259.98532 33.909374 258.86032Q34.8625 257.73532 36.675 256.25095Q39.471874 253.95407 40.45625 252.62595Q41.440624 251.2822 41.440624 250.07907Q41.440624 248.82907 40.534374 247.9697Q39.64375 247.11032 38.20625 247.11032Q36.690624 247.11032 35.76875 248.0322Q34.8625 248.93845 34.846874 250.54782L32.675 250.32907Q32.89375 247.9072 34.346874 246.64157Q35.8 245.36032 38.253124 245.36032Q40.721874 245.36032 42.159374 246.73532Q43.6125 248.0947 43.6125 250.12595Q43.6125 251.1572 43.190624 252.1572Q42.76875 253.1572 41.784374 254.26657Q40.815624 255.36032 38.534374 257.2822Q36.64375 258.87595 36.096874 259.43845Q35.565624 260.00095 35.20625 260.57907L43.628124 260.57907ZM46.7375 262.61032L46.7375 260.20407L49.128124 260.20407L49.128124 262.61032L46.7375 262.61032ZM63.628124 260.57907L63.628124 262.61032L52.284374 262.61032Q52.253124 261.8447 52.51875 261.14157Q52.95625 259.98532 53.909374 258.86032Q54.8625 257.73532 56.675 256.25095Q59.471874 253.95407 60.45625 252.62595Q61.440624 251.2822 61.440624 250.07907Q61.440624 248.82907 60.534374 247.9697Q59.64375 247.11032 58.20625 247.11032Q56.690624 247.11032 55.76875 248.0322Q54.8625 248.93845 54.846874 250.54782L52.675 250.32907Q52.89375 247.9072 54.346874 246.64157Q55.8 245.36032 58.253124 245.36032Q60.721874 245.36032 62.159374 246.73532Q63.6125 248.0947 63.6125 250.12595Q63.6125 251.1572 63.190624 252.1572Q62.76875 253.1572 61.784374 254.26657Q60.815624 255.36032 58.534374 257.2822Q56.64375 258.87595 56.096874 259.43845Q55.565624 260.00095 55.20625 260.57907L63.628124 260.57907ZM65.94063 249.54782Q65.94063 247.7197 66.8625 246.43845Q67.8 245.14157 69.55 245.14157Q71.175 245.14157 72.2375 246.29782Q73.3 247.43845 73.3 249.68845Q73.3 251.86032 72.22188 253.04782Q71.14375 254.2197 69.58125 254.2197Q68.01875 254.2197 66.97188 253.06345Q65.94063 251.89157 65.94063 249.54782ZM69.6125 246.5947Q68.83125 246.5947 68.3 247.2822Q67.78438 247.95407 67.78438 249.76657Q67.78438 251.42282 68.31563 252.0947Q68.84688 252.76657 69.6125 252.76657Q70.40938 252.76657 70.925 252.0947Q71.45625 251.4072 71.45625 249.5947Q71.45625 247.93845 70.925 247.26657Q70.39375 246.5947 69.6125 246.5947ZM69.62813 263.25095L79.01875 245.14157L80.7375 245.14157L71.37813 263.25095L69.62813 263.25095ZM77.05 258.57907Q77.05 256.7197 77.97188 255.43845Q78.90938 254.1572 80.675 254.1572Q82.3 254.1572 83.34688 255.31345Q84.40938 256.4697 84.40938 258.70407Q84.40938 260.89157 83.33125 262.07907Q82.26875 263.25095 80.69063 263.25095Q79.12813 263.25095 78.08125 262.07907Q77.05 260.9072 77.05 258.57907ZM80.7375 255.61032Q79.94063 255.61032 79.40938 256.29782Q78.89375 256.9697 78.89375 258.7822Q78.89375 260.42282 79.425 261.11032Q79.95625 261.7822 80.72188 261.7822Q81.53438 261.7822 82.05 261.11032Q82.58125 260.42282 82.58125 258.62595Q82.58125 256.95407 82.05 256.2822Q81.51875 255.61032 80.7375 255.61032Z" fill-rule="nonzero"/><path stroke="#757575" stroke-width="1.0" stroke-linecap="butt" d="M18.55 239.11032L209.05 239.11032L232.73283 239.11032" fill-rule="nonzero"/><path fill="#9e9e9e" d="M234.73283 239.11032C234.73283 238.00575 233.8374 237.11032 232.73283 237.11032C231.62827 237.11032 230.73283 238.00575 230.73283 239.11032C230.73283 240.21489 231.62827 241.11032 232.73283 241.11032C233.8374 241.11032 234.73283 240.21489 234.73283 239.11032" fill-rule="nonzero"/><path fill="#1a1a1a" d="M20.409374 292.27652L20.409374 275.08902L26.315624 275.08902Q28.33125 275.08902 29.378124 275.33902Q30.8625 275.68277 31.89375 276.5734Q33.253124 277.71402 33.925 279.5109Q34.6125 281.29214 34.6125 283.58902Q34.6125 285.54214 34.14375 287.05777Q33.690624 288.5734 32.971874 289.5734Q32.26875 290.55777 31.409374 291.12027Q30.565624 291.68277 29.3625 291.97964Q28.159374 292.27652 26.596874 292.27652L20.409374 292.27652ZM22.675 290.24527L26.346874 290.24527Q28.05 290.24527 29.003124 289.93277Q29.971874 289.62027 30.55 289.04214Q31.3625 288.22964 31.815624 286.87027Q32.26875 285.49527 32.26875 283.55777Q32.26875 280.85464 31.378124 279.41714Q30.4875 277.96402 29.221874 277.47964Q28.315624 277.12027 26.284374 277.12027L22.675 277.12027L22.675 290.24527ZM45.659374 288.2609L47.83125 288.54214Q47.315624 290.4484 45.925 291.5109Q44.534374 292.55777 42.3625 292.55777Q39.628124 292.55777 38.01875 290.8859Q36.425 289.1984 36.425 286.15152Q36.425 283.0109 38.034374 281.27652Q39.659374 279.54214 42.2375 279.54214Q44.7375 279.54214 46.315624 281.24527Q47.909374 282.9484 47.909374 286.02652Q47.909374 286.21402 47.89375 286.58902L38.6125 286.58902Q38.721874 288.6359 39.76875 289.72964Q40.815624 290.8234 42.378124 290.8234Q43.534374 290.8234 44.346874 290.21402Q45.175 289.60464 45.659374 288.2609ZM38.721874 284.85464L45.675 284.85464Q45.534374 283.29214 44.878124 282.49527Q43.878124 281.27652 42.26875 281.27652Q40.815624 281.27652 39.815624 282.2609Q38.83125 283.22964 38.721874 284.85464ZM49.284374 288.55777L51.378124 288.22964Q51.55 289.47964 52.346874 290.15152Q53.159374 290.8234 54.596874 290.8234Q56.05 290.8234 56.753124 290.22964Q57.45625 289.6359 57.45625 288.83902Q57.45625 288.12027 56.83125 287.71402Q56.409374 287.43277 54.675 286.99527Q52.3625 286.41714 51.45625 285.99527Q50.565624 285.55777 50.096874 284.80777Q49.64375 284.04214 49.64375 283.1359Q49.64375 282.30777 50.01875 281.60464Q50.409374 280.8859 51.065624 280.41714Q51.55 280.05777 52.39375 279.80777Q53.253124 279.54214 54.221874 279.54214Q55.690624 279.54214 56.8 279.96402Q57.909374 280.3859 58.425 281.12027Q58.95625 281.83902 59.159374 283.04214L57.096874 283.3234Q56.95625 282.35464 56.284374 281.8234Q55.6125 281.27652 54.378124 281.27652Q52.925 281.27652 52.3 281.7609Q51.675 282.24527 51.675 282.8859Q51.675 283.29214 51.940624 283.62027Q52.190624 283.96402 52.753124 284.18277Q53.065624 284.30777 54.6125 284.72964Q56.846874 285.3234 57.721874 285.71402Q58.6125 286.08902 59.1125 286.8234Q59.628124 287.54214 59.628124 288.62027Q59.628124 289.66714 59.003124 290.60464Q58.39375 291.54214 57.2375 292.05777Q56.08125 292.55777 54.6125 292.55777Q52.190624 292.55777 50.909374 291.55777Q49.64375 290.54214 49.284374 288.55777ZM62.14375 277.52652L62.14375 275.08902L64.25313 275.08902L64.25313 277.52652L62.14375 277.52652ZM62.14375 292.27652L62.14375 279.8234L64.25313 279.8234L64.25313 292.27652L62.14375 292.27652ZM66.75313 293.30777L68.8 293.62027Q68.925 294.55777 69.51875 294.99527Q70.3 295.58902 71.65938 295.58902Q73.12813 295.58902 73.925 294.99527Q74.72188 294.41714 75.00313 293.35464Q75.15938 292.71402 75.14375 290.65152Q73.76875 292.27652 71.70625 292.27652Q69.14375 292.27652 67.7375 290.43277Q66.33125 288.5734 66.33125 285.97964Q66.33125 284.1984 66.97188 282.6984Q67.6125 281.18277 68.83125 280.37027Q70.06563 279.54214 71.72188 279.54214Q73.925 279.54214 75.34688 281.3234L75.34688 279.8234L77.3 279.8234L77.3 290.58902Q77.3 293.49527 76.70625 294.6984Q76.1125 295.91714 74.83125 296.62027Q73.55 297.3234 71.675 297.3234Q69.44063 297.3234 68.06563 296.3234Q66.70625 295.3234 66.75313 293.30777ZM68.4875 285.8234Q68.4875 288.27652 69.45625 289.40152Q70.44063 290.52652 71.90938 290.52652Q73.3625 290.52652 74.34688 289.41714Q75.33125 288.29214 75.33125 285.90152Q75.33125 283.62027 74.31563 282.46402Q73.3 281.29214 71.8625 281.29214Q70.45625 281.29214 69.47188 282.43277Q68.4875 283.5734 68.4875 285.8234ZM81.12813 292.27652L81.12813 279.8234L83.03438 279.8234L83.03438 281.60464Q84.40938 279.54214 86.9875 279.54214Q88.1125 279.54214 89.05 279.9484Q90.00313 280.35464 90.47188 281.0109Q90.94063 281.66714 91.12813 282.5734Q91.25313 283.15152 91.25313 284.62027L91.25313 292.27652L89.14375 292.27652L89.14375 284.6984Q89.14375 283.41714 88.89375 282.77652Q88.64375 282.1359 88.01875 281.7609Q87.39375 281.37027 86.55 281.37027Q85.20625 281.37027 84.22188 282.22964Q83.2375 283.08902 83.2375 285.47964L83.2375 292.27652L81.12813 292.27652ZM102.40938 292.27652L102.40938 275.08902L108.31563 275.08902Q110.33125 275.08902 111.37813 275.33902Q112.8625 275.68277 113.89375 276.5734Q115.25313 277.71402 115.925 279.5109Q116.6125 281.29214 116.6125 283.58902Q116.6125 285.54214 116.14375 287.05777Q115.69063 288.5734 114.97188 289.5734Q114.26875 290.55777 113.40938 291.12027Q112.56563 291.68277 111.3625 291.97964Q110.15938 292.27652 108.59688 292.27652L102.40938 292.27652ZM104.675 290.24527L108.34688 290.24527Q110.05 290.24527 111.00313 289.93277Q111.97188 289.62027 112.55 289.04214Q113.3625 288.22964 113.81563 286.87027Q114.26875 285.49527 114.26875 283.55777Q114.26875 280.85464 113.37813 279.41714Q112.4875 277.96402 111.22188 277.47964Q110.31563 277.12027 108.28438 277.12027L104.675 277.12027L104.675 290.24527ZM118.34688 286.05777Q118.34688 282.58902 120.26875 280.93277Q121.87813 279.54214 124.19063 279.54214Q126.75313 279.54214 128.37813 281.22964Q130.00313 282.91714 130.00313 285.87027Q130.00313 288.27652 129.28438 289.65152Q128.56563 291.02652 127.19063 291.79214Q125.81563 292.55777 124.19063 292.55777Q121.56563 292.55777 119.95625 290.8859Q118.34688 289.1984 118.34688 286.05777ZM120.51875 286.05777Q120.51875 288.4484 121.55 289.6359Q122.59688 290.8234 124.19063 290.8234Q125.75313 290.8234 126.8 289.6359Q127.84688 288.43277 127.84688 285.97964Q127.84688 283.66714 126.78438 282.47964Q125.7375 281.29214 124.19063 281.29214Q122.59688 281.29214 121.55 282.47964Q120.51875 283.66714 120.51875 286.05777ZM140.25313 287.71402L142.33125 287.97964Q141.9875 290.1359 140.58125 291.35464Q139.19063 292.55777 137.14375 292.55777Q134.59688 292.55777 133.03438 290.8859Q131.4875 289.21402 131.4875 286.10464Q131.4875 284.08902 132.15938 282.5734Q132.83125 281.05777 134.19063 280.30777Q135.55 279.54214 137.15938 279.54214Q139.19063 279.54214 140.47188 280.5734Q141.76875 281.60464 142.12813 283.47964L140.08125 283.80777Q139.78438 282.54214 139.03438 281.91714Q138.3 281.27652 137.2375 281.27652Q135.64375 281.27652 134.64375 282.43277Q133.65938 283.5734 133.65938 286.04214Q133.65938 288.54214 134.6125 289.68277Q135.58125 290.8234 137.12813 290.8234Q138.3625 290.8234 139.19063 290.05777Q140.03438 289.29214 140.25313 287.71402Z" fill-rule="nonzero"/><path fill="#9e9e9e" d="M30.628124 321.24527L30.628124 323.27652L19.284374 323.27652Q19.253124 322.5109 19.51875 321.80777Q19.95625 320.65152 20.909374 319.52652Q21.8625 318.40152 23.675 316.91714Q26.471874 314.62027 27.45625 313.29214Q28.440624 311.9484 28.440624 310.74527Q28.440624 309.49527 27.534374 308.6359Q26.64375 307.77652 25.20625 307.77652Q23.690624 307.77652 22.76875 308.6984Q21.8625 309.60464 21.846874 311.21402L19.675 310.99527Q19.89375 308.5734 21.346874 307.30777Q22.8 306.02652 25.253124 306.02652Q27.721874 306.02652 29.159374 307.40152Q30.6125 308.7609 30.6125 310.79214Q30.6125 311.8234 30.190624 312.8234Q29.76875 313.8234 28.784374 314.93277Q27.815624 316.02652 25.534374 317.9484Q23.64375 319.54214 23.096874 320.10464Q22.565624 320.66714 22.20625 321.24527L30.628124 321.24527ZM33.7375 323.27652L33.7375 320.87027L36.128124 320.87027L36.128124 323.27652L33.7375 323.27652ZM46.315624 323.27652L46.315624 319.16714L38.8625 319.16714L38.8625 317.22964L46.690624 306.08902L48.425 306.08902L48.425 317.22964L50.7375 317.22964L50.7375 319.16714L48.425 319.16714L48.425 323.27652L46.315624 323.27652ZM46.315624 317.22964L46.315624 309.47964L40.925 317.22964L46.315624 317.22964ZM52.940624 310.21402Q52.940624 308.3859 53.8625 307.10464Q54.8 305.80777 56.55 305.80777Q58.175 305.80777 59.2375 306.96402Q60.3 308.10464 60.3 310.35464Q60.3 312.52652 59.221874 313.71402Q58.14375 314.8859 56.58125 314.8859Q55.01875 314.8859 53.971874 313.72964Q52.940624 312.55777 52.940624 310.21402ZM56.6125 307.2609Q55.83125 307.2609 55.3 307.9484Q54.784374 308.62027 54.784374 310.43277Q54.784374 312.08902 55.315624 312.7609Q55.846874 313.43277 56.6125 313.43277Q57.409374 313.43277 57.925 312.7609Q58.45625 312.0734 58.45625 310.2609Q58.45625 308.60464 57.925 307.93277Q57.39375 307.2609 56.6125 307.2609ZM56.628124 323.91714L66.01875 305.80777L67.7375 305.80777L58.378124 323.91714L56.628124 323.91714ZM64.05 319.24527Q64.05 317.3859 64.97188 316.10464Q65.90938 314.8234 67.675 314.8234Q69.3 314.8234 70.34688 315.97964Q71.40938 317.1359 71.40938 319.37027Q71.40938 321.55777 70.33125 322.74527Q69.26875 323.91714 67.69063 323.91714Q66.12813 323.91714 65.08125 322.74527Q64.05 321.5734 64.05 319.24527ZM67.7375 316.27652Q66.94063 316.27652 66.40938 316.96402Q65.89375 317.6359 65.89375 319.4484Q65.89375 321.08902 66.425 321.77652Q66.95625 322.4484 67.72188 322.4484Q68.53438 322.4484 69.05 321.77652Q69.58125 321.08902 69.58125 319.29214Q69.58125 317.62027 69.05 316.9484Q68.51875 316.27652 67.7375 316.27652Z" fill-rule="nonzero"/><path stroke="#757575" stroke-width="1.0" stroke-linecap="butt" d="M18.55 299.77652L209.05 299.77652L272.01987 299.77652" fill-rule="nonzero"/><path fill="#9e9e9e" d="M274.01987 299.77652C274.01987 298.67197 273.12445 297.77652 272.01987 297.77652C270.9153 297.77652 270.01987 298.67197 270.01987 299.77652C270.01987 300.8811 270.9153 301.77652 272.01987 301.77652C273.12445 301.77652 274.01987 300.8811 274.01987 299.77652" fill-rule="nonzero"/><path fill="#1a1a1a" d="M572.3094 231.61032L572.3094 214.42282L578.21564 214.42282Q580.23126 214.42282 581.27814 214.67282Q582.7625 215.01657 583.79376 215.9072Q585.15314 217.04782 585.825 218.8447Q586.5125 220.62595 586.5125 222.92282Q586.5125 224.87595 586.04376 226.39157Q585.59064 227.9072 584.8719 228.9072Q584.16876 229.89157 583.3094 230.45407Q582.46564 231.01657 581.2625 231.31345Q580.0594 231.61032 578.4969 231.61032L572.3094 231.61032ZM574.575 229.57907L578.2469 229.57907Q579.95 229.57907 580.90314 229.26657Q581.8719 228.95407 582.45 228.37595Q583.2625 227.56345 583.71564 226.20407Q584.16876 224.82907 584.16876 222.89157Q584.16876 220.18845 583.27814 218.75095Q582.3875 217.29782 581.1219 216.81345Q580.21564 216.45407 578.1844 216.45407L574.575 216.45407L574.575 229.57907ZM597.5594 227.5947L599.73126 227.87595Q599.21564 229.7822 597.825 230.8447Q596.4344 231.89157 594.2625 231.89157Q591.52814 231.89157 589.91876 230.2197Q588.325 228.5322 588.325 225.48532Q588.325 222.3447 589.9344 220.61032Q591.5594 218.87595 594.1375 218.87595Q596.6375 218.87595 598.21564 220.57907Q599.8094 222.2822 599.8094 225.36032Q599.8094 225.54782 599.79376 225.92282L590.5125 225.92282Q590.6219 227.9697 591.66876 229.06345Q592.71564 230.1572 594.27814 230.1572Q595.4344 230.1572 596.2469 229.54782Q597.075 228.93845 597.5594 227.5947ZM590.6219 224.18845L597.575 224.18845Q597.4344 222.62595 596.77814 221.82907Q595.77814 220.61032 594.16876 220.61032Q592.71564 220.61032 591.71564 221.5947Q590.73126 222.56345 590.6219 224.18845ZM610.15314 227.04782L612.23126 227.31345Q611.8875 229.4697 610.48126 230.68845Q609.09064 231.89157 607.04376 231.89157Q604.4969 231.89157 602.9344 230.2197Q601.3875 228.54782 601.3875 225.43845Q601.3875 223.42282 602.0594 221.9072Q602.73126 220.39157 604.09064 219.64157Q605.45 218.87595 607.0594 218.87595Q609.09064 218.87595 610.3719 219.9072Q611.66876 220.93845 612.02814 222.81345L609.98126 223.14157Q609.6844 221.87595 608.9344 221.25095Q608.2 220.61032 607.1375 220.61032Q605.54376 220.61032 604.54376 221.76657Q603.5594 222.9072 603.5594 225.37595Q603.5594 227.87595 604.5125 229.01657Q605.48126 230.1572 607.02814 230.1572Q608.2625 230.1572 609.09064 229.39157Q609.9344 228.62595 610.15314 227.04782ZM614.04376 216.86032L614.04376 214.42282L616.15314 214.42282L616.15314 216.86032L614.04376 216.86032ZM614.04376 231.61032L614.04376 219.1572L616.15314 219.1572L616.15314 231.61032L614.04376 231.61032ZM618.1844 227.89157L620.27814 227.56345Q620.45 228.81345 621.2469 229.48532Q622.0594 230.1572 623.4969 230.1572Q624.95 230.1572 625.65314 229.56345Q626.35626 228.9697 626.35626 228.17282Q626.35626 227.45407 625.73126 227.04782Q625.3094 226.76657 623.575 226.32907Q621.2625 225.75095 620.35626 225.32907Q619.46564 224.89157 618.9969 224.14157Q618.54376 223.37595 618.54376 222.4697Q618.54376 221.64157 618.91876 220.93845Q619.3094 220.2197 619.96564 219.75095Q620.45 219.39157 621.29376 219.14157Q622.15314 218.87595 623.1219 218.87595Q624.59064 218.87595 625.7 219.29782Q626.8094 219.7197 627.325 220.45407Q627.85626 221.17282 628.0594 222.37595L625.9969 222.6572Q625.85626 221.68845 625.1844 221.1572Q624.5125 220.61032 623.27814 220.61032Q621.825 220.61032 621.2 221.0947Q620.575 221.57907 620.575 222.2197Q620.575 222.62595 620.84064 222.95407Q621.09064 223.29782 621.65314 223.51657Q621.96564 223.64157 623.5125 224.06345Q625.7469 224.6572 626.6219 225.04782Q627.5125 225.42282 628.0125 226.1572Q628.52814 226.87595 628.52814 227.95407Q628.52814 229.00095 627.90314 229.93845Q627.29376 230.87595 626.1375 231.39157Q624.98126 231.89157 623.5125 231.89157Q621.09064 231.89157 619.8094 230.89157Q618.54376 229.87595 618.1844 227.89157ZM631.04376 216.86032L631.04376 214.42282L633.15314 214.42282L633.15314 216.86032L631.04376 216.86032ZM631.04376 231.61032L631.04376 219.1572L633.15314 219.1572L633.15314 231.61032L631.04376 231.61032ZM635.2469 225.39157Q635.2469 221.92282 637.16876 220.26657Q638.77814 218.87595 641.09064 218.87595Q643.65314 218.87595 645.27814 220.56345Q646.90314 222.25095 646.90314 225.20407Q646.90314 227.61032 646.1844 228.98532Q645.46564 230.36032 644.09064 231.12595Q642.71564 231.89157 641.09064 231.89157Q638.46564 231.89157 636.85626 230.2197Q635.2469 228.5322 635.2469 225.39157ZM637.41876 225.39157Q637.41876 227.7822 638.45 228.9697Q639.4969 230.1572 641.09064 230.1572Q642.65314 230.1572 643.7 228.9697Q644.7469 227.76657 644.7469 225.31345Q644.7469 223.00095 643.6844 221.81345Q642.6375 220.62595 641.09064 220.62595Q639.4969 220.62595 638.45 221.81345Q637.41876 223.00095 637.41876 225.39157ZM649.02814 231.61032L649.02814 219.1572L650.9344 219.1572L650.9344 220.93845Q652.3094 218.87595 654.8875 218.87595Q656.0125 218.87595 656.95 219.2822Q657.90314 219.68845 658.3719 220.3447Q658.84064 221.00095 659.02814 221.9072Q659.15314 222.48532 659.15314 223.95407L659.15314 231.61032L657.04376 231.61032L657.04376 224.0322Q657.04376 222.75095 656.79376 222.11032Q656.54376 221.4697 655.91876 221.0947Q655.29376 220.70407 654.45 220.70407Q653.10626 220.70407 652.1219 221.56345Q651.1375 222.42282 651.1375 224.81345L651.1375 231.61032L649.02814 231.61032ZM670.34064 231.61032L670.34064 214.42282L677.95 214.42282Q680.2469 214.42282 681.4344 214.89157Q682.6375 215.36032 683.35626 216.5322Q684.075 217.70407 684.075 219.11032Q684.075 220.93845 682.8875 222.20407Q681.7 223.45407 679.23126 223.79782Q680.1375 224.2197 680.60626 224.64157Q681.60626 225.56345 682.4969 226.93845L685.48126 231.61032L682.6219 231.61032L680.34064 228.0322Q679.35626 226.48532 678.7 225.67282Q678.0594 224.8447 677.54376 224.51657Q677.04376 224.18845 676.5125 224.06345Q676.1219 223.98532 675.2469 223.98532L672.60626 223.98532L672.60626 231.61032L670.34064 231.61032ZM672.60626 222.01657L677.4969 222.01657Q679.0594 222.01657 679.9344 221.68845Q680.8094 221.36032 681.2625 220.6572Q681.73126 219.95407 681.73126 219.11032Q681.73126 217.89157 680.84064 217.11032Q679.96564 216.32907 678.04376 216.32907L672.60626 216.32907L672.60626 222.01657ZM695.5594 227.5947L697.73126 227.87595Q697.21564 229.7822 695.825 230.8447Q694.4344 231.89157 692.2625 231.89157Q689.52814 231.89157 687.91876 230.2197Q686.325 228.5322 686.325 225.48532Q686.325 222.3447 687.9344 220.61032Q689.5594 218.87595 692.1375 218.87595Q694.6375 218.87595 696.21564 220.57907Q697.8094 222.2822 697.8094 225.36032Q697.8094 225.54782 697.79376 225.92282L688.5125 225.92282Q688.6219 227.9697 689.66876 229.06345Q690.71564 230.1572 692.27814 230.1572Q693.4344 230.1572 694.2469 229.54782Q695.075 228.93845 695.5594 227.5947ZM688.6219 224.18845L695.575 224.18845Q695.4344 222.62595 694.77814 221.82907Q693.77814 220.61032 692.16876 220.61032Q690.71564 220.61032 689.71564 221.5947Q688.73126 222.56345 688.6219 224.18845ZM708.15314 227.04782L710.23126 227.31345Q709.8875 229.4697 708.48126 230.68845Q707.09064 231.89157 705.04376 231.89157Q702.4969 231.89157 700.9344 230.2197Q699.3875 228.54782 699.3875 225.43845Q699.3875 223.42282 700.0594 221.9072Q700.73126 220.39157 702.09064 219.64157Q703.45 218.87595 705.0594 218.87595Q707.09064 218.87595 708.3719 219.9072Q709.66876 220.93845 710.02814 222.81345L707.98126 223.14157Q707.6844 221.87595 706.9344 221.25095Q706.2 220.61032 705.1375 220.61032Q703.54376 220.61032 702.54376 221.76657Q701.5594 222.9072 701.5594 225.37595Q701.5594 227.87595 702.5125 229.01657Q703.48126 230.1572 705.02814 230.1572Q706.2625 230.1572 707.09064 229.39157Q707.9344 228.62595 708.15314 227.04782ZM711.2469 225.39157Q711.2469 221.92282 713.16876 220.26657Q714.77814 218.87595 717.09064 218.87595Q719.65314 218.87595 721.27814 220.56345Q722.90314 222.25095 722.90314 225.20407Q722.90314 227.61032 722.1844 228.98532Q721.46564 230.36032 720.09064 231.12595Q718.71564 231.89157 717.09064 231.89157Q714.46564 231.89157 712.85626 230.2197Q711.2469 228.5322 711.2469 225.39157ZM713.41876 225.39157Q713.41876 227.7822 714.45 228.9697Q715.4969 230.1572 717.09064 230.1572Q718.65314 230.1572 719.7 228.9697Q720.7469 227.76657 720.7469 225.31345Q720.7469 223.00095 719.6844 221.81345Q718.6375 220.62595 717.09064 220.62595Q715.4969 220.62595 714.45 221.81345Q713.41876 223.00095 713.41876 225.39157ZM725.0125 231.61032L725.0125 219.1572L726.90314 219.1572L726.90314 221.04782Q727.6375 219.7197 728.2469 219.29782Q728.8719 218.87595 729.60626 218.87595Q730.66876 218.87595 731.77814 219.56345L731.04376 221.51657Q730.27814 221.06345 729.4969 221.06345Q728.8094 221.06345 728.2469 221.48532Q727.7 221.89157 727.46564 222.62595Q727.1219 223.75095 727.1219 225.0947L727.1219 231.61032L725.0125 231.61032ZM741.10626 231.61032L741.10626 230.0322Q739.91876 231.89157 737.6219 231.89157Q736.1375 231.89157 734.8875 231.07907Q733.6375 230.25095 732.95 228.7822Q732.27814 227.31345 732.27814 225.39157Q732.27814 223.5322 732.8875 222.01657Q733.5125 220.50095 734.7469 219.68845Q735.9969 218.87595 737.52814 218.87595Q738.65314 218.87595 739.52814 219.36032Q740.41876 219.82907 740.96564 220.5947L740.96564 214.42282L743.0594 214.42282L743.0594 231.61032L741.10626 231.61032ZM734.4344 225.39157Q734.4344 227.7822 735.4344 228.9697Q736.45 230.1572 737.825 230.1572Q739.21564 230.1572 740.16876 229.0322Q741.1375 227.89157 741.1375 225.57907Q741.1375 223.01657 740.15314 221.82907Q739.16876 220.62595 737.73126 220.62595Q736.325 220.62595 735.3719 221.7822Q734.4344 222.92282 734.4344 225.39157Z" fill-rule="nonzero"/><path fill="#9e9e9e" d="M690.3875 249.64157L688.29376 249.79782Q688.0125 248.56345 687.4969 248.00095Q686.6375 247.0947 685.3875 247.0947Q684.3875 247.0947 683.6219 247.6572Q682.6219 248.37595 682.04376 249.7822Q681.48126 251.17282 681.45 253.75095Q682.21564 252.5947 683.3094 252.0322Q684.41876 251.4697 685.6219 251.4697Q687.73126 251.4697 689.21564 253.01657Q690.7 254.56345 690.7 257.0322Q690.7 258.64157 689.9969 260.0322Q689.3094 261.42282 688.09064 262.17282Q686.8719 262.9072 685.325 262.9072Q682.6844 262.9072 681.0125 260.9697Q679.35626 259.01657 679.35626 254.56345Q679.35626 249.5947 681.2 247.32907Q682.79376 245.36032 685.5125 245.36032Q687.54376 245.36032 688.84064 246.50095Q690.1375 247.62595 690.3875 249.64157ZM681.77814 257.04782Q681.77814 258.12595 682.23126 259.12595Q682.7 260.12595 683.52814 260.6572Q684.3719 261.17282 685.27814 261.17282Q686.6219 261.17282 687.575 260.0947Q688.54376 259.01657 688.54376 257.1572Q688.54376 255.37595 687.59064 254.36032Q686.6375 253.32907 685.2 253.32907Q683.77814 253.32907 682.77814 254.36032Q681.77814 255.37595 681.77814 257.04782ZM700.3875 262.61032L698.27814 262.61032L698.27814 249.17282Q697.52814 249.89157 696.27814 250.62595Q695.04376 251.3447 694.0594 251.70407L694.0594 249.67282Q695.84064 248.8447 697.15314 247.6572Q698.48126 246.4697 699.02814 245.36032L700.3875 245.36032L700.3875 262.61032ZM706.6375 262.61032L706.6375 260.20407L709.02814 260.20407L709.02814 262.61032L706.6375 262.61032ZM712.45 254.14157Q712.45 251.0947 713.075 249.23532Q713.7 247.37595 714.9344 246.37595Q716.16876 245.36032 718.04376 245.36032Q719.4344 245.36032 720.46564 245.92282Q721.5125 246.4697 722.1844 247.51657Q722.8719 248.56345 723.2625 250.07907Q723.65314 251.57907 723.65314 254.14157Q723.65314 257.1572 723.02814 259.01657Q722.40314 260.87595 721.16876 261.89157Q719.9344 262.9072 718.04376 262.9072Q715.5594 262.9072 714.15314 261.12595Q712.45 258.9697 712.45 254.14157ZM714.6219 254.14157Q714.6219 258.36032 715.60626 259.76657Q716.59064 261.17282 718.04376 261.17282Q719.4969 261.17282 720.48126 259.76657Q721.48126 258.36032 721.48126 254.14157Q721.48126 249.89157 720.48126 248.50095Q719.4969 247.11032 718.02814 247.11032Q716.575 247.11032 715.7 248.32907Q714.6219 249.9072 714.6219 254.14157ZM725.84064 249.54782Q725.84064 247.7197 726.7625 246.43845Q727.7 245.14157 729.45 245.14157Q731.075 245.14157 732.1375 246.29782Q733.2 247.43845 733.2 249.68845Q733.2 251.86032 732.1219 253.04782Q731.04376 254.2197 729.48126 254.2197Q727.91876 254.2197 726.8719 253.06345Q725.84064 251.89157 725.84064 249.54782ZM729.5125 246.5947Q728.73126 246.5947 728.2 247.2822Q727.6844 247.95407 727.6844 249.76657Q727.6844 251.42282 728.21564 252.0947Q728.7469 252.76657 729.5125 252.76657Q730.3094 252.76657 730.825 252.0947Q731.35626 251.4072 731.35626 249.5947Q731.35626 247.93845 730.825 247.26657Q730.29376 246.5947 729.5125 246.5947ZM729.52814 263.25095L738.91876 245.14157L740.6375 245.14157L731.27814 263.25095L729.52814 263.25095ZM736.95 258.57907Q736.95 256.7197 737.8719 255.43845Q738.8094 254.1572 740.575 254.1572Q742.2 254.1572 743.2469 255.31345Q744.3094 256.4697 744.3094 258.70407Q744.3094 260.89157 743.23126 262.07907Q742.16876 263.25095 740.59064 263.25095Q739.02814 263.25095 737.98126 262.07907Q736.95 260.9072 736.95 258.57907ZM740.6375 255.61032Q739.84064 255.61032 739.3094 256.29782Q738.79376 256.9697 738.79376 258.7822Q738.79376 260.42282 739.325 261.11032Q739.85626 261.7822 740.6219 261.7822Q741.4344 261.7822 741.95 261.11032Q742.48126 260.42282 742.48126 258.62595Q742.48126 256.95407 741.95 256.2822Q741.41876 255.61032 740.6375 255.61032Z" fill-rule="nonzero"/><path stroke="#757575" stroke-width="1.0" stroke-linecap="butt" d="M745.45 239.11032L554.95 239.11032L531.26715 239.11032" fill-rule="nonzero"/><path fill="#9e9e9e" d="M533.26715 239.11032C533.26715 238.00575 532.3717 237.11032 531.26715 237.11032C530.1626 237.11032 529.26715 238.00575 529.26715 239.11032C529.26715 240.21489 530.1626 241.11032 531.26715 241.11032C532.3717 241.11032 533.26715 240.21489 533.26715 239.11032" fill-rule="nonzero"/></svg>