<svg width="842" height="307" viewBox="0 0 842 307" fill="none" xmlns="http://www.w3.org/2000/svg">
<path d="M160 16.5C159.172 16.5 158.5 17.1716 158.5 18C158.5 18.8284 159.172 19.5 160 19.5V16.5ZM160 19.5H598V16.5H160V19.5Z" fill="#B3B3B3"/>
<path d="M578.053 26.8065L596.053 20.809C598.649 19.8357 598.649 16.1643 596.053 15.191L578.053 9.1935C576.092 8.45803 574 9.90787 574 12.0025L574 23.9975C574 26.0921 576.092 27.542 578.053 26.8065Z" fill="#B3B3B3"/>
<path d="M6.84 20.496H17.256V19.464H6.84V20.496ZM6.84 17.784H17.256V16.752H6.84V17.784ZM20.112 14.976V22.272H4.128V14.976H20.112ZM18.168 10.176C17.64 11.088 17.184 11.832 16.824 12.408L14.28 11.856C14.592 11.184 14.976 10.272 15.168 9.624L18.168 10.176ZM8.784 9.624C9.144 10.32 9.48 11.232 9.624 11.832L6.888 12.456C6.792 11.808 6.48 10.872 6.144 10.152L8.784 9.624ZM13.416 6.624V9.504H10.512V6.624H13.416ZM22.464 11.856V14.088H1.608V11.856H22.464ZM21.168 7.896V10.128H2.76V7.896H21.168ZM6.216 23.952C5.568 25.776 4.584 27.552 2.88 28.68L0.648 27.168C2.16 26.232 3.24 24.672 3.816 23.064L6.216 23.952ZM19.392 22.776C20.856 24.024 22.56 25.8 23.328 27.144L20.928 28.536C20.256 27.24 18.624 25.344 17.16 24.024L19.392 22.776ZM11.04 21.744C12.384 22.296 14.136 23.232 15.048 23.952L13.392 25.632C12.552 24.912 10.848 23.904 9.504 23.256L11.04 21.744ZM9.648 25.896C9.648 26.52 9.84 26.592 10.944 26.592C11.448 26.592 13.584 26.592 14.256 26.592C15.12 26.592 15.288 26.328 15.408 24.624C15.984 25.008 17.112 25.392 17.832 25.536C17.544 28.248 16.776 28.92 14.52 28.92C13.872 28.92 11.232 28.92 10.632 28.92C7.584 28.92 6.84 28.2 6.84 25.92V23.4H9.648V25.896ZM30.312 21.384H33.216V25.296C33.216 26.016 33.432 26.088 34.608 26.088C35.136 26.088 37.344 26.088 38.04 26.088C39.048 26.088 39.216 25.752 39.36 23.352C39.96 23.784 41.184 24.24 41.976 24.408C41.64 27.84 40.824 28.704 38.28 28.704C37.608 28.704 34.896 28.704 34.272 28.704C31.08 28.704 30.312 27.888 30.312 25.32V21.384ZM32.688 20.64L34.584 18.864C36.288 19.704 38.4 21.048 39.432 22.128L37.368 24.096C36.432 23.04 34.392 21.576 32.688 20.64ZM41.04 21.672L43.608 20.616C44.928 22.392 46.296 24.744 46.776 26.448L43.968 27.624C43.56 26.016 42.312 23.544 41.04 21.672ZM26.928 20.76L29.52 21.696C28.968 23.76 28.128 26.184 26.976 27.792L24.408 26.352C25.512 24.912 26.424 22.728 26.928 20.76ZM29.52 14.496V16.56H41.232V14.496H29.52ZM29.52 10.128V12.168H41.232V10.128H29.52ZM26.808 7.632H44.088V19.056H26.808V7.632ZM34.032 8.736H36.84V18.024H34.032V8.736ZM55.848 10.32H68.52V18.528H65.712V13.008H55.848V10.32ZM54.648 17.376H70.344V20.088H54.648V17.376ZM59.856 6.624H62.736V15.024C62.736 20.256 62.064 25.752 55.8 29.232C55.272 28.632 54.144 27.648 53.4 27.192C59.256 24.12 59.856 19.56 59.856 15V6.624ZM64.032 18.888C65.064 22.392 67.248 25.32 70.584 26.688C69.912 27.264 69 28.416 68.568 29.208C64.872 27.408 62.664 24 61.368 19.536L64.032 18.888ZM49.128 8.856L50.688 6.744C52.176 7.32 54.12 8.304 55.08 9.12L53.424 11.472C52.536 10.632 50.64 9.528 49.128 8.856ZM47.736 15.384L49.296 13.224C50.784 13.752 52.776 14.712 53.76 15.504L52.104 17.904C51.192 17.088 49.272 16.032 47.736 15.384ZM48.432 27.024C49.632 25.2 51.336 22.152 52.656 19.344L54.864 21.144C53.688 23.688 52.272 26.472 50.928 28.848L48.432 27.024ZM75.984 13.872H89.256V16.608H75.984V13.872ZM82.608 19.632H90.72V22.32H82.608V19.632ZM81.096 15.456H84.12V27.048L81.096 26.688V15.456ZM75.36 17.952L78.384 18.264C77.76 23.136 76.272 26.952 73.536 29.304C73.056 28.8 71.832 27.768 71.16 27.336C73.752 25.416 74.952 22.08 75.36 17.952ZM77.688 20.952C79.224 25.368 82.584 26.04 86.856 26.04C88.128 26.04 92.136 26.04 93.744 25.992C93.336 26.664 92.856 28.056 92.736 28.92H86.688C81.144 28.92 77.4 27.792 75.336 21.744L77.688 20.952ZM81.048 6.648H84.12V11.04H81.048V6.648ZM72.312 9.072H92.952V15.096H89.976V11.808H75.144V15.096H72.312V9.072Z" fill="#1E1E1E"/>
<path d="M1.536 96.232H22.464V99.184H1.536V96.232ZM13.128 104.272L15.36 102.4C17.928 104.272 21.624 107.032 23.376 108.952L20.928 111.16C19.344 109.264 15.792 106.312 13.128 104.272ZM12.168 97.312L15.384 98.44C12.648 103.504 8.28 108.4 2.76 111.28C2.304 110.512 1.392 109.312 0.792 108.664C5.928 106.24 10.176 101.584 12.168 97.312ZM10.416 103.12L13.584 99.976V117.112H10.416V103.12ZM24.912 96.688H46.248V99.352H24.912V96.688ZM34.032 94.624H37.008V97.792H34.032V94.624ZM37.248 97.768H40.056V103.672C40.056 104.92 39.864 105.592 39 106C38.184 106.408 37.08 106.432 35.64 106.432C35.52 105.664 35.184 104.632 34.848 103.888C35.688 103.912 36.6 103.912 36.888 103.912C37.176 103.912 37.248 103.864 37.248 103.6V97.768ZM32.376 97.408H35.064V99.304C35.064 101.824 34.656 105.088 31.104 107.32C30.672 106.72 29.664 105.784 29.016 105.352C32.04 103.576 32.376 101.128 32.376 99.232V97.408ZM40.728 101.344L42.96 100.048C44.328 101.392 46.008 103.288 46.776 104.584L44.376 106.024C43.704 104.728 42.096 102.76 40.728 101.344ZM27.984 100.144L30.672 100.864C29.664 102.76 28.08 104.704 26.4 105.856C25.896 105.352 24.984 104.584 24.408 104.2C25.944 103.24 27.336 101.584 27.984 100.144ZM31.968 108.808C34.416 112.408 39.648 114.088 46.968 114.448C46.368 115.12 45.648 116.344 45.288 117.16C37.584 116.512 32.544 114.352 29.4 109.624L31.968 108.808ZM32.568 105.592L35.568 106.168C33.624 108.952 30.888 111.16 26.736 112.84C26.352 112.168 25.536 111.136 24.936 110.704C28.776 109.432 31.272 107.536 32.568 105.592ZM32.52 107.344H41.016V109.624H30.504L32.52 107.344ZM40.224 107.344H40.848L41.328 107.248L43.2 108.496C40.104 114.064 33.192 116.344 25.584 117.208C25.344 116.512 24.72 115.24 24.216 114.64C31.584 114.064 37.92 112.192 40.224 107.8V107.344ZM49.056 99.28C50.088 99.4 51.384 99.448 52.248 99.448C55.224 99.448 58.464 98.944 60.792 98.2L60.864 100.984C58.8 101.56 55.344 102.184 52.272 102.16C51.312 102.16 50.304 102.136 49.272 102.088L49.056 99.28ZM58.392 95.68C58.08 96.952 57.504 99.304 56.856 101.344C55.752 104.8 53.592 109.264 51.552 112.096L48.648 110.608C50.808 107.968 52.968 103.768 53.904 101.176C54.48 99.448 55.008 97.216 55.08 95.368L58.392 95.68ZM64.032 103.168C63.96 104.176 63.984 105.184 64.008 106.24C64.056 107.656 64.272 111.232 64.272 112.576C64.272 114.808 63.072 116.56 59.64 116.56C56.664 116.56 54.312 115.216 54.312 112.576C54.312 110.248 56.28 108.424 59.616 108.424C63.816 108.424 67.128 110.536 69.12 112.336L67.536 114.928C65.808 113.32 63.072 110.848 59.448 110.848C58.056 110.848 57.144 111.448 57.144 112.288C57.144 113.176 57.912 113.8 59.232 113.8C60.864 113.8 61.392 112.888 61.392 111.544C61.392 110.104 61.128 105.688 61.008 103.168H64.032ZM68.16 104.44C66.768 103.312 64.032 101.752 62.376 101.008L63.936 98.656C65.664 99.4 68.616 101.008 69.864 101.896L68.16 104.44ZM16.344 129.144C17.016 130.152 18 131.688 18.528 132.792L16.464 133.704C15.744 132.192 15.216 131.232 14.328 130.008L16.344 129.144ZM19.488 127.848C20.208 128.808 21.216 130.296 21.744 131.376L19.728 132.384C18.96 130.848 18.384 129.96 17.496 128.784L19.488 127.848ZM6.792 145.056C6.792 143.232 6.792 133.296 6.792 131.256C6.792 130.392 6.696 129.216 6.528 128.376H10.296C10.2 129.216 10.08 130.272 10.08 131.256C10.08 133.92 10.08 143.28 10.08 145.056C10.08 145.752 10.2 147.432 10.296 148.392H6.552C6.696 147.456 6.792 146.016 6.792 145.056ZM9.36 134.568C12.576 135.456 17.736 137.352 20.112 138.528L18.744 141.84C16.032 140.424 11.976 138.888 9.36 138.024V134.568ZM32.28 129.864C32.136 129.192 31.968 128.616 31.776 128.064L35.184 127.512C35.232 127.968 35.328 128.784 35.424 129.36C35.664 130.944 38.04 143.088 38.544 145.536C38.712 146.232 38.928 147.096 39.144 147.888L35.688 148.488C35.568 147.6 35.52 146.784 35.352 146.064C34.992 143.904 32.664 131.808 32.28 129.864ZM25.728 132.936C26.472 132.888 27.192 132.84 27.96 132.744C30 132.504 38.4 131.208 40.56 130.776C41.304 130.656 42.216 130.44 42.792 130.272L43.392 133.44C42.864 133.464 41.88 133.608 41.16 133.704C38.616 134.112 30.36 135.432 28.56 135.744C27.816 135.888 27.192 136.032 26.376 136.248L25.728 132.936ZM25.752 139.968C26.376 139.944 27.48 139.824 28.224 139.704C30.792 139.344 39.552 137.928 42.312 137.4C43.248 137.232 44.136 137.016 44.784 136.848L45.408 140.016C44.76 140.064 43.776 140.232 42.888 140.376C39.84 140.832 31.2 142.248 28.824 142.704C27.792 142.896 26.952 143.04 26.424 143.184L25.752 139.968ZM65.28 135.576C65.184 135.888 65.088 136.32 65.064 136.584C64.824 138.264 64.008 143.712 63.72 145.44H60.408C60.72 143.856 61.44 139.224 61.56 137.616C60.408 137.616 55.752 137.616 55.056 137.616C54.312 137.616 53.352 137.664 52.656 137.712V134.544C53.304 134.64 54.408 134.712 55.032 134.712C56.256 134.712 60.048 134.712 61.2 134.712C61.68 134.712 62.664 134.616 62.976 134.448L65.28 135.576ZM50.472 144.264C51.096 144.336 52.008 144.408 52.824 144.408C54.264 144.408 64.248 144.408 65.424 144.408C66.024 144.408 67.152 144.36 67.776 144.288V147.384C67.272 147.36 66.096 147.336 65.472 147.336C64.224 147.336 54.048 147.336 52.824 147.336C51.984 147.336 51.36 147.36 50.472 147.408V144.264ZM90.864 129.36C90.528 129.912 90.072 130.968 89.856 131.544C88.944 133.92 87.48 137.088 85.488 139.68C83.256 142.56 80.304 145.656 75.648 148.224L72.984 145.776C77.352 143.688 80.352 141.024 82.896 137.712C84.792 135.216 85.872 132.744 86.712 130.344C86.928 129.72 87.168 128.736 87.288 128.136L90.864 129.36ZM77.664 131.688C80.04 133.176 83.328 135.456 85.344 137.04C87.912 139.032 90.432 141.288 92.376 143.352L89.904 146.112C87.816 143.664 85.704 141.696 83.16 139.584C81.432 138.144 78.624 135.984 75.6 134.136L77.664 131.688ZM99.96 128.76C101.616 129.888 104.736 132.384 106.152 133.848L103.704 136.344C102.456 135 99.432 132.384 97.68 131.184L99.96 128.76ZM96.936 144.744C100.704 144.216 103.8 142.992 106.128 141.624C110.232 139.176 113.352 135.528 114.888 132.288L116.736 135.648C114.936 138.912 111.744 142.224 107.88 144.552C105.432 146.016 102.336 147.336 98.976 147.912L96.936 144.744ZM125.232 144.72C125.232 142.872 125.232 132.936 125.232 130.92C125.232 130.056 125.16 128.88 124.992 128.016H128.736C128.64 128.88 128.52 129.912 128.52 130.92C128.52 133.56 128.544 142.944 128.544 144.72C128.544 145.392 128.64 147.072 128.76 148.056H124.992C125.16 147.12 125.232 145.656 125.232 144.72ZM127.824 134.232C131.016 135.12 136.2 137.016 138.552 138.168L137.208 141.504C134.472 140.088 130.44 138.552 127.824 137.688V134.232Z" fill="#1E1E1E"/>
<path d="M17.088 228.024H20.112V244.536C20.112 246.264 19.704 247.128 18.552 247.584C17.352 248.088 15.6 248.136 13.128 248.136C12.96 247.272 12.384 245.856 11.928 245.064C13.656 245.184 15.744 245.16 16.32 245.16C16.896 245.136 17.088 244.968 17.088 244.464V228.024ZM3.36 232.824H6.168V244.008H3.36V232.824ZM4.56 232.824H13.608V242.16H4.56V239.424H10.752V235.56H4.56V232.824ZM1.152 227.232H22.896V230.136H1.152V227.232ZM24.912 227.688H46.248V230.352H24.912V227.688ZM34.032 225.624H37.008V228.792H34.032V225.624ZM37.248 228.768H40.056V234.672C40.056 235.92 39.864 236.592 39 237C38.184 237.408 37.08 237.432 35.64 237.432C35.52 236.664 35.184 235.632 34.848 234.888C35.688 234.912 36.6 234.912 36.888 234.912C37.176 234.912 37.248 234.864 37.248 234.6V228.768ZM32.376 228.408H35.064V230.304C35.064 232.824 34.656 236.088 31.104 238.32C30.672 237.72 29.664 236.784 29.016 236.352C32.04 234.576 32.376 232.128 32.376 230.232V228.408ZM40.728 232.344L42.96 231.048C44.328 232.392 46.008 234.288 46.776 235.584L44.376 237.024C43.704 235.728 42.096 233.76 40.728 232.344ZM27.984 231.144L30.672 231.864C29.664 233.76 28.08 235.704 26.4 236.856C25.896 236.352 24.984 235.584 24.408 235.2C25.944 234.24 27.336 232.584 27.984 231.144ZM31.968 239.808C34.416 243.408 39.648 245.088 46.968 245.448C46.368 246.12 45.648 247.344 45.288 248.16C37.584 247.512 32.544 245.352 29.4 240.624L31.968 239.808ZM32.568 236.592L35.568 237.168C33.624 239.952 30.888 242.16 26.736 243.84C26.352 243.168 25.536 242.136 24.936 241.704C28.776 240.432 31.272 238.536 32.568 236.592ZM32.52 238.344H41.016V240.624H30.504L32.52 238.344ZM40.224 238.344H40.848L41.328 238.248L43.2 239.496C40.104 245.064 33.192 247.344 25.584 248.208C25.344 247.512 24.72 246.24 24.216 245.64C31.584 245.064 37.92 243.192 40.224 238.8V238.344ZM49.056 230.28C50.088 230.4 51.384 230.448 52.248 230.448C55.224 230.448 58.464 229.944 60.792 229.2L60.864 231.984C58.8 232.56 55.344 233.184 52.272 233.16C51.312 233.16 50.304 233.136 49.272 233.088L49.056 230.28ZM58.392 226.68C58.08 227.952 57.504 230.304 56.856 232.344C55.752 235.8 53.592 240.264 51.552 243.096L48.648 241.608C50.808 238.968 52.968 234.768 53.904 232.176C54.48 230.448 55.008 228.216 55.08 226.368L58.392 226.68ZM64.032 234.168C63.96 235.176 63.984 236.184 64.008 237.24C64.056 238.656 64.272 242.232 64.272 243.576C64.272 245.808 63.072 247.56 59.64 247.56C56.664 247.56 54.312 246.216 54.312 243.576C54.312 241.248 56.28 239.424 59.616 239.424C63.816 239.424 67.128 241.536 69.12 243.336L67.536 245.928C65.808 244.32 63.072 241.848 59.448 241.848C58.056 241.848 57.144 242.448 57.144 243.288C57.144 244.176 57.912 244.8 59.232 244.8C60.864 244.8 61.392 243.888 61.392 242.544C61.392 241.104 61.128 236.688 61.008 234.168H64.032ZM68.16 235.44C66.768 234.312 64.032 232.752 62.376 232.008L63.936 229.656C65.664 230.4 68.616 232.008 69.864 232.896L68.16 235.44ZM16.344 260.144C17.016 261.152 18 262.688 18.528 263.792L16.464 264.704C15.744 263.192 15.216 262.232 14.328 261.008L16.344 260.144ZM19.488 258.848C20.208 259.808 21.216 261.296 21.744 262.376L19.728 263.384C18.96 261.848 18.384 260.96 17.496 259.784L19.488 258.848ZM6.792 276.056C6.792 274.232 6.792 264.296 6.792 262.256C6.792 261.392 6.696 260.216 6.528 259.376H10.296C10.2 260.216 10.08 261.272 10.08 262.256C10.08 264.92 10.08 274.28 10.08 276.056C10.08 276.752 10.2 278.432 10.296 279.392H6.552C6.696 278.456 6.792 277.016 6.792 276.056ZM9.36 265.568C12.576 266.456 17.736 268.352 20.112 269.528L18.744 272.84C16.032 271.424 11.976 269.888 9.36 269.024V265.568ZM32.28 260.864C32.136 260.192 31.968 259.616 31.776 259.064L35.184 258.512C35.232 258.968 35.328 259.784 35.424 260.36C35.664 261.944 38.04 274.088 38.544 276.536C38.712 277.232 38.928 278.096 39.144 278.888L35.688 279.488C35.568 278.6 35.52 277.784 35.352 277.064C34.992 274.904 32.664 262.808 32.28 260.864ZM25.728 263.936C26.472 263.888 27.192 263.84 27.96 263.744C30 263.504 38.4 262.208 40.56 261.776C41.304 261.656 42.216 261.44 42.792 261.272L43.392 264.44C42.864 264.464 41.88 264.608 41.16 264.704C38.616 265.112 30.36 266.432 28.56 266.744C27.816 266.888 27.192 267.032 26.376 267.248L25.728 263.936ZM25.752 270.968C26.376 270.944 27.48 270.824 28.224 270.704C30.792 270.344 39.552 268.928 42.312 268.4C43.248 268.232 44.136 268.016 44.784 267.848L45.408 271.016C44.76 271.064 43.776 271.232 42.888 271.376C39.84 271.832 31.2 273.248 28.824 273.704C27.792 273.896 26.952 274.04 26.424 274.184L25.752 270.968ZM65.28 266.576C65.184 266.888 65.088 267.32 65.064 267.584C64.824 269.264 64.008 274.712 63.72 276.44H60.408C60.72 274.856 61.44 270.224 61.56 268.616C60.408 268.616 55.752 268.616 55.056 268.616C54.312 268.616 53.352 268.664 52.656 268.712V265.544C53.304 265.64 54.408 265.712 55.032 265.712C56.256 265.712 60.048 265.712 61.2 265.712C61.68 265.712 62.664 265.616 62.976 265.448L65.28 266.576ZM50.472 275.264C51.096 275.336 52.008 275.408 52.824 275.408C54.264 275.408 64.248 275.408 65.424 275.408C66.024 275.408 67.152 275.36 67.776 275.288V278.384C67.272 278.36 66.096 278.336 65.472 278.336C64.224 278.336 54.048 278.336 52.824 278.336C51.984 278.336 51.36 278.36 50.472 278.408V275.264ZM90.864 260.36C90.528 260.912 90.072 261.968 89.856 262.544C88.944 264.92 87.48 268.088 85.488 270.68C83.256 273.56 80.304 276.656 75.648 279.224L72.984 276.776C77.352 274.688 80.352 272.024 82.896 268.712C84.792 266.216 85.872 263.744 86.712 261.344C86.928 260.72 87.168 259.736 87.288 259.136L90.864 260.36ZM77.664 262.688C80.04 264.176 83.328 266.456 85.344 268.04C87.912 270.032 90.432 272.288 92.376 274.352L89.904 277.112C87.816 274.664 85.704 272.696 83.16 270.584C81.432 269.144 78.624 266.984 75.6 265.136L77.664 262.688ZM99.96 259.76C101.616 260.888 104.736 263.384 106.152 264.848L103.704 267.344C102.456 266 99.432 263.384 97.68 262.184L99.96 259.76ZM96.936 275.744C100.704 275.216 103.8 273.992 106.128 272.624C110.232 270.176 113.352 266.528 114.888 263.288L116.736 266.648C114.936 269.912 111.744 273.224 107.88 275.552C105.432 277.016 102.336 278.336 98.976 278.912L96.936 275.744ZM125.232 275.72C125.232 273.872 125.232 263.936 125.232 261.92C125.232 261.056 125.16 259.88 124.992 259.016H128.736C128.64 259.88 128.52 260.912 128.52 261.92C128.52 264.56 128.544 273.944 128.544 275.72C128.544 276.392 128.64 278.072 128.76 279.056H124.992C125.16 278.12 125.232 276.656 125.232 275.72ZM127.824 265.232C131.016 266.12 136.2 268.016 138.552 269.168L137.208 272.504C134.472 271.088 130.44 269.552 127.824 268.688V265.232Z" fill="#1E1E1E"/>
<circle cx="229" cy="18" r="12" fill="#E24536"/>
<circle cx="382" cy="18" r="12" fill="#E24536"/>
<circle cx="528" cy="18" r="12" fill="#E24536"/>
<path d="M313.339 94C313.339 92.3431 314.682 91 316.339 91H435.377C436.158 91 436.908 91.3042 437.467 91.8479L450.535 104.539C451.117 105.104 451.445 105.88 451.445 106.691V150C451.445 151.657 450.102 153 448.445 153H316.339C314.682 153 313.339 151.657 313.339 150V94Z" fill="white" stroke="black" stroke-width="2"/>
<path d="M435.991 90V102C435.991 104.209 437.782 106 439.991 106H451.991" stroke="black" stroke-width="2"/>
<path d="M352.057 119H346.406V101.545H352.236C353.946 101.545 355.415 101.895 356.642 102.594C357.869 103.287 358.81 104.284 359.463 105.585C360.122 106.881 360.452 108.435 360.452 110.247C360.452 112.065 360.119 113.628 359.455 114.935C358.796 116.241 357.841 117.247 356.591 117.952C355.341 118.651 353.83 119 352.057 119ZM349.04 116.699H351.912C353.242 116.699 354.347 116.449 355.227 115.949C356.108 115.443 356.767 114.713 357.205 113.759C357.642 112.798 357.861 111.628 357.861 110.247C357.861 108.878 357.642 107.716 357.205 106.761C356.773 105.807 356.128 105.082 355.27 104.588C354.412 104.094 353.347 103.847 352.074 103.847H349.04V116.699ZM368.444 119.264C367.154 119.264 366.044 118.989 365.112 118.438C364.186 117.881 363.47 117.099 362.964 116.094C362.464 115.082 362.214 113.898 362.214 112.54C362.214 111.199 362.464 110.017 362.964 108.994C363.47 107.972 364.174 107.173 365.078 106.599C365.987 106.026 367.049 105.739 368.265 105.739C369.004 105.739 369.72 105.861 370.413 106.105C371.106 106.349 371.728 106.733 372.279 107.256C372.83 107.778 373.265 108.457 373.583 109.293C373.902 110.122 374.061 111.131 374.061 112.318V113.222H363.654V111.312H371.563C371.563 110.642 371.427 110.048 371.154 109.531C370.882 109.009 370.498 108.597 370.004 108.295C369.515 107.994 368.941 107.844 368.282 107.844C367.566 107.844 366.941 108.02 366.407 108.372C365.879 108.719 365.47 109.173 365.18 109.736C364.896 110.293 364.754 110.898 364.754 111.551V113.043C364.754 113.918 364.907 114.662 365.214 115.276C365.527 115.889 365.961 116.358 366.518 116.682C367.075 117 367.725 117.159 368.47 117.159C368.953 117.159 369.393 117.091 369.791 116.955C370.188 116.812 370.532 116.602 370.822 116.324C371.112 116.045 371.333 115.702 371.487 115.293L373.899 115.727C373.705 116.437 373.359 117.06 372.859 117.594C372.365 118.122 371.742 118.534 370.992 118.83C370.248 119.119 369.399 119.264 368.444 119.264ZM385.978 109.105L383.668 109.514C383.571 109.219 383.418 108.937 383.208 108.67C383.003 108.403 382.725 108.185 382.373 108.014C382.02 107.844 381.58 107.759 381.052 107.759C380.33 107.759 379.728 107.92 379.245 108.244C378.762 108.562 378.52 108.974 378.52 109.48C378.52 109.918 378.682 110.27 379.006 110.537C379.33 110.804 379.853 111.023 380.574 111.193L382.654 111.67C383.858 111.949 384.756 112.378 385.347 112.957C385.938 113.537 386.233 114.29 386.233 115.216C386.233 116 386.006 116.699 385.552 117.312C385.103 117.92 384.475 118.398 383.668 118.744C382.867 119.091 381.938 119.264 380.881 119.264C379.415 119.264 378.219 118.952 377.293 118.327C376.367 117.696 375.799 116.801 375.588 115.642L378.052 115.267C378.205 115.909 378.52 116.395 378.998 116.724C379.475 117.048 380.097 117.21 380.864 117.21C381.699 117.21 382.367 117.037 382.867 116.69C383.367 116.338 383.617 115.909 383.617 115.403C383.617 114.994 383.463 114.651 383.157 114.372C382.856 114.094 382.392 113.884 381.767 113.741L379.552 113.256C378.33 112.977 377.427 112.534 376.841 111.926C376.262 111.318 375.972 110.548 375.972 109.616C375.972 108.844 376.188 108.168 376.62 107.588C377.052 107.009 377.648 106.557 378.409 106.233C379.171 105.903 380.043 105.739 381.026 105.739C382.441 105.739 383.554 106.045 384.367 106.659C385.179 107.267 385.716 108.082 385.978 109.105ZM388.315 119V105.909H390.863V119H388.315ZM389.602 103.889C389.159 103.889 388.778 103.741 388.46 103.446C388.148 103.145 387.991 102.787 387.991 102.372C387.991 101.952 388.148 101.594 388.46 101.298C388.778 100.997 389.159 100.847 389.602 100.847C390.045 100.847 390.423 100.997 390.736 101.298C391.054 101.594 391.213 101.952 391.213 102.372C391.213 102.787 391.054 103.145 390.736 103.446C390.423 103.741 390.045 103.889 389.602 103.889ZM399.06 124.182C398.021 124.182 397.126 124.045 396.376 123.773C395.631 123.5 395.023 123.139 394.552 122.69C394.08 122.241 393.728 121.75 393.495 121.216L395.685 120.312C395.839 120.562 396.043 120.827 396.299 121.105C396.56 121.389 396.913 121.631 397.356 121.83C397.805 122.028 398.381 122.128 399.086 122.128C400.052 122.128 400.85 121.892 401.481 121.42C402.112 120.955 402.427 120.21 402.427 119.188V116.614H402.265C402.112 116.892 401.89 117.202 401.6 117.543C401.316 117.884 400.924 118.179 400.424 118.429C399.924 118.679 399.273 118.804 398.472 118.804C397.438 118.804 396.506 118.562 395.677 118.08C394.853 117.591 394.2 116.872 393.717 115.923C393.239 114.969 393.001 113.795 393.001 112.403C393.001 111.011 393.237 109.818 393.708 108.824C394.185 107.83 394.839 107.068 395.668 106.54C396.498 106.006 397.438 105.739 398.489 105.739C399.302 105.739 399.958 105.875 400.458 106.148C400.958 106.415 401.347 106.727 401.626 107.085C401.91 107.443 402.129 107.759 402.282 108.031H402.469V105.909H404.967V119.29C404.967 120.415 404.705 121.338 404.183 122.06C403.66 122.781 402.952 123.315 402.06 123.662C401.174 124.009 400.174 124.182 399.06 124.182ZM399.035 116.69C399.768 116.69 400.387 116.52 400.893 116.179C401.404 115.832 401.791 115.338 402.052 114.696C402.319 114.048 402.452 113.273 402.452 112.369C402.452 111.489 402.322 110.713 402.06 110.043C401.799 109.372 401.416 108.849 400.91 108.474C400.404 108.094 399.779 107.903 399.035 107.903C398.268 107.903 397.629 108.102 397.117 108.5C396.606 108.892 396.219 109.426 395.958 110.102C395.702 110.778 395.575 111.534 395.575 112.369C395.575 113.227 395.705 113.98 395.967 114.628C396.228 115.276 396.614 115.781 397.126 116.145C397.643 116.509 398.279 116.69 399.035 116.69ZM410.213 111.227V119H407.664V105.909H410.11V108.04H410.272C410.573 107.347 411.045 106.79 411.687 106.369C412.335 105.949 413.15 105.739 414.133 105.739C415.025 105.739 415.806 105.926 416.477 106.301C417.147 106.67 417.667 107.222 418.036 107.955C418.406 108.687 418.59 109.594 418.59 110.673V119H416.042V110.98C416.042 110.031 415.795 109.29 415.301 108.756C414.806 108.216 414.127 107.946 413.264 107.946C412.673 107.946 412.147 108.074 411.687 108.33C411.232 108.585 410.872 108.96 410.605 109.455C410.343 109.943 410.213 110.534 410.213 111.227ZM352.572 143H346.922V125.545H352.751C354.462 125.545 355.93 125.895 357.158 126.594C358.385 127.287 359.325 128.284 359.979 129.585C360.638 130.881 360.967 132.435 360.967 134.247C360.967 136.065 360.635 137.628 359.97 138.935C359.311 140.241 358.357 141.247 357.107 141.952C355.857 142.651 354.345 143 352.572 143ZM349.555 140.699H352.428C353.757 140.699 354.862 140.449 355.743 139.949C356.624 139.443 357.283 138.713 357.72 137.759C358.158 136.798 358.376 135.628 358.376 134.247C358.376 132.878 358.158 131.716 357.72 130.761C357.288 129.807 356.644 129.082 355.786 128.588C354.928 128.094 353.862 127.847 352.59 127.847H349.555V140.699ZM368.832 143.264C367.605 143.264 366.534 142.983 365.619 142.42C364.704 141.858 363.994 141.071 363.488 140.06C362.982 139.048 362.73 137.866 362.73 136.514C362.73 135.156 362.982 133.969 363.488 132.952C363.994 131.935 364.704 131.145 365.619 130.582C366.534 130.02 367.605 129.739 368.832 129.739C370.059 129.739 371.13 130.02 372.045 130.582C372.96 131.145 373.67 131.935 374.176 132.952C374.681 133.969 374.934 135.156 374.934 136.514C374.934 137.866 374.681 139.048 374.176 140.06C373.67 141.071 372.96 141.858 372.045 142.42C371.13 142.983 370.059 143.264 368.832 143.264ZM368.84 141.125C369.636 141.125 370.295 140.915 370.818 140.494C371.34 140.074 371.727 139.514 371.977 138.815C372.232 138.116 372.36 137.347 372.36 136.506C372.36 135.67 372.232 134.903 371.977 134.205C371.727 133.5 371.34 132.935 370.818 132.509C370.295 132.082 369.636 131.869 368.84 131.869C368.039 131.869 367.375 132.082 366.846 132.509C366.323 132.935 365.934 133.5 365.678 134.205C365.428 134.903 365.303 135.67 365.303 136.506C365.303 137.347 365.428 138.116 365.678 138.815C365.934 139.514 366.323 140.074 366.846 140.494C367.375 140.915 368.039 141.125 368.84 141.125ZM382.573 143.264C381.306 143.264 380.215 142.977 379.3 142.403C378.391 141.824 377.692 141.026 377.204 140.009C376.715 138.991 376.471 137.827 376.471 136.514C376.471 135.185 376.721 134.011 377.221 132.994C377.721 131.972 378.425 131.173 379.334 130.599C380.243 130.026 381.314 129.739 382.547 129.739C383.542 129.739 384.428 129.923 385.206 130.293C385.985 130.656 386.613 131.168 387.09 131.827C387.573 132.486 387.86 133.256 387.951 134.136H385.471C385.334 133.523 385.022 132.994 384.533 132.551C384.05 132.108 383.402 131.886 382.59 131.886C381.88 131.886 381.257 132.074 380.723 132.449C380.195 132.818 379.783 133.347 379.488 134.034C379.192 134.716 379.044 135.523 379.044 136.455C379.044 137.409 379.189 138.233 379.479 138.926C379.769 139.619 380.178 140.156 380.706 140.537C381.24 140.918 381.868 141.108 382.59 141.108C383.073 141.108 383.51 141.02 383.902 140.844C384.3 140.662 384.632 140.403 384.9 140.068C385.172 139.733 385.363 139.33 385.471 138.858H387.951C387.86 139.705 387.584 140.46 387.124 141.125C386.664 141.79 386.047 142.312 385.275 142.693C384.507 143.074 383.607 143.264 382.573 143.264ZM402.133 143L404.996 125.545H407.042L404.178 143H402.133ZM394.232 138.33L394.565 136.284H407.792L407.46 138.33H394.232ZM395.996 143L398.86 125.545H400.906L398.042 143H395.996ZM395.246 132.261L395.579 130.216H408.806L408.474 132.261H395.246ZM416.737 125.545V143H414.095V128.188H413.992L409.816 130.915V128.392L414.171 125.545H416.737Z" fill="#1E1E1E"/>
<path d="M160 94C160 92.3431 161.343 91 163 91H280.961C281.704 91 282.42 91.2757 282.972 91.7737L297.117 104.551C297.747 105.12 298.106 105.929 298.106 106.777V150C298.106 151.657 296.763 153 295.106 153H163C161.343 153 160 151.657 160 150V94Z" fill="white" stroke="black" stroke-width="2"/>
<path d="M282.653 90V102C282.653 104.209 284.443 106 286.653 106H298.653" stroke="black" stroke-width="2"/>
<path d="M192.212 133V115.545H198.434C199.792 115.545 200.917 115.793 201.809 116.287C202.701 116.781 203.368 117.457 203.812 118.315C204.255 119.168 204.476 120.128 204.476 121.196C204.476 122.27 204.252 123.236 203.803 124.094C203.36 124.946 202.689 125.622 201.792 126.122C200.9 126.616 199.778 126.864 198.425 126.864H194.147V124.631H198.187C199.045 124.631 199.741 124.483 200.275 124.188C200.809 123.886 201.201 123.477 201.451 122.96C201.701 122.443 201.826 121.855 201.826 121.196C201.826 120.537 201.701 119.952 201.451 119.44C201.201 118.929 200.806 118.528 200.266 118.239C199.732 117.949 199.028 117.804 198.153 117.804H194.846V133H192.212ZM206.844 133V115.545H213.065C214.418 115.545 215.54 115.778 216.432 116.244C217.33 116.71 218 117.355 218.443 118.179C218.886 118.997 219.108 119.943 219.108 121.017C219.108 122.085 218.884 123.026 218.435 123.838C217.991 124.645 217.321 125.273 216.423 125.722C215.531 126.17 214.409 126.395 213.057 126.395H208.344V124.128H212.818C213.67 124.128 214.364 124.006 214.898 123.761C215.438 123.517 215.832 123.162 216.082 122.696C216.332 122.23 216.457 121.67 216.457 121.017C216.457 120.358 216.33 119.787 216.074 119.304C215.824 118.821 215.429 118.452 214.889 118.196C214.355 117.935 213.653 117.804 212.784 117.804H209.477V133H206.844ZM215.46 125.125L219.773 133H216.773L212.545 125.125H215.46ZM227.243 133H221.593V115.545H227.422C229.132 115.545 230.601 115.895 231.828 116.594C233.056 117.287 233.996 118.284 234.649 119.585C235.308 120.881 235.638 122.435 235.638 124.247C235.638 126.065 235.306 127.628 234.641 128.935C233.982 130.241 233.027 131.247 231.777 131.952C230.527 132.651 229.016 133 227.243 133ZM224.226 130.699H227.098C228.428 130.699 229.533 130.449 230.414 129.949C231.294 129.443 231.953 128.713 232.391 127.759C232.828 126.798 233.047 125.628 233.047 124.247C233.047 122.878 232.828 121.716 232.391 120.761C231.959 119.807 231.314 119.082 230.456 118.588C229.598 118.094 228.533 117.847 227.26 117.847H224.226V130.699ZM250.165 133L253.029 115.545H255.074L252.211 133H250.165ZM242.265 128.33L242.597 126.284H255.824L255.492 128.33H242.265ZM244.029 133L246.893 115.545H248.938L246.074 133H244.029ZM243.279 122.261L243.611 120.216H256.839L256.506 122.261H243.279ZM264.769 115.545V133H262.127V118.188H262.025L257.849 120.915V118.392L262.204 115.545H264.769Z" fill="#1E1E1E"/>
<path d="M160 225C160 223.343 161.343 222 163 222H281.426C282.185 222 282.915 222.288 283.47 222.805L297.151 235.545C297.76 236.113 298.106 236.908 298.106 237.741V281C298.106 282.657 296.763 284 295.106 284H163C161.343 284 160 282.657 160 281V225Z" fill="white" stroke="black" stroke-width="2"/>
<path d="M282.653 221V233C282.653 235.209 284.443 237 286.653 237H298.653" stroke="black" stroke-width="2"/>
<path d="M204.405 244.224H206.229V264.288H204.405V244.224ZM197.541 251.472H213.165V253.2H197.541V251.472ZM198.141 263.184H212.757V264.936H198.141V263.184ZM194.445 250.392L196.197 248.616L196.221 248.64V265.872H194.445V250.392ZM197.133 243.912L198.861 244.44C197.133 248.64 194.445 252.768 191.637 255.456C191.445 255.072 190.893 254.136 190.557 253.728C193.149 251.352 195.645 247.68 197.133 243.912ZM222.765 246.888H235.869V248.376H222.765V246.888ZM223.485 250.056H235.317V251.496H223.485V250.056ZM222.285 253.32H236.205V254.856H222.285V253.32ZM232.413 243.816L234.189 244.32C233.589 245.4 232.941 246.528 232.413 247.272L230.997 246.84C231.501 246 232.101 244.68 232.413 243.816ZM224.565 244.416L226.005 243.936C226.581 244.8 227.229 245.952 227.469 246.72L225.933 247.296C225.717 246.528 225.141 245.304 224.565 244.416ZM234.549 255.744L235.917 256.704C234.909 257.88 233.613 259.152 232.629 259.992L231.453 259.104C232.413 258.216 233.781 256.776 234.549 255.744ZM223.053 256.632L224.301 255.84C225.237 256.776 226.317 258.096 226.797 258.96L225.501 259.872C225.021 258.984 223.989 257.616 223.053 256.632ZM221.349 263.064C222.861 262.32 225.117 261.096 227.325 259.896L227.805 261.36C225.909 262.488 223.821 263.688 222.189 264.6L221.349 263.064ZM228.381 247.896H230.109V263.904C230.109 264.888 229.917 265.368 229.293 265.656C228.669 265.944 227.565 265.968 226.077 265.968C226.029 265.512 225.789 264.768 225.573 264.312C226.629 264.336 227.661 264.336 227.973 264.312C228.285 264.312 228.381 264.216 228.381 263.904V247.896ZM230.013 255.552C231.141 259.128 233.445 262.152 236.661 263.472C236.277 263.808 235.749 264.432 235.485 264.912C232.269 263.28 229.965 259.896 228.765 255.864L230.013 255.552ZM214.509 249.048H222.309V250.752H214.509V249.048ZM217.893 243.84H219.549V265.896H217.893V243.84ZM217.845 250.056L218.949 250.44C218.205 254.232 216.621 258.96 214.941 261.36C214.749 260.904 214.317 260.208 214.029 259.824C215.613 257.664 217.173 253.488 217.845 250.056ZM219.429 252.096C219.957 252.768 221.997 255.84 222.453 256.56L221.445 257.904C220.917 256.68 219.213 253.8 218.613 252.864L219.429 252.096ZM250.455 264L253.319 246.545H255.364L252.5 264H250.455ZM242.554 259.33L242.887 257.284H256.114L255.782 259.33H242.554ZM244.319 264L247.182 246.545H249.228L246.364 264H244.319ZM243.569 253.261L243.901 251.216H257.128L256.796 253.261H243.569ZM265.059 246.545V264H262.417V249.188H262.315L258.138 251.915V249.392L262.494 246.545H265.059Z" fill="#1E1E1E"/>
<path d="M458.894 225C458.894 223.343 460.237 222 461.894 222H580.418C581.18 222 581.914 222.29 582.47 222.811L596.052 235.544C596.657 236.111 597 236.904 597 237.733V281C597 282.657 595.657 284 594 284H461.894C460.237 284 458.894 282.657 458.894 281V225Z" fill="white" stroke="black" stroke-width="2"/>
<path d="M581.546 221V233C581.546 235.209 583.337 237 585.546 237H597.546" stroke="black" stroke-width="2"/>
<path d="M503.298 244.224H505.122V264.288H503.298V244.224ZM496.434 251.472H512.058V253.2H496.434V251.472ZM497.034 263.184H511.65V264.936H497.034V263.184ZM493.338 250.392L495.09 248.616L495.114 248.64V265.872H493.338V250.392ZM496.026 243.912L497.754 244.44C496.026 248.64 493.338 252.768 490.53 255.456C490.338 255.072 489.786 254.136 489.45 253.728C492.042 251.352 494.538 247.68 496.026 243.912ZM521.658 246.888H534.762V248.376H521.658V246.888ZM522.378 250.056H534.21V251.496H522.378V250.056ZM521.178 253.32H535.098V254.856H521.178V253.32ZM531.306 243.816L533.082 244.32C532.482 245.4 531.834 246.528 531.306 247.272L529.89 246.84C530.394 246 530.994 244.68 531.306 243.816ZM523.458 244.416L524.898 243.936C525.474 244.8 526.122 245.952 526.362 246.72L524.826 247.296C524.61 246.528 524.034 245.304 523.458 244.416ZM533.442 255.744L534.81 256.704C533.802 257.88 532.506 259.152 531.522 259.992L530.346 259.104C531.306 258.216 532.674 256.776 533.442 255.744ZM521.946 256.632L523.194 255.84C524.13 256.776 525.21 258.096 525.69 258.96L524.394 259.872C523.914 258.984 522.882 257.616 521.946 256.632ZM520.242 263.064C521.754 262.32 524.01 261.096 526.218 259.896L526.698 261.36C524.802 262.488 522.714 263.688 521.082 264.6L520.242 263.064ZM527.274 247.896H529.002V263.904C529.002 264.888 528.81 265.368 528.186 265.656C527.562 265.944 526.458 265.968 524.97 265.968C524.922 265.512 524.682 264.768 524.466 264.312C525.522 264.336 526.554 264.336 526.866 264.312C527.178 264.312 527.274 264.216 527.274 263.904V247.896ZM528.906 255.552C530.034 259.128 532.338 262.152 535.554 263.472C535.17 263.808 534.642 264.432 534.378 264.912C531.162 263.28 528.858 259.896 527.658 255.864L528.906 255.552ZM513.402 249.048H521.202V250.752H513.402V249.048ZM516.786 243.84H518.442V265.896H516.786V243.84ZM516.738 250.056L517.842 250.44C517.098 254.232 515.514 258.96 513.834 261.36C513.642 260.904 513.21 260.208 512.922 259.824C514.506 257.664 516.066 253.488 516.738 250.056ZM518.322 252.096C518.85 252.768 520.89 255.84 521.346 256.56L520.338 257.904C519.81 256.68 518.106 253.8 517.506 252.864L518.322 252.096ZM549.349 264L552.212 246.545H554.258L551.394 264H549.349ZM541.448 259.33L541.78 257.284H555.008L554.675 259.33H541.448ZM543.212 264L546.076 246.545H548.121L545.258 264H543.212ZM542.462 253.261L542.795 251.216H556.022L555.689 253.261H542.462ZM563.952 246.545V264H561.31V249.188H561.208L557.032 251.915V249.392L561.387 246.545H563.952Z" fill="#1E1E1E"/>
<path d="M458.894 94C458.894 92.3431 460.237 91 461.894 91H580.418C581.18 91 581.914 91.2901 582.47 91.8114L596.052 104.544C596.657 105.111 597 105.904 597 106.733V150C597 151.657 595.657 153 594 153H461.894C460.237 153 458.894 151.657 458.894 150V94Z" fill="white" stroke="black" stroke-width="2"/>
<path d="M581.546 90V102C581.546 104.209 583.337 106 585.546 106H597.546" stroke="black" stroke-width="2"/>
<path d="M491.854 133H489.058L495.339 115.545H498.382L504.663 133H501.868L496.933 118.716H496.797L491.854 133ZM492.322 126.165H501.391V128.381H492.322V126.165ZM512.114 133H506.464V115.545H512.293C514.004 115.545 515.472 115.895 516.7 116.594C517.927 117.287 518.867 118.284 519.521 119.585C520.18 120.881 520.509 122.435 520.509 124.247C520.509 126.065 520.177 127.628 519.512 128.935C518.853 130.241 517.899 131.247 516.649 131.952C515.399 132.651 513.887 133 512.114 133ZM509.097 130.699H511.97C513.299 130.699 514.404 130.449 515.285 129.949C516.166 129.443 516.825 128.713 517.262 127.759C517.7 126.798 517.918 125.628 517.918 124.247C517.918 122.878 517.7 121.716 517.262 120.761C516.83 119.807 516.185 119.082 515.328 118.588C514.47 118.094 513.404 117.847 512.132 117.847H509.097V130.699ZM523.064 133V115.545H529.286C530.638 115.545 531.76 115.778 532.652 116.244C533.55 116.71 534.22 117.355 534.664 118.179C535.107 118.997 535.328 119.943 535.328 121.017C535.328 122.085 535.104 123.026 534.655 123.838C534.212 124.645 533.541 125.273 532.644 125.722C531.752 126.17 530.63 126.395 529.277 126.395H524.564V124.128H529.039C529.891 124.128 530.584 124.006 531.118 123.761C531.658 123.517 532.053 123.162 532.303 122.696C532.553 122.23 532.678 121.67 532.678 121.017C532.678 120.358 532.55 119.787 532.294 119.304C532.044 118.821 531.649 118.452 531.11 118.196C530.576 117.935 529.874 117.804 529.005 117.804H525.698V133H523.064ZM531.681 125.125L535.993 133H532.993L528.766 125.125H531.681ZM549.785 133L552.649 115.545H554.695L551.831 133H549.785ZM541.885 128.33L542.217 126.284H555.445L555.112 128.33H541.885ZM543.649 133L546.513 115.545H548.558L545.695 133H543.649ZM542.899 122.261L543.231 120.216H556.459L556.126 122.261H542.899ZM564.389 115.545V133H561.747V118.188H561.645L557.469 120.915V118.392L561.824 115.545H564.389Z" fill="#1E1E1E"/>
<path d="M521.34 71C520.511 71 519.926 72.0146 520.34 72.7321L527 84.2679C527.414 84.9854 528.586 84.9854 529 84.2679L535.66 72.7321C536.074 72.0146 535.489 71 534.66 71H521.34ZM529.5 34C529.5 33.1716 528.828 32.5 528 32.5C527.172 32.5 526.5 33.1716 526.5 34H529.5ZM529.5 72.5V34H526.5V72.5H529.5Z" fill="#B3B3B3"/>
<path d="M375.34 71C374.511 71 373.926 72.0146 374.34 72.7321L381 84.2679C381.414 84.9854 382.586 84.9854 383 84.2679L389.66 72.7321C390.074 72.0146 389.489 71 388.66 71H375.34ZM383.5 34C383.5 33.1716 382.828 32.5 382 32.5C381.172 32.5 380.5 33.1716 380.5 34H383.5ZM383.5 72.5V34H380.5V72.5H383.5Z" fill="#B3B3B3"/>
<path d="M222.34 71C221.511 71 220.926 72.0146 221.34 72.7321L228 84.2679C228.414 84.9854 229.586 84.9854 230 84.2679L236.66 72.7321C237.074 72.0146 236.489 71 235.66 71H222.34ZM230.5 34C230.5 33.1716 229.828 32.5 229 32.5C228.172 32.5 227.5 33.1716 227.5 34H230.5ZM230.5 72.5V34H227.5V72.5H230.5Z" fill="#B3B3B3"/>
<path d="M230.553 158C230.553 157.172 229.882 156.5 229.053 156.5C228.225 156.5 227.553 157.172 227.553 158H230.553ZM222.393 202C221.565 202 220.979 203.015 221.393 203.732L228.053 215.268C228.467 215.985 229.639 215.985 230.053 215.268L236.713 203.732C237.128 203.015 236.542 202 235.713 202H222.393ZM227.553 158V203.5H230.553V158H227.553Z" fill="#B3B3B3"/>
<path d="M383.892 158C383.892 157.172 383.22 156.5 382.392 156.5C381.563 156.5 380.892 157.172 380.892 158H383.892ZM521.286 202C520.458 202 519.872 203.015 520.286 203.732L526.947 215.268C527.361 215.985 528.532 215.985 528.947 215.268L535.607 203.732C536.021 203.015 535.435 202 534.607 202H521.286ZM380.892 158V163.5H383.892V158H380.892ZM406.392 189H503.947V186H406.392V189ZM503.947 189C516.373 189 526.447 199.074 526.447 211.5H529.447C529.447 197.417 518.03 186 503.947 186V189ZM380.892 163.5C380.892 177.583 392.308 189 406.392 189V186C393.965 186 383.892 175.926 383.892 163.5H380.892Z" fill="#B3B3B3"/>
<path d="M529.447 158C529.447 157.172 528.775 156.5 527.947 156.5C527.118 156.5 526.447 157.172 526.447 158H529.447ZM521.287 202C520.458 202 519.872 203.015 520.287 203.732L526.947 215.268C527.361 215.985 528.533 215.985 528.947 215.268L535.607 203.732C536.021 203.015 535.435 202 534.607 202H521.287ZM526.447 158V203.5H529.447V158H526.447Z" fill="#B3B3B3"/>
<path d="M303.106 251.5C302.278 251.5 301.606 252.172 301.606 253C301.606 253.828 302.278 254.5 303.106 254.5V251.5ZM438.894 259.66C438.894 260.489 439.908 261.074 440.626 260.66L452.162 254C452.879 253.586 452.879 252.414 452.162 252L440.626 245.34C439.908 244.926 438.894 245.511 438.894 246.34V259.66ZM306.006 254.5C306.835 254.5 307.506 253.828 307.506 253C307.506 252.172 306.835 251.5 306.006 251.5V254.5ZM311.806 251.5C310.977 251.5 310.306 252.172 310.306 253C310.306 253.828 310.977 254.5 311.806 254.5V251.5ZM317.605 254.5C318.434 254.5 319.105 253.828 319.105 253C319.105 252.172 318.434 251.5 317.605 251.5V254.5ZM323.405 251.5C322.576 251.5 321.905 252.172 321.905 253C321.905 253.828 322.576 254.5 323.405 254.5V251.5ZM329.204 254.5C330.033 254.5 330.704 253.828 330.704 253C330.704 252.172 330.033 251.5 329.204 251.5V254.5ZM335.004 251.5C334.175 251.5 333.504 252.172 333.504 253C333.504 253.828 334.175 254.5 335.004 254.5V251.5ZM340.803 254.5C341.632 254.5 342.303 253.828 342.303 253C342.303 252.172 341.632 251.5 340.803 251.5V254.5ZM346.603 251.5C345.774 251.5 345.103 252.172 345.103 253C345.103 253.828 345.774 254.5 346.603 254.5V251.5ZM352.402 254.5C353.231 254.5 353.902 253.828 353.902 253C353.902 252.172 353.231 251.5 352.402 251.5V254.5ZM358.202 251.5C357.373 251.5 356.702 252.172 356.702 253C356.702 253.828 357.373 254.5 358.202 254.5V251.5ZM364.001 254.5C364.83 254.5 365.501 253.828 365.501 253C365.501 252.172 364.83 251.5 364.001 251.5V254.5ZM369.801 251.5C368.972 251.5 368.301 252.172 368.301 253C368.301 253.828 368.972 254.5 369.801 254.5V251.5ZM375.6 254.5C376.429 254.5 377.1 253.828 377.1 253C377.1 252.172 376.429 251.5 375.6 251.5V254.5ZM381.4 251.5C380.571 251.5 379.9 252.172 379.9 253C379.9 253.828 380.571 254.5 381.4 254.5V251.5ZM387.199 254.5C388.028 254.5 388.699 253.828 388.699 253C388.699 252.172 388.028 251.5 387.199 251.5V254.5ZM392.999 251.5C392.17 251.5 391.499 252.172 391.499 253C391.499 253.828 392.17 254.5 392.999 254.5V251.5ZM398.798 254.5C399.627 254.5 400.298 253.828 400.298 253C400.298 252.172 399.627 251.5 398.798 251.5V254.5ZM404.598 251.5C403.769 251.5 403.098 252.172 403.098 253C403.098 253.828 403.769 254.5 404.598 254.5V251.5ZM410.397 254.5C411.226 254.5 411.897 253.828 411.897 253C411.897 252.172 411.226 251.5 410.397 251.5V254.5ZM416.197 251.5C415.368 251.5 414.697 252.172 414.697 253C414.697 253.828 415.368 254.5 416.197 254.5V251.5ZM421.996 254.5C422.825 254.5 423.496 253.828 423.496 253C423.496 252.172 422.825 251.5 421.996 251.5V254.5ZM427.796 251.5C426.967 251.5 426.296 252.172 426.296 253C426.296 253.828 426.967 254.5 427.796 254.5V251.5ZM433.595 254.5C434.424 254.5 435.095 253.828 435.095 253C435.095 252.172 434.424 251.5 433.595 251.5V254.5ZM439.395 251.5C438.566 251.5 437.895 252.172 437.895 253C437.895 253.828 438.566 254.5 439.395 254.5V251.5ZM445.194 254.5C446.023 254.5 446.694 253.828 446.694 253C446.694 252.172 446.023 251.5 445.194 251.5V254.5ZM450.994 251.5C450.165 251.5 449.494 252.172 449.494 253C449.494 253.828 450.165 254.5 450.994 254.5V251.5ZM303.106 254.5H306.006V251.5H303.106V254.5ZM311.806 254.5H317.605V251.5H311.806V254.5ZM323.405 254.5H329.204V251.5H323.405V254.5ZM335.004 254.5H340.803V251.5H335.004V254.5ZM346.603 254.5H352.402V251.5H346.603V254.5ZM358.202 254.5H364.001V251.5H358.202V254.5ZM369.801 254.5H375.6V251.5H369.801V254.5ZM381.4 254.5H387.199V251.5H381.4V254.5ZM392.999 254.5H398.798V251.5H392.999V254.5ZM404.598 254.5H410.397V251.5H404.598V254.5ZM416.197 254.5H421.996V251.5H416.197V254.5ZM427.796 254.5H433.595V251.5H427.796V254.5ZM439.395 254.5H445.194V251.5H439.395V254.5Z" fill="#B3B3B3"/>
<path d="M637.84 106.496H648.256V105.464H637.84V106.496ZM637.84 103.784H648.256V102.752H637.84V103.784ZM651.112 100.976V108.272H635.128V100.976H651.112ZM649.168 96.176C648.64 97.088 648.184 97.832 647.824 98.408L645.28 97.856C645.592 97.184 645.976 96.272 646.168 95.624L649.168 96.176ZM639.784 95.624C640.144 96.32 640.48 97.232 640.624 97.832L637.888 98.456C637.792 97.808 637.48 96.872 637.144 96.152L639.784 95.624ZM644.416 92.624V95.504H641.512V92.624H644.416ZM653.464 97.856V100.088H632.608V97.856H653.464ZM652.168 93.896V96.128H633.76V93.896H652.168ZM637.216 109.952C636.568 111.776 635.584 113.552 633.88 114.68L631.648 113.168C633.16 112.232 634.24 110.672 634.816 109.064L637.216 109.952ZM650.392 108.776C651.856 110.024 653.56 111.8 654.328 113.144L651.928 114.536C651.256 113.24 649.624 111.344 648.16 110.024L650.392 108.776ZM642.04 107.744C643.384 108.296 645.136 109.232 646.048 109.952L644.392 111.632C643.552 110.912 641.848 109.904 640.504 109.256L642.04 107.744ZM640.648 111.896C640.648 112.52 640.84 112.592 641.944 112.592C642.448 112.592 644.584 112.592 645.256 112.592C646.12 112.592 646.288 112.328 646.408 110.624C646.984 111.008 648.112 111.392 648.832 111.536C648.544 114.248 647.776 114.92 645.52 114.92C644.872 114.92 642.232 114.92 641.632 114.92C638.584 114.92 637.84 114.2 637.84 111.92V109.4H640.648V111.896ZM661.048 107.384H663.952V111.296C663.952 112.016 664.168 112.088 665.344 112.088C665.872 112.088 668.08 112.088 668.776 112.088C669.784 112.088 669.952 111.752 670.096 109.352C670.696 109.784 671.92 110.24 672.712 110.408C672.376 113.84 671.56 114.704 669.016 114.704C668.344 114.704 665.632 114.704 665.008 114.704C661.816 114.704 661.048 113.888 661.048 111.32V107.384ZM663.424 106.64L665.32 104.864C667.024 105.704 669.136 107.048 670.168 108.128L668.104 110.096C667.168 109.04 665.128 107.576 663.424 106.64ZM671.776 107.672L674.344 106.616C675.664 108.392 677.032 110.744 677.512 112.448L674.704 113.624C674.296 112.016 673.048 109.544 671.776 107.672ZM657.664 106.76L660.256 107.696C659.704 109.76 658.864 112.184 657.712 113.792L655.144 112.352C656.248 110.912 657.16 108.728 657.664 106.76ZM660.256 100.496V102.56H671.968V100.496H660.256ZM660.256 96.128V98.168H671.968V96.128H660.256ZM657.544 93.632H674.824V105.056H657.544V93.632ZM664.768 94.736H667.576V104.024H664.768V94.736ZM686.32 96.32H698.992V104.528H696.184V99.008H686.32V96.32ZM685.12 103.376H700.816V106.088H685.12V103.376ZM690.328 92.624H693.208V101.024C693.208 106.256 692.536 111.752 686.272 115.232C685.744 114.632 684.616 113.648 683.872 113.192C689.728 110.12 690.328 105.56 690.328 101V92.624ZM694.504 104.888C695.536 108.392 697.72 111.32 701.056 112.688C700.384 113.264 699.472 114.416 699.04 115.208C695.344 113.408 693.136 110 691.84 105.536L694.504 104.888ZM679.6 94.856L681.16 92.744C682.648 93.32 684.592 94.304 685.552 95.12L683.896 97.472C683.008 96.632 681.112 95.528 679.6 94.856ZM678.208 101.384L679.768 99.224C681.256 99.752 683.248 100.712 684.232 101.504L682.576 103.904C681.664 103.088 679.744 102.032 678.208 101.384ZM678.904 113.024C680.104 111.2 681.808 108.152 683.128 105.344L685.336 107.144C684.16 109.688 682.744 112.472 681.4 114.848L678.904 113.024ZM706.192 99.872H719.464V102.608H706.192V99.872ZM712.816 105.632H720.928V108.32H712.816V105.632ZM711.304 101.456H714.328V113.048L711.304 112.688V101.456ZM705.568 103.952L708.592 104.264C707.968 109.136 706.48 112.952 703.744 115.304C703.264 114.8 702.04 113.768 701.368 113.336C703.96 111.416 705.16 108.08 705.568 103.952ZM707.896 106.952C709.432 111.368 712.792 112.04 717.064 112.04C718.336 112.04 722.344 112.04 723.952 111.992C723.544 112.664 723.064 114.056 722.944 114.92H716.896C711.352 114.92 707.608 113.792 705.544 107.744L707.896 106.952ZM711.256 92.648H714.328V97.04H711.256V92.648ZM702.52 95.072H723.16V101.096H720.184V97.808H705.352V101.096H702.52V95.072ZM735.16 94.04C734.944 94.976 734.68 96.296 734.056 97.904C733.456 99.368 732.568 100.976 731.608 102.224C732.544 101.672 733.912 101.336 734.968 101.336C736.816 101.336 738.256 102.44 738.256 104.384C738.256 105.632 738.304 108.392 738.328 109.88H736.48C736.576 108.608 736.6 106.136 736.576 104.888C736.552 103.496 735.592 102.848 734.344 102.848C732.808 102.848 731.296 103.616 730.192 104.6C729.496 105.272 728.824 106.136 728.032 107.12L726.376 105.896C729.832 102.584 731.44 99.8 732.256 97.76C732.784 96.44 733.12 95 733.192 93.872L735.16 94.04ZM726.928 96.632C728.224 96.8 729.88 96.872 730.984 96.872C734.224 96.872 738.376 96.68 741.76 96.08V97.856C738.4 98.36 733.936 98.576 730.888 98.576C729.856 98.576 728.272 98.528 726.928 98.432V96.632ZM745.264 102.416C744.664 102.608 743.8 102.944 743.152 103.184C741.448 103.856 739.168 104.768 736.84 105.968C734.464 107.216 732.784 108.512 732.784 110.168C732.784 112.04 734.632 112.328 737.104 112.328C738.976 112.328 741.568 112.112 743.68 111.728L743.608 113.672C741.784 113.888 739.12 114.08 737.032 114.08C733.624 114.08 730.864 113.336 730.864 110.432C730.864 107.504 733.84 105.704 736.696 104.24C738.976 103.064 740.92 102.32 742.504 101.576C743.224 101.24 743.824 100.976 744.496 100.64L745.264 102.416ZM748.936 94.232H769.864V97.184H748.936V94.232ZM760.528 102.272L762.76 100.4C765.328 102.272 769.024 105.032 770.776 106.952L768.328 109.16C766.744 107.264 763.192 104.312 760.528 102.272ZM759.568 95.312L762.784 96.44C760.048 101.504 755.68 106.4 750.16 109.28C749.704 108.512 748.792 107.312 748.192 106.664C753.328 104.24 757.576 99.584 759.568 95.312ZM757.816 101.12L760.984 97.976V115.112H757.816V101.12ZM772.048 94.688H793.384V97.352H772.048V94.688ZM781.168 92.624H784.144V95.792H781.168V92.624ZM784.384 95.768H787.192V101.672C787.192 102.92 787 103.592 786.136 104C785.32 104.408 784.216 104.432 782.776 104.432C782.656 103.664 782.32 102.632 781.984 101.888C782.824 101.912 783.736 101.912 784.024 101.912C784.312 101.912 784.384 101.864 784.384 101.6V95.768ZM779.512 95.408H782.2V97.304C782.2 99.824 781.792 103.088 778.24 105.32C777.808 104.72 776.8 103.784 776.152 103.352C779.176 101.576 779.512 99.128 779.512 97.232V95.408ZM787.864 99.344L790.096 98.048C791.464 99.392 793.144 101.288 793.912 102.584L791.512 104.024C790.84 102.728 789.232 100.76 787.864 99.344ZM775.12 98.144L777.808 98.864C776.8 100.76 775.216 102.704 773.536 103.856C773.032 103.352 772.12 102.584 771.544 102.2C773.08 101.24 774.472 99.584 775.12 98.144ZM779.104 106.808C781.552 110.408 786.784 112.088 794.104 112.448C793.504 113.12 792.784 114.344 792.424 115.16C784.72 114.512 779.68 112.352 776.536 107.624L779.104 106.808ZM779.704 103.592L782.704 104.168C780.76 106.952 778.024 109.16 773.872 110.84C773.488 110.168 772.672 109.136 772.072 108.704C775.912 107.432 778.408 105.536 779.704 103.592ZM779.656 105.344H788.152V107.624H777.64L779.656 105.344ZM787.36 105.344H787.984L788.464 105.248L790.336 106.496C787.24 112.064 780.328 114.344 772.72 115.208C772.48 114.512 771.856 113.24 771.352 112.64C778.72 112.064 785.056 110.192 787.36 105.8V105.344ZM796.264 97.88C797.152 97.976 798.184 98.024 799.216 98.024C801.808 98.024 804.832 97.712 807.592 96.8L807.64 98.576C805.288 99.224 802.144 99.752 799.216 99.728C798.328 99.728 797.296 99.704 796.408 99.68L796.264 97.88ZM804.784 93.968C804.472 95.144 803.968 97.4 803.392 99.104C802.24 102.56 800.032 106.928 798.04 109.616L796.192 108.656C798.328 106.16 800.56 101.888 801.544 99.056C802.072 97.544 802.6 95.432 802.672 93.752L804.784 93.968ZM810.448 101.384C810.376 102.368 810.376 103.088 810.4 103.952C810.448 105.512 810.664 109.16 810.664 110.744C810.664 112.664 809.44 114.224 806.464 114.224C803.824 114.224 801.688 113.168 801.688 110.768C801.688 108.56 803.776 107.168 806.464 107.168C810.496 107.168 813.592 109.184 815.56 110.888L814.552 112.52C812.704 110.84 809.944 108.704 806.416 108.704C804.64 108.704 803.44 109.52 803.44 110.624C803.44 111.728 804.376 112.496 806.248 112.496C808.24 112.496 808.912 111.44 808.912 110.144C808.912 108.32 808.648 104.024 808.552 101.384H810.448ZM815.248 102.008C813.952 100.904 811.336 99.44 809.752 98.696L810.712 97.256C812.464 98 815.176 99.56 816.328 100.424L815.248 102.008ZM641.248 142.592H650.8V143.984H641.248V142.592ZM639.016 130.736H653.272V132.104H639.016V130.736ZM639.592 133.64H652.672V134.96H639.592V133.64ZM638.272 136.64H653.968V138.008H638.272V136.64ZM641.248 145.808H650.872V147.152H641.248V145.808ZM640.024 139.424H650.8V140.816H641.704V150.896H640.024V139.424ZM650.368 139.424H652.096V148.904C652.096 149.816 651.904 150.296 651.232 150.56C650.56 150.824 649.48 150.848 647.776 150.824C647.704 150.392 647.464 149.72 647.248 149.264C648.448 149.312 649.6 149.312 649.936 149.288C650.272 149.288 650.368 149.192 650.368 148.88V139.424ZM645.16 128.84H646.936V137.072H645.16V128.84ZM634.624 128.84H636.28V150.896H634.624V128.84ZM632.728 133.472L634.072 133.664C634 135.536 633.592 138.32 633.04 140.12L631.648 139.664C632.2 138.008 632.584 135.368 632.728 133.472ZM636.496 132.848L637.696 132.368C638.224 133.472 638.8 134.888 639.016 135.776L637.768 136.376C637.528 135.464 636.976 133.976 636.496 132.848ZM667.624 138.128H675.472V139.616H667.624V138.128ZM666.712 129.968H675.304V131.576H668.368V150.944H666.712V129.968ZM674.44 129.968H676.12V134.6C676.12 135.488 675.928 135.968 675.184 136.232C674.44 136.496 673.24 136.52 671.392 136.52C671.32 136.04 671.08 135.392 670.84 134.936C672.328 134.984 673.576 134.984 673.96 134.96C674.344 134.936 674.44 134.84 674.44 134.576V129.968ZM669.976 139.112C671.272 143.6 673.984 147.704 677.584 149.456C677.176 149.816 676.624 150.464 676.336 150.92C672.64 148.832 669.976 144.464 668.56 139.472L669.976 139.112ZM674.92 138.128H675.256L675.568 138.032L676.672 138.44C675.736 143.648 673.36 148.376 669.52 150.968C669.256 150.56 668.728 150.056 668.32 149.744C671.92 147.392 674.176 142.904 674.92 138.512V138.128ZM656.128 131.312H665.032V132.872H656.128V131.312ZM655.84 144.44H665.344V146H655.84V144.44ZM655.264 135.272H665.944V136.832H655.264V135.272ZM655.6 140.264H665.656V141.824H655.6V140.264ZM659.824 128.888H661.504V135.824H659.824V128.888ZM659.824 140.912H661.504V150.872H659.824V140.912ZM663.064 136.736L664.6 137.144C664.12 138.296 663.664 139.544 663.208 140.384L661.864 139.976C662.272 139.088 662.8 137.672 663.064 136.736ZM656.944 137.12L658.312 136.784C658.84 137.792 659.32 139.16 659.44 140L658 140.408C657.88 139.544 657.424 138.176 656.944 137.12ZM697.072 134.696C696.544 135.008 695.944 135.344 695.224 135.704C693.616 136.544 690.28 138.128 687.928 139.664C685.696 141.128 684.352 142.712 684.352 144.512C684.352 146.504 686.272 147.752 690.064 147.752C692.656 147.752 695.872 147.416 697.744 146.936L697.72 149.096C695.92 149.408 693.136 149.672 690.136 149.672C685.624 149.672 682.36 148.328 682.36 144.728C682.36 142.136 684.112 140.096 686.944 138.224C689.392 136.592 692.752 134.984 694.312 134.096C695.008 133.688 695.536 133.376 696.04 132.968L697.072 134.696ZM684.928 130.328C686.032 133.4 687.52 136.4 688.624 138.344L686.992 139.328C685.768 137.36 684.328 134.12 683.032 131.144L684.928 130.328ZM709 130.304C708.88 131.096 708.808 131.936 708.76 132.728C708.664 135.44 708.472 141.128 708.472 144.704C708.472 147.344 710.128 148.256 712.408 148.256C716.8 148.256 719.296 145.808 721.024 143.312L722.368 144.944C720.736 147.224 717.616 150.224 712.36 150.224C708.904 150.224 706.528 148.808 706.528 144.872C706.528 141.32 706.768 135.248 706.768 132.728C706.768 131.84 706.696 131 706.552 130.304H709ZM725.409 133.064C726.321 133.04 727.089 132.992 727.569 132.944C729.129 132.776 733.641 132.344 738.081 131.96C740.697 131.744 742.929 131.6 744.537 131.552L744.561 133.472C743.169 133.448 741.081 133.496 739.857 133.832C736.425 134.936 734.337 138.608 734.337 141.44C734.337 146.12 738.729 147.608 742.617 147.776L741.945 149.744C737.481 149.576 732.441 147.224 732.441 141.848C732.441 138.104 734.721 135.056 736.929 133.76C734.337 134.024 728.241 134.624 725.625 135.176L725.409 133.064ZM759.297 138.032H767.577V139.736H759.297V138.032ZM758.505 138.032H760.305V147.824C760.305 148.76 760.569 148.952 761.889 148.952C762.513 148.952 765.633 148.952 766.449 148.952C767.745 148.952 767.937 148.328 768.081 144.992C768.513 145.304 769.281 145.616 769.785 145.736C769.521 149.6 768.969 150.68 766.569 150.68C765.969 150.68 762.297 150.68 761.745 150.68C759.249 150.68 758.505 150.104 758.505 147.8V138.032ZM758.241 130.208H768.513V141.08H766.689V131.912H758.241V130.208ZM748.713 136.112H756.201V137.552H748.713V136.112ZM748.857 129.704H756.297V131.144H748.857V129.704ZM748.713 139.328H756.201V140.768H748.713V139.328ZM747.585 132.848H757.137V134.336H747.585V132.848ZM749.553 142.568H756.129V149.576H749.553V148.064H754.521V144.056H749.553V142.568ZM748.689 142.568H750.297V150.68H748.689V142.568ZM791.385 139.376L792.801 140.288C791.841 141.464 790.665 142.736 789.729 143.6L788.577 142.808C789.465 141.896 790.713 140.432 791.385 139.376ZM780.657 140.576L781.881 139.784C782.913 140.744 784.041 142.064 784.545 143L783.225 143.864C782.769 142.952 781.665 141.56 780.657 140.576ZM781.401 129.824H791.025V137.864H789.345V131.336H781.401V129.824ZM781.881 133.4H790.305V134.864H781.881V133.4ZM780.153 136.952H792.993V138.536H780.153V136.952ZM785.553 137.696H787.233V149.048C787.233 149.912 787.089 150.392 786.489 150.656C785.913 150.92 785.025 150.944 783.705 150.944C783.633 150.488 783.417 149.816 783.201 149.336C784.113 149.384 784.929 149.36 785.217 149.36C785.481 149.36 785.553 149.288 785.553 149V137.696ZM779.649 147.776C780.897 147.032 782.745 145.784 784.545 144.536L785.097 145.928C783.561 147.104 781.905 148.304 780.489 149.264L779.649 147.776ZM787.161 138.776C787.881 141.968 789.729 146.048 793.425 147.992C793.065 148.328 792.513 149.024 792.249 149.48C788.625 147.272 786.873 142.928 786.129 139.976L787.161 138.776ZM772.545 134.792H779.385V136.352H772.545V134.792ZM771.249 138.896H780.033V140.48H771.249V138.896ZM771.801 142.064L773.049 141.752C773.529 143.216 773.913 145.064 774.009 146.312L772.665 146.648C772.641 145.4 772.257 143.528 771.801 142.064ZM771.033 148.52C773.289 148.136 776.673 147.464 779.937 146.792L780.081 148.328C776.985 148.976 773.793 149.696 771.393 150.2L771.033 148.52ZM778.473 141.536L779.865 141.896C779.457 143.36 779.049 145.088 778.641 146.216L777.465 145.88C777.825 144.704 778.257 142.808 778.473 141.536ZM775.017 135.368H776.601V148.448L775.017 148.712V135.368ZM774.945 128.864H775.881V129.248H776.409V129.704C775.473 131.552 773.913 134.096 771.537 136.184C771.273 135.824 770.745 135.296 770.409 135.056C772.593 133.232 774.129 130.784 774.945 128.864ZM775.233 128.864H776.577C777.993 130.136 779.769 131.984 780.609 133.184L779.409 134.552C778.593 133.328 776.961 131.336 775.569 130.136H775.233V128.864ZM808.281 129.992C808.233 130.28 808.161 131.216 808.161 131.504C808.089 133.064 808.137 137.696 808.161 139.616L806.337 138.68C806.337 137.624 806.313 132.848 806.241 131.528C806.193 130.88 806.121 130.208 806.073 129.992H808.281ZM795.513 133.352C798.777 133.304 804.777 133.088 808.473 133.088C811.401 133.088 814.377 133.088 815.505 133.112L815.481 134.888C814.137 134.816 811.977 134.768 808.449 134.768C804.321 134.768 799.185 134.936 795.561 135.2L795.513 133.352ZM808.113 140.312C808.113 143.528 806.625 145.136 804.441 145.136C802.425 145.136 800.481 143.72 800.481 141.104C800.481 138.728 802.449 136.952 804.729 136.952C807.513 136.952 808.929 139.016 808.929 141.776C808.929 145.04 807.345 148.64 801.777 150.296L800.169 148.736C804.537 147.704 807.081 145.568 807.081 141.608C807.081 139.448 806.025 138.536 804.729 138.536C803.457 138.536 802.281 139.52 802.281 141.08C802.281 142.592 803.409 143.456 804.729 143.456C806.217 143.456 807.177 142.208 806.793 139.64L808.113 140.312ZM822.225 131.336C822.753 131.384 823.425 131.408 823.905 131.408C825.177 131.408 830.865 131.24 832.137 131.12C832.857 131.048 833.193 131 833.457 130.904L834.561 132.32C834.129 132.608 833.649 132.92 833.193 133.28C832.017 134.192 828.753 137 826.881 138.536C827.985 138.176 829.137 138.056 830.217 138.056C834.201 138.056 837.057 140.432 837.057 143.672C837.057 147.536 833.865 150.056 828.777 150.056C825.513 150.056 823.521 148.64 823.521 146.624C823.521 144.992 825.009 143.504 827.217 143.504C830.409 143.504 832.017 145.76 832.185 148.184L830.457 148.472C830.313 146.432 829.137 144.968 827.217 144.968C826.113 144.968 825.273 145.64 825.273 146.48C825.273 147.656 826.593 148.352 828.489 148.352C832.569 148.352 835.137 146.672 835.137 143.672C835.137 141.296 832.881 139.544 829.737 139.544C825.753 139.544 823.593 141.224 820.569 144.32L819.177 142.928C821.169 141.296 824.265 138.704 825.633 137.528C826.977 136.424 830.001 133.904 831.201 132.824C829.929 132.896 825.129 133.088 823.881 133.16C823.329 133.208 822.801 133.232 822.273 133.304L822.225 131.336Z" fill="black"/>
<path d="M641.608 207.136C641.464 207.784 641.392 208.288 641.296 208.816C640.984 211.504 639.904 218.896 639.904 221.488C639.904 223.816 641.224 225.232 643.96 225.232C647.608 225.232 649.936 223.648 649.936 221.152C649.936 219.544 649.072 217.768 647.296 216.28L649.408 215.824C651.064 217.648 651.88 219.328 651.88 221.368C651.88 224.944 648.688 227.128 643.936 227.128C640.696 227.128 638.056 225.688 638.056 221.776C638.056 219.208 639.184 212.032 639.448 208.72C639.52 207.88 639.52 207.448 639.472 207.016L641.608 207.136ZM633.928 210.328C635.944 210.976 638.824 211.288 640.96 211.288C642.784 211.288 644.44 211.192 645.856 210.976L645.808 212.8C644.272 212.944 642.856 213.016 640.912 213.016C638.8 213.016 635.92 212.656 633.808 212.08L633.928 210.328ZM633.328 216.304C635.656 217.12 638.464 217.336 640.672 217.336C642.328 217.336 643.984 217.288 645.664 217.048L645.64 218.872C644.032 219.04 642.544 219.088 640.936 219.088C638.32 219.088 635.416 218.8 633.232 218.128L633.328 216.304ZM662.44 207.304C662.32 208.096 662.248 208.936 662.2 209.728C662.104 212.44 661.912 218.128 661.912 221.704C661.912 224.344 663.568 225.256 665.848 225.256C670.24 225.256 672.736 222.808 674.464 220.312L675.808 221.944C674.176 224.224 671.056 227.224 665.8 227.224C662.344 227.224 659.968 225.808 659.968 221.872C659.968 218.32 660.208 212.248 660.208 209.728C660.208 208.84 660.136 208 659.992 207.304H662.44ZM684.928 211.672H686.8V224.584C686.8 225.712 687.088 225.928 688.432 225.928C689.104 225.928 692.224 225.928 693.088 225.928C694.48 225.928 694.696 225.136 694.888 221.32C695.344 221.656 696.112 221.992 696.64 222.112C696.352 226.432 695.8 227.728 693.184 227.728C692.56 227.728 688.888 227.728 688.288 227.728C685.672 227.728 684.928 227.056 684.928 224.536V211.672ZM684.976 207.184L686.152 205.912C688.216 207.256 690.832 209.224 692.224 210.352L691.024 211.816C689.632 210.592 686.992 208.576 684.976 207.184ZM681.088 213.112L682.768 213.544C682.24 216.208 681.352 219.664 680.008 221.776L678.304 221.08C679.672 218.992 680.608 215.728 681.088 213.112ZM695.272 214.672L696.88 213.928C698.56 216.328 700.168 219.472 700.84 221.584L699.112 222.448C698.512 220.312 696.88 217.072 695.272 214.672ZM696.544 207.28L698.32 208.024C694.384 215.512 688.048 222.424 679.504 226.504C679.24 226.096 678.712 225.448 678.328 225.088C686.608 221.32 693.064 214.384 696.544 207.28ZM701.92 218.968H723.76V220.48H701.92V218.968ZM702.496 206.896H723.16V208.48H702.496V206.896ZM710.248 216.448L712 216.928C710.44 219.424 708.232 222.568 706.696 224.536L704.992 223.96C706.528 222.016 708.76 218.8 710.248 216.448ZM717.448 219.496L719.176 220C717.064 225.28 711.952 227.248 702.952 227.92C702.832 227.392 702.544 226.744 702.256 226.336C710.824 225.88 715.528 224.176 717.448 219.496ZM706.288 223.72L707.2 222.4C713.128 223.456 719.296 225.064 723.016 226.528L721.936 227.992C718.264 226.48 712.384 224.848 706.288 223.72ZM709.048 207.496H710.752V215.872H709.048V207.496ZM714.64 207.496H716.344V215.872H714.64V207.496ZM705.376 212.008V215.272H720.352V212.008H705.376ZM703.696 210.544H722.152V216.76H703.696V210.544ZM726.424 210.88C727.312 210.976 728.344 211.024 729.376 211.024C731.968 211.024 734.992 210.712 737.752 209.8L737.8 211.576C735.448 212.224 732.304 212.752 729.376 212.728C728.488 212.728 727.456 212.704 726.568 212.68L726.424 210.88ZM734.944 206.968C734.632 208.144 734.128 210.4 733.552 212.104C732.4 215.56 730.192 219.928 728.2 222.616L726.352 221.656C728.488 219.16 730.72 214.888 731.704 212.056C732.232 210.544 732.76 208.432 732.832 206.752L734.944 206.968ZM740.608 214.384C740.536 215.368 740.536 216.088 740.56 216.952C740.608 218.512 740.824 222.16 740.824 223.744C740.824 225.664 739.6 227.224 736.624 227.224C733.984 227.224 731.848 226.168 731.848 223.768C731.848 221.56 733.936 220.168 736.624 220.168C740.656 220.168 743.752 222.184 745.72 223.888L744.712 225.52C742.864 223.84 740.104 221.704 736.576 221.704C734.8 221.704 733.6 222.52 733.6 223.624C733.6 224.728 734.536 225.496 736.408 225.496C738.4 225.496 739.072 224.44 739.072 223.144C739.072 221.32 738.808 217.024 738.712 214.384H740.608ZM745.408 215.008C744.112 213.904 741.496 212.44 739.912 211.696L740.872 210.256C742.624 211 745.336 212.56 746.488 213.424L745.408 215.008ZM755.416 207.184C757.48 207.856 762.592 208.84 764.728 209.056L764.272 210.88C761.968 210.568 756.784 209.512 754.936 209.032L755.416 207.184ZM754.888 211.576C754.576 213.208 754.144 216.76 753.904 218.32C756.208 216.304 758.848 215.368 761.728 215.368C765.4 215.368 767.848 217.576 767.848 220.408C767.848 224.68 764.032 227.584 755.128 226.84L754.552 224.896C762.136 225.808 765.832 223.624 765.832 220.336C765.832 218.44 764.032 217.072 761.584 217.072C758.44 217.072 755.848 218.248 754.168 220.288C753.808 220.696 753.592 221.08 753.448 221.464L751.648 221.032C752.128 218.848 752.728 213.808 752.872 211.312L754.888 211.576ZM645.232 242.08H648.184V262.288H645.232V242.08ZM638.824 248.896H654.28V251.68H638.824V248.896ZM639.472 260.464H653.872V263.248H639.472V260.464ZM634.984 248.68L637.792 245.848L637.84 245.896V264.112H634.984V248.68ZM637.528 241.648L640.312 242.536C638.608 246.76 635.872 251.152 633.064 253.888C632.776 253.216 631.936 251.656 631.408 250.96C633.832 248.728 636.16 245.2 637.528 241.648ZM663.808 244.288H676.984V246.568H663.808V244.288ZM664.456 247.504H676.48V249.664H664.456V247.504ZM663.352 250.696H677.416V253.048H663.352V250.696ZM673.048 241.576L675.904 242.272C675.256 243.352 674.608 244.408 674.128 245.104L671.872 244.456C672.304 243.616 672.808 242.416 673.048 241.576ZM665.344 242.416L667.6 241.672C668.152 242.488 668.752 243.592 668.968 244.336L666.568 245.2C666.376 244.456 665.848 243.28 665.344 242.416ZM675.136 253.504L677.296 255.04C676.24 256.144 674.968 257.32 674.008 258.088L672.16 256.672C673.096 255.88 674.392 254.512 675.136 253.504ZM663.808 254.872L665.776 253.576C666.64 254.464 667.696 255.688 668.176 256.528L666.112 257.968C665.68 257.104 664.672 255.808 663.808 254.872ZM662.416 260.296C663.856 259.648 665.968 258.568 668.032 257.512L668.776 259.84C667.096 260.824 665.2 261.88 663.664 262.72L662.416 260.296ZM669.016 245.824H671.776V261.304C671.776 262.6 671.56 263.296 670.792 263.728C670 264.16 668.848 264.208 667.336 264.208C667.264 263.464 666.928 262.336 666.592 261.664C667.408 261.688 668.344 261.688 668.632 261.688C668.92 261.688 669.016 261.568 669.016 261.304V245.824ZM671.632 253.504C672.688 256.72 674.8 259.48 677.872 260.728C677.296 261.256 676.456 262.312 676.048 263.056C672.928 261.328 670.888 257.968 669.76 253.936L671.632 253.504ZM655.336 246.592H663.28V249.256H655.336V246.592ZM658.264 241.624H660.88V264.16H658.264V241.624ZM658.216 248.416L659.824 248.968C659.128 252.76 657.76 257.392 656.056 259.864C655.816 259.096 655.192 257.992 654.784 257.32C656.32 255.232 657.664 251.464 658.216 248.416ZM660.76 250.168C661.288 250.816 663.256 253.84 663.664 254.512L662.176 256.576C661.648 255.184 660.208 252.448 659.56 251.32L660.76 250.168ZM689.56 249.832C691.24 249.832 692.608 251.2 692.608 252.88C692.608 254.584 691.24 255.952 689.56 255.952C687.856 255.952 686.488 254.584 686.488 252.88C686.488 251.2 687.856 249.832 689.56 249.832ZM712.456 242.32H715.192V245.248C715.192 247.504 714.688 250.288 712.168 252.016C711.76 251.488 710.608 250.528 710.032 250.168C712.216 248.728 712.456 246.808 712.456 245.176V242.32ZM717.856 242.32H720.568V247.696C720.568 248.368 720.592 248.44 720.856 248.44C720.976 248.44 721.336 248.44 721.48 248.44C721.768 248.44 721.864 248.128 721.912 246.04C722.416 246.448 723.544 246.88 724.264 247.048C724.024 250.048 723.352 250.888 721.768 250.888C721.384 250.888 720.736 250.888 720.352 250.888C718.432 250.888 717.856 250.144 717.856 247.744V242.32ZM714.736 254.56C716.368 257.968 719.8 260.56 724.312 261.664C723.664 262.24 722.824 263.416 722.44 264.136C717.64 262.72 714.256 259.672 712.192 255.376L714.736 254.56ZM720.112 251.968H720.64L721.144 251.872L723.016 252.544C721.36 258.976 717.208 262.432 711.592 264.136C711.304 263.416 710.584 262.216 710.056 261.616C715.048 260.392 718.864 257.272 720.112 252.4V251.968ZM711.304 251.968H721.24V254.56H711.304V251.968ZM713.56 242.32H719.32V244.84H713.56V242.32ZM702.712 248.992H710.128V251.152H702.712V248.992ZM702.784 242.368H710.08V244.552H702.784V242.368ZM702.712 252.256H710.128V254.44H702.712V252.256ZM701.536 245.608H710.992V247.888H701.536V245.608ZM704.032 255.592H710.104V262.888H704.032V260.608H707.632V257.872H704.032V255.592ZM702.64 255.592H705.064V263.848H702.64V255.592ZM734.584 249.688H747.592V252.544H734.584V249.688ZM739.648 241.72H742.576V264.16H739.648V241.72ZM725.992 248.992H733.744V251.152H725.992V248.992ZM726.136 242.368H733.792V244.552H726.136V242.368ZM725.992 252.256H733.744V254.44H725.992V252.256ZM724.816 245.608H734.704V247.888H724.816V245.608ZM727.312 255.592H733.672V262.888H727.312V260.608H731.152V257.872H727.312V255.592ZM725.92 255.592H728.416V263.848H725.92V255.592ZM758.44 243.04C758.224 243.976 757.96 245.296 757.336 246.904C756.736 248.368 755.848 249.976 754.888 251.224C755.824 250.672 757.192 250.336 758.248 250.336C760.096 250.336 761.536 251.44 761.536 253.384C761.536 254.632 761.584 257.392 761.608 258.88H759.76C759.856 257.608 759.88 255.136 759.856 253.888C759.832 252.496 758.872 251.848 757.624 251.848C756.088 251.848 754.576 252.616 753.472 253.6C752.776 254.272 752.104 255.136 751.312 256.12L749.656 254.896C753.112 251.584 754.72 248.8 755.536 246.76C756.064 245.44 756.4 244 756.472 242.872L758.44 243.04ZM750.208 245.632C751.504 245.8 753.16 245.872 754.264 245.872C757.504 245.872 761.656 245.68 765.04 245.08V246.856C761.68 247.36 757.216 247.576 754.168 247.576C753.136 247.576 751.552 247.528 750.208 247.432V245.632ZM768.544 251.416C767.944 251.608 767.08 251.944 766.432 252.184C764.728 252.856 762.448 253.768 760.12 254.968C757.744 256.216 756.064 257.512 756.064 259.168C756.064 261.04 757.912 261.328 760.384 261.328C762.256 261.328 764.848 261.112 766.96 260.728L766.888 262.672C765.064 262.888 762.4 263.08 760.312 263.08C756.904 263.08 754.144 262.336 754.144 259.432C754.144 256.504 757.12 254.704 759.976 253.24C762.256 252.064 764.2 251.32 765.784 250.576C766.504 250.24 767.104 249.976 767.776 249.64L768.544 251.416ZM787.768 244.024H790.792V260.536C790.792 262.264 790.384 263.128 789.232 263.584C788.032 264.088 786.28 264.136 783.808 264.136C783.64 263.272 783.064 261.856 782.608 261.064C784.336 261.184 786.424 261.16 787 261.16C787.576 261.136 787.768 260.968 787.768 260.464V244.024ZM774.04 248.824H776.848V260.008H774.04V248.824ZM775.24 248.824H784.288V258.16H775.24V255.424H781.432V251.56H775.24V248.824ZM771.832 243.232H793.576V246.136H771.832V243.232ZM795.328 243.688H816.664V246.352H795.328V243.688ZM804.448 241.624H807.424V244.792H804.448V241.624ZM807.664 244.768H810.472V250.672C810.472 251.92 810.28 252.592 809.416 253C808.6 253.408 807.496 253.432 806.056 253.432C805.936 252.664 805.6 251.632 805.264 250.888C806.104 250.912 807.016 250.912 807.304 250.912C807.592 250.912 807.664 250.864 807.664 250.6V244.768ZM802.792 244.408H805.48V246.304C805.48 248.824 805.072 252.088 801.52 254.32C801.088 253.72 800.08 252.784 799.432 252.352C802.456 250.576 802.792 248.128 802.792 246.232V244.408ZM811.144 248.344L813.376 247.048C814.744 248.392 816.424 250.288 817.192 251.584L814.792 253.024C814.12 251.728 812.512 249.76 811.144 248.344ZM798.4 247.144L801.088 247.864C800.08 249.76 798.496 251.704 796.816 252.856C796.312 252.352 795.4 251.584 794.824 251.2C796.36 250.24 797.752 248.584 798.4 247.144ZM802.384 255.808C804.832 259.408 810.064 261.088 817.384 261.448C816.784 262.12 816.064 263.344 815.704 264.16C808 263.512 802.96 261.352 799.816 256.624L802.384 255.808ZM802.984 252.592L805.984 253.168C804.04 255.952 801.304 258.16 797.152 259.84C796.768 259.168 795.952 258.136 795.352 257.704C799.192 256.432 801.688 254.536 802.984 252.592ZM802.936 254.344H811.432V256.624H800.92L802.936 254.344ZM810.64 254.344H811.264L811.744 254.248L813.616 255.496C810.52 261.064 803.608 263.344 796 264.208C795.76 263.512 795.136 262.24 794.632 261.64C802 261.064 808.336 259.192 810.64 254.8V254.344ZM819.544 246.88C820.432 246.976 821.464 247.024 822.496 247.024C825.088 247.024 828.112 246.712 830.872 245.8L830.92 247.576C828.568 248.224 825.424 248.752 822.496 248.728C821.608 248.728 820.576 248.704 819.688 248.68L819.544 246.88ZM828.064 242.968C827.752 244.144 827.248 246.4 826.672 248.104C825.52 251.56 823.312 255.928 821.32 258.616L819.472 257.656C821.608 255.16 823.84 250.888 824.824 248.056C825.352 246.544 825.88 244.432 825.952 242.752L828.064 242.968ZM833.728 250.384C833.656 251.368 833.656 252.088 833.68 252.952C833.728 254.512 833.944 258.16 833.944 259.744C833.944 261.664 832.72 263.224 829.744 263.224C827.104 263.224 824.968 262.168 824.968 259.768C824.968 257.56 827.056 256.168 829.744 256.168C833.776 256.168 836.872 258.184 838.84 259.888L837.832 261.52C835.984 259.84 833.224 257.704 829.696 257.704C827.92 257.704 826.72 258.52 826.72 259.624C826.72 260.728 827.656 261.496 829.528 261.496C831.52 261.496 832.192 260.44 832.192 259.144C832.192 257.32 831.928 253.024 831.832 250.384H833.728ZM838.528 251.008C837.232 249.904 834.616 248.44 833.032 247.696L833.992 246.256C835.744 247 838.456 248.56 839.608 249.424L838.528 251.008ZM641.248 291.592H650.8V292.984H641.248V291.592ZM639.016 279.736H653.272V281.104H639.016V279.736ZM639.592 282.64H652.672V283.96H639.592V282.64ZM638.272 285.64H653.968V287.008H638.272V285.64ZM641.248 294.808H650.872V296.152H641.248V294.808ZM640.024 288.424H650.8V289.816H641.704V299.896H640.024V288.424ZM650.368 288.424H652.096V297.904C652.096 298.816 651.904 299.296 651.232 299.56C650.56 299.824 649.48 299.848 647.776 299.824C647.704 299.392 647.464 298.72 647.248 298.264C648.448 298.312 649.6 298.312 649.936 298.288C650.272 298.288 650.368 298.192 650.368 297.88V288.424ZM645.16 277.84H646.936V286.072H645.16V277.84ZM634.624 277.84H636.28V299.896H634.624V277.84ZM632.728 282.472L634.072 282.664C634 284.536 633.592 287.32 633.04 289.12L631.648 288.664C632.2 287.008 632.584 284.368 632.728 282.472ZM636.496 281.848L637.696 281.368C638.224 282.472 638.8 283.888 639.016 284.776L637.768 285.376C637.528 284.464 636.976 282.976 636.496 281.848ZM667.624 287.128H675.472V288.616H667.624V287.128ZM666.712 278.968H675.304V280.576H668.368V299.944H666.712V278.968ZM674.44 278.968H676.12V283.6C676.12 284.488 675.928 284.968 675.184 285.232C674.44 285.496 673.24 285.52 671.392 285.52C671.32 285.04 671.08 284.392 670.84 283.936C672.328 283.984 673.576 283.984 673.96 283.96C674.344 283.936 674.44 283.84 674.44 283.576V278.968ZM669.976 288.112C671.272 292.6 673.984 296.704 677.584 298.456C677.176 298.816 676.624 299.464 676.336 299.92C672.64 297.832 669.976 293.464 668.56 288.472L669.976 288.112ZM674.92 287.128H675.256L675.568 287.032L676.672 287.44C675.736 292.648 673.36 297.376 669.52 299.968C669.256 299.56 668.728 299.056 668.32 298.744C671.92 296.392 674.176 291.904 674.92 287.512V287.128ZM656.128 280.312H665.032V281.872H656.128V280.312ZM655.84 293.44H665.344V295H655.84V293.44ZM655.264 284.272H665.944V285.832H655.264V284.272ZM655.6 289.264H665.656V290.824H655.6V289.264ZM659.824 277.888H661.504V284.824H659.824V277.888ZM659.824 289.912H661.504V299.872H659.824V289.912ZM663.064 285.736L664.6 286.144C664.12 287.296 663.664 288.544 663.208 289.384L661.864 288.976C662.272 288.088 662.8 286.672 663.064 285.736ZM656.944 286.12L658.312 285.784C658.84 286.792 659.32 288.16 659.44 289L658 289.408C657.88 288.544 657.424 287.176 656.944 286.12ZM697.072 283.696C696.544 284.008 695.944 284.344 695.224 284.704C693.616 285.544 690.28 287.128 687.928 288.664C685.696 290.128 684.352 291.712 684.352 293.512C684.352 295.504 686.272 296.752 690.064 296.752C692.656 296.752 695.872 296.416 697.744 295.936L697.72 298.096C695.92 298.408 693.136 298.672 690.136 298.672C685.624 298.672 682.36 297.328 682.36 293.728C682.36 291.136 684.112 289.096 686.944 287.224C689.392 285.592 692.752 283.984 694.312 283.096C695.008 282.688 695.536 282.376 696.04 281.968L697.072 283.696ZM684.928 279.328C686.032 282.4 687.52 285.4 688.624 287.344L686.992 288.328C685.768 286.36 684.328 283.12 683.032 280.144L684.928 279.328ZM709 279.304C708.88 280.096 708.808 280.936 708.76 281.728C708.664 284.44 708.472 290.128 708.472 293.704C708.472 296.344 710.128 297.256 712.408 297.256C716.8 297.256 719.296 294.808 721.024 292.312L722.368 293.944C720.736 296.224 717.616 299.224 712.36 299.224C708.904 299.224 706.528 297.808 706.528 293.872C706.528 290.32 706.768 284.248 706.768 281.728C706.768 280.84 706.696 280 706.552 279.304H709ZM725.409 282.064C726.321 282.04 727.089 281.992 727.569 281.944C729.129 281.776 733.641 281.344 738.081 280.96C740.697 280.744 742.929 280.6 744.537 280.552L744.561 282.472C743.169 282.448 741.081 282.496 739.857 282.832C736.425 283.936 734.337 287.608 734.337 290.44C734.337 295.12 738.729 296.608 742.617 296.776L741.945 298.744C737.481 298.576 732.441 296.224 732.441 290.848C732.441 287.104 734.721 284.056 736.929 282.76C734.337 283.024 728.241 283.624 725.625 284.176L725.409 282.064ZM759.297 287.032H767.577V288.736H759.297V287.032ZM758.505 287.032H760.305V296.824C760.305 297.76 760.569 297.952 761.889 297.952C762.513 297.952 765.633 297.952 766.449 297.952C767.745 297.952 767.937 297.328 768.081 293.992C768.513 294.304 769.281 294.616 769.785 294.736C769.521 298.6 768.969 299.68 766.569 299.68C765.969 299.68 762.297 299.68 761.745 299.68C759.249 299.68 758.505 299.104 758.505 296.8V287.032ZM758.241 279.208H768.513V290.08H766.689V280.912H758.241V279.208ZM748.713 285.112H756.201V286.552H748.713V285.112ZM748.857 278.704H756.297V280.144H748.857V278.704ZM748.713 288.328H756.201V289.768H748.713V288.328ZM747.585 281.848H757.137V283.336H747.585V281.848ZM749.553 291.568H756.129V298.576H749.553V297.064H754.521V293.056H749.553V291.568ZM748.689 291.568H750.297V299.68H748.689V291.568ZM791.385 288.376L792.801 289.288C791.841 290.464 790.665 291.736 789.729 292.6L788.577 291.808C789.465 290.896 790.713 289.432 791.385 288.376ZM780.657 289.576L781.881 288.784C782.913 289.744 784.041 291.064 784.545 292L783.225 292.864C782.769 291.952 781.665 290.56 780.657 289.576ZM781.401 278.824H791.025V286.864H789.345V280.336H781.401V278.824ZM781.881 282.4H790.305V283.864H781.881V282.4ZM780.153 285.952H792.993V287.536H780.153V285.952ZM785.553 286.696H787.233V298.048C787.233 298.912 787.089 299.392 786.489 299.656C785.913 299.92 785.025 299.944 783.705 299.944C783.633 299.488 783.417 298.816 783.201 298.336C784.113 298.384 784.929 298.36 785.217 298.36C785.481 298.36 785.553 298.288 785.553 298V286.696ZM779.649 296.776C780.897 296.032 782.745 294.784 784.545 293.536L785.097 294.928C783.561 296.104 781.905 297.304 780.489 298.264L779.649 296.776ZM787.161 287.776C787.881 290.968 789.729 295.048 793.425 296.992C793.065 297.328 792.513 298.024 792.249 298.48C788.625 296.272 786.873 291.928 786.129 288.976L787.161 287.776ZM772.545 283.792H779.385V285.352H772.545V283.792ZM771.249 287.896H780.033V289.48H771.249V287.896ZM771.801 291.064L773.049 290.752C773.529 292.216 773.913 294.064 774.009 295.312L772.665 295.648C772.641 294.4 772.257 292.528 771.801 291.064ZM771.033 297.52C773.289 297.136 776.673 296.464 779.937 295.792L780.081 297.328C776.985 297.976 773.793 298.696 771.393 299.2L771.033 297.52ZM778.473 290.536L779.865 290.896C779.457 292.36 779.049 294.088 778.641 295.216L777.465 294.88C777.825 293.704 778.257 291.808 778.473 290.536ZM775.017 284.368H776.601V297.448L775.017 297.712V284.368ZM774.945 277.864H775.881V278.248H776.409V278.704C775.473 280.552 773.913 283.096 771.537 285.184C771.273 284.824 770.745 284.296 770.409 284.056C772.593 282.232 774.129 279.784 774.945 277.864ZM775.233 277.864H776.577C777.993 279.136 779.769 280.984 780.609 282.184L779.409 283.552C778.593 282.328 776.961 280.336 775.569 279.136H775.233V277.864ZM808.281 278.992C808.233 279.28 808.161 280.216 808.161 280.504C808.089 282.064 808.137 286.696 808.161 288.616L806.337 287.68C806.337 286.624 806.313 281.848 806.241 280.528C806.193 279.88 806.121 279.208 806.073 278.992H808.281ZM795.513 282.352C798.777 282.304 804.777 282.088 808.473 282.088C811.401 282.088 814.377 282.088 815.505 282.112L815.481 283.888C814.137 283.816 811.977 283.768 808.449 283.768C804.321 283.768 799.185 283.936 795.561 284.2L795.513 282.352ZM808.113 289.312C808.113 292.528 806.625 294.136 804.441 294.136C802.425 294.136 800.481 292.72 800.481 290.104C800.481 287.728 802.449 285.952 804.729 285.952C807.513 285.952 808.929 288.016 808.929 290.776C808.929 294.04 807.345 297.64 801.777 299.296L800.169 297.736C804.537 296.704 807.081 294.568 807.081 290.608C807.081 288.448 806.025 287.536 804.729 287.536C803.457 287.536 802.281 288.52 802.281 290.08C802.281 291.592 803.409 292.456 804.729 292.456C806.217 292.456 807.177 291.208 806.793 288.64L808.113 289.312ZM822.225 280.336C822.753 280.384 823.425 280.408 823.905 280.408C825.177 280.408 830.865 280.24 832.137 280.12C832.857 280.048 833.193 280 833.457 279.904L834.561 281.32C834.129 281.608 833.649 281.92 833.193 282.28C832.017 283.192 828.753 286 826.881 287.536C827.985 287.176 829.137 287.056 830.217 287.056C834.201 287.056 837.057 289.432 837.057 292.672C837.057 296.536 833.865 299.056 828.777 299.056C825.513 299.056 823.521 297.64 823.521 295.624C823.521 293.992 825.009 292.504 827.217 292.504C830.409 292.504 832.017 294.76 832.185 297.184L830.457 297.472C830.313 295.432 829.137 293.968 827.217 293.968C826.113 293.968 825.273 294.64 825.273 295.48C825.273 296.656 826.593 297.352 828.489 297.352C832.569 297.352 835.137 295.672 835.137 292.672C835.137 290.296 832.881 288.544 829.737 288.544C825.753 288.544 823.593 290.224 820.569 293.32L819.177 291.928C821.169 290.296 824.265 287.704 825.633 286.528C826.977 285.424 830.001 282.904 831.201 281.824C829.929 281.896 825.129 282.088 823.881 282.16C823.329 282.208 822.801 282.232 822.273 282.304L822.225 280.336Z" fill="black"/>
<path d="M631 229.6H771.4V230.8H631V229.6Z" fill="black"/>
</svg>
