<svg width="1379" height="213" viewBox="0 0 1379 213" fill="none" xmlns="http://www.w3.org/2000/svg">
<rect width="298.988" height="147.2" rx="58.88" fill="#F7D7D4"/>
<path d="M46.63 45.824H53.83V56H46.63V54.32H52.102V47.456H46.63V45.824ZM45.814 45.824H47.542V62.696L45.814 63.416V45.824ZM44.206 62.912C46.414 62.312 49.798 61.328 53.086 60.368L53.326 62.024C50.278 62.984 47.062 63.968 44.686 64.688L44.206 62.912ZM50.014 57.992L51.526 57.344C52.942 59.12 54.406 61.496 55.006 63.104L53.422 63.872C52.846 62.24 51.406 59.768 50.014 57.992ZM56.422 46.352H58.078V54.872H56.422V46.352ZM62.158 46.64L63.958 46.808C62.806 57.152 60.286 63.296 53.134 66.968C52.846 66.632 52.102 65.96 51.67 65.648C58.822 62.408 61.15 56.408 62.158 46.64ZM60.574 56H62.254V64.232C62.254 64.856 62.35 64.952 62.854 64.952C63.094 64.952 64.174 64.952 64.462 64.952C64.99 64.952 65.086 64.52 65.158 61.472C65.518 61.784 66.238 62.072 66.694 62.192C66.55 65.672 66.118 66.584 64.654 66.584C64.294 66.584 62.95 66.584 62.614 66.584C60.982 66.584 60.574 66.032 60.574 64.232V56ZM46.606 50.096H52.822V51.632H46.606V50.096ZM54.862 45.8H65.926V47.504H54.862V45.8ZM54.382 54.128H66.358V55.832H54.382V54.128ZM74.902 58.64H89.83V60.32H74.902V58.64ZM76.942 52.424H86.83V54.08H76.942V52.424ZM81.622 56.408H83.422V64.808C83.422 65.864 83.206 66.368 82.39 66.656C81.598 66.92 80.278 66.92 78.214 66.92C78.118 66.416 77.878 65.72 77.638 65.216C79.246 65.264 80.662 65.24 81.094 65.24C81.502 65.216 81.622 65.12 81.622 64.784V56.408ZM86.35 52.424H86.782L87.166 52.328L88.318 53.192C86.902 54.848 84.79 56.6 82.942 57.704C82.702 57.392 82.246 56.888 81.934 56.648C83.542 55.688 85.438 54.008 86.35 52.76V52.424ZM68.35 47.984H89.374V49.712H68.35V47.984ZM76.102 44.84L77.974 45.32C76.294 50.84 73.366 56.432 68.566 59.864C68.374 59.408 67.918 58.616 67.606 58.184C71.974 55.136 74.758 49.808 76.102 44.84ZM71.374 54.656H73.174V66.872H71.374V54.656ZM103.918 48.632C103.606 51.128 103.126 53.936 102.382 56.504C100.918 61.424 98.998 63.968 96.79 63.968C94.63 63.968 92.494 61.52 92.494 57.536C92.494 52.328 97.126 47.792 103.006 47.792C108.622 47.792 112.198 51.752 112.198 56.624C112.198 61.64 108.886 65 103.174 65.744L102.07 63.968C102.838 63.896 103.558 63.8 104.134 63.68C107.206 62.984 110.23 60.68 110.23 56.528C110.23 52.688 107.566 49.52 102.958 49.52C97.678 49.52 94.39 53.864 94.39 57.392C94.39 60.416 95.758 61.76 96.838 61.76C97.966 61.76 99.262 60.128 100.486 56.072C101.182 53.792 101.686 51.08 101.926 48.584L103.918 48.632ZM128.35 45.224H130.174V65.288H128.35V45.224ZM121.486 52.472H137.11V54.2H121.486V52.472ZM122.086 64.184H136.702V65.936H122.086V64.184ZM118.39 51.392L120.142 49.616L120.166 49.64V66.872H118.39V51.392ZM121.078 44.912L122.806 45.44C121.078 49.64 118.39 53.768 115.582 56.456C115.39 56.072 114.838 55.136 114.502 54.728C117.094 52.352 119.59 48.68 121.078 44.912ZM146.974 47.888H160.078V49.376H146.974V47.888ZM147.694 51.056H159.526V52.496H147.694V51.056ZM146.494 54.32H160.414V55.856H146.494V54.32ZM156.622 44.816L158.398 45.32C157.798 46.4 157.15 47.528 156.622 48.272L155.206 47.84C155.71 47 156.31 45.68 156.622 44.816ZM148.774 45.416L150.214 44.936C150.79 45.8 151.438 46.952 151.678 47.72L150.142 48.296C149.926 47.528 149.35 46.304 148.774 45.416ZM158.758 56.744L160.126 57.704C159.118 58.88 157.822 60.152 156.838 60.992L155.662 60.104C156.622 59.216 157.99 57.776 158.758 56.744ZM147.262 57.632L148.51 56.84C149.446 57.776 150.526 59.096 151.006 59.96L149.71 60.872C149.23 59.984 148.198 58.616 147.262 57.632ZM145.558 64.064C147.07 63.32 149.326 62.096 151.534 60.896L152.014 62.36C150.118 63.488 148.03 64.688 146.398 65.6L145.558 64.064ZM152.59 48.896H154.318V64.904C154.318 65.888 154.126 66.368 153.502 66.656C152.878 66.944 151.774 66.968 150.286 66.968C150.238 66.512 149.998 65.768 149.782 65.312C150.838 65.336 151.87 65.336 152.182 65.312C152.494 65.312 152.59 65.216 152.59 64.904V48.896ZM154.222 56.552C155.35 60.128 157.654 63.152 160.87 64.472C160.486 64.808 159.958 65.432 159.694 65.912C156.478 64.28 154.174 60.896 152.974 56.864L154.222 56.552ZM138.718 50.048H146.518V51.752H138.718V50.048ZM142.102 44.84H143.758V66.896H142.102V44.84ZM142.054 51.056L143.158 51.44C142.414 55.232 140.83 59.96 139.15 62.36C138.958 61.904 138.526 61.208 138.238 60.824C139.822 58.664 141.382 54.488 142.054 51.056ZM143.638 53.096C144.166 53.768 146.206 56.84 146.662 57.56L145.654 58.904C145.126 57.68 143.422 54.8 142.822 53.864L143.638 53.096ZM174.334 49.784C173.422 48.848 171.838 47.384 170.83 46.616L172.198 45.632C172.99 46.256 174.814 47.768 175.702 48.704L174.334 49.784ZM166.702 47.696C166.894 48.104 167.302 48.872 167.542 49.328C168.478 51.008 169.63 53.432 170.614 55.616C171.91 58.616 173.446 63.056 174.262 65.72L172.198 66.272C171.454 63.416 170.302 59.576 168.934 56.432C167.806 53.912 166.726 51.584 165.91 50.216C165.622 49.736 165.142 48.968 164.758 48.488L166.702 47.696ZM162.454 54.704C163.15 54.536 163.99 54.248 164.422 54.056C167.758 52.784 173.59 49.52 177.574 49.52C180.91 49.52 182.926 51.392 182.926 54.008C182.926 56.792 181.174 58.88 177.43 58.88C176.086 58.88 174.718 58.544 173.83 58.208L173.878 56.312C174.814 56.744 176.014 57.104 177.286 57.104C179.926 57.104 181.006 55.64 181.006 53.936C181.006 52.52 179.878 51.2 177.526 51.2C173.518 51.2 166.414 55.352 163.39 56.672L162.454 54.704ZM196.486 45.608H198.214V48.536C198.214 50.624 197.686 53.168 195.118 54.872C194.878 54.536 194.182 53.912 193.822 53.672C196.126 52.184 196.486 50.192 196.486 48.512V45.608ZM202.342 45.608H204.046V51.512C204.046 52.04 204.118 52.136 204.502 52.136C204.694 52.136 205.486 52.136 205.726 52.136C206.134 52.136 206.23 51.824 206.278 49.52C206.614 49.784 207.334 50.048 207.79 50.168C207.646 52.976 207.214 53.72 205.918 53.72C205.606 53.72 204.55 53.72 204.238 53.72C202.774 53.72 202.342 53.24 202.342 51.536V45.608ZM197.782 56.936C199.438 61.064 203.014 64.136 207.838 65.36C207.43 65.744 206.902 66.464 206.662 66.92C201.67 65.456 198.094 62.144 196.174 57.44L197.782 56.936ZM204.502 55.256H204.862L205.174 55.184L206.326 55.64C204.622 61.928 200.11 65.384 194.854 66.92C194.662 66.488 194.206 65.72 193.87 65.336C198.718 64.112 203.062 60.872 204.502 55.544V55.256ZM194.926 55.256H205.198V56.888H194.926V55.256ZM197.206 45.608H203.206V47.216H197.206V45.608ZM186.622 52.112H193.774V53.552H186.622V52.112ZM186.742 45.704H193.726V47.144H186.742V45.704ZM186.622 55.328H193.774V56.768H186.622V55.328ZM185.494 48.848H194.614V50.336H185.494V48.848ZM187.486 58.568H193.774V65.576H187.486V64.064H192.19V60.056H187.486V58.568ZM186.598 58.568H188.158V66.68H186.598V58.568ZM218.542 53.072H231.43V54.848H218.542V53.072ZM224.182 44.912H226.006V66.92H224.182V44.912ZM210.166 52.112H217.654V53.552H210.166V52.112ZM210.31 45.704H217.678V47.144H210.31V45.704ZM210.166 55.328H217.654V56.768H210.166V55.328ZM209.038 48.848H218.59V50.336H209.038V48.848ZM211.006 58.568H217.582V65.576H211.006V64.064H215.974V60.056H211.006V58.568ZM210.142 58.568H211.75V66.68H210.142V58.568ZM245.182 48.632C244.87 51.128 244.39 53.936 243.646 56.504C242.182 61.424 240.262 63.968 238.054 63.968C235.894 63.968 233.758 61.52 233.758 57.536C233.758 52.328 238.39 47.792 244.27 47.792C249.886 47.792 253.462 51.752 253.462 56.624C253.462 61.64 250.15 65 244.438 65.744L243.334 63.968C244.102 63.896 244.822 63.8 245.398 63.68C248.47 62.984 251.494 60.68 251.494 56.528C251.494 52.688 248.83 49.52 244.222 49.52C238.942 49.52 235.654 53.864 235.654 57.392C235.654 60.416 237.022 61.76 238.102 61.76C239.23 61.76 240.526 60.128 241.75 56.072C242.446 53.792 242.95 51.08 243.19 48.584L245.182 48.632ZM59.818 90.56H73.234V91.928H61.642V102.944H59.818V90.56ZM72.706 90.56H74.53V100.928C74.53 101.936 74.29 102.416 73.522 102.68C72.778 102.944 71.53 102.944 69.586 102.944C69.514 102.464 69.226 101.792 68.986 101.336C70.402 101.408 71.794 101.408 72.178 101.384C72.586 101.36 72.706 101.24 72.706 100.904V90.56ZM61.138 93.968H73.306V95.312H61.138V93.968ZM56.986 82.928H64.042V84.392H56.986V82.928ZM56.386 87.632C58.33 87.344 61.186 86.864 64.042 86.384L64.114 87.752C61.45 88.28 58.762 88.784 56.65 89.168L56.386 87.632ZM61.138 97.448H73.378V98.792H61.138V97.448ZM62.986 80.84H64.786V89.744H62.986V80.84ZM75.538 81.92L76.786 83.216C74.794 84.08 71.962 84.896 69.562 85.448C69.466 85.088 69.226 84.512 69.034 84.176C71.338 83.576 74.002 82.712 75.538 81.92ZM68.266 80.84H70.09V87.2C70.09 87.872 70.282 87.968 71.362 87.968C71.818 87.968 74.41 87.968 75.082 87.968C75.898 87.968 76.066 87.704 76.138 85.928C76.546 86.216 77.266 86.456 77.746 86.576C77.554 88.904 77.026 89.552 75.25 89.552C74.722 89.552 71.626 89.552 71.17 89.552C68.842 89.552 68.266 89.048 68.266 87.176V80.84ZM84.514 85.64V87.176H96.682V85.64H84.514ZM84.514 82.952V84.464H96.682V82.952H84.514ZM82.786 81.704H98.482V88.424H82.786V81.704ZM79.978 89.936H101.194V91.4H79.978V89.936ZM85.066 93.992V96.392H96.202V93.992H85.066ZM83.338 92.672H98.002V97.712H83.338V92.672ZM89.65 88.184H91.498V90.728H89.65V88.184ZM89.722 96.896H91.522V101.192C91.522 102.08 91.33 102.488 90.61 102.704C89.914 102.92 88.786 102.92 87.106 102.92C87.01 102.488 86.77 101.912 86.554 101.48C87.802 101.528 88.954 101.528 89.314 101.528C89.626 101.504 89.722 101.408 89.722 101.144V96.896ZM93.706 99.224L94.858 98.216C96.994 99.008 99.754 100.328 101.218 101.336L99.97 102.464C98.602 101.504 95.866 100.088 93.706 99.224ZM85.594 98.24L87.226 98.912C85.618 100.28 83.074 101.672 81.01 102.536C80.698 102.176 80.074 101.528 79.69 101.24C81.778 100.52 84.154 99.392 85.594 98.24ZM112.354 82.376C112.258 82.808 112.162 83.336 112.066 83.792C111.898 84.656 111.586 86.624 111.25 88.112C110.434 91.496 108.73 97.472 106.018 101.84L104.05 101.072C106.786 97.4 108.706 90.992 109.354 88.064C109.81 86.144 110.122 83.984 110.122 82.136L112.354 82.376ZM120.61 85.136C122.098 87.08 124.186 91.448 125.002 93.656L123.13 94.544C122.434 92.096 120.538 87.92 118.858 85.928L120.61 85.136ZM103.714 87.632C104.458 87.68 105.082 87.656 105.85 87.632C107.65 87.584 112.522 87.056 114.154 87.056C116.29 87.056 118.042 87.872 118.042 91.112C118.042 93.968 117.658 97.784 116.65 99.776C115.906 101.384 114.706 101.792 113.146 101.792C112.234 101.792 111.082 101.624 110.338 101.432L110.002 99.44C111.01 99.752 112.282 99.92 112.954 99.92C113.842 99.92 114.562 99.728 115.042 98.696C115.81 97.064 116.194 93.944 116.194 91.352C116.194 89.144 115.186 88.736 113.65 88.736C112.042 88.736 107.53 89.288 106.066 89.432C105.514 89.504 104.53 89.624 103.906 89.72L103.714 87.632ZM120.874 81.656C121.474 82.52 122.338 83.984 122.842 84.968L121.546 85.544C121.066 84.56 120.25 83.12 119.578 82.208L120.874 81.656ZM123.514 80.696C124.162 81.584 125.074 83.096 125.554 83.984L124.234 84.56C123.73 83.504 122.938 82.136 122.242 81.248L123.514 80.696ZM130.21 89.936H143.938V91.688H130.21V89.936ZM143.338 89.936H145.21C145.21 89.936 145.186 90.56 145.162 90.8C144.826 98.24 144.49 101.024 143.626 101.936C143.146 102.536 142.618 102.704 141.778 102.776C140.986 102.848 139.474 102.824 137.962 102.752C137.938 102.2 137.698 101.456 137.362 100.928C138.946 101.072 140.434 101.096 141.01 101.096C141.49 101.096 141.778 101.048 142.018 100.784C142.666 100.136 143.026 97.4 143.338 90.272V89.936ZM133.498 81.344L135.394 81.896C133.666 85.952 130.834 89.528 127.81 91.832C127.474 91.448 126.706 90.752 126.25 90.416C129.322 88.352 131.986 85.04 133.498 81.344ZM141.874 81.296C143.434 84.512 146.53 88.16 149.146 90.008C148.666 90.392 147.994 91.112 147.634 91.616C144.97 89.456 141.946 85.568 140.146 81.992L141.874 81.296ZM135.274 90.416H137.194C136.642 95.672 135.394 100.64 128.698 103.04C128.482 102.584 127.954 101.864 127.546 101.48C133.834 99.392 134.794 94.952 135.274 90.416ZM159.754 82.28C159.658 82.736 159.562 83.24 159.466 83.72C159.322 84.584 158.986 86.552 158.674 88.04C157.858 91.4 156.13 97.376 153.418 101.768L151.474 100.976C154.21 97.328 156.13 90.92 156.778 87.968C157.21 86.072 157.546 83.912 157.546 82.064L159.754 82.28ZM168.034 84.848C169.522 86.792 171.61 91.208 172.402 93.44L170.554 94.328C169.834 91.856 167.962 87.608 166.282 85.64L168.034 84.848ZM151.114 87.56C151.882 87.584 152.506 87.584 153.274 87.56C155.05 87.512 159.922 86.96 161.554 86.96C163.69 86.96 165.442 87.776 165.442 91.04C165.442 93.896 165.058 97.712 164.074 99.704C163.306 101.312 162.106 101.696 160.57 101.696C159.634 101.696 158.506 101.528 157.738 101.36L157.426 99.344C158.434 99.656 159.682 99.848 160.354 99.848C161.242 99.848 161.962 99.656 162.466 98.6C163.234 96.992 163.594 93.848 163.594 91.256C163.594 89.072 162.586 88.664 161.05 88.664C159.442 88.664 154.954 89.192 153.49 89.336C152.938 89.408 151.93 89.528 151.33 89.624L151.114 87.56ZM180.826 82.184C182.89 82.856 188.002 83.84 190.138 84.056L189.682 85.88C187.378 85.568 182.194 84.512 180.346 84.032L180.826 82.184ZM180.298 86.576C179.986 88.208 179.554 91.76 179.314 93.32C181.618 91.304 184.258 90.368 187.138 90.368C190.81 90.368 193.258 92.576 193.258 95.408C193.258 99.68 189.442 102.584 180.538 101.84L179.962 99.896C187.546 100.808 191.242 98.624 191.242 95.336C191.242 93.44 189.442 92.072 186.994 92.072C183.85 92.072 181.258 93.248 179.578 95.288C179.218 95.696 179.002 96.08 178.858 96.464L177.058 96.032C177.538 93.848 178.138 88.808 178.282 86.312L180.298 86.576ZM198.658 85.88C199.546 85.976 200.578 86.024 201.61 86.024C204.202 86.024 207.226 85.712 209.986 84.8L210.034 86.576C207.682 87.224 204.538 87.752 201.61 87.728C200.722 87.728 199.69 87.704 198.802 87.68L198.658 85.88ZM207.178 81.968C206.866 83.144 206.362 85.4 205.786 87.104C204.634 90.56 202.426 94.928 200.434 97.616L198.586 96.656C200.722 94.16 202.954 89.888 203.938 87.056C204.466 85.544 204.994 83.432 205.066 81.752L207.178 81.968ZM212.842 89.384C212.77 90.368 212.77 91.088 212.794 91.952C212.842 93.512 213.058 97.16 213.058 98.744C213.058 100.664 211.834 102.224 208.858 102.224C206.218 102.224 204.082 101.168 204.082 98.768C204.082 96.56 206.17 95.168 208.858 95.168C212.89 95.168 215.986 97.184 217.954 98.888L216.946 100.52C215.098 98.84 212.338 96.704 208.81 96.704C207.034 96.704 205.834 97.52 205.834 98.624C205.834 99.728 206.77 100.496 208.642 100.496C210.634 100.496 211.306 99.44 211.306 98.144C211.306 96.32 211.042 92.024 210.946 89.384H212.842ZM217.642 90.008C216.346 88.904 213.73 87.44 212.146 86.696L213.106 85.256C214.858 86 217.57 87.56 218.722 88.424L217.642 90.008ZM225.25 84.272C225.13 84.824 225.058 85.976 225.034 86.6C225.01 88.088 225.034 90.296 225.202 92.264C225.61 96.272 226.762 98.936 228.49 98.936C229.714 98.936 230.842 96.464 231.466 94.064L232.978 95.768C231.514 99.824 230.074 101.216 228.442 101.216C226.162 101.216 224.002 98.96 223.33 92.744C223.114 90.68 223.066 87.752 223.066 86.36C223.066 85.808 223.066 84.776 222.922 84.224L225.25 84.272ZM237.73 84.92C239.89 87.704 241.618 92.816 241.978 96.872L240.034 97.64C239.626 93.32 238.162 88.376 235.882 85.568L237.73 84.92Z" fill="black" fill-opacity="0.8"/>
<rect x="359.988" width="298.988" height="147.2" rx="58.88" fill="#F7D7D4"/>
<path d="M406.618 45.824H413.818V56H406.618V54.32H412.09V47.456H406.618V45.824ZM405.802 45.824H407.53V62.696L405.802 63.416V45.824ZM404.194 62.912C406.402 62.312 409.786 61.328 413.074 60.368L413.314 62.024C410.266 62.984 407.05 63.968 404.674 64.688L404.194 62.912ZM410.002 57.992L411.514 57.344C412.93 59.12 414.394 61.496 414.994 63.104L413.41 63.872C412.834 62.24 411.394 59.768 410.002 57.992ZM416.41 46.352H418.066V54.872H416.41V46.352ZM422.146 46.64L423.946 46.808C422.794 57.152 420.274 63.296 413.122 66.968C412.834 66.632 412.09 65.96 411.658 65.648C418.81 62.408 421.138 56.408 422.146 46.64ZM420.562 56H422.242V64.232C422.242 64.856 422.338 64.952 422.842 64.952C423.082 64.952 424.162 64.952 424.45 64.952C424.978 64.952 425.074 64.52 425.146 61.472C425.506 61.784 426.226 62.072 426.682 62.192C426.538 65.672 426.106 66.584 424.642 66.584C424.282 66.584 422.938 66.584 422.602 66.584C420.97 66.584 420.562 66.032 420.562 64.232V56ZM406.594 50.096H412.81V51.632H406.594V50.096ZM414.85 45.8H425.914V47.504H414.85V45.8ZM414.37 54.128H426.346V55.832H414.37V54.128ZM434.89 58.64H449.818V60.32H434.89V58.64ZM436.93 52.424H446.818V54.08H436.93V52.424ZM441.61 56.408H443.41V64.808C443.41 65.864 443.194 66.368 442.378 66.656C441.586 66.92 440.266 66.92 438.202 66.92C438.106 66.416 437.866 65.72 437.626 65.216C439.234 65.264 440.65 65.24 441.082 65.24C441.49 65.216 441.61 65.12 441.61 64.784V56.408ZM446.338 52.424H446.77L447.154 52.328L448.306 53.192C446.89 54.848 444.778 56.6 442.93 57.704C442.69 57.392 442.234 56.888 441.922 56.648C443.53 55.688 445.426 54.008 446.338 52.76V52.424ZM428.338 47.984H449.362V49.712H428.338V47.984ZM436.09 44.84L437.962 45.32C436.282 50.84 433.354 56.432 428.554 59.864C428.362 59.408 427.906 58.616 427.594 58.184C431.962 55.136 434.746 49.808 436.09 44.84ZM431.362 54.656H433.162V66.872H431.362V54.656ZM463.906 48.632C463.594 51.128 463.114 53.936 462.37 56.504C460.906 61.424 458.986 63.968 456.778 63.968C454.618 63.968 452.482 61.52 452.482 57.536C452.482 52.328 457.114 47.792 462.994 47.792C468.61 47.792 472.186 51.752 472.186 56.624C472.186 61.64 468.874 65 463.162 65.744L462.058 63.968C462.826 63.896 463.546 63.8 464.122 63.68C467.194 62.984 470.218 60.68 470.218 56.528C470.218 52.688 467.554 49.52 462.946 49.52C457.666 49.52 454.378 53.864 454.378 57.392C454.378 60.416 455.746 61.76 456.826 61.76C457.954 61.76 459.25 60.128 460.474 56.072C461.17 53.792 461.674 51.08 461.914 48.584L463.906 48.632ZM488.338 45.224H490.162V65.288H488.338V45.224ZM481.474 52.472H497.098V54.2H481.474V52.472ZM482.074 64.184H496.69V65.936H482.074V64.184ZM478.378 51.392L480.13 49.616L480.154 49.64V66.872H478.378V51.392ZM481.066 44.912L482.794 45.44C481.066 49.64 478.378 53.768 475.57 56.456C475.378 56.072 474.826 55.136 474.49 54.728C477.082 52.352 479.578 48.68 481.066 44.912ZM506.962 47.888H520.066V49.376H506.962V47.888ZM507.682 51.056H519.514V52.496H507.682V51.056ZM506.482 54.32H520.402V55.856H506.482V54.32ZM516.61 44.816L518.386 45.32C517.786 46.4 517.138 47.528 516.61 48.272L515.194 47.84C515.698 47 516.298 45.68 516.61 44.816ZM508.762 45.416L510.202 44.936C510.778 45.8 511.426 46.952 511.666 47.72L510.13 48.296C509.914 47.528 509.338 46.304 508.762 45.416ZM518.746 56.744L520.114 57.704C519.106 58.88 517.81 60.152 516.826 60.992L515.65 60.104C516.61 59.216 517.978 57.776 518.746 56.744ZM507.25 57.632L508.498 56.84C509.434 57.776 510.514 59.096 510.994 59.96L509.698 60.872C509.218 59.984 508.186 58.616 507.25 57.632ZM505.546 64.064C507.058 63.32 509.314 62.096 511.522 60.896L512.002 62.36C510.106 63.488 508.018 64.688 506.386 65.6L505.546 64.064ZM512.578 48.896H514.306V64.904C514.306 65.888 514.114 66.368 513.49 66.656C512.866 66.944 511.762 66.968 510.274 66.968C510.226 66.512 509.986 65.768 509.77 65.312C510.826 65.336 511.858 65.336 512.17 65.312C512.482 65.312 512.578 65.216 512.578 64.904V48.896ZM514.21 56.552C515.338 60.128 517.642 63.152 520.858 64.472C520.474 64.808 519.946 65.432 519.682 65.912C516.466 64.28 514.162 60.896 512.962 56.864L514.21 56.552ZM498.706 50.048H506.506V51.752H498.706V50.048ZM502.09 44.84H503.746V66.896H502.09V44.84ZM502.042 51.056L503.146 51.44C502.402 55.232 500.818 59.96 499.138 62.36C498.946 61.904 498.514 61.208 498.226 60.824C499.81 58.664 501.37 54.488 502.042 51.056ZM503.626 53.096C504.154 53.768 506.194 56.84 506.65 57.56L505.642 58.904C505.114 57.68 503.41 54.8 502.81 53.864L503.626 53.096ZM534.322 49.784C533.41 48.848 531.826 47.384 530.818 46.616L532.186 45.632C532.978 46.256 534.802 47.768 535.69 48.704L534.322 49.784ZM526.69 47.696C526.882 48.104 527.29 48.872 527.53 49.328C528.466 51.008 529.618 53.432 530.602 55.616C531.898 58.616 533.434 63.056 534.25 65.72L532.186 66.272C531.442 63.416 530.29 59.576 528.922 56.432C527.794 53.912 526.714 51.584 525.898 50.216C525.61 49.736 525.13 48.968 524.746 48.488L526.69 47.696ZM522.442 54.704C523.138 54.536 523.978 54.248 524.41 54.056C527.746 52.784 533.578 49.52 537.562 49.52C540.898 49.52 542.914 51.392 542.914 54.008C542.914 56.792 541.162 58.88 537.418 58.88C536.074 58.88 534.706 58.544 533.818 58.208L533.866 56.312C534.802 56.744 536.002 57.104 537.274 57.104C539.914 57.104 540.994 55.64 540.994 53.936C540.994 52.52 539.866 51.2 537.514 51.2C533.506 51.2 526.402 55.352 523.378 56.672L522.442 54.704ZM556.474 45.608H558.202V48.536C558.202 50.624 557.674 53.168 555.106 54.872C554.866 54.536 554.17 53.912 553.81 53.672C556.114 52.184 556.474 50.192 556.474 48.512V45.608ZM562.33 45.608H564.034V51.512C564.034 52.04 564.106 52.136 564.49 52.136C564.682 52.136 565.474 52.136 565.714 52.136C566.122 52.136 566.218 51.824 566.266 49.52C566.602 49.784 567.322 50.048 567.778 50.168C567.634 52.976 567.202 53.72 565.906 53.72C565.594 53.72 564.538 53.72 564.226 53.72C562.762 53.72 562.33 53.24 562.33 51.536V45.608ZM557.77 56.936C559.426 61.064 563.002 64.136 567.826 65.36C567.418 65.744 566.89 66.464 566.65 66.92C561.658 65.456 558.082 62.144 556.162 57.44L557.77 56.936ZM564.49 55.256H564.85L565.162 55.184L566.314 55.64C564.61 61.928 560.098 65.384 554.842 66.92C554.65 66.488 554.194 65.72 553.858 65.336C558.706 64.112 563.05 60.872 564.49 55.544V55.256ZM554.914 55.256H565.186V56.888H554.914V55.256ZM557.194 45.608H563.194V47.216H557.194V45.608ZM546.61 52.112H553.762V53.552H546.61V52.112ZM546.73 45.704H553.714V47.144H546.73V45.704ZM546.61 55.328H553.762V56.768H546.61V55.328ZM545.482 48.848H554.602V50.336H545.482V48.848ZM547.474 58.568H553.762V65.576H547.474V64.064H552.178V60.056H547.474V58.568ZM546.586 58.568H548.146V66.68H546.586V58.568ZM578.53 53.072H591.418V54.848H578.53V53.072ZM584.17 44.912H585.994V66.92H584.17V44.912ZM570.154 52.112H577.642V53.552H570.154V52.112ZM570.298 45.704H577.666V47.144H570.298V45.704ZM570.154 55.328H577.642V56.768H570.154V55.328ZM569.026 48.848H578.578V50.336H569.026V48.848ZM570.994 58.568H577.57V65.576H570.994V64.064H575.962V60.056H570.994V58.568ZM570.13 58.568H571.738V66.68H570.13V58.568ZM602.578 48.8C605.194 49.256 610.066 49.16 612.442 48.8V50.744C609.874 51.032 605.218 51.032 602.602 50.744L602.578 48.8ZM603.514 58.592C603.298 59.456 603.178 60.128 603.178 60.776C603.178 61.88 603.946 62.96 607.234 62.96C609.37 62.96 611.242 62.768 613.162 62.312L613.21 64.328C611.722 64.64 609.706 64.832 607.21 64.832C603.202 64.832 601.402 63.488 601.402 61.232C601.402 60.44 601.522 59.576 601.786 58.424L603.514 58.592ZM598.018 46.952C597.874 47.36 597.682 48.128 597.586 48.56C597.13 50.792 596.386 55.064 596.386 57.776C596.386 58.928 596.458 59.936 596.602 61.112C597.01 60.032 597.562 58.592 597.97 57.608L598.978 58.4C598.378 60.104 597.49 62.624 597.274 63.776C597.202 64.112 597.154 64.568 597.154 64.856C597.178 65.096 597.202 65.432 597.226 65.696L595.522 65.816C595.042 64.112 594.634 61.352 594.634 58.088C594.634 54.56 595.426 50.456 595.714 48.464C595.786 47.912 595.858 47.312 595.882 46.784L598.018 46.952ZM422.818 86.696C422.29 87.008 421.69 87.344 420.97 87.704C419.362 88.544 416.026 90.128 413.674 91.664C411.442 93.128 410.098 94.712 410.098 96.512C410.098 98.504 412.018 99.752 415.81 99.752C418.402 99.752 421.618 99.416 423.49 98.936L423.466 101.096C421.666 101.408 418.882 101.672 415.882 101.672C411.37 101.672 408.106 100.328 408.106 96.728C408.106 94.136 409.858 92.096 412.69 90.224C415.138 88.592 418.498 86.984 420.058 86.096C420.754 85.688 421.282 85.376 421.786 84.968L422.818 86.696ZM410.674 82.328C411.778 85.4 413.266 88.4 414.37 90.344L412.738 91.328C411.514 89.36 410.074 86.12 408.778 83.144L410.674 82.328ZM434.962 82.064C434.458 83.84 434.002 87.08 433.858 88.76C434.842 86.288 437.338 83.288 440.386 83.288C443.554 83.288 445.858 86.504 445.858 91.544C445.858 98.192 441.658 101.144 435.73 102.224L434.578 100.496C439.81 99.704 443.866 97.592 443.866 91.568C443.866 87.776 442.594 85.04 440.074 85.04C437.074 85.04 434.29 89.408 434.002 92.552C433.882 93.464 433.882 94.304 434.05 95.504L432.178 95.648C432.058 94.736 431.938 93.392 431.938 91.832C431.938 89.552 432.394 86.024 432.682 84.056C432.778 83.336 432.826 82.664 432.874 81.992L434.962 82.064ZM461.698 82.016C461.602 82.304 461.506 82.736 461.434 83.072C461.026 85.088 460.618 88.88 460.618 92.168C460.618 95.288 461.29 98.168 462.034 100.424L460.282 100.952C459.586 98.816 458.938 95.408 458.938 92.36C458.938 89.072 459.418 85.184 459.634 83.12C459.682 82.688 459.706 82.256 459.706 81.944L461.698 82.016ZM457.834 84.968C462.058 84.968 466.234 84.632 469.546 83.888L469.57 85.664C466.114 86.264 461.386 86.624 457.81 86.624C456.778 86.624 454.906 86.528 453.922 86.48L453.874 84.68C454.714 84.824 456.802 84.968 457.834 84.968ZM467.842 87.8C467.698 88.112 467.482 88.76 467.338 89.144C465.922 93.584 463.522 96.92 461.002 98.864C459.466 100.04 457.546 100.928 455.842 100.928C454.258 100.928 453.01 99.968 453.01 97.928C453.01 94.64 456.058 91.256 459.61 89.888C461.218 89.264 463.162 88.904 464.722 88.904C469.258 88.904 472.114 91.544 472.114 94.904C472.114 98.336 469.834 101.336 464.266 102.224L463.234 100.616C467.554 100.136 470.242 97.904 470.242 94.808C470.242 92.48 468.274 90.44 464.698 90.44C462.682 90.44 460.906 91.016 459.682 91.568C456.97 92.768 454.81 95.408 454.81 97.616C454.81 98.6 455.29 99.08 456.178 99.08C457.378 99.08 458.938 98.408 460.474 97.064C462.61 95.192 464.578 92.6 465.682 88.712C465.778 88.352 465.898 87.704 465.922 87.32L467.842 87.8ZM481.426 82.088C484.018 82.664 488.602 83.216 490.906 83.336L490.642 85.112C488.242 84.896 484.042 84.368 481.114 83.84L481.426 82.088ZM491.386 88.952C490.93 89.264 490.33 89.768 490.042 90.008C489.13 90.848 486.442 93.368 485.53 94.304C485.794 94.28 486.226 94.28 486.49 94.352C487.402 94.448 487.954 95.072 488.29 96.056C488.53 96.752 488.866 97.976 489.106 98.744C489.394 99.656 489.946 100.064 491.194 100.064C492.754 100.064 494.578 99.848 495.73 99.56L495.586 101.576C494.578 101.768 492.37 101.936 491.098 101.936C489.154 101.936 487.978 101.48 487.45 99.896C487.21 99.176 486.874 97.76 486.634 97.088C486.37 96.248 485.842 95.792 485.17 95.792C484.522 95.792 483.946 96.128 483.394 96.68C482.506 97.52 479.89 100.28 478.522 102.008L476.698 100.736C477.01 100.496 477.442 100.112 477.898 99.656C478.882 98.696 485.41 92.144 487.762 89.792C485.866 89.888 481.834 90.248 480.37 90.368C479.578 90.416 478.954 90.512 478.45 90.584L478.282 88.496C478.834 88.544 479.53 88.544 480.298 88.544C481.69 88.496 487.258 88.136 489.082 87.896C489.49 87.848 489.994 87.728 490.234 87.632L491.386 88.952ZM511.834 82.28C511.786 82.544 511.714 83.48 511.714 83.792C511.666 85.328 511.714 89.96 511.738 91.88L509.914 90.944C509.914 89.888 509.89 85.136 509.818 83.792C509.77 83.144 509.698 82.472 509.65 82.28H511.834ZM499.09 85.616C502.354 85.568 508.354 85.352 512.05 85.352C514.978 85.352 517.93 85.352 519.082 85.376L519.058 87.152C517.69 87.08 515.53 87.032 512.026 87.032C507.898 87.032 502.738 87.2 499.138 87.464L499.09 85.616ZM511.69 92.576C511.69 95.792 510.202 97.4 507.994 97.4C505.978 97.4 504.058 95.984 504.058 93.368C504.058 90.992 506.002 89.216 508.282 89.216C511.09 89.216 512.506 91.28 512.506 94.064C512.506 97.304 510.922 100.904 505.33 102.56L503.722 101C508.114 99.992 510.658 97.832 510.658 93.872C510.658 91.712 509.602 90.8 508.282 90.8C507.034 90.8 505.858 91.784 505.858 93.344C505.858 94.856 506.986 95.744 508.282 95.744C509.794 95.744 510.754 94.472 510.37 91.928L511.69 92.576ZM515.146 81.776C515.698 82.592 516.466 83.792 516.946 84.68L515.578 85.28C515.074 84.32 514.402 83.168 513.802 82.352L515.146 81.776ZM518.05 81.152C518.602 81.968 519.346 83.12 519.85 84.032L518.506 84.656C517.978 83.648 517.33 82.544 516.706 81.728L518.05 81.152ZM530.962 81.8H532.642V102.896H530.962V81.8ZM537.562 81.344H539.194V99.656H537.562V81.344ZM541.738 82.88L543.37 83.408C542.626 85.136 541.738 87.224 541.018 88.544L539.77 88.064C540.442 86.696 541.33 84.416 541.738 82.88ZM533.53 83.552L534.85 83.096C535.642 84.56 536.362 86.504 536.602 87.8L535.162 88.304C534.922 87.008 534.25 85.04 533.53 83.552ZM533.29 88.952H543.658V90.584H533.29V88.952ZM531.946 100.112H544.114V101.744H531.946V100.112ZM537.226 89.816L538.474 90.344C537.466 93.248 535.618 96.752 533.746 98.528C533.578 98.048 533.17 97.304 532.882 96.872C534.562 95.336 536.41 92.36 537.226 89.816ZM539.002 91.184C539.866 91.928 542.938 95.096 543.634 95.888L542.554 97.28C541.714 96.056 539.122 93.032 538.114 91.976L539.002 91.184ZM525.73 80.864L527.266 81.44C526.402 83.216 525.274 85.376 524.386 86.72L523.186 86.192C524.026 84.8 525.13 82.448 525.73 80.864ZM528.274 83.6L529.762 84.272C528.178 86.936 525.97 90.344 524.242 92.408L523.162 91.832C524.866 89.696 527.026 86.12 528.274 83.6ZM521.89 85.832L522.85 84.68C524.122 85.856 525.586 87.488 526.21 88.568L525.202 89.888C524.602 88.736 523.162 87.032 521.89 85.832ZM527.362 89.024L528.634 88.544C529.546 90.128 530.434 92.24 530.674 93.584L529.33 94.16C529.066 92.816 528.25 90.656 527.362 89.024ZM521.698 91.472C523.69 91.376 526.546 91.232 529.426 91.064V92.6C526.714 92.768 523.978 92.936 521.89 93.08L521.698 91.472ZM527.818 94.856L529.09 94.496C529.666 95.864 530.17 97.688 530.29 98.864L528.946 99.272C528.826 98.072 528.37 96.248 527.818 94.856ZM523.138 94.568L524.626 94.832C524.314 97.088 523.738 99.416 522.994 100.952C522.706 100.736 522.01 100.424 521.65 100.28C522.418 98.816 522.874 96.656 523.138 94.568ZM525.562 92.168H527.122V102.92H525.562V92.168ZM562.762 81.8C563.338 82.592 564.226 84.056 564.73 85.112L563.482 85.712C562.954 84.536 562.282 83.312 561.562 82.304L562.762 81.8ZM565.282 80.816C565.882 81.608 566.794 83.072 567.346 84.104L566.122 84.704C565.546 83.552 564.85 82.376 564.106 81.392L565.282 80.816ZM547.906 84.632C551.242 85.04 554.386 85.088 556.858 84.872C558.826 84.68 560.626 84.296 561.994 83.84L562.258 85.568C560.938 85.952 559.186 86.312 557.266 86.504C554.818 86.72 551.458 86.72 548.026 86.408L547.906 84.632ZM547.45 89.576C551.53 89.984 555.634 89.936 558.418 89.6C560.698 89.336 562.666 88.856 563.938 88.472L564.226 90.272C562.906 90.632 561.082 90.968 559.09 91.232C556.114 91.592 551.674 91.664 547.546 91.352L547.45 89.576ZM555.634 84.32C555.442 83.624 555.226 82.88 554.986 82.184L557.026 81.944C557.266 83.936 557.986 86.36 558.586 88.064C559.234 89.936 560.314 92.24 561.562 94.088C561.802 94.472 562.114 94.808 562.45 95.12L561.442 96.584C560.098 96.248 557.866 96.008 556.21 95.84L556.378 94.376C557.65 94.52 559.21 94.688 559.978 94.76C558.634 92.696 557.626 90.392 556.93 88.448C556.33 86.816 555.97 85.52 555.634 84.32ZM550.93 94.736C550.354 95.552 549.922 96.392 549.922 97.448C549.922 99.416 551.698 100.424 555.466 100.424C557.698 100.424 559.45 100.256 561.178 99.92L561.106 101.816C559.426 102.104 557.53 102.248 555.49 102.248C550.786 102.248 548.146 100.856 548.122 97.76C548.098 96.392 548.53 95.384 549.058 94.328L550.93 94.736ZM580.114 93.92H589.282V95.624H580.114V93.92ZM574.738 94.952C576.466 99.92 580.33 100.88 585.346 100.88C586.114 100.88 590.194 100.88 591.226 100.856C590.962 101.288 590.674 102.104 590.578 102.608H585.25C579.418 102.608 575.41 101.384 573.25 95.552L574.738 94.952ZM579.298 89.696H581.146V101.624L579.298 101.024V89.696ZM573.922 83.744V88.472H586.714V83.744H573.922ZM572.146 82.04H588.586V90.2H572.146V82.04ZM573.538 92L575.434 92.216C574.858 96.152 573.514 100.568 570.442 102.944C570.13 102.584 569.53 101.984 569.146 101.72C572.002 99.536 573.178 95.456 573.538 92ZM606.706 81.992C606.658 82.28 606.586 83.216 606.586 83.504C606.514 85.064 606.562 89.696 606.586 91.616L604.762 90.68C604.762 89.624 604.738 84.848 604.666 83.528C604.618 82.88 604.546 82.208 604.498 81.992H606.706ZM593.938 85.352C597.202 85.304 603.202 85.088 606.898 85.088C609.826 85.088 612.802 85.088 613.93 85.112L613.906 86.888C612.562 86.816 610.402 86.768 606.874 86.768C602.746 86.768 597.61 86.936 593.986 87.2L593.938 85.352ZM606.538 92.312C606.538 95.528 605.05 97.136 602.866 97.136C600.85 97.136 598.906 95.72 598.906 93.104C598.906 90.728 600.874 88.952 603.154 88.952C605.938 88.952 607.354 91.016 607.354 93.776C607.354 97.04 605.77 100.64 600.202 102.296L598.594 100.736C602.962 99.704 605.506 97.568 605.506 93.608C605.506 91.448 604.45 90.536 603.154 90.536C601.882 90.536 600.706 91.52 600.706 93.08C600.706 94.592 601.834 95.456 603.154 95.456C604.642 95.456 605.602 94.208 605.218 91.64L606.538 92.312Z" fill="black" fill-opacity="0.8"/>
<path d="M403.306 104.6H521.026V105.8H403.306V104.6Z" fill="black" fill-opacity="0.8"/>
<rect x="719.976" width="298.988" height="147.2" rx="58.88" fill="#F7D7D4"/>
<path d="M802.582 47.744C803.182 48.608 804.214 50.216 804.766 51.368L803.398 51.992C802.798 50.72 802.03 49.4 801.238 48.32L802.582 47.744ZM805.462 46.544C806.11 47.384 807.166 48.968 807.718 50.096L806.374 50.768C805.75 49.496 804.958 48.224 804.166 47.168L805.462 46.544ZM794.158 63.2C794.158 61.88 794.158 51.272 794.158 49.256C794.158 48.56 794.086 47.504 793.966 46.76H796.318C796.246 47.48 796.15 48.536 796.15 49.256C796.15 53 796.174 62.072 796.174 63.2C796.174 63.968 796.222 65.264 796.318 66.056H793.99C794.11 65.288 794.158 64.112 794.158 63.2ZM795.718 53.048C798.91 53.96 803.734 55.808 806.398 57.128L805.558 59.144C802.822 57.68 798.334 55.976 795.718 55.16V53.048ZM819.766 48.032C819.646 47.432 819.502 46.904 819.334 46.4L821.47 46.04C821.518 46.472 821.614 47.168 821.71 47.696C821.854 48.752 824.494 61.928 824.83 63.512C824.998 64.184 825.19 65 825.43 65.696L823.222 66.104C823.102 65.288 823.03 64.544 822.862 63.848C822.622 62.336 820.054 49.28 819.766 48.032ZM812.998 51.512C813.598 51.464 814.246 51.416 815.014 51.344C817.174 51.104 825.454 49.784 827.734 49.328C828.43 49.208 829.054 49.064 829.462 48.944L829.846 50.96C829.486 50.984 828.766 51.104 828.118 51.2C825.646 51.584 817.462 52.88 815.35 53.24C814.702 53.36 814.126 53.48 813.43 53.648L812.998 51.512ZM812.926 58.424C813.502 58.4 814.414 58.304 815.038 58.208C817.606 57.872 826.534 56.408 829.414 55.88C830.326 55.712 831.022 55.544 831.526 55.4L831.934 57.416C831.43 57.464 830.662 57.608 829.774 57.752C826.582 58.232 817.918 59.648 815.494 60.08C814.558 60.248 813.886 60.392 813.358 60.536L812.926 58.424ZM851.59 53.6C851.518 53.816 851.446 54.128 851.446 54.344C851.23 56.144 850.366 61.904 850.078 63.584H848.062C848.326 62.288 849.214 56.408 849.286 54.872C847.798 54.872 842.326 54.872 841.678 54.872C840.982 54.872 840.334 54.896 839.734 54.944V52.928C840.31 53 841.054 53.048 841.654 53.048C842.566 53.048 847.606 53.048 848.95 53.048C849.334 53.048 849.934 53 850.126 52.88L851.59 53.6ZM837.478 62.816C838.054 62.888 838.75 62.936 839.47 62.936C840.766 62.936 851.302 62.936 852.574 62.936C853.102 62.936 853.966 62.888 854.47 62.84V64.784C854.014 64.76 853.15 64.76 852.622 64.76C851.278 64.76 840.67 64.76 839.47 64.76C838.75 64.76 838.198 64.784 837.478 64.808V62.816ZM876.886 47.528C876.646 47.984 876.31 48.8 876.118 49.304C875.206 51.68 873.766 54.8 871.798 57.296C869.494 60.224 866.374 63.392 861.838 65.744L860.206 64.256C864.67 62.12 867.742 59.264 870.214 56.12C872.182 53.576 873.382 50.912 874.198 48.56C874.366 48.08 874.582 47.288 874.702 46.784L876.886 47.528ZM864.214 50.36C866.59 51.872 869.926 54.272 871.75 55.736C874.15 57.704 876.526 59.792 878.422 61.856L876.91 63.512C874.918 61.208 872.83 59.312 870.43 57.296C868.702 55.856 865.582 53.48 862.942 51.872L864.214 50.36ZM886.462 47.432C888.142 48.56 891.238 51.056 892.558 52.376L891.07 53.912C889.846 52.664 886.87 50.072 885.07 48.896L886.462 47.432ZM884.398 63.512C888.574 62.888 891.694 61.424 893.974 60.008C897.694 57.68 900.598 54.128 901.99 51.152L903.142 53.216C901.51 56.192 898.726 59.456 895.102 61.736C892.678 63.248 889.654 64.736 885.646 65.48L884.398 63.512ZM912.622 62.888C912.622 61.544 912.622 50.936 912.622 48.944C912.622 48.248 912.574 47.192 912.454 46.424H914.806C914.71 47.168 914.638 48.2 914.638 48.944C914.638 52.664 914.662 61.76 914.662 62.888C914.662 63.656 914.71 64.952 914.806 65.744H912.478C912.598 64.976 912.622 63.776 912.622 62.888ZM914.206 52.736C917.374 53.648 922.222 55.496 924.886 56.792L924.046 58.832C921.31 57.368 916.822 55.664 914.206 54.848V52.736ZM938.71 46.136C938.566 46.784 938.494 47.288 938.398 47.816C938.086 50.504 937.006 57.896 937.006 60.488C937.006 62.816 938.326 64.232 941.062 64.232C944.71 64.232 947.038 62.648 947.038 60.152C947.038 58.544 946.174 56.768 944.398 55.28L946.51 54.824C948.166 56.648 948.982 58.328 948.982 60.368C948.982 63.944 945.79 66.128 941.038 66.128C937.798 66.128 935.158 64.688 935.158 60.776C935.158 58.208 936.286 51.032 936.55 47.72C936.622 46.88 936.622 46.448 936.574 46.016L938.71 46.136ZM931.03 49.328C933.046 49.976 935.926 50.288 938.062 50.288C939.886 50.288 941.542 50.192 942.958 49.976L942.91 51.8C941.374 51.944 939.958 52.016 938.014 52.016C935.902 52.016 933.022 51.656 930.91 51.08L931.03 49.328ZM930.43 55.304C932.758 56.12 935.566 56.336 937.774 56.336C939.43 56.336 941.086 56.288 942.766 56.048L942.742 57.872C941.134 58.04 939.646 58.088 938.038 58.088C935.422 58.088 932.518 57.8 930.334 57.128L930.43 55.304ZM782.806 86.696C782.278 87.008 781.678 87.344 780.958 87.704C779.35 88.544 776.014 90.128 773.662 91.664C771.43 93.128 770.086 94.712 770.086 96.512C770.086 98.504 772.006 99.752 775.798 99.752C778.39 99.752 781.606 99.416 783.478 98.936L783.454 101.096C781.654 101.408 778.87 101.672 775.87 101.672C771.358 101.672 768.094 100.328 768.094 96.728C768.094 94.136 769.846 92.096 772.678 90.224C775.126 88.592 778.486 86.984 780.046 86.096C780.742 85.688 781.27 85.376 781.774 84.968L782.806 86.696ZM770.662 82.328C771.766 85.4 773.254 88.4 774.358 90.344L772.726 91.328C771.502 89.36 770.062 86.12 768.766 83.144L770.662 82.328ZM794.95 82.064C794.446 83.84 793.99 87.08 793.846 88.76C794.83 86.288 797.326 83.288 800.374 83.288C803.542 83.288 805.846 86.504 805.846 91.544C805.846 98.192 801.646 101.144 795.718 102.224L794.566 100.496C799.798 99.704 803.854 97.592 803.854 91.568C803.854 87.776 802.582 85.04 800.062 85.04C797.062 85.04 794.278 89.408 793.99 92.552C793.87 93.464 793.87 94.304 794.038 95.504L792.166 95.648C792.046 94.736 791.926 93.392 791.926 91.832C791.926 89.552 792.382 86.024 792.67 84.056C792.766 83.336 792.814 82.664 792.862 81.992L794.95 82.064ZM821.686 82.016C821.59 82.304 821.494 82.736 821.422 83.072C821.014 85.088 820.606 88.88 820.606 92.168C820.606 95.288 821.278 98.168 822.022 100.424L820.27 100.952C819.574 98.816 818.926 95.408 818.926 92.36C818.926 89.072 819.406 85.184 819.622 83.12C819.67 82.688 819.694 82.256 819.694 81.944L821.686 82.016ZM817.822 84.968C822.046 84.968 826.222 84.632 829.534 83.888L829.558 85.664C826.102 86.264 821.374 86.624 817.798 86.624C816.766 86.624 814.894 86.528 813.91 86.48L813.862 84.68C814.702 84.824 816.79 84.968 817.822 84.968ZM827.83 87.8C827.686 88.112 827.47 88.76 827.326 89.144C825.91 93.584 823.51 96.92 820.99 98.864C819.454 100.04 817.534 100.928 815.83 100.928C814.246 100.928 812.998 99.968 812.998 97.928C812.998 94.64 816.046 91.256 819.598 89.888C821.206 89.264 823.15 88.904 824.71 88.904C829.246 88.904 832.102 91.544 832.102 94.904C832.102 98.336 829.822 101.336 824.254 102.224L823.222 100.616C827.542 100.136 830.23 97.904 830.23 94.808C830.23 92.48 828.262 90.44 824.686 90.44C822.67 90.44 820.894 91.016 819.67 91.568C816.958 92.768 814.798 95.408 814.798 97.616C814.798 98.6 815.278 99.08 816.166 99.08C817.366 99.08 818.926 98.408 820.462 97.064C822.598 95.192 824.566 92.6 825.67 88.712C825.766 88.352 825.886 87.704 825.91 87.32L827.83 87.8ZM841.414 82.088C844.006 82.664 848.59 83.216 850.894 83.336L850.63 85.112C848.23 84.896 844.03 84.368 841.102 83.84L841.414 82.088ZM851.374 88.952C850.918 89.264 850.318 89.768 850.03 90.008C849.118 90.848 846.43 93.368 845.518 94.304C845.782 94.28 846.214 94.28 846.478 94.352C847.39 94.448 847.942 95.072 848.278 96.056C848.518 96.752 848.854 97.976 849.094 98.744C849.382 99.656 849.934 100.064 851.182 100.064C852.742 100.064 854.566 99.848 855.718 99.56L855.574 101.576C854.566 101.768 852.358 101.936 851.086 101.936C849.142 101.936 847.966 101.48 847.438 99.896C847.198 99.176 846.862 97.76 846.622 97.088C846.358 96.248 845.83 95.792 845.158 95.792C844.51 95.792 843.934 96.128 843.382 96.68C842.494 97.52 839.878 100.28 838.51 102.008L836.686 100.736C836.998 100.496 837.43 100.112 837.886 99.656C838.87 98.696 845.398 92.144 847.75 89.792C845.854 89.888 841.822 90.248 840.358 90.368C839.566 90.416 838.942 90.512 838.438 90.584L838.27 88.496C838.822 88.544 839.518 88.544 840.286 88.544C841.678 88.496 847.246 88.136 849.07 87.896C849.478 87.848 849.982 87.728 850.222 87.632L851.374 88.952ZM871.822 82.28C871.774 82.544 871.702 83.48 871.702 83.792C871.654 85.328 871.702 89.96 871.726 91.88L869.902 90.944C869.902 89.888 869.878 85.136 869.806 83.792C869.758 83.144 869.686 82.472 869.638 82.28H871.822ZM859.078 85.616C862.342 85.568 868.342 85.352 872.038 85.352C874.966 85.352 877.918 85.352 879.07 85.376L879.046 87.152C877.678 87.08 875.518 87.032 872.014 87.032C867.886 87.032 862.726 87.2 859.126 87.464L859.078 85.616ZM871.678 92.576C871.678 95.792 870.19 97.4 867.982 97.4C865.966 97.4 864.046 95.984 864.046 93.368C864.046 90.992 865.99 89.216 868.27 89.216C871.078 89.216 872.494 91.28 872.494 94.064C872.494 97.304 870.91 100.904 865.318 102.56L863.71 101C868.102 99.992 870.646 97.832 870.646 93.872C870.646 91.712 869.59 90.8 868.27 90.8C867.022 90.8 865.846 91.784 865.846 93.344C865.846 94.856 866.974 95.744 868.27 95.744C869.782 95.744 870.742 94.472 870.358 91.928L871.678 92.576ZM875.134 81.776C875.686 82.592 876.454 83.792 876.934 84.68L875.566 85.28C875.062 84.32 874.39 83.168 873.79 82.352L875.134 81.776ZM878.038 81.152C878.59 81.968 879.334 83.12 879.838 84.032L878.494 84.656C877.966 83.648 877.318 82.544 876.694 81.728L878.038 81.152ZM890.95 81.8H892.63V102.896H890.95V81.8ZM897.55 81.344H899.182V99.656H897.55V81.344ZM901.726 82.88L903.358 83.408C902.614 85.136 901.726 87.224 901.006 88.544L899.758 88.064C900.43 86.696 901.318 84.416 901.726 82.88ZM893.518 83.552L894.838 83.096C895.63 84.56 896.35 86.504 896.59 87.8L895.15 88.304C894.91 87.008 894.238 85.04 893.518 83.552ZM893.278 88.952H903.646V90.584H893.278V88.952ZM891.934 100.112H904.102V101.744H891.934V100.112ZM897.214 89.816L898.462 90.344C897.454 93.248 895.606 96.752 893.734 98.528C893.566 98.048 893.158 97.304 892.87 96.872C894.55 95.336 896.398 92.36 897.214 89.816ZM898.99 91.184C899.854 91.928 902.926 95.096 903.622 95.888L902.542 97.28C901.702 96.056 899.11 93.032 898.102 91.976L898.99 91.184ZM885.718 80.864L887.254 81.44C886.39 83.216 885.262 85.376 884.374 86.72L883.174 86.192C884.014 84.8 885.118 82.448 885.718 80.864ZM888.262 83.6L889.75 84.272C888.166 86.936 885.958 90.344 884.23 92.408L883.15 91.832C884.854 89.696 887.014 86.12 888.262 83.6ZM881.878 85.832L882.838 84.68C884.11 85.856 885.574 87.488 886.198 88.568L885.19 89.888C884.59 88.736 883.15 87.032 881.878 85.832ZM887.35 89.024L888.622 88.544C889.534 90.128 890.422 92.24 890.662 93.584L889.318 94.16C889.054 92.816 888.238 90.656 887.35 89.024ZM881.686 91.472C883.678 91.376 886.534 91.232 889.414 91.064V92.6C886.702 92.768 883.966 92.936 881.878 93.08L881.686 91.472ZM887.806 94.856L889.078 94.496C889.654 95.864 890.158 97.688 890.278 98.864L888.934 99.272C888.814 98.072 888.358 96.248 887.806 94.856ZM883.126 94.568L884.614 94.832C884.302 97.088 883.726 99.416 882.982 100.952C882.694 100.736 881.998 100.424 881.638 100.28C882.406 98.816 882.862 96.656 883.126 94.568ZM885.55 92.168H887.11V102.92H885.55V92.168ZM922.75 81.8C923.326 82.592 924.214 84.056 924.718 85.112L923.47 85.712C922.942 84.536 922.27 83.312 921.55 82.304L922.75 81.8ZM925.27 80.816C925.87 81.608 926.782 83.072 927.334 84.104L926.11 84.704C925.534 83.552 924.838 82.376 924.094 81.392L925.27 80.816ZM907.894 84.632C911.23 85.04 914.374 85.088 916.846 84.872C918.814 84.68 920.614 84.296 921.982 83.84L922.246 85.568C920.926 85.952 919.174 86.312 917.254 86.504C914.806 86.72 911.446 86.72 908.014 86.408L907.894 84.632ZM907.438 89.576C911.518 89.984 915.622 89.936 918.406 89.6C920.686 89.336 922.654 88.856 923.926 88.472L924.214 90.272C922.894 90.632 921.07 90.968 919.078 91.232C916.102 91.592 911.662 91.664 907.534 91.352L907.438 89.576ZM915.622 84.32C915.43 83.624 915.214 82.88 914.974 82.184L917.014 81.944C917.254 83.936 917.974 86.36 918.574 88.064C919.222 89.936 920.302 92.24 921.55 94.088C921.79 94.472 922.102 94.808 922.438 95.12L921.43 96.584C920.086 96.248 917.854 96.008 916.198 95.84L916.366 94.376C917.638 94.52 919.198 94.688 919.966 94.76C918.622 92.696 917.614 90.392 916.918 88.448C916.318 86.816 915.958 85.52 915.622 84.32ZM910.918 94.736C910.342 95.552 909.91 96.392 909.91 97.448C909.91 99.416 911.686 100.424 915.454 100.424C917.686 100.424 919.438 100.256 921.166 99.92L921.094 101.816C919.414 102.104 917.518 102.248 915.478 102.248C910.774 102.248 908.134 100.856 908.11 97.76C908.086 96.392 908.518 95.384 909.046 94.328L910.918 94.736ZM940.102 93.92H949.27V95.624H940.102V93.92ZM934.726 94.952C936.454 99.92 940.318 100.88 945.334 100.88C946.102 100.88 950.182 100.88 951.214 100.856C950.95 101.288 950.662 102.104 950.566 102.608H945.238C939.406 102.608 935.398 101.384 933.238 95.552L934.726 94.952ZM939.286 89.696H941.134V101.624L939.286 101.024V89.696ZM933.91 83.744V88.472H946.702V83.744H933.91ZM932.134 82.04H948.574V90.2H932.134V82.04ZM933.526 92L935.422 92.216C934.846 96.152 933.502 100.568 930.43 102.944C930.118 102.584 929.518 101.984 929.134 101.72C931.99 99.536 933.166 95.456 933.526 92ZM966.694 81.992C966.646 82.28 966.574 83.216 966.574 83.504C966.502 85.064 966.55 89.696 966.574 91.616L964.75 90.68C964.75 89.624 964.726 84.848 964.654 83.528C964.606 82.88 964.534 82.208 964.486 81.992H966.694ZM953.926 85.352C957.19 85.304 963.19 85.088 966.886 85.088C969.814 85.088 972.79 85.088 973.918 85.112L973.894 86.888C972.55 86.816 970.39 86.768 966.862 86.768C962.734 86.768 957.598 86.936 953.974 87.2L953.926 85.352ZM966.526 92.312C966.526 95.528 965.038 97.136 962.854 97.136C960.838 97.136 958.894 95.72 958.894 93.104C958.894 90.728 960.862 88.952 963.142 88.952C965.926 88.952 967.342 91.016 967.342 93.776C967.342 97.04 965.758 100.64 960.19 102.296L958.582 100.736C962.95 99.704 965.494 97.568 965.494 93.608C965.494 91.448 964.438 90.536 963.142 90.536C961.87 90.536 960.694 91.52 960.694 93.08C960.694 94.592 961.822 95.456 963.142 95.456C964.63 95.456 965.59 94.208 965.206 91.64L966.526 92.312Z" fill="black" fill-opacity="0.8"/>
<path d="M763.294 104.6H881.014V105.8H763.294V104.6Z" fill="black" fill-opacity="0.8"/>
<rect x="1079.96" width="298.988" height="147.2" rx="58.88" fill="#F7D7D4"/>
<path d="M1107.25 47.288H1122.54V48.92H1107.25V47.288ZM1107.56 52.856H1122.35V66.392H1120.62V54.464H1109.24V66.536H1107.56V52.856ZM1111.76 47.528H1113.47V54.008H1111.76V47.528ZM1116.23 47.528H1117.95V54.008H1116.23V47.528ZM1108.33 63.368H1121.84V64.952H1108.33V63.368ZM1111.91 53.96H1113.47V64.568H1111.91V53.96ZM1116.23 53.96H1117.79V64.568H1116.23V53.96ZM1105.81 44.912L1107.44 45.44C1105.95 49.4 1103.65 53.384 1101.18 56.048C1101.01 55.64 1100.51 54.728 1100.17 54.296C1102.43 52.016 1104.54 48.488 1105.81 44.912ZM1103.43 51.152L1105.11 49.472L1105.14 49.496V66.92H1103.43V51.152ZM1131.71 47.312H1146.15V48.896H1131.71V47.312ZM1132.21 64.112H1146.3V65.72H1132.21V64.112ZM1138.5 44.864L1140.3 44.96C1140.13 47.168 1139.82 49.976 1139.53 51.68H1137.83C1138.09 49.928 1138.38 47.024 1138.5 44.864ZM1136.94 55.568V57.56H1143.08V55.568H1136.94ZM1136.94 58.88V60.872H1143.08V58.88H1136.94ZM1136.94 52.304V54.272H1143.08V52.304H1136.94ZM1135.23 50.936H1144.81V62.264H1135.23V50.936ZM1131.42 52.136H1133.12V66.896H1131.42V52.136ZM1129.62 44.936L1131.32 45.464C1129.74 49.544 1127.27 53.6 1124.67 56.288C1124.48 55.88 1123.98 54.92 1123.64 54.512C1126.02 52.184 1128.27 48.584 1129.62 44.936ZM1127.12 51.128L1128.8 49.424L1128.85 49.448V66.896H1127.12V51.128ZM1160.34 48.632C1160.03 51.128 1159.55 53.936 1158.8 56.504C1157.34 61.424 1155.42 63.968 1153.21 63.968C1151.05 63.968 1148.91 61.52 1148.91 57.536C1148.91 52.328 1153.55 47.792 1159.43 47.792C1165.04 47.792 1168.62 51.752 1168.62 56.624C1168.62 61.64 1165.31 65 1159.59 65.744L1158.49 63.968C1159.26 63.896 1159.98 63.8 1160.55 63.68C1163.63 62.984 1166.65 60.68 1166.65 56.528C1166.65 52.688 1163.99 49.52 1159.38 49.52C1154.1 49.52 1150.81 53.864 1150.81 57.392C1150.81 60.416 1152.18 61.76 1153.26 61.76C1154.39 61.76 1155.68 60.128 1156.91 56.072C1157.6 53.792 1158.11 51.08 1158.35 48.584L1160.34 48.632ZM1190.84 45.656L1192.23 47.024C1189.04 48.032 1184.24 48.776 1180.11 49.232C1180.04 48.824 1179.8 48.176 1179.61 47.768C1183.59 47.336 1188.25 46.52 1190.84 45.656ZM1179.11 47.288L1180.86 47.864V61.952H1179.11V47.288ZM1177.5 61.64C1179.78 61.28 1183.14 60.704 1186.43 60.08L1186.52 61.712C1183.47 62.288 1180.28 62.888 1177.88 63.32L1177.5 61.64ZM1180.11 53.264H1193.39V54.92H1180.11V53.264ZM1185.66 47.792H1187.48C1187.51 56.864 1189.52 64.256 1191.59 64.232C1192.07 64.232 1192.31 63.272 1192.4 60.92C1192.79 61.304 1193.41 61.664 1193.84 61.832C1193.58 65.096 1192.95 66.008 1191.42 66.008C1187.79 66.008 1185.85 57.44 1185.66 47.792ZM1178.22 64.688H1188.44V66.296H1178.22V64.688ZM1176.71 44.936L1178.41 45.464C1176.83 49.544 1174.35 53.6 1171.76 56.288C1171.57 55.88 1171.07 54.92 1170.73 54.512C1173.11 52.184 1175.36 48.584 1176.71 44.936ZM1174.21 51.128L1175.89 49.424L1175.94 49.448V66.896H1174.21V51.128ZM1199.27 48.272C1199.15 48.824 1199.07 49.976 1199.05 50.6C1199.03 52.088 1199.05 54.296 1199.22 56.264C1199.63 60.272 1200.78 62.936 1202.51 62.936C1203.73 62.936 1204.86 60.464 1205.48 58.064L1206.99 59.768C1205.53 63.824 1204.09 65.216 1202.46 65.216C1200.18 65.216 1198.02 62.96 1197.35 56.744C1197.13 54.68 1197.08 51.752 1197.08 50.36C1197.08 49.808 1197.08 48.776 1196.94 48.224L1199.27 48.272ZM1211.75 48.92C1213.91 51.704 1215.63 56.816 1215.99 60.872L1214.05 61.64C1213.64 57.32 1212.18 52.376 1209.9 49.568L1211.75 48.92ZM1233.2 47.744C1233.8 48.608 1234.83 50.216 1235.39 51.368L1234.02 51.992C1233.42 50.72 1232.65 49.4 1231.86 48.32L1233.2 47.744ZM1236.08 46.544C1236.73 47.384 1237.79 48.968 1238.34 50.096L1236.99 50.768C1236.37 49.496 1235.58 48.224 1234.79 47.168L1236.08 46.544ZM1224.78 63.2C1224.78 61.88 1224.78 51.272 1224.78 49.256C1224.78 48.56 1224.71 47.504 1224.59 46.76H1226.94C1226.87 47.48 1226.77 48.536 1226.77 49.256C1226.77 53 1226.79 62.072 1226.79 63.2C1226.79 63.968 1226.84 65.264 1226.94 66.056H1224.61C1224.73 65.288 1224.78 64.112 1224.78 63.2ZM1226.34 53.048C1229.53 53.96 1234.35 55.808 1237.02 57.128L1236.18 59.144C1233.44 57.68 1228.95 55.976 1226.34 55.16V53.048ZM1250.39 48.032C1250.27 47.432 1250.12 46.904 1249.95 46.4L1252.09 46.04C1252.14 46.472 1252.23 47.168 1252.33 47.696C1252.47 48.752 1255.11 61.928 1255.45 63.512C1255.62 64.184 1255.81 65 1256.05 65.696L1253.84 66.104C1253.72 65.288 1253.65 64.544 1253.48 63.848C1253.24 62.336 1250.67 49.28 1250.39 48.032ZM1243.62 51.512C1244.22 51.464 1244.87 51.416 1245.63 51.344C1247.79 51.104 1256.07 49.784 1258.35 49.328C1259.05 49.208 1259.67 49.064 1260.08 48.944L1260.47 50.96C1260.11 50.984 1259.39 51.104 1258.74 51.2C1256.27 51.584 1248.08 52.88 1245.97 53.24C1245.32 53.36 1244.75 53.48 1244.05 53.648L1243.62 51.512ZM1243.55 58.424C1244.12 58.4 1245.03 58.304 1245.66 58.208C1248.23 57.872 1257.15 56.408 1260.03 55.88C1260.95 55.712 1261.64 55.544 1262.15 55.4L1262.55 57.416C1262.05 57.464 1261.28 57.608 1260.39 57.752C1257.2 58.232 1248.54 59.648 1246.11 60.08C1245.18 60.248 1244.51 60.392 1243.98 60.536L1243.55 58.424ZM1282.21 53.6C1282.14 53.816 1282.07 54.128 1282.07 54.344C1281.85 56.144 1280.99 61.904 1280.7 63.584H1278.68C1278.95 62.288 1279.83 56.408 1279.91 54.872C1278.42 54.872 1272.95 54.872 1272.3 54.872C1271.6 54.872 1270.95 54.896 1270.35 54.944V52.928C1270.93 53 1271.67 53.048 1272.27 53.048C1273.19 53.048 1278.23 53.048 1279.57 53.048C1279.95 53.048 1280.55 53 1280.75 52.88L1282.21 53.6ZM1268.1 62.816C1268.67 62.888 1269.37 62.936 1270.09 62.936C1271.39 62.936 1281.92 62.936 1283.19 62.936C1283.72 62.936 1284.59 62.888 1285.09 62.84V64.784C1284.63 64.76 1283.77 64.76 1283.24 64.76C1281.9 64.76 1271.29 64.76 1270.09 64.76C1269.37 64.76 1268.82 64.784 1268.1 64.808V62.816ZM1307.51 47.528C1307.27 47.984 1306.93 48.8 1306.74 49.304C1305.83 51.68 1304.39 54.8 1302.42 57.296C1300.11 60.224 1296.99 63.392 1292.46 65.744L1290.83 64.256C1295.29 62.12 1298.36 59.264 1300.83 56.12C1302.8 53.576 1304 50.912 1304.82 48.56C1304.99 48.08 1305.2 47.288 1305.32 46.784L1307.51 47.528ZM1294.83 50.36C1297.21 51.872 1300.55 54.272 1302.37 55.736C1304.77 57.704 1307.15 59.792 1309.04 61.856L1307.53 63.512C1305.54 61.208 1303.45 59.312 1301.05 57.296C1299.32 55.856 1296.2 53.48 1293.56 51.872L1294.83 50.36ZM1317.08 47.432C1318.76 48.56 1321.86 51.056 1323.18 52.376L1321.69 53.912C1320.47 52.664 1317.49 50.072 1315.69 48.896L1317.08 47.432ZM1315.02 63.512C1319.19 62.888 1322.31 61.424 1324.59 60.008C1328.31 57.68 1331.22 54.128 1332.61 51.152L1333.76 53.216C1332.13 56.192 1329.35 59.456 1325.72 61.736C1323.3 63.248 1320.27 64.736 1316.27 65.48L1315.02 63.512ZM1343.24 62.888C1343.24 61.544 1343.24 50.936 1343.24 48.944C1343.24 48.248 1343.19 47.192 1343.07 46.424H1345.43C1345.33 47.168 1345.26 48.2 1345.26 48.944C1345.26 52.664 1345.28 61.76 1345.28 62.888C1345.28 63.656 1345.33 64.952 1345.43 65.744H1343.1C1343.22 64.976 1343.24 63.776 1343.24 62.888ZM1344.83 52.736C1347.99 53.648 1352.84 55.496 1355.51 56.792L1354.67 58.832C1351.93 57.368 1347.44 55.664 1344.83 54.848V52.736ZM1118.4 95.216H1120.22V99.968C1120.22 100.664 1120.46 100.76 1121.81 100.76C1122.43 100.76 1125.57 100.76 1126.41 100.76C1127.59 100.76 1127.78 100.376 1127.9 97.664C1128.31 97.952 1129.05 98.24 1129.56 98.36C1129.32 101.624 1128.77 102.44 1126.53 102.44C1125.98 102.44 1122.21 102.44 1121.69 102.44C1119.09 102.44 1118.4 101.912 1118.4 99.968V95.216ZM1120.63 94.304L1121.81 93.2C1123.61 94.088 1125.81 95.528 1126.89 96.608L1125.62 97.832C1124.59 96.776 1122.43 95.264 1120.63 94.304ZM1129.29 95.48L1130.9 94.832C1132.29 96.632 1133.78 99.08 1134.31 100.736L1132.58 101.504C1132.05 99.872 1130.69 97.352 1129.29 95.48ZM1115.3 95.096L1116.89 95.648C1116.33 97.64 1115.47 100.136 1114.27 101.696L1112.66 100.832C1113.86 99.344 1114.77 96.968 1115.3 95.096ZM1116.69 88.064V91.16H1130.04V88.064H1116.69ZM1116.69 83.504V86.552H1130.04V83.504H1116.69ZM1114.99 81.92H1131.81V92.744H1114.99V81.92ZM1122.55 82.592H1124.3V92.048H1122.55V82.592ZM1146.69 82.376H1155.81V83.672H1146.69V82.376ZM1139.13 84.944H1156.1V86.312H1139.13V84.944ZM1145.88 80.864H1147.68V85.76H1145.88V80.864ZM1141.1 87.776L1153.56 87.176L1153.63 88.184L1141.15 88.784L1141.1 87.776ZM1145.88 85.952H1147.58V88.736C1147.58 89.336 1147.82 89.432 1149.29 89.432C1150.01 89.432 1153.89 89.432 1154.83 89.432C1155.81 89.432 1156.03 89.288 1156.1 88.208C1156.49 88.424 1157.04 88.544 1157.49 88.616C1157.33 90.152 1156.8 90.536 1155.05 90.536C1154.42 90.536 1149.79 90.536 1149.21 90.536C1146.62 90.536 1145.88 90.248 1145.88 88.736V85.952ZM1138.01 84.944H1139.76V91.136C1139.76 94.568 1139.45 99.536 1137.5 102.896C1137.19 102.608 1136.4 102.128 1135.97 101.96C1137.86 98.792 1138.01 94.304 1138.01 91.112V84.944ZM1155.55 84.944H1155.86L1156.17 84.872L1157.47 85.232C1157.04 86.384 1156.49 87.656 1155.98 88.472L1154.45 87.968C1154.85 87.224 1155.29 86.12 1155.55 85.208V84.944ZM1147.46 91.928H1149.09V96.488H1147.46V91.928ZM1143.19 94.76V96.008H1153.51V94.76H1143.19ZM1143.19 92.552V93.776H1153.51V92.552H1143.19ZM1141.53 91.544H1155.21V97.04H1141.53V91.544ZM1143.77 98.096H1145.42V100.544C1145.42 101.048 1145.59 101.144 1146.69 101.144C1147.2 101.144 1149.86 101.144 1150.53 101.144C1151.33 101.144 1151.47 100.976 1151.57 99.488C1151.9 99.728 1152.55 99.968 1153.03 100.04C1152.84 102.056 1152.36 102.56 1150.7 102.56C1150.25 102.56 1147.03 102.56 1146.57 102.56C1144.32 102.56 1143.77 102.152 1143.77 100.544V98.096ZM1141.29 98.216L1142.71 98.648C1142.28 100.256 1141.51 101.648 1139.83 102.464L1138.63 101.456C1140.09 100.832 1140.93 99.608 1141.29 98.216ZM1145.9 97.736L1146.93 96.8C1148.11 97.304 1149.45 98.168 1150.13 98.864L1149.05 99.896C1148.4 99.176 1147.08 98.264 1145.9 97.736ZM1152.96 98.624L1154.28 97.904C1155.72 98.936 1157.3 100.448 1158.02 101.576L1156.58 102.368C1155.91 101.264 1154.35 99.68 1152.96 98.624ZM1172.11 84.632C1171.8 87.128 1171.32 89.936 1170.57 92.504C1169.11 97.424 1167.19 99.968 1164.98 99.968C1162.82 99.968 1160.69 97.52 1160.69 93.536C1160.69 88.328 1165.32 83.792 1171.2 83.792C1176.81 83.792 1180.39 87.752 1180.39 92.624C1180.39 97.64 1177.08 101 1171.37 101.744L1170.26 99.968C1171.03 99.896 1171.75 99.8 1172.33 99.68C1175.4 98.984 1178.42 96.68 1178.42 92.528C1178.42 88.688 1175.76 85.52 1171.15 85.52C1165.87 85.52 1162.58 89.864 1162.58 93.392C1162.58 96.416 1163.95 97.76 1165.03 97.76C1166.16 97.76 1167.45 96.128 1168.68 92.072C1169.37 89.792 1169.88 87.08 1170.12 84.584L1172.11 84.632ZM1189.63 85.496L1203.84 84.176L1204.01 85.712L1189.82 87.08L1189.63 85.496ZM1190.42 89.096L1203.55 87.8L1203.72 89.336L1190.61 90.68L1190.42 89.096ZM1189.7 92.864L1204.94 91.4L1205.13 92.96L1189.87 94.472L1189.7 92.864ZM1194.45 80.912H1196.3C1196.28 92.024 1198.97 101.168 1202.64 101.168C1203.41 101.168 1203.69 100.28 1203.86 97.568C1204.25 97.976 1204.89 98.336 1205.35 98.528C1204.97 101.96 1204.32 102.944 1202.52 102.944C1197.14 102.944 1194.57 92.48 1194.45 80.912ZM1198.25 82.016L1199.23 80.864C1200.45 81.32 1202.01 82.112 1202.78 82.712L1201.77 84.032C1201.03 83.384 1199.47 82.544 1198.25 82.016ZM1184.35 82.376L1185.36 81.08C1186.82 81.728 1188.65 82.832 1189.53 83.672L1188.48 85.136C1187.61 84.248 1185.84 83.096 1184.35 82.376ZM1183.03 88.856L1184.04 87.512C1185.53 88.112 1187.4 89.168 1188.31 89.96L1187.28 91.448C1186.39 90.608 1184.57 89.528 1183.03 88.856ZM1183.63 101.528C1184.76 99.632 1186.34 96.44 1187.49 93.68L1188.93 94.736C1187.88 97.304 1186.46 100.328 1185.24 102.584L1183.63 101.528ZM1201.94 93.728L1203.53 94.448C1201.01 98.552 1196.35 101.384 1190.71 102.872C1190.47 102.392 1190.04 101.744 1189.63 101.312C1195.1 100.04 1199.64 97.448 1201.94 93.728ZM1211.04 84.272C1210.92 84.824 1210.85 85.976 1210.82 86.6C1210.8 88.088 1210.82 90.296 1210.99 92.264C1211.4 96.272 1212.55 98.936 1214.28 98.936C1215.5 98.936 1216.63 96.464 1217.25 94.064L1218.77 95.768C1217.3 99.824 1215.86 101.216 1214.23 101.216C1211.95 101.216 1209.79 98.96 1209.12 92.744C1208.9 90.68 1208.85 87.752 1208.85 86.36C1208.85 85.808 1208.85 84.776 1208.71 84.224L1211.04 84.272ZM1223.52 84.92C1225.68 87.704 1227.41 92.816 1227.77 96.872L1225.82 97.64C1225.41 93.32 1223.95 88.376 1221.67 85.568L1223.52 84.92ZM1243.63 81.224H1245.45V101.288H1243.63V81.224ZM1236.77 88.472H1252.39V90.2H1236.77V88.472ZM1237.37 100.184H1251.98V101.936H1237.37V100.184ZM1233.67 87.392L1235.42 85.616L1235.45 85.64V102.872H1233.67V87.392ZM1236.36 80.912L1238.09 81.44C1236.36 85.64 1233.67 89.768 1230.86 92.456C1230.67 92.072 1230.12 91.136 1229.78 90.728C1232.37 88.352 1234.87 84.68 1236.36 80.912ZM1262.25 83.888H1275.36V85.376H1262.25V83.888ZM1262.97 87.056H1274.81V88.496H1262.97V87.056ZM1261.77 90.32H1275.69V91.856H1261.77V90.32ZM1271.9 80.816L1273.68 81.32C1273.08 82.4 1272.43 83.528 1271.9 84.272L1270.49 83.84C1270.99 83 1271.59 81.68 1271.9 80.816ZM1264.05 81.416L1265.49 80.936C1266.07 81.8 1266.72 82.952 1266.96 83.72L1265.42 84.296C1265.21 83.528 1264.63 82.304 1264.05 81.416ZM1274.04 92.744L1275.41 93.704C1274.4 94.88 1273.1 96.152 1272.12 96.992L1270.94 96.104C1271.9 95.216 1273.27 93.776 1274.04 92.744ZM1262.54 93.632L1263.79 92.84C1264.73 93.776 1265.81 95.096 1266.29 95.96L1264.99 96.872C1264.51 95.984 1263.48 94.616 1262.54 93.632ZM1260.84 100.064C1262.35 99.32 1264.61 98.096 1266.81 96.896L1267.29 98.36C1265.4 99.488 1263.31 100.688 1261.68 101.6L1260.84 100.064ZM1267.87 84.896H1269.6V100.904C1269.6 101.888 1269.41 102.368 1268.78 102.656C1268.16 102.944 1267.05 102.968 1265.57 102.968C1265.52 102.512 1265.28 101.768 1265.06 101.312C1266.12 101.336 1267.15 101.336 1267.46 101.312C1267.77 101.312 1267.87 101.216 1267.87 100.904V84.896ZM1269.5 92.552C1270.63 96.128 1272.93 99.152 1276.15 100.472C1275.77 100.808 1275.24 101.432 1274.97 101.912C1271.76 100.28 1269.45 96.896 1268.25 92.864L1269.5 92.552ZM1254 86.048H1261.8V87.752H1254V86.048ZM1257.38 80.84H1259.04V102.896H1257.38V80.84ZM1257.33 87.056L1258.44 87.44C1257.69 91.232 1256.11 95.96 1254.43 98.36C1254.24 97.904 1253.81 97.208 1253.52 96.824C1255.1 94.664 1256.66 90.488 1257.33 87.056ZM1258.92 89.096C1259.45 89.768 1261.49 92.84 1261.94 93.56L1260.93 94.904C1260.41 93.68 1258.7 90.8 1258.1 89.864L1258.92 89.096ZM1289.61 85.784C1288.7 84.848 1287.12 83.384 1286.11 82.616L1287.48 81.632C1288.27 82.256 1290.09 83.768 1290.98 84.704L1289.61 85.784ZM1281.98 83.696C1282.17 84.104 1282.58 84.872 1282.82 85.328C1283.76 87.008 1284.91 89.432 1285.89 91.616C1287.19 94.616 1288.73 99.056 1289.54 101.72L1287.48 102.272C1286.73 99.416 1285.58 95.576 1284.21 92.432C1283.09 89.912 1282.01 87.584 1281.19 86.216C1280.9 85.736 1280.42 84.968 1280.04 84.488L1281.98 83.696ZM1277.73 90.704C1278.43 90.536 1279.27 90.248 1279.7 90.056C1283.04 88.784 1288.87 85.52 1292.85 85.52C1296.19 85.52 1298.21 87.392 1298.21 90.008C1298.21 92.792 1296.45 94.88 1292.71 94.88C1291.37 94.88 1290 94.544 1289.11 94.208L1289.16 92.312C1290.09 92.744 1291.29 93.104 1292.57 93.104C1295.21 93.104 1296.29 91.64 1296.29 89.936C1296.29 88.52 1295.16 87.2 1292.81 87.2C1288.8 87.2 1281.69 91.352 1278.67 92.672L1277.73 90.704ZM1311.77 81.608H1313.49V84.536C1313.49 86.624 1312.97 89.168 1310.4 90.872C1310.16 90.536 1309.46 89.912 1309.1 89.672C1311.41 88.184 1311.77 86.192 1311.77 84.512V81.608ZM1317.62 81.608H1319.33V87.512C1319.33 88.04 1319.4 88.136 1319.78 88.136C1319.97 88.136 1320.77 88.136 1321.01 88.136C1321.41 88.136 1321.51 87.824 1321.56 85.52C1321.89 85.784 1322.61 86.048 1323.07 86.168C1322.93 88.976 1322.49 89.72 1321.2 89.72C1320.89 89.72 1319.83 89.72 1319.52 89.72C1318.05 89.72 1317.62 89.24 1317.62 87.536V81.608ZM1313.06 92.936C1314.72 97.064 1318.29 100.136 1323.12 101.36C1322.71 101.744 1322.18 102.464 1321.94 102.92C1316.95 101.456 1313.37 98.144 1311.45 93.44L1313.06 92.936ZM1319.78 91.256H1320.14L1320.45 91.184L1321.61 91.64C1319.9 97.928 1315.39 101.384 1310.13 102.92C1309.94 102.488 1309.49 101.72 1309.15 101.336C1314 100.112 1318.34 96.872 1319.78 91.544V91.256ZM1310.21 91.256H1320.48V92.888H1310.21V91.256ZM1312.49 81.608H1318.49V83.216H1312.49V81.608ZM1301.9 88.112H1309.05V89.552H1301.9V88.112ZM1302.02 81.704H1309.01V83.144H1302.02V81.704ZM1301.9 91.328H1309.05V92.768H1301.9V91.328ZM1300.77 84.848H1309.89V86.336H1300.77V84.848ZM1302.77 94.568H1309.05V101.576H1302.77V100.064H1307.47V96.056H1302.77V94.568ZM1301.88 94.568H1303.44V102.68H1301.88V94.568ZM1333.82 89.072H1346.71V90.848H1333.82V89.072ZM1339.46 80.912H1341.29V102.92H1339.46V80.912ZM1325.45 88.112H1332.93V89.552H1325.45V88.112ZM1325.59 81.704H1332.96V83.144H1325.59V81.704ZM1325.45 91.328H1332.93V92.768H1325.45V91.328ZM1324.32 84.848H1333.87V86.336H1324.32V84.848ZM1326.29 94.568H1332.86V101.576H1326.29V100.064H1331.25V96.056H1326.29V94.568ZM1325.42 94.568H1327.03V102.68H1325.42V94.568Z" fill="black" fill-opacity="0.8"/>
<path d="M302.988 72.1C302.16 72.1 301.488 72.7715 301.488 73.6C301.488 74.4284 302.16 75.1 302.988 75.1V72.1ZM340.988 80.2602C340.988 81.0887 342.003 81.6744 342.72 81.2602L354.256 74.6C354.973 74.1858 354.973 73.0142 354.256 72.6L342.72 65.9397C342.003 65.5255 340.988 66.1113 340.988 66.9397V80.2602ZM302.988 75.1H342.488V72.1H302.988V75.1Z" fill="#B3B3B3"/>
<path d="M662.976 72.1C662.148 72.1 661.476 72.7715 661.476 73.6C661.476 74.4284 662.148 75.1 662.976 75.1V72.1ZM700.976 80.2602C700.976 81.0887 701.991 81.6744 702.708 81.2602L714.244 74.6C714.962 74.1858 714.962 73.0142 714.244 72.6L702.708 65.9397C701.991 65.5255 700.976 66.1113 700.976 66.9397V80.2602ZM662.976 75.1H702.476V72.1H662.976V75.1Z" fill="#B3B3B3"/>
<path d="M1022.96 72.1C1022.14 72.1 1021.46 72.7715 1021.46 73.6C1021.46 74.4284 1022.14 75.1 1022.96 75.1V72.1ZM1060.96 80.2602C1060.96 81.0887 1061.98 81.6744 1062.7 81.2602L1074.23 74.6C1074.95 74.1858 1074.95 73.0142 1074.23 72.6L1062.7 65.9397C1061.98 65.5255 1060.96 66.1113 1060.96 66.9397V80.2602ZM1022.96 75.1H1062.46V72.1H1022.96V75.1Z" fill="#B3B3B3"/>
<path d="M1230.96 151.2C1230.96 150.372 1230.29 149.7 1229.46 149.7C1228.63 149.7 1227.96 150.372 1227.96 151.2H1230.96ZM156.154 166.2C156.983 166.2 157.569 165.185 157.154 164.468L150.494 152.932C150.08 152.215 148.908 152.215 148.494 152.932L141.834 164.468C141.42 165.185 142.005 166.2 142.834 166.2H156.154ZM1227.96 151.2V187H1230.96V151.2H1227.96ZM1205.46 209.5H173.494V212.5H1205.46V209.5ZM150.994 187V164.7H147.994V187H150.994ZM173.494 209.5C161.068 209.5 150.994 199.426 150.994 187H147.994C147.994 201.083 159.411 212.5 173.494 212.5V209.5ZM1227.96 187C1227.96 199.426 1217.88 209.5 1205.46 209.5V212.5C1219.54 212.5 1230.96 201.083 1230.96 187H1227.96Z" fill="#B3B3B3"/>
</svg>
