<svg width="599" height="300" viewBox="0 0 599 300" fill="none" xmlns="http://www.w3.org/2000/svg">
<path d="M486 1H580.938C582.862 1 584.701 1.79223 586.024 3.19046L595.086 12.774C596.315 14.0737 597 15.7947 597 17.5835V82C597 85.866 593.866 89 590 89H486C482.134 89 479 85.866 479 82V8C479 4.13401 482.134 1 486 1Z" fill="white" stroke="black" stroke-width="2"/>
<path d="M583.532 0.449951V6.84995C583.532 11.2682 587.113 14.85 591.532 14.85H597.149" stroke="black" stroke-width="2"/>
<path d="M507.005 34.5648H501.354V17.1103H507.184C508.894 17.1103 510.363 17.4597 511.59 18.1586C512.818 18.8518 513.758 19.8489 514.411 21.15C515.07 22.4455 515.4 23.9995 515.4 25.812C515.4 27.6302 515.068 29.1927 514.403 30.4995C513.744 31.8063 512.789 32.812 511.539 33.5165C510.289 34.2154 508.778 34.5648 507.005 34.5648ZM503.988 32.2637H506.86C508.19 32.2637 509.295 32.0137 510.175 31.5137C511.056 31.008 511.715 30.2779 512.153 29.3233C512.59 28.3631 512.809 27.1927 512.809 25.812C512.809 24.4427 512.59 23.2807 512.153 22.3262C511.721 21.3716 511.076 20.6472 510.218 20.1529C509.36 19.6586 508.295 19.4114 507.022 19.4114H503.988V32.2637ZM523.656 34.829C522.367 34.829 521.256 34.5535 520.324 34.0023C519.398 33.4455 518.682 32.6643 518.176 31.6586C517.676 30.6472 517.426 29.4625 517.426 28.1046C517.426 26.7637 517.676 25.5819 518.176 24.5591C518.682 23.5364 519.386 22.7381 520.29 22.1643C521.199 21.5904 522.261 21.3035 523.477 21.3035C524.216 21.3035 524.932 21.4256 525.625 21.6699C526.318 21.9143 526.94 22.2978 527.492 22.8205C528.043 23.3432 528.477 24.0222 528.795 24.8574C529.114 25.687 529.273 26.6955 529.273 27.883V28.7864H518.867V26.8773H526.776C526.776 26.2069 526.639 25.6131 526.367 25.0961C526.094 24.5733 525.71 24.1614 525.216 23.8603C524.727 23.5591 524.153 23.4086 523.494 23.4086C522.778 23.4086 522.153 23.5847 521.619 23.937C521.091 24.2836 520.682 24.7381 520.392 25.3006C520.108 25.8574 519.966 26.4625 519.966 27.116V28.6074C519.966 29.4824 520.119 30.2268 520.426 30.8404C520.739 31.454 521.173 31.9228 521.73 32.2466C522.287 32.5648 522.938 32.7239 523.682 32.7239C524.165 32.7239 524.605 32.6557 525.003 32.5194C525.401 32.3773 525.744 32.1671 526.034 31.8887C526.324 31.6103 526.545 31.2665 526.699 30.8574L529.111 31.2921C528.918 32.0023 528.571 32.6245 528.071 33.1586C527.577 33.687 526.955 34.0989 526.205 34.3944C525.46 34.6841 524.611 34.829 523.656 34.829ZM541.454 24.6699L539.144 25.079C539.048 24.7836 538.894 24.5023 538.684 24.2353C538.479 23.9682 538.201 23.7495 537.849 23.579C537.496 23.4086 537.056 23.3233 536.528 23.3233C535.806 23.3233 535.204 23.4853 534.721 23.8091C534.238 24.1273 533.996 24.5393 533.996 25.0449C533.996 25.4824 534.158 25.8347 534.482 26.1018C534.806 26.3688 535.329 26.5875 536.05 26.758L538.13 27.2353C539.335 27.5137 540.232 27.9427 540.823 28.5222C541.414 29.1018 541.71 29.8546 541.71 30.7807C541.71 31.5648 541.482 32.2637 541.028 32.8773C540.579 33.4853 539.951 33.9625 539.144 34.3091C538.343 34.6557 537.414 34.829 536.357 34.829C534.891 34.829 533.695 34.5165 532.769 33.8915C531.843 33.2608 531.275 32.366 531.065 31.2069L533.528 30.8319C533.681 31.4739 533.996 31.9597 534.474 32.2893C534.951 32.6131 535.573 32.775 536.34 32.775C537.175 32.775 537.843 32.6018 538.343 32.2552C538.843 31.9029 539.093 31.4739 539.093 30.9682C539.093 30.5591 538.94 30.2154 538.633 29.937C538.332 29.6586 537.869 29.4483 537.244 29.3063L535.028 28.8205C533.806 28.5421 532.903 28.0989 532.317 27.491C531.738 26.883 531.448 26.1131 531.448 25.1813C531.448 24.4086 531.664 23.7324 532.096 23.1529C532.528 22.5733 533.124 22.1216 533.886 21.7978C534.647 21.4682 535.519 21.3035 536.502 21.3035C537.917 21.3035 539.031 21.6103 539.843 22.2239C540.656 22.8319 541.192 23.6472 541.454 24.6699ZM544.055 34.5648V21.4739H546.604V34.5648H544.055ZM545.342 19.454C544.899 19.454 544.518 19.3063 544.2 19.0108C543.888 18.7097 543.732 18.3518 543.732 17.937C543.732 17.5165 543.888 17.1586 544.2 16.8631C544.518 16.562 544.899 16.4114 545.342 16.4114C545.785 16.4114 546.163 16.562 546.476 16.8631C546.794 17.1586 546.953 17.5165 546.953 17.937C546.953 18.3518 546.794 18.7097 546.476 19.0108C546.163 19.3063 545.785 19.454 545.342 19.454ZM555.065 39.7466C554.025 39.7466 553.13 39.6103 552.38 39.3375C551.636 39.0648 551.028 38.704 550.556 38.2552C550.084 37.8063 549.732 37.3148 549.499 36.7807L551.69 35.8773C551.843 36.1273 552.048 36.3915 552.303 36.6699C552.565 36.954 552.917 37.1955 553.36 37.3944C553.809 37.5932 554.386 37.6927 555.09 37.6927C556.056 37.6927 556.854 37.4569 557.485 36.9853C558.116 36.5194 558.431 35.775 558.431 34.7523V32.1785H558.269C558.116 32.4569 557.894 32.7665 557.604 33.1074C557.32 33.4483 556.928 33.7438 556.428 33.9938C555.928 34.2438 555.278 34.3688 554.476 34.3688C553.442 34.3688 552.511 34.1273 551.681 33.6444C550.857 33.1557 550.204 32.437 549.721 31.4881C549.244 30.5336 549.005 29.3603 549.005 27.9682C549.005 26.5762 549.241 25.383 549.712 24.3887C550.19 23.3944 550.843 22.633 551.673 22.1046C552.502 21.5705 553.442 21.3035 554.494 21.3035C555.306 21.3035 555.962 21.4398 556.462 21.7125C556.962 21.9796 557.351 22.2921 557.63 22.65C557.914 23.008 558.133 23.3233 558.286 23.5961H558.474V21.4739H560.971V34.8546C560.971 35.9796 560.709 36.9029 560.187 37.6245C559.664 38.3461 558.957 38.8802 558.065 39.2268C557.178 39.5733 556.178 39.7466 555.065 39.7466ZM555.039 32.2552C555.772 32.2552 556.391 32.0847 556.897 31.7438C557.408 31.3972 557.795 30.9029 558.056 30.2608C558.323 29.6131 558.457 28.8375 558.457 27.9341C558.457 27.0535 558.326 26.2779 558.065 25.6074C557.803 24.937 557.42 24.4143 556.914 24.0393C556.408 23.6586 555.783 23.4682 555.039 23.4682C554.272 23.4682 553.633 23.6671 553.121 24.0648C552.61 24.4569 552.224 24.991 551.962 25.6671C551.707 26.3432 551.579 27.0989 551.579 27.9341C551.579 28.7921 551.709 29.5449 551.971 30.1927C552.232 30.8404 552.619 31.3461 553.13 31.7097C553.647 32.0733 554.283 32.2552 555.039 32.2552ZM566.481 26.7921V34.5648H563.932V21.4739H566.378V23.6046H566.54C566.842 22.9114 567.313 22.3546 567.955 21.9341C568.603 21.5137 569.418 21.3035 570.401 21.3035C571.293 21.3035 572.074 21.491 572.745 21.866C573.415 22.2353 573.935 22.7864 574.305 23.5194C574.674 24.2523 574.859 25.1586 574.859 26.2381V34.5648H572.31V26.5449C572.31 25.5961 572.063 24.8546 571.569 24.3205C571.074 23.7807 570.395 23.5108 569.532 23.5108C568.941 23.5108 568.415 23.6387 567.955 23.8944C567.501 24.15 567.14 24.525 566.873 25.0194C566.611 25.508 566.481 26.0989 566.481 26.7921ZM505.458 70.5648H499.808V53.1103H505.637C507.347 53.1103 508.816 53.4597 510.043 54.1586C511.271 54.8518 512.211 55.8489 512.864 57.15C513.524 58.4455 513.853 59.9995 513.853 61.812C513.853 63.6302 513.521 65.1927 512.856 66.4995C512.197 67.8063 511.242 68.812 509.992 69.5165C508.742 70.2154 507.231 70.5648 505.458 70.5648ZM502.441 68.2637H505.313C506.643 68.2637 507.748 68.0137 508.629 67.5137C509.509 67.008 510.168 66.2779 510.606 65.3233C511.043 64.3631 511.262 63.1927 511.262 61.812C511.262 60.4427 511.043 59.2807 510.606 58.3262C510.174 57.3716 509.529 56.6472 508.671 56.1529C507.813 55.6586 506.748 55.4114 505.475 55.4114H502.441V68.2637ZM521.982 70.829C520.754 70.829 519.683 70.5478 518.769 69.9853C517.854 69.4228 517.144 68.6358 516.638 67.6245C516.132 66.6131 515.879 65.4313 515.879 64.079C515.879 62.7211 516.132 61.5336 516.638 60.5165C517.144 59.4995 517.854 58.7097 518.769 58.1472C519.683 57.5847 520.754 57.3035 521.982 57.3035C523.209 57.3035 524.28 57.5847 525.195 58.1472C526.109 58.7097 526.82 59.4995 527.325 60.5165C527.831 61.5336 528.084 62.7211 528.084 64.079C528.084 65.4313 527.831 66.6131 527.325 67.6245C526.82 68.6358 526.109 69.4228 525.195 69.9853C524.28 70.5478 523.209 70.829 521.982 70.829ZM521.99 68.6898C522.786 68.6898 523.445 68.4796 523.967 68.0591C524.49 67.6387 524.876 67.079 525.126 66.3802C525.382 65.6813 525.51 64.9114 525.51 64.0705C525.51 63.2353 525.382 62.4682 525.126 61.7694C524.876 61.0648 524.49 60.4995 523.967 60.0733C523.445 59.6472 522.786 59.4341 521.99 59.4341C521.189 59.4341 520.524 59.6472 519.996 60.0733C519.473 60.4995 519.084 61.0648 518.828 61.7694C518.578 62.4682 518.453 63.2353 518.453 64.0705C518.453 64.9114 518.578 65.6813 518.828 66.3802C519.084 67.079 519.473 67.6387 519.996 68.0591C520.524 68.4796 521.189 68.6898 521.99 68.6898ZM535.987 70.829C534.719 70.829 533.629 70.5421 532.714 69.9682C531.805 69.3887 531.106 68.5904 530.617 67.5733C530.129 66.5563 529.884 65.3915 529.884 64.079C529.884 62.7495 530.134 61.5762 530.634 60.5591C531.134 59.5364 531.839 58.7381 532.748 58.1643C533.657 57.5904 534.728 57.3035 535.961 57.3035C536.955 57.3035 537.842 57.4881 538.62 57.8574C539.398 58.2211 540.026 58.7324 540.504 59.3915C540.987 60.0506 541.273 60.8205 541.364 61.7012H538.884C538.748 61.0875 538.435 60.5591 537.947 60.116C537.464 59.6728 536.816 59.4512 536.004 59.4512C535.293 59.4512 534.671 59.6387 534.137 60.0137C533.609 60.383 533.197 60.9114 532.901 61.5989C532.606 62.2807 532.458 63.0875 532.458 64.0194C532.458 64.9739 532.603 65.7978 532.893 66.491C533.183 67.1841 533.592 67.7211 534.12 68.1018C534.654 68.4824 535.282 68.6728 536.004 68.6728C536.487 68.6728 536.924 68.5847 537.316 68.4086C537.714 68.2268 538.046 67.9682 538.313 67.633C538.586 67.2978 538.776 66.8944 538.884 66.4228H541.364C541.273 67.2694 540.998 68.025 540.538 68.6898C540.077 69.3546 539.461 69.8773 538.688 70.258C537.921 70.6387 537.021 70.829 535.987 70.829ZM556.075 70.5648L558.938 53.1103H560.984L558.12 70.5648H556.075ZM548.174 65.8944L548.506 63.8489H561.734L561.401 65.8944H548.174ZM549.938 70.5648L552.802 53.1103H554.847L551.984 70.5648H549.938ZM549.188 59.8262L549.521 57.7807H562.748L562.415 59.8262H549.188ZM570.397 70.8035C569.226 70.8035 568.181 70.6018 567.261 70.1983C566.346 69.7949 565.621 69.2353 565.087 68.5194C564.559 67.7978 564.275 66.9625 564.235 66.0137H566.911C566.945 66.5307 567.119 66.9796 567.431 67.3603C567.749 67.7353 568.164 68.025 568.675 68.2296C569.187 68.4341 569.755 68.5364 570.38 68.5364C571.067 68.5364 571.675 68.4171 572.204 68.1785C572.738 67.9398 573.155 67.6074 573.457 67.1813C573.758 66.7495 573.908 66.2523 573.908 65.6898C573.908 65.1046 573.758 64.5904 573.457 64.1472C573.161 63.6983 572.726 63.3461 572.153 63.0904C571.584 62.8347 570.897 62.7069 570.09 62.7069H568.616V60.5591H570.09C570.738 60.5591 571.306 60.4427 571.795 60.2097C572.289 59.9768 572.675 59.6529 572.954 59.2381C573.232 58.8177 573.371 58.3262 573.371 57.7637C573.371 57.2239 573.249 56.7552 573.005 56.3574C572.766 55.954 572.425 55.6387 571.982 55.4114C571.545 55.1841 571.028 55.0705 570.431 55.0705C569.863 55.0705 569.332 55.1756 568.837 55.3858C568.349 55.5904 567.951 55.8858 567.644 56.2722C567.337 56.6529 567.172 57.1103 567.15 57.6444H564.601C564.63 56.7012 564.908 55.8716 565.437 55.1557C565.971 54.4398 566.675 53.8802 567.55 53.4768C568.425 53.0733 569.397 52.8716 570.465 52.8716C571.584 52.8716 572.55 53.0904 573.363 53.5279C574.181 53.9597 574.812 54.5364 575.255 55.258C575.704 55.9796 575.925 56.7694 575.92 57.6273C575.925 58.6046 575.653 59.4341 575.101 60.116C574.556 60.7978 573.829 61.2552 572.92 61.4881V61.6245C574.079 61.8006 574.976 62.2608 575.613 63.0052C576.255 63.7495 576.573 64.6728 576.567 65.775C576.573 66.7353 576.306 67.5961 575.766 68.3574C575.232 69.1188 574.502 69.7182 573.576 70.1557C572.65 70.5875 571.59 70.8035 570.397 70.8035Z" fill="#1E1E1E"/>
<path d="M486 106H580.938C582.862 106 584.701 106.792 586.024 108.19L595.086 117.774C596.315 119.074 597 120.795 597 122.584V187C597 190.866 593.866 194 590 194H486C482.134 194 479 190.866 479 187V113C479 109.134 482.134 106 486 106Z" fill="white" stroke="black" stroke-width="2"/>
<path d="M583.532 105.45V111.85C583.532 116.268 587.113 119.85 591.532 119.85H597.149" stroke="black" stroke-width="2"/>
<path d="M499.723 158.637H496.928L503.209 141.183H506.252L512.533 158.637H509.738L504.803 144.353H504.667L499.723 158.637ZM500.192 151.802H509.26V154.018H500.192V151.802ZM520.248 158.637H514.598V141.183H520.427C522.137 141.183 523.606 141.532 524.833 142.231C526.061 142.924 527.001 143.922 527.655 145.223C528.314 146.518 528.643 148.072 528.643 149.885C528.643 151.703 528.311 153.265 527.646 154.572C526.987 155.879 526.032 156.885 524.782 157.589C523.532 158.288 522.021 158.637 520.248 158.637ZM517.231 156.336H520.103C521.433 156.336 522.538 156.086 523.419 155.586C524.299 155.081 524.958 154.351 525.396 153.396C525.833 152.436 526.052 151.265 526.052 149.885C526.052 148.515 525.833 147.353 525.396 146.399C524.964 145.444 524.319 144.72 523.461 144.226C522.603 143.731 521.538 143.484 520.265 143.484H517.231V156.336ZM531.462 158.637V141.183H537.684C539.036 141.183 540.158 141.416 541.05 141.882C541.948 142.348 542.618 142.993 543.061 143.816C543.505 144.635 543.726 145.581 543.726 146.654C543.726 147.723 543.502 148.663 543.053 149.476C542.61 150.282 541.939 150.91 541.042 151.359C540.15 151.808 539.027 152.032 537.675 152.032H532.962V149.765H537.436C538.289 149.765 538.982 149.643 539.516 149.399C540.056 149.154 540.451 148.799 540.701 148.333C540.951 147.868 541.076 147.308 541.076 146.654C541.076 145.995 540.948 145.424 540.692 144.941C540.442 144.458 540.047 144.089 539.507 143.833C538.973 143.572 538.272 143.441 537.402 143.441H534.096V158.637H531.462ZM540.078 150.762L544.391 158.637H541.391L537.164 150.762H540.078ZM558.711 158.637L561.575 141.183H563.62L560.757 158.637H558.711ZM550.811 153.967L551.143 151.922H564.37L564.038 153.967H550.811ZM552.575 158.637L555.438 141.183H557.484L554.62 158.637H552.575ZM551.825 147.899L552.157 145.853H565.385L565.052 147.899H551.825ZM572.718 158.876C571.65 158.876 570.69 158.672 569.838 158.262C568.991 157.848 568.315 157.279 567.809 156.558C567.304 155.836 567.034 155.012 567 154.086H569.556C569.619 154.836 569.951 155.453 570.554 155.936C571.156 156.419 571.877 156.66 572.718 156.66C573.389 156.66 573.982 156.507 574.5 156.2C575.022 155.887 575.431 155.458 575.727 154.913C576.028 154.368 576.179 153.745 576.179 153.047C576.179 152.336 576.025 151.703 575.718 151.146C575.411 150.589 574.988 150.152 574.448 149.833C573.914 149.515 573.301 149.353 572.608 149.348C572.079 149.348 571.548 149.439 571.014 149.62C570.48 149.802 570.048 150.041 569.718 150.336L567.306 149.978L568.286 141.183H577.883V143.441H570.477L569.923 148.325H570.025C570.366 147.995 570.818 147.72 571.38 147.498C571.948 147.277 572.556 147.166 573.204 147.166C574.267 147.166 575.213 147.419 576.042 147.924C576.877 148.43 577.534 149.12 578.011 149.995C578.494 150.865 578.732 151.865 578.727 152.995C578.732 154.126 578.477 155.135 577.96 156.021C577.448 156.907 576.738 157.606 575.829 158.118C574.926 158.623 573.889 158.876 572.718 158.876Z" fill="#1E1E1E"/>
<path d="M487 211H581.938C583.862 211 585.701 211.792 587.024 213.19L596.086 222.774C597.315 224.074 598 225.795 598 227.584V292C598 295.866 594.866 299 591 299H487C483.134 299 480 295.866 480 292V218C480 214.134 483.134 211 487 211Z" fill="white" stroke="black" stroke-width="2"/>
<path d="M584.532 210.45V216.85C584.532 221.268 588.113 224.85 592.532 224.85H598.149" stroke="black" stroke-width="2"/>
<path d="M500.583 263.637H497.787L504.069 246.183H507.111L513.392 263.637H510.597L505.662 249.353H505.526L500.583 263.637ZM501.052 256.802H510.12V259.018H501.052V256.802ZM521.108 263.637H515.457V246.183H521.287C522.997 246.183 524.466 246.532 525.693 247.231C526.92 247.924 527.86 248.922 528.514 250.223C529.173 251.518 529.503 253.072 529.503 254.885C529.503 256.703 529.17 258.265 528.505 259.572C527.846 260.879 526.892 261.885 525.642 262.589C524.392 263.288 522.88 263.637 521.108 263.637ZM518.091 261.336H520.963C522.292 261.336 523.397 261.086 524.278 260.586C525.159 260.081 525.818 259.351 526.255 258.396C526.693 257.436 526.912 256.265 526.912 254.885C526.912 253.515 526.693 252.353 526.255 251.399C525.824 250.444 525.179 249.72 524.321 249.226C523.463 248.731 522.397 248.484 521.125 248.484H518.091V261.336ZM532.321 263.637V246.183H538.543C539.895 246.183 541.017 246.416 541.909 246.882C542.807 247.348 543.478 247.993 543.921 248.816C544.364 249.635 544.586 250.581 544.586 251.654C544.586 252.723 544.361 253.663 543.912 254.476C543.469 255.282 542.799 255.91 541.901 256.359C541.009 256.808 539.887 257.032 538.534 257.032H533.821V254.765H538.296C539.148 254.765 539.841 254.643 540.375 254.399C540.915 254.154 541.31 253.799 541.56 253.333C541.81 252.868 541.935 252.308 541.935 251.654C541.935 250.995 541.807 250.424 541.551 249.941C541.301 249.458 540.907 249.089 540.367 248.833C539.833 248.572 539.131 248.441 538.262 248.441H534.955V263.637H532.321ZM540.938 255.762L545.25 263.637H542.25L538.023 255.762H540.938ZM559.571 263.637L562.434 246.183H564.48L561.616 263.637H559.571ZM551.67 258.967L552.002 256.922H565.23L564.897 258.967H551.67ZM553.434 263.637L556.298 246.183H558.343L555.48 263.637H553.434ZM552.684 252.899L553.017 250.853H566.244L565.912 252.899H552.684ZM573.714 263.876C572.492 263.876 571.413 263.666 570.475 263.245C569.544 262.825 568.813 262.245 568.285 261.507C567.757 260.768 567.495 259.927 567.501 258.984C567.495 258.245 567.646 257.566 567.953 256.947C568.265 256.322 568.688 255.802 569.223 255.387C569.757 254.967 570.353 254.7 571.012 254.586V254.484C570.143 254.274 569.447 253.808 568.924 253.086C568.402 252.365 568.143 251.535 568.149 250.598C568.143 249.706 568.379 248.91 568.856 248.211C569.339 247.507 570.001 246.953 570.842 246.549C571.683 246.146 572.64 245.944 573.714 245.944C574.777 245.944 575.725 246.149 576.561 246.558C577.402 246.961 578.063 247.515 578.546 248.22C579.029 248.919 579.274 249.711 579.279 250.598C579.274 251.535 579.007 252.365 578.478 253.086C577.95 253.808 577.262 254.274 576.416 254.484V254.586C577.069 254.7 577.657 254.967 578.18 255.387C578.708 255.802 579.129 256.322 579.441 256.947C579.759 257.566 579.921 258.245 579.927 258.984C579.921 259.927 579.654 260.768 579.126 261.507C578.598 262.245 577.865 262.825 576.927 263.245C575.995 263.666 574.924 263.876 573.714 263.876ZM573.714 261.72C574.436 261.72 575.061 261.601 575.589 261.362C576.117 261.118 576.527 260.779 576.816 260.348C577.106 259.91 577.254 259.399 577.259 258.814C577.254 258.206 577.095 257.669 576.782 257.203C576.475 256.737 576.058 256.37 575.529 256.103C575.001 255.836 574.396 255.703 573.714 255.703C573.027 255.703 572.416 255.836 571.882 256.103C571.348 256.37 570.927 256.737 570.62 257.203C570.313 257.669 570.163 258.206 570.169 258.814C570.163 259.399 570.302 259.91 570.586 260.348C570.876 260.779 571.288 261.118 571.822 261.362C572.356 261.601 572.987 261.72 573.714 261.72ZM573.714 253.598C574.294 253.598 574.808 253.481 575.257 253.248C575.706 253.015 576.058 252.691 576.313 252.277C576.575 251.862 576.708 251.376 576.714 250.819C576.708 250.274 576.578 249.797 576.322 249.387C576.072 248.978 575.723 248.663 575.274 248.441C574.825 248.214 574.305 248.101 573.714 248.101C573.112 248.101 572.583 248.214 572.129 248.441C571.68 248.663 571.331 248.978 571.081 249.387C570.831 249.797 570.708 250.274 570.714 250.819C570.708 251.376 570.833 251.862 571.089 252.277C571.345 252.691 571.697 253.015 572.146 253.248C572.6 253.481 573.123 253.598 573.714 253.598Z" fill="#1E1E1E"/>
<path d="M8 1H364.686C366.543 1 368.323 1.7375 369.636 3.05025L396.95 30.364C398.263 31.6767 399 33.4572 399 35.3137V292C399 295.866 395.866 299 392 299H7.99999C4.134 299 1 295.866 1 292V7.99999C1 4.134 4.13401 1 8 1Z" fill="white" stroke="black" stroke-width="2"/>
<path d="M366 1V25C366 29.4183 369.582 33 374 33H398" stroke="black" stroke-width="2"/>
<path d="M25.2874 22.608H27.0154V25.536C27.0154 27.624 26.4874 30.168 23.9194 31.872C23.6794 31.536 22.9834 30.912 22.6234 30.672C24.9274 29.184 25.2874 27.192 25.2874 25.512V22.608ZM31.1434 22.608H32.8474V28.512C32.8474 29.04 32.9194 29.136 33.3034 29.136C33.4954 29.136 34.2874 29.136 34.5274 29.136C34.9354 29.136 35.0314 28.824 35.0794 26.52C35.4154 26.784 36.1354 27.048 36.5914 27.168C36.4474 29.976 36.0154 30.72 34.7194 30.72C34.4074 30.72 33.3514 30.72 33.0394 30.72C31.5754 30.72 31.1434 30.24 31.1434 28.536V22.608ZM26.5834 33.936C28.2394 38.064 31.8154 41.136 36.6394 42.36C36.2314 42.744 35.7034 43.464 35.4634 43.92C30.4714 42.456 26.8954 39.144 24.9754 34.44L26.5834 33.936ZM33.3034 32.256H33.6634L33.9754 32.184L35.1274 32.64C33.4234 38.928 28.9114 42.384 23.6554 43.92C23.4634 43.488 23.0074 42.72 22.6714 42.336C27.5194 41.112 31.8634 37.872 33.3034 32.544V32.256ZM23.7274 32.256H33.9994V33.888H23.7274V32.256ZM26.0074 22.608H32.0074V24.216H26.0074V22.608ZM15.4234 29.112H22.5754V30.552H15.4234V29.112ZM15.5434 22.704H22.5274V24.144H15.5434V22.704ZM15.4234 32.328H22.5754V33.768H15.4234V32.328ZM14.2954 25.848H23.4154V27.336H14.2954V25.848ZM16.2874 35.568H22.5754V42.576H16.2874V41.064H20.9914V37.056H16.2874V35.568ZM15.3994 35.568H16.9594V43.68H15.3994V35.568ZM47.3434 30.072H60.2314V31.848H47.3434V30.072ZM52.9834 21.912H54.8074V43.92H52.9834V21.912ZM38.9674 29.112H46.4554V30.552H38.9674V29.112ZM39.1114 22.704H46.4794V24.144H39.1114V22.704ZM38.9674 32.328H46.4554V33.768H38.9674V32.328ZM37.8394 25.848H47.3914V27.336H37.8394V25.848ZM39.8074 35.568H46.3834V42.576H39.8074V41.064H44.7754V37.056H39.8074V35.568ZM38.9434 35.568H40.5514V43.68H38.9434V35.568ZM68.8322 23.7273L63.2072 44.625H60.9316L66.5566 23.7273H68.8322ZM89.7319 27C89.5399 27.336 89.2999 27.888 89.1799 28.272C88.5319 30.696 87.0679 33.936 84.9319 36.552C82.7479 39.216 79.8679 41.4 75.3799 43.08L73.6279 41.496C78.0439 40.2 81.0199 38.04 83.2279 35.472C85.0759 33.288 86.5639 30.168 87.0439 27.984H78.1639L78.9319 26.256C79.8919 26.256 85.8199 26.256 86.5639 26.256C87.2119 26.256 87.7639 26.184 88.1479 26.04L89.7319 27ZM81.6919 23.376C81.3079 24 80.8759 24.816 80.6359 25.248C79.2199 27.912 76.7239 31.344 72.8599 33.888L71.1799 32.664C75.3319 30.192 77.6839 26.688 78.7399 24.552C78.9799 24.12 79.3399 23.256 79.4839 22.632L81.6919 23.376ZM94.7959 31.608C95.5399 31.68 96.7879 31.752 98.1559 31.752C99.9079 31.752 109.532 31.752 111.308 31.752C112.508 31.752 113.348 31.656 113.9 31.608V33.96C113.396 33.936 112.388 33.864 111.332 33.864C109.508 33.864 99.9319 33.864 98.1559 33.864C96.8359 33.864 95.5639 33.912 94.7959 33.96V31.608ZM134.012 24.288C134.012 25.128 134.684 25.8 135.548 25.8C136.388 25.8 137.084 25.128 137.084 24.288C137.084 23.424 136.388 22.728 135.548 22.728C134.684 22.728 134.012 23.424 134.012 24.288ZM132.932 24.288C132.932 22.824 134.084 21.648 135.548 21.648C136.988 21.648 138.188 22.824 138.188 24.288C138.188 25.728 136.988 26.904 135.548 26.904C134.084 26.904 132.932 25.728 132.932 24.288ZM128.9 23.52C128.852 23.856 128.756 24.72 128.756 25.224C128.756 26.496 128.756 28.512 128.756 29.688C128.756 31.632 128.756 39.408 128.756 41.136C128.756 42.384 128.156 43.032 126.692 43.032C125.684 43.032 124.268 42.984 123.284 42.864L123.116 40.968C124.172 41.16 125.252 41.232 125.9 41.232C126.548 41.232 126.812 40.968 126.812 40.32C126.836 39.024 126.836 30.816 126.836 29.688C126.836 28.872 126.836 26.496 126.836 25.224C126.836 24.696 126.74 23.88 126.668 23.52H128.9ZM118.124 27.552C118.796 27.648 119.396 27.696 120.14 27.696C121.556 27.696 133.676 27.696 135.116 27.696C135.668 27.696 136.46 27.648 137.06 27.576V29.568C136.436 29.52 135.716 29.496 135.14 29.496C133.7 29.496 121.628 29.496 120.164 29.496C119.42 29.496 118.748 29.52 118.124 29.592V27.552ZM123.644 33.216C122.612 35.256 120.38 38.328 119.012 39.792L117.356 38.664C118.964 37.2 121.004 34.344 121.94 32.4L123.644 33.216ZM133.652 32.4C134.948 33.936 136.844 36.936 137.804 38.688L136.052 39.672C135.092 37.776 133.292 34.8 132.02 33.288L133.652 32.4ZM144.908 24.432C146.588 25.56 149.684 28.056 151.004 29.376L149.516 30.912C148.292 29.664 145.316 27.072 143.516 25.896L144.908 24.432ZM142.844 40.512C147.02 39.888 150.14 38.424 152.42 37.008C156.14 34.68 159.044 31.128 160.436 28.152L161.588 30.216C159.956 33.192 157.172 36.456 153.548 38.736C151.124 40.248 148.1 41.736 144.092 42.48L142.844 40.512ZM176.516 25.632C176.204 28.128 175.724 30.936 174.98 33.504C173.516 38.424 171.596 40.968 169.388 40.968C167.228 40.968 165.092 38.52 165.092 34.536C165.092 29.328 169.724 24.792 175.604 24.792C181.22 24.792 184.796 28.752 184.796 33.624C184.796 38.64 181.484 42 175.772 42.744L174.668 40.968C175.436 40.896 176.156 40.8 176.732 40.68C179.804 39.984 182.828 37.68 182.828 33.528C182.828 29.688 180.164 26.52 175.556 26.52C170.276 26.52 166.988 30.864 166.988 34.392C166.988 37.416 168.356 38.76 169.436 38.76C170.564 38.76 171.86 37.128 173.084 33.072C173.78 30.792 174.284 28.08 174.524 25.584L176.516 25.632ZM192.092 24.144C192.716 24.216 193.46 24.264 194.228 24.264C195.524 24.264 202.268 24.264 203.684 24.264C204.428 24.264 205.268 24.216 205.844 24.144V26.136C205.292 26.088 204.452 26.064 203.636 26.064C202.292 26.064 195.548 26.064 194.228 26.064C193.508 26.064 192.74 26.088 192.092 26.136V24.144ZM207.62 30.456C207.5 30.696 207.332 30.984 207.284 31.176C206.66 33.528 205.58 36.024 203.78 37.992C201.284 40.752 198.26 42.144 195.212 43.008L193.724 41.304C197.108 40.608 200.108 39.048 202.172 36.888C203.612 35.376 204.572 33.336 205.004 31.584C203.828 31.584 193.724 31.584 192.284 31.584C191.708 31.584 190.796 31.608 189.932 31.68V29.664C190.796 29.736 191.612 29.808 192.284 29.808C193.46 29.808 203.684 29.808 204.908 29.808C205.46 29.808 205.988 29.736 206.252 29.616L207.62 30.456ZM212.156 33.336C216.308 32.232 219.956 30.528 222.62 28.872C225.14 27.288 227.54 25.224 229.196 23.208L230.804 24.72C228.74 26.856 226.22 28.872 223.412 30.624C220.772 32.256 216.956 34.008 213.092 35.208L212.156 33.336ZM222.236 29.856L224.3 29.232V40.2C224.3 41.088 224.348 42.288 224.468 42.744H222.092C222.164 42.288 222.236 41.088 222.236 40.2V29.856ZM254.3 26.064C254.132 26.4 254.036 26.784 253.94 27.264C253.412 29.784 252.26 33.648 250.34 36.12C248.156 38.928 245.3 41.16 240.908 42.528L239.276 40.728C243.932 39.576 246.62 37.536 248.636 34.968C250.34 32.784 251.444 29.448 251.78 27.144C250.388 27.144 240.884 27.144 239.492 27.144C238.532 27.144 237.716 27.192 237.116 27.216V25.08C237.764 25.176 238.724 25.248 239.516 25.248C240.884 25.248 250.46 25.248 251.54 25.248C251.9 25.248 252.38 25.224 252.836 25.128L254.3 26.064ZM274.46 30.984C274.46 37.368 273.068 40.656 267.596 43.128L265.988 41.592C270.356 39.936 272.516 37.872 272.516 31.128V25.296C272.516 24.36 272.444 23.568 272.396 23.352H274.58C274.556 23.592 274.46 24.36 274.46 25.296V30.984ZM265.796 23.496C265.772 23.712 265.7 24.408 265.7 25.224V34.032C265.7 34.92 265.772 35.976 265.796 36.192H263.66C263.684 35.976 263.78 34.944 263.78 34.032V25.224C263.78 24.72 263.732 24.048 263.66 23.496H265.796ZM258.788 28.152C259.004 28.176 260.18 28.32 261.188 28.32H277.076C278.156 28.32 278.948 28.224 279.284 28.176V30.216C279.02 30.192 278.156 30.144 277.1 30.144H261.188C260.132 30.144 259.052 30.216 258.788 30.216V28.152ZM282.788 33.336C286.94 32.232 290.588 30.528 293.252 28.872C295.772 27.288 298.172 25.224 299.828 23.208L301.436 24.72C299.372 26.856 296.852 28.872 294.044 30.624C291.404 32.256 287.588 34.008 283.724 35.208L282.788 33.336ZM292.868 29.856L294.932 29.232V40.2C294.932 41.088 294.98 42.288 295.1 42.744H292.724C292.796 42.288 292.868 41.088 292.868 40.2V29.856ZM324.703 27C324.511 27.336 324.271 27.888 324.151 28.272C323.503 30.696 322.039 33.936 319.903 36.552C317.719 39.216 314.839 41.4 310.351 43.08L308.599 41.496C313.015 40.2 315.991 38.04 318.199 35.472C320.047 33.288 321.535 30.168 322.015 27.984H313.135L313.903 26.256C314.863 26.256 320.791 26.256 321.535 26.256C322.183 26.256 322.735 26.184 323.119 26.04L324.703 27ZM316.663 23.376C316.279 24 315.847 24.816 315.607 25.248C314.191 27.912 311.695 31.344 307.831 33.888L306.151 32.664C310.303 30.192 312.655 26.688 313.711 24.552C313.951 24.12 314.311 23.256 314.455 22.632L316.663 23.376ZM339.169 41.496C339.265 41.136 339.337 40.632 339.337 40.152C339.337 39.048 339.337 27.288 339.337 25.776C339.337 24.864 339.217 24.192 339.217 24H341.425C341.401 24.192 341.305 24.888 341.305 25.8C341.305 27.288 341.305 38.904 341.305 39.624C343.537 38.616 346.489 36.432 348.313 33.72L349.465 35.376C347.377 38.184 344.065 40.632 341.281 42.024C340.873 42.216 340.633 42.432 340.441 42.552L339.169 41.496ZM328.177 41.4C330.217 39.96 331.633 37.824 332.353 35.496C333.073 33.288 333.073 28.512 333.073 25.824C333.073 25.128 333.025 24.6 332.905 24.096H335.113C335.089 24.36 334.993 25.104 334.993 25.8C334.993 28.464 334.921 33.624 334.273 36.024C333.553 38.592 332.017 40.92 330.001 42.6L328.177 41.4Z" fill="#1E1E1E"/>
<path d="M476.476 256.86C477.304 256.86 477.976 256.189 477.976 255.36C477.976 254.532 477.304 253.86 476.476 253.86V256.86ZM419 143.34C419 142.511 417.985 141.926 417.268 142.34L405.732 149C405.015 149.414 405.015 150.586 405.732 151L417.268 157.66C417.985 158.074 419 157.489 419 156.66V143.34ZM456.5 233.885V174H453.5V233.885H456.5ZM431 148.5H417.5V151.5H431V148.5ZM456.5 174C456.5 159.917 445.084 148.5 431 148.5V151.5C443.427 151.5 453.5 161.574 453.5 174H456.5ZM476.476 253.86C465.444 253.86 456.5 244.917 456.5 233.885H453.5C453.5 246.574 463.787 256.86 476.476 256.86V253.86Z" fill="#B3B3B3"/>
<path d="M475.476 151.5C476.304 151.5 476.976 150.828 476.976 150C476.976 149.172 476.304 148.5 475.476 148.5V151.5ZM419 143.34C419 142.511 417.985 141.926 417.268 142.34L405.732 149C405.015 149.414 405.015 150.586 405.732 151L417.268 157.66C417.985 158.074 419 157.489 419 156.66V143.34ZM475.476 148.5H417.5V151.5H475.476V148.5Z" fill="#B3B3B3"/>
<path d="M475.229 46.5107C476.058 46.5107 476.729 45.8392 476.729 45.0107C476.729 44.1823 476.058 43.5107 475.229 43.5107V46.5107ZM419 143.34C419 142.511 417.985 141.926 417.268 142.34L405.732 149C405.015 149.414 405.015 150.586 405.732 151L417.268 157.66C417.985 158.074 419 157.489 419 156.66V143.34ZM452.501 66.2395V126H455.501V66.2395H452.501ZM430.001 148.5H417.5V151.5H430.001V148.5ZM452.501 126C452.501 138.426 442.427 148.5 430.001 148.5V151.5C444.084 151.5 455.501 140.083 455.501 126H452.501ZM475.229 43.5107C462.677 43.5107 452.501 53.6868 452.501 66.2395H455.501C455.501 55.3436 464.334 46.5107 475.229 46.5107V43.5107Z" fill="#B3B3B3"/>
<path d="M30.064 81.5923H37.904V82.4883H30.064V81.5923ZM29.808 83.7523H38.16V84.6803H29.808V83.7523ZM33.296 82.0243H34.4V83.6083C34.4 85.0163 33.936 86.7443 30.368 87.8643C30.208 87.6243 29.888 87.2563 29.664 87.0643C32.96 86.1523 33.296 84.6323 33.296 83.5923V82.0243ZM34.384 84.1363C34.96 85.5603 36.272 86.5523 38.16 86.9363C37.92 87.1443 37.632 87.5443 37.488 87.8163C35.488 87.2883 34.112 86.0883 33.456 84.3443L34.384 84.1363ZM31.072 80.2803L32.016 79.9763C32.4 80.4723 32.768 81.1443 32.896 81.5923L31.904 81.9283C31.776 81.4483 31.44 80.7763 31.072 80.2803ZM35.744 79.9443L36.832 80.2963C36.448 80.9203 36.048 81.5603 35.712 82.0083L34.912 81.6883C35.2 81.1923 35.568 80.4403 35.744 79.9443ZM28.032 76.7283H32.528V77.5443H28.032V76.7283ZM35.376 76.7283H39.92V77.5443H35.376V76.7283ZM39.472 74.5683H40.656V87.1763C40.656 87.8323 40.512 88.1843 40.08 88.3923C39.68 88.5843 38.992 88.6003 37.968 88.6003C37.936 88.2963 37.776 87.7683 37.616 87.4483C38.32 87.4803 38.992 87.4803 39.2 87.4643C39.392 87.4643 39.472 87.3843 39.472 87.1603V74.5683ZM28.128 74.5683H33.264V79.7683H28.128V78.8723H32.128V75.4643H28.128V74.5683ZM40.048 74.5683V75.4643H35.824V78.8883H40.048V79.7843H34.672V74.5683H40.048ZM27.408 74.5683H28.592V88.6163H27.408V74.5683ZM45.744 80.2003V85.8643H44.592V81.3203H42.56V80.2003H45.744ZM45.744 85.3843C46.496 86.5683 47.904 87.1123 49.808 87.1763C51.584 87.2563 55.28 87.2083 57.216 87.0803C57.072 87.3523 56.88 87.9123 56.832 88.2643C55.024 88.3443 51.6 88.3763 49.808 88.2963C47.696 88.2163 46.24 87.6563 45.248 86.3923C44.544 87.0803 43.808 87.7683 43.008 88.4723L42.384 87.3043C43.088 86.7923 43.952 86.0723 44.704 85.3843H45.744ZM42.704 74.9523L43.616 74.2963C44.608 75.0163 45.728 76.1203 46.224 76.9043L45.232 77.6563C44.784 76.8563 43.68 75.7363 42.704 74.9523ZM46.656 75.3203H56.72V76.3283H46.656V75.3203ZM46.416 83.7683H56.96V84.7763H46.416V83.7683ZM50.992 73.8963H52.176V86.6003H50.992V73.8963ZM48.528 80.4403V81.7203H54.72V80.4403H48.528ZM48.528 78.3283V79.5923H54.72V78.3283H48.528ZM47.424 77.4323H55.888V82.6323H47.424V77.4323ZM67.68 74.6483C67.648 74.8403 67.6 75.4643 67.6 75.6563C67.552 76.6963 67.584 79.7843 67.6 81.0643L66.384 80.4403C66.384 79.7363 66.368 76.5523 66.32 75.6723C66.288 75.2403 66.24 74.7923 66.208 74.6483H67.68ZM59.168 76.8883C61.344 76.8563 65.344 76.7123 67.808 76.7123C69.76 76.7123 71.744 76.7123 72.496 76.7283L72.48 77.9123C71.584 77.8643 70.144 77.8323 67.792 77.8323C65.04 77.8323 61.616 77.9443 59.2 78.1203L59.168 76.8883ZM67.568 81.5283C67.568 83.6723 66.576 84.7443 65.12 84.7443C63.776 84.7443 62.48 83.8003 62.48 82.0563C62.48 80.4723 63.792 79.2883 65.312 79.2883C67.168 79.2883 68.112 80.6643 68.112 82.5043C68.112 84.6803 67.056 87.0803 63.344 88.1843L62.272 87.1443C65.184 86.4563 66.88 85.0323 66.88 82.3923C66.88 80.9523 66.176 80.3443 65.312 80.3443C64.464 80.3443 63.68 81.0003 63.68 82.0403C63.68 83.0483 64.432 83.6243 65.312 83.6243C66.304 83.6243 66.944 82.7923 66.688 81.0803L67.568 81.5283ZM77.28 75.5443C77.632 75.5763 78.08 75.5923 78.4 75.5923C79.248 75.5923 83.04 75.4803 83.888 75.4003C84.368 75.3523 84.592 75.3203 84.768 75.2563L85.504 76.2003C85.216 76.3923 84.896 76.6003 84.592 76.8403C83.808 77.4483 81.632 79.3203 80.384 80.3443C81.12 80.1043 81.888 80.0243 82.608 80.0243C85.264 80.0243 87.168 81.6083 87.168 83.7683C87.168 86.3443 85.04 88.0243 81.648 88.0243C79.472 88.0243 78.144 87.0803 78.144 85.7363C78.144 84.6483 79.136 83.6563 80.608 83.6563C82.736 83.6563 83.808 85.1603 83.92 86.7763L82.768 86.9683C82.672 85.6083 81.888 84.6323 80.608 84.6323C79.872 84.6323 79.312 85.0803 79.312 85.6403C79.312 86.4243 80.192 86.8883 81.456 86.8883C84.176 86.8883 85.888 85.7683 85.888 83.7683C85.888 82.1843 84.384 81.0163 82.288 81.0163C79.632 81.0163 78.192 82.1363 76.176 84.2003L75.248 83.2723C76.576 82.1843 78.64 80.4563 79.552 79.6723C80.448 78.9363 82.464 77.2563 83.264 76.5363C82.416 76.5843 79.216 76.7123 78.384 76.7603C78.016 76.7923 77.664 76.8083 77.312 76.8563L77.28 75.5443ZM93.408 83.2083H101.248V82.1203H93.408V83.2083ZM93.408 81.3203H101.248V80.2643H93.408V81.3203ZM102.448 79.4323V84.0243H92.256V79.4323H102.448ZM101.12 76.0563C100.768 76.7283 100.416 77.3523 100.112 77.8323L99.04 77.5443C99.328 77.0483 99.696 76.2963 99.888 75.7843L101.12 76.0563ZM94.672 75.8003C95.008 76.3443 95.328 77.0643 95.44 77.5283L94.304 77.8323C94.192 77.3203 93.904 76.6003 93.584 76.0563L94.672 75.8003ZM97.872 73.8803V75.6243H96.656V73.8803H97.872ZM104.208 77.6563V78.6323H90.448V77.6563H104.208ZM103.376 74.9523V75.9283H91.168V74.9523H103.376ZM93.232 85.2083C92.784 86.3603 92.08 87.5443 90.896 88.2483L89.968 87.6083C91.072 86.9843 91.824 85.8963 92.24 84.8243L93.232 85.2083ZM101.792 84.6963C102.88 85.4963 104.112 86.6643 104.656 87.5283L103.68 88.1363C103.152 87.2883 101.968 86.0723 100.88 85.2403L101.792 84.6963ZM96.416 84.0083C97.312 84.4723 98.464 85.1763 99.056 85.6883L98.352 86.4083C97.776 85.8963 96.656 85.1443 95.744 84.6483L96.416 84.0083ZM95.216 87.0163C95.216 87.3843 95.36 87.4483 96.192 87.4483C96.576 87.4483 98.512 87.4483 99.024 87.4483C99.712 87.4483 99.808 87.2563 99.888 85.8483C100.144 86.0083 100.624 86.1683 100.928 86.2483C100.8 88.0403 100.432 88.4723 99.136 88.4723C98.784 88.4723 96.448 88.4723 96.112 88.4723C94.464 88.4723 94.048 88.1683 94.048 87.0163V84.9523H95.216V87.0163ZM109.712 83.4643H110.928V86.6323C110.928 87.0963 111.088 87.1603 111.984 87.1603C112.4 87.1603 114.496 87.1603 115.056 87.1603C115.84 87.1603 115.968 86.9043 116.048 85.0963C116.32 85.2883 116.816 85.4803 117.152 85.5603C116.992 87.7363 116.624 88.2803 115.136 88.2803C114.768 88.2803 112.256 88.2803 111.904 88.2803C110.176 88.2803 109.712 87.9283 109.712 86.6323V83.4643ZM111.2 82.8563L111.984 82.1203C113.184 82.7123 114.656 83.6723 115.376 84.3923L114.528 85.2083C113.84 84.5043 112.4 83.4963 111.2 82.8563ZM116.976 83.6403L118.048 83.2083C118.976 84.4083 119.968 86.0403 120.32 87.1443L119.168 87.6563C118.816 86.5683 117.904 84.8883 116.976 83.6403ZM107.648 83.3843L108.704 83.7523C108.336 85.0803 107.76 86.7443 106.96 87.7843L105.888 87.2083C106.688 86.2163 107.296 84.6323 107.648 83.3843ZM108.576 78.6963V80.7603H117.472V78.6963H108.576ZM108.576 75.6563V77.6883H117.472V75.6563H108.576ZM107.44 74.6003H118.656V81.8163H107.44V74.6003ZM112.48 75.0483H113.648V81.3523H112.48V75.0483ZM126.736 76.4563H134.976V81.7683H133.792V77.5923H126.736V76.4563ZM125.84 81.2083H136.304V82.3603H125.84V81.2083ZM129.888 73.9123H131.088V79.3843C131.088 82.8563 130.592 86.3283 126.064 88.6323C125.856 88.3923 125.408 87.9763 125.104 87.7843C129.44 85.6403 129.888 82.5363 129.888 79.3683V73.9123ZM131.664 81.7523C132.384 84.5363 133.952 86.6643 136.432 87.6083C136.16 87.8483 135.776 88.3123 135.6 88.6483C132.992 87.4963 131.392 85.1923 130.56 82.0243L131.664 81.7523ZM122.384 74.8883L123.056 74.0243C124.064 74.4563 125.328 75.1763 125.936 75.7363L125.248 76.7123C124.64 76.1363 123.408 75.3683 122.384 74.8883ZM121.536 79.2403L122.192 78.3443C123.216 78.7283 124.512 79.4163 125.152 79.9443L124.464 80.9363C123.84 80.3923 122.576 79.6723 121.536 79.2403ZM121.984 87.6083C122.784 86.3763 123.904 84.2483 124.736 82.4243L125.664 83.1603C124.896 84.8563 123.888 86.8723 123.024 88.3763L121.984 87.6083ZM140.144 78.7763H149.472V79.9283H140.144V78.7763ZM144.752 82.6003H150.144V83.7363H144.752V82.6003ZM144.112 79.3683H145.36V87.4643L144.112 87.3043V79.3683ZM140.32 81.3043L141.568 81.4323C141.12 84.6643 140.112 87.1123 138.304 88.6803C138.112 88.4723 137.6 88.0563 137.312 87.8803C139.104 86.4883 139.968 84.2003 140.32 81.3043ZM141.072 83.3683C142.208 86.6323 144.704 87.1923 147.952 87.1923C148.544 87.1923 151.312 87.1923 152.096 87.1763C151.904 87.4643 151.696 88.0403 151.648 88.3923H147.888C144.08 88.3923 141.472 87.6403 140.096 83.7363L141.072 83.3683ZM144.096 73.8963H145.36V76.4883H144.096V73.8963ZM138.08 75.7203H151.456V79.2083H150.224V76.8723H139.264V79.2083H138.08V75.7203ZM38.0043 109.184C37.5459 109.184 37.1274 109.072 36.7486 108.849C36.3698 108.621 36.0668 108.318 35.8395 107.94C35.616 107.561 35.5043 107.142 35.5043 106.684C35.5043 106.222 35.616 105.803 35.8395 105.428C36.0668 105.049 36.3698 104.748 36.7486 104.525C37.1274 104.298 37.5459 104.184 38.0043 104.184C38.4664 104.184 38.8849 104.298 39.2599 104.525C39.6387 104.748 39.9399 105.049 40.1634 105.428C40.3906 105.803 40.5043 106.222 40.5043 106.684C40.5043 107.142 40.3906 107.561 40.1634 107.94C39.9399 108.318 39.6387 108.621 39.2599 108.849C38.8849 109.072 38.4664 109.184 38.0043 109.184ZM55.0455 111.32H51.2784V99.6839H55.1648C56.3049 99.6839 57.2841 99.9169 58.1023 100.383C58.9205 100.845 59.5473 101.51 59.983 102.377C60.4223 103.241 60.642 104.277 60.642 105.485C60.642 106.697 60.4205 107.739 59.9773 108.61C59.5379 109.481 58.9015 110.152 58.0682 110.621C57.2348 111.087 56.2273 111.32 55.0455 111.32ZM53.0341 109.786H54.9489C55.8352 109.786 56.572 109.62 57.1591 109.286C57.7462 108.949 58.1856 108.462 58.4773 107.826C58.7689 107.186 58.9148 106.406 58.9148 105.485C58.9148 104.572 58.7689 103.798 58.4773 103.161C58.1894 102.525 57.7595 102.042 57.1875 101.712C56.6155 101.383 55.9053 101.218 55.0568 101.218H53.0341V109.786ZM66.2743 111.496C65.4144 111.496 64.6739 111.313 64.0527 110.945C63.4353 110.574 62.958 110.053 62.6209 109.383C62.2875 108.709 62.1209 107.919 62.1209 107.013C62.1209 106.12 62.2875 105.332 62.6209 104.65C62.958 103.968 63.4277 103.436 64.03 103.053C64.636 102.671 65.3444 102.479 66.155 102.479C66.6474 102.479 67.1247 102.561 67.5868 102.724C68.0489 102.887 68.4637 103.142 68.8311 103.491C69.1985 103.839 69.4883 104.292 69.7004 104.849C69.9125 105.402 70.0186 106.074 70.0186 106.866V107.468H63.0811V106.195H68.3538C68.3538 105.748 68.2629 105.353 68.0811 105.008C67.8993 104.659 67.6436 104.385 67.3141 104.184C66.9883 103.983 66.6057 103.883 66.1663 103.883C65.6891 103.883 65.2724 104 64.9163 104.235C64.5641 104.466 64.2913 104.769 64.0981 105.144C63.9088 105.515 63.8141 105.919 63.8141 106.354V107.349C63.8141 107.932 63.9163 108.428 64.1209 108.837C64.3292 109.246 64.619 109.559 64.9902 109.775C65.3614 109.987 65.7951 110.093 66.2913 110.093C66.6133 110.093 66.9069 110.048 67.172 109.957C67.4372 109.862 67.6663 109.722 67.8595 109.536C68.0527 109.351 68.2004 109.121 68.3027 108.849L69.9106 109.138C69.7819 109.612 69.5508 110.027 69.2175 110.383C68.8879 110.735 68.4731 111.01 67.9731 111.207C67.4769 111.4 66.9106 111.496 66.2743 111.496ZM78.2673 104.724L76.7275 104.996C76.6632 104.799 76.5609 104.612 76.4207 104.434C76.2844 104.256 76.0988 104.11 75.8639 103.996C75.6291 103.883 75.3355 103.826 74.9832 103.826C74.5022 103.826 74.1007 103.934 73.7787 104.15C73.4567 104.362 73.2957 104.637 73.2957 104.974C73.2957 105.265 73.4037 105.5 73.6196 105.678C73.8355 105.856 74.184 106.002 74.665 106.116L76.0514 106.434C76.8544 106.62 77.4529 106.906 77.8469 107.292C78.2408 107.678 78.4378 108.18 78.4378 108.798C78.4378 109.32 78.2863 109.786 77.9832 110.195C77.684 110.601 77.2654 110.919 76.7275 111.15C76.1935 111.381 75.5741 111.496 74.8696 111.496C73.8923 111.496 73.095 111.288 72.4775 110.871C71.8601 110.451 71.4813 109.854 71.3412 109.082L72.9832 108.832C73.0855 109.26 73.2957 109.584 73.6139 109.803C73.9321 110.019 74.3469 110.127 74.8582 110.127C75.415 110.127 75.8601 110.012 76.1935 109.781C76.5268 109.546 76.6935 109.26 76.6935 108.923C76.6935 108.65 76.5912 108.421 76.3866 108.235C76.1859 108.049 75.8772 107.909 75.4605 107.815L73.9832 107.491C73.1688 107.305 72.5666 107.01 72.1764 106.604C71.79 106.199 71.5969 105.686 71.5969 105.065C71.5969 104.549 71.7408 104.099 72.0287 103.712C72.3166 103.326 72.7143 103.025 73.2219 102.809C73.7294 102.589 74.3109 102.479 74.9662 102.479C75.9094 102.479 76.6518 102.684 77.1935 103.093C77.7351 103.498 78.0931 104.042 78.2673 104.724ZM80.1297 111.32V102.593H81.8285V111.32H80.1297ZM80.9876 101.246C80.6922 101.246 80.4384 101.148 80.2263 100.951C80.0179 100.75 79.9138 100.512 79.9138 100.235C79.9138 99.9548 80.0179 99.7161 80.2263 99.5192C80.4384 99.3184 80.6922 99.218 80.9876 99.218C81.2831 99.218 81.535 99.3184 81.7433 99.5192C81.9554 99.7161 82.0615 99.9548 82.0615 100.235C82.0615 100.512 81.9554 100.75 81.7433 100.951C81.535 101.148 81.2831 101.246 80.9876 101.246ZM87.5971 114.775C86.904 114.775 86.3074 114.684 85.8074 114.502C85.3112 114.32 84.9058 114.08 84.5915 113.781C84.2771 113.481 84.0422 113.154 83.8869 112.798L85.3471 112.195C85.4494 112.362 85.5858 112.538 85.7562 112.724C85.9305 112.913 86.1653 113.074 86.4608 113.207C86.76 113.339 87.1445 113.406 87.6142 113.406C88.2581 113.406 88.7903 113.248 89.2108 112.934C89.6312 112.623 89.8415 112.127 89.8415 111.445V109.729H89.7335C89.6312 109.915 89.4835 110.121 89.2903 110.349C89.1009 110.576 88.8396 110.773 88.5062 110.94C88.1729 111.106 87.7392 111.19 87.2051 111.19C86.5157 111.19 85.8945 111.029 85.3415 110.707C84.7922 110.381 84.3566 109.902 84.0346 109.269C83.7165 108.633 83.5574 107.851 83.5574 106.923C83.5574 105.995 83.7146 105.199 84.029 104.536C84.3471 103.873 84.7827 103.366 85.3358 103.013C85.8888 102.657 86.5157 102.479 87.2165 102.479C87.7581 102.479 88.1956 102.57 88.529 102.752C88.8623 102.93 89.1218 103.138 89.3074 103.377C89.4968 103.616 89.6426 103.826 89.7449 104.008H89.8699V102.593H91.5346V111.513C91.5346 112.263 91.3604 112.879 91.0119 113.36C90.6634 113.841 90.1918 114.197 89.5971 114.428C89.0062 114.659 88.3396 114.775 87.5971 114.775ZM87.5801 109.781C88.0687 109.781 88.4816 109.667 88.8187 109.44C89.1596 109.209 89.4172 108.879 89.5915 108.451C89.7695 108.019 89.8585 107.502 89.8585 106.9C89.8585 106.313 89.7714 105.796 89.5971 105.349C89.4229 104.902 89.1672 104.553 88.8301 104.303C88.493 104.049 88.0763 103.923 87.5801 103.923C87.0687 103.923 86.6426 104.055 86.3017 104.32C85.9608 104.582 85.7032 104.938 85.529 105.388C85.3585 105.839 85.2733 106.343 85.2733 106.9C85.2733 107.472 85.3604 107.974 85.5346 108.406C85.7089 108.837 85.9665 109.174 86.3074 109.417C86.6521 109.659 87.0763 109.781 87.5801 109.781ZM95.3359 106.138V111.32H93.637V102.593H95.2677V104.013H95.3757C95.5764 103.551 95.8908 103.18 96.3189 102.9C96.7507 102.62 97.2942 102.479 97.9495 102.479C98.5442 102.479 99.0651 102.604 99.512 102.854C99.959 103.101 100.306 103.468 100.552 103.957C100.798 104.445 100.921 105.049 100.921 105.769V111.32H99.2223V105.974C99.2223 105.341 99.0575 104.847 98.728 104.491C98.3984 104.131 97.9458 103.951 97.37 103.951C96.9761 103.951 96.6257 104.036 96.3189 104.207C96.0158 104.377 95.7753 104.627 95.5973 104.957C95.423 105.282 95.3359 105.676 95.3359 106.138ZM110.985 111.32H107.218V99.6839H111.105C112.245 99.6839 113.224 99.9169 114.042 100.383C114.86 100.845 115.487 101.51 115.923 102.377C116.362 103.241 116.582 104.277 116.582 105.485C116.582 106.697 116.36 107.739 115.917 108.61C115.478 109.481 114.841 110.152 114.008 110.621C113.175 111.087 112.167 111.32 110.985 111.32ZM108.974 109.786H110.889C111.775 109.786 112.512 109.62 113.099 109.286C113.686 108.949 114.125 108.462 114.417 107.826C114.709 107.186 114.855 106.406 114.855 105.485C114.855 104.572 114.709 103.798 114.417 103.161C114.129 102.525 113.699 102.042 113.127 101.712C112.555 101.383 111.845 101.218 110.997 101.218H108.974V109.786ZM122.129 111.496C121.311 111.496 120.597 111.309 119.987 110.934C119.377 110.559 118.904 110.034 118.566 109.36C118.229 108.686 118.061 107.898 118.061 106.996C118.061 106.091 118.229 105.299 118.566 104.621C118.904 103.943 119.377 103.417 119.987 103.042C120.597 102.667 121.311 102.479 122.129 102.479C122.947 102.479 123.661 102.667 124.271 103.042C124.881 103.417 125.354 103.943 125.691 104.621C126.029 105.299 126.197 106.091 126.197 106.996C126.197 107.898 126.029 108.686 125.691 109.36C125.354 110.034 124.881 110.559 124.271 110.934C123.661 111.309 122.947 111.496 122.129 111.496ZM122.135 110.07C122.665 110.07 123.104 109.93 123.453 109.65C123.801 109.37 124.059 108.996 124.226 108.531C124.396 108.065 124.481 107.551 124.481 106.991C124.481 106.434 124.396 105.923 124.226 105.457C124.059 104.987 123.801 104.61 123.453 104.326C123.104 104.042 122.665 103.9 122.135 103.9C121.601 103.9 121.157 104.042 120.805 104.326C120.457 104.61 120.197 104.987 120.027 105.457C119.86 105.923 119.777 106.434 119.777 106.991C119.777 107.551 119.86 108.065 120.027 108.531C120.197 108.996 120.457 109.37 120.805 109.65C121.157 109.93 121.601 110.07 122.135 110.07ZM131.594 111.496C130.749 111.496 130.022 111.305 129.412 110.923C128.806 110.536 128.34 110.004 128.014 109.326C127.688 108.648 127.525 107.871 127.525 106.996C127.525 106.11 127.692 105.328 128.025 104.65C128.359 103.968 128.828 103.436 129.434 103.053C130.041 102.671 130.755 102.479 131.577 102.479C132.239 102.479 132.83 102.603 133.349 102.849C133.868 103.091 134.287 103.432 134.605 103.871C134.927 104.311 135.118 104.824 135.179 105.411H133.525C133.434 105.002 133.226 104.65 132.9 104.354C132.578 104.059 132.147 103.911 131.605 103.911C131.131 103.911 130.717 104.036 130.361 104.286C130.008 104.532 129.734 104.885 129.537 105.343C129.34 105.798 129.241 106.335 129.241 106.957C129.241 107.593 129.338 108.142 129.531 108.604C129.724 109.067 129.997 109.424 130.349 109.678C130.705 109.932 131.124 110.059 131.605 110.059C131.927 110.059 132.219 110 132.48 109.883C132.745 109.762 132.967 109.589 133.145 109.366C133.327 109.142 133.453 108.873 133.525 108.559H135.179C135.118 109.123 134.934 109.627 134.628 110.07C134.321 110.513 133.91 110.862 133.395 111.116C132.883 111.37 132.283 111.496 131.594 111.496ZM145.242 111.32L147.151 99.6839H148.514L146.605 111.32H145.242ZM139.975 108.207L140.196 106.843H149.014L148.793 108.207H139.975ZM141.151 111.32L143.06 99.6839H144.423L142.514 111.32H141.151ZM140.651 104.161L140.872 102.798H149.69L149.469 104.161H140.651ZM154.918 111.479C154.138 111.479 153.441 111.345 152.827 111.076C152.217 110.807 151.734 110.434 151.378 109.957C151.026 109.476 150.836 108.919 150.81 108.286H152.594C152.617 108.631 152.732 108.93 152.941 109.184C153.153 109.434 153.429 109.627 153.77 109.763C154.111 109.9 154.49 109.968 154.906 109.968C155.365 109.968 155.77 109.888 156.122 109.729C156.478 109.57 156.757 109.349 156.958 109.065C157.158 108.777 157.259 108.445 157.259 108.07C157.259 107.68 157.158 107.337 156.958 107.042C156.761 106.743 156.471 106.508 156.088 106.337C155.709 106.167 155.251 106.082 154.713 106.082H153.73V104.65H154.713C155.145 104.65 155.524 104.572 155.85 104.417C156.179 104.262 156.437 104.046 156.622 103.769C156.808 103.489 156.901 103.161 156.901 102.786C156.901 102.426 156.819 102.114 156.656 101.849C156.497 101.58 156.27 101.37 155.975 101.218C155.683 101.067 155.338 100.991 154.941 100.991C154.562 100.991 154.208 101.061 153.878 101.201C153.552 101.337 153.287 101.534 153.083 101.792C152.878 102.046 152.768 102.351 152.753 102.707H151.054C151.073 102.078 151.259 101.525 151.611 101.048C151.967 100.57 152.437 100.197 153.02 99.9283C153.603 99.6593 154.251 99.5249 154.963 99.5249C155.709 99.5249 156.353 99.6707 156.895 99.9624C157.441 100.25 157.861 100.635 158.156 101.116C158.456 101.597 158.603 102.123 158.6 102.695C158.603 103.347 158.422 103.9 158.054 104.354C157.691 104.809 157.206 105.114 156.6 105.269V105.36C157.372 105.478 157.971 105.784 158.395 106.281C158.823 106.777 159.035 107.392 159.031 108.127C159.035 108.767 158.857 109.341 158.497 109.849C158.141 110.356 157.655 110.756 157.037 111.048C156.42 111.335 155.713 111.479 154.918 111.479ZM38.0043 133.184C37.5459 133.184 37.1274 133.072 36.7486 132.849C36.3698 132.621 36.0668 132.318 35.8395 131.94C35.616 131.561 35.5043 131.142 35.5043 130.684C35.5043 130.222 35.616 129.803 35.8395 129.428C36.0668 129.049 36.3698 128.748 36.7486 128.525C37.1274 128.298 37.5459 128.184 38.0043 128.184C38.4664 128.184 38.8849 128.298 39.2599 128.525C39.6387 128.748 39.9399 129.049 40.1634 129.428C40.3906 129.803 40.5043 130.222 40.5043 130.684C40.5043 131.142 40.3906 131.561 40.1634 131.94C39.9399 132.318 39.6387 132.621 39.2599 132.849C38.8849 133.072 38.4664 133.184 38.0043 133.184ZM52.2614 135.32H50.3977L54.5852 123.684H56.6136L60.8011 135.32H58.9375L55.6477 125.798H55.5568L52.2614 135.32ZM52.5739 130.763H58.6193V132.241H52.5739V130.763ZM66.0726 135.32H62.3055V123.684H66.1919C67.3321 123.684 68.3112 123.917 69.1294 124.383C69.9476 124.845 70.5745 125.51 71.0101 126.377C71.4495 127.241 71.6692 128.277 71.6692 129.485C71.6692 130.697 71.4476 131.739 71.0044 132.61C70.565 133.481 69.9286 134.152 69.0953 134.621C68.262 135.087 67.2544 135.32 66.0726 135.32ZM64.0612 133.786H65.976C66.8624 133.786 67.5991 133.62 68.1862 133.286C68.7733 132.949 69.2127 132.462 69.5044 131.826C69.7961 131.186 69.9419 130.406 69.9419 129.485C69.9419 128.572 69.7961 127.798 69.5044 127.161C69.2165 126.525 68.7866 126.042 68.2146 125.712C67.6427 125.383 66.9324 125.218 66.0839 125.218H64.0612V133.786ZM73.6764 135.32V123.684H77.8241C78.7257 123.684 79.4738 123.839 80.0685 124.15C80.6669 124.46 81.1139 124.89 81.4094 125.44C81.7048 125.985 81.8525 126.616 81.8525 127.332C81.8525 128.044 81.7029 128.671 81.4037 129.212C81.1082 129.75 80.6613 130.169 80.0628 130.468C79.4681 130.767 78.72 130.917 77.8185 130.917H74.6764V129.406H77.6594C78.2275 129.406 78.6897 129.324 79.0457 129.161C79.4056 128.998 79.6688 128.762 79.8355 128.451C80.0022 128.14 80.0855 127.767 80.0855 127.332C80.0855 126.892 80.0003 126.512 79.8298 126.19C79.6632 125.868 79.3999 125.621 79.04 125.451C78.684 125.277 78.2162 125.19 77.6366 125.19H75.4321V135.32H73.6764ZM79.4207 130.07L82.2957 135.32H80.2957L77.4775 130.07H79.4207ZM92.0986 135.32L94.0076 123.684H95.3713L93.4622 135.32H92.0986ZM86.8315 132.207L87.0531 130.843H95.8713L95.6497 132.207H86.8315ZM88.0076 135.32L89.9167 123.684H91.2804L89.3713 135.32H88.0076ZM87.5076 128.161L87.7292 126.798H96.5474L96.3258 128.161H87.5076ZM101.565 135.479C100.852 135.479 100.212 135.343 99.6442 135.07C99.0798 134.794 98.629 134.415 98.2919 133.934C97.9548 133.453 97.7748 132.904 97.7521 132.286H99.4567C99.4983 132.786 99.7199 133.197 100.121 133.519C100.523 133.841 101.004 134.002 101.565 134.002C102.012 134.002 102.407 133.9 102.752 133.695C103.101 133.487 103.373 133.201 103.57 132.837C103.771 132.474 103.871 132.059 103.871 131.593C103.871 131.12 103.769 130.697 103.565 130.326C103.36 129.955 103.078 129.663 102.718 129.451C102.362 129.239 101.953 129.131 101.491 129.127C101.138 129.127 100.784 129.188 100.428 129.309C100.072 129.43 99.7843 129.589 99.5646 129.786L97.9567 129.548L98.6101 123.684H105.008V125.19H100.07L99.701 128.445H99.7692C99.9964 128.226 100.298 128.042 100.673 127.894C101.051 127.746 101.457 127.673 101.888 127.673C102.597 127.673 103.227 127.841 103.781 128.178C104.337 128.515 104.775 128.976 105.093 129.559C105.415 130.138 105.574 130.805 105.57 131.559C105.574 132.313 105.404 132.985 105.059 133.576C104.718 134.167 104.245 134.633 103.638 134.974C103.036 135.311 102.345 135.479 101.565 135.479ZM38.0043 157.184C37.5459 157.184 37.1274 157.072 36.7486 156.849C36.3698 156.621 36.0668 156.318 35.8395 155.94C35.616 155.561 35.5043 155.142 35.5043 154.684C35.5043 154.222 35.616 153.803 35.8395 153.428C36.0668 153.049 36.3698 152.748 36.7486 152.525C37.1274 152.298 37.5459 152.184 38.0043 152.184C38.4664 152.184 38.8849 152.298 39.2599 152.525C39.6387 152.748 39.9399 153.049 40.1634 153.428C40.3906 153.803 40.5043 154.222 40.5043 154.684C40.5043 155.142 40.3906 155.561 40.1634 155.94C39.9399 156.318 39.6387 156.621 39.2599 156.849C38.8849 157.072 38.4664 157.184 38.0043 157.184ZM52.2614 159.32H50.3977L54.5852 147.684H56.6136L60.8011 159.32H58.9375L55.6477 149.798H55.5568L52.2614 159.32ZM52.5739 154.763H58.6193V156.241H52.5739V154.763ZM66.0726 159.32H62.3055V147.684H66.1919C67.3321 147.684 68.3112 147.917 69.1294 148.383C69.9476 148.845 70.5745 149.51 71.0101 150.377C71.4495 151.241 71.6692 152.277 71.6692 153.485C71.6692 154.697 71.4476 155.739 71.0044 156.61C70.565 157.481 69.9286 158.152 69.0953 158.621C68.262 159.087 67.2544 159.32 66.0726 159.32ZM64.0612 157.786H65.976C66.8624 157.786 67.5991 157.62 68.1862 157.286C68.7733 156.949 69.2127 156.462 69.5044 155.826C69.7961 155.186 69.9419 154.406 69.9419 153.485C69.9419 152.572 69.7961 151.798 69.5044 151.161C69.2165 150.525 68.7866 150.042 68.2146 149.712C67.6427 149.383 66.9324 149.218 66.0839 149.218H64.0612V157.786ZM73.6764 159.32V147.684H77.8241C78.7257 147.684 79.4738 147.839 80.0685 148.15C80.6669 148.46 81.1139 148.89 81.4094 149.44C81.7048 149.985 81.8525 150.616 81.8525 151.332C81.8525 152.044 81.7029 152.671 81.4037 153.212C81.1082 153.75 80.6613 154.169 80.0628 154.468C79.4681 154.767 78.72 154.917 77.8185 154.917H74.6764V153.406H77.6594C78.2275 153.406 78.6897 153.324 79.0457 153.161C79.4056 152.998 79.6688 152.762 79.8355 152.451C80.0022 152.14 80.0855 151.767 80.0855 151.332C80.0855 150.892 80.0003 150.512 79.8298 150.19C79.6632 149.868 79.3999 149.621 79.04 149.451C78.684 149.277 78.2162 149.19 77.6366 149.19H75.4321V159.32H73.6764ZM79.4207 154.07L82.2957 159.32H80.2957L77.4775 154.07H79.4207ZM92.0986 159.32L94.0076 147.684H95.3713L93.4622 159.32H92.0986ZM86.8315 156.207L87.0531 154.843H95.8713L95.6497 156.207H86.8315ZM88.0076 159.32L89.9167 147.684H91.2804L89.3713 159.32H88.0076ZM87.5076 152.161L87.7292 150.798H96.5474L96.3258 152.161H87.5076ZM101.656 159.479C100.841 159.479 100.121 159.339 99.4964 159.059C98.8752 158.779 98.3885 158.392 98.0362 157.9C97.6839 157.407 97.5097 156.847 97.5135 156.218C97.5097 155.726 97.6101 155.273 97.8146 154.86C98.0229 154.443 98.3051 154.097 98.6612 153.82C99.0173 153.54 99.415 153.362 99.8544 153.286V153.218C99.2748 153.078 98.8108 152.767 98.4623 152.286C98.1138 151.805 97.9415 151.252 97.9453 150.627C97.9415 150.032 98.0987 149.502 98.4169 149.036C98.7388 148.567 99.1801 148.197 99.7407 147.928C100.301 147.659 100.94 147.525 101.656 147.525C102.364 147.525 102.996 147.661 103.553 147.934C104.114 148.203 104.555 148.572 104.877 149.042C105.199 149.508 105.362 150.036 105.366 150.627C105.362 151.252 105.184 151.805 104.832 152.286C104.479 152.767 104.021 153.078 103.457 153.218V153.286C103.892 153.362 104.284 153.54 104.633 153.82C104.985 154.097 105.265 154.443 105.474 154.86C105.686 155.273 105.794 155.726 105.798 156.218C105.794 156.847 105.616 157.407 105.263 157.9C104.911 158.392 104.423 158.779 103.798 159.059C103.176 159.339 102.462 159.479 101.656 159.479ZM101.656 158.042C102.137 158.042 102.553 157.962 102.906 157.803C103.258 157.64 103.531 157.415 103.724 157.127C103.917 156.835 104.015 156.495 104.019 156.104C104.015 155.699 103.909 155.341 103.701 155.031C103.496 154.72 103.218 154.476 102.866 154.298C102.513 154.12 102.11 154.031 101.656 154.031C101.197 154.031 100.79 154.12 100.434 154.298C100.078 154.476 99.7976 154.72 99.593 155.031C99.3885 155.341 99.2881 155.699 99.2919 156.104C99.2881 156.495 99.3809 156.835 99.5703 157.127C99.7635 157.415 100.038 157.64 100.394 157.803C100.75 157.962 101.171 158.042 101.656 158.042ZM101.656 152.627C102.042 152.627 102.385 152.549 102.684 152.394C102.983 152.239 103.218 152.023 103.388 151.746C103.563 151.47 103.652 151.146 103.656 150.775C103.652 150.411 103.565 150.093 103.394 149.82C103.227 149.548 102.995 149.337 102.695 149.19C102.396 149.038 102.049 148.962 101.656 148.962C101.254 148.962 100.902 149.038 100.599 149.19C100.299 149.337 100.066 149.548 99.8998 149.82C99.7332 150.093 99.6517 150.411 99.6555 150.775C99.6517 151.146 99.7351 151.47 99.9055 151.746C100.076 152.023 100.311 152.239 100.61 152.394C100.913 152.549 101.262 152.627 101.656 152.627Z" fill="#1E1E1E"/>
<path d="M164.5 211.957C164.5 214.427 162.485 216.797 158.919 218.58C155.382 220.349 150.462 221.457 145 221.457C139.538 221.457 134.618 220.349 131.081 218.58C127.515 216.797 125.5 214.427 125.5 211.957C125.5 209.487 127.515 207.116 131.081 205.333C134.618 203.565 139.538 202.457 145 202.457C150.462 202.457 155.382 203.565 158.919 205.333C162.485 207.116 164.5 209.487 164.5 211.957Z" stroke="black"/>
<path d="M164.5 231.957C164.5 237.479 155.77 241.957 145 241.957C134.23 241.957 125.5 237.479 125.5 231.957" stroke="black"/>
<line x1="125.5" y1="231.957" x2="125.5" y2="211.957" stroke="black"/>
<line x1="164.5" y1="231.957" x2="164.5" y2="211.957" stroke="black"/>
<rect x="76.5" y="215.457" width="29" height="19" rx="7.5" stroke="black"/>
<path d="M126 224.957L121 222.07L121 227.843L126 224.957ZM106 225.457L121.5 225.457L121.5 224.457L106 224.457L106 225.457Z" fill="black"/>
<rect x="26.5" y="215.457" width="29" height="19" rx="7.5" stroke="black"/>
<path d="M76 224.957L71 222.07L71 227.843L76 224.957ZM56 225.457L71.5 225.457L71.5 224.457L56 224.457L56 225.457Z" fill="black"/>
<path d="M40.896 182.338C40.768 182.482 40.576 182.722 40.464 182.898C39.824 183.986 38.304 186.05 36.48 187.314L35.408 186.466C36.896 185.618 38.4 183.89 38.912 182.898C37.792 182.898 30.56 182.898 29.792 182.898C29.2 182.898 28.608 182.93 27.984 182.978V181.538C28.544 181.618 29.2 181.682 29.792 181.682C30.56 181.682 38.032 181.682 38.992 181.682C39.296 181.682 39.872 181.634 40.096 181.57L40.896 182.338ZM34.496 184.434C34.496 188.77 34.112 191.698 30.032 193.746L28.864 192.786C29.296 192.642 29.856 192.37 30.304 192.066C32.768 190.546 33.12 188.274 33.12 185.602C33.12 185.218 33.12 184.866 33.056 184.434H34.496ZM42.4869 186.21C42.9829 186.258 43.8149 186.306 44.7269 186.306C45.8949 186.306 52.3109 186.306 53.4949 186.306C54.2949 186.306 54.8549 186.242 55.2229 186.21V187.778C54.8869 187.762 54.2149 187.714 53.5109 187.714C52.2949 187.714 45.9109 187.714 44.7269 187.714C43.8469 187.714 42.9989 187.746 42.4869 187.778V186.21ZM62.9509 181.826C62.8709 181.426 62.7749 181.074 62.6629 180.738L64.0869 180.498C64.1189 180.786 64.1829 181.25 64.2469 181.602C64.3429 182.306 66.1029 191.09 66.3269 192.146C66.4389 192.594 66.5669 193.138 66.7269 193.602L65.2549 193.874C65.1749 193.33 65.1269 192.834 65.0149 192.37C64.8549 191.362 63.1429 182.658 62.9509 181.826ZM58.4389 184.146C58.8389 184.114 59.2709 184.082 59.7829 184.034C61.2229 183.874 66.7429 182.994 68.2629 182.69C68.7269 182.61 69.1429 182.514 69.4149 182.434L69.6709 183.778C69.4309 183.794 68.9509 183.874 68.5189 183.938C66.8709 184.194 61.4149 185.058 60.0069 185.298C59.5749 185.378 59.1909 185.458 58.7269 185.57L58.4389 184.146ZM58.3909 188.754C58.7749 188.738 59.3829 188.674 59.7989 188.61C61.5109 188.386 67.4629 187.41 69.3829 187.058C69.9909 186.946 70.4549 186.834 70.7909 186.738L71.0629 188.082C70.7269 188.114 70.2149 188.21 69.6229 188.306C67.4949 188.626 61.7189 189.57 60.1029 189.858C59.4789 189.97 59.0309 190.066 58.6789 190.162L58.3909 188.754ZM75.9429 181.314C76.4069 181.362 76.8709 181.394 77.3989 181.394C78.3269 181.394 82.9829 181.394 83.8789 181.394C84.3269 181.394 84.9029 181.362 85.3669 181.314V182.642C84.8869 182.61 84.3269 182.578 83.8789 182.578C82.9829 182.578 78.3269 182.578 77.4149 182.578C76.8869 182.578 76.3589 182.61 75.9429 182.642V181.314ZM74.0389 185.33C74.4709 185.378 74.9349 185.394 75.4309 185.394C76.3589 185.394 85.0469 185.394 85.8949 185.394C86.2309 185.394 86.7589 185.378 87.1589 185.33V186.642C86.7909 186.626 86.2949 186.61 85.8949 186.61C85.0469 186.61 76.3589 186.61 75.4309 186.61C74.9509 186.61 74.4709 186.626 74.0389 186.658V185.33ZM81.5749 185.97C81.5749 187.986 81.3189 189.65 80.5989 190.994C80.0229 192.066 78.8069 193.202 77.4629 193.906L76.2789 193.042C77.5109 192.514 78.6629 191.602 79.2869 190.578C80.0869 189.314 80.2149 187.746 80.2309 185.986L81.5749 185.97ZM102.279 183.138C102.151 183.362 101.991 183.73 101.911 183.986C101.479 185.602 100.503 187.762 99.0789 189.506C97.6229 191.282 95.7029 192.738 92.7109 193.858L91.5429 192.802C94.4869 191.938 96.4709 190.498 97.9429 188.786C99.1749 187.33 100.167 185.25 100.487 183.794H94.5669L95.0789 182.642C95.7189 182.642 99.6709 182.642 100.167 182.642C100.599 182.642 100.967 182.594 101.223 182.498L102.279 183.138ZM96.9189 180.722C96.6629 181.138 96.3749 181.682 96.2149 181.97C95.2709 183.746 93.6069 186.034 91.0309 187.73L89.9109 186.914C92.6789 185.266 94.2469 182.93 94.9509 181.506C95.1109 181.218 95.3509 180.642 95.4469 180.226L96.9189 180.722ZM106.823 182.018C108.023 182.082 110.455 182.018 112.199 181.778C113.655 181.586 115.527 181.202 116.311 180.85L117.159 181.97C116.807 182.066 116.503 182.146 116.263 182.21C115.335 182.434 113.847 182.722 112.567 182.898C110.775 183.138 108.567 183.186 107.143 183.218L106.823 182.018ZM107.719 192.93C110.439 191.65 111.799 189.65 111.799 186.354C111.799 186.354 111.799 184.914 111.799 182.722L113.079 182.546C113.079 183.794 113.079 186.322 113.079 186.322C113.079 189.73 111.959 192.082 108.967 193.794L107.719 192.93ZM105.575 185.826C105.927 185.858 106.487 185.906 106.983 185.906C108.007 185.906 116.519 185.906 117.511 185.906C117.847 185.906 118.439 185.874 118.775 185.842V187.154C118.423 187.122 117.927 187.106 117.527 187.106C116.567 187.106 107.991 187.106 106.999 187.106C106.487 187.106 105.959 187.122 105.575 187.154V185.826ZM125.995 183.346C126.027 183.634 126.123 183.97 126.219 184.386C126.587 185.714 128.331 192.05 128.667 193.138C128.763 193.442 128.907 193.938 129.019 194.226L127.643 194.594C127.611 194.226 127.531 193.81 127.419 193.426C127.083 192.274 125.371 185.826 125.003 184.642C124.891 184.258 124.763 183.938 124.619 183.682L125.995 183.346ZM133.675 185.554C133.003 186.898 131.355 189.154 130.251 190.226L129.131 189.65C130.123 188.802 131.339 187.314 131.883 186.37C131.179 186.498 123.691 188.002 122.555 188.242L122.235 187.026C122.683 186.978 123.083 186.93 123.563 186.834C124.363 186.706 131.339 185.394 132.251 185.186C132.459 185.138 132.699 185.058 132.859 184.978L133.675 185.554Z" fill="#1E1E1E"/>
<path d="M28.2784 260.428C27.9678 260.428 27.7008 260.318 27.4773 260.099C27.2538 259.875 27.142 259.606 27.142 259.292C27.142 258.981 27.2538 258.716 27.4773 258.496C27.7008 258.273 27.9678 258.161 28.2784 258.161C28.589 258.161 28.8561 258.273 29.0795 258.496C29.303 258.716 29.4148 258.981 29.4148 259.292C29.4148 259.5 29.3617 259.692 29.2557 259.866C29.1534 260.036 29.017 260.173 28.8466 260.275C28.6761 260.377 28.4867 260.428 28.2784 260.428ZM32.5227 260.428C32.2121 260.428 31.9451 260.318 31.7216 260.099C31.4981 259.875 31.3864 259.606 31.3864 259.292C31.3864 258.981 31.4981 258.716 31.7216 258.496C31.9451 258.273 32.2121 258.161 32.5227 258.161C32.8333 258.161 33.1004 258.273 33.3239 258.496C33.5473 258.716 33.6591 258.981 33.6591 259.292C33.6591 259.5 33.6061 259.692 33.5 259.866C33.3977 260.036 33.2614 260.173 33.0909 260.275C32.9205 260.377 32.7311 260.428 32.5227 260.428ZM36.7727 260.428C36.4621 260.428 36.1951 260.318 35.9716 260.099C35.7481 259.875 35.6364 259.606 35.6364 259.292C35.6364 258.981 35.7481 258.716 35.9716 258.496C36.1951 258.273 36.4621 258.161 36.7727 258.161C37.0833 258.161 37.3504 258.273 37.5739 258.496C37.7973 258.716 37.9091 258.981 37.9091 259.292C37.9091 259.5 37.8561 259.692 37.75 259.866C37.6477 260.036 37.5114 260.173 37.3409 260.275C37.1705 260.377 36.9811 260.428 36.7727 260.428Z" fill="#1E1E1E"/>
</svg>
