<svg width="598" height="216" viewBox="0 0 598 216" fill="none" xmlns="http://www.w3.org/2000/svg">
<path d="M160 40.5C159.172 40.5 158.5 41.1716 158.5 42C158.5 42.8284 159.172 43.5 160 43.5V40.5ZM160 43.5H598V40.5H160V43.5Z" fill="#B3B3B3"/>
<path d="M578.053 50.8065L596.053 44.809C598.649 43.8357 598.649 40.1643 596.053 39.191L578.053 33.1935C576.092 32.458 574 33.9079 574 36.0025L574 47.9975C574 50.0921 576.092 51.542 578.053 50.8065Z" fill="#B3B3B3"/>
<path d="M6.84 44.496H17.256V43.464H6.84V44.496ZM6.84 41.784H17.256V40.752H6.84V41.784ZM20.112 38.976V46.272H4.128V38.976H20.112ZM18.168 34.176C17.64 35.088 17.184 35.832 16.824 36.408L14.28 35.856C14.592 35.184 14.976 34.272 15.168 33.624L18.168 34.176ZM8.784 33.624C9.144 34.32 9.48 35.232 9.624 35.832L6.888 36.456C6.792 35.808 6.48 34.872 6.144 34.152L8.784 33.624ZM13.416 30.624V33.504H10.512V30.624H13.416ZM22.464 35.856V38.088H1.608V35.856H22.464ZM21.168 31.896V34.128H2.76V31.896H21.168ZM6.216 47.952C5.568 49.776 4.584 51.552 2.88 52.68L0.648 51.168C2.16 50.232 3.24 48.672 3.816 47.064L6.216 47.952ZM19.392 46.776C20.856 48.024 22.56 49.8 23.328 51.144L20.928 52.536C20.256 51.24 18.624 49.344 17.16 48.024L19.392 46.776ZM11.04 45.744C12.384 46.296 14.136 47.232 15.048 47.952L13.392 49.632C12.552 48.912 10.848 47.904 9.504 47.256L11.04 45.744ZM9.648 49.896C9.648 50.52 9.84 50.592 10.944 50.592C11.448 50.592 13.584 50.592 14.256 50.592C15.12 50.592 15.288 50.328 15.408 48.624C15.984 49.008 17.112 49.392 17.832 49.536C17.544 52.248 16.776 52.92 14.52 52.92C13.872 52.92 11.232 52.92 10.632 52.92C7.584 52.92 6.84 52.2 6.84 49.92V47.4H9.648V49.896ZM30.312 45.384H33.216V49.296C33.216 50.016 33.432 50.088 34.608 50.088C35.136 50.088 37.344 50.088 38.04 50.088C39.048 50.088 39.216 49.752 39.36 47.352C39.96 47.784 41.184 48.24 41.976 48.408C41.64 51.84 40.824 52.704 38.28 52.704C37.608 52.704 34.896 52.704 34.272 52.704C31.08 52.704 30.312 51.888 30.312 49.32V45.384ZM32.688 44.64L34.584 42.864C36.288 43.704 38.4 45.048 39.432 46.128L37.368 48.096C36.432 47.04 34.392 45.576 32.688 44.64ZM41.04 45.672L43.608 44.616C44.928 46.392 46.296 48.744 46.776 50.448L43.968 51.624C43.56 50.016 42.312 47.544 41.04 45.672ZM26.928 44.76L29.52 45.696C28.968 47.76 28.128 50.184 26.976 51.792L24.408 50.352C25.512 48.912 26.424 46.728 26.928 44.76ZM29.52 38.496V40.56H41.232V38.496H29.52ZM29.52 34.128V36.168H41.232V34.128H29.52ZM26.808 31.632H44.088V43.056H26.808V31.632ZM34.032 32.736H36.84V42.024H34.032V32.736ZM55.848 34.32H68.52V42.528H65.712V37.008H55.848V34.32ZM54.648 41.376H70.344V44.088H54.648V41.376ZM59.856 30.624H62.736V39.024C62.736 44.256 62.064 49.752 55.8 53.232C55.272 52.632 54.144 51.648 53.4 51.192C59.256 48.12 59.856 43.56 59.856 39V30.624ZM64.032 42.888C65.064 46.392 67.248 49.32 70.584 50.688C69.912 51.264 69 52.416 68.568 53.208C64.872 51.408 62.664 48 61.368 43.536L64.032 42.888ZM49.128 32.856L50.688 30.744C52.176 31.32 54.12 32.304 55.08 33.12L53.424 35.472C52.536 34.632 50.64 33.528 49.128 32.856ZM47.736 39.384L49.296 37.224C50.784 37.752 52.776 38.712 53.76 39.504L52.104 41.904C51.192 41.088 49.272 40.032 47.736 39.384ZM48.432 51.024C49.632 49.2 51.336 46.152 52.656 43.344L54.864 45.144C53.688 47.688 52.272 50.472 50.928 52.848L48.432 51.024ZM75.984 37.872H89.256V40.608H75.984V37.872ZM82.608 43.632H90.72V46.32H82.608V43.632ZM81.096 39.456H84.12V51.048L81.096 50.688V39.456ZM75.36 41.952L78.384 42.264C77.76 47.136 76.272 50.952 73.536 53.304C73.056 52.8 71.832 51.768 71.16 51.336C73.752 49.416 74.952 46.08 75.36 41.952ZM77.688 44.952C79.224 49.368 82.584 50.04 86.856 50.04C88.128 50.04 92.136 50.04 93.744 49.992C93.336 50.664 92.856 52.056 92.736 52.92H86.688C81.144 52.92 77.4 51.792 75.336 45.744L77.688 44.952ZM81.048 30.648H84.12V35.04H81.048V30.648ZM72.312 33.072H92.952V39.096H89.976V35.808H75.144V39.096H72.312V33.072Z" fill="#1E1E1E"/>
<path d="M196.943 18V16.2273L201.085 12.392C201.438 12.0511 201.733 11.7443 201.972 11.4716C202.214 11.1989 202.398 10.9318 202.523 10.6705C202.648 10.4053 202.71 10.1193 202.71 9.8125C202.71 9.47159 202.633 9.17803 202.477 8.93182C202.322 8.68182 202.11 8.49053 201.841 8.35795C201.572 8.22159 201.267 8.15341 200.926 8.15341C200.57 8.15341 200.259 8.22538 199.994 8.36932C199.729 8.51326 199.525 8.7197 199.381 8.98864C199.237 9.25758 199.165 9.57765 199.165 9.94886H196.83C196.83 9.1875 197.002 8.52652 197.347 7.96591C197.691 7.4053 198.174 6.97159 198.795 6.66477C199.417 6.35795 200.133 6.20455 200.943 6.20455C201.777 6.20455 202.502 6.35227 203.119 6.64773C203.741 6.93939 204.223 7.3447 204.568 7.86364C204.913 8.38258 205.085 8.97727 205.085 9.64773C205.085 10.0871 204.998 10.5208 204.824 10.9489C204.653 11.3769 204.348 11.8523 203.909 12.375C203.47 12.8939 202.85 13.517 202.051 14.2443L200.352 15.9091V15.9886H205.239V18H196.943ZM211.018 18.1591C210.17 18.1591 209.414 18.0133 208.751 17.7216C208.092 17.4261 207.571 17.0208 207.189 16.5057C206.81 15.9867 206.615 15.3883 206.604 14.7102H209.081C209.096 14.9943 209.189 15.2443 209.359 15.4602C209.534 15.6723 209.765 15.8371 210.053 15.9545C210.34 16.072 210.664 16.1307 211.024 16.1307C211.399 16.1307 211.731 16.0644 212.018 15.9318C212.306 15.7992 212.532 15.6155 212.695 15.3807C212.857 15.1458 212.939 14.875 212.939 14.5682C212.939 14.2576 212.852 13.983 212.678 13.7443C212.507 13.5019 212.261 13.3125 211.939 13.1761C211.621 13.0398 211.242 12.9716 210.803 12.9716H209.717V11.1648H210.803C211.174 11.1648 211.501 11.1004 211.785 10.9716C212.073 10.8428 212.297 10.6648 212.456 10.4375C212.615 10.2064 212.695 9.9375 212.695 9.63068C212.695 9.33902 212.625 9.08333 212.484 8.86364C212.348 8.64015 212.155 8.46591 211.905 8.34091C211.659 8.21591 211.371 8.15341 211.041 8.15341C210.708 8.15341 210.403 8.21402 210.126 8.33523C209.85 8.45265 209.628 8.62121 209.462 8.84091C209.295 9.06061 209.206 9.31818 209.195 9.61364H206.837C206.848 8.94318 207.039 8.35227 207.41 7.84091C207.782 7.32955 208.282 6.92992 208.91 6.64205C209.543 6.35038 210.257 6.20455 211.053 6.20455C211.856 6.20455 212.558 6.35038 213.16 6.64205C213.763 6.93371 214.231 7.32765 214.564 7.82386C214.901 8.31629 215.068 8.86932 215.064 9.48295C215.068 10.1345 214.865 10.678 214.456 11.1136C214.051 11.5492 213.522 11.8258 212.871 11.9432V12.0341C213.727 12.1439 214.378 12.4413 214.825 12.9261C215.276 13.4072 215.5 14.0095 215.496 14.733C215.5 15.3958 215.308 15.9848 214.922 16.5C214.539 17.0152 214.011 17.4205 213.337 17.7159C212.662 18.0114 211.89 18.1591 211.018 18.1591ZM222.051 5.81818L218.301 19.75H216.216L219.966 5.81818H222.051ZM227.953 6.36364V18H225.493V8.69886H225.425L222.76 10.3693V8.1875L225.641 6.36364H227.953ZM235.477 6.36364V18H233.017V8.69886H232.949L230.284 10.3693V8.1875L233.165 6.36364H235.477ZM243.03 5.81818L239.28 19.75H237.194L240.944 5.81818H243.03ZM248.432 18.2557C247.454 18.2519 246.613 18.0114 245.909 17.5341C245.208 17.0568 244.668 16.3655 244.29 15.4602C243.915 14.5549 243.729 13.4659 243.733 12.1932C243.733 10.9242 243.92 9.8428 244.295 8.94886C244.674 8.05492 245.214 7.375 245.915 6.90909C246.619 6.43939 247.458 6.20455 248.432 6.20455C249.405 6.20455 250.242 6.43939 250.943 6.90909C251.648 7.37879 252.189 8.06061 252.568 8.95455C252.947 9.8447 253.134 10.9242 253.131 12.1932C253.131 13.4697 252.941 14.5606 252.562 15.4659C252.187 16.3712 251.649 17.0625 250.949 17.5398C250.248 18.017 249.409 18.2557 248.432 18.2557ZM248.432 16.2159C249.098 16.2159 249.631 15.8807 250.028 15.2102C250.426 14.5398 250.623 13.5341 250.619 12.1932C250.619 11.3106 250.528 10.5758 250.346 9.98864C250.168 9.40151 249.915 8.96023 249.585 8.66477C249.259 8.36932 248.875 8.22159 248.432 8.22159C247.769 8.22159 247.238 8.55303 246.841 9.21591C246.443 9.87879 246.242 10.8712 246.238 12.1932C246.238 13.0871 246.328 13.8333 246.506 14.4318C246.687 15.0265 246.943 15.4735 247.273 15.7727C247.602 16.0682 247.988 16.2159 248.432 16.2159ZM259.643 6.36364V18H257.183V8.69886H257.115L254.45 10.3693V8.1875L257.331 6.36364H259.643Z" fill="#E24536"/>
<path d="M349.943 18V16.2273L354.085 12.392C354.438 12.0511 354.733 11.7443 354.972 11.4716C355.214 11.1989 355.398 10.9318 355.523 10.6705C355.648 10.4053 355.71 10.1193 355.71 9.8125C355.71 9.47159 355.633 9.17803 355.477 8.93182C355.322 8.68182 355.11 8.49053 354.841 8.35795C354.572 8.22159 354.267 8.15341 353.926 8.15341C353.57 8.15341 353.259 8.22538 352.994 8.36932C352.729 8.51326 352.525 8.7197 352.381 8.98864C352.237 9.25758 352.165 9.57765 352.165 9.94886H349.83C349.83 9.1875 350.002 8.52652 350.347 7.96591C350.691 7.4053 351.174 6.97159 351.795 6.66477C352.417 6.35795 353.133 6.20455 353.943 6.20455C354.777 6.20455 355.502 6.35227 356.119 6.64773C356.741 6.93939 357.223 7.3447 357.568 7.86364C357.913 8.38258 358.085 8.97727 358.085 9.64773C358.085 10.0871 357.998 10.5208 357.824 10.9489C357.653 11.3769 357.348 11.8523 356.909 12.375C356.47 12.8939 355.85 13.517 355.051 14.2443L353.352 15.9091V15.9886H358.239V18H349.943ZM364.018 18.1591C363.17 18.1591 362.414 18.0133 361.751 17.7216C361.092 17.4261 360.571 17.0208 360.189 16.5057C359.81 15.9867 359.615 15.3883 359.604 14.7102H362.081C362.096 14.9943 362.189 15.2443 362.359 15.4602C362.534 15.6723 362.765 15.8371 363.053 15.9545C363.34 16.072 363.664 16.1307 364.024 16.1307C364.399 16.1307 364.731 16.0644 365.018 15.9318C365.306 15.7992 365.532 15.6155 365.695 15.3807C365.857 15.1458 365.939 14.875 365.939 14.5682C365.939 14.2576 365.852 13.983 365.678 13.7443C365.507 13.5019 365.261 13.3125 364.939 13.1761C364.621 13.0398 364.242 12.9716 363.803 12.9716H362.717V11.1648H363.803C364.174 11.1648 364.501 11.1004 364.785 10.9716C365.073 10.8428 365.297 10.6648 365.456 10.4375C365.615 10.2064 365.695 9.9375 365.695 9.63068C365.695 9.33902 365.625 9.08333 365.484 8.86364C365.348 8.64015 365.155 8.46591 364.905 8.34091C364.659 8.21591 364.371 8.15341 364.041 8.15341C363.708 8.15341 363.403 8.21402 363.126 8.33523C362.85 8.45265 362.628 8.62121 362.462 8.84091C362.295 9.06061 362.206 9.31818 362.195 9.61364H359.837C359.848 8.94318 360.039 8.35227 360.41 7.84091C360.782 7.32955 361.282 6.92992 361.91 6.64205C362.543 6.35038 363.257 6.20455 364.053 6.20455C364.856 6.20455 365.558 6.35038 366.16 6.64205C366.763 6.93371 367.231 7.32765 367.564 7.82386C367.901 8.31629 368.068 8.86932 368.064 9.48295C368.068 10.1345 367.865 10.678 367.456 11.1136C367.051 11.5492 366.522 11.8258 365.871 11.9432V12.0341C366.727 12.1439 367.378 12.4413 367.825 12.9261C368.276 13.4072 368.5 14.0095 368.496 14.733C368.5 15.3958 368.308 15.9848 367.922 16.5C367.539 17.0152 367.011 17.4205 366.337 17.7159C365.662 18.0114 364.89 18.1591 364.018 18.1591ZM375.051 5.81818L371.301 19.75H369.216L372.966 5.81818H375.051ZM380.953 6.36364V18H378.493V8.69886H378.425L375.76 10.3693V8.1875L378.641 6.36364H380.953ZM388.477 6.36364V18H386.017V8.69886H385.949L383.284 10.3693V8.1875L386.165 6.36364H388.477ZM396.03 5.81818L392.28 19.75H390.194L393.944 5.81818H396.03ZM401.932 6.36364V18H399.471V8.69886H399.403L396.738 10.3693V8.1875L399.619 6.36364H401.932ZM408.643 18.1591C407.84 18.1591 407.124 18.0114 406.496 17.7159C405.871 17.4205 405.374 17.0133 405.007 16.4943C404.64 15.9754 404.448 15.3807 404.433 14.7102H406.819C406.846 15.161 407.035 15.5265 407.388 15.8068C407.74 16.0871 408.158 16.2273 408.643 16.2273C409.03 16.2273 409.371 16.142 409.666 15.9716C409.965 15.7973 410.198 15.5568 410.365 15.25C410.535 14.9394 410.621 14.5833 410.621 14.1818C410.621 13.7727 410.533 13.4129 410.359 13.1023C410.189 12.7917 409.952 12.5492 409.649 12.375C409.346 12.2008 408.999 12.1117 408.609 12.108C408.268 12.108 407.937 12.178 407.615 12.3182C407.297 12.4583 407.049 12.6496 406.871 12.892L404.683 12.5L405.234 6.36364H412.348V8.375H407.263L406.961 11.2898H407.03C407.234 11.0019 407.543 10.7633 407.956 10.5739C408.369 10.3845 408.831 10.2898 409.342 10.2898C410.043 10.2898 410.668 10.4545 411.217 10.7841C411.766 11.1136 412.2 11.5663 412.518 12.142C412.836 12.714 412.994 13.3731 412.99 14.1193C412.994 14.9034 412.812 15.6004 412.444 16.2102C412.081 16.8163 411.571 17.2936 410.916 17.642C410.265 17.9867 409.507 18.1591 408.643 18.1591Z" fill="#E24536"/>
<path d="M495.943 18V16.2273L500.085 12.392C500.438 12.0511 500.733 11.7443 500.972 11.4716C501.214 11.1989 501.398 10.9318 501.523 10.6705C501.648 10.4053 501.71 10.1193 501.71 9.8125C501.71 9.47159 501.633 9.17803 501.477 8.93182C501.322 8.68182 501.11 8.49053 500.841 8.35795C500.572 8.22159 500.267 8.15341 499.926 8.15341C499.57 8.15341 499.259 8.22538 498.994 8.36932C498.729 8.51326 498.525 8.7197 498.381 8.98864C498.237 9.25758 498.165 9.57765 498.165 9.94886H495.83C495.83 9.1875 496.002 8.52652 496.347 7.96591C496.691 7.4053 497.174 6.97159 497.795 6.66477C498.417 6.35795 499.133 6.20455 499.943 6.20455C500.777 6.20455 501.502 6.35227 502.119 6.64773C502.741 6.93939 503.223 7.3447 503.568 7.86364C503.913 8.38258 504.085 8.97727 504.085 9.64773C504.085 10.0871 503.998 10.5208 503.824 10.9489C503.653 11.3769 503.348 11.8523 502.909 12.375C502.47 12.8939 501.85 13.517 501.051 14.2443L499.352 15.9091V15.9886H504.239V18H495.943ZM510.018 18.1591C509.17 18.1591 508.414 18.0133 507.751 17.7216C507.092 17.4261 506.571 17.0208 506.189 16.5057C505.81 15.9867 505.615 15.3883 505.604 14.7102H508.081C508.096 14.9943 508.189 15.2443 508.359 15.4602C508.534 15.6723 508.765 15.8371 509.053 15.9545C509.34 16.072 509.664 16.1307 510.024 16.1307C510.399 16.1307 510.731 16.0644 511.018 15.9318C511.306 15.7992 511.532 15.6155 511.695 15.3807C511.857 15.1458 511.939 14.875 511.939 14.5682C511.939 14.2576 511.852 13.983 511.678 13.7443C511.507 13.5019 511.261 13.3125 510.939 13.1761C510.621 13.0398 510.242 12.9716 509.803 12.9716H508.717V11.1648H509.803C510.174 11.1648 510.501 11.1004 510.785 10.9716C511.073 10.8428 511.297 10.6648 511.456 10.4375C511.615 10.2064 511.695 9.9375 511.695 9.63068C511.695 9.33902 511.625 9.08333 511.484 8.86364C511.348 8.64015 511.155 8.46591 510.905 8.34091C510.659 8.21591 510.371 8.15341 510.041 8.15341C509.708 8.15341 509.403 8.21402 509.126 8.33523C508.85 8.45265 508.628 8.62121 508.462 8.84091C508.295 9.06061 508.206 9.31818 508.195 9.61364H505.837C505.848 8.94318 506.039 8.35227 506.41 7.84091C506.782 7.32955 507.282 6.92992 507.91 6.64205C508.543 6.35038 509.257 6.20455 510.053 6.20455C510.856 6.20455 511.558 6.35038 512.16 6.64205C512.763 6.93371 513.231 7.32765 513.564 7.82386C513.901 8.31629 514.068 8.86932 514.064 9.48295C514.068 10.1345 513.865 10.678 513.456 11.1136C513.051 11.5492 512.522 11.8258 511.871 11.9432V12.0341C512.727 12.1439 513.378 12.4413 513.825 12.9261C514.276 13.4072 514.5 14.0095 514.496 14.733C514.5 15.3958 514.308 15.9848 513.922 16.5C513.539 17.0152 513.011 17.4205 512.337 17.7159C511.662 18.0114 510.89 18.1591 510.018 18.1591ZM521.051 5.81818L517.301 19.75H515.216L518.966 5.81818H521.051ZM526.953 6.36364V18H524.493V8.69886H524.425L521.76 10.3693V8.1875L524.641 6.36364H526.953ZM534.477 6.36364V18H532.017V8.69886H531.949L529.284 10.3693V8.1875L532.165 6.36364H534.477ZM542.03 5.81818L538.28 19.75H536.194L539.944 5.81818H542.03ZM547.17 18.1591C546.322 18.1591 545.566 18.0133 544.903 17.7216C544.244 17.4261 543.723 17.0208 543.341 16.5057C542.962 15.9867 542.767 15.3883 542.756 14.7102H545.233C545.248 14.9943 545.341 15.2443 545.511 15.4602C545.685 15.6723 545.917 15.8371 546.204 15.9545C546.492 16.072 546.816 16.1307 547.176 16.1307C547.551 16.1307 547.882 16.0644 548.17 15.9318C548.458 15.7992 548.684 15.6155 548.846 15.3807C549.009 15.1458 549.091 14.875 549.091 14.5682C549.091 14.2576 549.004 13.983 548.829 13.7443C548.659 13.5019 548.413 13.3125 548.091 13.1761C547.773 13.0398 547.394 12.9716 546.954 12.9716H545.869V11.1648H546.954C547.326 11.1648 547.653 11.1004 547.937 10.9716C548.225 10.8428 548.449 10.6648 548.608 10.4375C548.767 10.2064 548.846 9.9375 548.846 9.63068C548.846 9.33902 548.776 9.08333 548.636 8.86364C548.5 8.64015 548.307 8.46591 548.057 8.34091C547.81 8.21591 547.523 8.15341 547.193 8.15341C546.86 8.15341 546.555 8.21402 546.278 8.33523C546.002 8.45265 545.78 8.62121 545.613 8.84091C545.447 9.06061 545.358 9.31818 545.346 9.61364H542.988C543 8.94318 543.191 8.35227 543.562 7.84091C543.934 7.32955 544.434 6.92992 545.062 6.64205C545.695 6.35038 546.409 6.20455 547.204 6.20455C548.007 6.20455 548.71 6.35038 549.312 6.64205C549.915 6.93371 550.382 7.32765 550.716 7.82386C551.053 8.31629 551.22 8.86932 551.216 9.48295C551.22 10.1345 551.017 10.678 550.608 11.1136C550.203 11.5492 549.674 11.8258 549.023 11.9432V12.0341C549.879 12.1439 550.53 12.4413 550.977 12.9261C551.428 13.4072 551.651 14.0095 551.648 14.733C551.651 15.3958 551.46 15.9848 551.074 16.5C550.691 17.0152 550.163 17.4205 549.488 17.7159C548.814 18.0114 548.042 18.1591 547.17 18.1591ZM557.675 18.2557C556.697 18.2519 555.856 18.0114 555.152 17.5341C554.451 17.0568 553.911 16.3655 553.533 15.4602C553.158 14.5549 552.972 13.4659 552.976 12.1932C552.976 10.9242 553.163 9.8428 553.538 8.94886C553.917 8.05492 554.457 7.375 555.158 6.90909C555.862 6.43939 556.701 6.20455 557.675 6.20455C558.648 6.20455 559.485 6.43939 560.186 6.90909C560.89 7.37879 561.432 8.06061 561.811 8.95455C562.19 9.8447 562.377 10.9242 562.373 12.1932C562.373 13.4697 562.184 14.5606 561.805 15.4659C561.43 16.3712 560.892 17.0625 560.192 17.5398C559.491 18.017 558.652 18.2557 557.675 18.2557ZM557.675 16.2159C558.341 16.2159 558.873 15.8807 559.271 15.2102C559.669 14.5398 559.866 13.5341 559.862 12.1932C559.862 11.3106 559.771 10.5758 559.589 9.98864C559.411 9.40151 559.158 8.96023 558.828 8.66477C558.502 8.36932 558.118 8.22159 557.675 8.22159C557.012 8.22159 556.481 8.55303 556.084 9.21591C555.686 9.87879 555.485 10.8712 555.481 12.1932C555.481 13.0871 555.57 13.8333 555.748 14.4318C555.93 15.0265 556.186 15.4735 556.515 15.7727C556.845 16.0682 557.231 16.2159 557.675 16.2159Z" fill="#E24536"/>
<circle cx="229" cy="42" r="12" fill="#E24536"/>
<circle cx="382" cy="42" r="12" fill="#E24536"/>
<circle cx="528" cy="42" r="12" fill="#E24536"/>
<path d="M528 122L533.774 112L522.226 112L528 122ZM527 60L527 113L529 113L529 60L527 60Z" fill="url(#paint0_linear_90_269)"/>
<path d="M382 122L387.774 112L376.226 112L382 122ZM381 60L381 113L383 113L383 60L381 60Z" fill="url(#paint1_linear_90_269)"/>
<path d="M229 122L234.774 112L223.226 112L229 122ZM228 60L228 113L230 113L230 60L228 60Z" fill="url(#paint2_linear_90_269)"/>
<path d="M160 165.5C159.172 165.5 158.5 166.172 158.5 167C158.5 167.828 159.172 168.5 160 168.5V165.5ZM160 168.5H598V165.5H160V168.5Z" fill="#B3B3B3"/>
<path d="M578.053 175.806L596.053 169.809C598.649 168.836 598.649 165.164 596.053 164.191L578.053 158.193C576.092 157.458 574 158.908 574 161.002L574 172.998C574 175.092 576.092 176.542 578.053 175.806Z" fill="#B3B3B3"/>
<path d="M11.616 156.32H14.352V159.248C14.352 161.504 13.848 164.288 11.328 166.016C10.92 165.488 9.768 164.528 9.192 164.168C11.376 162.728 11.616 160.808 11.616 159.176V156.32ZM17.016 156.32H19.728V161.696C19.728 162.368 19.752 162.44 20.016 162.44C20.136 162.44 20.496 162.44 20.64 162.44C20.928 162.44 21.024 162.128 21.072 160.04C21.576 160.448 22.704 160.88 23.424 161.048C23.184 164.048 22.512 164.888 20.928 164.888C20.544 164.888 19.896 164.888 19.512 164.888C17.592 164.888 17.016 164.144 17.016 161.744V156.32ZM13.896 168.56C15.528 171.968 18.96 174.56 23.472 175.664C22.824 176.24 21.984 177.416 21.6 178.136C16.8 176.72 13.416 173.672 11.352 169.376L13.896 168.56ZM19.272 165.968H19.8L20.304 165.872L22.176 166.544C20.52 172.976 16.368 176.432 10.752 178.136C10.464 177.416 9.744 176.216 9.216 175.616C14.208 174.392 18.024 171.272 19.272 166.4V165.968ZM10.464 165.968H20.4V168.56H10.464V165.968ZM12.72 156.32H18.48V158.84H12.72V156.32ZM1.872 162.992H9.288V165.152H1.872V162.992ZM1.944 156.368H9.24V158.552H1.944V156.368ZM1.872 166.256H9.288V168.44H1.872V166.256ZM0.696 159.608H10.152V161.888H0.696V159.608ZM3.192 169.592H9.264V176.888H3.192V174.608H6.792V171.872H3.192V169.592ZM1.8 169.592H4.224V177.848H1.8V169.592ZM34.008 163.688H47.016V166.544H34.008V163.688ZM39.072 155.72H42V178.16H39.072V155.72ZM25.416 162.992H33.168V165.152H25.416V162.992ZM25.56 156.368H33.216V158.552H25.56V156.368ZM25.416 166.256H33.168V168.44H25.416V166.256ZM24.24 159.608H34.128V161.888H24.24V159.608ZM26.736 169.592H33.096V176.888H26.736V174.608H30.576V171.872H26.736V169.592ZM25.344 169.592H27.84V177.848H25.344V169.592ZM59.088 163.832C60.768 163.832 62.136 165.2 62.136 166.88C62.136 168.584 60.768 169.952 59.088 169.952C57.384 169.952 56.016 168.584 56.016 166.88C56.016 165.2 57.384 163.832 59.088 163.832ZM84.864 156.08H87.816V176.288H84.864V156.08ZM78.456 162.896H93.912V165.68H78.456V162.896ZM79.104 174.464H93.504V177.248H79.104V174.464ZM74.616 162.68L77.424 159.848L77.472 159.896V178.112H74.616V162.68ZM77.16 155.648L79.944 156.536C78.24 160.76 75.504 165.152 72.696 167.888C72.408 167.216 71.568 165.656 71.04 164.96C73.464 162.728 75.792 159.2 77.16 155.648ZM103.704 158.288H116.88V160.568H103.704V158.288ZM104.352 161.504H116.376V163.664H104.352V161.504ZM103.248 164.696H117.312V167.048H103.248V164.696ZM112.944 155.576L115.8 156.272C115.152 157.352 114.504 158.408 114.024 159.104L111.768 158.456C112.2 157.616 112.704 156.416 112.944 155.576ZM105.24 156.416L107.496 155.672C108.048 156.488 108.648 157.592 108.864 158.336L106.464 159.2C106.272 158.456 105.744 157.28 105.24 156.416ZM115.032 167.504L117.192 169.04C116.136 170.144 114.864 171.32 113.904 172.088L112.056 170.672C112.992 169.88 114.288 168.512 115.032 167.504ZM103.704 168.872L105.672 167.576C106.536 168.464 107.592 169.688 108.072 170.528L106.008 171.968C105.576 171.104 104.568 169.808 103.704 168.872ZM102.312 174.296C103.752 173.648 105.864 172.568 107.928 171.512L108.672 173.84C106.992 174.824 105.096 175.88 103.56 176.72L102.312 174.296ZM108.912 159.824H111.672V175.304C111.672 176.6 111.456 177.296 110.688 177.728C109.896 178.16 108.744 178.208 107.232 178.208C107.16 177.464 106.824 176.336 106.488 175.664C107.304 175.688 108.24 175.688 108.528 175.688C108.816 175.688 108.912 175.568 108.912 175.304V159.824ZM111.528 167.504C112.584 170.72 114.696 173.48 117.768 174.728C117.192 175.256 116.352 176.312 115.944 177.056C112.824 175.328 110.784 171.968 109.656 167.936L111.528 167.504ZM95.232 160.592H103.176V163.256H95.232V160.592ZM98.16 155.624H100.776V178.16H98.16V155.624ZM98.112 162.416L99.72 162.968C99.024 166.76 97.656 171.392 95.952 173.864C95.712 173.096 95.088 171.992 94.68 171.32C96.216 169.232 97.56 165.464 98.112 162.416ZM100.656 164.168C101.184 164.816 103.152 167.84 103.56 168.512L102.072 170.576C101.544 169.184 100.104 166.448 99.456 165.32L100.656 164.168Z" fill="#1E1E1E"/>
<rect x="186" y="126" width="86" height="81" rx="30" fill="#EA8B82"/>
<path d="M347.6 153.52C343.607 140.743 354.293 128.165 367.548 130.042L392.368 133.557C394.434 133.849 396.539 133.718 398.553 133.172V133.172C410.144 130.029 420.708 140.782 417.36 152.315L413.052 167.153C412.046 170.62 412.213 174.323 413.529 177.685V177.685C418.358 190.026 407.289 202.692 394.412 199.56L374.336 194.676C371.2 193.914 367.9 194.208 364.949 195.515V195.515C354.071 200.329 342.296 190.852 344.674 179.196L348.061 162.599C348.677 159.582 348.518 156.459 347.6 153.52V153.52Z" fill="#EA8B82"/>
<path d="M493.5 147.5C489.65 137.761 497.566 127.432 507.971 128.617L518.622 129.83C522.461 130.268 526.095 131.791 529.099 134.223L540.315 143.302C543.324 145.739 547.64 145.696 550.601 143.2V143.2C556.71 138.049 565.788 143.951 563.561 151.625L558.76 168.161C557.943 170.975 558.079 173.979 559.146 176.707L560.401 179.913C565.847 193.831 557.034 209.219 542.273 211.564L526.152 214.125C521.305 214.895 516.706 211.73 515.695 206.928V206.928C514.538 201.431 508.684 198.274 503.413 200.216V200.216C496.018 202.941 488.58 195.996 491.018 188.501L496.778 170.793C497.901 167.341 497.982 163.635 497.01 160.137L493.5 147.5V147.5Z" fill="#EA8B82"/>
<defs>
<linearGradient id="paint0_linear_90_269" x1="528" y1="122" x2="528" y2="60" gradientUnits="userSpaceOnUse">
<stop stop-color="#EA8B82"/>
<stop offset="0.9999" stop-color="#E24536"/>
</linearGradient>
<linearGradient id="paint1_linear_90_269" x1="382" y1="122" x2="382" y2="60" gradientUnits="userSpaceOnUse">
<stop stop-color="#EA8B82"/>
<stop offset="0.9999" stop-color="#E24536"/>
</linearGradient>
<linearGradient id="paint2_linear_90_269" x1="229" y1="122" x2="229" y2="60" gradientUnits="userSpaceOnUse">
<stop stop-color="#EA8B82"/>
<stop offset="0.9999" stop-color="#E24536"/>
</linearGradient>
</defs>
</svg>
