<svg width="304" height="76" viewBox="0 0 304 76" fill="none" xmlns="http://www.w3.org/2000/svg">
<rect x="0.75" y="0.75" width="302.5" height="74.5" rx="3.25" fill="white"/>
<rect x="0.75" y="0.75" width="302.5" height="74.5" rx="3.25" stroke="#CCCCCC" stroke-width="1.5"/>
<path d="M237.696 51.376C238.112 51.104 238.576 50.768 238.816 50.56C238.112 50 236.624 49.184 235.392 48.688L236.128 47.776C237.36 48.272 239.12 49.152 240.08 49.856L240.384 50.688C240 51.008 239.088 51.712 238.496 52.128L237.696 51.376ZM234.608 59.024C235.424 59.248 236.192 59.376 237.184 59.376C237.92 59.376 238.816 59.088 238.816 58.048C238.816 56.96 237.648 55.52 236.768 54.544C236.416 54.176 235.92 53.712 235.488 53.344L236.432 52.512C236.816 52.928 237.232 53.36 237.6 53.76C239.104 55.328 240.16 56.736 240.16 58.192C240.16 60.16 238.56 60.592 237.408 60.592C236.384 60.592 235.504 60.48 234.784 60.336L234.608 59.024ZM243.84 59.616C243.392 58.096 242.272 55.808 241.168 54.56L242.224 53.968C243.312 55.264 244.528 57.552 245.024 58.976L243.84 59.616ZM235.152 56.496C234.224 57.456 232.624 58.816 231.072 59.744L230.304 58.672C231.632 57.968 233.488 56.544 234.4 55.536L235.152 56.496ZM242.24 49.376C242.64 49.952 243.232 50.928 243.552 51.584L242.688 51.968C242.368 51.312 241.824 50.352 241.392 49.744L242.24 49.376ZM244 48.736C244.432 49.328 245.056 50.32 245.344 50.912L244.496 51.312C244.144 50.608 243.616 49.696 243.152 49.104L244 48.736ZM257.984 50.88C257.616 51.104 257.216 51.312 256.752 51.552C255.664 52.112 253.888 52.944 252.32 53.984C250.832 54.96 249.936 56.016 249.936 57.216C249.936 58.544 251.2 59.376 253.728 59.376C255.472 59.376 257.616 59.152 258.864 58.832L258.848 60.272C257.648 60.48 255.792 60.656 253.792 60.656C250.784 60.656 248.608 59.76 248.608 57.36C248.608 55.632 249.776 54.272 251.648 53.024C253.28 51.936 255.152 51.056 256.192 50.48C256.656 50.208 257.008 50 257.344 49.712L257.984 50.88ZM250.32 47.76C251.056 49.808 252.032 51.808 252.784 53.088L251.68 53.76C250.88 52.448 249.92 50.288 249.056 48.304L250.32 47.76ZM258.256 47.6C258.656 48.192 259.232 49.152 259.552 49.808L258.688 50.208C258.368 49.552 257.84 48.576 257.392 47.968L258.256 47.6ZM260.016 46.96C260.432 47.552 261.056 48.56 261.36 49.152L260.496 49.536C260.144 48.848 259.632 47.92 259.168 47.328L260.016 46.96ZM273.152 54.688C273.152 53.328 272.064 52.384 270.416 52.384C268.576 52.384 266.992 52.912 266.064 53.184C265.568 53.328 265.088 53.504 264.704 53.664L264.304 52.192C264.752 52.16 265.28 52.048 265.776 51.952C266.896 51.696 268.704 51.184 270.56 51.184C272.832 51.184 274.512 52.448 274.512 54.736C274.512 58.208 271.408 60.144 267.264 60.784L266.528 59.568C270.416 59.072 273.152 57.552 273.152 54.688ZM266.432 47.472C268.208 47.872 271.68 48.208 273.232 48.224L273.04 49.456C271.264 49.328 268.048 49.008 266.24 48.688L266.432 47.472Z" fill="#1E1E1E"/>
<rect x="209" y="46" width="16" height="16" rx="8" fill="white" stroke="#E3E3E3" stroke-width="4" stroke-linecap="round"/>
<path d="M43.408 47.376C43.072 48.56 42.768 50.72 42.672 51.84C43.328 50.192 44.992 48.192 47.024 48.192C49.136 48.192 50.672 50.336 50.672 53.696C50.672 58.128 47.872 60.096 43.92 60.816L43.152 59.664C46.64 59.136 49.344 57.728 49.344 53.712C49.344 51.184 48.496 49.36 46.816 49.36C44.816 49.36 42.96 52.272 42.768 54.368C42.688 54.976 42.688 55.536 42.8 56.336L41.552 56.432C41.472 55.824 41.392 54.928 41.392 53.888C41.392 52.368 41.696 50.016 41.888 48.704C41.952 48.224 41.984 47.776 42.016 47.328L43.408 47.376ZM62.576 48.128C62.432 48.32 62.24 48.608 62.064 48.912C61.344 50.016 59.872 52.672 59.056 54.224C59.824 53.536 60.656 53.232 61.424 53.232C62.496 53.232 63.264 53.92 63.312 55.184C63.344 56.128 63.312 57.344 63.376 58.128C63.424 58.928 63.968 59.28 64.656 59.28C66.448 59.28 67.504 57.072 67.904 55.36L68.976 56.224C68.128 58.8 66.784 60.592 64.464 60.592C62.752 60.592 62.192 59.52 62.144 58.576C62.096 57.632 62.112 56.4 62.064 55.52C62.032 54.832 61.616 54.4 60.896 54.4C59.616 54.4 58.4 55.712 57.792 56.976C57.296 57.92 56.624 59.824 56.4 60.608L55.024 60.128C56.192 56.896 59.696 50.336 60.576 48.8C60.752 48.416 60.96 48.032 61.152 47.552L62.576 48.128ZM73.104 48.944C74.256 49.088 75.744 49.152 77.344 49.152C78.88 49.152 80.496 49.04 81.664 48.928V50.24C80.576 50.32 78.816 50.432 77.344 50.432C75.744 50.432 74.368 50.352 73.104 50.256V48.944ZM73.76 55.392C73.552 56.032 73.424 56.624 73.424 57.216C73.424 58.448 74.656 59.28 77.232 59.28C79.44 59.28 81.488 59.04 82.704 58.656L82.72 60.016C81.568 60.336 79.536 60.576 77.264 60.576C74 60.576 72.128 59.504 72.128 57.504C72.128 56.672 72.304 55.92 72.448 55.28L73.76 55.392ZM82.112 47.168C82.512 47.744 83.088 48.72 83.424 49.376L82.544 49.76C82.224 49.104 81.68 48.128 81.248 47.536L82.112 47.168ZM83.872 46.528C84.288 47.12 84.912 48.112 85.216 48.704L84.352 49.104C84 48.4 83.472 47.488 83.024 46.896L83.872 46.528Z" fill="#1E1E1E"/>
<rect x="17" y="46" width="16" height="16" rx="8" fill="white" stroke="#E3E3E3" stroke-width="4" stroke-linecap="round"/>
<path d="M137.568 48.272C137.968 48.304 138.432 48.32 138.768 48.32C139.616 48.32 141.712 48.224 142.384 48.16C142.688 48.144 142.96 48.08 143.184 48L143.984 48.64C143.824 48.816 143.696 48.976 143.568 49.184C143.056 50.016 142.176 52.064 141.44 53.712C140.8 55.12 139.92 57.296 139.232 58.288C138.672 59.104 138.048 59.408 137.216 59.408C136.032 59.408 135.152 58.544 135.152 57.216C135.152 54.8 137.424 52.96 140.672 52.96C144.272 52.96 147.44 54.88 149.168 56.112L148.576 57.472C146.704 55.856 143.776 54.08 140.48 54.08C137.824 54.08 136.304 55.568 136.304 57.04C136.304 57.76 136.768 58.128 137.264 58.128C137.632 58.128 137.904 58 138.24 57.568C138.896 56.704 139.616 54.848 140.224 53.504C140.864 52.112 141.584 50.464 142.128 49.328C141.488 49.344 139.536 49.44 138.816 49.472C138.464 49.488 138 49.536 137.616 49.584L137.568 48.272ZM147.568 51.776C147.344 56.336 146.416 59.104 142.688 60.976L141.632 60.096C145.392 58.512 146.08 55.488 146.256 53.12C146.288 52.64 146.304 52.096 146.256 51.632L147.568 51.776ZM156.816 47.52C156.752 47.824 156.688 48.16 156.624 48.48C156.528 49.056 156.304 50.368 156.096 51.36C155.552 53.6 154.4 57.584 152.592 60.512L151.296 59.984C153.12 57.552 154.4 53.28 154.832 51.312C155.12 50.048 155.344 48.608 155.344 47.376L156.816 47.52ZM162.336 49.232C163.328 50.528 164.72 53.472 165.248 54.96L164.016 55.552C163.536 53.904 162.288 51.072 161.168 49.76L162.336 49.232ZM151.056 51.04C151.568 51.056 151.984 51.056 152.496 51.04C153.68 51.008 156.928 50.64 158.016 50.64C159.44 50.64 160.608 51.184 160.608 53.36C160.608 55.264 160.352 57.808 159.696 59.136C159.184 60.208 158.384 60.464 157.36 60.464C156.736 60.464 155.984 60.352 155.472 60.24L155.264 58.896C155.936 59.104 156.768 59.232 157.216 59.232C157.808 59.232 158.288 59.104 158.624 58.4C159.136 57.328 159.376 55.232 159.376 53.504C159.376 52.048 158.704 51.776 157.68 51.776C156.608 51.776 153.616 52.128 152.64 52.224C152.272 52.272 151.6 52.352 151.2 52.416L151.056 51.04ZM174.4 48.128C174.256 48.32 174.064 48.608 173.888 48.912C173.168 50.016 171.696 52.672 170.88 54.224C171.648 53.536 172.48 53.232 173.248 53.232C174.32 53.232 175.088 53.92 175.136 55.184C175.168 56.128 175.136 57.344 175.2 58.128C175.248 58.928 175.792 59.28 176.48 59.28C178.272 59.28 179.328 57.072 179.728 55.36L180.8 56.224C179.952 58.8 178.608 60.592 176.288 60.592C174.576 60.592 174.016 59.52 173.968 58.576C173.92 57.632 173.936 56.4 173.888 55.52C173.856 54.832 173.44 54.4 172.72 54.4C171.44 54.4 170.224 55.712 169.616 56.976C169.12 57.92 168.448 59.824 168.224 60.608L166.848 60.128C168.016 56.896 171.52 50.336 172.4 48.8C172.576 48.416 172.784 48.032 172.976 47.552L174.4 48.128Z" fill="#1E1E1E"/>
<rect x="113" y="46" width="16" height="16" rx="8" fill="white" stroke="#E3E3E3" stroke-width="4" stroke-linecap="round"/>
<rect x="15" y="12" width="20" height="20" rx="8" fill="#F24822"/>
<path d="M24.168 23.888L23.752 18.416L23.672 16.032H26.312L26.232 18.416L25.816 23.888H24.168ZM25 28.16C24.168 28.16 23.576 27.568 23.576 26.736C23.576 25.904 24.184 25.328 25 25.328C25.8 25.328 26.408 25.904 26.408 26.736C26.408 27.568 25.8 28.16 25 28.16Z" fill="white"/>
<path d="M38.704 21.104H53.344V22.416H38.704V21.104ZM54.976 19.648C55.568 19.552 56.144 19.376 56.752 19.2C58.096 18.768 61.248 17.616 63.584 17.616C66.224 17.616 68.336 19.152 68.336 21.824C68.336 25.664 64.528 27.504 59.6 27.792L59.024 26.464C63.2 26.352 66.944 25.072 66.944 21.808C66.944 20.128 65.712 18.8 63.552 18.8C60.912 18.8 56.848 20.56 55.568 21.072L54.976 19.648ZM73.472 20.88V26.544H72.336V22H70.368V20.88H73.472ZM73.472 26.064C74.224 27.264 75.648 27.808 77.552 27.888C79.36 27.968 83.12 27.92 85.088 27.792C84.944 28.048 84.752 28.592 84.704 28.928C82.88 29.008 79.392 29.04 77.568 28.976C75.44 28.896 73.984 28.32 72.976 27.056C72.288 27.744 71.568 28.432 70.8 29.152L70.176 28.016C70.864 27.488 71.712 26.768 72.448 26.064H73.472ZM70.448 15.552L71.376 14.944C72.32 15.712 73.392 16.816 73.84 17.616L72.832 18.304C72.416 17.504 71.376 16.352 70.448 15.552ZM74.656 21.328H84.368V22.256H74.656V21.328ZM74.144 23.792H84.864V24.736H74.144V23.792ZM77.024 20.176H78.176V24.256H77.024V20.176ZM80.8 20.176H81.936V24.256H80.8V20.176ZM75.056 17.072H77.872V16.032H74.448V15.2H78.928V17.92H75.056V17.072ZM74.72 17.072H75.744V18.736C75.744 19.04 75.824 19.104 76.336 19.104C76.56 19.104 77.776 19.104 78.08 19.104C78.464 19.104 78.544 19.008 78.592 18.304C78.784 18.464 79.184 18.592 79.472 18.64C79.36 19.68 79.056 19.952 78.24 19.952C77.984 19.952 76.464 19.952 76.224 19.952C75.04 19.952 74.72 19.712 74.72 18.752V17.072ZM80.336 17.072H83.104V16.032H79.696V15.2H84.144V17.92H80.336V17.072ZM79.984 17.072H81.008V18.736C81.008 19.04 81.104 19.104 81.648 19.104C81.904 19.104 83.216 19.104 83.536 19.104C83.936 19.104 84.016 19.008 84.064 18.256C84.272 18.4 84.672 18.528 84.96 18.592C84.848 19.68 84.544 19.952 83.68 19.952C83.424 19.952 81.792 19.952 81.536 19.952C80.32 19.952 79.984 19.712 79.984 18.736V17.072ZM80.512 25.456L81.376 24.928C82.544 25.488 83.856 26.272 84.624 26.864L83.44 27.392C82.8 26.8 81.616 26.032 80.512 25.456ZM77.584 24.896L78.64 25.264C77.824 26.048 76.528 26.832 75.456 27.344C75.28 27.136 74.832 26.752 74.576 26.592C75.664 26.16 76.864 25.552 77.584 24.896ZM92.752 15.488H93.952V20.944C93.952 23.504 93.632 27.04 91.456 29.296C91.264 29.056 90.784 28.64 90.528 28.48C92.56 26.384 92.752 23.328 92.752 20.944V15.488ZM97.008 21.472C97.616 24.528 98.912 27.152 101.12 28.272C100.832 28.512 100.464 28.992 100.272 29.312C97.888 27.952 96.56 25.152 95.872 21.68L97.008 21.472ZM93.232 15.488H100.24V21.936H93.232V20.8H99.04V16.624H93.232V15.488ZM86.208 17.824H91.952V18.96H86.208V17.824ZM88.608 14.576H89.76V27.824C89.76 28.544 89.568 28.88 89.136 29.056C88.688 29.264 87.984 29.28 86.752 29.28C86.704 28.976 86.544 28.48 86.384 28.176C87.248 28.208 88.016 28.192 88.256 28.176C88.496 28.16 88.608 28.096 88.608 27.84V14.576ZM86 23.008C87.504 22.704 89.792 22.16 91.952 21.632L92.064 22.736C90.048 23.248 87.904 23.792 86.304 24.176L86 23.008ZM106.736 15.536C106.656 16.064 106.608 16.624 106.576 17.152C106.512 18.96 106.384 22.752 106.384 25.136C106.384 26.896 107.488 27.504 109.008 27.504C111.936 27.504 113.6 25.872 114.752 24.208L115.648 25.296C114.56 26.816 112.48 28.816 108.976 28.816C106.672 28.816 105.088 27.872 105.088 25.248C105.088 22.88 105.248 18.832 105.248 17.152C105.248 16.56 105.2 16 105.104 15.536H106.736ZM117.98 17.376C118.588 17.36 119.1 17.328 119.42 17.296C120.46 17.184 123.468 16.896 126.428 16.64C128.172 16.496 129.66 16.4 130.732 16.368L130.748 17.648C129.82 17.632 128.428 17.664 127.612 17.888C125.324 18.624 123.932 21.072 123.932 22.96C123.932 26.08 126.86 27.072 129.452 27.184L129.004 28.496C126.028 28.384 122.668 26.816 122.668 23.232C122.668 20.736 124.188 18.704 125.66 17.84C123.932 18.016 119.868 18.416 118.124 18.784L117.98 17.376ZM133.34 15.744H147.58V16.96H133.34V15.744ZM139.5 16.704H140.764V29.264H139.5V16.704ZM140.204 20.496L140.988 19.568C142.908 20.496 145.436 21.952 146.716 22.912L145.868 24C144.636 23.008 142.14 21.488 140.204 20.496ZM156.652 16.672C156.556 16.32 156.412 15.84 156.252 15.408L157.628 15.248C157.772 16.176 158.188 17.552 158.556 18.592C159.052 19.968 159.868 21.456 160.556 22.384C160.764 22.704 161.004 22.976 161.244 23.232L160.604 24.144C159.836 23.952 157.884 23.776 156.732 23.696L156.828 22.64C157.724 22.72 158.908 22.816 159.484 22.88C158.812 21.856 157.932 20.272 157.404 18.816C157.052 17.904 156.828 17.168 156.652 16.672ZM150.796 17.92C153.468 18.224 155.996 18.24 157.82 18.048C159.084 17.904 160.668 17.616 161.916 17.184L162.06 18.448C160.924 18.768 159.404 19.024 158.236 19.168C156.204 19.408 153.66 19.424 150.828 19.184L150.796 17.92ZM153.276 23.008C152.796 23.792 152.508 24.48 152.508 25.232C152.508 26.768 153.9 27.424 156.284 27.456C157.9 27.456 159.292 27.296 160.396 27.056L160.348 28.336C159.34 28.512 157.996 28.688 156.204 28.672C153.164 28.656 151.244 27.568 151.244 25.392C151.244 24.496 151.564 23.664 152.028 22.72L153.276 23.008ZM167.676 16.848C167.596 17.216 167.548 17.984 167.532 18.4C167.516 19.392 167.532 20.864 167.644 22.176C167.916 24.848 168.684 26.624 169.836 26.624C170.652 26.624 171.404 24.976 171.82 23.376L172.828 24.512C171.852 27.216 170.892 28.144 169.804 28.144C168.284 28.144 166.844 26.64 166.396 22.496C166.252 21.12 166.22 19.168 166.22 18.24C166.22 17.872 166.22 17.184 166.124 16.816L167.676 16.848ZM175.996 17.28C177.436 19.136 178.588 22.544 178.828 25.248L177.532 25.76C177.26 22.88 176.284 19.584 174.764 17.712L175.996 17.28Z" fill="#1E1E1E"/>
</svg>
