<svg width="604" height="476" viewBox="0 0 604 476" fill="none" xmlns="http://www.w3.org/2000/svg">
<rect x="284" width="320" height="476" fill="#D2F9DF"/>
<rect width="284" height="476" fill="#CCE9FF"/>
<path d="M82.704 28.3127C82.464 28.7687 82.296 29.4647 82.176 29.9687C81.624 32.3207 80.568 36.0407 78.552 38.7287C76.392 41.5847 73.2 43.9847 68.904 45.3527L66.288 42.4727C71.064 41.3687 73.752 39.2807 75.696 36.8567C77.304 34.8407 78.192 32.1287 78.528 30.0647C77.064 30.0647 69.144 30.0647 67.344 30.0647C66.24 30.0647 65.112 30.1367 64.488 30.1607V26.7767C65.208 26.8727 66.552 26.9687 67.344 26.9687C69.144 26.9687 77.112 26.9687 78.456 26.9687C78.912 26.9687 79.68 26.9447 80.328 26.8007L82.704 28.3127ZM87.936 27.2567C88.896 27.2807 89.808 27.3047 90.456 27.3047C92.208 27.3047 101.952 27.3047 103.68 27.3047C104.28 27.3047 105.168 27.3047 106.056 27.2807C106.008 28.0007 106.008 28.8647 106.008 29.6087C106.008 31.0727 106.008 39.9047 106.008 41.3687C106.008 42.3047 106.032 44.6087 106.056 44.7047H102.72C102.72 44.6087 102.792 42.7367 102.792 41.4167C102.792 40.0247 102.792 30.3767 102.792 30.3767H91.176C91.176 30.3767 91.176 40.0007 91.176 41.4167C91.176 42.5687 91.2 44.5847 91.2 44.7047H87.912C87.912 44.5847 87.96 42.4727 87.96 41.3207C87.96 39.8807 87.96 31.0007 87.96 29.6087C87.96 28.9127 87.96 27.9527 87.936 27.2567ZM103.968 40.3367V43.3847H89.544V40.3367H103.968ZM114.24 26.0327C115.896 27.1607 119.016 29.6567 120.432 31.1207L117.984 33.6167C116.736 32.2727 113.712 29.6567 111.96 28.4567L114.24 26.0327ZM111.216 42.0167C114.984 41.4887 118.08 40.2647 120.408 38.8967C124.512 36.4487 127.632 32.8007 129.168 29.5607L131.016 32.9207C129.216 36.1847 126.024 39.4967 122.16 41.8247C119.712 43.2887 116.616 44.6087 113.256 45.1847L111.216 42.0167ZM139.512 41.9927C139.512 40.1447 139.512 30.2087 139.512 28.1927C139.512 27.3287 139.44 26.1527 139.272 25.2887H143.016C142.92 26.1527 142.8 27.1847 142.8 28.1927C142.8 30.8327 142.824 40.2167 142.824 41.9927C142.824 42.6647 142.92 44.3447 143.04 45.3287H139.272C139.44 44.3927 139.512 42.9287 139.512 41.9927ZM142.104 31.5047C145.296 32.3927 150.48 34.2887 152.832 35.4407L151.488 38.7767C148.752 37.3607 144.72 35.8247 142.104 34.9607V31.5047ZM158.856 27.5207C159.48 27.6167 160.488 27.6887 161.136 27.6887H174.216C174.936 27.6887 175.776 27.6167 176.448 27.5207V30.8327C175.752 30.7607 174.912 30.7127 174.216 30.7127H161.136C160.488 30.7127 159.48 30.7607 158.856 30.8327V27.5207ZM165.792 42.3047V29.3687H169.128V42.3047H165.792ZM157.32 40.3367C158.088 40.4567 158.952 40.5287 159.672 40.5287H175.512C176.352 40.5287 177.12 40.4087 177.744 40.3367V43.7927C177.072 43.7207 176.064 43.6967 175.512 43.6967H159.672C158.976 43.6967 158.112 43.7207 157.32 43.7927V40.3367ZM184.872 26.0327C186.528 27.1607 189.648 29.6567 191.064 31.1207L188.616 33.6167C187.368 32.2727 184.344 29.6567 182.592 28.4567L184.872 26.0327ZM181.848 42.0167C185.616 41.4887 188.712 40.2647 191.04 38.8967C195.144 36.4487 198.264 32.8007 199.8 29.5607L201.648 32.9207C199.848 36.1847 196.656 39.4967 192.792 41.8247C190.344 43.2887 187.248 44.6087 183.888 45.1847L181.848 42.0167ZM218.976 26.4167C219.648 27.4247 220.632 28.9607 221.16 30.0647L219.096 30.9767C218.376 29.4647 217.848 28.5047 216.96 27.2807L218.976 26.4167ZM222.12 25.1207C222.84 26.0807 223.848 27.5687 224.376 28.6487L222.36 29.6567C221.592 28.1207 221.016 27.2327 220.128 26.0567L222.12 25.1207ZM209.424 42.3287C209.424 40.5047 209.424 30.5687 209.424 28.5287C209.424 27.6647 209.328 26.4887 209.16 25.6487H212.928C212.832 26.4887 212.712 27.5447 212.712 28.5287C212.712 31.1927 212.712 40.5527 212.712 42.3287C212.712 43.0247 212.832 44.7047 212.928 45.6647H209.184C209.328 44.7287 209.424 43.2887 209.424 42.3287ZM211.992 31.8407C215.208 32.7287 220.368 34.6247 222.744 35.8007L221.376 39.1127C218.664 37.6967 214.608 36.1607 211.992 35.2967V31.8407Z" fill="#1E1E1E"/>
<path d="M391.836 25.1447C392.436 26.0087 393.3 27.5447 393.756 28.4327L391.812 29.2487C391.332 28.2647 390.588 26.8487 389.94 25.9127L391.836 25.1447ZM394.692 24.0647C395.316 24.9527 396.204 26.4887 396.612 27.3287L394.716 28.1447C394.212 27.1367 393.444 25.7447 392.772 24.8327L394.692 24.0647ZM377.748 36.8087C378.804 34.1447 379.716 30.7607 380.028 27.6887L383.508 28.4327C383.316 29.1047 383.028 30.2807 382.932 30.8327C382.596 32.5127 381.732 35.8007 380.892 38.0327C380.028 40.3607 378.612 43.0967 377.364 44.8967L374.004 43.4807C375.492 41.5127 376.908 38.9447 377.748 36.8087ZM389.58 36.3287C388.668 33.8087 387.132 30.2567 386.1 28.4327L389.292 27.4007C390.3 29.2487 391.932 32.9447 392.844 35.2487C393.708 37.4327 394.98 41.2487 395.628 43.6247L392.076 44.7767C391.428 41.9447 390.54 38.9207 389.58 36.3287ZM408.78 30.0407C409.236 31.0487 410.412 34.1927 410.748 35.2967L407.892 36.2807C407.58 35.1287 406.524 32.2247 405.948 30.9767L408.78 30.0407ZM417.636 31.7687C417.372 32.5607 417.228 33.0647 417.084 33.5447C416.46 35.9687 415.428 38.4647 413.796 40.5527C411.564 43.4567 408.588 45.4487 405.78 46.5287L403.26 43.9607C405.876 43.2407 409.236 41.4167 411.204 38.9207C412.836 36.9047 414.012 33.7127 414.276 30.6887L417.636 31.7687ZM403.212 31.2887C403.812 32.5127 404.988 35.4407 405.444 36.7847L402.516 37.8647C402.132 36.5927 400.908 33.3767 400.332 32.3447L403.212 31.2887ZM441.804 29.3687C441.54 29.8247 441.204 30.4727 441.012 31.0727C440.364 33.2327 438.996 36.4247 436.812 39.0887C434.532 41.8727 431.652 44.0807 427.14 45.8567L424.308 43.3367C429.204 41.8487 431.868 39.7607 433.98 37.3847C435.612 35.5127 437.004 32.6327 437.388 30.8567H429.3L430.404 28.1207C431.46 28.1207 436.5 28.1207 437.244 28.1207C437.988 28.1207 438.804 28.0247 439.332 27.8327L441.804 29.3687ZM433.98 25.5527C433.404 26.3927 432.78 27.4967 432.516 28.0007C430.884 30.9047 428.028 34.2887 424.572 36.6407L421.884 34.6487C426.084 32.0807 428.196 28.9847 429.372 26.9207C429.732 26.3447 430.236 25.2407 430.452 24.4007L433.98 25.5527ZM447.084 27.5207C447.708 27.6167 448.716 27.6887 449.364 27.6887H462.444C463.164 27.6887 464.004 27.6167 464.676 27.5207V30.8327C463.98 30.7607 463.14 30.7127 462.444 30.7127H449.364C448.716 30.7127 447.708 30.7607 447.084 30.8327V27.5207ZM454.02 42.3047V29.3687H457.356V42.3047H454.02ZM445.548 40.3367C446.316 40.4567 447.18 40.5287 447.9 40.5287H463.74C464.58 40.5287 465.348 40.4087 465.972 40.3367V43.7927C465.3 43.7207 464.292 43.6967 463.74 43.6967H447.9C447.204 43.6967 446.34 43.7207 445.548 43.7927V40.3367ZM473.1 26.0327C474.756 27.1607 477.876 29.6567 479.292 31.1207L476.844 33.6167C475.596 32.2727 472.572 29.6567 470.82 28.4567L473.1 26.0327ZM470.076 42.0167C473.844 41.4887 476.94 40.2647 479.268 38.8967C483.372 36.4487 486.492 32.8007 488.028 29.5607L489.876 32.9207C488.076 36.1847 484.884 39.4967 481.02 41.8247C478.572 43.2887 475.476 44.6087 472.116 45.1847L470.076 42.0167ZM507.204 26.4167C507.876 27.4247 508.86 28.9607 509.388 30.0647L507.324 30.9767C506.604 29.4647 506.076 28.5047 505.188 27.2807L507.204 26.4167ZM510.348 25.1207C511.068 26.0807 512.076 27.5687 512.604 28.6487L510.588 29.6567C509.82 28.1207 509.244 27.2327 508.356 26.0567L510.348 25.1207ZM497.652 42.3287C497.652 40.5047 497.652 30.5687 497.652 28.5287C497.652 27.6647 497.556 26.4887 497.388 25.6487H501.156C501.06 26.4887 500.94 27.5447 500.94 28.5287C500.94 31.1927 500.94 40.5527 500.94 42.3287C500.94 43.0247 501.06 44.7047 501.156 45.6647H497.412C497.556 44.7287 497.652 43.2887 497.652 42.3287ZM500.22 31.8407C503.436 32.7287 508.596 34.6247 510.972 35.8007L509.604 39.1127C506.892 37.6967 502.836 36.1607 500.22 35.2967V31.8407Z" fill="#1E1E1E"/>
<g clip-path="url(#clip0_11_160)">
<path d="M122.667 99.3333C122.667 98.626 122.948 97.9478 123.448 97.4477C123.948 96.9476 124.626 96.6666 125.333 96.6666H162.667C163.374 96.6666 164.052 96.9476 164.552 97.4477C165.052 97.9478 165.333 98.626 165.333 99.3333V136.667C165.333 137.374 165.052 138.052 164.552 138.552C164.052 139.052 163.374 139.333 162.667 139.333H125.333C124.626 139.333 123.948 139.052 123.448 138.552C122.948 138.052 122.667 137.374 122.667 136.667V99.3333Z" stroke="#2C3E50" stroke-width="4" stroke-linecap="round" stroke-linejoin="round"/>
<path d="M122.667 107.333H165.333" stroke="#2C3E50" stroke-width="4" stroke-linecap="round" stroke-linejoin="round"/>
<path d="M133.333 96.6666V107.333" stroke="#2C3E50" stroke-width="4" stroke-linecap="round" stroke-linejoin="round"/>
</g>
<path d="M129.328 155.126C129.232 155.814 129.216 156.134 129.216 156.598C129.216 157.014 129.216 158.294 129.216 158.902H126.976C126.976 158.198 126.976 157.014 126.976 156.598C126.976 156.134 126.96 155.814 126.864 155.126H129.328ZM134.704 158.502C134.592 158.854 134.464 159.462 134.4 159.766C134.112 161.302 133.696 162.854 132.896 164.31C131.632 166.662 129.216 168.358 126.368 169.11L124.704 167.19C125.44 167.062 126.304 166.822 126.976 166.55C128.288 166.054 129.696 165.11 130.608 163.83C131.408 162.646 131.824 161.126 132.016 159.702H124.08C124.08 160.262 124.08 161.558 124.08 162.054C124.08 162.406 124.096 162.918 124.144 163.238H121.936C121.984 162.838 122 162.326 122 161.894C122 161.366 122 159.718 122 159.11C122 158.758 122 158.118 121.936 157.75C122.48 157.798 122.96 157.814 123.568 157.814H132C132.656 157.814 133.04 157.75 133.328 157.654L134.704 158.502ZM139.136 159.526C139.488 159.574 140.064 159.606 140.416 159.606H147.728C148.128 159.606 148.592 159.574 148.976 159.526V161.526C148.576 161.494 148.096 161.478 147.728 161.478H140.416C140.064 161.478 139.488 161.494 139.136 161.526V159.526ZM142.896 167.702V160.614H144.992V167.702H142.896ZM138.336 166.518C138.736 166.582 139.232 166.614 139.648 166.614H148.48C148.928 166.614 149.36 166.566 149.696 166.518V168.614C149.36 168.566 148.768 168.55 148.48 168.55H139.648C139.248 168.55 138.752 168.566 138.336 168.614V166.518ZM163.968 154.71C164.368 155.318 164.896 156.23 165.184 156.822L163.856 157.382C163.536 156.71 163.056 155.894 162.64 155.254L163.968 154.71ZM166.192 154.294C166.608 154.886 167.168 155.846 167.472 156.422L166.144 156.982C165.808 156.326 165.312 155.43 164.864 154.838L166.192 154.294ZM165.616 157.718C165.472 158.022 165.344 158.486 165.264 158.822C164.896 160.39 164.192 162.886 162.864 164.662C161.408 166.582 159.28 168.166 156.432 169.078L154.688 167.158C157.856 166.422 159.664 165.03 160.944 163.414C162.016 162.086 162.624 160.262 162.832 158.886C161.872 158.886 156.576 158.886 155.376 158.886C154.656 158.886 153.888 158.934 153.472 158.966V156.694C153.952 156.758 154.848 156.838 155.376 156.838C156.576 156.838 161.888 156.838 162.784 156.838C163.104 156.838 163.616 156.822 164.032 156.71L165.616 157.718Z" fill="#1E1E1E"/>
<path d="M522.432 375.87C522.352 375.47 522.256 375.118 522.144 374.782L523.568 374.542C523.6 374.83 523.664 375.294 523.728 375.646C523.824 376.35 525.584 385.134 525.808 386.19C525.92 386.638 526.048 387.182 526.208 387.646L524.736 387.918C524.656 387.374 524.608 386.878 524.496 386.414C524.336 385.406 522.624 376.702 522.432 375.87ZM517.92 378.19C518.32 378.158 518.752 378.126 519.264 378.078C520.704 377.918 526.224 377.038 527.744 376.734C528.208 376.654 528.624 376.558 528.896 376.478L529.152 377.822C528.912 377.838 528.432 377.918 528 377.982C526.352 378.238 520.896 379.102 519.488 379.342C519.056 379.422 518.672 379.502 518.208 379.614L517.92 378.19ZM517.872 382.798C518.256 382.782 518.864 382.718 519.28 382.654C520.992 382.43 526.944 381.454 528.864 381.102C529.472 380.99 529.936 380.878 530.272 380.782L530.544 382.126C530.208 382.158 529.696 382.254 529.104 382.35C526.976 382.67 521.2 383.614 519.584 383.902C518.96 384.014 518.512 384.11 518.16 384.206L517.872 382.798ZM543.776 379.582C543.728 379.726 543.68 379.934 543.68 380.078C543.536 381.278 542.96 385.118 542.768 386.238H541.424C541.6 385.374 542.192 381.454 542.24 380.43C541.248 380.43 537.6 380.43 537.168 380.43C536.704 380.43 536.272 380.446 535.872 380.478V379.134C536.256 379.182 536.752 379.214 537.152 379.214C537.76 379.214 541.12 379.214 542.016 379.214C542.272 379.214 542.672 379.182 542.8 379.102L543.776 379.582ZM534.368 385.726C534.752 385.774 535.216 385.806 535.696 385.806C536.56 385.806 543.584 385.806 544.432 385.806C544.784 385.806 545.36 385.774 545.696 385.742V387.038C545.392 387.022 544.816 387.022 544.464 387.022C543.568 387.022 536.496 387.022 535.696 387.022C535.216 387.022 534.848 387.038 534.368 387.054V385.726ZM549.44 380.254C549.936 380.302 550.768 380.35 551.68 380.35C552.848 380.35 559.264 380.35 560.448 380.35C561.248 380.35 561.808 380.286 562.176 380.254V381.822C561.84 381.806 561.168 381.758 560.464 381.758C559.248 381.758 552.864 381.758 551.68 381.758C550.8 381.758 549.952 381.79 549.44 381.822V380.254Z" fill="#757575"/>
<g clip-path="url(#clip1_11_160)">
<path d="M120 201.849C120 201.141 120.281 200.463 120.781 199.963C121.281 199.463 121.959 199.182 122.667 199.182H165.333C166.041 199.182 166.719 199.463 167.219 199.963C167.719 200.463 168 201.141 168 201.849V233.849C168 234.556 167.719 235.234 167.219 235.734C166.719 236.234 166.041 236.515 165.333 236.515H122.667C121.959 236.515 121.281 236.234 120.781 235.734C120.281 235.234 120 234.556 120 233.849V201.849Z" stroke="#2C3E50" stroke-width="4" stroke-linecap="round" stroke-linejoin="round"/>
<path d="M120 225.849H168" stroke="#2C3E50" stroke-width="4" stroke-linecap="round" stroke-linejoin="round"/>
<path d="M133.333 247.182H154.667" stroke="#2C3E50" stroke-width="4" stroke-linecap="round" stroke-linejoin="round"/>
<path d="M138.667 236.515L137.333 247.182" stroke="#2C3E50" stroke-width="4" stroke-linecap="round" stroke-linejoin="round"/>
<path d="M149.333 236.515L150.667 247.182" stroke="#2C3E50" stroke-width="4" stroke-linecap="round" stroke-linejoin="round"/>
</g>
<path d="M99.432 261.3C99.944 261.364 100.616 261.412 101.144 261.412C102.152 261.412 105.448 261.412 106.392 261.412C106.936 261.412 107.56 261.364 108.104 261.3V263.364C107.56 263.332 106.936 263.3 106.392 263.3C105.448 263.3 102.152 263.3 101.16 263.3C100.6 263.3 99.928 263.332 99.432 263.364V261.3ZM97.592 265.38C98.056 265.444 98.616 265.492 99.112 265.492C100.12 265.492 108.648 265.492 109.592 265.492C109.928 265.492 110.632 265.46 111.064 265.38V267.476C110.664 267.444 110.04 267.428 109.592 267.428C108.648 267.428 100.12 267.428 99.112 267.428C98.648 267.428 98.024 267.444 97.592 267.476V265.38ZM105.768 266.5C105.768 268.596 105.4 270.196 104.728 271.54C104.168 272.644 102.936 273.892 101.512 274.612L99.624 273.252C100.76 272.804 101.896 271.892 102.536 270.948C103.336 269.748 103.544 268.228 103.544 266.516L105.768 266.5ZM109.064 260.196C109.464 260.772 110.04 261.796 110.328 262.388L109.048 262.932C108.728 262.276 108.232 261.332 107.8 260.708L109.064 260.196ZM110.952 259.476C111.368 260.068 111.96 261.092 112.248 261.652L110.984 262.196C110.648 261.524 110.136 260.596 109.688 259.988L110.952 259.476ZM125.592 262.532C125.464 262.708 125.176 263.188 125.032 263.524C124.376 265.044 123.192 267.22 121.816 268.82C120.024 270.884 117.608 272.868 115.128 274.036L113.464 272.308C116.056 271.348 118.52 269.396 120.024 267.732C121.08 266.532 122.056 264.948 122.424 263.812C121.752 263.812 117.672 263.812 116.984 263.812C116.328 263.812 115.448 263.892 115.096 263.924V261.636C115.528 261.7 116.52 261.748 116.984 261.748C117.832 261.748 121.928 261.748 122.632 261.748C123.336 261.748 123.96 261.668 124.296 261.556L125.592 262.532ZM122.024 267.492C123.672 268.836 125.944 271.22 126.984 272.5L125.16 274.084C123.976 272.436 122.232 270.532 120.52 268.98L122.024 267.492ZM142.472 263.428C142.296 263.732 142.072 264.164 141.944 264.564C141.512 266.004 140.6 268.132 139.144 269.908C137.624 271.764 135.704 273.236 132.696 274.42L130.808 272.74C134.072 271.748 135.848 270.356 137.256 268.772C138.344 267.524 139.272 265.604 139.528 264.42H134.136L134.872 262.596C135.576 262.596 138.936 262.596 139.432 262.596C139.928 262.596 140.472 262.532 140.824 262.404L142.472 263.428ZM137.256 260.884C136.872 261.444 136.456 262.18 136.28 262.516C135.192 264.452 133.288 266.708 130.984 268.276L129.192 266.948C131.992 265.236 133.4 263.172 134.184 261.796C134.424 261.412 134.76 260.676 134.904 260.116L137.256 260.884ZM148.92 271.844C148.92 270.612 148.92 263.988 148.92 262.644C148.92 262.068 148.872 261.284 148.76 260.708H151.256C151.192 261.284 151.112 261.972 151.112 262.644C151.112 264.404 151.128 270.66 151.128 271.844C151.128 272.292 151.192 273.412 151.272 274.068H148.76C148.872 273.444 148.92 272.468 148.92 271.844ZM150.648 264.852C152.776 265.444 156.232 266.708 157.8 267.476L156.904 269.7C155.08 268.756 152.392 267.732 150.648 267.156V264.852ZM167.8 263.876C168.104 264.548 168.888 266.644 169.112 267.38L167.208 268.036C167 267.268 166.296 265.332 165.912 264.5L167.8 263.876ZM173.704 265.028C173.528 265.556 173.432 265.892 173.336 266.212C172.92 267.828 172.232 269.492 171.144 270.884C169.656 272.82 167.672 274.148 165.8 274.868L164.12 273.156C165.864 272.676 168.104 271.46 169.416 269.796C170.504 268.452 171.288 266.324 171.464 264.308L173.704 265.028ZM164.088 264.708C164.488 265.524 165.272 267.476 165.576 268.372L163.624 269.092C163.368 268.244 162.552 266.1 162.168 265.412L164.088 264.708ZM188.408 261.636C188.408 262.148 188.824 262.564 189.336 262.564C189.848 262.564 190.264 262.148 190.264 261.636C190.264 261.124 189.848 260.708 189.336 260.708C188.824 260.708 188.408 261.124 188.408 261.636ZM187.416 261.636C187.416 260.58 188.28 259.716 189.336 259.716C190.392 259.716 191.256 260.58 191.256 261.636C191.256 262.692 190.392 263.556 189.336 263.556C188.28 263.556 187.416 262.692 187.416 261.636ZM189.368 262.9C189.208 263.204 189.096 263.668 189.016 264.004C188.648 265.572 187.944 268.068 186.6 269.844C185.16 271.764 183.032 273.348 180.168 274.26L178.424 272.34C181.608 271.604 183.416 270.212 184.696 268.596C185.768 267.268 186.376 265.444 186.584 264.068C185.608 264.068 180.328 264.068 179.128 264.068C178.392 264.068 177.64 264.116 177.224 264.148V261.876C177.704 261.94 178.6 262.02 179.128 262.02C180.328 262.02 185.64 262.02 186.536 262.02C186.856 262.02 187.368 262.004 187.784 261.892L189.368 262.9Z" fill="#1E1E1E"/>
<rect x="153" y="124" width="23" height="23" rx="3" fill="#007ACC"/>
<g clip-path="url(#clip2_11_160)">
<path d="M167.375 140.771C167.682 141.077 168.098 141.25 168.532 141.25H169.052C169.713 141.25 170.25 140.713 170.25 140.052V139.812C170.25 139.431 170.099 139.066 169.829 138.796C169.559 138.526 169.194 138.375 168.812 138.375C168.431 138.375 168.066 138.224 167.796 137.954C167.526 137.684 167.375 137.319 167.375 136.937V136.698C167.375 136.037 167.912 135.5 168.573 135.5H169.093C169.527 135.5 169.943 135.673 170.25 135.979" stroke="white" stroke-width="1.4375" stroke-linecap="round" stroke-linejoin="round"/>
<path d="M161.625 135.5H165.458" stroke="white" stroke-width="1.4375" stroke-linecap="round" stroke-linejoin="round"/>
<path d="M163.542 135.5V141.25" stroke="white" stroke-width="1.4375" stroke-linecap="round" stroke-linejoin="round"/>
<path d="M173.125 142.208V128.792C173.125 128.283 172.923 127.796 172.564 127.436C172.204 127.077 171.717 126.875 171.208 126.875H157.792C157.283 126.875 156.796 127.077 156.436 127.436C156.077 127.796 155.875 128.283 155.875 128.792V142.208C155.875 142.717 156.077 143.204 156.436 143.564C156.796 143.923 157.283 144.125 157.792 144.125H171.208C171.717 144.125 172.204 143.923 172.564 143.564C172.923 143.204 173.125 142.717 173.125 142.208Z" stroke="white" stroke-width="1.4375" stroke-linecap="round" stroke-linejoin="round"/>
</g>
<g clip-path="url(#clip3_11_160)">
<path d="M368 210.667C368 208.545 368.843 206.51 370.343 205.01C371.843 203.509 373.878 202.667 376 202.667H408C410.122 202.667 412.157 203.509 413.657 205.01C415.157 206.51 416 208.545 416 210.667V216C416 218.122 415.157 220.157 413.657 221.657C412.157 223.157 410.122 224 408 224H376C373.878 224 371.843 223.157 370.343 221.657C368.843 220.157 368 218.122 368 216V210.667Z" stroke="#2C3E50" stroke-width="4" stroke-linecap="round" stroke-linejoin="round"/>
<path d="M368 232C368 229.878 368.843 227.843 370.343 226.343C371.843 224.843 373.878 224 376 224H408C410.122 224 412.157 224.843 413.657 226.343C415.157 227.843 416 229.878 416 232V237.333C416 239.455 415.157 241.49 413.657 242.99C412.157 244.49 410.122 245.333 408 245.333H376C373.878 245.333 371.843 244.49 370.343 242.99C368.843 241.49 368 239.455 368 237.333V232Z" stroke="#2C3E50" stroke-width="4" stroke-linecap="round" stroke-linejoin="round"/>
<path d="M378.667 213.333V213.36" stroke="#2C3E50" stroke-width="4" stroke-linecap="round" stroke-linejoin="round"/>
<path d="M378.667 234.667V234.693" stroke="#2C3E50" stroke-width="4" stroke-linecap="round" stroke-linejoin="round"/>
</g>
<path d="M380.222 267.126C380.222 271.078 379.262 273.494 375.39 275.206L373.678 273.59C376.782 272.518 378.126 271.126 378.126 267.19V262.934C378.126 262.294 378.094 261.766 378.03 261.462H380.318C380.286 261.782 380.222 262.294 380.222 262.934V267.126ZM374.43 261.59C374.398 261.894 374.334 262.406 374.334 263.046V268.758C374.334 269.478 374.382 270.134 374.414 270.438H372.174C372.206 270.134 372.254 269.478 372.254 268.758V263.03C372.254 262.582 372.222 262.086 372.158 261.59H374.43ZM369.166 264.47C369.454 264.518 370.11 264.63 370.894 264.63H381.39C382.238 264.63 382.718 264.582 383.166 264.518V266.646C382.814 266.598 382.238 266.598 381.406 266.598H370.894C370.094 266.598 369.534 266.63 369.166 266.646V264.47ZM385.534 266.774C386.126 266.822 387.278 266.886 388.11 266.886C389.998 266.886 395.278 266.886 396.702 266.886C397.454 266.886 398.158 266.806 398.59 266.774V269.302C398.206 269.286 397.39 269.206 396.718 269.206C395.262 269.206 389.998 269.206 388.11 269.206C387.214 269.206 386.142 269.254 385.534 269.302V266.774ZM412.21 261.43C412.61 262.006 413.186 263.03 413.49 263.622L412.194 264.166C411.874 263.51 411.378 262.566 410.946 261.942L412.21 261.43ZM414.114 260.71C414.53 261.302 415.122 262.326 415.394 262.886L414.13 263.43C413.794 262.758 413.282 261.83 412.834 261.222L414.114 260.71ZM402.818 269.206C403.522 267.43 404.13 265.174 404.338 263.126L406.658 263.622C406.53 264.07 406.338 264.854 406.274 265.222C406.05 266.342 405.474 268.534 404.914 270.022C404.338 271.574 403.394 273.398 402.562 274.598L400.322 273.654C401.314 272.342 402.258 270.63 402.818 269.206ZM410.706 268.886C410.098 267.206 409.074 264.838 408.386 263.622L410.514 262.934C411.186 264.166 412.274 266.63 412.882 268.166C413.458 269.622 414.306 272.166 414.738 273.75L412.37 274.518C411.938 272.63 411.346 270.614 410.706 268.886Z" fill="#1E1E1E"/>
<rect x="401" y="232" width="23" height="23" rx="3" fill="#007ACC"/>
<g clip-path="url(#clip4_11_160)">
<path d="M415.375 248.771C415.682 249.077 416.098 249.25 416.532 249.25H417.052C417.713 249.25 418.25 248.713 418.25 248.052V247.812C418.25 247.431 418.099 247.066 417.829 246.796C417.559 246.526 417.194 246.375 416.812 246.375C416.431 246.375 416.066 246.224 415.796 245.954C415.526 245.684 415.375 245.319 415.375 244.937V244.698C415.375 244.037 415.912 243.5 416.573 243.5H417.093C417.527 243.5 417.943 243.673 418.25 243.979" stroke="white" stroke-width="1.4375" stroke-linecap="round" stroke-linejoin="round"/>
<path d="M409.625 243.5H413.458" stroke="white" stroke-width="1.4375" stroke-linecap="round" stroke-linejoin="round"/>
<path d="M411.542 243.5V249.25" stroke="white" stroke-width="1.4375" stroke-linecap="round" stroke-linejoin="round"/>
<path d="M421.125 250.208V236.792C421.125 236.283 420.923 235.796 420.564 235.436C420.204 235.077 419.717 234.875 419.208 234.875H405.792C405.283 234.875 404.796 235.077 404.436 235.436C404.077 235.796 403.875 236.283 403.875 236.792V250.208C403.875 250.717 404.077 251.204 404.436 251.564C404.796 251.923 405.283 252.125 405.792 252.125H419.208C419.717 252.125 420.204 251.923 420.564 251.564C420.923 251.204 421.125 250.717 421.125 250.208Z" stroke="white" stroke-width="1.4375" stroke-linecap="round" stroke-linejoin="round"/>
</g>
<path d="M113.16 374.838C113.576 374.87 114.056 374.886 114.6 374.886C115.736 374.886 121.032 374.886 122.2 374.886C122.728 374.886 123.16 374.87 123.512 374.838V376.102C123.128 376.086 122.76 376.07 122.2 376.07C121.032 376.07 115.432 376.07 114.6 376.07C114.056 376.07 113.576 376.086 113.16 376.102V374.838ZM118.056 379.974C118.056 381.158 118.056 383.302 118.056 383.862C118.056 384.662 118.6 385.158 120.088 385.158C121.592 385.158 122.904 385.094 124.28 384.934L124.2 386.278C122.968 386.358 121.416 386.422 119.896 386.422C117.48 386.422 116.712 385.574 116.712 384.278C116.712 383.11 116.712 381.19 116.712 379.926C116.712 379.27 116.712 376.358 116.712 375.702H118.056C118.056 376.342 118.056 379.526 118.056 379.974ZM112.104 379.366C112.536 379.414 113.176 379.446 113.608 379.446C114.76 379.446 122.44 379.446 123.432 379.446C123.768 379.446 124.408 379.414 124.776 379.382V380.694C124.408 380.662 123.816 380.662 123.464 380.662C122.424 380.662 114.76 380.662 113.608 380.662C113.192 380.662 112.536 380.678 112.104 380.71V379.366ZM138.328 373.718C138.728 374.294 139.304 375.27 139.64 375.91L138.76 376.294C138.456 375.654 137.912 374.694 137.48 374.086L138.328 373.718ZM140.088 373.078C140.504 373.67 141.128 374.662 141.416 375.254L140.568 375.638C140.216 374.95 139.688 374.038 139.24 373.446L140.088 373.078ZM129.56 381.382C130.264 379.718 130.92 377.286 131.144 375.446L132.568 375.734C132.456 376.086 132.344 376.566 132.264 376.902C132.056 377.894 131.496 380.262 130.824 381.91C130.232 383.366 129.352 385.014 128.456 386.31L127.096 385.734C128.104 384.39 129.016 382.71 129.56 381.382ZM137.448 380.774C136.808 379.126 135.816 376.902 135.128 375.702L136.424 375.27C137.048 376.438 138.072 378.646 138.76 380.326C139.4 381.91 140.248 384.358 140.68 385.814L139.256 386.262C138.856 384.646 138.104 382.47 137.448 380.774ZM143.288 380.406C146.056 379.67 148.488 378.534 150.264 377.43C151.944 376.374 153.544 374.998 154.648 373.654L155.72 374.662C154.344 376.086 152.664 377.43 150.792 378.598C149.032 379.686 146.488 380.854 143.912 381.654L143.288 380.406ZM150.008 378.086L151.384 377.67V384.982C151.384 385.574 151.416 386.374 151.496 386.678H149.912C149.96 386.374 150.008 385.574 150.008 384.982V378.086ZM166.104 385.846C166.168 385.606 166.216 385.27 166.216 384.95C166.216 384.214 166.216 376.374 166.216 375.366C166.216 374.758 166.136 374.31 166.136 374.182H167.608C167.592 374.31 167.528 374.774 167.528 375.382C167.528 376.374 167.528 384.118 167.528 384.598C169.016 383.926 170.984 382.47 172.2 380.662L172.968 381.766C171.576 383.638 169.368 385.27 167.512 386.198C167.24 386.326 167.08 386.47 166.952 386.55L166.104 385.846ZM158.776 385.782C160.136 384.822 161.08 383.398 161.56 381.846C162.04 380.374 162.04 377.19 162.04 375.398C162.04 374.934 162.008 374.582 161.928 374.246H163.4C163.384 374.422 163.32 374.918 163.32 375.382C163.32 377.158 163.272 380.598 162.84 382.198C162.36 383.91 161.336 385.462 159.992 386.582L158.776 385.782Z" fill="#757575"/>
<g clip-path="url(#clip5_11_160)">
<path d="M126 317.333C126 315.919 126.562 314.562 127.562 313.562C128.562 312.562 129.919 312 131.333 312H152.667C154.081 312 155.438 312.562 156.438 313.562C157.438 314.562 158 315.919 158 317.333V354.667C158 356.081 157.438 357.438 156.438 358.438C155.438 359.438 154.081 360 152.667 360H131.333C129.919 360 128.562 359.438 127.562 358.438C126.562 357.438 126 356.081 126 354.667V317.333Z" stroke="#9E9E9E" stroke-width="4" stroke-linecap="round" stroke-linejoin="round"/>
<path d="M139.333 314.667H144.667" stroke="#9E9E9E" stroke-width="4" stroke-linecap="round" stroke-linejoin="round"/>
<path d="M142 349.333V349.36" stroke="#9E9E9E" stroke-width="4" stroke-linecap="round" stroke-linejoin="round"/>
</g>
<rect x="154" y="232" width="23" height="23" rx="3" fill="#007ACC"/>
<g clip-path="url(#clip6_11_160)">
<path d="M168.375 248.771C168.682 249.077 169.098 249.25 169.532 249.25H170.052C170.713 249.25 171.25 248.713 171.25 248.052V247.812C171.25 247.431 171.099 247.066 170.829 246.796C170.559 246.526 170.194 246.375 169.812 246.375C169.431 246.375 169.066 246.224 168.796 245.954C168.526 245.684 168.375 245.319 168.375 244.937V244.698C168.375 244.037 168.912 243.5 169.573 243.5H170.093C170.527 243.5 170.943 243.673 171.25 243.979" stroke="white" stroke-width="1.4375" stroke-linecap="round" stroke-linejoin="round"/>
<path d="M162.625 243.5H166.458" stroke="white" stroke-width="1.4375" stroke-linecap="round" stroke-linejoin="round"/>
<path d="M164.542 243.5V249.25" stroke="white" stroke-width="1.4375" stroke-linecap="round" stroke-linejoin="round"/>
<path d="M174.125 250.208V236.792C174.125 236.283 173.923 235.796 173.564 235.436C173.204 235.077 172.717 234.875 172.208 234.875H158.792C158.283 234.875 157.796 235.077 157.436 235.436C157.077 235.796 156.875 236.283 156.875 236.792V250.208C156.875 250.717 157.077 251.204 157.436 251.564C157.796 251.923 158.283 252.125 158.792 252.125H172.208C172.717 252.125 173.204 251.923 173.564 251.564C173.923 251.204 174.125 250.717 174.125 250.208Z" stroke="white" stroke-width="1.4375" stroke-linecap="round" stroke-linejoin="round"/>
</g>
<g clip-path="url(#clip7_11_160)">
<path d="M260 245.333H278.667" stroke="#9E9E9E" stroke-width="4" stroke-linecap="round" stroke-linejoin="round"/>
<path d="M289.333 245.333H308" stroke="#9E9E9E" stroke-width="4" stroke-linecap="round" stroke-linejoin="round"/>
<path d="M278.667 245.333C278.667 246.748 279.229 248.104 280.229 249.105C281.229 250.105 282.586 250.667 284 250.667C285.415 250.667 286.771 250.105 287.771 249.105C288.772 248.104 289.333 246.748 289.333 245.333C289.333 243.919 288.772 242.562 287.771 241.562C286.771 240.562 285.415 240 284 240C282.586 240 281.229 240.562 280.229 241.562C279.229 242.562 278.667 243.919 278.667 245.333Z" stroke="#9E9E9E" stroke-width="4" stroke-linecap="round" stroke-linejoin="round"/>
<path d="M284 234.667V240" stroke="#9E9E9E" stroke-width="4" stroke-linecap="round" stroke-linejoin="round"/>
<path d="M273.333 234.677H269.752C262.893 234.667 257.333 229.315 257.333 222.712C257.333 216.112 262.893 210.76 269.752 210.76C270.8 206.061 274.536 202.227 279.552 200.699C284.565 199.173 290.101 200.184 294.069 203.365C298.037 206.539 299.835 211.384 298.789 216.083H301.429C306.531 216.083 310.667 220.243 310.667 225.379C310.667 230.517 306.531 234.677 301.427 234.677H294.667" stroke="#9E9E9E" stroke-width="4" stroke-linecap="round" stroke-linejoin="round"/>
</g>
<path d="M248.6 261.558C249 262.134 249.576 263.094 249.896 263.75L249.032 264.134C248.728 263.494 248.184 262.518 247.752 261.926L248.6 261.558ZM250.344 260.918C250.776 261.494 251.384 262.502 251.688 263.094L250.84 263.478C250.488 262.774 249.96 261.878 249.512 261.27L250.344 260.918ZM242.792 262.134C242.664 262.502 242.504 262.934 242.392 263.27C242.136 263.99 241.784 264.966 241.336 265.846C240.696 267.094 239.528 268.726 238.52 269.558L237.256 268.79C238.408 267.974 239.56 266.326 240.104 265.35C240.552 264.55 240.824 263.734 241.016 263.11C241.144 262.71 241.224 262.262 241.256 261.846L242.792 262.134ZM240.792 264.886C241.848 264.886 248.68 264.886 249.336 264.886C249.736 264.886 250.376 264.87 250.84 264.79V266.166C250.328 266.134 249.704 266.134 249.336 266.134C248.68 266.134 241.816 266.134 240.616 266.134L240.792 264.886ZM246.664 265.558C246.52 270.486 244.696 273.318 241.832 275.142L240.472 274.214C240.92 274.038 241.416 273.75 241.768 273.462C243.416 272.23 245.224 269.99 245.304 265.558H246.664ZM253.88 267.254C254.376 267.302 255.208 267.35 256.12 267.35C257.288 267.35 263.704 267.35 264.888 267.35C265.688 267.35 266.248 267.286 266.616 267.254V268.822C266.28 268.806 265.608 268.758 264.904 268.758C263.688 268.758 257.304 268.758 256.12 268.758C255.24 268.758 254.392 268.79 253.88 268.822V267.254ZM273.464 272.774C273.464 271.878 273.464 264.806 273.464 263.478C273.464 263.014 273.432 262.31 273.352 261.798H274.92C274.856 262.294 274.808 262.982 274.808 263.478C274.808 265.958 274.824 272.022 274.824 272.774C274.824 273.286 274.856 274.15 274.92 274.678H273.368C273.448 274.166 273.464 273.366 273.464 272.774ZM274.52 266.006C276.632 266.614 279.864 267.846 281.64 268.71L281.08 270.07C279.256 269.094 276.264 267.958 274.52 267.414V266.006ZM292.552 261.382C292.488 261.878 292.472 262.246 292.472 262.582C292.472 262.95 292.472 264.15 292.472 264.71H291.112C291.112 264.086 291.112 262.95 291.112 262.582C291.112 262.246 291.096 261.878 291.032 261.382H292.552ZM298.008 264.486C297.928 264.71 297.832 265.142 297.784 265.446C297.56 266.726 297.096 268.726 296.2 270.246C295.016 272.342 292.808 273.974 289.88 274.774L288.84 273.59C289.368 273.494 289.976 273.334 290.488 273.142C292.104 272.614 293.848 271.43 294.84 269.91C295.704 268.55 296.2 266.614 296.344 265.254H287.416C287.416 265.91 287.416 267.622 287.416 268.118C287.416 268.39 287.432 268.822 287.464 269.062H286.072C286.12 268.79 286.136 268.358 286.136 268.038C286.136 267.526 286.136 265.782 286.136 265.222C286.136 264.886 286.136 264.342 286.072 264.006C286.536 264.038 287.016 264.07 287.576 264.07H296.056C296.648 264.07 296.936 264.006 297.144 263.942L298.008 264.486ZM302.984 265.926C303.336 265.958 303.832 265.99 304.088 265.99H311.464C311.864 265.99 312.264 265.958 312.584 265.926V267.206C312.248 267.174 311.816 267.158 311.464 267.158H304.104C303.848 267.158 303.32 267.174 302.984 267.206V265.926ZM307.048 273.702V266.646H308.328V273.702H307.048ZM302.216 272.966C302.584 273.014 303 273.03 303.352 273.03H312.2C312.584 273.03 312.952 272.998 313.272 272.966V274.294C312.952 274.262 312.456 274.246 312.2 274.246H303.352C303 274.246 302.6 274.262 302.216 274.294V272.966ZM316.936 268.406C319.704 267.67 322.136 266.534 323.912 265.43C325.592 264.374 327.192 262.998 328.296 261.654L329.368 262.662C327.992 264.086 326.312 265.43 324.44 266.598C322.68 267.686 320.136 268.854 317.56 269.654L316.936 268.406ZM323.656 266.086L325.032 265.67V272.982C325.032 273.574 325.064 274.374 325.144 274.678H323.56C323.608 274.374 323.656 273.574 323.656 272.982V266.086Z" fill="#757575"/>
<path d="M180 116.5C179.172 116.5 178.5 117.172 178.5 118C178.5 118.828 179.172 119.5 180 119.5V116.5ZM233 230.66C233 231.489 234.015 232.074 234.732 231.66L246.268 225C246.985 224.586 246.985 223.414 246.268 223L234.732 216.34C234.015 215.926 233 216.511 233 217.34V230.66ZM180 119.5H190V116.5H180V119.5ZM212.5 142V200H215.5V142H212.5ZM212.5 200C212.5 214.083 223.917 225.5 238 225.5V222.5C225.574 222.5 215.5 212.426 215.5 200H212.5ZM190 119.5C202.426 119.5 212.5 129.574 212.5 142H215.5C215.5 127.917 204.083 116.5 190 116.5V119.5Z" fill="#B3B3B3"/>
<path d="M180 222.5C179.172 222.5 178.5 223.172 178.5 224C178.5 224.828 179.172 225.5 180 225.5V222.5ZM233 230.66C233 231.489 234.015 232.074 234.732 231.66L246.268 225C246.985 224.586 246.985 223.414 246.268 223L234.732 216.34C234.015 215.926 233 216.511 233 217.34V230.66ZM180 225.5H234.5V222.5H180V225.5Z" fill="#B3B3B3"/>
<path d="M320 222.5C319.172 222.5 318.5 223.172 318.5 224C318.5 224.828 319.172 225.5 320 225.5V222.5ZM341 230.66C341 231.489 342.015 232.074 342.732 231.66L354.268 225C354.985 224.586 354.985 223.414 354.268 223L342.732 216.34C342.015 215.926 341 216.511 341 217.34V230.66ZM320 225.5H342.5V222.5H320V225.5Z" fill="#B3B3B3"/>
<path d="M178 334.5C177.172 334.5 176.5 335.172 176.5 336C176.5 336.828 177.172 337.5 178 337.5V334.5ZM233 230.66C233 231.489 234.015 232.074 234.732 231.66L246.268 225C246.985 224.586 246.985 223.414 246.268 223L234.732 216.34C234.015 215.926 233 216.511 233 217.34V230.66ZM178 337.5H189V334.5H178V337.5ZM214.5 312V248H211.5V312H214.5ZM214.5 248C214.5 235.574 224.574 225.5 237 225.5V222.5C222.917 222.5 211.5 233.917 211.5 248H214.5ZM189 337.5C203.083 337.5 214.5 326.083 214.5 312H211.5C211.5 324.426 201.426 334.5 189 334.5V337.5Z" fill="#B3B3B3"/>
<path d="M512.792 263.494C512.696 263.622 512.488 263.974 512.408 264.182C511.768 265.766 510.552 268.006 509.224 269.478C507.432 271.478 505.144 273.382 502.616 274.534L501.592 273.462C504.184 272.47 506.536 270.55 508.184 268.726C509.272 267.494 510.44 265.59 510.856 264.262C510.28 264.262 505.16 264.262 504.616 264.262C504.04 264.262 503.176 264.326 503 264.342V262.902C503.208 262.934 504.12 262.998 504.616 262.998C505.24 262.998 510.184 262.998 510.792 262.998C511.304 262.998 511.736 262.95 511.992 262.87L512.792 263.494ZM509.432 268.646C511.16 270.086 513.288 272.326 514.376 273.654L513.272 274.63C512.12 273.11 510.248 271.062 508.52 269.542L509.432 268.646ZM521.208 272.774C521.208 271.878 521.208 264.806 521.208 263.478C521.208 263.014 521.176 262.31 521.096 261.798H522.664C522.6 262.294 522.552 262.982 522.552 263.478C522.552 265.958 522.568 272.022 522.568 272.774C522.568 273.286 522.6 274.15 522.664 274.678H521.112C521.192 274.166 521.208 273.366 521.208 272.774ZM522.264 266.006C524.376 266.614 527.608 267.846 529.384 268.71L528.824 270.07C527 269.094 524.008 267.958 522.264 267.414V266.006ZM535.208 273.686C535.32 273.43 535.352 273.206 535.352 272.902C535.352 271.894 535.352 265.27 535.352 263.75C535.352 263.318 535.288 262.598 535.224 262.294H536.792C536.744 262.678 536.68 263.286 536.68 263.734C536.68 265.254 536.68 272.006 536.68 272.822C539.752 272.038 543.448 269.942 545.448 267.366L546.168 268.486C544.088 271.062 540.792 273.03 536.792 274.198C536.632 274.246 536.376 274.326 536.12 274.47L535.208 273.686ZM549.096 267.254C549.592 267.302 550.424 267.35 551.336 267.35C552.504 267.35 558.92 267.35 560.104 267.35C560.904 267.35 561.464 267.286 561.832 267.254V268.822C561.496 268.806 560.824 268.758 560.12 268.758C558.904 268.758 552.52 268.758 551.336 268.758C550.456 268.758 549.608 268.79 549.096 268.822V267.254ZM574.448 262.246C574.848 262.838 575.568 263.974 575.936 264.742L575.024 265.158C574.624 264.31 574.08 263.35 573.552 262.63L574.448 262.246ZM576.528 261.478C576.96 262.038 577.68 263.19 578.064 263.926L577.152 264.342C576.736 263.51 576.176 262.582 575.648 261.878L576.528 261.478ZM567.6 262.006C568.544 262.534 570.384 263.766 571.088 264.278L570.32 265.366C569.568 264.79 567.824 263.622 566.88 263.094L567.6 262.006ZM565.2 273.446C566.96 273.142 568.944 272.518 570.576 271.59C573.232 270.07 575.328 267.99 576.624 265.734L577.408 267.046C576.016 269.19 573.808 271.27 571.248 272.758C569.632 273.702 567.424 274.454 565.952 274.758L565.2 273.446ZM565.2 265.606C566.144 266.118 568.016 267.27 568.704 267.766L567.968 268.886C567.184 268.326 565.456 267.206 564.48 266.71L565.2 265.606Z" fill="#757575"/>
<g clip-path="url(#clip8_11_160)">
<path d="M528.833 226C528.833 227.238 529.957 228.425 531.957 229.3C533.958 230.175 536.671 230.667 539.5 230.667C542.329 230.667 545.042 230.175 547.042 229.3C549.043 228.425 550.167 227.238 550.167 226C550.167 224.762 549.043 223.575 547.042 222.7C545.042 221.825 542.329 221.333 539.5 221.333C536.671 221.333 533.958 221.825 531.957 222.7C529.957 223.575 528.833 224.762 528.833 226Z" stroke="#9E9E9E" stroke-width="4" stroke-linecap="round" stroke-linejoin="round"/>
<path d="M528.833 225.333V235.333C528.833 237.909 533.607 240 539.5 240C545.393 240 550.167 237.909 550.167 235.333V225.333" stroke="#9E9E9E" stroke-width="4" stroke-linecap="round" stroke-linejoin="round"/>
<path d="M544.833 200V210.667C544.833 211.374 545.114 212.052 545.614 212.552C546.114 213.052 546.793 213.333 547.5 213.333H558.167" stroke="#9E9E9E" stroke-width="4" stroke-linecap="round" stroke-linejoin="round"/>
<path d="M552.833 248H526.167C524.752 248 523.396 247.438 522.395 246.438C521.395 245.438 520.833 244.081 520.833 242.667V205.333C520.833 203.919 521.395 202.562 522.395 201.562C523.396 200.562 524.752 200 526.167 200H544.833L558.167 213.333V242.667C558.167 244.081 557.605 245.438 556.604 246.438C555.604 247.438 554.248 248 552.833 248Z" stroke="#9E9E9E" stroke-width="4" stroke-linecap="round" stroke-linejoin="round"/>
</g>
<path d="M428 222.5C427.172 222.5 426.5 223.172 426.5 224C426.5 224.828 427.172 225.5 428 225.5V222.5ZM488.5 230.66C488.5 231.489 489.515 232.074 490.232 231.66L501.768 225C502.485 224.586 502.485 223.414 501.768 223L490.232 216.34C489.515 215.926 488.5 216.511 488.5 217.34V230.66ZM428 225.5H490V222.5H428V225.5Z" fill="#B3B3B3"/>
<path d="M556 318.333C554.949 318.333 553.909 318.816 552.939 319.754C551.968 320.692 551.086 322.067 550.343 323.801C549.6 325.534 549.011 327.592 548.609 329.857C548.207 332.121 548 334.549 548 337C548 339.451 548.207 341.879 548.609 344.143C549.011 346.408 549.6 348.466 550.343 350.199C551.086 351.933 551.968 353.308 552.939 354.246C553.909 355.184 554.949 355.667 556 355.667C557.051 355.667 558.091 355.184 559.061 354.246C560.032 353.308 560.914 351.933 561.657 350.199C562.4 348.466 562.989 346.408 563.391 344.143C563.793 341.879 564 339.451 564 337C564 334.549 563.793 332.121 563.391 329.857C562.989 327.592 562.4 325.534 561.657 323.801C560.914 322.067 560.032 320.692 559.061 319.754C558.091 318.816 557.051 318.333 556 318.333Z" stroke="#9E9E9E" stroke-width="4" stroke-linecap="round" stroke-linejoin="round"/>
<path d="M556 318.333L524 318.333C519.581 318.333 516 326.691 516 337C516 347.309 519.581 355.667 524 355.667L556 355.667" stroke="#9E9E9E" stroke-width="4" stroke-linecap="round" stroke-linejoin="round"/>
<path d="M428 222.5C427.172 222.5 426.5 223.172 426.5 224C426.5 224.828 427.172 225.5 428 225.5V222.5ZM489 343.66C489 344.489 490.015 345.074 490.732 344.66L502.268 338C502.985 337.586 502.985 336.414 502.268 336L490.732 329.34C490.015 328.926 489 329.511 489 330.34V343.66ZM428 225.5H442V222.5H428V225.5ZM464.5 248V313H467.5V248H464.5ZM490 338.5H490.5V335.5H490V338.5ZM464.5 313C464.5 327.083 475.917 338.5 490 338.5V335.5C477.574 335.5 467.5 325.426 467.5 313H464.5ZM442 225.5C454.426 225.5 464.5 235.574 464.5 248H467.5C467.5 233.917 456.083 222.5 442 222.5V225.5Z" fill="#B3B3B3"/>
<g clip-path="url(#clip9_11_160)">
<path d="M439.533 389.512C440.669 384.829 447.331 384.829 448.467 389.512C448.637 390.215 448.971 390.869 449.442 391.419C449.913 391.969 450.506 392.4 451.175 392.677C451.844 392.954 452.568 393.069 453.29 393.013C454.012 392.957 454.71 392.731 455.328 392.355C459.443 389.848 464.155 394.557 461.648 398.675C461.272 399.292 461.047 399.99 460.991 400.711C460.935 401.433 461.05 402.157 461.327 402.825C461.603 403.493 462.034 404.087 462.583 404.557C463.133 405.028 463.785 405.362 464.488 405.533C469.171 406.669 469.171 413.331 464.488 414.467C463.785 414.637 463.131 414.971 462.581 415.442C462.031 415.913 461.6 416.506 461.323 417.175C461.046 417.844 460.931 418.568 460.987 419.29C461.043 420.012 461.269 420.71 461.645 421.328C464.152 425.443 459.443 430.155 455.325 427.648C454.708 427.272 454.01 427.047 453.289 426.991C452.567 426.935 451.843 427.05 451.175 427.327C450.507 427.603 449.913 428.034 449.443 428.583C448.972 429.133 448.638 429.785 448.467 430.488C447.331 435.171 440.669 435.171 439.533 430.488C439.363 429.785 439.029 429.131 438.558 428.581C438.087 428.031 437.494 427.6 436.825 427.323C436.156 427.046 435.432 426.931 434.71 426.987C433.988 427.043 433.29 427.269 432.672 427.645C428.557 430.152 423.845 425.443 426.352 421.325C426.728 420.708 426.953 420.01 427.009 419.289C427.065 418.567 426.95 417.843 426.673 417.175C426.397 416.507 425.966 415.913 425.417 415.443C424.867 414.972 424.215 414.638 423.512 414.467C418.829 413.331 418.829 406.669 423.512 405.533C424.215 405.363 424.869 405.029 425.419 404.558C425.969 404.087 426.4 403.494 426.677 402.825C426.954 402.156 427.069 401.432 427.013 400.71C426.957 399.988 426.731 399.29 426.355 398.672C423.848 394.557 428.557 389.845 432.675 392.352C435.341 393.973 438.797 392.539 439.533 389.512Z" stroke="#2C3E50" stroke-width="4" stroke-linecap="round" stroke-linejoin="round"/>
<path d="M436 410C436 412.122 436.843 414.157 438.343 415.657C439.843 417.157 441.878 418 444 418C446.122 418 448.157 417.157 449.657 415.657C451.157 414.157 452 412.122 452 410C452 407.878 451.157 405.843 449.657 404.343C448.157 402.843 446.122 402 444 402C441.878 402 439.843 402.843 438.343 404.343C436.843 405.843 436 407.878 436 410Z" stroke="#2C3E50" stroke-width="4" stroke-linecap="round" stroke-linejoin="round"/>
</g>
<path d="M418.984 449.75H427.176V451.03H418.984V449.75ZM418.312 451.718H427.72V453.078H418.312V451.718ZM418.04 457.686H427.896V459.094H418.04V457.686ZM419.928 455.686H426.04V456.934H419.928V455.686ZM418.648 447.766H427.432V449.094H418.648V447.766ZM420.296 446.598H422.072V452.326H420.296V446.598ZM422.088 452.486H423.816V458.294H422.088V452.486ZM423.832 446.598H425.624V452.31H423.832V446.598ZM418.984 453.67H425.944V454.998H420.728V461.51H418.984V453.67ZM425.24 453.67H427.016V459.798C427.016 460.582 426.856 460.998 426.328 461.254C425.784 461.494 425.032 461.51 424.008 461.51C423.944 461.062 423.72 460.422 423.512 460.006C424.104 460.038 424.776 460.022 424.968 460.022C425.176 460.006 425.24 459.958 425.24 459.766V453.67ZM412.968 449.91H418.264V451.686H412.968V449.91ZM414.92 446.598H416.664V461.622H414.92V446.598ZM414.888 451.126L415.96 451.494C415.496 454.022 414.584 457.11 413.448 458.758C413.288 458.246 412.872 457.51 412.6 457.062C413.624 455.67 414.52 453.158 414.888 451.126ZM416.584 452.326C416.952 452.79 418.28 454.886 418.552 455.366L417.56 456.742C417.192 455.766 416.232 453.894 415.784 453.11L416.584 452.326ZM430.984 452.614H434.68V454.374H430.984V452.614ZM433.944 452.614H435.816C435.816 452.614 435.8 453.094 435.8 453.318C435.736 456.71 435.656 458.134 435.288 458.63C434.968 459.03 434.648 459.174 434.184 459.254C433.752 459.318 433.064 459.318 432.312 459.302C432.28 458.742 432.072 457.99 431.784 457.51C432.36 457.574 432.904 457.574 433.16 457.574C433.384 457.574 433.528 457.542 433.656 457.382C433.848 457.126 433.912 456.006 433.944 452.902V452.614ZM438.76 447.606L439.912 446.438C440.792 446.902 441.976 447.638 442.552 448.166L441.32 449.462C440.792 448.902 439.656 448.118 438.76 447.606ZM440.648 451.718L442.584 452.182C441.24 456.358 438.888 459.606 435.72 461.558C435.432 461.158 434.728 460.358 434.328 459.974C437.4 458.326 439.544 455.43 440.648 451.718ZM431.096 448.998H443.432V450.886H431.096V448.998ZM429.816 448.998H431.832V453.702C431.832 456.102 431.56 459.654 430.104 461.814C429.784 461.43 428.92 460.726 428.472 460.502C429.704 458.582 429.816 455.782 429.816 453.686V448.998ZM436.312 446.614H438.328C438.216 453.142 439.688 459.558 441.304 459.558C441.672 459.558 441.864 458.742 441.96 456.726C442.392 457.174 443.08 457.622 443.592 457.814C443.288 460.79 442.648 461.51 441.144 461.51C437.656 461.51 436.36 453.91 436.312 446.614ZM448.632 459.798H456.44V461.206H448.632V459.798ZM450.92 449.958H452.776V451.878H450.92V449.958ZM445.016 451.062H458.936V454.246H457.064V452.502H446.824V454.246H445.016V451.062ZM448.568 453.174H456.408V456.758H448.568V455.382H454.488V454.55H448.568V453.174ZM448.648 457.478H457.624V461.638H455.704V458.886H448.648V457.478ZM447.512 453.174H449.336V461.654H447.512V453.174ZM446.632 447.718H451.672V449.222H446.632V447.718ZM453.112 447.718H459.32V449.222H453.112V447.718ZM446.696 446.47L448.488 446.95C447.864 448.39 446.84 449.846 445.896 450.758C445.528 450.47 444.76 449.958 444.328 449.734C445.288 448.934 446.2 447.686 446.696 446.47ZM453.208 446.47L455.032 446.918C454.456 448.294 453.464 449.622 452.504 450.454C452.12 450.166 451.304 449.75 450.824 449.542C451.848 448.806 452.744 447.638 453.208 446.47ZM447.224 448.886L448.856 448.454C449.256 448.998 449.704 449.766 449.896 450.278L448.168 450.774C448.024 450.278 447.608 449.462 447.224 448.886ZM454.376 448.934L456.056 448.486C456.52 449.014 457.08 449.782 457.336 450.294L455.56 450.79C455.352 450.31 454.824 449.494 454.376 448.934ZM467.944 451.75V453.126H472.792V451.75H467.944ZM467.944 448.902V450.246H472.792V448.902H467.944ZM466.216 447.27H474.616V454.742H466.216V447.27ZM466.104 456.118H474.792V457.846H466.104V456.118ZM464.984 459.382H475.32V461.11H464.984V459.382ZM460.296 447.51H465.608V449.302H460.296V447.51ZM460.456 452.118H465.336V453.894H460.456V452.118ZM460.12 458.198C461.496 457.846 463.544 457.206 465.464 456.582L465.8 458.422C464.008 459.03 462.088 459.654 460.552 460.15L460.12 458.198ZM462.072 448.214H463.896V458.054L462.072 458.342V448.214ZM469.592 447.958H471.208V453.99H471.384V460.198H469.416V453.99H469.592V447.958Z" fill="#1E1E1E"/>
<rect x="453" y="419" width="23" height="23" rx="3" fill="#007ACC"/>
<g clip-path="url(#clip10_11_160)">
<path d="M467.375 435.771C467.682 436.077 468.098 436.25 468.532 436.25H469.052C469.713 436.25 470.25 435.713 470.25 435.052V434.812C470.25 434.431 470.099 434.066 469.829 433.796C469.559 433.526 469.194 433.375 468.812 433.375C468.431 433.375 468.066 433.224 467.796 432.954C467.526 432.684 467.375 432.319 467.375 431.937V431.698C467.375 431.037 467.912 430.5 468.573 430.5H469.093C469.527 430.5 469.943 430.673 470.25 430.979" stroke="white" stroke-width="1.4375" stroke-linecap="round" stroke-linejoin="round"/>
<path d="M461.625 430.5H465.458" stroke="white" stroke-width="1.4375" stroke-linecap="round" stroke-linejoin="round"/>
<path d="M463.542 430.5V436.25" stroke="white" stroke-width="1.4375" stroke-linecap="round" stroke-linejoin="round"/>
<path d="M473.125 437.208V423.792C473.125 423.283 472.923 422.796 472.564 422.436C472.204 422.077 471.717 421.875 471.208 421.875H457.792C457.283 421.875 456.796 422.077 456.436 422.436C456.077 422.796 455.875 423.283 455.875 423.792V437.208C455.875 437.717 456.077 438.204 456.436 438.564C456.796 438.923 457.283 439.125 457.792 439.125H471.208C471.717 439.125 472.204 438.923 472.564 438.564C472.923 438.204 473.125 437.717 473.125 437.208Z" stroke="white" stroke-width="1.4375" stroke-linecap="round" stroke-linejoin="round"/>
</g>
<path d="M480 408.5C479.172 408.5 478.5 409.172 478.5 410C478.5 410.828 479.172 411.5 480 411.5V408.5ZM573 416.66C573 417.489 574.015 418.074 574.732 417.66L586.268 411C586.985 410.586 586.985 409.414 586.268 409L574.732 402.34C574.015 401.926 573 402.511 573 403.34V416.66ZM480 411.5H574.5V408.5H480V411.5Z" fill="#757575"/>
<path d="M408 411.5C408.828 411.5 409.5 410.828 409.5 410C409.5 409.172 408.828 408.5 408 408.5L408 411.5ZM315 403.34C315 402.511 313.985 401.926 313.268 402.34L301.732 409C301.015 409.414 301.015 410.586 301.732 411L313.268 417.66C313.985 418.074 315 417.489 315 416.66L315 403.34ZM408 408.5L313.5 408.5L313.5 411.5L408 411.5L408 408.5Z" fill="#757575"/>
<g clip-path="url(#clip11_11_160)">
<path d="M518.667 95C518.667 97.1217 520.914 99.1566 524.915 100.657C528.916 102.157 534.342 103 540 103C545.658 103 551.084 102.157 555.085 100.657C559.086 99.1566 561.333 97.1217 561.333 95C561.333 92.8783 559.086 90.8434 555.085 89.3431C551.084 87.8429 545.658 87 540 87C534.342 87 528.916 87.8429 524.915 89.3431C520.914 90.8434 518.667 92.8783 518.667 95Z" stroke="#9E9E9E" stroke-width="4" stroke-linecap="round" stroke-linejoin="round"/>
<path d="M518.667 95V111C518.667 113.122 520.914 115.157 524.915 116.657C528.916 118.157 534.342 119 540 119C545.658 119 551.084 118.157 555.085 116.657C559.086 115.157 561.333 113.122 561.333 111V95" stroke="#9E9E9E" stroke-width="4" stroke-linecap="round" stroke-linejoin="round"/>
<path d="M518.667 111V127C518.667 129.122 520.914 131.157 524.915 132.657C528.916 134.157 534.342 135 540 135C545.658 135 551.084 134.157 555.085 132.657C559.086 131.157 561.333 129.122 561.333 127V111" stroke="#9E9E9E" stroke-width="4" stroke-linecap="round" stroke-linejoin="round"/>
</g>
<path d="M495.586 149.502C496.034 149.55 496.514 149.582 497.026 149.582C497.954 149.582 501.682 149.582 502.578 149.582C503.026 149.582 503.602 149.55 504.066 149.502V150.83C503.586 150.798 503.026 150.766 502.578 150.766C501.682 150.766 497.954 150.766 497.058 150.766C496.514 150.766 496.002 150.798 495.586 150.83V149.502ZM493.682 153.518C494.114 153.566 494.578 153.598 495.074 153.598C496.002 153.598 504.69 153.598 505.538 153.598C505.874 153.598 506.402 153.566 506.802 153.518V154.846C506.45 154.814 505.938 154.798 505.538 154.798C504.69 154.798 496.002 154.798 495.074 154.798C494.594 154.798 494.114 154.814 493.682 154.846V153.518ZM501.218 154.158C501.218 156.174 500.962 157.838 500.258 159.182C499.666 160.254 498.466 161.406 497.106 162.094L495.922 161.23C497.154 160.702 498.306 159.79 498.946 158.766C499.746 157.502 499.858 155.934 499.874 154.174L501.218 154.158ZM504.898 148.19C505.298 148.766 505.874 149.742 506.194 150.382L505.33 150.766C505.026 150.126 504.482 149.166 504.05 148.558L504.898 148.19ZM506.642 147.55C507.074 148.142 507.682 149.134 507.986 149.726L507.138 150.11C506.786 149.422 506.258 148.51 505.81 147.918L506.642 147.55ZM509.778 154.254C510.274 154.302 511.106 154.35 512.018 154.35C513.186 154.35 519.602 154.35 520.786 154.35C521.586 154.35 522.146 154.286 522.514 154.254V155.822C522.178 155.806 521.506 155.758 520.802 155.758C519.586 155.758 513.202 155.758 512.018 155.758C511.138 155.758 510.29 155.79 509.778 155.822V154.254ZM530.626 153.854C532.674 155.054 535.298 156.894 536.882 158.174L535.938 159.294C534.466 157.95 531.73 155.982 529.746 154.75L530.626 153.854ZM537.938 150.942C537.81 151.166 537.65 151.534 537.57 151.79C537.09 153.422 536.082 155.55 534.674 157.278C533.218 159.07 531.138 160.782 528.098 161.902L526.962 160.894C529.938 159.998 532.114 158.302 533.554 156.59C534.786 155.118 535.794 153.086 536.162 151.598H530.242L530.754 150.446H535.842C536.274 150.446 536.626 150.398 536.882 150.302L537.938 150.942ZM532.546 148.622C532.274 149.038 531.986 149.582 531.826 149.886C530.882 151.646 529.074 154.062 526.514 155.822L525.458 155.006C528.194 153.294 529.842 150.894 530.578 149.422C530.738 149.15 530.994 148.574 531.09 148.158L532.546 148.622ZM550.85 150.334C551.266 150.926 552.002 152.11 552.37 152.878L551.426 153.294C551.042 152.462 550.466 151.454 549.938 150.734L550.85 150.334ZM552.914 149.518C553.33 150.078 554.098 151.278 554.482 152.014L553.554 152.462C553.122 151.63 552.546 150.654 552.018 149.95L552.914 149.518ZM540.658 156.974C541.058 156.622 541.362 156.334 541.778 155.918C542.546 155.15 543.938 153.374 544.946 152.174C545.794 151.166 546.546 150.99 547.634 152.03C548.61 152.942 549.986 154.382 550.914 155.374C552.002 156.526 553.602 158.254 554.834 159.582L553.73 160.75C552.594 159.374 551.186 157.726 550.146 156.558C549.218 155.518 547.746 153.934 547.074 153.262C546.45 152.67 546.146 152.718 545.602 153.39C544.834 154.318 543.49 156.078 542.77 156.958C542.434 157.374 542.098 157.87 541.842 158.19L540.658 156.974ZM557.25 154.254C557.746 154.302 558.578 154.35 559.49 154.35C560.658 154.35 567.074 154.35 568.258 154.35C569.058 154.35 569.618 154.286 569.986 154.254V155.822C569.65 155.806 568.978 155.758 568.274 155.758C567.058 155.758 560.674 155.758 559.49 155.758C558.61 155.758 557.762 155.79 557.25 155.822V154.254ZM583.446 150.494C583.35 150.622 583.142 150.974 583.062 151.182C582.422 152.766 581.206 155.006 579.878 156.478C578.086 158.478 575.798 160.382 573.27 161.534L572.246 160.462C574.838 159.47 577.19 157.55 578.838 155.726C579.926 154.494 581.094 152.59 581.51 151.262C580.934 151.262 575.814 151.262 575.27 151.262C574.694 151.262 573.83 151.326 573.654 151.342V149.902C573.862 149.934 574.774 149.998 575.27 149.998C575.894 149.998 580.838 149.998 581.446 149.998C581.958 149.998 582.39 149.95 582.646 149.87L583.446 150.494ZM580.086 155.646C581.814 157.086 583.942 159.326 585.03 160.654L583.926 161.63C582.774 160.11 580.902 158.062 579.174 156.542L580.086 155.646Z" fill="#757575"/>
<path d="M428 222.5C427.172 222.5 426.5 223.172 426.5 224C426.5 224.828 427.172 225.5 428 225.5V222.5ZM489 117.66C489 118.489 490.015 119.074 490.732 118.66L502.268 112C502.985 111.586 502.985 110.414 502.268 110L490.732 103.34C490.015 102.926 489 103.511 489 104.34V117.66ZM428 225.5H442V222.5H428V225.5ZM467.5 200V135H464.5V200H467.5ZM490 112.5H490.5V109.5H490V112.5ZM467.5 135C467.5 122.574 477.574 112.5 490 112.5V109.5C475.917 109.5 464.5 120.917 464.5 135H467.5ZM442 225.5C456.083 225.5 467.5 214.083 467.5 200H464.5C464.5 212.426 454.426 222.5 442 222.5V225.5Z" fill="#B3B3B3"/>
<defs>
<clipPath id="clip0_11_160">
<rect width="64" height="64" fill="white" transform="translate(112 86)"/>
</clipPath>
<clipPath id="clip1_11_160">
<rect width="64" height="64" fill="white" transform="translate(112 191.182)"/>
</clipPath>
<clipPath id="clip2_11_160">
<rect width="23" height="23" fill="white" transform="translate(153 124)"/>
</clipPath>
<clipPath id="clip3_11_160">
<rect width="64" height="64" fill="white" transform="translate(360 192)"/>
</clipPath>
<clipPath id="clip4_11_160">
<rect width="23" height="23" fill="white" transform="translate(401 232)"/>
</clipPath>
<clipPath id="clip5_11_160">
<rect width="64" height="64" fill="white" transform="translate(110 304)"/>
</clipPath>
<clipPath id="clip6_11_160">
<rect width="23" height="23" fill="white" transform="translate(154 232)"/>
</clipPath>
<clipPath id="clip7_11_160">
<rect width="64" height="64" fill="white" transform="translate(252 192)"/>
</clipPath>
<clipPath id="clip8_11_160">
<rect width="64" height="64" fill="white" transform="translate(507.5 192)"/>
</clipPath>
<clipPath id="clip9_11_160">
<rect width="64" height="64" fill="white" transform="translate(412 378)"/>
</clipPath>
<clipPath id="clip10_11_160">
<rect width="23" height="23" fill="white" transform="translate(453 419)"/>
</clipPath>
<clipPath id="clip11_11_160">
<rect width="64" height="64" fill="white" transform="translate(508 79)"/>
</clipPath>
</defs>
</svg>
